<svg height="596.53" viewBox="0 0 2419.96 596.53" width="2419.96" xmlns="http://www.w3.org/2000/svg"><g fill="#94806a" transform="translate(32.43 -170.47)"><path d="m-32.43 749.51h603l-59.34-53.82-128.5-73.54-98.82-45.76-79.2-8.16c-28.21 7.12-52.09 17.84-69.18 31.06-26.36 21.24-89 68.63-98.89 73.54s-69.07 76.68-69.07 76.68z"/><g fill-rule="evenodd"><path d="m2035.04 176.47c2.14 2.44.59-.1 1 4l-2-2c.33-.63.67-1.3.96-1.97zm-3 4h3l-3 10.05 6-2v4c-6 2.44-6.13 8.41-5 15.06h5c2.68-2.18 2.81-2 4-6l-8-2c7.34.24 10.31.65 11-4l1 2c2.06 1.36 1.62 1.12 3 3l-13 11.05c1.47 4.27 8.1 13.18 11 16.07h1c2-18.28 6.58-24.74 1-34.15l6-1c4.61 11.08 29.07-.95 29.13-1-1.46-3.11-1.22-.86-1-5 5.93 1.31 2.68 1.5 9 0l-5 6h6l-4 6 6-3-5 6h4c1.85-2.59 5.25-3.26 3-1 2.29 4.83 2.8 1.16 0 6 3.14-.59 9.08-3.29 6-2h3l-2 1c-1.52 1.82-3.78 4.68-3 7l2-2c6.9-4.93 8.45-10.72 8-18.08l5 3-4 9 8 4c.34-1.67.67-3.35 1-5 1.62 1.68 3.84 1.88 6 3l-5 4 6 6v-2c1.77-3.14.07-7 0-11 3.56-1.91 3.9-2.6 5-7 .33 1 .67 2 1 3h4l-8 6c.41 4 .33 3.93 2 6 4.84-3 7.64-5.43 15.06-6v1h-2l-13.06 8v1c3.82.4 1.25-1.13 4 1-.34 4.2.43 4.52-2 9l5-4c-.78-4.44-2-1.83 0-5 2.45 1.76 1.58-2.65 3 0l12.06 3-4 2v2h3l3-4c1.26 3 0 1.2 2 3 .33-1 .66-2 1-3l-2-1c-3.3-3.06-3.12.28-5-5 5.3 1.25 3.72 2.68 7 1 1.93-1.4.6-.1 2-2l-3 2q.51-5.52 1-11l7-2c-1.24 4.17-4.68 7.42-3 8 2.07 4.72 3 2.68 4 5h-5c.33 1 .66 2 1 3 6.75-3.43 9-4.95 15.06-10q-2.51-5.52-5-11h1v2c5 3.83 3.78 5.2 7 11v-2c2.66-4.48 1.46-6.86 2-10 3.86.62 4.66-3.27 8-5q-4 9-8 18.07l6-3-2 3c-1.85 3-2-.65-4 4l4 1 2-2c3.64-1.89 5-3.54 7-7-4.14.08-1.23 2.06-4-1l4-1c3.52.36 9.91-6.84 15.06-11.05-2.13 6.22-9.68 12.86-15.06 16.07v7h1l13.05-9c-.33 1-.66 2-1 3-1.56 6.48-12.7 6.9-22.09 14.06-.33 3-.67 6-1 9h10c.56-3.44-.64-1 2-4l3 1v5l3-1c-.34-1.67-.67-3.35-1-5 5 1 3.12-.5 8-4l-2 6h1c.85-4.33 1.08-5 4-7v1l-2 5h1c7.95-1.94 10.5 4.71 20.08-2l-3 6 9 1-1 2h-6l2 5 6-2c1.84-3.5.85-2.7 5-4l-1-15.06 2 1c.21 4.33.26 4.85 2 7v-2c.67-3 1.33-6 2-9-4.95-3.29-7-6.81-9-13.06l3 2c2 5.51 5.44 9 9 13.06v-2l9-11.05-16.07 32.14 9 1c-.33.66-.67 1.33-1 2l-3 1c-2.49-1.27-5.57.19-4-2-2 1.52-2.68 2.9-4 5l2 3c5.78-3.18 10.17-.17 16.07-5l-3 1c2.6-3.23 3.33-2.69 9-3v1l-5 2c2.64 2 2.33.61 4 4-2.06 1.36-1.62 1.13-3 3-4.85-1.95-7.86-2.67-11.05 0l3-1-3 4 14.06-4c-.29 6.69 2.07 5.16-3 6v3c-3.23-2.74-4.91-3.69-11-4v1l5 1c-14.6 1.79-16.55 7.5-33.14 11-2.11 5.77-2.15 9.67-8 12.05l2 3h1c6.72-1.88 22.67-11.91 31.13-9-1.28-4.68-2.07-3.47-4-7 3.88.37 4.16-.87 6 1l5 1c-.92 4.87-1.95 1.46 1 5-8.75.38-18.88 1-26.11 5v1l2 3c1.64-4.38 0-2.95 5-4v1c-3.6 1.79-1.19-.54-3 3l16.07-1 1-2 10 4 1-1c-4.16-3.91-3.63-3.67-8-3 4.43-10.28 11.78-17.14 16.08-26.1l10-2-2 2c-3.07 2.85-7.43 2.92-11.05 8h5c-4.25 3.77-3.66.84-1 6h2c-1 2.34-2 4.69-3 7 3.58-1.87 15.61-5.91 17.07-16.07-4.55-.86-3 .12-5-3 3.32 1.38 4.31 1.82 8 1 .33-1 .67-2 1-3-2.42-1.8-1.69-.52 0-3 2.58 4.67.33 3.08 5 2l-3 4 2 3 3-2c-.46-6.74-2.09-5.1 1-10h1l1 2c-3.41 7.57-9.65 12.86-13.05 18.08 10.87-.17 10.83-4.12 19.08-6v1h-2c-3.54 5.15-10.91 7.43-17.07 7l2 4-4-4-9 3c.35 2.22 1.16 1.4-1 2-5.56 3.22-6.48 6.84-6 16.07h1c2-2.07.37-1 4-2v3c-3.28 2.32-.88.1 0 4-4.84-.35-4.42-.6-8 1v9h1c5-3.5 7-2.2 11.05-3v-5c4.26 3.19 1.74 3.43 7 2l-2 7h1l4-4c4.08-1.72 4.05-2.42 6-6h-8c7.81-4.83 8.49-11.41 15.06-14.06-2.66 4.39-4.82 6.74-6 13.06 5-1.08 7.4-2.7 10-6-2-2.2-2.16-5.79-4-9 3.6 1.83 4.72 4.13 7 7l4-3-14.29 17.32c6.84-2.8 14.19.6 17.07 3q.51 2.52 1 5l10.05-6v1c-2 2.56-2.76 2.59-6 4l3 3c4 .44 7.2 1.18 11.05 6-6.75-2.18-15.2-7.76-20.09-3 3.2 1.69 1.15-.5 2 3l-10-2c3.67 3.63 21.46 6.63 28.12 6-1.1 4-1.61 3.82-2 6l-17.07-1h-1c3.08 6.77 12 5.15 18.08 11l-6-2 2 3-13.06-6c1.05 2.64 1.57 1.67 1 4l-6-5c1.05 2.64 1.57 1.66 1 4l-7-5c3.32 4.93 7.49 11.75 13 11-.33 1-.66 2-1 3h-5c-3.26-8.67-12.86-8.25-22.09-9 5.73 9.56 9.15 8.31 20.08 11v1h-11c.78.3 15.49 10.5 16.07 12-6.83-.12-2.55-.72-7 2l-7-9c-6 .64-9.53-3.94-15.06-1l2 1c2.68 2.82 2.82 3 7 2-2 3.05-.33 1.05-3 2 3.25 7.83 10.62 16.32 19.08 19.08v1c-5.27.51-1.91-.27-6 2 .67-10.77-27.25-30.85-30.13-29.12-1 .12-.27.37 0 1l-5 2 3 1c2.85-1.12 1.46-.87 4-1l-2 3-6-1 3 3c7.71-.95 18.4 5.4 19.08 8l-5 1v1l8 2v1c-5.69-.21-6.74-1.08-10-3v3l-5-4 2 4c-3.49-2.36-6.08-3.42-11-5l2-2h3c-2.29-3.55-5.42-3.93-11.05-4v1l6 3v1c-6.79.08-7 3.43-11.05 0-3.38-1.49-2.66-2-7-3-2 1.82 0 .45-4 0v3l4 3c-4.52-.88-3.46-.93-6-3 1.65 5.4 4.41 6 7 10h-1l-10-11.05h-2c-2.3 6.07-4.08 14.73-8 17.07 1.56-6.06 2.91-8.47 1-13.05 4.27-.71 4 .14 5-6-9 .5-17.23 3.36-21.09 9l3-1-3 6c-3.77-3-2.47-2.66-8-2l-4 6c4 1.84 4.51 2.75 6 7l-6-6-2 1-5 8c13.8.43 24.6 5 37.16 2l-3 4-2 1c-10.31-1.87-23.52-7.76-33.15-4 5.74-.06 8.23.47 11.05 3h-12.05v1l3 8c7 7.32 22.58-.59 33.14 8l6 10.05h-2c-2.48-9.4-12.11-12.82-20.08-15.07v1c2.18 6 2 12.21 9 14.06-2.54 4.12-1 2.11-2 6l2 2 15.06 1c2.6-11.82 26.13-14.67 34.14-28.12l-3-2 4-1c-.33.66-.67 1.33-1 2 5.58-2.9 4.51-7.67 9-11l14.06-4c-2.93-1.61-4.12-1.14-3-4l3 3c2.65-3.18 2.24-.07 1-4h5v1l-3 4c8.12-3.72 12.83-6.59 17.08-11.05 1.93 6.22 5.42 4.67 10 5 1.11-4.09-.29-4.87 2-8 3.22.43 2.39 1.74 4-3l4 1v1c-3.62 1.82-3.56 2.06-5 6h1l2-5c2.25 1.63 3.1 3.21 5 5 7.34-1.79 8.22-2.31 13.06-6l-5 7c3 1.74 1.77 1.42 4 2l-7 6v1c2-.7 11.27-5.3 7-1h4l-4 2v2l7 1-3 1c-1.59 1.41-5.9 1.37-10 3-.3-3-3.06-5.08-9-7v1l4 3.06h-9q.51 3 1 6c6.2 1.33 7.48 6.44 12.05 8 4.92 1.71 11.33-.33 15.07 1v1l-15.06 9c-12.75-.41-9.48-6.51-23.1-7v3c.33.67.66 1.34 1 2 4.91.4 8.44-1.09 9 0 4.53 2.73 9.67 3.43 14.06 5-1 3.83-1.91 2.63 2 6 7.71-4.17 19.86-1.55 23.1 5l-3 1c-1.36-.86-7.57-4.33-5 0-4.84-1.75-5.68-4.74-10-4l-2 1c5.1.16 7.45.58 9 7h-1c-5.56-2.63-8-1.68-16.07-2 1.16 2.53 1.79.41 1 3-5.9-5.4-13.64-8-24.1-9v1c11.25 2.22 12.49 9 25.1 10-.33.67-.66 1.34-1 2-13.84-2-23.18-10.16-41.17-7-11.24 2-56.32 20.24-57.24 27.12l-2 1v1c14.4-1.82 19.83-8.88 32.13-14.06.34 1 .67 2 1 3-8.27.43-9.6 3.45-9 10-10.74.12-13 3.63-22.1 5l2 4c-5-.48-1.25-1.17-4 3v-2c-1.52-2.93-1-1.37-1-5-2.07 2.95-1.46 2.45-1 7l-4-1c-6.12.49-5.88-3.88-11-2 1.72 2.6 2.12 3.43 5 5 2.88.75 2.7 0 6-1l-2 2c-2 2.07-.37 1-4 2l-6-6c-29.83 20.17-42.8 44.09-54.23 83.35-2.38 8.17-8.38 21.35-5 34.15l5 8c-7.77 15.13-.73 42.5 8 51.22-3.91 21.49-4.18 51.48-4 78.34q1 12 2 24.1l-2 5-28.12 5-7-8c11.55-49 9.33-98.79 4-142.6-4.09-33.73 3.11-59.4-21.09-74.32-6.58-4-14.83-1.24-24.1-3-16.5-3.16-51.67-3.54-62.27-14.06l-6-11c-2.3 2.79-8.77 5.36-11 5l-4-5-11 1-1 2c2.62.87 3.51-.4 2 2-4.78-.64-3.12 1.64-6 0l5-6c-7.13-.79-11.1.91-17.08 3 1.32-3.22.27-2.12 3-5l-11.06-3c7.57-.11 13.92-.89 13.06 2 5.35-1.28 6.66-1.51 8-7l-3-1c-9.59 1.27-18.1-9.51-29.12 0-2.12-4.86-5.2-4.53-6-8l4 2c1.06-7.38 2.24-4.14 6-7-2.63-2.77-3.36-3-9-5-2.63 1.24-6.22 2.24-10-1 17.2-.12 22.15-10.56 34.15-8l-3-5-32.14 6c4-3.54 7.25-1 7-7l5 4 19.08-6-6 2c1.75-2.13 3.72-2.5 6-4l-3-3 7-1-3 4c5.7-1.37 3-1.08 5-4l-2-1 5-1c-.39 3.15-1.51 1.07 1 3l4 1c-2.17-1.83-2.16 0-2-2 6.41-4.55 10.06-11 17.07-9 .5-3.92 4.3-10.31 8-14.06-.34-1.68-.67-3.35-1-5-7.35 1.15-15.38 3.32-23.1 0l-10.05 8v-1l5-7-6 4c-.28 3.22.59 4.5-3 7v-7l-8 7-2 3c3.44-10.26 6.52-8.76 7-18.08 1.61 2.24 1.7 3.35 4 5l-1-10h4v4l2-2c.2-1.16-.32-.38 2-2 .34 1.34.67 2.68 1 4-2.87 2.15-4.33.23-2 3l3-1c.84-2.59 1.53-5.26 3-7 1.46 4.79-.71 2.51 4 4l3-1 1-2-2-2c-.88.41-19.71 2.52-23.1 0l4-1c-6.5-1.18-7.75-.48-13 1 6.1-5.81 10-.39 18.07-5 3.85-2.22 4.84-8.78 8-11.05s11.3-1.23 16.07-4l-2-3-8 2 6-4c5.84 2.19 16.49-2.61 22.09-7-7.7-2.95-10.18-.39-15.06-7-14.59 4.76-45.07 18.05-48.2 34.15h-2v-3l3-9c2.37-.46 6.65-3.5 10-6v-1l-3-1c-8.54 3.13-13.8 7.22-21.09 5h2c8.66-6.77 20.35-4.5 29.13-4 1.85-3.28 4-4.15 7-6-2.67-4-4.14-8.77-7-11.05l-2 2c1.08 2.76 1.76 2.92-3 5l2-4c-5.57.08-6 .67-8-3 3.25 1.32 5 1.58 9-1l-3-1c-13-3-34.56 5.78-44.19 9l-2-3c4.57.91 8.87.63 11.05-4l-9 2v-1c6.81-5.93 12-1.89 24.1-2v-3l-3-4-7 1-3-5c17.77 6.35 27.82 9.72 46.2 4l-2-3 3 1c-3.67-3.49-6 .57-8-4l10-2c-3.07-3.6-4.6-4.92-8-3l1 3-2-1c-1.31-4.49.67-2-3-4l-17.08 1c-1.38-3.28-1-1.95-3-4 2.89-4.1 1.67-.23 0-6 4 2.91 4.13 3.85 10 3l-1 2-5 1v1h17.08c-5.52-4.62-23.68-12.06-33.14-8-9 5.45-5.73 14.3-9 21.09-5.43 2-6.57 5.82-11.05 1 6.27 1 5.48-2 9-6 1.68 3.2-.5 1.14 3 2-2.86-3.76-2.25-3.44-6-6 4.41-1.11 3.83-1 6-4l-6 2 2-3c3.65-1.89 8.83-7.3 13.06-12l-2-2c-3.17-.12-4.32.93-3-1v-4c4.11 4.54 8.21 11.94 11 2-5.92.79-2.52.73-8 0v-1c10.81-.27 8.83-2.75 17.07-6-.1 3.17-1.76 1.45 1 3v-5c6.75 2.38 8.48 1.28 9-1-6.8 1.85-13.81-1.4-17.07-4l-11 8c-12.6-7.1-18.17 2.7-23.1 4l3-5c-4.5 1-2.53 2.05-6 0 4.71-1.28 4.42-2.05 7-5 4.28 4.18 27 1.43 26.11-6 8.36.35 17.55 2.56 22.1 0l-2-2c-3.23-6.66-14.1-15.52-23.1-10l1-5c-5.48 3.73-10.76 7.53-17.07 11.05l1-3h-2c8.85-5 9.28-5.5 16.07-12.05 2.07 3.62 1.68 2.62 5 0l-23.1-2h2c2-1.62 4.52-.62 8-2-13.23-.44-13.84-5-24.1-4 2.78-5.38 2.07-2.35 0-8 7.2 2.34 8-1.48 10 3-2.22 2.57-1.2.58-1 4l4 2 1-6-6-6.06c4.19-.8 1 1 4-2 1.73 7.32 4.07 5.29 6 12.05-2.85-1.11-1.46-.87-4-1 3.11 2.2 4 1.75 7 1 .37 2.37 6.62 5.62 14.06 6 .82-3.53-1.26-1.47 2-3 .3 3.43-.72 2.15 2 5l-2-4 5 4v-1c-2.81-4.68-6.88-6.82-13-8-.92 3.67 0 2.06-2 4-.14-4.16-5.61-9.27-9-9 1.6-5.27 2.59-5.94 1-10l4 2c-1 4-2.11 3.33 0 6 1.26 3 0 1.2 2 3 5.33 1.42 6.17-4.06 8 3 10.49 2.18 8.82 13 17.07 19.08 2-2.07.38-1 4-2l-1-3c-4.42-3.18-10.7-11.5-12-15.06h2c6.61 6.94 11 13.44 19.08 19.08.14-4.26.76.6 3-3l2 4c-.86-4.59-1.39-3.86-3-7l5 2v-4c-.57-.7-13.52-13.1-13-15.06 7.3 4.2 8.61 5.25 12 8q.5-3 1-6l-6-5c-1.06 1-2.19 1-7-2-2.79 2.27-2.42 1.11-3 6l-2-2c-.54-2.19-1.32-1.1-2-5l4 1c-2.5-2.23-4.26-2.85-6-6 6.59.57 8.1-2.59 17.08 0v-5c-1.94-1.4-.6-.1-2-2l6 3c1.18-5.28 16.07-4.52 22.1-4-4.64-2.58-10.69-3.14-14.06-7l6 2c-.33-1-.67-2-1-3-5.9-1.27-5-2-9 1-.57-4.45 2-2-2-4-2.87-1.65-.28-1.47-4 0 2.18-3.34 2.52-3 8-3l-2-3-11-4 1-3c2.9 2.13 3.72 2.74 10 4-.34-1-.67-2-1-3-3.85-1.83 1-1.66-3-3 4.4-4.17 10.29-4.8 13.06-5l-10-5c5.08 0 4.59.85 7-1-3-1.26-1.2 0-3-2l12 4-5-4v-1l6-2-2 3 4-1c.44-5-1.73-4.24 3-4-.86-3.57-1.44-4.53 1-7-1 5.76 2 11.12 7 12.05l-2-4 5 2c-1.17 3.62-1.34 2.61 0 7l2-1c2.19-.94 1 .43 3-3l-6-9 3 2-2-5c3.48-.66 1.64.9 4-3-5.67-1.12-13.42-10.3-16.07-15.07l2-1 2 2c.56 4.69 5.53 9.44 12 11-3.34-10.24.91-9.58-4-17.08 3.9-.48 1 .82 4-1zm12 1h3l-4 5-2-3 2 1zm52.22 0c1.87 2.59.08 1.6-2 3zm101.43 0c3.37 1.82 4.73 1.53 6 6h-3c-.18-3.12-2.19.67-3-6zm23.1 0h2c-1.4 1.94-.1.6-2 2zm-27.11 2c1.54 2.85 2.26 3.14 0 6-.34-.67-.67-1.34-1-2zm-92.4 1c.34.67.67 1.34 1 2zm62.27 1h2c-1.4 1.93-.1.6-2 2zm-125.54 1h2c-1.4 1.93-.1.6-2 2zm62.26 1c2.38 4.08.57 4.48 6 6-.33 1-.67 2-1 3-4.17-1.9-3.55-1.49-10-1l2-3c3-.61 1.07 1.05 3-2l-3 1zm114.49 0 2 2-3 1c.33-1 .67-2 1-3zm8 0c.33.67.66 1.34 1 2zm-204.87 1 7 1-2 2h-1zm28.08 0c.34.67.67 1.34 1 2-.32-.66-.66-1.33-1-2zm-39.16 1 9 10-8-5q-.5-2.49-1-5zm41.17 0c.34.67.67 1.34 1 2zm26.11 0c1.93 1.4.6.1 2 2zm21.09 0c.34.67.67 1.34 1 2h-2zm24.1 0 1 2zm48.2 0c4.35 1.48 3.42 1 5 5zm20.09 0h2c-1.75 1-.21.93-2 0zm3 0 2 2c-1.92-1.39-.59-.09-2-2zm22.1 1c.33.67.66 1.34 1 2zm7 0h2l-3 2zm-195.84 1 2 2c-1.92-1.38-.59-.08-2-2zm83.32 0 1 2h-2c.35-.66.69-1.32 1-2zm28.12 0c.33 1 .66 2 1 3h-1zm29.12 1 1 2zm10 0h2c-1.4 1.93-.1.6-2 2zm10.05 0h2c-1.94 3-.2 1.63-4 3zm-104.45 2c-.33 1-.66 2-1 3 1.39-2.12 1.84-.5 1-3zm5 0c-.33.67-.66 1.34-1 2 1.81-1.31 1.53.21 1-2zm80.35 0c.33.67.66 1.34 1 2zm-62.26 2c.33 1.68.67 3.35 1 5l-2-1c.58-1.21.92-2.55 1.25-3.89zm64.27 0h2c-1.4 1.93-.1.6-2 2zm-67.28 1h2c-1.4 1.93-.1.6-2 2zm46.2 0h4v2c-3.67-.91-2.05 0-4-2zm-119.51 1 1 2c-.33-.66-.67-1.33-1-2zm28.08 1c.33 2.35.67 4.69 1 7v-2l3-2-2-1c-1.39-1.94-.1-.61-2-2zm10 0 3 4 2-1v-1l-1-2zm93.4 0c2.14 2.45.59-.1 1 4l-2-1c-1.77 2.11-1.16.92-5 2zm3 0h2c-1.4 1.93-.1.6-2 2zm105.45 0c-.22 1.48.42 1-1 3 .33-1 .66-2 1-3zm-206.88 1 3 5 3-1zm60.26 0h2c-1.4 1.93-.1.6-2 2zm49.21 0h2c-1.4 1.93-.1.6-2 2zm10 0c3 1.27 1.2 0 3 2h-1zm-105.45 1 2 1zm42.18 1h3l-2 2c-.34-.65-.68-1.31-1-2zm148.63 0v5h-2zm-170.72 1c-1.25 1.79-1.58 1.66-3 3l2 2 2-2c-.34-1-.67-2-1-3zm55.23 0 3 2c-3.59-.51-4.82 1.15-3-2zm-132.56 1 1 2c-.34-.64-.67-1.3-1-2zm42.18 0 2 1zm13 0q-.49 2.52-1 5h2l3 1 3-5h-2zm38.17 1c.33 1 .66 2 1 3-4.79 1.23-3.19-.26-2 5-9.84.77-17.31 19.42-15.07 22.09l2-1v2l8-5c-2.37 4.4-4.48 6-8 9 2.48 4.37 5.33 3.57 4 3l8-4c.47 2.48.52 5.08 4 4l-1-4h7l-2-7h1l2 3v-9l2 4h1l2-2c.12-2.2 1.45-7.78 3-9l-4-4h-8c2-2.29 2.54-1.71 4-5-4.33-.2-4.85-.26-7-2l5-1zm50.21 0c1.81 2 0 .71 3 2-1.81-2 0-.67-3-2zm13.06 0c.33.67.66 1.34 1 2-.34-.64-.68-1.3-1-2zm54.23 0 2 2c-1.93-1.36-.6-.06-2-2zm-158.25 18.23q-.51-5-1-10c-3.67-.92-2.06 0-4-2h3l-6-5c-5.68 3.25-8.78 10.63-11.05 20.08l1-2 7 2 2-4-3-2c5.62 2.23 5.62 5.38 10 8 .33-1.34.67-2.68 1-4-5 .35-2.6 2.83-5-2zm11-17.07q-.49 3.51-1 7c1.93-1.4.6-.1 2-2l4-5c-2.42 1.75-1.68 1-3 4h-1zm125.54 0 2 2-3 1c.37-1 .7-2 1.04-3zm8 0h4v1zm-60.26 1 1 2zm82.35 0 5 1v1c-3.8-.91-3.38.12-5-2zm-149.63 1c0 .68-.47 3.7 1 2l1 2zm38.16 0h2c-1.4 1.93-.1.6-2 2zm-13.06 1 4 5h-2c-2.73 1.31-1.93.44-4-1 3.64-2.62 1.31.27 2-4zm67.29 0-4 9h2zm22.09 0h3v1l-4 1c.33-.66.67-1.32 1-2zm-144.61 1 5 1v1c-4-.56-3 .07-5-2zm6 0 1 2zm92.39 0 1 2zm-142.61 1c2.06 1.81.71 0 2 3zm201.86 0 2 2-2 3-3-3zm28.12 0 2 8h-1v-2c-.34-2-.68-4-1-6zm-217.92 1h2c-1.61 2.29-1.81 1.78-3 5l-2-2zm15.06 0h3l-2 2zm44.19 0c-.34 1-.67 2-1 3l2-3zm-12.05 1c-.34 1-.67 2-1 3 2.09-2.28 1.15-.36 1-3zm109.46 0-1 3c2.05-1.8.71 0 2-3zm13.06 0-8 8.05c4.89-1.48 8-4.78 8-8zm15.06 0 2 2-1 1c-.34-1-.68-2-1-3zm24.1 0 1 2zm-158.67 1c1.6 2.71.34 1.38 3 3-1.38-1.88-1-1.62-3-3zm13.05 0 2 1zm13.06 0a43 43 0 0 0 -7 5l1-3-4 1c.26 6.88-1 6.43-2 13 2.89-1.71 14.91-13.68 12.06-16zm120.51 0 3 2h-3zm-187.8 1 2 3c-1.26-3 0-1.17-2-3zm23.1 0h2c-1.4 1.93-.1.6-2 2zm-12.05 1 1 2h-2zm174.74 0c-.43.93.81.68-1 2zm-211.9 1 3 2zm13.06 0h2l-2 3zm99.42 0 3 1-5 6zm51.18 0-5 3 2 1 3 3 1-2q-.51-2.47-1-5zm41.17 0 1 2zm9 0c3.16 1.28-.11 3.11-2 5zm-138.59 1c.66 3 1.33 6 2 9h1c-.88-3.49-.8-6.7-3-9zm97.41 0-1 1c2.81 1.86.14.73 4 1v-2zm-34.14 1-4 3v1h1c4.39-2.41 3.32-1.12 3-4zm-70.3 1-4 6h1l1-2c2.06-2.06 2.91-1.34 2-4zm48.2 0 1 2c-.33-.64-.66-1.29-1-2zm-109.46 1c1.4 1.93.1.6 2 2zm17.07 0 2 2c-1.4-1.88-.1-.55-2-2zm47.2 0-1 3c2.37.28 1.25-.22 4 1-1.28-3-.62-2.2-3-4zm52.18 0 2 1zm-94.4 1-1 4h1v-3l4 2-3 2c2.61 1.93 5.22 3.09 7 6l-9-3c-.33 2-.67 4-1 6h4l6 2 1-1c-.4-7.34-1.56-7.82-1-9-2.62-3.08-1.26-4.89-8-6zm181.77 0c.68 3.69 1.24 2.71-2 5zm-87.37 1 2 3c-1.26-3 0-1.14-2-3zm15.06 0-2 1v1c2.61-1.08 1.74-1.51 2-1.94zm39.17 0-4 8h1l4-3c-.16-4.67 1.19-2.94-1-5zm-170.73 1c2.28 1.22 2 1.3 4 1zm100.43 0 4 2c-.34 1.67-.67 3.35-1 5l-2-1c-1.86-5.68-1.39-2.44-5-4zm48.2 0c-.45 2.4 0 1.25-2 4l5-1c-1.59-2.65-.33-1.33-3-3zm80.31 0v5h-1c.34-1.63.68-3.28 1-5zm-167.71 1-3 5 8-3c-2-1.54-1.38-1.24-5-1.94zm-56.24 1 2 4zm88.38 0c3.91 1-.49 2.63-2 4v-2.94zm29.12 0-1 2c.34-.62.68-1.27 1-1.94zm15.06 0c-.33.67-.66 1.34-1 2l2-2zm22.1 0c-2.64 1.63-.83 1.17-4 1 2 2.08.38 1 4 2zm-158.67 1 2 3c.34-1 .67-2 1-3zm7 0c.33 1.34.66 2.68 1 4l7 6c.33-1.34.66-2.67 1-4zm31.13 0c.33 2.39-.18.82 1 4h-1c-4.1-1.15-1.26-1.54-5 0l1 2c3.65 1.12 6.16 2.55 10 1-3.67-1.07-3-.82-5-3l1-1h1c7 5.35 6 5.8 9 10l3-9-2-2c-2.51 3.22-5.49-.62-13-1.93zm86.36 0-2 1v1c2.61-1.06 1.74-1.49 2-1.92zm18.06 0-1 2 2-2zm65.28 0h2c-1.81 2.05 0 .71-3 2zm8 0c-.73 1.39.81 1.45-3 3zm3 0h3l-3 1zm-245 1h2c-1.4 1.93-.1.6-2 2zm153.66 0-1 2 3-2zm-149.64 1 2 2c-1.92-1.31-.59 0-2-1.93zm172.74 0 2 1zm68.28 1 1 2zm-239 1 3 2h-3zm12.05 0 2 1zm115.49 0 2 3 3-2v-1zm92.39 0 2 1zm-203.86 1 2 1zm75.32 0c.33 2 .67 4 1 6h1l3-1zm168.71 0 2 2-3 1c.34-.94.68-1.91 1-2.91zm-180.76 1v3h2c-1.26-2.93 0-1.1-2-2.91zm67.28 0c-.33.67-.66 1.34-1 2l3-2zm3 0 2 1zm4 0c-3.7 3-7.63 2.4-10 7 1.78 1.37 1.22-.23 1 2 4.85 0 4.21-1 6 1 8.11-1.47 6.85-4.08 8-10zm-144.61 1-1 2c3-1.27 1.2 0 3-2zm33.14 0h2c-1.74 1.09-.21 1-2 .11zm45.19 0 3 3a7.56 7.56 0 0 0 -3-2.9zm27.12 0h2c-1.93 3-.2 1.63-4 3l2-1zm48.2 0-2 3.12v1l4-1v-1zm3 0 1 6 2-4zm57.24 0 1 1-4 4 6-3zm-234 1 7 2h-3c-.49 2.7.88.83-2 3zm28.12 0c3.15 2.31 4.1 2.12 7 0zm35.15 0a18 18 0 0 0 10 15.06c-1.33-3.79 1.32-6.39-3-9zm30.13 0-2 7 7-1c.33-.67.66-1.34 1-2l-2-2c-1.95-2-.36-.93-4-1.9zm50.21 0-3 4h4c-.33-1-.66-2-1-3 1 0 .28-.26 0-.89zm71.3 0 2 7c.33-1.67.67-3.35 1-5l-2-1.9h-1zm53.19 0h2c-1.73 1.09-.2 1-2 .11zm-274.17 1h2c-1.4 1.93-.1.6-2 2zm21.09 0-4 3c7.33-.2 10.26 1.3 14.06 0l-2-2zm10 0 2 1zm183.78 0c1.4 1.93.1.6 2 2zm12.06 0 2 2zm-180.77 1 2 1zm31.13 0 4 2c-2-2-.36-.92-4-1.89zm129.55 0c-4.24 3.13-4.9.63-8 5 2.62 3.77 6 5.24 10 2l-2-2h8v-1zm11.05 0c1.81 2.05 0 .71 3 2zm-184.79 1 2 1zm57.25 0c-1.07 4.82.5 7.46 2 12.05h2v-5.9c-2.61-.87-3.5.4-2-2h3zm52.17 0-1 3 4-1zm106.45 0-1 2 2-2zm32.14 0h3l-2 3-3-2zm-258.1 1c-2.59 3.24-1.74-.06-1 4 5.32.64 2.93 1.43 7 4h1v-3.89c-5.36-.77-4-.75-7-4zm25.1 0c2.53 1.63.17 1 3 0zm15.07 0 5 4-2-4zm47.2 0v2c1-1.63.93-.09 0-1.88zm69.29 0-3 3.14c3.95-1.6 3-.86 3-3zm8 0 2 3 2-1-1-2zm41.17 0-2 3c3.17-1.65 1.5-.88 2-2.88zm14.06 0-6 3 8 1c1.4-1.93.1-.6 2-2v-1.87h-4zm90.38 0 1 2zm-293.28 1 3 1zm15.06 0-2 1c1.8 2.94 2 2.46 5 4-2.21-4.52 1-3.24-3-4.89zm58.25 0c-.82 5.32 2.58 12.28 7 12.05v-1c-2.58-3.84-2.81-8.35-7-10.92zm34.14 0c1.62 3.14.92 2.36 4 4a11.38 11.38 0 0 0 -4-3.89zm55.19 0h2c-1.53 1.93-1.8 1.78-4 3h-1v-1.87zm48.18 0-3 2.14 3 3h1q-.49-2.5-1-5zm-206.87 1-4 1v1c4.51.12 7.19 1.32 4-1.86zm17.07 0c.58 4 0 3 2 5 3.55 3.59 3.66 4.19 7 1l-2-3zm24.1 0c-.28 3.68.57 4.09 2 8h1zm20.08 0-6 8c2.29 8.16 5.38 17.33 14.06 16.07l2 1c-1.55-3.12-3.56-2.93-3-4-2.07-2-1-.38-2-4 4.08-1.38 3-1 5-4-4.64-2.36-3-10.06-10-12.91zm79.34 0c-3 4.36-3.77 3.22-2 8l-4-2c-4.3 3.8-.81 5.92-8 8l1 3 6.05 5.16 3 1 1-1c.2-9.18 4.24-16.74 4-19.08-.49-3.13 1.14-.66-1-3zm-185.79 1 6 1zm37.16 0-2 4h1c1.72-3.63 2.86-.18 1-3.88zm64.27 0-1 3c1.4-2 1.85-.4 1-2.87zm39.17 0-7 9 5 5h1a33 33 0 0 1 11-9l-2-2-2-3zm-58.25 1v7l8 3c-3.49-3.9-4.06-6.5-8-9.9zm96.41 0 2 1zm52.22 0-7 5 2 2c2.9-4 2.21-3.4 6-2-1.4-1.93-.1-.6-2-2 1.92-2.4 1.77.22 1-2.87zm4 0-1 2 2-2zm-215.92 1 2 3zm112.44 0-2 4h1l3-2zm59.25 0a11.38 11.38 0 0 0 4 4c.33-1 .66-2 1-3zm21.09 0c-2.13 4.24-6.22 8.25-6 13.06v5l5-4c1.56-4.5 2.28-4 6-6-2.4 5.2-11.47 11.92-10 14.06v3l13-17.08c-2.46-2.45-5.29-5.54-8-7.88zm13.06 0-1 2c1.51-1.53 1.61.31 1-1.86zm33.14 0 2 1zm18.07 0h2c-1.73 1.13-.2 1.07-2 .15zm-236 1-3 4 2 2 10 3 2-2c.51-3.39-1.06-1.3 2-4 1.68 2.5.47 1.62 3 0v-1h-2zm176.75 0 2 4 1-1zm2 0 2 1zm43.19 0c-1.76 2.83-2.18 2.58-3 7l3-1c1-1.67 2-3.35 3-5zm68.29 0h4v3h-5zm-141.6 1-1 2h3l-1-2zm-163.7 1 3 1zm35.14 0c1.76 2.42 1 1.68 4 3zm60.26 0 5 4zm39.17 0c-.34.67-.67 1.34-1 2 1.88-1.09.57-.74 1-1.85zm7 0-2 3c1.93-1.4 3.58-.4 2-2.85zm36.15 0v3c2.61-.42.55 1 3-1zm36.15 0c-3.6 2.4-3.9 2-6 6h3c2-1.92 6.71-2.54 9-4v-1zm9 0-2 6c4.89-.79 6.09-.07 7-1h2v-4.83h-7zm-215.92 1-1 1 3 3 2-1v-1zm119.51 0c-4 3.43-6.91 4.41-9 10h1c1.57-1.64 2.88-.56 6-2l3-2c-.31-1.9-.64-3.85-1-5.86zm133.57 0 2 1zm6 0 1 3h-1l-1-1c.35-.56.69-1.17 1-1.84zm37.16 0c1.64 2.53 1 .17 0 3h-1c.35-.89.69-1.84 1-2.84zm-155.66 1v3h2c-1.24-2.86 0-1-2-2.84zm16.07 0a46.38 46.38 0 0 0 -4 15.06l8-3c-1.47-4.11-1.34-2.68-4-5l6-1v-2.85l-3-3h-3zm-117.5 1 12.08 12.23c-1.55-3.9-6.78-12.24-10-11.05zm97.41 0-3 4c5.46-1.59 3.07.05 4-4zm-146.62 1c2.78 3.45 4.2 2.21 8 3-2.49-2.51-2.65-2.56-8-2.83zm-8 1 2 2c-1.91-1.22-.58.08-2-1.83zm84.36 0 2 3zm28.12 0v2c3 .15.69 1.92 3 0zm98.41 0 3 1zm48.21 0 2 1zm28.12 0c.33.67.66 1.34 1 2-.32-.55-.64-1.16-1-1.83zm6 0h2c-1.4 1.93-.1.6-2 2zm21.09 0 3 1c-.34.67-.67 1.34-1 2h-4zm-88.38 1v3.2c-7.6-.19-7.54-.55-12.05 3v1q2.52 5 5 10l7-6c1.7-4.58 2.35-6.23 5-9-2-1-1.82.09-1-2h-4zm-236 1c2.07 1.36 1.62 1.13 3 3-2.69-1.41-1.36-.15-3-2.82zm78.34 0 4 5 2-1v-1c-.33-1-.66-2-1-3zm12.05 0-3 9 4-3-2 5c3.58.54 4.81-1.12 3 2h4c-.33-1.68-.66-3.35-1-5v-4.83zm106.45 0v3.2l1-3h-1zm20.09 0c1.8 2.05 0 .71 3 2zm28.11 0-2 1v1l4-2zm-216.92 1c-.33 1-.66 2-1 3l4 1v-1h-2c-.51-2.93 1.4-.71-1-2.81zm80.35 0c.33.67.66 1.34 1 2-.32-.54-.64-1.14-1-1.81zm11 0v3l2-2zm7 0c-2.8 5-5.57 6.44-7 11.05l4-1-2 5c9.21-1.52 10.81.59 18.08 5 .66-1.67 1.33-3.35 2-5-2.66-8-8.71-10.62-15-14.87zm29.13 0-9 6c1.73 1.23 2.63 1.33 4 3l-6-1c3.46 6.12 2.66 3.18 3 9 4.51 1.22 3.24.06 5 4 4-2.93 6-3.9 10.05-3 .06-10.44-3.91-15-7-17.88zm-94.4 1 3 1zm-28.12 1 2 2c-1.37-1.73-.07-.4-2-1.81zm161.68 0-3 5c4.1-2.4 4.64-1.21 3-4.82zm56.24 0-1 3 3-3zm6 0c-1.42 3.1-.72 0-1 4h1l2-1c.33-1 .66-2 1-3zm7 0v2c1-1.55.94 0 0-1.81zm-226.96 1c-.34 1-.67 2-1 3l3 1 5-3zm9 0c1.15 6.58 2.78 2.38 1 7l9 1v-1c-1.92-2.43-.64-1.62-4-3l1 2c-3.1-2.38-2.62-3.95-7-5.82zm7 0-1 2 7 1zm161.68 0-6 9c3.18 8.4 6.05 9.09 4 13.06l15.07-8-7-13.85h-6zm31.13 0c-3 4.06-6.06 3.45-8 9h3c2.83-2.3 5.17-6.32 5.05-8.83zm54.23 0h3l-2 2zm-187.8 1c.34 1.67.67 3.35 1 5l2-1v-1l-2-3zm28.12 0c2.59 2.87 1.3 1.58 4 0zm22.1 0q.49 3 1 6l2-2c-1-1.2-2-2.47-3-3.81zm-100.43 1v5l2 2 2-2v-1.79zm5 0 4 1zm185.79 0-5 6c2.26-1 7.13-3.66 5-5.81zm-210.89 1c.33 1 .66 2 1 3l2-2c-2.54-.25-.3.9-3-.78zm227.97 0h4v1l-1 1c-2.85-1.38-1.25 1.13-3-1.78zm35.12 0h2c-1.68 4.14-1.48 2.11-2 6l-7-1 2-1c1.9-1.29 3.52-1.85 5.05-3.81zm8 0-2 1 1 2c1.9-1.38 1.64-1 3-3zm18.08 0 5 1zm-273.16 1c.26 4-1.19 3.3 4 5-1.38-2.38-1.59-3.12-4-4.79zm39.16 0 3 2zm71.3 0 2 2zm25.11 1-13.06 4-1 1 1 3h1c3.24-2.91 3.86-2.7 7-4l2 2c-3.89.76-4 .62-6 3v5c1.21 2.1 3 5.53 4 2 5-2.88 9.2-6.44 8-10-.76 2.12-.56.71-2-1 1.91-2.53 1.94 0 1-3-1.37-1.7-.07-.37-2-1.78zm81.34 0 4 1v2h-1c-1.88-1.15-1.62-.74-3-2.78zm-124.52 1 3 2h-3v-1.78zm104.44 0-1 2c1.51-1.44 1.61.39 1-1.78zm-154.66 1-2 1 1 2h4.05l-2-3h-1zm184.79 0-4 13.06 3 3-2-3 4 1c.38 3.32-1.28 2.86 3 5l2-15.07-3-4zm44.19 0h4v2l-3 1-2-1zm-331.41 1c2 1.81.71 0 2 3h-2v-2.77zm16.07 0c-1.6 2.09-3.38 3.87-4 8 4.85-2.72 19.6-1.24 29.12-1l-2-2c-1-2-5.86-4.56-9-1h4l-5 4-3-1v-7h-10.07zm75.32 0c1.4 1.93.1.6 2 2zm-71.3 1h3v2c-3.57-.23-4 1.53-3-1.76zm29.12 0-2 1 2 4 4 2 3-5h1c0 4.62-.93 3 1 6 .33-2.34.67-4.69 1-7zm24.1 0c-2.93 2-4.12 1.79-6 5q-1.5 3.52-3 7l13.06 3c1.62-3.43 1.63-3.36 5-5l-3 6 2 1 10.05 2q-3.52-4.52-7-9c-5.06-2.93-7-8.2-11-9.79zm95.4 0v4l2-2zm3 0c1.4 1.93.1.6 2 2zm46.2 0h2c-1.74 1.23-.21 1.16-2 .25zm-109.47 1c2.53 1.63.17 1 3 0zm-141.6 1 1 2zm126.54 0c3.2 4.05 6.15 5.5 13.05 6v-2zm22.09 0-3 2v2h3c.34-1 .67-2 1-3a4.07 4.07 0 0 1 -1-.74zm21.07 0 1 2zm18.08 0 1 2a18 18 0 0 1 -1-1.75zm61.26 0h2c-1.4 1.93-.1.6-2 2zm23.1 0-6 5c5-1.26 6.68-3.05 6.05-4.76zm-280.19 1 1 2zm5 0 1 2zm99.42 0c-1.89 2.55-2.67 2.53-4 6 4.37-1.23 4.86-2.37 4-5.77zm21.09 0c1.77 3.78 1.62 3.74 6 5zm75.32 0 1 2zm49.21 0c-1.88 2.13-.79.64-4 2 .36 6.21 1.59 8.16 5 11.05l3-3a21.6 21.6 0 0 0 -4-9.78zm129.55 0c1.15 2.66 1.38 2.35-1 6h-1q1-2.76 2-5.77zm-372.58 1 2 4h-1zm34.14 0 3 3c-1.35-1.8-1.11-1.35-3-2.75zm70.3 0c.34.67.67 1.34 1 2a19 19 0 0 1 -1-1.75zm58.25 0 1 2-4-1 1 2c6.43 1.18 9.36 2.47 13.06 6-1.55-4.6-2.83-6.1-7-8zm86.37 0c1.3 3.29 1.88 1.12 0 4zm74.31 0c1.93 1.4.6.1 2 2a18.21 18.21 0 0 1 -2-1.75zm37.16 0 1 2h-2zm7 1c2.63 1.78 1.37.06 1 3h-1zm-337.41 1.27c2.55 2.89.88 2.86 7 4zm11 0-2 2 2 2 2-1v-1zm139.6 0-2 6h1l3-1c.33-1.68.67-3.35 1-5zm93.4 0v3c-6.51.37-7.92-.21-11 5h4c4.86-1.95 6.49-2.79 9-7zm23.1 0h5c-2.74 2.2-1.8 1.83-5 0zm78.33 0 1 2zm-387.65 1c1.93 1.4.6.1 2 2zm19.08 0h2l-1 3zm197.84 0-4 3v4l3-2c1-3.15 2-2.06 1-5zm136.58 0c-.22 1.48.42 1-1 3 .33-1 .66-2 1-3zm11 0c2.85 2.14 3.08 4 4 8-3.13-1.83-3.45-5.08-2-3q-1-2.51-2-5zm11.05 0c.33.67.66 1.34 1 2h-2c.33-.66.67-1.33 1-2zm-292.24 1c-8.5 4.8-13.76-.66-22.1 2h2c4.59 5.82 9 3.55 11 8 5.17-1.37 5.31-2 5-6l4 1c-1.44 3.88-2.63 1.69-1 4 1.4 1.93.1.6 2 2l-2-3 4 1 7-3-8-1c1.73-1.24 2.63-1.34 4-3l-7 2c.33-.67.66-1.34 1-2l5-1v-1h-5zm10 0 7 8 2-1v-1l-1-2zm104.44 0c1.27 3 0 1.2 2 3zm11.05 0-3 4 1-3-6 3 1 2c4.35.12 4.95 1.08 6 0 2.18-3 2.86-4 1-6zm19.08 0-8 2v5l10-4c-.33-1-.67-2-1-3zm18.08 0-7 7v1c5.41 1.63 6.85 2.41 11-1zm-101.43 1c3.18 2.18 3.13 2 6 0zm27.11 0-5 2v1c6.68.82 10.49 2.05 16.07 1-.34-.67-.67-1.34-1-2zm-115.49 1-1 1 5 5-1-2c-.74-2.85.37-1.58-3-4zm80.34 0 6 5zm108.46 0 2 2c-1.93-1.4-.6-.1-2-2zm-90.38 1 2 1zm5 0-5 4 3 2 6-4v-1zm160.68 0c1.93 1.4.6.1 2 2zm69.29 0c1.87 2.59.08 1.59-2 3zm-315.34 1h3l-2 2c-.35-.65-.68-1.31-1-2zm31.14 0v3c.33-1 .66-2 1-3zm88.37 0-3 3q.5 6 1 12.05c4-.63 1.81 1.8 4 0l6-5-3-1 5-3a18.66 18.66 0 0 0 -10.05-6zm-173.75 1 1 2zm41.18 0q.5 3 1 6h7l-5-6zm164.7 0-8 9 6 3 9-6-2-4c-2-2.09-1-1.37-5-2zm40.17 0-3 2v1c3.94-1.63 3.66-.81 3-3zm104.44 0h2l-3 2zm-355.51 1 2 2c-1.93-1.39-.6-.1-2-2zm151.64 0 3 1zm143.61 0 3 1v1c-3-1.25-1.21 0-3-2zm-189.8 13.05c.07 10.47.77 16.9 8 22.1l2 3 20.08-8c-4.1-3-5.12-12.16-8-18.07-8.8-3.44-23.55-11.44-33.14-10v1l6 9c3.54-.9 8.15-.84 10.05 1h-5zm55.23-12 3 1zm39.17 0-2 4c4.22-1.54 2.46.18 4-4zm-191.82 1 4 3c-3.84-1.32-2.09 0-4-3zm14.06 0 1 2zm17.08 0h2c-1.4 1.93-.1.6-2 2zm40.17 0c1.4 1.93.1.6 2 2zm74.31 0-3 1 1 2c.28 2.38-.22 1.25 1 4h4l2-2zm91.39 0 2 1zm124.53 0h2c-1.76 1-.22.92-2 0zm-242.03 1 4 5zm95.4 0c-1.66 5.87-5.83 8.9-11.05 11.05v1c8.1-2.16 20.13-4.38 25.11-10v-1c-7.54 1.94-7.18 2.6-14.05-1zm37.16 0v2l-2-1-2 4 4 1 2-2h2l-1-3zm5 0c.33 1 .67 2 1 3l5-1v-1zm-200.88 1 2 1zm11 0 2 1zm71.3 0-2 1q1.52 5 3 10l1-2 4-2zm19.08 0 2 3c-1.25-3 0-1.18-2-3zm76.33 0c1.26 1.56.43 1.24 2 0zm19.05 0 1 2zm37.16 0-8 1 3 4h9v1l-8 1 5 4h9v1l-7-1c1.08 6 4.48 3.34-1 6-1.06-6-10.25-12.52-17.08-16.07-7.71.5-21.36 7.19-24.1 12.05-2.45 2.71-2.89 4.65-3 10h1c8.85-4.6 20.82-6.19 34.15-10v2c-8.07 1.31-20.15 5-25.11 10l4 1-1 1c-2.64-.23-7.35-.29-10.05 2-.66 3.07 1 1.55-3 3-1.13-2.48.5-1.13-3-2-.63 4.62-3 3.56-7 7 4.73 1.28 7.41 3.75 10 7l-1 4h-2c-1-5.22-.69-4.36-5-6 .2 2.07 1.16 2.63-1 2 2 5.15 3 9.47 9 11.05l6-6-3-1h6l-4-10h3c.3 6.93 1.1 8.87 6 9l-1 2c-6.78 1.32-9.3 4.63-14.06 8v1l5 1v1h-4c-3.76-3.51-6.43-5.09-8-11l-2 2c-1.78 1.25-1.65 1.58-3 3l2 3 13.05 9 2-1c1.66-5.92 3.5-8.1 8-11l-4-3c5.61-.89 5.07-1.53 10 0 1-4.27 1.16-3.36 3-6-2.22-4-4.71-6-5-9h1c3.66 4.79 6.3 9.29 9 10.05 1.06-1.65 6.75 2.82 12 3l-4-1 3-3-5-6c6.59 2.36 7.9 3.21 15.06 0 .35-14.48 6.08-21.58 5-31.13l3 2 3 4c-6.36.46-8.56 4.15-8 14.06l13.06-3c-.95-4.35.26-11.68 2-16.07-2.83-3.63-2.19-5.17-7-5-2.59-2.63-3.45-2.47-6 0h4v1c-3.67.92-2.05 0-4 2l-3-1c.55-4.3 2.37-5.77-4-5zm22.09 0 1 5h1c-.56-4 .06-3-2-5zm43.18 0h4v1zm-388.65 1 1 2zm37.16 0h2c-1.4 1.93-.1.6-2 2zm168.72 0c1.93 1.4.6.1 2 2zm161.69 0 2 2-6-1zm-171.73 1-3 4c-5-1.7-2.63-2.47-7-1-1.64 3.36-2.64 2.58-2 6v5c-3-1.24-1.84-1.31-5-1v-5l-2 1-4 8 1 2c4.64-2.81 4.6-3.59 11.05-3l-4 3c-3.11 0-2 .14-6 1v1l4 20.08h1l5-3c1.29 3 .63 2.26 3 4-.36-4 0-7.59-2-11.05l6 2c-3.57 7 0 11.36-9 14.06l2 14.06c2.64 1.24 3.2 6.6 2 11.05l3-2c1.21-15.89 11.53-26.53 5-44.19h5c.17 4.49-1.79 1.61 2 4-2.88-8.12-6.63-5.46-7-15.07-4.86.59-7.12 1.8-10-1h11.05l-5-6c5 2.1 3.34 3 7 2-1.25-4-.59-8.52-2-10zm89.38 0c.33.66.66 1.33 1 2zm-204.87 1-1 2h3c-.33-.66-.67-1.33-1-2zm5 0 1 2 1-2zm12 0c-.33.66-.67 1.33-1 2l3-2zm21.09 0c-.33 1.34-.67 2.67-1 4h3zm53.22 0c.34.66.67 1.33 1 2q-.48-1-1-2zm188.8 0 1 3-2-1c.34-.65.68-1.31 1-2zm-138.58 1 2 1zm50.21 0c-1 1.67-2 3.34-3 5 2.77-2.29 3-2.38 3-5zm85.36 0c.34.66.67 1.33 1 2-.32-.66-.65-1.32-1-2zm-253.58 1.05c-1.78 3-1.76 3.35-5 5l2-4-13.06 5v2l20.09-3q.49-2.52 1-5zm7 0v11l6 2c-2.52-5.23-.74-11.62-6-13.05zm153.65 0-2 5c2.22-2.07 1.89-1.39 3-5zm16.07 0-6 6c4.38-1.11 7.19-2 6-6zm-248.04 1 3 2zm155.66 0h2c-1.4 1.93-.1.6-2 2zm40.17 0-3 5h2c1.51-2 2.48-.73 5-3zm-148.65 1v3h-8v1c8.24-.85 14.83 1.48 20.09-4zm87.37 0v4l2 1zm50.21 0c-4.88 3.06-6.58 2.06-7 10.05.33.66.67 1.33 1 2l3-2c.71-3.19 5.32-6.9 3.04-10.05zm155.66 0 2 2c-1.88-1.4-.55-.1-1.96-2zm-255.08 1 1 8 10 6c-.24-4.67-.7-3.59 1-7-4.88-4.07-6.59-5.82-12-7zm250.06 0h2l-2 3-2-2h2zm-307.3 1c3.65.65 3 .41 5 2h-6zm223.95 0c-5.1 3.72-9.3 3.5-11.05 11.05 1.34 3.16.69 2.13-2 6 5.9.6 4 1.48 8 0q2.52-8.54 5-17.07zm-81.35 1c.65 3.65.41 3 2 5h1c-1.06-3.66-.81-2.94-3-5zm49.21 0v3c-7.47-2.75-18.35 2.22-22.09 7h2c3 5.41 7.93 7 12.06 8l-1-4c-4.13-1.26-7.84-2.68-9-5 4.45.63 10.2.78 13.05-4-3.07 0-1.4 1-4-1h9c1.37 2.06 1.13 1.61 3 3l-2-4 5-2v-1h-6zm39.17 0c.33.67.66 1.34 1 2-.34-.66-.67-1.32-1-2zm-233 1c2.32 2.14 2.82 2.16 4 7h-1l-5-4zm46.2 0c-10.6 5.87-26.57 1-30.13 7l6 1-5 1 3 4c17.53 2.6 35.48 7.28 48.2 16.07 4.28-2.3 5.12-2.3 11.05-3l-1-3-10-9c-10.6.52-23.82 4-27.12-7 6.82 4.24 12.57 5.47 22.09 5-5.65-4.39-11.87-8-17.08-12zm29.12 0 2 2c-1.94-1.38-.61-.08-2-2zm138.59 0-1 2 2-2zm-262.11 1 1 3h-4v-1h2zm282.2 0 1 2zm25.1 0h2c-.33 1-.66 2-1 3-.34-1-.68-2-1-3zm-245.04 1 3 1zm196.84 0-8 8h3l2-1c1-2.33 2-4.66 3-7zm-145.62 1 2 2-1 1c-.34-1-.68-2-1-3zm104.44 0-13.05 16.07h1c6.16-2.52 3.18-1.54 10 1-2-4.1-2.9-5.05-3-9 3.43-1.77 6.27-7.35 5-8zm124.53 0c.34 1.34.67 2.68 1 4l-3-3h2zm-173.65 1 1 2zm61.26 0h3v2l-3 1zm116.5 0c.33.67.66 1.34 1 2-.34-.64-.67-1.3-1-2zm35.15 0 2 2h-3c.33-.64.67-1.3 1-2zm5 0c2 2.63.59.05 0 4h-1c.33-1.31.66-2.64 1-4zm-193.83 1c-.22 4.7-1.73 3.33 2 6-.33-.67-.66-1.34-1-2 3.6-1.79 1.19.53 3-3zm68.3 0-1 3 2-2zm-232.99 1v2c1-1.71.91-.18 0-2zm137.58 0 1 2zm-89.38 1c5 2.11 7.25 4.58 8 11.05h-1v-2zm6 1 1 2c-.34-.63-.68-1.28-1-1.95zm-36.15 1c1.4 1.93.1.6 2 2zm14.06 0-2 5 3 1 9 2zm292.24 0v2c1-1.69.9-.16 0-1.95zm-171.73 1 2 4h-3zm16.07 0c-1.28 3.3-.92 1.2-1 5h2c-.34-1.64-.68-3.29-1-5zm149.63 0 2 1zm20.09 0-10.05 5v1c8.1 1.23 12.62.6 22.1 0l-1 2-13.06 1v1c7.45.27 9.77.39 15.07-1 1.28-2.88-.63-1.81 2-4l-2-2c-1.28.3-9.65-.79-13.07-2.95zm-324.38 1 9 11.05c3.14-2.6 4.8-5 2-8-2.87-1.65-6.21-1.36-11.06-2.95zm196.84 0 1 2 1-2zm-177.76 1 1 2zm153.65 0c1.55 4.17 2.73 4.24 5 5v-1zm44.19 0-2 3 3 1c-.34-1.29-.67-2.61-1-3.95zm31.13 0 1 2h-2c.34-.62.67-1.27 1-1.94zm76.33 0 1 2zm-368.57 1h2c-2 2.08-.37 1-4 2zm185.79 0h2c-.33 1.34-.67 2.68-1 4h-2c.33-1.29.66-2.6 1-3.94zm58.25 0-4 6c3.56-2.68 4.09-1.2 5-6zm51.22 0 1 2zm50.21 0c1.94 3 .2 1.63 4 3-1.94-2.37-.66-1.55-4-2.94zm54.23 0 3 2h-3zm-123.53 1-4 3 2 1 2-1c.34-1 .67-2 1-3zm86.37 1 3 2c-1-.61-2-1.25-3-1.92zm24.1 0c-.33 1.68-.66 3.35-1 5h1v-2l2-1zm-229 1 2 6 2 1zm-139.59 1 2 2c-1.93-1.31-.6 0-2-1.92zm43.18 0 8 6 2-4c-4.81.09-5.54-.07-10.05-1.92zm17.07 0c1.93 2.44.65 1.63 4 3zm25.11 0 1 2c-.34-.61-.67-1.25-1-1.92zm149.63 0-2 1v1c2.47-1.29 2.44.21 2-1.91zm6 0 2 2zm27.12 0h4v5h-1c-1.15-3.57-1.15-2.66-3-4.94zm47.2 0c-2.17 2.3-1.52.72-4 2l2 6 6-5v-2zm8 0v4h2zm9 0c.5 3.79-.74 2.32 3 5v-2c2.05-1.81.71 0 2-3zm-291.24 1-1 2c1.85-1.15.54-.8 1-1.91zm13.06 0c2.27 2.09 1 1.68 4 1zm151.64 0-1 2c2.06-.78 1.1.12 1-1.91zm133.57 0c.87 5.44.34 3.82 4 6l2-2h2l-1-2zm-212.9 1-9 5 5 6c8.92 4.48 13.19 9.84 26.11 12-3.11-9.72-6.53-17-13-23.1h-1v2c-2.31 6.28-.67 9.74-6 13.06a47.54 47.54 0 0 0 4-15.07zm59.25 0c.2 8.7 4.74 22.19 9 30.13l5-6c-1.78-2.09-.49 0 0-3l-7 2 1-3c3.07 0 1.4 1 4-1-2.8-3.69.11-2.27 1-10-10.08-.74-9.76-4.11-13.06-9zm6 0q-1 2-2 4l2 1 10.05 2v-1c-2.72-3.25-5.33-4.51-10.06-5.93zm9 0 2 2-1-2zm35.15 0-6 3c1.93 1.52 1.77 1.8 3 4-3.5-1.27-3.56-1.66-6-2-4.32 11.44-13.66 16.78-9 29.12l-4-3-1 4h2c6.91 2.95 14.67-2.59 18.07-3l-6-10c4.37-2.18 10.64-17.64 9-22zm-159.68 1-4 2 1 2h8v-3h-2zm93.37 0c-.62 2.18.23 1.83-3 4zm39.17 0-4 2 6 2c2.18-3.75.81 1.39 5-2zm37.15 0c-.33 1-.66 2-1 3 1.37-2.05 1.82-.44 1-2.91zm-205.87 1-4 3 1 2 12.05-1c-.66-1-1.33-2-2-3zm87.37 0 2 2c-1.94-1.29-.61 0-2-1.9zm45.19 0 2 1zm68.29 0c-2.1 3.4-1.54-.3-3 3-4.58 7.64-8.65 18.45-2 26.11l2-1c2.77-8.79 5.91-21.05 3-28zm66.28 0c1.4 1.94.1.6 2 2zm-250.06 1 3 3c-7-1.24-14.12 3.12-22.1 3v4c9.28 6.32 21.55 31.43 28.12 33.14l23.1-9-1-2-9 2v-4l26.11 4c-.64-4.3.52-8.59-3-12.05h-13.07c-.72-4.83-5.11-7.62-10-11l-4 2c-8.19 3.55-5.1 7.27-8 12.05l-3-1c1.68-3.46 1.79-4.57 1-9 4 .9 1.58 2.24 5-1h-12l15.06-2 2-4c-1-1.68-2-3.35-3-5a76.46 76.46 0 0 0 -15.07-2.91zm196.84 0c3.94 1.34 3.24.38 5 4zm69.29 0v3h2c-1.26-2.93 0-1.09-2-2.9zm4 0c.34 2 1.31.49 0 2v1l4-2zm21.09 0-1 2 4-2zm11.05 0c-2.84 2.56-1.24 1.36-3 4l6 2c-1-1.93-2-3.91-3-5.91zm22.09 0c3.84 1.33 2.09 0 4 3-3.86-1.22-2.1.11-4-2.9zm-283.2 1h2l-3 2q.48-.88 1-1.89zm219.93 0-2 1c1.8 2.06 0 .71 3 2v-2.89h-1zm-56.23 1h3v1l-3 1zm33.14 0c.33.67.66 1.34 1 2q-.51-.88-1-1.89zm13 0c-.33 1-.67 2-1 3 3.76-1.09 1.2-1.75 5 0zm79.34 0 1 2c-.34-.59-.68-1.22-1-1.89zm-89.03 1h4v1l-2 2zm37.16 0 1 3-2 1c-2.35-2.14 0-2.09-3-1-2.25 1.41-2.52 2-4 4h6l4-5zm-318.35 1 7 3c-2.21-2.78-2.1-2.5-7-2.89zm46.2 0h2c-1.4 1.94-.1.6-2 2zm21.09 0c-2.65 3.44-1.27 1.38-8 1v3.15c6.36.52 17.28 11.2 36.15 14.06v2h-5c.34.67.67 1.33 1 2l3-1c-1.76 2.83-2.18 2.58-3 7 12.26-1.3 23.1 1.37 32.14 5l1-3c.33-1 .67-2 1-3-14.83-11.06-40.43-19.82-58.25-27.12zm131.55 0c-4.33.21-4.84.27-7 2 1.93 1.4.6.1 2 2-3.11-1.15-3-1.41-6-1l2 9 9-5zm65.28 0 1 2zm3 0 2 2c-2-1.27-.62 0-2-1.88zm62.27 0c-.34.67-.67 1.34-1 2l17.07 8c-2.75-4.27-10.46-8.61-16.09-9.92zm-319.36 1-2 1v2.15h4v-3h-2zm4 0-1 3h5c-2.47-2-.41-.57-3-1zm80.34 0-4 2c.34 1 .67 2 1 3l4 4h10v-1l-2-3zm69.29 0q-5 17.58-10 35.15l6-1c2-2.07.37-1 4-2-.44-7.43 1.78-7.29 4-14.06h1c-.67 2.67-1.33 5.35-2 8 3.91.51 1.93.24 6 2q-4.53-13.94-9-28zm64.28 0c.33 1 .66 2 1 3l3-1zm51.21 0h2c-1.4 1.94-.1.6-2 2zm-38.16 1c.34 1 .67 2 1 3h-1zm-278.18 1c1.93 1.4.6.1 2 2zm69.3 0 1 2zm56.23 0-3 2 1 2 5 2q-1.51-2.86-3-5.88zm174.75 0 1 2zm77.32 0 3 1zm-97.42 1h2c-1.77 1.13-.24 1.07-2 .15zm52.22 0-10.02 5.16 1 2h5l5-7h-1zm27.08 0c-3.06 2.29-4.17 2.29-6 6l12.06 2-3-1 2-2c4.95 2.69 5.08 2.7 11 1l-1-2c-9.65-.46-4.71-2.28-15.09-3.87zm22.09 0 5 3c-2.1-2.08-1.41-1.75-5.05-2.87zm29.13 0 2 2c-2-1.25-.62.05-2-1.86zm-383.63 1-4 3c1.87-.33 6.81-1.66 4-2.87zm50.21 0 6 2v1c-5.68-.3-7.46.17-6-2.86zm100.43 0-1 2h2c-.35-.57-.7-1.19-1-1.86zm161.67 1v2c-2.7.49-.83-.88-3 2v1l7-1zm-270.14 1h3l-2 2zm194.82 0v5l2-1v-1zm82.35 0c-.33 1.68-.66 3.35-1 5l6-4v-1zm62.27 0 4 2v1h-1l-3-1zm-195.83 1 3 2c-2.93-.37-4.94 1-3-1.84zm114.53 0h2l-3 2zm59.26 0 2 1zm-340.45 1 2 1zm129.55 0c-.33 1-.67 2-1 3 2.07-2.13 1.14-.22 1-2.85zm158.67 0c-.33.67-.66 1.34-1 2l2-2zm-313.33 1h2c-2.3 1.54-1.22 1.84-4 1zm29.13 0-5 3 5 4c1-2.62-.4-1.21 4-2l-1 2-8 1c4.45 3.38 2.21 5.72 6 9l3 2 4-3c.84 4.28 6.49 6.08 11 9 1.66-3.63.28-2.36 4-4l-2 6 7 2c-5.42-11-9.37-20.12-19.08-24.1.9-3.4.85-1.33 1-4zm22.09 0h4v1zm173.74 0 1 2a20.59 20.59 0 0 1 -1-1.83zm167.71 0 11 5v1h-4c-2.36-1.89-4.71-3.85-7-5.85zm13 0c.33.67.66 1.34 1 2a20.59 20.59 0 0 1 -1-1.83zm-324.37 1 1 2a19.27 19.27 0 0 1 -1-1.83zm273.16 0-6 2v1l10-1zm-77.33 1 2 1zm53.23 0 2 1zm-308.31 1v3c-3.53-1.1-.54-2-4 0v1h4l2-1v-1zm12 0h2l-3 2zm173.74 0c-2.39 2.1.16.88-3 1l1 7h1q.49-3.82 1-7.84zm102.51 0-3 2 2 2c1.8 2.05 0 .71 3 2 1.87-3.5 4.07-1.23 8-6zm62.26 0 1 2zm-377.6 1c1.87 2.59.09 1.6-2 3zm273.16 0 2 1zm55.24 0c1.69 2.5.6 1.18 3 0zm-342.45 1 1 2zm237 0c2.08 2 1 .38 2 4h-1c-.35-1.21-.7-2.48-1-3.82zm64.25 0 2 2c-1.42-1.74-.12-.41-2-1.81zm5 0c-.34.67-.67 1.34-1 2l2-2zm43.18 0-1 2 15.06 3c-3.27-3.62-7-4.75-14.08-4.83zm-51.22 1c1.4 1.94.1.6 2 2zm92.39 0c.34.67.67 1.34 1 2h-2c.33-.54.67-1.14 1-1.81zm21.09 0 3 2c-2.94-.33-4.94 1-3-1.81zm-396.75 1c2 1.81.71 0 2 3-3.09-1.72-2.56.53-2-2.81zm42.18 0h2l-3 2zm329.4 0c.33 1 .66 2 1 3h-1zm-353.5 1c.33 1.34.66 2.68 1 4l10 4c-.09-3.18-1.76-1.45 1-3-1.92-2.44-.64-1.63-4-3v3zm55.23 0h6l-4 4c4.53-.79 5-.3 7 4-5-2.8-5-2.83-10 0l-1-3q1-2.31 2-4.82zm69.3 0 6 4v-3zm-61.16 1c.33.67.66 1.34 1 2a18.31 18.31 0 0 1 -1-1.8zm142.6 0 1 2zm52.22 0 3 1zm44.19 0-2 1c.34.67.67 1.34 1 2 1.36-1.94 1.81-.32 1-2.8zm6 0-3 3 2 3c12-2.1 15 6.25 26.11-1v-1c-7.62-2.13-13.8-3.9-25.13-3.82zm61.26 0c1.93 1.4.6.1 2 2l-2-1zm8 0h2c-1.4 1.94-.1.6-2 2zm4 0 7 5-7-1c-.34-.67-.67-1.34-1-2 .31-.53.64-1.14 1-1.81zm-155.66 1-1 6-9 5c1 3.89 1.55.47 0 4l23.1-6-1-2zm42.18 0v2c.95-1.54.89 0 0-1.79zm-105.45 2 4 3h-4zm87.37 0c-.67 2-1.33 4-2 6h5c.37-4.13-1.46-1.75 1-4zm33.14 1c2.22 2.16 1.95 2 5 1zm13.06 0 2 1zm62.26 0c-.51 1.39.46 1-2 3zm-224 1c-1.2 4.81-2.33 7.87 0 11.05l2 4 2-1v-1zm47.2 0 2 1zm7 0 2 4zm-164.75 1 4 2.24v1c-3.84-1.32-2.09 0-4-3zm371.58 0h2c-1.4 1.93-.1.6-2 2zm-236 1h3l-2 2zm150.64 0-2 1s4.15-.18 2-.77zm22.09 0-2 2 6 3 2-3c-2.49-.1-2.58-.42-6-1.78zm20.09 0 2 2c-2-1.17-.63.13-2-1.78zm3 1 6 2v1zm-97.41 1c2.53 1.64.16 1 3 0zm-211.61 1h4v1zm238 0-4 3c1.86-.24 6.8-1.57 4-2.77zm16.07 0-5 3 10 2-2-3 4 2c-3.17-4.45-4.29-2.11-7.06-3.77zm-215.92 1-2 1 5 1zm16.07 0-7 3c6.17.26 8.66.75 12.05-1zm67.28 0c1.22 1.07 5.36 1.89 3 0zm45.2 0-2 1v1c2.72-.44 1.92.18 2-1.75zm35.14 0c2.65 2.45 2 1.5 6 1v-1zm27.12 0-9 5v1l10-1c.94-2.59.56-2.4 2-5zm13.06 0 4 3c-2-2.8-.23-1.38-4-2.77zm55.23 0h4l-2 2zm-360.54 1-1 2 2-2zm189.81 0c3 2.72 1.74 1.4 4 0zm176.75 0 1 2a14 14 0 0 1 -1-1.75zm5 0h3l-3 1zm-115.49 1-1 2 6 1c-1.27-3 0-1.2-2-3-1.8 1.69-.17 1.16-3 .26zm32.14 0h2l-3 2a18 18 0 0 0 1-1.75zm80.34 0 4 2v1h-1zm-271.15 1c-7.16 3.68-24.28 11.95-29.13 12.05l6 6c4.6-1.63 8.93-2.66 11-7 6.18 1.5 11.59 5.73 15.06 10 20.27-12.86 34.74-4.82 58.25 0-.34-1.34-.67-2.67-1-4-16-16.95-32.18-14.47-60.29-16.82zm131.56 0-3 2c1 3.48.9.85-2 3 .33.67.66 1.34 1 2h1l3-2c2.09-2 1.37-1 2-5zm-145.62 2 2 1zm69.29 0c1.93 1.4.6.1 2 2zm164.7 0c-2.2 1.05-5.35 1.65-7 3h9l-1-3zm-326.38 1h3c-2.79 3.64-2.47 1.64-3 6h-2l-1-4zm24.1 0 3 1-2 1-1 2-2-2zm161.68 0-5 4c.89 6.06-1.46 11.76-2 12.05l1 5c4.71-2.82 0 .24 6 0v-3h-3l6-1c.66-2.68 1.33-5.35 2-8l-6-3 5-1c-1.54-3.18-.56-3-4-4.75zm42.18 0-6 3 3 3 7-4c-2.47-2-.41-.57-3-1zm82.35 0c2.73 2.69 2.19 1.9 5 0zm33.14 0 5 1zm7 0h3v1c-3.16-.26-.93 1.65-3-.72zm31.14 0h6v1l-1 2zm-353.5 1h2l-4 4zm164.7 0-3 1c4.17 5.3-3.11 3.22 3 6 .33-.67.66-1.34 1-2-.15-3.71.88-1.79-1-4.74zm7 0c-3.88 7.2-7.23 8.76-8 14.06l10-4-2-3 9 2v-3zm49.21 0-7 5c2.06 1.37 1.61 1.13 3 3l-4 2 8 2-2-3c6.05.41 8.82-2.1 19.08-3l-7-1v-5h-10zm-76.33 1c.33 1.34.67 2.68 1 4h1c-.93-3.38 0-1.77-2-3.73zm88.38 0c1.62 2.12 7.5 3.83 10 2v-1zm-265.13 1v3l-2-2zm85.36 0-7 3 6 2c.32-1.49.64-3.07 1-4.74zm-90.38 1 5 6h-1l-4-1zm334.44 0-2 1 3 4 3-3zm-105.45 1-3 8 4-2 2-3zm123.53 0 6 2c-2.68-1.81-2.35-1-6.05-1.71zm32.13 0c.34.67.67 1.34 1 2h-2a14.17 14.17 0 0 0 1-1.71zm-373.58 1 1 2zm10 0c2.24 1.2 2.5 1.1 4 3-2.27-.91-2.53-.8-4-2.72zm10 0c3 .89.27 1.45-1 3zm27.12 0 1 2zm13.05 0c2.18 2.79 2.49 3.25 6 2zm36.16 0h2c-1.4 1.93-.1.6-2 2zm156.66 0h2v1l-2 2h-1c.32-.8.64-1.7 1-2.71zm-15.06 1 2 1zm110.47 0c-.34.67-.67 1.34-1 2 1.77-1 1.49.48 1-1.7zm-350.49 2 1 3h-1l-1-1zm48.2 0h2c-1.78 1.3-.24 1.23-2 .32zm178.76 0v2c1-1.44.89.09 0-1.69zm79.34 0c.33 1 .66 2 1 3h-1l-1-1a16.57 16.57 0 0 0 1-1.7zm61.26 0h4v1zm11 0 3 2v1h-1zm-310.32 1c-.22 3.35-.93 2.31 1 5 1.5-4 .36-.37 3-3zm-8 1 3 1zm163.7 0-4 5 6-5zm39.17 0-7 4c2.91.53 4.91-.8 3 2l-22.09 12.05c10.14-.57 11.33 1.19 19.08 3v-3c-4.62-1.85-3.2-1.52-5-6 4.36 3 3.22 3.78 8 2 1.91-4 4.58-5.7 8-8-.57-3.5-.35-2.95 1-6h-5zm7 0c-.34 1-.67 2-1 3 1.34-1.84 1.8-.22 1-2.7zm-196.65 1-3 5 1 2 7-1-1-3zm55.24 0-16.07 7 1 2c30.19 8.4 39.08 27.74 62.26 38.16v-3q-3-13.05-6-26.11c-5.26 3-6.49 2.95-7 0 3.49.06 4.08-.26 7-3-1.28-3.3-.92-1.2-1-5-14.7-3.05-28.35-12.24-41.18-6l3-4zm104.44 0-2 1v1c2.57-.81 1.71-1.24 2-1.67zm168.72 0c.33.67.66 1.34 1 2a9.78 9.78 0 0 1 -1-1.68zm-342.46 1c2.53 1.64.17 1 3 0zm35.15 0-9 6 4 5h1c7.11-1.08 10.39-3.26 17.07-3l-5-6zm140.6 0c1.4 1.93.1.6 2 2zm-229.98 1 2 2h-3zm397.69 0h3v3zm-404.72 1h2l-1 3v-2zm65.28 0c2.4 3.12 3.11 2.76 4 8l4-1v-1l-3-2c-2.09-3.7-2.36-2.1-5-3.69zm142.61 0 2 1zm47.2 0-5 2 2 2 2-2c1.77-1 1.5.52 1-1.67zm39.16 0h2l-2 3zm99.43 0h2c-1.4 1.93-.1.6-2 2zm4 0h2c-1.4 1.93-.1.6-2 2zm26.11 0c1.93 1.4.6.1 2 2zm-194.82 1-2 3 5-2zm36.15 0h2c-1.75 1.33-.22 1.26-2 .35zm21.09 0 1 2h-2zm4 0h3l-2 2a9.55 9.55 0 0 1 -1-1.66zm-231 1-1 2c1.76-1 1.49.52 1-1.66zm132.56 0c1.4 1.93.1.6 2 2zm12.05 0-4 1 3 4c2.7-2.2 1.91-.72 3-5zm16.07 0q-1.51 3-3 6l2-1c1.1-3.18 3.87-3.09 1-4.68zm24.1 1-9 3-3 9h1l15.06-11v-1h-4zm-247 1 2 2c-2-1-.63.26-2-1.65zm-7 1h3l-2 2zm9 1 2 2c-2-1-.63.26-2-1.64zm64.27 0-7 4c.34.67.67 1.34 1 2 4 1.81 1.84 1.59 6 2l4-4c-1.67-2.2-1.27-2.07-4-3.65zm127.54 0-7 2v3l10 30.12 2-2-5-7 2-3 6 4c1-3.51 4.74-17.73 5-18.08l-9-9zm90.39 1 2 6-3 1-2-2c2-3 2.86.33 2-3zm77.33 1c2.06 1.36 1.61 1.13 3 3-2.74-1.24-1.41 0-3-2.64zm-135.58 1c-.33 1.34-.67 2.68-1 4l5 5c-1.17-3.56.17-6.52-4.05-8.66zm147.63 0c.33.67.66 1.34 1 2a8.22 8.22 0 0 1 -1-1.63zm44.18 0v3l2-1zm-130.55 1c2.05 1.81.71 0 2 3h-2zm13.06 1c1.93 1.4.6.1 2 2zm-305.3 1h2c-1.77 1.37-.24 1.31-2 .39zm429.86 0h6c-.9 3.05-1.3.84 1 3l-5 1c-1.8-2 0-.71-3-2zm-424.8 1h2l-5 3zm109.47 0c-16.23 8.68-30.38 11.9-36.16 31.14h-1v-4l4-8v-1h-4l-5 7c2.9 6.62 4.41 5.87 9 10.05l8-7c9.87-2.41 39.27 4.08 49.21 7l17.07-6c6.7-.47 6.92 4.84 12.06 2-6-10.12-14.9-8.07-25.11-14.06l-13.09-16.68h-15.06zm273.16 0-3 4v5.42h1l10.05-2-2-4h3zm10 0 2 1zm-382.63 1 1 2zm38.17 0c1.86 2.59.08 1.59-2 3zm352.5 0c-.34 1-.67 2-1 3 2-1.81.71 0 2-3zm-393.68 1c-.42.94.81.68-1 2zm126.54 0c5.2 8.77 11.1 12.07 22.1 15.07-5.06-6.13-13.91-11.5-22.13-14.66zm89.38 0c-3.56 6.08-.29 11.28 1 18.08l3-2c2.06-5.9 4.57-6.13 1-10zm183.78 0 2 1zm-129.55 1c1.93 1.4.6.1 2 2zm97.41 0c-.63 4-1.58 5.39 2 7v-2l1-1c-1.35-3.45 0-1.69-3-3.62zm-134.57 1 2 1zm7 0 4 1zm145.62 0-1 1 2 2h1l1-3zm-220.94 1c.34.67.67 1.34 1 2a7.42 7.42 0 0 1 -1-1.59zm-169.72 1h2l-3 2zm242 0-6 1c1.23 4.05.65 12.79-3 19.09l-2-2 2-5c-7.58 6.06-30.58 43.25-21.09 55.23 1.65-9.2 8.46-10.07 15.07-14.06l-5-1 5-2c1.73-5.24 2.37-4.54 1-9 3.5 1.28 3.55 1.67 6 2l2-10c4.06.61 3.17-1.23 5 1l2 2c-5.12 1.94-6.76 5.39-9 10 6.19-4.67 7.76-3 16.07-1q.5-8.54 1-17.07c-6.52 1-5.59 1.52-10 4v-1l11-16.06-1-1-7-1c5.3-.6 7.14-.74 9-5-2.81-1.9 0-1.71-2-5 5.11.36 2.25 3.3 5-1-5-1.67-7.94-1.72-14.08-2.61zm124.53 0-2 1c.41 4.05.33 3.93 2 6v-1.59c1.37-3.25 1.69-1.73 0-5zm62.26 0 3 2h-3.05v-2zm-71.3 2-6 2c3.34 3 4.15 1.72 4 6l8-4v-4zm-116.49 1c3 1.27 1.2 0 3 2h-1zm4 1c2.78 3.65 2.89 3.27 1 7l-2-2c1.83-1.75.73.25 1-4.59zm101.44 0c.33.67.66 1.34 1 2h-2zm41.17 0 4 1zm14.06 1 1 2a6.75 6.75 0 0 1 -1-1.58zm23.07 0 5 3c-3.18-.58-3.25-.4-5.06-2.58zm-359.53 1c2.66 1.42.87.53 0 3zm212.9 0 2 2c-2-1-.63.33-2-1.57zm94.4 0a20.69 20.69 0 0 0 -4 4l6-4zm4 0 2 1zm-24.1 1c-3.17 4.87-7.15 5.58-9 12.05l13.06-4q-2-3.58-4-7.6zm30.13 0c-2.24 1.61-3.35 1.7-5 4 7.83-3.35 8.64 1.65 9 8 1.8-2.61 1.6-1.61 1-5 4.66-1.27 5.22-2.05 7-6h-2zm-324.38 1c1.31 2.73.44 1.93-1 4 .31-1 .63-2.23 1-3.57zm371.58 0 5 1v1c-4.06-.13-3 .5-5.06-1.55zm-96.41 1 1 2h-2a7.87 7.87 0 0 0 1-1.56zm73.27 0c1.93 1.4.6.1 2 2zm-158.67 1c1.93 1.4.6.1 2 2zm124.52 0c-2.81 4.32-4.86 3.26-10 4v2h2l8 1zm26.12 0c.37 2.52.22 2.09 2 5-5.6-1.72-5.76-4.73-8 2l2-1c-1.39 1.69-2.3 1.76-4 3h7v-4c4 6.16 6.5 7.17 14.06 12l9-5v-4h-1c-6.18 2.39-13.94-4-21.13-7.58zm-18.08 1-5 2c.29 6.61.59 5.85 5 8l5-3c-1.55-3.29-1.66-4.57-5.05-6.57zm42.22 1 1 2zm-208.89 3c-.33 1.67-.66 3.35-1 5l2-1c-.36-1-.71-2.21-1-3.55zm15.07 3c2.13 2.35.44-.11 1 3l-3 1zm36.15 0c2.22 2.63 3.77 2.35 7 4-2.62.87-3.51-.4-2 2 6.89 0 5.67 3.39 12.05 5l-4 2c-.65 1 .15 1.6-2 1-3.91 1.82-3.51-.8-7 3v1h12.05c-6.22.07-8.22 1.14-12.05 3l1 3 2 1c7.31-1.18 4.27-4.25 9-4l-2 3c5.74-1.7 5.35-3.78 10-3l-9-6 8 2c-1.1-5-3.66-13-7-16.07-6.18 2.79-8.38.47-16.09-.52zm-202.86 1-4 4 2 3c5-.29 4.59.18 4-3v2l-2-1c1.11-3.38 1.95-1.11 0-4.56zm297.26 0c.44 4 7.78 9 9 10v-1.53c1-2.68 2-5.36 3-8h-12.08zm-320.36 1 1 2zm167.71 0v6h1c-.35-1.68-.7-3.53-1-5.54zm31.13 0c.34.67.67 1.34 1 2a6 6 0 0 1 -1-1.53zm67.29 1h3l-1 2h-4a8.67 8.67 0 0 0 2-1.53zm4 0 5 1q1 2 2 4zm65.27 0-3 6.51 5-4zm9 0c2.3 1.53 1.22 1.83 4 1zm-371.58 1c-.42.93.81.68-1 2zm28.12 0 1 2zm196.84 0 1 2zm118.5 0-22.09 4c-5.62 2.94-9 9.13-16.07 12.05.33 1 .66 2 1 3 17.1 1.17 31.05-1.51 45.19-4-2.62-1.79-1.62-1.6-5-1l-3-1v-1l2-2 10-2h-2c-3-2.55-4.9-.34-7-5l2 1zm55.23 0c2.07 1.36 1.62 1.12 3 3-2.74-1.12-1.42.15-3.05-2.52zm15.07 0c2.05 1.81.71 0 2 3zm-341.3 1-9 8v1c3.37 4.76 16.44 6.82 20.09 1 1.73-2.76 2-3.73 2-6-5.12-1.3-6-3-13.08-3.52zm-51.22 1 1 2zm136.58 0c4.39 6.32 10.21 8.88 13.06 17.07h1v-3c-2.82-7.66-4.48-10.87-14.09-13.56zm207.88 0c2.36 2.13-.11.44 3 1v-1zm-324.37 1-1 2zm3 0 2 1zm209.89 0 2 2.51zm52.22 0 2 2.51h-4zm-81.34 1h2c-1.35 3.42-.6 2.08-3 4 .87-2.91.82-.83 1-3.52zm-216 1.51 1 2zm141.6 0-1 1 5 4zm218.93 0-8 4 3 3c2 2.66 1.13 2 5 3 1.7-1.45 8.4-2.64 13.05-3l-3 3 4-2v-3l3 2v4c4.06-.89 9.13 1.58 14.06 0-4.63-7.94-19.41-11.21-31.13-11zm-270.15 1c-4.95 2-9.26 2.71-13 5l-2 10c-3.66-1.93-.68-2.84-4-1 .78 7-3.73 1.93-6 10 3.66.91 2 0 4 2-6.77 1.21-19.42 13.45-21.09 20.08 6.49 3.35 12.22 4.92 18.08 7 1.26-3 0-1.2 2-3 .57 5.77 3.66 6 5 5l3 2-3 3c-2.07-3.15-.48-2.08-5-3 1.53 5-1.44 7.84 0 13 1.82 6.6 18.88 30.17 25.11 32.14 23.3 7.36 69.17 1.25 89.37 19.08-4.2-17.85-16.08-24.13-24.1-38.16-18.72.29-47.63-3.48-65.27-8v-1c.33-1 .66-2 1-3 6-.48 4.73-.2 7-4v-1l-5-1-3 4c.89-5.17 2.2-7.05 1-12.05l-8 1 1 2c2.61.42.55-1 3 1q-.49 2.51-1 5c-4.29-1-1.78-2.84-5 1 3.18-.1 1.45-1.76 3 1 1.93 1.4.6.1 2 2l-4-1-2 1c-.73-6.95.93-9.23 3-15.07-3.53-1.15-4.12-1.32-6-4 5.22 1.51 6.5 3.06 10-1-2.88-1.72-.94-1.6-3-4 1.83-1 5.5.35 3-2v-5l2 1c.82 5-.67 3 3 5v-2c-2.49-1.47-1-2.92-5-5h-10c-.12-5.43.66-5-3-7-1.55 1.62-2 1-2 1-3.52-1.63-2.21-1-4-4l2-2c4.16.93 8-.56 12 3-2.23.2-3.21-.77-2 1 2.8 4.28 17.78 13.92 23.1 15.06 1.81-6.09 4-8.19 10-10-3.46-2.87-3.07 0-2-4l6-5-4 7c6.93-.28 7.58-.12 13.05 1q1.52-3.51 3-7l-8-5-4 4c1.49-4.74 2.69-7 6-8 .73 4.06 3.59 4.28 7 8 4.27-2.3 6.39-2.75 8-8-1.63-1.07-1.45-1.85 1-8-6.52-5.34-37.68-10.07-52.22-10zm36.16 0 11 5zm111.47 0-1 2h2zm-215.92 1 1 2zm17.08 0h2c-1.75 1-.22.92-2 0zm163.69 0h2l-2 5-1-1c.33-1.34.67-2.67 1-4zm198.84 0 2 4-2-1zm-220.93 1c-1.35 5.43-2.93 9.4 4 11 .34-1 .67-2 1-3-1-4.28-1.92-5.93-5-8zm73.31 0 2 1zm32.1 1 1 2zm-234 1c-3.05 2.28-5.16 2.23-7 6h2l9 1zm184.78 0q-.49 7-1 14.06l6-5v-1c-.94-4-1.57-6.25-5-8zm129.55 0 2 2c-1.93-1.38-.6-.08-2-2zm-144.61 1 1 2zm121.52 0c1.7 2.49.6 1.18 3 0zm68.27 0h2c-1.4 1.93-.1.6-2 2zm-295.26 1c-.71.95.17 1.57-2 1zm166.71 0h5l-2 2zm-251.06 2c1.87 3.1-.6 2.27 3 2zm118.5 0c1.14 4 1.38 3.84 4 6zm86.36 0c2.71 1.61 1.39.34 3 3zm-214.91 1h2c-1.75 1-.22 1-2 0zm251.07 0h6l-1 2h-4zm132.56 0 2 1zm-197.84 1c2.63 1.78 1.37.06 1 3h-1zm14.06 0c.66 1 1.33 2 2 3-2.05-1.76-.71 0-2-3zm140.6 1 2 1zm58.25 0 12.05 5c-4 .14-1.44 2.24-4 0-4.81-.75-6.19-1.05-8-5zm-80.34 1c-4.78 3.26-12.21 3.42-20.09 4l5 3c4.92-.82-.08.63 5 1 2.14-1.13 12.28-6.17 10.05-8zm10 0-6 3v1l17.08-2c-2.75-1.78-5.9-2.05-11-2zm-206.72 2.09c.55 5.41-1.81 8.22-4 13.06 7.74-4.51 17.55 1.75 24.1 7-3.25-10.28-12.81-16.95-20.1-20.06zm223 0 2 2c-1.39-1.93-.1-.6-2-2zm-293.25 2 1 2zm256.09 0h2c-1.81 2.05 0 .71-3 2zm91.39 0h3v1l-3 1zm-155.66 1-3 2 2 3 6-1-7 5v1l18.07-9zm-46.2 1c-8.46 9.17-19.47 14-26.12 25.11.75 5.31 5.64 19.42 2 16.07 1.63 3.43 1.64 3.36 5 5-3.21 3.53-3.73 3.55-3 9l2 1c4-2.27 4.85-2.76 6-8-1-.23-1-.91 0-1 7-.07 15.6 5.73 15.06-9-2.07-2.22-1.39-1.89-5-3v-2c4 .21 2.5 1.67 5-1 4.38-6.95 10.4-20.8 8-30.13zm70.3 0c-8.39 11.15-20.73 11.36-28.12 19.08v1c2.52-.34 54.34-6.81 63.26-15.06l-2-1c-7.58-4.2-22.2-4.14-33.14-4zm140.6 0h2c-1.4 1.93-.1.6-2 2zm-33.15 1h2c-1.75 1-.22.93-2 0zm-327.39 1 4 6c-3.41-2.48-4-2.48-4-6zm183.79 0 3 1zm7 0-3 1 3 4v2l2-2c1.93-1.4.6-.1 2-2-3.91-1.69-3.72 1.19-3-3zm113.49 0c2.71 1.61 1.38.34 3 3-3.43-2-2.11-.69-3-3zm-354.51 1c-.22 1.47.42 1-1 3zm58.25 1h2l-2 3zm174.74 0-2 3 3-3zm-11.05 1c-6.74 7.58-10.55 19.45-11 33.14l2-1c4.46-9.64 12.7-19.22 12-31.13zm13.06 0c-1.43 5.14-1.47 3.86 1 8l3-1c.34-1.34.67-2.68 1-4-3.28-1.13-2.72-1.36-5-3zm-55.24 2h2l-9 8c1.9-4.59 4.13-4.77 7-8zm-180.76 1 2 4-2-1v2h-1zm97.41 0 1 2zm28.12 0-2 3c-6.06-.77-3.28-1.66-8 1l-2 5 2 5c10.49.18 10.54 2.45 18.07-1-1.48 3.38-2.82 3.07 0 6 7.47 3.91 14.13.08 13.06-8-7.23-3.36-13.88-8.14-21.09-11zm-37.16 2 4 1c-.34 1-.67 2-1 3h-1l-2-1zm291.24 0 1 2zm-312.33 1h2c-1.75 1-.22.92-2 0zm163.7 0-7 16.07c5.71-2.47 11.25-4.38 13.06-11.05zm-193.82 1-5 7c3.95-1.67 5.76-3.62 5-7zm163.7 1 4 2h-5zm4 0c1.93 1.4.6.1 2 2zm49.2 0c.34 1 .67 2 1 3h-1zm-255.09 2 1 2zm11 1 3 1 1 4c-3.01-2.17-3.29-2.73-3.96-4.91zm301.28 0 7 4v1c-4.27-1.12-5-1.81-7-5zm-219.94 1c3.05.88.27 1.44-1 3 .34-1 .67-2 1-3zm11.05 0-11.05 6 3 2c.4-2 7.73-2.58 8-8zm27.12 0c2.13 2.35.44-.11 1 3l-2-1v-1zm3 0 3 2zm127.54 0-2 1 3 1 2-2zm48.21 0c1.93 1.4.6.1 2 2zm-310.32 1c1.31 2.73.44 1.93-1 4zm118.5 0h2c-1.75 1-.22.92-2 0zm193.82 1 1 2zm-221.94 1h2c-1.75 1-.22.93-2 0zm20.08 0a80.93 80.93 0 0 0 -12.05 8l-2 7h1l15.07-5-4-6 1-1 2 3zm20.09 0c.33.67.67 1.33 1 2zm123.48 1-7 2-1 2 5 7h3c4.22-5.33 10.19-9 16.07-10.05zm-130.55 1c2 2.07.37 1 4 2zm159.68 0h2l-3 2c.34-.66.68-1.32 1-2zm-195.87 1 1 2h-2c.35-.65.68-1.31 1-2zm154.66 1c-11.25 12.83-23.33 19-25.11 42.18 11.32-9.2 23.14-21.15 34.15-31.13zm-250.06 1 5 1v1h-1zm10 0h3l-4 2.05zm20.09 0-5 1 2 4c1 1.33 2 2.67 3 4l9-4-3-3h-1c-.8 4.19 1 1-2 4l-2-1 3-5zm250.05 0-3 3.05h3l2-3h-2zm-175.74 1-5 5 2-1c.76 1.2-.4 1.23 1 1 1.91-2.18 4.93-3.61 2-5zm23.1 0 2 1zm135.57 0 1 2zm-257.09 1h3l-4 2.05zm63.27 1 6 1c-4.85 0-3.42 1-6-.95zm19.08 0-3 4v2l2 1 3-2c-3.72-3-.54-3.13-2-5zm46.2 2c.33 1.34.67 2.68 1 4-4.09.92-4.8 3.38-1 7l4-2v1c-2.08 2-1 .37-2 4h1c2-2.07.37-1 4-2v1l-3 2c3.81 5.42 7.55 9.14 16.07 10.05l5-12.06-1-1-3 6c-2.45-1-3.42-1.18-5-3 3.93-.31 8.08-2.8 9-9zm21.09 0-1 1 4 2v-3zm-26.11 1c-.22 3.34-.94 2.31 1 5 .33-1 .66-2 1-3zm-61.26 1h2c-1.53 1.93-1.8 1.77-4 3 1.4-1.93.1-.6 2-2zm203.86 0 3 2c-1.81-2 0-.65-3-1.95zm5 0 2 1zm-239 1c-1.56 1.17-27.78 9.95-28.12 10 5.51 8.31 12.41 3.62 15.06 13.06 8.42-1.78 8.57-2.68 17.08 2l6-10c2.39 2.09-.16.88 3 1l2-8-3-3c-8.69 1.84-12.31 5-18.08 9l-2-3c2.43.15 17.58-5.86 21.09-9zm55.23 0-4 7 2 2c5.22-1.72 6.64-.14 10-3zm108.46 0h3l-2 2zm-131.55 1 2 2c-1.92-1.32-.59 0-2-1.93zm13 0-2 4h1c2.72-1.3.18-1 3 0zm107.46 1 7 3-2 3zm-136.58 1c3.23 8.72.51 17-1 24.1l10 2c-4.49-9.81-6-16.22-4-26.11h-5zm63.27 0c-8.34 4.1-12.77 3.73-16.07 10 7.34-.08 19.11-.9 16.07-10zm180.77 0c.33.67.66 1.34 1 2-.33-.62-.66-1.27-1-1.94zm-222.95 2h2c-1.75 1.06-.22 1-2 .08zm48.21 0c-3.37 14-17.68 10.08-29.13 12.05-.33 1.34-.67 2.68-1 4 9.14 1.59 43 13.75 48.2 2l-8-7-3 2c-.14 1.33-1.89 4.8-8 1 4.41-2.06 4.49-4.43 5-10zm-138.62 2c3.66.91 2 0 4 2zm12 0 1 2zm-7 1c1.93 1.4.6.1 2 2zm93.4 0 2 3zm198.83 0c1.58 3.1 2.4 1.06 0 4zm-214.89 1 6 3v1c-5.1-.64-4.26.19-6-3.91zm127.54 0h2l-3 2c.33-.6.67-1.23 1-1.9zm-72.31 1h2c-1.4 1.93-.1.6-2 2zm74.29 0h3l-2 2c-.33-.6-.67-1.24-1-1.91zm-101.43 1-1 2 2-2zm97.41 0c.34.67.67 1.34 1 2-.33-.6-.67-1.23-1-1.9zm-64.27 1v4h1l2-2zm31.08 1c-1.36 4.65-3.93 9.35-3 13.05a23 23 0 0 0 9 15.07q-3-14-6-28zm121.52 0c.33.66.67 1.33 1 2-.33-.59-.67-1.22-1-1.89zm-289.23 2.13h2c-1.36 1.08.13 1.01-1.66.1zm6 0h2c-1.4 1.93-.1.6-2 2zm29.12 3 2 2c-1.55-1.28-.22.01-1.63-1.89zm132.56 0 1 3h-1zm50.22 0-12.05 6c1.13 4.16.2 5.31-1 9l2-1 5-7a47.66 47.66 0 0 1 -5 11c5.85.63 7.8 2.14 11.05 5-3.21 2.18-4 1.52-8 0h-1v1c3.21 6.37 3.33 16.59 2 25.11h1v-2c8.62-11.4 10.68-32.43 10-47.2zm63.27 0c2 1.81.71 0 2 3zm-261.11 1 1 3h4v-3zm8 0-1 4h5l-2-4zm62.26 0c.34.67.67 1.34 1 2-.33-.67-.66-1.34-1-2zm-87.35 2h5v2l-8 1c1.25-1.77 1.58-1.64 3-3zm55.24 0-1 3 3-1zm69.29 0h2c-1.75 1-.22.93-2 0zm-129.55 1 1 2zm19.08 1-1 2c1.86-1.23.55-.88 1-2zm56.24 0 1 2zm78.33 2-1 2 5 1v-2zm51.22 0c-.22 3.34-.93 2.31 1 5h1l1-3zm-161.68 1c1.8 2 0 .71 3 2zm-9 2h2c-1.76 1-.23.94-2 0zm65.27 0h3v1l-4 1c.33-.65.67-1.31 1-2zm102.44 0-1 4h1c.33-1 .67-2 1-3-.33-.32-.67-.64-1-1zm-184.79 1 1 2zm85.37 0 2 2c-1.94-1.37-.61-.08-2-2zm-81.35 1v4h-1zm17.07 0h2c-1.4 1.93-.1.6-2 2zm164.7 1 2 2zm-149.63 1c-.39 4 1.5 7.14 6 6 5.68 1.52 7.53-.25 12.06-2-.34-.66-.67-1.33-1-2zm-31.13 2h2c-1.4 1.93-.1.6-2 2zm179.76 0-2 3 3-1c-.33-.65-.67-1.3-1-2zm-151.64 3 2 1zm23.1 1c-1.39 3.07-.84.35-1 5l6-3v-1zm126.53 0c-.2 15.22 3.63 23.89 7 34.14h1c.17-15.08 1.76-25.74-8-34.1zm-95.4 2c.33.67.67 1.33 1 2-.34-.63-.67-1.29-1-2zm-76.32 1h3c-2.2 2-3.21 2.29-7 3v-1zm5 4 1 2h-2zm26.1 1c3 1.29 2.26.63 4 3zm-12.05 4h2c-1.75 1.05-.22 1-2 .06zm21.08 1 2 3z"/><path d="m558.75 309.74h2.1c-1.85 1-.3.9-2.1 0zm-2.1 2c2.2 2.5.6-.1 1 4.1h-1zm-1 5.2c1 3.1.7 2.8-1 5.2.3-1.7.6-3.5 1-5.2zm-2.1 5.2c1.4 2.8.5 2-1 4.1.3-1.3.7-2.7 1-4.1zm-5.2 7.3c.3 1 .7 2.1 1 3.1h-1zm4.2 4.1 1 2.1zm-6.2 2.1c.3 1 .7 2.1 1 3.1 2.9-2.1 1.3-1.5 4.1-2.1l-1 3.1-3.1 4.1c-1.2 1.8-2.7 2-5.2 1l4.1-3.1c-.6-3.1-2.5-1.3 0-3.1v-3zm-54.9 1c2 1.4.6.1 2.1 2.1zm14.5 0c2.2 4.1 4 13.1 2.1 17.6-.8-5.9-1.5-11.7-2.05-17.6zm-69.4 1 2.1 6.2h-2.1zm102.5 0c.7 1 1.4 2.1 2.1 3.1h-4.1zm-52.8 320.1c-1.2 29.8 0 59.8 6.2 89.1h-26.9c4.8-16.7-4.3-119.7-5.2-121.2h-1c-6.1 4.8-7.9 9.1-12.4 15.5l1-6.2-9.3-2.1c6.8.5 7.9 1.4 11.4-2.1 2-1.6 1.8-1.9 3.1-4.1-4.6-7.2-16.6-27.9-23.8-25.9-.3-2.4-.7-4.8-1-7.3l26.9 29c4.8-2.2 3.2-3.1 8.3-3.1-2-18.3-3.1-31.1-7.3-43.5l6.2 2.1v-6.2c-5.6-18.5-12.9-35.2-29-40.4-7.7-2.5-10.1-.4-16.6-5.2l12.4 3.1-2.1-3.1c-8.7-.8-14.4-5.6-18.6-8.3 3.7-9-13.3-20.6-19.7-26.9-10-10-27.7-42.3-36.2-59l3.1-1c1.9 10.7 9.9 27 18.6 31.1l-1-2.1c2.7-2.7 2.5-7.4 3.1-11.4h1c-2.8 25.1 11.7 22.7 22.8 35.2 6.8 7.7.4 16.3 11.4 20.7v4.1l-4.1-1c4.2 8.9 6.1 9.6 14.5 14.5l2.1-1v-1c-4.3-3-9.6-6.8-11.4-12.4 15.6 11.8 30.3 26.1 45.6 38.3a58.37 58.37 0 0 0 -10.35-24.94h-6.2c1.6-.8 8.1-.6 5.2-3.1 0-9.5-28.8-50.8-17.6-49.7h1c-1.1-15.7 2.2-25.2 5.2-35.2h1c-.6 7.9-3 30.3-5.2 38.3 8.2.5 11.2 4.3 18.6 2.1 1.8-12.2 11.1-23.2 13.5-30l4.1 2.1c-2.4 3-2.7 2.6-3.1 8.3h1l17.6-7.3c-10.7-17.5-32.5-39.5-34.2-69.4l2.1 1c.3 1.7.7 3.5 1 5.2l5.2-3.1c-3 5.2-5 4.3-5.2 13.5 7.9 12.6 16.3 22.4 22.8 38.3l4.1-3.1c-1.1 8.1 4.1 11.9 8.3 17.6l5.2-4.1-2.1 3.1 6.2-1c6.2-23.4 16.9-46.3 14.5-80.8 9.5-.2 13.8-16.3 22.8-20.7-3.5 5.1-5.7 4.8-2.1 9.3-8.9 1.5-10.2 7.2-12.4 12.4-2.5-2.2.2-.9-3.1-1-2.8 12.6-5.3 28.5-3.1 40.4l2.1-1c3.2-13.9 12.1-20.8 15.5-37.3h1c-2.3 20.6-14.6 33.6-21.7 52.8l6.2-4.1c-12.2 16.2-20.3 38.4-11.4 66.3h1l1-1c2.1-11.4 20.7-42.5 20.7-42.5 5.8-17.4-.1-35 8.3-51.8.3 2.4.7 4.8 1 7.3l1-3.1c-.8 9.8-14.7 47.6-3.1 47.6l-1 2.1c-10 2-22.4 36.7-25.9 48.7l4.1 1c1.3-3.1 0-1.2 2.1-3.1.3 2.4-.2 1.3 1 4.1-6.8 1.2-12.8 32.1-8.3 41.4h1c16.4-4.7 55.7-23.2 66.3-37.3-.3-2.1-.7-4.1-1-6.2-3.8-1.5-2.7.3-5.2-3.1v-1l8.3 5.2c4.3-3.3 5-5.1 10.4-5.2-.3.7-.7 1.4-1 2.1l-7.3 6.2c.3-1 .7-2.1 1-3.1l-11.4 17.6h1c10-4.4 23.5-13.2 34.2-14.5-1.1 4-1.6.5 0 4.1-29.4.7-67.6 30.9-91.1 38.3l2.1 4.1c-4.9-1.3-4.4-1.5-9.3-1-4.5 6.4-16.7 28.4-10.4 37.3l40.4-6.2v-1c-3.4-3.5-4.8-7.7-5.2-14.5l3.1-1c-1.3 9.7 6.3 13.9 7.3 18.6l-49.7 10.4c-3.3 16.1-12.6 33.4-6.2 50.8 4.2-3.7 2.2-3.8 8.3-4.1v1c-5.8 8.6-7.7 17.3-5.2 26.9 12.4.9 18 1.2 28-2.1l-1.9 2.8c-9.65 2.14-15.75 2.04-26.95 1.14zm-48.7-312.8c.3.7.7 1.4 1 2.1-.3-.7-.7-1.4-1-2.1zm100.5 1h2.1l-3.1 2.1zm4.1 1.1 1 2.1zm3.1 0v8.3h-1zm-106.65 1.96 1 2.1zm77.7 0c.3.7.7 1.4 1 2.1a20 20 0 0 0 -1.05-2.1zm23.8 1.1 1 2.1zm-2 3.1c-.2 1.5.4 1-1 3.1zm-98.4 1c.3.7.7 1.4 1 2.1-.35-.66-.7-1.36-1.05-2.06zm69.4 0 2.1 9.3h-1c-.4-3.1-.8-6.2-1.1-9.3zm26.9 2.1c0 2.4.2 2.7-2.1 5.2zm-96.3 1h2.1c-1.4 2-.1.6-2.1 2.1zm103.5 0c.3 1 .7 2.1 1 3.1h-1zm-101.5 2.1 2.1 4.1-2.1-1zm8.3 1 2.1 4.1c-2.1-2-1.1-.3-2.1-4.1zm82.9 1.1c.3.7.7 1.4 1 2.1a20.92 20.92 0 0 0 -1-2.1zm-1.1 2 1 2.1zm-88 1.1c2.1 1.9 2.3 3.9 3.1 7.3l-2.1-1zm14.5 6.2c2.7 4.7 3 5.2 0 8.3zm79.8 0c.3 1 .7 2.1 1 3.1h-1zm-91.2 1 1 2.1zm1.1 2.1c.3 1 .7 2.1 1 3.1h-1zm73.5 0c.3.7.7 1.4 1 2.1-.3-.7-.7-1.4-1-2.1zm15.5 0v6.2l-2.1 2.1c.7-2.8 1.4-5.6 2.1-8.3zm-95.3 1c2.7 1.2 1.2 2.4 0 5.2zm97.4 3.1 1 2.1zm-14.5 1.1c.3.7.7 1.4 1 2.1-.3-.8-.7-1.4-1-2.1zm-185.4 1 1 2.1zm194.7 2.1 1 3.1h-1zm-92.2 1 2.1 5.2h-2.1zm-38.3 1c2 1.4.6.1 2.1 2.1zm39.4 5.2c.3 1 .7 2.1 1 3.1h-1zm-34.2 2.1 1 2.1zm-67.3 2.1h2.1c-1.4 2-.1.6-2.1 2.1zm102.5 0 2.1 4.1h-1zm53.9 1c.3.7.7 1.4 1 2.1-.35-.7-.7-1.36-1.05-2.06zm-154.3 1 1 2.1zm1 2.1 1 3.1h-1zm99.4 0c2.8 7.8-2.2 18.1 1 22.8-6.1 2.2-5.2 7.7-8.3 12.4 2.5-11.66 4.85-23.46 7.25-35.16zm-127.4 1 1 2.1zm29 3.2 7.3 29h-2.1zm72.5 1 2.1 2.1c-2-1.5-.6-.1-2.1-2.1zm87 0 2.1 3.1zm2.1 3.1 1 2.1zm-166.8 2.1c2 1.4.6.1 2.1 2.1zm82.9 0 3.1 2.1zm98.4 0h2.1l-3.1 2.1zm-103.6 2c.3 1 .7 2.1 1 3.1l-2.1-1zm9.3 1.1 3.1 2.1zm91.2 0c1.9 2.7.1 1.6-2.1 3.1zm46.6 0h2.1l-3.1 2.1zm-77.7 3.1 1 3.1h-1zm36.3 1 1 2.1zm-2.1 3.1c.3.7.7 1.4 1 2.1-.3-.7-.7-1.4-1-2.1zm-72.5 1.14 16.6 4.1-20.7-3.1zm35.2 0 1 2.1zm-2.1 3.1c-1 2.1-2.1 4.1-3.1 6.2 1.1-2.1 2.1-4.2 3.1-6.2zm35.2 0h2.1a16.15 16.15 0 0 1 -5.2 5.2c1.1-1.8 2.1-3.5 3.1-5.2zm-63.1 4.1c.3 1 .7 2.1 1 3.1h-1zm4.1 0 1 2.1zm-31.1 2.1 1 2.1zm33.2 3.1 1 8.3h-1c-.7-2.4-1.4-4.8-2.1-7.3zm47.6 1c1.4 4.1.6 4.3-3.1 6.2zm-135.7 5.16 2.1 2.1c-2.05-1.46-.65-.06-2.15-2.06zm44.6 0 1 2.1zm44.5 2.1c.3.7.7 1.4 1 2.1a20 20 0 0 0 -1.05-2.06zm9.3 0h2.1c-1.7 3.5-1.7 3.5-5.2 5.2zm-95.2 2 1 2.1zm165.7 0c.3.7.7 1.4 1 2.1-.35-.66-.75-1.36-1.05-2.06zm-164.7 2.1 1 2.1zm-11.4 1.1 1 2.1zm130.5 0c-4.4 2.9-6.4 1.7-4.1 6.2 1 2.4 2.1 4.8 3.1 7.3l2.1-1v-2.1c1.55-3.56 1.3-8.06-1.15-10.36zm43.5 0c.3.7.7 1.4 1 2.1a20.92 20.92 0 0 0 -1.05-2.06zm-145 1 3.1 1-1 2.1zm-26.9 2.1 1 2.1zm94.2 0c-2.5 3.7-4.9 7.3-3.1 11.4l2.1-2.1 3.1-2.1c-.5-4.6 0-5.1-2.1-7.2zm-65.2 1 1 2.1zm40.4 0 1 3.1h-1zm47.6 0-18.6 6.2c1.4 10-1.4 14.6-3.1 24.9 4.9-1.7 13-3.5 18.6-1l-18.6 2.1 1 2.1c14.1 6 21.4 18.2 33.1 25.9h3.1v-2.1c9.9-16.8-6.2-51.1-15.5-58.1zm-67.3 1 1 2.1zm-47.7 1.1 1 2.1zm30.1 1 1 2.1zm133.6 0h2.1l-3.1 2.1a20 20 0 0 1 1-2.1zm-162.6 1 2.1 4.1c-2.2-2-1.1-.3-2.1-4.1zm30 1.1c2 1.4.6.1 2.1 2.1zm59 1c.3.7.7 1.4 1 2.1a20 20 0 0 0 -1-2.1zm69.4 0c.1 1.9 1.2 1.3-2.1 3.1zm-113.9 1c.3.7.7 1.4 1 2.1a20 20 0 0 0 -1-2.1zm-42.5 1.1 1 2.1zm32.2 0 1 2.1zm10.3 2.1h4.1c-.3.7-.7 1.4-1 2.1l-3.1 1zm45.6 0c-4.4 5.5-6.8 10.6-10.4 17.6l9.3 3.1c.6-7.4 4.5-8.5 5.2-18.6zm-53.9 1c6.4 3.5 14.1 1.3 18.6 6.2-6.55-.76-15.45.34-18.65-6.16zm186.4 9.3c1.9 2.7.1 1.6-2.1 3.1zm-160.5 2.1c-.3 2.8-.7 5.5-1 8.3 3.2 7.7 6.6 17.6 14.5 20.7.9-8.3 1.6-16.9-2.1-23.8zm-50.7 1c1.7 11.4 11.8 19.4 19.7 24.9-2.75-12.96-10.15-19.36-19.75-24.86zm208.1 0c-.2 1.5.4 1-1 3.1a28.11 28.11 0 0 0 1-3.1zm-165.7 1.1c.3.7.7 1.4 1 2.1a10.24 10.24 0 0 0 -1.05-2.06zm188.5 0h4.1v1zm-15.5 3.1 2.1 2.1c-2.05-1.46-.75-.16-2.15-2.06zm-11.4 1 1 2.1zm23.8 0 1 2.1h-2.1a21.16 21.16 0 0 0 1.1-2.1zm-160.5 2.1v2.1c1-1.86.85-.26 0-2.06zm68.3 0 1 2.1zm67.4 0c.3.7.7 1.4 1 2.1-.35-.76-.7-1.36-1.05-2.06zm21.7 1c-.2 1.5.4 1-1 3.1.3-1 .7-2.1 1-3.1zm-155.3 1c-2.6 4.3-3.4 22.2 1 24.9 2.4-7.9 4.8-15.9 7.3-23.8zm11.4 3.1c-1.9 13.8-14.9 23.8-6.2 36.2a43.49 43.49 0 0 1 13.5-5.2v2.1c-6.7.6-8.5 1.3-12.4 6.2 8.5 6.9 7.5 24.7 12.4 35.2h5.2c-2.7 6.6-1.4 11.8 0 21.8h1l2.1-1c.3-1 .7-2.1 1-3.1-1.2-3.8-1.5-14.7-4.1-17.6 12.5-11.8 22.7-21.3 22.8-45.6-10.6-11.1-21-21.7-35.3-29zm107.7 2.1 2.1 2.1c-2.1-1.5-.7-.1-2.1-2.1zm-54.9 2.1h4.1v1zm89 1 8.3 1zm41.5 1.1 1 2.1zm-42.5 2h29v1h-2.1c-6 2.8-21.6 1.5-26.9-1zm-178.1 4.2c.3 1 .7 2.1 1 3.1h-1zm-28 4.1h4.1v1zm78.7 2.1c.3 1 .7 2.1 1 3.1h-1zm-51.8 2.1c2 1.4.6.1 2.1 2.1zm52.9 2 3.1 1v1c-3-.5-5.1.9-3.1-2zm-3.2 2.1 1 2.1h-2.1a10.6 10.6 0 0 0 1.05-2.06zm-42.4 2.1 2.1 2.1c-2.05-1.46-.75-.16-2.15-2.06zm40.4 0c-.2 1.5.4 1-1 3.1-.3-.7-.7-1.4-1-2.1zm-37.3 4.1 6.2 5.2-5.2-1c-.35-1.36-.75-2.76-1.05-4.16zm-36.3 1.1 7.3 1zm-8.2 3.1h2.1c-2.4 1.6-1.3 1.9-4.1 1zm6.2 3.1c6-.3 12.4-.4 15.5 2.1zm-4.2 1h4.2v1l-11.4 1zm20.7 0 3.1 2.1zm-37.2 3.1 9.3 1c-5.35.24-7.8.74-9.35-.96zm170.8 9.3c1.7 2.1 1.3 1.4 2.1 5.2l-2.1-1zm-62.1 3.1c2.2 2.1 1.4 1 2.1 5.2h-1zm52.8 4.2c1.3 4 2.7 2.1-1 4.1.3-1.4.7-2.7 1-4.1zm6.2 1h3.1l-1 2.1h-5.2zm-33.1 2.1h4.1v1zm-11.4 4.1c4 1.4 2.2 0 4.1 3.1zm-14.5 4.2c-2.2 1.9-2.5 1.4-4.1 4.1-2.9 3.1-1.5 8.3-1 14.5l2.1-1c1.7-5.9 3.5-11.7 5.2-17.6zm57 13.4 3.1 2.1zm25.9 4.2h2.1l-3.1 2.1zm-7.3 1 1 2.1h-2.1a21.16 21.16 0 0 0 1.1-2.1zm-110.8 14.54c1 3.1.7 2.8-1 5.2.25-1.7.55-3.54 1-5.2zm-1 6.2c.3.7.7 1.4 1 2.1a20 20 0 0 1 -1-2.1zm-1.1 5.2 1 2.1zm-1 3.1c.3.7.7 1.4 1 2.1-.3-.7-.7-1.4-1-2.1zm-1.1 2.1c.3.7.7 1.4 1 2.1a20 20 0 0 0 -1.05-2.1zm51.8 15.5 1 2.1h-2.1zm-2 2.1c-.2 1.5.4 1-1 3.1zm-48.7 17.6c.3.7.7 1.4 1 2.1-.35-.7-.75-1.4-1.05-2.1zm-5.2 2.1h2.1c-1.8 1-.3.9-2.1 0zm3.1 0c2 1.4.6.1 2.1 2.1zm-3.1 3.1 1 2.1zm77.7 5.2h4.1v1l-7.3 1z"/></g></g></svg>