<svg height="343.53" viewBox="0 0 2612.03 343.53" width="2612.03" xmlns="http://www.w3.org/2000/svg" xmlns:xlink="http://www.w3.org/1999/xlink"><linearGradient id="a" gradientUnits="userSpaceOnUse" x2="14.22" y1="244.56" y2="244.56"><stop offset="0" stop-color="#82715f"/><stop offset=".68" stop-color="#594e41"/><stop offset="1" stop-color="#82715f"/></linearGradient><linearGradient id="b" x1="151.24" x2="165.46" xlink:href="#a" y1="244.56" y2="244.56"/><linearGradient id="c" x1="302.49" x2="316.71" xlink:href="#a" y1="244.56" y2="244.56"/><linearGradient id="d" x1="453.73" x2="467.95" xlink:href="#a" y1="244.56" y2="244.56"/><linearGradient id="e" x1="604.98" x2="619.19" xlink:href="#a" y1="244.56" y2="244.56"/><linearGradient id="f" x1="907.46" x2="921.68" xlink:href="#a" y1="244.56" y2="244.56"/><linearGradient id="g" x1="756.22" x2="770.44" xlink:href="#a" y1="244.56" y2="244.56"/><linearGradient id="h" x1="1058.71" x2="1072.93" xlink:href="#a" y1="244.56" y2="244.56"/><linearGradient id="i" x1="1209.95" x2="1224.17" xlink:href="#a" y1="244.56" y2="244.56"/><linearGradient id="j" x1="1512.44" x2="1526.66" xlink:href="#a" y1="244.56" y2="244.56"/><linearGradient id="k" x1="1361.19" x2="1375.41" xlink:href="#a" y1="244.56" y2="244.56"/><linearGradient id="l" x1="1663.68" x2="1677.9" xlink:href="#a" y1="244.56" y2="244.56"/><linearGradient id="m" x1="1814.93" x2="1829.14" xlink:href="#a" y1="244.56" y2="244.56"/><linearGradient id="n" x1="2117.41" x2="2131.63" xlink:href="#a" y1="244.56" y2="244.56"/><linearGradient id="o" x1="1966.17" x2="1980.39" xlink:href="#a" y1="244.56" y2="244.56"/><linearGradient id="p" x1="2419.9" x2="2434.12" xlink:href="#a" y1="244.56" y2="244.56"/><linearGradient id="q" x1="2268.66" x2="2282.88" xlink:href="#a" y1="244.56" y2="244.56"/><linearGradient id="r" x1="2571.14" x2="2585.36" xlink:href="#a" y1="244.56" y2="244.56"/><linearGradient id="s" x1="1293.86" x2="1293.86" xlink:href="#a" y1="187.57" y2="199.81"/><linearGradient id="t" x1="1293.86" x2="1293.86" xlink:href="#a" y1="268.81" y2="279.28"/><linearGradient id="u" x1="1140.87" x2="1140.87" xlink:href="#a" y1="189.35" y2="199.81"/><linearGradient id="v" x1="1140.87" x2="1140.87" xlink:href="#a" y1="278.22" y2="291.49"/><linearGradient id="w" x1="989.47" x2="989.47" xlink:href="#a" y1="185.75" y2="199.81"/><linearGradient id="x" x1="839.42" x2="839.42" xlink:href="#a" y1="276.53" y2="291.49"/><linearGradient id="y" x1="686.43" x2="686.43" xlink:href="#a" y1="282.67" y2="291.49"/><linearGradient id="z" x1="148.43" x2="148.43" xlink:href="#a" y1="715.08" y2="725.55"/><linearGradient id="A" x1="1743.42" x2="1743.42" xlink:href="#a" y1="189.35" y2="199.81"/><linearGradient id="B" x1="1743.42" x2="1743.42" xlink:href="#a" y1="278.38" y2="291.49"/><linearGradient id="C" x1="1590.43" x2="1590.43" xlink:href="#a" y1="186.54" y2="199.81"/><linearGradient id="D" x1="1590.43" x2="1590.43" xlink:href="#a" y1="282.51" y2="291.49"/><linearGradient id="E" x1="1440.22" x2="1440.22" xlink:href="#a" y1="177.03" y2="187.5"/><linearGradient id="F" x1="1439.03" x2="1439.03" xlink:href="#a" y1="279.42" y2="291.49"/><linearGradient id="G" x1="2196.35" x2="2196.35" xlink:href="#a" y1="187.57" y2="199.81"/><linearGradient id="H" x1="2196.35" x2="2196.35" xlink:href="#a" y1="283.03" y2="291.49"/><linearGradient id="I" x1="2350.67" x2="2350.67" xlink:href="#a" y1="282" y2="291.49"/><linearGradient id="J" x1="2504.35" x2="2504.35" xlink:href="#a" y1="282.51" y2="291.49"/><linearGradient id="K" x1="2043.36" x2="2043.36" xlink:href="#a" y1="189.35" y2="199.81"/><linearGradient id="L" x1="2043.36" x2="2043.36" xlink:href="#a" y1="281.03" y2="291.49"/><linearGradient id="M" x1="1901.56" x2="1901.56" xlink:href="#a" y1="178.1" y2="190.21"/><linearGradient id="N" x1="1901.56" x2="1901.56" xlink:href="#a" y1="270.33" y2="281.89"/><linearGradient id="O" x1="989.47" x2="989.47" xlink:href="#a" y1="281.03" y2="291.49"/><linearGradient id="P" gradientUnits="userSpaceOnUse" x1="1354.11" x2="1301.94" y1="643.14" y2="645.26"><stop offset="0" stop-color="#82715f"/><stop offset="1" stop-color="#82715f"/></linearGradient><linearGradient id="Q" x1="634.21" x2="584.04" xlink:href="#P" y1="665.9" y2="667.93"/><path d="m0 150.84h14.22v187.43h-14.22z" fill="url(#a)"/><path d="m151.24 150.84h14.22v187.43h-14.22z" fill="url(#b)"/><path d="m302.49 150.84h14.22v187.43h-14.22z" fill="url(#c)"/><path d="m453.73 150.84h14.22v187.43h-14.22z" fill="url(#d)"/><path d="m604.98 150.84h14.22v187.43h-14.22z" fill="url(#e)"/><path d="m907.46 150.84h14.22v187.43h-14.22z" fill="url(#f)"/><path d="m756.22 150.84h14.22v187.43h-14.22z" fill="url(#g)"/><path d="m1058.71 150.84h14.22v187.43h-14.22z" fill="url(#h)"/><path d="m1209.95 150.84h14.22v187.43h-14.22z" fill="url(#i)"/><path d="m1512.44 150.84h14.22v187.43h-14.22z" fill="url(#j)"/><path d="m1361.19 150.84h14.22v187.43h-14.22z" fill="url(#k)"/><path d="m1663.68 150.84h14.22v187.43h-14.22z" fill="url(#l)"/><path d="m1814.93 150.84h14.22v187.43h-14.22z" fill="url(#m)"/><path d="m2117.41 150.84h14.22v187.43h-14.22z" fill="url(#n)"/><path d="m1966.17 150.84h14.22v187.43h-14.22z" fill="url(#o)"/><path d="m2419.9 150.84h14.22v187.43h-14.22z" fill="url(#p)"/><path d="m2268.66 150.84h14.22v187.43h-14.22z" fill="url(#q)"/><path d="m2571.14 150.84h14.22v187.43h-14.22z" fill="url(#r)"/><path d="m1186.18 187.57h215.35v12.24h-215.35z" fill="url(#s)"/><path d="m1186.18 268.81h215.35v10.47h-215.35z" fill="url(#t)"/><path d="m1033.2 189.35h215.35v10.47h-215.35z" fill="url(#u)"/><path d="m1033.2 278.22h215.35v13.27h-215.35z" fill="url(#v)"/><path d="m881.8 185.75h215.35v14.06h-215.35z" fill="url(#w)"/><path d="m731.74 276.53h215.35v14.96h-215.35z" fill="url(#x)"/><path d="m578.76 282.67h215.35v8.83h-215.35z" fill="url(#y)"/><path d="m40.75 715.08h215.35v10.47h-215.35z" fill="url(#z)" transform="matrix(.96717912 -.25409557 .25409557 .96717912 193.25 -353.12)"/><path d="m1635.75 189.35h215.35v10.47h-215.35z" fill="url(#A)"/><path d="m1635.75 278.38h215.35v13.11h-215.35z" fill="url(#B)"/><path d="m1482.76 186.54h215.35v13.27h-215.35z" fill="url(#C)"/><path d="m1482.76 282.51h215.35v8.98h-215.35z" fill="url(#D)"/><path d="m1332.55 177.03h215.35v10.47h-215.35z" fill="url(#E)"/><path d="m1331.36 279.42h215.35v12.08h-215.35z" fill="url(#F)"/><path d="m2088.67 187.57h215.35v12.24h-215.35z" fill="url(#G)"/><path d="m2088.67 283.03h215.35v8.47h-215.35z" fill="url(#H)"/><path d="m2242.99 282h215.35v9.5h-215.35z" fill="url(#I)"/><path d="m2396.68 282.51h215.35v8.98h-215.35z" fill="url(#J)"/><path d="m1935.69 189.35h215.35v10.47h-215.35z" fill="url(#K)"/><path d="m1935.69 281.03h215.35v10.47h-215.35z" fill="url(#L)"/><path d="m1793.89 178.1h215.35v12.12h-215.35z" fill="url(#M)"/><path d="m1793.89 270.33h215.35v11.56h-215.35z" fill="url(#N)"/><g fill="#706151"><circle cx="1202.76" cy="207" r="7.19"/><circle cx="1230.39" cy="298.68" r="7.19"/><circle cx="1202.76" cy="298.68" r="7.19"/><circle cx="1230.39" cy="206.04" r="6.22"/><circle cx="1052" cy="207" r="7.19"/><circle cx="1079.63" cy="298.68" r="7.19"/><circle cx="1052" cy="298.68" r="7.19"/><circle cx="1079.63" cy="206.04" r="6.22"/><circle cx="900.76" cy="207" r="7.19"/><circle cx="928.39" cy="298.68" r="7.19"/><circle cx="900.76" cy="298.68" r="7.19"/><circle cx="928.39" cy="206.04" r="6.22"/><circle cx="1656.32" cy="207" r="7.19"/><circle cx="1683.95" cy="298.68" r="7.19"/><circle cx="1656.32" cy="298.68" r="7.19"/><circle cx="1683.95" cy="206.04" r="6.22"/><circle cx="1505.56" cy="207" r="7.19"/><circle cx="1533.19" cy="298.68" r="7.19"/><circle cx="1505.56" cy="298.68" r="7.19"/><circle cx="1533.19" cy="206.04" r="6.22"/><circle cx="1354.32" cy="207" r="7.19"/><circle cx="1381.95" cy="298.68" r="7.19"/><circle cx="1354.32" cy="298.68" r="7.19"/><circle cx="1381.95" cy="206.04" r="6.22"/><circle cx="2110.47" cy="207" r="7.19"/><circle cx="2138.1" cy="298.68" r="7.19"/><circle cx="2110.47" cy="298.68" r="7.19"/><circle cx="2138.1" cy="206.04" r="6.22"/><circle cx="1959.71" cy="207" r="7.19"/><circle cx="1987.33" cy="298.68" r="7.19"/><circle cx="1959.71" cy="298.68" r="7.19"/><circle cx="1987.33" cy="206.04" r="6.22"/><circle cx="1808.46" cy="207" r="7.19"/><circle cx="1836.09" cy="298.68" r="7.19"/><circle cx="1808.46" cy="298.68" r="7.19"/><circle cx="1836.09" cy="206.04" r="6.22"/><circle cx="2591.83" cy="298.68" r="7.19"/><circle cx="2564.2" cy="298.68" r="7.19"/><circle cx="2441.06" cy="298.68" r="7.19"/><circle cx="2413.44" cy="298.68" r="7.19"/><circle cx="2262.19" cy="207" r="7.19"/><circle cx="2289.82" cy="298.68" r="7.19"/><circle cx="2262.19" cy="298.68" r="7.19"/><circle cx="2289.82" cy="206.04" r="6.22"/><circle cx="777.14" cy="298.68" r="7.19"/><circle cx="749.51" cy="298.68" r="7.19"/><circle cx="625.9" cy="298.68" r="7.19"/><circle cx="598.27" cy="298.68" r="7.19"/></g><path d="m881.8 281.03h215.35v10.47h-215.35z" fill="url(#O)"/><g fill="#615446"><path d="m1198.71 144.4h790.47v11.11h-790.47z"/><path d="m1324.62 133.43h25.63v11.2h-25.63z"/><path d="m1277.37 133.43h25.63v11.2h-25.63z"/><path d="m1419.13 133.43h25.63v11.2h-25.63z"/><path d="m1230.12 133.43h25.63v11.2h-25.63z"/><path d="m1371.88 133.43h25.63v11.2h-25.63z"/><path d="m1466.38 133.43h25.63v11.2h-25.63z"/><path d="m1608.13 133.43h25.63v11.2h-25.63z"/><path d="m1513.63 133.43h25.63v11.2h-25.63z"/><path d="m1560.88 133.43h25.63v11.2h-25.63z"/><path d="m1655.39 133.43h25.63v11.2h-25.63z"/><path d="m1797.14 133.43h25.63v11.2h-25.63z"/><path d="m1702.64 133.43h25.63v11.2h-25.63z"/><path d="m1749.89 133.43h25.63v11.2h-25.63z"/><path d="m1844.39 133.43h25.63v11.2h-25.63z"/><path d="m1938.89 133.43h25.63v11.2h-25.63z"/><path d="m1891.64 133.43h25.63v11.2h-25.63z"/></g><path d="m1213.07 122.07h766.33v11.72h-766.33z" fill="#706151"/><path d="m1347.75 758 5.28-.29-2.6-85.26v-3.79h-.12l-.53-17.39h.65v-4.07h-.77l-.53-17.38h1.3v-4.07h-1.43l-.61-20h2v-4.08h-2.16l-.61-20h2.77v-4.08h-2.9l-.65-21.16h3.55v-4.13h-3.67l-.67-22.09-5.29.29.67 21.8h-23.4l.66-21.8-5.28-.29-.68 22.09h-4v4.07h3.88l-.65 21.16h-3.23v4.08h3.11l-.62 20h-2.49v4.08h2.37l-.61 20h-1.76v4.07h1.63l-.53 17.38h-1.1v4.07h1l-.53 17.39h-.45v4.07h.32l-2.59 85 5.28.29 1.3-42.36h33.37zm-29.81-201.61h23.65l.65 21.16h-24.94zm-.77 25.24h25.19l.61 20h-26.41zm-.74 24.11h26.67l.61 20h-27.89zm-.73 24.08h28.13l.53 17.38h-29.19zm-.66 21.45h29.45l.53 17.39h-30.51zm30.1 21.46.53 17.38h-31.81l.53-17.38zm-31.94 38.84.53-17.38h32.07l.53 17.38z" fill="url(#P)" transform="translate(371.36 -414.45)"/><path d="m628.71 752.67 5.29-.21-2.61-64.28v-3.39h-.13l-.71-17.39h.84v-4.07h-1l-.71-17.33h1.71v-4.07h-1.87l-.71-17.39h2.58v-4.07h-2.74l-.81-20h3.55v-4.07h-3.72l-.62-15.4-5.29.22.62 15.16h-23.3l.62-15.16-5.29-.22-.62 15.38h-4.06v4.07h3.89l-.81 20h-3.08v4.07h2.92l-.71 17.39h-2.21v4.09h2l-.71 17.38h-1.34v4.07h1.18l-.71 17.39h-.47v4.07h.32l-2.58 63.6 5.29.21.74-18.25h34.55zm-29.79-152.26h23.62l.81 20h-25.24zm-1 24.08h25.58l.7 17.39h-27zm-.85 21.51h27.32l.7 17.38h-28.72zm-.87 21.45h29.06l.7 17.39h-30.46zm-.87 21.46h30.8l.7 17.38h-32.2zm-1.68 41.49.81-20h32.54l.81 20z" fill="url(#Q)" transform="translate(371.36 -414.45)"/><path d="m1580.19 437.65-.59-7.14c3 0 6-11.3 6-11.3l-18.44-4.76-4.76 1.78-1.19 8.93 2.38 1.78v5.35l-1.19 3 2.38 4.76-8.33 1.19-4.76 5.95-4.16 12.49-6.55 23.2 1.19 6.54v6l7.73 6.54 1.19 25 1.79 10.71-1.19 14.87s-4.16 5.35-2.38 6.54 11.3.6 11.3.6l1.19-25 4.17-2.38 3-13.08h3l1.19 13.08 1.19 4.17-.59 23.2 11.9.59-3-6.54v-16.72l2.38-3.57v-23.2l4.76-1.78 7.73-10.71 3-14.87.59-20.23-2.38-8.92-11.3-8.92-4.16-6.55z" fill="#706151" transform="translate(371.36 -414.45)"/><path d="m913.32 501.22-7.39-14.16-8-3.08-4.31-1.84a57.22 57.22 0 0 1 1.85-9.85l-.62-8.62-8.62-1.23s-8 .62-10.46 3.69l3.08 11.08 1.23 4.93-6.16 1.23-6.15 3.07-9.23 19.08v25.24l5.54 4.92 3.07 9.24v16.62l-1.23 16s-3.08 8 .62 9.23l7.38-3.08 1.85-20.31 1.85-8.62 5.54-14.15 5.54.61 3.69 13.54 3.08 4.31.61 24 11.08-.62-1.23-6.15v-39.38c0-1.85 9.23 0 9.23 0l1.23-19.09zm-46.17 21.54.62-11.08 8.62-1.23zm32.62-11.08 5.54-1.23 1.24 13.55z" fill="#695c4c" transform="translate(371.36 -414.45)"/><path d="m1043.21 466.89s-1 5.14-2 5.4-8 3.08-8 3.08l-4.88 1.54-4.62 1.28-.26 3.59-2.82.26-2.31 3.34-1.29.26 2.06 6.93-3.85 8.47 1.79 7.7 1.29 3.34 2.82 1.28.51 2.31 16.43 9.5 2.06-4.36 1.28-9.24.77 11 .77 3.33.26 4.11-1.54.26-3.85 12.32-.52-13.35-18.53-10.24-1.8 2.83-5.09-1.51-2.31 16.44-8.22 1-1.28 5.14 1.8 2h-13.35l-.26-8.21-19-9v-5.9l-10.53-5.14 10.26-30.32 6.17-10.53 10.26-9 15.15-8.66 8-.77 7.7 3.59 5.39-2.82 1.29 1.79 6.93-1.28 2.31-2 5.9.25 4.37 4.37z" fill="#706151" transform="translate(371.36 -414.45)"/></svg>