<svg viewBox="0 0 167 141" xmlns="http://www.w3.org/2000/svg"><path d="m1051 538-14-23-7-6s-4-2-5-2-3-3-3-3l-1-3 2-5v-4l-3-2-12-1-2 1-3 3s-3 4-2 4 2 3 2 3l-1 4-4 3-4 4v3h-2l-1-3 3-2 1-4 1-3v-3l-3-6a4.94 4.94 0 0 0 -1 3l-4-1h-4l-2 1-3 4v4l2 4h2l-1 3s-2 3-2 2-12 3-12 3h-2v-2l-12-6v-3h-2v-7l1-4v-3l-2-2h-6l-4 1-2 3 1 2v4l-1 1v3l2 1 1 3-1 2-2 3-3 2-3-1h-7l-1 2-1 8h-2v-2l-2-4v-2l2-1v-1l-1-2 1-1v-4l-7-5h-9l-2 6a6.93 6.93 0 0 0 0 5l2 6h-2l-8 12-2 2-8 16-1 4 1 23 5 9s0 11 1 12 13 2 13 2l-2 4-2 14-2 6v5l27 1 3-2v-1h-4l-7-5 1-11 3-8v-9l3 1 3 15v3l3 1-1 10 4 1 9 1v3l5 3h3l3-4v-5h5v6l5 1h6l1-10 4-1 1 3-1 4.37v2.63h11c-1 0-2-7-2-7l1-5-1-6v-12c0 1 3 7 3 7s2 11 2 12v11h10l-1-6-1-8 4-7v-3h3l2 8 1 9v2l-6 5h45l-1-9-1-4 1-2v-4l2-1-1-2v-4h2l-1-4-1-1h-2v-10l2-2v-2l-1-1v-2l1-1-2-10 4-13 2-1 2-13zm-140 85-5-4 1-5 5-9s0 17-1 18zm102 0-1-3v-6h2l1 7zm23-4-5-10v-16l2 9 4 1z" fill="#5d554d" transform="translate(-885 -489)"/></svg>