<svg height="150.53" viewBox="0 0 1925.65 150.53" width="1925.65" xmlns="http://www.w3.org/2000/svg"><g fill="#423a32" transform="translate(69.14 -579.68)"><path d="m1690.52 629.15 14-23 7-6s4-2 5-2 3-3 3-3l1-3-2-5v-4l3-2 12-1 2 1 3 3s3 4 2 4-2 3-2 3l1 4 4 3 4 4v3h2l1-3-3-2-1-4-1-3v-3l3-6a5 5 0 0 1 1 3l4-1h4l2 1 3 4v4l-2 4h-2l1 3s2 3 2 2 12 3 12 3h2v-2l12-6v-3h2v-7l-1-4v-3l2-2h6l4 1 2 3-1 2v4l1 1v3l-2 1-1 3 1 2 2 3 3 2 3-1h7l1 2 1 8h2v-2l2-4v-2l-2-1v-1l1-2-1-1v-4l7-5h9l2 6a7 7 0 0 1 0 5l-2 6h2l8 12 2 2 8 16 1 4-1 23-5 9s0 11-1 12-13 2-13 2l2 4 2 14 2 6v5l-27 1-3-2v-1h4l7-5-1-11-3-8v-9l-3 1-3 15v3l-3 1 1 10-4 1-9 1v3l-5 3h-3l-3-4v-5h-5v6l-5 1h-6l-1-10-4-1-1 3 1 4.37v2.63h-11c1 0 2-7 2-7l-1-5 1-6v-12c0 1-3 7-3 7s-2 11-2 12v11h-10l1-6 1-8-4-7v-3h-3l-2 8-1 9v2l6 5h-45l1-9 1-4-1-2v-4l-2-1 1-2v-4h-2l1-4 1-1h2v-10l-2-2v-2l1-1v-2l-1-1 2-10-4-13-2-1-2-13zm140 85 5-4-1-5-5-9s0 17 1 18zm-102 0 1-3v-6h-2l-1 7zm-23-4 5-10v-16l-2 9-4 1z"/><path d="m1664.74 623.78s-1-5-1-6-1-11-1-11l-3-6-4-3h-4l-2-2-1-3-1-4s2-2 1-3a39 39 0 0 1 -3-4l-5-2-5 2-4 3-1 5 3 1v3h1l1 5h-5l-3-2h-3l-2 2-1 2v7l-1 2-2 4h-3l-2-2-2-2v-2l3-1v-5l-1-3-4-3-4-1-3 2s-2 2-2 3a42.13 42.13 0 0 0 1 5l-1 3-2-2-3-4-1-4-3-3h-3l-2 2h-2l1-6-5-4-2-2c-2-1-2 1-2 1h-3l-2-1h-1l-1 3s1 3 0 3-1 1-1 2v6l2 2v3l-1 3-2-2-3-3-2-3h-1v-3l2-2v-4l-1-3-3-3-3-1h-9l-1 2v2l2 2v2l-1 4 1 1v2l1 3 2 1v4a4.82 4.82 0 0 1 -4 0l-1-2v-11l-3-2h-5l-1 2a10 10 0 0 0 -1 3 23 23 0 0 1 -1 4v4l-1-1a3.48 3.48 0 0 1 -1-2 10 10 0 0 0 -1-3v-3l-4-1-3-1h-3l-3-2-4 2-4-2-5-1h-5l-4 2a3.09 3.09 0 0 1 -2-1l-3-3 2-4-4 4h-2l1-3-2 1-1 2s-4 2-5 2-3 4-3 4v10l-2-4-2-2 1-7-2-4h-6l-3-4-3-3-3 1-2 1-2 2-1 6 2 5 2 1v3l-2 4-1 2h-2l-2-4-3-2-3 1-1 2-1 2 1 4 2 4-2 2c-1 0-4-6-4-6l-6-6-7-3 1-2 1-3-1-5-4-3-3-1-4 2-4-3-4-1-9 6v2l3 2 1 3 1 3c1 1-1 3-1 3l-3 3h-3v2l-1 5-1 4-2 3-3-7 1-4-1-3-3-4-4-2h-4l-3 3-2-3 2-5-2-4-4-2-3-1-5 1-2 3h2l-1 4 1 5 1 3 1 1-3 3 1 3 4 3s2 2 1 3-1 4-1 4l-2 1.32-9.39-15.42-7-6s-4-2-5-2-3-3-3-3l-1-3 2-5v-4l-3-2-12-1-2 1-3 3s-3 4-2 4 2 3 2 3l-1 4-4 3-4 4v3h-2l-1-3 3-2 1-4 1-3v-3l-3-6a5 5 0 0 0 -1 3l-4-1h-4l-2 1-3 4v4l2 4h2l-1 3s-2 3-2 2-12 3-12 3h-2v-2l-12-6v-3h-2v-7l1-4v-3l-2-2h-6l-4 1-2 3 1 2v4l-1 1v3l2 1 1 3-1 2-2 3-3 2-3-1h-7l-1 2-1 8h-2v-2l-2-4v-2l2-1v-1l-1-2 1-1v-4l-7-5h-9l-2 6c-.06.18-.12.36-.17.54h-2.15l-2-2-1-3-1-4s2-2 1-3a40.1 40.1 0 0 1 -3-4l-5-2-5 2-4 3-1 5 3 1v3h1l1 5h-5l-3-2h-3l-2 2-1 2v7l-1 2-2 4h-3l-2-2-2-2v-2l3-1v-5l-1-3-4-3-4-1-3 2s-2 2-2 3a42.94 42.94 0 0 0 1 5l-1 3-2-2-3-4-1-4-3-3h-3l-2 2h-2l1-6-5-4-2-2c-2-1-2 1-2 1h-3l-2-1h-1l-1 3s1 3 0 3-1 1-1 2v6l2 2v3l-1 3-2-2-3-3-2-3h-1v-3l2-2v-4l-1-3-3-3-3-1h-9l-1 2v2l2 2v2l-1 4 1 1v2l1 3 2 1v4a4.89 4.89 0 0 1 -4 0l-1-2v-11l-3-2h-5l-1 2a9.91 9.91 0 0 0 -1 3 23 23 0 0 1 -1 4v4l-1-1a3.51 3.51 0 0 1 -1-2 9.91 9.91 0 0 0 -1-3v-3l-4-1-3-1h-3l-3-2-4 2-4-2-5-1h-5l-4 2a3.13 3.13 0 0 1 -2-1l-3-3 2-4-4 4h-2l1-3-2 1-1 2s-4 2-5 2-3 4-3 4v10l-2-4-2-2 1-7-2-4h-6l-3-4-3-3-3 1-2 1-2 2-1 6 2 5 2 1v3l-2 4-1 2h-2l-2-4-3-2-3 1-1 2-1 2 1 4 2 4-2 2c-1 0-4-6-4-6l-6-6-7-3 1-2 1-3-1-5-4-3-3-1-4 2-4-3-4-1-9 6v2l3 2 1 3 1 3c1 1-1 3-1 3l-3 3h-3v2l-1 5-1 4-2 3-3-7 1-4-1-3-3-4-4-2h-4l-3 3-2-3 2-5-2-4-4-2-3-1-5 1-2 3h2l-1 4 1 5 1 3 1 1-3 3 1 3 4 3s2 2 1 3-1 4-1 4l-2 1.32-9.39-15.42-7-6s-4-2-5-2-3-3-3-3l-1-3 2-5v-4l-3-2-12-1-2 1-3 3s-3 4-2 4 2 3 2 3l-1 4-4 3-4 4v3h-2l-1-3 3-2 1-4 1-3v-3l-3-6a5 5 0 0 0 -1 3l-4-1h-4l-2 1-3 4v4l2 4h2l-1 3s-2 3-2 2-12 3-12 3h-2v-2l-12-6v-3h-2v-7l1-4v-3l-2-2h-6l-4 1-2 3 1 2v4l-1 1v3l2 1 1 3-1 2-2 3-3 2-3-1h-7l-1 2-1 8h-2v-2l-2-4v-2l2-1v-1l-1-2 1-1v-4l-7-5h-9l-2 6a6.77 6.77 0 0 0 -.34 1.19l-1.45-1.09h-4l-2-2-1-3-1-4s2-2 1-3a40.1 40.1 0 0 1 -3-4l-5-2-5 2-4 3-1 5 3 1v3h1l1 5h-5l-3-2h-3l-2 2-1 2v7l-1 2-2 4h-3l-2-2-2-2v-2l3-1v-5l-1-3-4-3-4-1-3 2s-2 2-2 3a42.94 42.94 0 0 0 1 5l-1 3-2-2-3-4-1-4-3-3h-3l-2 2h-2l1-6-5-4-2-2c-2-1-2 1-2 1h-3l-2-1h-1l-1 3s1 3 0 3-1 1-1 2v6l2 2v3l-1 3-2-2-3-3-2-3h-1v-3l2-2v-4l-1-3-3-3-3-1h-9l-1 2v2l2 2v2l-1 4 1 1v2l1 3 2 1v4a4.89 4.89 0 0 1 -4 0l-1-2v-11l-3-2h-5l-1 2a9.91 9.91 0 0 0 -1 3 23 23 0 0 1 -1 4v4l-1-1a3.45 3.45 0 0 1 -1-2 9.91 9.91 0 0 0 -1-3v-3l-4-1-3-1h-3l-3-2-4 2-4-2-5-1h-5l-4 2a3.13 3.13 0 0 1 -2-1l-3-3 2-4-4 4h-2l1-3-2 1-1 2s-4 2-5 2-3 4-3 4v10l-2-4-2-2 1-7-2-4h-6l-3-4-3-3-3 1-2 1-2 2-1 6 2 5 2 1v3l-2 4-1 2h-2l-2-4-3-2-3 1-1 2-1 2 1 4 2 4-2 2c-1 0-4-6-4-6l-6-6-7-3 1-2 1-3-1-5-4-3-3-1-4 2-4-3-4-1-9 6v2l3 2 1 3 1 3c1 1-1 3-1 3l-3 3h-3v2l-1 5-1 4-2 3-3-7 1-4-1-3-3-4-4-2h-4l-3 3-2-3 2-5-2-4-4-2-3-1-5 1-2 3h2l-1 4 1 5 1 3 1 1-3 3 1 3 4 3s2 2 1 3-1 4-1 4l-2 1.32-9.39-15.42-7-6s-4-2-5-2-3-3-3-3l-1-3 2-5v-4l-3-2-12-1-2 1-3 3s-3 4-2 4 2 3 2 3l-1 4-4 3-4 4v3h-2l-1-3 3-2 1-4 1-3v-3l-3-6a5 5 0 0 0 -1 3l-4-1h-4l-2 1-3 4v4l2 4h2l-1 3s-2 3-2 2-12 3-12 3h-2v-2l-12-6v-3h-2v-7l1-4v-3l-2-2h-6l-4 1-2 3 1 2v4l-1 1v3l2 1 1 3-1 2-2 3-1.59 1.06-1.7-3.4-4-3h-4l-2-2-1-3-1-4s2-2 1-3a40.49 40.49 0 0 1 -3-4l-5-2-5 2-4 3-1 5 3 1v1.34h-3.71l-1.69 5.06-.6-.4h-3l-2 2-1 2v7l-1 2-2 4h-3l-2-2-2-2v-2l3-1v-5l-1-3-4-3-4-1-3 2s-2 2-2 3a42.13 42.13 0 0 0 1 5l-1 3-2-2-3-4-1-4-3-3h-3l-2 2h-2l1-6-5-4-2-2c-2-1-2 1-2 1h-3l-2-1h-1l-1 3s1 3 0 3-1 1-1 2v6l2 2v3l-1 3-2-2-3-3-2-3h-1v-3l2-2v-4l-1-3-3-3-3-1h-9l-1 2v2l2 2v2l-1 4 1 1v2l1 3 2 1v4a4.82 4.82 0 0 1 -4 0l-1-2v-11l-3-2h-5l-1 2a10 10 0 0 0 -1 3 23 23 0 0 1 -1 4v4l-1-1a3.48 3.48 0 0 1 -1-2 10 10 0 0 0 -1-3v-3l-4-1-3-1h-3l-3-2-4 2-4-2-5-1h-5l-4 2a3.09 3.09 0 0 1 -2-1l-3-3 2-4-4 4h-2l1-3-2 1-1 2s-4 2-5 2-3 4-3 4v10l-2-4-2-2 1-7-2-4h-6l-3-4-3-3-3 1-2 1-2 2-1 6 2 5 2 1v3l-2 4-1 2h-2l-2-4-3-2-3 1-1 2-1 2 1 4 2 4-2 2c-1 0-4-6-4-6l-6-6-7-3 1-2 1-3-1-5-4-3-3-1-4 2-4-3-4-1-9 6v2l3 2 1 3 1 3c1 1-1 3-1 3l-3 3h-3v2l-1 5-1 4-2 3-3-7 1-4-1-3-3-4-4-2h-4l-3 3-2-3 2-5-2-4-4-2-3-1-5 1-2 3h2l-1 4 1 5 1 3 1 1-3 3 1 3 4 3s2 2 1 3-1 4-1 4l-2 1.32-9.39-15.42-7-6s-4-2-5-2-3-3-3-3l-1-3 2-5v-4l-3-2-12-1-2 1-3 3s-3 4-2 4 2 3 2 3l-1 4-4 3-4 4v3h-2l-1-3 3-2 1-4 1-3v-3l-3-6a5 5 0 0 0 -1 3l-4-1h-4l-2 1-3 4v4l2 4h2l-1 3s-2 3-2 2-12 3-12 3h-2v-2l-12-6v-3h-2v-7l1-4v-3l-2-2h-6l-4 1-2 3 1 2v4l-1 1v3l2 1 1 3-1 2-2 3-3 2-3-1h-7l-1 2-1 8h-2v-2l-2-4v-2l2-1v-1l-1-2 1-1v-4l-7-5h-9l-2 6a7 7 0 0 0 0 5l2 6h-2l-8 12-2 2-8 16-1 4 1 23 5 9s0 11 1 12 13 2 13 2l-2 4-2 14-2 6v5l27 1 3-2v-1h-4l-7-5 1-11 3-8v-9l3 1 3 15v3l3 1-1 10 4 1 9 1v3l5 3h3l3-4v-5h5v6l5 1h6l1-10 4-1 1 3-1 4.37v2.63h11c-1 0-2-7-2-7l1-5-1-6v-12c0 1 3 7 3 7s2 11 2 12v11h10l-1-6-1-8 4-7v-3h3l2 8 1 9v2l-6 5h39.43v.1c-2 1-6 0-6 0s0 4 1 4 17 3 17 3l-1-7h3l1-10h11l-4-16h3l6 23h2l-4 5h3l10-2-1-4h2l-2-9v-10l2-2v-3l-2-2 1-12-3-2s-3-23-2-22 8 4 8 4l-3 8v6l1 4v7l2 6 5 8h-4l-1 2 8 5v2l9 1s-2 9-2 10 1 3 1 4a42.13 42.13 0 0 1 -1 5l-1 2-5 1v3l12-1 7-1s-1-10 0-9 8-2 8-2l-1-8 1-2-4-5 2-2h9v6l-7 4 1 2 18-3-2-5 2-6 4-19 3-10 5 11 5 21 1 12-5 3 1 2 5 1 10 1v-4l2-3-1-6 1-8 9-5v8c0 1 2 3 2 3l-1 2-3 3v3l4 1-2 2h-8l-1 1 2 3s6 2 7 2 11 2 11 2l-1-4 2-2 5-20s2 1 2 2a42.13 42.13 0 0 1 -1 5l6-1v-4l2-1s3 6 3 7a23 23 0 0 0 1 4l-3 17h19l1-8-1-5-2-7s-1-6-1-7 2-5 2-5l3 1 3-4s-1-1 0-1 5-2 5 0 3 6 3 6-2 2-1 3 4 11 4 11l-2 6 2 2-2 2-4 1v2l10 1 6-4v-3l1-3v-3l-1-2 3-1h5c-1 0-1-4-1-4h3s0 7 1 8 4 9 4 9l-5 4-1 3 18-1-1-9-2-15v-4l1-11 4-2v-9l3 1 1 7 2 1v7c0 1-1 11-1 11l1 3-3 2 4 2h6l-1-5 5-1h5l2-3-2-3 1-3 2 1v-9.08c2.37.26 4.29.42 4.29.42l-2 4-2 14-2 6v5l20.64.76c.07 1.06.07 1.9.07 1.9l-4 5h9l4-2v-4l3-1v-5.24l2.29.58 9 1v3l5 3h3l3-4v-5h5v6l5 1h6l1-10 4-1 1 3-1 4.37v2.63h11c-1 0-2-7-2-7l1-5-1-6v-12c0 1 3 7 3 7s2 11 2 12v11h10l-1-6-1-8 4-7v-3h3l2 8 1 9v2l-6 5h39.34v.1c-2 1-6 0-6 0s0 4 1 4 17 3 17 3l-1-7h3l1-10h11l-4-16h3l6 23h2l-4 5h3l10-2-1-4h2l-2-9v-10l2-2v-3l-2-2 1-12-3-2s-3-23-2-22 8 4 8 4l-3 8v6l1 4v7l2 6 5 8h-4l-1 2 8 5v2l9 1s-2 9-2 10 1 3 1 4a45.13 45.13 0 0 1 -1 5l-1 2-5 1v3l12-1 7-1s-1-10 0-9 8-2 8-2l-1-8 1-2-4-5 2-2h9v6l-7 4 1 2 18-3-2-5 2-6 4-19 3-10 5 11 5 21 1 12-5 3 1 2 5 1 10 1v-4l2-3-1-6 1-8 9-5v8c0 1 2 3 2 3l-1 2-3 3v3l4 1-2 2h-8l-1 1 2 3s6 2 7 2 11 2 11 2l-1-4 2-2 5-20s2 1 2 2a45.13 45.13 0 0 1 -1 5l6-1v-4l2-1s3 6 3 7a22.09 22.09 0 0 0 1 4l-3 17h19l1-8-1-5-2-7s-1-6-1-7 2-5 2-5l3 1 3-4s-1-1 0-1 5-2 5 0 3 6 3 6-2 2-1 3 4 11 4 11l-2 6 2 2-2 2-4 1v2l10 1 6-4v-3l1-3v-3l-1-2 3-1h5c-1 0-1-4-1-4h3s0 7 1 8 4 9 4 9l-5 4-1 3 18-1-1-9-2-15v-4l1-11 4-2v-9l3 1 1 7 2 1v7c0 1-1 11-1 11l1 3-3 2 4 2h6l-1-5 5-1h5l2-3-2-3 1-3 2 1v-18h3l-1-8h3s0 8 1 9 1 19 1 19l5-1 1-3 1-12-1-5 3 1a44.23 44.23 0 0 1 1 5v15s1 10 2 10-2 4-1 5 1 6 1 6l-4 5h9l4-2v-4l3-1v-1l23.79.89 3-2v-1h-4l-7-5 1-11 3-8v-9l3 1 3 15v3l3 1-1 10 4 1 9 1v3l5 3h3l3-4v-5h5v6l5 1h6l1-10 4-1 1 3-1 4.37v2.63h11c-1 0-2-7-2-7l1-5-1-6v-12c0 1 3 7 3 7s2 11 2 12v11h10l-1-6-1-8 4-7v-3h3l2 8 1 9v2l-6 5h39.37v.1c-2 1-6 0-6 0s0 4 1 4 17 3 17 3l-1-7h3l1-10h11l-4-16h3l6 23h2l-4 5h3l10-2-1-4h2l-2-9v-10l2-2v-3l-2-2 1-12-3-2s-3-23-2-22 8 4 8 4l-3 8v6l1 4v7l2 6 5 8h-4l-1 2 8 5v2l9 1s-2 9-2 10 1 3 1 4a45.13 45.13 0 0 1 -1 5l-1 2-5 1v3l12-1 7-1s-1-10 0-9 8-2 8-2l-1-8 1-2-4-5 2-2h9v6l-7 4 1 2 18-3-2-5 2-6 4-19 3-10 5 11 5 21 1 12-5 3 1 2 5 1 10 1v-4l2-3-1-6 1-8 9-5v8c0 1 2 3 2 3l-1 2-3 3v3l4 1-2 2h-8l-1 1 2 3s6 2 7 2 11 2 11 2l-1-4 2-2 5-20s2 1 2 2a45.13 45.13 0 0 1 -1 5l6-1v-4l2-1s3 6 3 7a22.09 22.09 0 0 0 1 4l-3 17h19l1-8-1-5-2-7s-1-6-1-7 2-5 2-5l3 1 3-4s-1-1 0-1 5-2 5 0 3 6 3 6-2 2-1 3 4 11 4 11l-2 6 2 2-2 2-4 1v2l10 1 6-4v-3l1-3v-3l-1-2 3-1h5c-1 0-1-4-1-4h3s0 7 1 8 4 9 4 9l-5 4-1 3 18-1-1-9-2-15v-4l1-11 4-2v-9l3 1 1 7 2 1v7c0 1-1 11-1 11l1 3-3 2 4 2h6l-1-5 5-1h5l2-3-2-3 1-3 2 1v-18h3l-1-8h3s0 8 1 9 1 19 1 19l5-1 1-3 1-12-1-5 3 1c.23.87.42 1.75.6 2.63a19.66 19.66 0 0 0 .4 3v14.32s1 10 2 10-2 4-1 5 1 6 1 6l-4 5h9l4-2v-4l3-1v-1.29l20.32.75 3-2v-1h-4l-7-5 1-11 3-8v-9l3 1 3 15v3l3 1-1 10 4 1 9 1v3l5 3h3l3-4v-5h5v6l5 1h6l1-10 4-1 1 3-1 4.37v2.63h11c-1 0-2-7-2-7l1-5-1-6v-12c0 1 3 7 3 7s2 11 2 12v11h10l-1-6-1-8 4-7v-3h3l2 8 1 9v2l-6 5h39.34v.1c-2 1-6 0-6 0s0 4 1 4 17 3 17 3l-1-7h3l1-10h11l-4-16h3l6 23h2l-4 5h3l10-2-1-4h2l-2-9v-10l2-2v-3l-2-2 1-12-3-2s-3-23-2-22 8 4 8 4l-3 8v6l1 4v7l2 6 5 8h-4l-1 2 8 5v2l9 1s-2 9-2 10 1 3 1 4a44.23 44.23 0 0 1 -1 5l-1 2-5 1v3l12-1 7-1s-1-10 0-9 8-2 8-2l-1-8 1-2-4-5 2-2h9v6l-7 4 1 2 18-3-2-5 2-6 4-19 3-10 5 11 5 21 1 12-5 3 1 2 5 1 10 1v-4l2-3-1-6 1-8 9-5v8c0 1 2 3 2 3l-1 2-3 3v3l4 1-2 2h-8l-1 1 2 3s6 2 7 2 11 2 11 2l-1-4 2-2 5-20s2 1 2 2a44.23 44.23 0 0 1 -1 5l6-1v-4l2-1s3 6 3 7a22.09 22.09 0 0 0 1 4l-3 17h19l1-8-1-5-2-7s-1-6-1-7 2-5 2-5l3 1 3-4s-1-1 0-1 5-2 5 0 3 6 3 6-2 2-1 3 4 11 4 11l-2 6 2 2-2 2-4 1v2l10 1 6-4v-3l1-3v-3l-1-2 3-1h5c-1 0-1-4-1-4h3s0 7 1 8 4 9 4 9l-5 4-1 3 18-1-1-9-2-15v-4l1-11 4-2v-9l3 1 1 7 2 1v7c0 1-1 11-1 11l1 3-3 2 4 2h6l-1-5 5-1h5l2-3-2-3 1-3 2 1v-18h3l-1-8h3s0 8 1 9 1 19 1 19l5-1 1-3 1-12-1-5 3 1a45.13 45.13 0 0 1 1 5v15s1 10 2 10-2 4-1 5 1 6 1 6l-4 5h9l4-2v-4l3-1v-14l-1-6 2-5s2-7 1-7-2-7-2-7l2-5v-14l3-1-2-6v-5c0-1 3-3 3-3l3-4 1-4zm-1707.88 89.9-5-4 1-5 5-9s0 17-1 18zm102 0-1-3v-6h2l1 7zm32-13v-2l.8-.39-.43 1.49zm-9 9-5-10v-16l2 9 4 1zm10.35-13.31-.35-.69v-3.52l1.37.62zm265.31 13.75 1-5 3.25-5.85 1.74-.34c-.05 4.87-.24 14.44-1 15.19zm12.48-4.36c.35 2.14.79 4 1.22 4s0 1-.52 2.18l-1.19-.84zm94.51 8.36-1-3v-6h2l1 7zm32-13v-2l.8-.4-.43 1.5zm-9 9-5-10v-16l2 9 4 1zm10.34-13.32-.34-.68v-3.53l1.37.63zm290 2.42 1.44-3.6-.94 6.58zm2.78-8.07c.16-.71.3-1.45.4-2.09l.61.06zm7 23-5-4 1-5 5-9s.05 16.97-.95 17.97zm102 0-1-3v-6h2l1 7zm32-13v-2l.8-.4-.43 1.5zm-9 9-5-10v-16l2 9 4 1zm10.37-13.35-.35-.68v-3.53l1.37.63zm296.34 16.88-5-4 1-5 5-9s.03 17-.97 18zm102 0-1-3v-6h2l1 7zm32-13v-2l.8-.39-.43 1.49zm-9 9-5-10v-16l2 9 4 1zm10.34-13.31-.34-.69v-3.52l1.37.62z"/></g></svg>