<svg height="178.67" viewBox="0 0 80.63 178.67" width="80.63" xmlns="http://www.w3.org/2000/svg"><path d="m675.82 530.08c.87.24 1.79.46 2 .51.67.15 2.11 1.71 3.09 3.36 2.22 3.79 3 6.58 2.16 8.13a4.23 4.23 0 0 1 -1.84 1.55c-.37.07-.43.19-.78 1.65a26.36 26.36 0 0 0 -.51 3.08 22.06 22.06 0 0 1 -.36 2.31 16.79 16.79 0 0 1 -2.65 4.59 9.82 9.82 0 0 0 -1.17 1.8c-.14.57 1 1.62 4.87 4.54 3.4 2.54 4.24 3.32 6 5.64a2.73 2.73 0 0 1 .69 2 13.6 13.6 0 0 0 .21 1.59c.08.35.11.33.71-.37.34-.41 1.65-1.82 2.94-3.15 4.88-5.07 6.14-7.16 5.3-8.82a9.85 9.85 0 0 0 -1.6-1.76 6.52 6.52 0 0 1 -1.85-2.31 30.76 30.76 0 0 1 -2.48-8.9c-.53-3.71-.69-8.61-.32-10 .89-3.33 4.38-5 10.53-5 3.23 0 5.29.49 6.52 1.57.63.54.67.56 2 .63a4.57 4.57 0 0 1 3.5 1.46 8.09 8.09 0 0 1 1.68 5.12 3.88 3.88 0 0 0 .76 2.41c1.55 2.95 1.75 3.42 2 4.62a7.08 7.08 0 0 1 -.34 3.9c-.48 1.78-.41 2.66.38 5.26a9.85 9.85 0 0 1 .53 5.52 6.77 6.77 0 0 0 -.09 2.69 7.82 7.82 0 0 0 1.44 3.38c.33.41.44.67.4.95s-.15 1.68-.24 3.24-.19 2.88-.2 2.91a5.3 5.3 0 0 1 -.56-1l-.51-1-.1.88c-.44 4-1.24 8.37-1.64 9-.23.35-.27.19-1.22-4.22-.56-2.53-1.08-5-1.17-5.53a2 2 0 0 0 -.31-.9c-.19 0-.67 1.06-.77 1.75s.1 5.32.45 10.23c.12 1.65.25 4.24.29 5.77a14.61 14.61 0 0 0 .29 3.17c.6 1.17-.1 3.41-2.9 9.22l-1 2.17.33 1.49c.19.81.72 2.67 1.19 4.12 1.68 5.17 2 6.76 2.15 9.51.14 3.35-.59 5.45-3 8.59a12 12 0 0 0 -2.62 4.57c-.24 1.19-.37 13.37-.16 14.83a90.63 90.63 0 0 0 2.06 9.16l.87 3.24v8.38c0 5.13 0 8.6-.16 9s-.19 2.35-.26 4.53a32.4 32.4 0 0 1 -.5 5.91c-.73 3.79-.76 5-.26 10.31.09.8.19 2.09.25 2.86l.09 1.4-1.1.09a4.66 4.66 0 0 0 -4 2.37c-.5.73-.58.79-1.36 1a15.47 15.47 0 0 1 -3 .11c-2.29-.08-3.52-.33-4.41-1-.37-.24-.56-.26-1.87-.17-5 .35-8.48-.06-9.62-1.14a1.61 1.61 0 0 1 -.52-1.87c.2-.89.35-1.1.82-1.1a1.28 1.28 0 0 0 1.34-1.46c0-.83-.1-1.07-.6-1.45s-.48-.3-2-.19a41.17 41.17 0 0 1 -9.09-.64l-.72-.1.35.64a9.56 9.56 0 0 0 4.62 3.76c2.7 1.37 2.73 1.4 2.75 3.34 0 1.19.07 1.1-1.52 2.06-2.06 1.26-3.23 1.39-5.35.57a15 15 0 0 0 -2.27-.68 16.07 16.07 0 0 1 -4.51-1.55 4.32 4.32 0 0 0 -1.86-.79c-.16 0-.2.31-.2 1.4 0 1.68-.43 3.42-.85 3.42l-2.72.15a10 10 0 0 1 -5.8-.88c-1.68-.66-2.32-1.18-2.63-2.15a19.44 19.44 0 0 1 -.26-3.07l-.09-2.49-.91-.62a5.72 5.72 0 0 1 -1-.76c0-.07-.08-1.47-.07-3.1a20.37 20.37 0 0 0 -.12-3.31c-.07-.21-.59-2.38-1.16-4.82-1.11-4.8-1.17-5.18-1.77-13.07-.85-11.06-1.19-24.84-.91-36.9a135.26 135.26 0 0 1 .91-15.09c.16-1.42.29-2.65.29-2.72a24.47 24.47 0 0 0 -1.45-2.1c-.8-1.1-1.56-2.18-1.68-2.43a1.75 1.75 0 0 1 .28-2.06 8.43 8.43 0 0 0 .51-.82 13.83 13.83 0 0 0 -1-1.15 13.46 13.46 0 0 1 -2.7-4c-1.73-3.45-1.85-3.8-1.92-5.83a5.91 5.91 0 0 0 -.63-3.14 11.2 11.2 0 0 1 -1.21-4.33c0-.52.18-2.92.38-5.33a42.21 42.21 0 0 1 1.11-7.67c1-4.64 2.69-11 3.36-13a18.82 18.82 0 0 1 4.22-7.34c1.6-1.67 2.2-2 5.16-3.23 4.65-1.85 6-2.29 7.46-2.38a9.67 9.67 0 0 1 3.24.34c.13 0 .47-.72 1-2.36 1-2.88 1-3.4.22-5.18a4.11 4.11 0 0 1 -.41-2.72 5.46 5.46 0 0 1 .39-2.3c.18-.36.41-.7.53-.73s0-.51-.53-1.91a11.8 11.8 0 0 1 -.71-2.33c0-.8.64-1.87 2-3.31a25.54 25.54 0 0 0 1.78-2.14 3.58 3.58 0 0 1 3-1.62 3.93 3.93 0 0 0 1.38-.23c.76-.47 1.62-.45 3.32-.03zm8.33 64a13.73 13.73 0 0 0 -.33 1.7c-.17 1.24-.23 3.33-.27 9.83-.06 7.41-.09 8.5-.38 10.67l-.31 2.41.45 2.92c.41 2.65.69 5.14.81 7.16 0 .72 0 .69.73-1.42a55.73 55.73 0 0 0 2.58-11.51c.21-2.29.59-8.87.59-10.32 0-1 0-1.22-.28-1.43a7.11 7.11 0 0 1 -1.21-3.08 25.71 25.71 0 0 1 -.37-5.23c-.06-3.22-.11-3.91-.28-3.91s-.19-.35-.13-2.09l.09-2.07-.8 3.11c-.46 1.75-.85 3.18-.89 3.28zm-8.7 87.3c-.09 1.12-.15 3.77-.12 5.86v3.83l1-.25a5.2 5.2 0 0 0 2.13-1l.47-.34-.48-1.53a35.11 35.11 0 0 1 -1.65-11.34l-.08-4-.55 3.36c-.31 1.86-.63 4.3-.72 5.43z" fill="#423a32" transform="translate(-638.89 -529.75)"/></svg>