<svg viewBox="0 0 313 150" xmlns="http://www.w3.org/2000/svg"><path d="m794 529-2-3 2-5-2-4-4-2-3-1-5 1-2 3h2l-1 4 1 5 1 3 1 1-3 3 1 3 4 3s2 2 1 3-1 4-1 4l-3 2-2 4v15l-1 3-2 3s-3 3-2 3 6-2 6-2l1 6-3 9 1 3-1 4-1 5 2 1-7 12 11 5-2 7-6 14 1 4c-2 1-6 0-6 0s0 4 1 4 17 3 17 3l-1-7h3l1-10h11l-4-16h3l6 23h2l-4 5h3l10-2-1-4h2l-2-9v-10l2-2v-3l-2-2 1-12-3-2s-3-23-2-22 8 4 8 4l-3 8v6l1 4v7l2 6 5 8h-4l-1 2 8 5v2l9 1s-2 9-2 10 1 3 1 4a43.31 43.31 0 0 1 -1 5l-1 2-5 1v3l12-1 7-1s-1-10 0-9 8-2 8-2l-1-8 1-2-4-5 2-2h9v6l-7 4 1 2 18-3-2-5 2-6 4-19 3-10 5 11 5 21 1 12-5 3 1 2 5 1 10 1v-4l2-3-1-6 1-8 9-5v8c0 1 2 3 2 3l-1 2-3 3v3l4 1-2 2h-8l-1 1 2 3s6 2 7 2 11 2 11 2l-1-4 2-2 5-20s2 1 2 2a43.31 43.31 0 0 1 -1 5l6-1v-4l2-1s3 6 3 7a22.69 22.69 0 0 0 1 4l-3 17h19l1-8-1-5-2-7s-1-6-1-7 2-5 2-5l3 1 3-4s-1-1 0-1 5-2 5 0 3 6 3 6-2 2-1 3 4 11 4 11l-2 6 2 2-2 2-4 1v2l10 1 6-4v-3l1-3v-3l-1-2 3-1h5c-1 0-1-4-1-4h3s0 7 1 8 4 9 4 9l-5 4-1 3 18-1-1-9-2-15v-4l1-11 4-2v-9l3 1 1 7 2 1v7c0 1-1 11-1 11l1 3-3 2 4 2h6l-1-5 5-1h5l2-3-2-3 1-3 2 1v-18h3l-1-8h3s0 8 1 9 1 19 1 19l5-1 1-3 1-12-1-5 3 1a43.31 43.31 0 0 1 1 5v15s1 10 2 10-2 4-1 5 1 6 1 6l-4 5h9l4-2v-4l3-1v-14l-1-6 2-5s2-7 1-7-2-7-2-7l2-5v-14l3-1-2-6v-5c0-1 3-3 3-3l3-4 1-4-1-14s-1-5-1-6-1-11-1-11l-3-6-4-3h-4l-2-2-1-3-1-4s2-2 1-3a39.87 39.87 0 0 1 -3-4l-5-2-5 2-4 3-1 5 3 1v3h1l1 5h-5l-3-2h-3l-2 2-1 2v7l-1 2-2 4h-3l-2-2-2-2v-2l3-1v-5l-1-3-4-3-4-1-3 2s-2 2-2 3a43.31 43.31 0 0 0 1 5l-1 3-2-2-3-4-1-4-3-3h-3l-2 2h-2l1-6-5-4-2-2c-2-1-2 1-2 1h-3l-2-1h-1l-1 3s1 3 0 3-1 1-1 2v6l2 2v3l-1 3-2-2-3-3-2-3h-1v-3l2-2v-4l-1-3-3-3-3-1h-9l-1 2v2l2 2v2l-1 4 1 1v2l1 3 2 1v4a4.83 4.83 0 0 1 -4 0l-1-2v-11l-3-2h-5l-1 2a10.07 10.07 0 0 0 -1 3 22.69 22.69 0 0 1 -1 4v4l-1-1a3.49 3.49 0 0 1 -1-2 10.07 10.07 0 0 0 -1-3v-3l-4-1-3-1h-3l-3-2-4 2-4-2-5-1h-5l-4 2a3.1 3.1 0 0 1 -2-1l-3-3 2-4-4 4h-2l1-3-2 1-1 2s-4 2-5 2-3 4-3 4v10l-2-4-2-2 1-7-2-4h-6l-3-4-3-3-3 1-2 1-2 2-1 6 2 5 2 1v3l-2 4-1 2h-2l-2-4-3-2-3 1-1 2-1 2 1 4 2 4-2 2c-1 0-4-6-4-6l-6-6-7-3 1-2 1-3-1-5-4-3-3-1-4 2-4-3-4-1-9 6v2l3 2 1 3 1 3c1 1-1 3-1 3l-3 3h-3v2l-1 5-1 4-2 3-3-7 1-4-1-3-3-4-4-2h-4z" fill="#5d554d" transform="translate(-770 -507)"/></svg>