<svg height="220.21" viewBox="0 0 837.79 220.21" width="837.79" xmlns="http://www.w3.org/2000/svg"><g fill="#423a32" transform="translate(424.43 -524.31)"><path d="m403.46 631.63-.71-8.46 10.61-14.17-12.45-6.14-11.33 20v4.88l-4.58 4.36-.47-2.83 2.2-6.13v-13.06l-3.46-5.51-4.86-10.57-2.67-13.37-3.46-9.75-5.2-5.82-4.24-2.83-8.5-4.25-2.83-3.3-.63-3.78 1.73-6.45h.79l.94-4.4h1.89l.31-2.84-4.54-4.21-4.87-2.84-9-1.1-10.7-1.25-1.43 2.67.47 2.2 1.26 1.1-.48 3 .16 2.68-5.82 1.93 2.2 1.37 3.78.16v2.67l1.41.79-1.57 2.2-1.41 2 .47 1.41 1.89.47v2.21l1.25.62-.78.95 1.57 1.57v2.36l2.52.47s3-.31 3.46-.31a12 12 0 0 1 1.73.31l.47 2.05-.16 2-2.36.16-3.77 4.25-11.29 13.76-2.2 1.26-.63-1.26a47.67 47.67 0 0 0 .79-5.5c-.16-.47 1.88-1.57 1.88-1.57l2.84-4.41-2.05-2.83-1.27 1.45-2-2.67-1.26-4.09-2.1 1.06-2 3.93-1.76 3.77-.16 4.56-5.82 10.23 1.57 9.12 5.67 6.29 8 2.84 2.67-.48s7.08-6.76 7.56-6.6 2.35 3.46 2.35 3.46l-3 2.83.31 3.15-3.78.62-1.88 6.3 1.41 11 2.52 2-2.05 11.8 2.84 2.76 1.26 26.5 1.57 12.27 5.5 8.81-.59 37.54-2.67 4.56-8.34 1.58-4.24.78v4.72l2.67 1.58 19.51.78v2l5.91.79 14.54-2.52.94-4.72-.63-6 .63-7.86 2.2-3.15 2.05-23.28-.32-8.34.32-5 2.2-2 .63-17h1.89l13 5.66 1.58-4.87-11-5.67 4-4.72 3.68-3.61-1.88-5.2 2.51-1.41-.63-3.46 1.11-2.68 3.14-4.09 7.24-2.51.78-4.25 1.17-1 .23 12.5.29 9.39 1.13 8.82 1.28 6-.28 12-.57 4-1.14 3.84-3.27 6.54-3.7 4-5.15 2.45-5.41.28-4.12-1.28-3.56-2.42-3.42-1-1.92-5.23v5.24l1.87 1.73 10.67 4h6s5.26-2.42 5.69-2.42 4-4.41 4-4.41l4.84-10.81.43-8.11.43-9.39-.86-3.13s.29-6.12.43-6.55.39-20.52.39-20.52z"/><path d="m-96.68 695.5 3.77-2.61.87-26.68-2.61-4.06v-15.66l2.32-4.93.58-35.67-8.7-25.81-3.48-5.51-8.41-4.64-4.64-4.65 2-4.64.29-5.8 3.77-1.45v-2.9s-.58-13.34-13-14.21-13.63 17.4-12.76 17.4h3.19l.87 8.7h-1.74l-4.06 6.67-3.74 2.59-2.26-47.33-.48 49.22-5.7 3.94-1.15 2.65-3.48-5.51-8.41-4.64-4.64-4.65 2-4.64.29-5.8 3.77-1.45v-2.9s-.58-13.34-13.05-14.21-13.63 17.4-12.76 17.4h3.19l.87 8.7h-1.74l-4.06 6.67-3.74 2.59-2.26-47.33-.48 49.22-5.7 3.94-1.15 2.65-3.48-5.51-8.41-4.64-4.64-4.65 2-4.64.29-5.8 3.77-1.45v-2.9s-.58-13.34-13.05-14.21-13.63 17.4-12.76 17.4h3.19l.87 8.7h-1.74l-4.06 6.67-3.74 2.59-2.26-47.33-.48 49.22-5.7 3.94-1.15 2.65-3.48-5.51-8.41-4.64-4.64-4.65 2-4.64.29-5.8 3.77-1.45v-2.9s-.58-13.34-13-14.21-13.63 17.4-12.76 17.4h3.19l.87 8.7h-1.74l-4.06 6.67-3.74 2.59-2.26-47.33-.48 49.22-5.7 3.94-1.15 2.65-3.49-5.51-8.41-4.64-4.64-4.65 2-4.64.29-5.8 3.77-1.45v-2.9s-.58-13.34-13.05-14.21-13.63 17.4-12.76 17.4h3.19l.87 8.7h-1.74l-4.06 6.67-3.74 2.59-2.26-47.33-.48 49.22-5.7 3.94-1.15 2.65-3.48-5.51-8.42-4.64-4.64-4.65 2-4.64.29-5.8 3.78-1.45v-2.9s-.58-13.34-13.06-14.21-13.63 17.4-12.76 17.4h3.19l.87 8.7h-1.74l-4.06 6.67-3.74 2.59-2.26-47.33-.48 49.22-5.7 3.94-8.41 19.43-8.7 18.85 7.25 36.25 3.48-.58 3.48 5.8 4.06 2.9-2.32 28.13 4.35 2.61-1.45 11.94 2.32 31.33-4.64 7 .87 3.19h14.5l.29-23.2 1.16-11.6 2.9-4.65.87-3.48 14.79-.29 1.16 23.21-.58 18.56h15.86l.39 1.45h14.5l.29-23.2 1.16-11.6 2.9-4.65.87-3.48 14.79-.29 1.16 23.21-.58 18.56h15.86l.39 1.45h14.5l.29-23.2 1.16-11.6 2.9-4.65.87-3.48 14.79-.29 1.16 23.21-.58 18.56h15.86l.39 1.45h14.5l.29-23.2 1.16-11.6 2.9-4.65.87-3.48 14.79-.29 1.16 23.21-.58 18.56h15.85l.4 1.45h14.5l.29-23.2 1.16-11.6 2.9-4.65.87-3.48 14.79-.29 1.16 23.21-.58 18.56h15.85l.4 1.45h14.5l.29-23.2 1.16-11.6 2.9-4.65.87-3.48 14.79-.29 1.16 23.21-.58 18.56h19.14l4.06-1.16-.29-3.48-9.28-2.9-1.45-10.44.87-20.31zm-263.07 29.59.87-20.31 5.51-9.28-.9 7.56 2.32 31.33-1.74 2.61-4.64-1.45zm51.34 0 .87-20.31 5.51-9.28-.9 7.56 2.32 31.33-1.74 2.61-4.64-1.45zm51.33 0 .87-20.31 5.52-9.28-.9 7.56 2.32 31.33-1.73 2.61-4.65-1.45zm51.34 0 .87-20.31 5.51-9.28-.9 7.56 2.32 31.33-1.74 2.61-4.65-1.45zm51.34 0 .87-20.31 5.51-9.28-.9 7.56 2.32 31.33-1.7 2.61-4.65-1.45z"/></g></svg>