<svg height="409.49" viewBox="0 0 3234.23 409.49" width="3234.23" xmlns="http://www.w3.org/2000/svg"><g fill="#594e41"><path d="m1616.63 0v16.83h-3.94v-3.9h1.14v-6.1h-4.96v6.1h1.27v3.9h-3.24v38.52h9.73v354.14h10.7v-409.49z"/><path d="m9.73 0v16.83h-3.94v-3.9h1.15v-6.1h-4.96v6.1h1.27v3.9h-3.25v38.52h9.73v354.14h10.71v-409.49z"/><path d="m813.18 0v16.83h-3.94v-3.9h1.15v-6.1h-4.97v6.1h1.28v3.9h-3.25v38.52h9.73v354.14h10.7v-409.49z"/><path d="m3223.53 0v16.83h-3.94v-3.9h1.14v-6.1h-4.96v6.1h1.27v3.9h-3.25v38.52h9.74v354.14h10.7v-409.49z"/><path d="m2420.08 0v16.83h-3.94v-3.9h1.14v-6.1h-4.96v6.1h1.27v3.9h-3.24v38.52h9.73v354.14h10.7v-409.49z"/><g transform="translate(727.19 -295.34)"><path d="m1687.75 303.71a1368.36 1368.36 0 0 1 -401.63 60.39 1367.65 1367.65 0 0 1 -401.63-60.39c.19-.61.29-.92.48-1.54a1366 1366 0 0 0 401.15 60.31 1366.76 1366.76 0 0 0 401.15-60.31c.19.62.28.93.48 1.54z"/><path d="m2491.76 303.71a1368.36 1368.36 0 0 1 -401.63 60.39 1367.65 1367.65 0 0 1 -401.63-60.39c.19-.61.29-.92.48-1.54a1366 1366 0 0 0 401.15 60.31 1366.76 1366.76 0 0 0 401.15-60.31c.19.62.29.93.48 1.54z"/><path d="m883.73 303.71a1368.25 1368.25 0 0 1 -401.62 60.39 1367.65 1367.65 0 0 1 -401.63-60.39c.19-.61.28-.92.47-1.54a1366.16 1366.16 0 0 0 401.16 60.31 1366.81 1366.81 0 0 0 401.15-60.31c.19.62.28.93.47 1.54z"/><path d="m79.72 303.71a1368.31 1368.31 0 0 1 -401.63 60.39 1367.53 1367.53 0 0 1 -401.62-60.39c.18-.61.28-.92.47-1.54a1366.15 1366.15 0 0 0 401.15 60.31 1366.71 1366.71 0 0 0 401.15-60.31c.19.62.29.93.48 1.54z"/></g></g></svg>