<svg height="145.28" viewBox="0 0 2467.78 145.28" width="2467.78" xmlns="http://www.w3.org/2000/svg"><g fill="#594e41"><g transform="translate(811.31 -705.34)"><path d="m890.63 716.19-1.18-.89v-5.3l2.36-4.58h14.78l3.55 3.4v8.57h-1.63l-.59 3.55-2.07.89.59 3.1-1.92.59-.15.74-.88 1.48v1.48l9.16 6.94 1.48 2.07-2.22 3.84.59 2.81 6.65 8.28 1 1 7.1-8.42 1.92 2.51-4.29 6.65.59 1.48-3 5.91h-5l-2.95 5 3.25 13 2.36 8.57-7.24.88.89 20.4-2.22 5.76-3 5-1.78.44-1.92 18 3.55 2.66 4 2.95v2.81l-.89 1h-23.2l-1.77-2.66 2.6-24.1-1.77-.59-4.73-5.76v-16.85l.59-9.75-2.51-1.19-.3-7.83 1-15.22s-1.19-7.83-1-8.28-2.36-15.81-2.36-15.81l1.18-5.91 4.88-8.57 3-1.48 1.33-3.84 1.18-.15 1-1.62.59.29-.15-3.1z"/><path d="m1417.78 839.25h20.37l-.81-2-3.83-2-4.24-5 5.85-12.1v-1l6.06-10.29 12.9-2.82 9.28-4-2 10.28-1.62 27.43h17.55l-.4-3.42-8.07-4.24 4.44-18.56v-14.44l.8-2-1.41-5-1.41-6.86 2.62 2.63.81 4.64 3.23 1.21 52.84 46h5.85l-55.48-49.71-.4-3.63-1-3.43 1.41-1.21-3.83-13.11-2.82-13.31-1.82-6.45.41-2.83 2-1.21-2.22-5.24-4-4 .81-3.22 1.41-2.42-1.21-2-.81-1.62-3.43-3-8.07-1.61-2.21.8-7.27 8.88-2.82 1.41-5.85 4s-7.87 12.71-7.87 13.32-4.23 11.29-4.23 11.29l1.21 4 6 2.22-5.25 19.56 1.42 1-3 9.68.2 6.86 2.42 3.43-4.43 7.06-2 .4-4.67 18.38z"/><path d="m-692.4 826.82c1.08 1.09 13.86 17.54 13.86 17.54l5.84-2.81-2.16-12.78 23.39-13.64 9.74-11.69 3.47 10.39-5.85 22.74-3.68 7.14.21 3.69h20.58v-2.17s-6.5-4.76-5.63-5.41 4.33-6.93 4.33-6.93l5.63-13 1.94-8.67s42.23 13.86 41.36 14.51 2 23.82 2 23.82h2.82l2.81-21.87 25.12 8.45 6.5 8.87 14.94-3.68 3.46-6.71-4.54-2.6 16.45-9.31 2.6 1.73 3-3.68-2.59-4.76-11.26-3.68-2.6-7.8-7.6-11.51-12.74-12.3-20-1.3-14.29 2.17-8.66 9.09-11.48 5.63-5.2 3.25-.21 1.08-4.12 2.17h-2.6l-3.89 2.16-11.7-3-5.41-19.27 1.52-3.9v-7.78l9.74-7.37 2.17-6.92 5-3 .86-5.19.27-5.52-1.08-5.41 3.24-3.25 3.47 2.17 1.3-.87 3-3.9h2l-.22-3.25 1.3-3.24 3.25.65 3.46-6.07s.22-5-.65-5.41-7.58-6.5-7.58-6.5l-7.57-2.6s-5.2 1.95-6.28 2.6-4.55 6.5-4.55 6.5l2.16 3.25v6.49l-1.51 1.09h-3.74l-1.74 2.81-13.42 4.33-9.31 11.7-6.93 17.1-6.93 11.48-2.6 17.11-4.55.21-7.14-1.3-1.09 4.55 1.74 2.38 8.88.22.43 1.3 5.41 2.6s.44.65-.86 1.51-5.63 3-5.63 3l-20.36 15.16-8.88 5.2z"/><path d="m849.8 713.87 1.13 4.22-3.66.56-3.36 4.77v3.65l-6.46 2.53-1.69 2.25-9 13.19-.85 11.8 5.9 8.42 3.93 3.93-2.24 35.95-3.07 18.86 17.13 4.21 2 16.29 2 6.18 7.86-1.69s-.56-3.65-.56-5.05-1.13-15.17-1.13-15.17l6.46.85-1.19 10.05 2 1.69 17.38 1.64 2.24-2.8-1.12-1.41s-11.23-5.05-11.23-6.74a3.24 3.24 0 0 0 -1.13-2.52l22.47-3.94-9-24.43-3.09-30-4.77-21.62-5.33-16.54-2.52-3.09-.28-3.09s-1.13-2.53-2-2.53-1.12-2.8-1.12-2.8l5.05-.85v-1.12l-2.24-1.4v-3.65l2-1.69-11.51-4.49-4.21.84z"/><path d="m680.54 760.08s-1 5.13-2 5.39-8 3.08-8 3.08l-4.88 1.54-4.66 1.28-.26 3.6-2.82.26-2.31 3.33-1.29.26 2.06 6.93-3.85 8.47 1.79 7.71 1.29 3.33 2.82 1.29.51 2.31 16.44 9.5 2.05-4.37 1.28-9.24.77 11 .77 3.34.26 4.1-1.54.26-3.85 12.32-.51-13.35-18.49-10.27-1.8 2.83-5.13-1.54-2.31 16.43-8.22 1-1.28 5.13 1.8 2h-13.32l-.26-8.21-19-9v-5.79l-10.52-5.14 10.26-30.29 6.17-10.53 10.27-9 15.14-8.73 8-.77 7.7 3.59 5.39-2.82 1.29 1.8 6.93-1.29 2.31-2.05 5.91.26 4.36 4.36z"/></g><path d="m912.67 11.75-1.52 8.34-3.03 1.27.25 6.06h-1.52l-2.52 2.79 1.01 5.81-4.81.76 1.52 15.17 10.62 16.95 9.36 9.86 31.86 11.88 8.6 3.29 3.79-6.07 6.57 3.29-8.85 17.19-7.58-2.52 3.79-7.08-37.93-16.95-5.06-.76-11.12-3.54-4.05-5.31-5.06-2.02-5.06 22.25-2.02 2.28-.25 4.3-2.53 3.29 1.01 21.74 5.82 5.06 6.82 2.53v3.29h-21.49l-1.52-8.35-4.8-19.47-2.53-2.78-4.81 3.29-4.8 12.89-.51 9.86 3.29 2.79v3.54h-13.4l-1.26-7.34 2.52-15.17 5.06-15.17-.25-8.6 6.07-9.36-5.57-1.77 5.06-12.64 6.07-11.89 3.29-12.39 13.65-17.7 2.28.76 2.53-3.79 1.77-.51 1.77-3.54-2.28-.5v-7.59l5.82-2.53 13.4 2.28z"/><path d="m389.26 736.87-6.15 7.21-.42 1.06-2.12-.42-2.34 2.54-3.39 1.27h-2.12l-.85 2.12 1.27 1.7-2.75 3-2.34 5.94-3 5.72-2.55 3.82.64 15.69 71.89-4 2.33-4.24-.36-16.6-4.87-9.54-8.91-5.52 1.27-2.12 4.24-2.12s-.84-2.54-1.48-2.75-3.18.63-3.18.63l-3-4.66h-2.33l1.06-4.88-1.49-.21-2.54-1.91-2.77-4.67 1.27-2.75 7.85-4.88 7-3.61 6.36 4.25v4.87l-1.27 2.12 1.27 1.06 3 .64 3.18-.42 1.91-1.06h3.6l3.82 4 12.7 10.85 9.76 12.94 1.27 25.44 1.06 18.24-15.27 3.38-.84 21.82 3.18 1.49-4.85 19.29h-29.08l-.43-2.54 9.76-4.67.21-19.08-3.82-21.61-67.86 3.61-2.78 3.18-4.45 1.7-1.7 8.9 1.28 12.73 1.06 4.66 1.48 2.55 8.27 3.39 1.27 3-.21 3.39h-21.61l.15-3.14-11.88 2.54-8.27-.21-1.06-4.45 2-14.67-.64-3.18.21-10.39s-15.05-5.73-14.84-6.37 7.63-34.78 7.63-34.78l5.94-14.2 18.45-15.06 12.51-2.12 2.55-1.91 3.6 1.27.85-3.6.21-3.82 12.94-7 4 4z" transform="translate(811.31 -705.34)"/><path d="m1328 793.08-48.68-6.3-.77-5.51 2.88-5-5-14.92-2.62-15.71-7.59-8.9-.26-7.59-2.62-5.24-7.33-1.31-3.67 1.31-2.09 3.66-1 8.64-5 2.36-1 2.88-3.66 11.26-3.15 20.95-1 5.23-.47 2.13-7.52-1-4.45-39.6-7.07-6 .26-7.07 1.57-.78 2.36-5.5-.52-5-5-5h-7.07l-5.76 3.93-1.31 9.68 2.62.53-1.31 1.57-3.4 4.19-5.5 3.66-7.59 14.14 1.14 26-12.82-1.65c.22-3.15.68-8.72.68-8.72l-2.14-18.78-4.83-10.19-6.71-1.08.27-7.78h1.61v-5.57l-1.88-1.61-2.68-3.49h-8.58c-1.35 0-5.1 4.29-5.1 4.29l-.81 1.35-.53 5.63 2.95 1.34 1.34 4-3.76 1.88-8 4.29-3 5.37-2.61 23.45-14.29-1.85v-24.31l-10.47-10.46 2.69-5.1-1.61-7.24 1.07-.54.54-5.1-5.1-3.49-7.78-.8-5.9 8 2.14 7 1.35.27.8 3.76.8 1.34-6.43-.27-6.17 4.29-6.71 11.8-.8 4.56-1.35 2.69v8l-4-.51 1.29-3.47-5.9-18.24-9.93-8.85v-2.15l.81-1.88 1.88-7-1.34-6.44-8.32-2.41-8.85 3.22-.81 5.09v3.22l2.42 2.42-.54 2.68-2.15 1.34-5.09 1.07-15.26 10.89-1.93 13.54-53.61-6.93-1.27 12.55 59.79 7.57 1.87 1.33-2.95 7 4.56 2.42v23.87l1.34 11 .8 11.54h3.76l-2.42 18.24.27 4.29 11.8.27-1.87-8.05v-16.39l11 .27.27 20.92h8.32l-1.07-21.73 5.09-1.34-1.87-40.24 3.48-.8 1.08-4.3 1-2.67 14 1.76 2.48 5.21.54 10.19 2.68 26 1.61 1.88-1.34 27.86h9.66l1.87-26.52 2.15-1.07 7.24 27h13.68l.27-2.68s-6.7-2.41-7-4.29-4.56-23.57-4.56-23.57l2.68-4.56-3.21-25.42 3.86-5.9 22.22 2.81 2.09 2.56-3 33 1.61 1.08-2.69 23.57h9.91l2.41-24.11 3.76.54 1.07 23.57h11.81l-3.49-5.1v-18.2l8.58-.53 1.61-27.36s1-2 2.28-4.44l22.64 2.87.92 1.6-2.88 22.26.78 1.57 6.55 1 .79 28.71h9.17v-28.68l6.81-.27 2.09 28.45h16l.26-3.14-7.59-5.23-1.83-19 5-1.57-1.57-17.8 1.31-1.84v-1.6l4.83.61-.9 4.07 9.16 1.57.53-2.36.22-2.14 4.75.6.26 2.59-2.62 19.11 1.58 1-.79 19-2.62 3.41.26 3.66h11.79v-25.46l3.66-1 .26 26.36h10.74l1-3.4-4.46-4.19-.26-17.72 10.21-1.83 7.86-2.62-2-14.4 45.7 5.79zm-85-11 1.23-5.53.59 5.77z" transform="translate(811.31 -705.34)"/><path d="m1076.89 83.52v-23.51h-54.66v23.51h-5.94v-23.51h-54.66v23.51h-11.88v49.26h146.15v-49.26z"/><g transform="translate(811.31 -705.34)"><path d="m-811.31 840.93h106.59l-10.48-21.36-22.72-29.14-17.47-18.13-14-3.23a32.66 32.66 0 0 0 -12.24 12.3c-4.66 8.41-15.72 27.19-17.47 29.13s-12.21 30.43-12.21 30.43z"/><path d="m-382.66 840.93h299.45l-54-24.09-40.5-31.71-60.13-34.24s-38 19-47.87 29.17-19.63 25.36-24.54 26.63-14.75 12.68-25.75 13.95-46.66 20.29-46.66 20.29z"/><path d="m1483.63 838.52h172.84l-7-12.92s-52.64-7.94-56.61-14.9-31.75-36.7-31.75-36.7-8.94-11.92-17.88-3-14.9 18.88-18.87 24.83-29.8 22.85-29.8 22.85z"/></g></g></svg>