<svg id="Layer_1" data-name="Layer 1" xmlns="http://www.w3.org/2000/svg" width="16.43mm" height="46.83mm" viewBox="0 0 46.58 132.75"><defs><style>.cls-1{fill:#231f20;}</style></defs><rect class="cls-1" x="21.4" y="37.64" width="3.88" height="11.43" rx="1.94"/><path class="cls-1" d="M318.12,186.24h0a23.29,23.29,0,0,0-23.29,23.29v35a23.29,23.29,0,0,0,23.29,23.29h0a23.29,23.29,0,0,0,23.29-23.29v-35A23.29,23.29,0,0,0,318.12,186.24Zm19.59,58.3a19.6,19.6,0,0,1-19.59,19.6h0a19.61,19.61,0,0,1-19.6-19.6v-35a19.6,19.6,0,0,1,19.6-19.59h0a19.59,19.59,0,0,1,19.59,19.59Z" transform="translate(-294.83 -160.23)"/><path class="cls-1" d="M332.19,173.38l-12-12.52a2,2,0,0,0-2.57-.32,3,3,0,0,0-.35.27l-12.52,12a2.05,2.05,0,0,0-.07,2.9h0a2.05,2.05,0,0,0,2.9.06l11.07-10.6,10.58,11.06a2,2,0,0,0,2.89.06h0A2.05,2.05,0,0,0,332.19,173.38Z" transform="translate(-294.83 -160.23)"/><path class="cls-1" d="M304.68,279.82l12,12.52a2,2,0,0,0,2.57.32,3,3,0,0,0,.35-.27l12.52-12a2.05,2.05,0,0,0,.07-2.9h0a2.05,2.05,0,0,0-2.9-.06L318.22,288,307.64,277a2,2,0,0,0-2.89-.06h0A2.05,2.05,0,0,0,304.68,279.82Z" transform="translate(-294.83 -160.23)"/></svg>