<svg height="186.65" viewBox="0 0 52.8 186.65" width="52.8" xmlns="http://www.w3.org/2000/svg"><path d="m182.9 508.63c-.18.12-.33-1.72-.33-4.26a36.78 36.78 0 0 0 -.77-7.16c-.13-.88-.37-2.37-.52-3.3-.2-1.36-.32-1.76-.63-2a48.65 48.65 0 0 0 -5.35-3.38 52.34 52.34 0 0 1 -8.54-5.23 8 8 0 0 1 -2-3.63 37.08 37.08 0 0 1 .85-4.72 29.13 29.13 0 0 0 .51-3.89c.1-1.39.34-3.27.51-4.15.72-3.72.76-4.13.44-5-.63-1.62-3.37-3.6-5.91-4.26-2.9-.75-4.39-.48-7.62 1.42a4 4 0 0 0 -2 2.05 14.2 14.2 0 0 0 -1.54 3.77 10.09 10.09 0 0 0 0 4.6 23 23 0 0 1 .63 2.54c.2 1 .46 2.2.56 2.63a16 16 0 0 1 .64 4.26 8.66 8.66 0 0 1 -.15 1.86c-.09.22-.29.83-.46 1.39-.29.92-.39 1.05-1.51 1.83-2.47 1.74-4.84 3-5.82 3.18a21.44 21.44 0 0 0 -5.9 1.42 11.28 11.28 0 0 0 -1.77 1.61c-1.48 1.61-1.59 1.91-2.42 7.21-.13.83-.47 2.47-.76 3.64s-.66 2.76-.83 3.56a19.82 19.82 0 0 1 -.61 2.2 20.09 20.09 0 0 0 -1.1 4.14 13 13 0 0 0 -.1 5.22c.12.49.36 1.49.53 2.23.49 2.3.78 3.52 1 4.57.54 2.12 2.16 7.21 2.89 9.14.19.46.51 1.3.71 1.85.36.91.37 1.2.29 3.21-.12 2.95-.41 8.23-.71 13.22s-.32 6.58 0 6.81a11.28 11.28 0 0 0 1.48.62c2 .73 2 .76 2 2.1 0 .63.12 3 .25 5.37.32 5.43.56 10.32.76 15.31.16 3.51.22 4.17.63 5.59a10.2 10.2 0 0 1 .42 4c0 1.28-.1 3.2-.22 4.23-.23 2.28-.37 29-.15 31 .07.75.24 2 .36 2.76l.2 1.39-2.61 3.89c-2.54 3.79-2.62 3.91-3.53 4.34-.51.23-1.17.55-1.48.71a1.59 1.59 0 0 0 .1 2.89c.83.42 1.21.49 3.46.7a14.68 14.68 0 0 0 4.36-.19c1.34-.19 2.48-.37 2.56-.42a5.55 5.55 0 0 0 .49-1.31 7.51 7.51 0 0 1 .49-1.35 8 8 0 0 1 1.54-.48 28.27 28.27 0 0 0 4.52-1.37c.15-.13.2-1 .2-3.23v-3.06l.7-1.05.68-1-.17-2.35c-.46-6.13-.55-8.64-.38-10.74.11-1.15.31-3.4.44-5s.38-4.22.51-5.84a79.42 79.42 0 0 0 .22-8.13 52.35 52.35 0 0 1 .26-7.53c.15-1.3.37-3.21.45-4.23.34-3.38.65-6.57.85-8.63.32-3.44.47-4.52.66-4.71s.32-.13.61.92c.15.5.37 1.25.49 1.67s.35 1.14.49 1.61.52 1.73.86 2.79.8 2.93 1 4.15.5 2.51.59 2.88.27 1.32.42 2.11.39 1.93.53 2.54a43.16 43.16 0 0 1 .83 7.45c.44 7.55.49 8 1.35 12.1.13.64.34 1.56.46 2s.22 3.86.28 9.74l.11 8.88 1.59.78c1.13.54 1.64.88 1.76 1.18a39.91 39.91 0 0 1 .23 4.56c.09 4.26.12 4.45.88 5.91.29.54.41.6 1.73.88 1.83.38 5.21.42 5.89.08.88-.47 1-.91 1-3.1a18.54 18.54 0 0 0 -1.1-6.78 15.23 15.23 0 0 1 -.59-1.8 3.18 3.18 0 0 1 1-1 3 3 0 0 0 1.13-1.15c.1-.41 0-2.61-.44-8.48-.08-1.17-.2-5.32-.27-9.23s-.19-7.8-.27-8.63-.27-2.47-.41-3.64-.37-3.12-.54-4.32c-.35-2.7-.35-4.06 0-10.49.15-2.79.39-7.09.52-9.56.32-6 .56-10 .78-13.12.2-2.83.14-2.68 1.63-3.42 1-.49 1.91-1.52 1.91-2.13a6.47 6.47 0 0 0 -.24-1.24c-.69-2.35-.95-4.47-1.2-10-.14-3.08-.37-7.23-.54-9.24l-.27-3.66.76-1.5a75.52 75.52 0 0 0 3-7l1-2.62.16-2.54c.08-1.41.17-2.76.17-3 .12-1 .55-7.49.45-7.44z" fill="#423a32" transform="translate(-130.11 -457.3)"/></svg>