<svg height="179.59" viewBox="0 0 52.97 179.59" width="52.97" xmlns="http://www.w3.org/2000/svg"><path d="m158.69 459.19a8.71 8.71 0 0 0 -3.56 2.27c-1.65 1.67-2.39 3.36-2.78 6.4a20.5 20.5 0 0 0 -.1 6.88c.54 3.57.61 3.76 1.9 5.89a22.84 22.84 0 0 1 2.38 4.5c0 .36-.12.44-3 2.52a16.24 16.24 0 0 1 -3.11 1.9c-5.39 1.33-6.78 2.08-7.74 4.19a28 28 0 0 0 -2.28 9.71 9.91 9.91 0 0 1 -1.14 4.52 18.36 18.36 0 0 0 -1.31 6.17c0 .74-.15 3.86-.22 6.92l-.13 5.57.46.49.46.51v2.37a50.49 50.49 0 0 1 -.57 7.37c-.15.95-.36 2.57-.49 3.6s-.32 2.44-.4 3.11a19.82 19.82 0 0 0 -.18 2.18 10.72 10.72 0 0 1 -.24 2 17.24 17.24 0 0 0 -.74 5 19.55 19.55 0 0 0 1.62 7.68c1.31 3 1.39 3.45 1.49 7.17.07 2.81.13 3.43.33 3.55s.72.26 1.31.46l1.55.5c.26.1 1.36.46 2.42.81a13.26 13.26 0 0 1 2.21.85c.33.24.45.83 1.76 8.25.13.75.26 3.12.31 5.56.11 4.77.46 10.35.82 13.18.31 2.36.57 3.8 1.65 8.76.11.54.33 1.55.47 2.26a11.77 11.77 0 0 0 .35 1.42c0 .07.14.84.24 1.69a14.42 14.42 0 0 1 -.14 4.15c-.18 1.43-.41 3.59-.53 4.8a15.27 15.27 0 0 1 -.33 2.47c-.08.15-1.39 1.49-2.91 3-2.85 2.73-3.39 3.35-4.26 4.91-.72 1.27-.68 1.5.2 1.37.38 0 1.69-.16 2.9-.24a50.59 50.59 0 0 0 6.24-.86 5.69 5.69 0 0 0 2.37-1.22c1.16-.84 1.59-1 2.08-1 .7 0 1.31.49 1.14.93a22.62 22.62 0 0 1 -.95 2.21 1.92 1.92 0 0 0 -.24.77c0 .44.85 1.05 2.09 1.47l1 .36 2-.52 2.57-.64a18.64 18.64 0 0 0 2.95-1c.49-.2 1.08-.41 1.31-.49a22.12 22.12 0 0 0 2.08-.85 1.83 1.83 0 0 0 .62-.93 11.86 11.86 0 0 0 .64-2.71c-.07-.18-.53-5.36-.72-8.36a25 25 0 0 1 -.07-2.87c.12-1.21.71-4.27 1.29-6.79.14-.54.43-1.86.68-2.94s.54-2.41.65-2.95c1-4.29 1.08-5 1-6.88-.14-2.5-.86-8.56-1.24-10.47-.1-.46-.23-1.49-.33-2.29-.23-2.25-.6-4.82-.82-5.73a9.21 9.21 0 0 1 0-4.1c.16-.45.42-1.34.62-2s.42-1.21.62-1.26 1.18-.22 2.24-.36l3.6-.48c3.92-.54 3.74-.46 3.62-1.46-.15-1.17-.6-4.69-.83-6.56-.13-1-.27-2.09-.28-2.45l-.05-.66 1.47-.75a14.57 14.57 0 0 0 2.13-1.33c.62-.55.65-.62.64-1.5a22.4 22.4 0 0 0 -1-4.85c-.95-3.68-1.58-7.55-1.42-8.68 0-.4.21-1.44.33-2.29.57-4 .75-5.1 1.06-6.63.41-2 .77-4.14 1-6a4 4 0 0 1 .84-2.36c.78-1.11.8-.7-.17-5.29-.7-3.37-.75-3.74-1-9a43.29 43.29 0 0 0 -2.79-14.48c-.24-.73-.6-1.76-.78-2.3a17.56 17.56 0 0 0 -2-4.47 31 31 0 0 0 -6.74-3.76 18.22 18.22 0 0 0 -2.2-.44 5.7 5.7 0 0 1 -4.11-2c-1.24-1.35-1.6-2.39-1.73-5.06l-.1-2 .72-.75a13.55 13.55 0 0 1 1.61-1.41 6.15 6.15 0 0 0 2-2.11 34.35 34.35 0 0 0 -.22-4c-.31-3.67-.32-3.69-1-5.11-1.51-3.28-4.08-6-6.56-7a7.25 7.25 0 0 0 -4.53-.01zm1.31 123.81c.12.59.49 2.1.85 3.36a36.33 36.33 0 0 1 1.85 10.31c.05 1.16.2 2.93.33 3.93.41 3.29.46 4.79.16 6.14-.34 1.52-.7 3.2-1 4.55a2.86 2.86 0 0 1 -.75 1.6c-.89.9-1.31.7-1.31-.59a14.11 14.11 0 0 0 -1.23-4.07l-.59-1.53.25-3.47c.14-1.9.34-4.32.44-5.38a52.46 52.46 0 0 0 .06-5.32c-.05-1.87-.11-4-.13-4.7a61.39 61.39 0 0 1 .33-6.47l.1-.41.19.5a7.46 7.46 0 0 1 .45 1.55z" fill="#423a32" transform="translate(-135.9 -458.77)"/></svg>