<svg height="184.76" viewBox="0 0 83.41 184.76" width="83.41" xmlns="http://www.w3.org/2000/svg"><path d="m283 518.18a20.93 20.93 0 0 0 -4.22 1.45c-1.78.88-2.08 1.47-3 5.74-.26 1.16-.53 2.66-.61 3.32a20.79 20.79 0 0 1 -.47 2.35 4.34 4.34 0 0 0 .23 3.39c.49 1.21.65.77-1.42 4a17.73 17.73 0 0 1 -3.62 4.23 14.79 14.79 0 0 0 -3 3.36c-.38.62-.94 1.48-1.24 1.89a40.38 40.38 0 0 0 -3.77 6.19 15.33 15.33 0 0 0 -1.89 5.25 14.82 14.82 0 0 1 -.45 2.08 1.92 1.92 0 0 1 -1.23 1.52c-.89.51-.92.57-1.9 2.48a18.12 18.12 0 0 1 -1.51 2.57 37.83 37.83 0 0 0 -4.87 9.2c-.47 1.51-3.22 9-6.43 17.39a27.45 27.45 0 0 0 -1.7 5.34c-.24 1.48-.24 1.5.11 2l.33.46-.33 1.16a10.19 10.19 0 0 1 -1.35 2.74c-.56.88-1.39 2.24-1.86 3s-1.21 1.91-1.66 2.5a25.81 25.81 0 0 0 -1.6 2.41c-.76 1.27-.79 1.36-.61 1.84a1.4 1.4 0 0 0 .27.52c.05 0 .73-.66 1.52-1.44a19.26 19.26 0 0 1 1.52-1.44 4.5 4.5 0 0 1 -.42 1.24 34.51 34.51 0 0 0 -1.5 4c-.18.67-.16.77.05 1a1.66 1.66 0 0 1 .26 1c0 .63.06.71.42.81s.5 0 2.5-2.76l2.08-2.88.08 3.36c.07 3.1.09 3.37.36 3.57s1 .29 1 .11a77.22 77.22 0 0 1 1.22-7.66c.19-.44.38-.95.47-1.15.14-.36.16-.36.56.38a7.2 7.2 0 0 0 2.33 2.36 2 2 0 0 0 .64.24 6.8 6.8 0 0 0 -.24-1.25 39.84 39.84 0 0 1 -.9-7v-1.45l4-7c3.95-7 4-7.07 4.82-9.62l.87-2.58v3.63a37.64 37.64 0 0 1 -1 11.05c-.38 1.9-.8 4.79-1 6.4a16.06 16.06 0 0 0 -.06 4.84l.23 1.92 1 1a4.76 4.76 0 0 1 1 1.23c0 .12.18 1.48.39 3 .62 4.38.59 4.85-1.07 14.71-2 11.68-3.42 21.76-5.24 36.16-.85 6.73-.91 7.49-.92 10.44 0 3.11 0 3.2-.52 5l-.51 1.89v8.23l.71.24c1 .3 4.95 1.39 5.87 1.62a11.42 11.42 0 0 1 2.06.83 15.74 15.74 0 0 0 6 1.8c3.6.62 4.93.65 7.26.21 1.56-.29 1.73-.36 2.23-.86l.54-.56-.36-1.42a7.5 7.5 0 0 0 -.49-1.53 30.21 30.21 0 0 0 -3.25-2.47 27.44 27.44 0 0 1 -2.72-2.22 12 12 0 0 0 -1.66-1.45.65.65 0 0 1 -.37-.49c0-.22-.21-.89-.36-1.46-.38-1.47-.24-2.15 1-5a13.33 13.33 0 0 0 1.46-5.12 35.86 35.86 0 0 1 1.77-7.49c.42-1.37 1.25-4.7 1.86-7.41 1.74-7.71 2.54-11.06 2.66-10.93a38.45 38.45 0 0 1 1.59 5.47c.39 1.91 2.16 8.37 2.33 8.49.33.24.95 2.25 2.51 8.24 1.24 4.72 1.71 6.76 2.4 10.59.31 1.66.58 3 .59 3.06s1.33-.31 2.94-.71 3-.76 3.11-.76c.38 0 .87 1.53 1.7 5.35.91 4.24 1.28 5.53 1.74 5.93.65.59 2.28.22 5.43-1.24.95-.44 2.77-1.15 4-1.57 3-1 6.91-2.59 8.62-3.4 1.45-.7 3.22-2.17 6.46-5.36l1.48-1.44-.57-.59c-1.84-1.9-2.32-1.92-5-.3l-1.13.7-1.55-.15a66.42 66.42 0 0 1 -7.5-1.2 2.93 2.93 0 0 1 -2.2-1.66c-.12-.21-.63-1.82-1.13-3.56-1.44-4.9-4.14-14.43-4.75-16.62l-.54-2v-4a37.35 37.35 0 0 0 -.23-5.43c-.32-1.89-2.29-10.56-2.66-11.72-1.32-4-1.32-4-1.64-6.75-.16-1.52-.38-3.84-.47-5.12a12.89 12.89 0 0 0 -.92-4.83 17.6 17.6 0 0 1 -.66-2.1 6.69 6.69 0 0 1 -.29-2.73c0-.72 0-2.57-.14-4.11s-.18-2.83-.16-2.86.59 1.08 1.25 2.47a18.79 18.79 0 0 0 1.33 2.51c.08 0 1.2-.24 2.51-.56 1.73-.41 2.47-.52 2.65-.41a4.19 4.19 0 0 1 .64 1.13 27.68 27.68 0 0 0 1.39 2.71c.54 1 1.21 2.24 1.48 2.83l.5 1.1h1.9c3.48 0 4.89-.45 5.83-1.84a6.9 6.9 0 0 0 .81-1.75c.16-.66.33-1 .45-1a2.68 2.68 0 0 0 1.62-.53.92.92 0 0 0 .11-1.41 12 12 0 0 0 -2-.94 7.48 7.48 0 0 1 -2.34-1.25c-.36-.34-1.63-1.33-2.83-2.23-2-1.46-2.18-1.68-2.33-2.24a13.79 13.79 0 0 0 -1.9-3.6c-3.53-5.08-3.63-5.26-5-8.36-1.5-3.37-1.77-4.25-1.92-6.35-.09-1-.18-2-.23-2.27s-.15-1.49-.23-2.73-.27-3.08-.4-4.08a120.73 120.73 0 0 1 -.08-15.43c.36-2.33.2-4.27-.79-8.92a39.7 39.7 0 0 0 -1.45-5.6c-.32-.83-.7-1.89-.82-2.36a37.51 37.51 0 0 1 -.84-5.61c0-.88.27-1.12 1.81-1.65a3.23 3.23 0 0 0 1.74-1.09c1.14-1.24 1.42-2 2-5.36.09-.51.41-1.71.69-2.64a18.07 18.07 0 0 0 .74-3.35 5.91 5.91 0 0 1 .54-2.42c.88-1.65.88-1.63.22-4.05a28.59 28.59 0 0 0 -1-2.95 6.09 6.09 0 0 0 -4.64-3.16 19.79 19.79 0 0 0 -5.12-.24z" fill="#423a32" transform="translate(-234.84 -518.1)"/></svg>