<svg height="340.53" viewBox="0 0 1423.16 340.53" width="1423.16" xmlns="http://www.w3.org/2000/svg" xmlns:xlink="http://www.w3.org/1999/xlink"><linearGradient id="a" gradientTransform="matrix(1 0 0 -1 -78.94 375.43)" gradientUnits="userSpaceOnUse" x1="1613.24" x2="1613.24" y1="148.47" y2="247.98"><stop offset="0" stop-color="#3a322b"/><stop offset=".05" stop-color="#5c5045"/><stop offset=".5" stop-color="#4a4137"/><stop offset="1" stop-color="#927e6c"/></linearGradient><linearGradient id="b" gradientTransform="matrix(1 0 0 -1 -190.92 387.77)" gradientUnits="userSpaceOnUse" x1="500.95" x2="500.95" y1="249.38" y2="314.21"><stop offset="0" stop-color="#3a322b"/><stop offset=".09" stop-color="#4a4137"/><stop offset="1" stop-color="#927e6c"/></linearGradient><linearGradient id="c" gradientTransform="matrix(1 0 0 -1 -190.92 387.77)" gradientUnits="userSpaceOnUse" x1="627.47" x2="664.9" y1="321.94" y2="321.94"><stop offset="0" stop-color="#927e6c"/><stop offset=".08" stop-color="#5d5146"/><stop offset=".29" stop-color="#7c6b5c"/><stop offset=".71" stop-color="#4a4137"/><stop offset="1" stop-color="#927e6c"/></linearGradient><linearGradient id="d" gradientTransform="matrix(1 0 0 -1 -190.92 387.77)" gradientUnits="userSpaceOnUse" x1="633.06" x2="671.51" y1="294.14" y2="294.14"><stop offset=".01" stop-color="#5c5045"/><stop offset=".96" stop-color="#4a4137"/><stop offset="1" stop-color="#3a322b"/></linearGradient><linearGradient id="e" gradientTransform="matrix(1 0 0 -1 -78.95 375.43)" gradientUnits="userSpaceOnUse" x1="1252.58" x2="1252.58" y1="35.04" y2="135.79"><stop offset="0" stop-color="#52483d"/><stop offset="1" stop-color="#3a322b"/></linearGradient><linearGradient id="f" gradientTransform="matrix(1 0 0 -1 -190.92 387.77)" x1="1584.15" x2="1584.15" xlink:href="#e" y1="106.67" y2="127.4"/><linearGradient id="g" gradientTransform="matrix(1 0 0 -1 -190.92 387.77)" x1="485.73" x2="485.73" xlink:href="#e" y1="59.54" y2="138.83"/><linearGradient id="h" gradientTransform="matrix(1 0 0 -1 -78.95 375.43)" gradientUnits="userSpaceOnUse" x1="964.54" x2="964.54" y1="129.72" y2="262.97"><stop offset="0" stop-color="#3a322b"/><stop offset=".01" stop-color="#5c5045"/><stop offset=".95" stop-color="#4a4137"/><stop offset=".98" stop-color="#3a322b"/></linearGradient><linearGradient id="i" gradientTransform="matrix(1 0 0 -1 -190.92 387.77)" x1="1545.69" x2="1545.69" xlink:href="#a" y1="309.28" y2="343.72"/><linearGradient id="j" gradientTransform="matrix(1 0 0 -1 -190.92 387.77)" x1="1316.9" x2="1316.9" xlink:href="#a" y1="205.03" y2="313.25"/><linearGradient id="k" gradientTransform="matrix(1 0 0 -1 -190.92 387.77)" gradientUnits="userSpaceOnUse" x1="1034.05" x2="1034.05" y1="183.9" y2="329.68"><stop offset="0" stop-color="#52483d"/><stop offset=".8" stop-color="#63564a"/><stop offset="1" stop-color="#927e6c"/></linearGradient><linearGradient id="l" x1="870.86" x2="870.86" xlink:href="#b" y1="319.36" y2="369.02"/><linearGradient id="m" x1="708.45" x2="708.45" xlink:href="#b" y1="319.36" y2="369.02"/><linearGradient id="n" gradientTransform="matrix(1 0 0 -1 -190.92 387.77)" gradientUnits="userSpaceOnUse" x1="1204.01" x2="1204.01" y1="199.25" y2="319.36"><stop offset="0" stop-color="#3a322b"/><stop offset=".06" stop-color="#78685a"/><stop offset=".5" stop-color="#6e6051"/><stop offset="1" stop-color="#d2c8bd"/></linearGradient><linearGradient id="o" x1="1120.6" x2="1120.6" xlink:href="#n" y1="199.25" y2="319.36"/><linearGradient id="p" x1="1294.33" x2="1294.33" xlink:href="#n" y1="199.25" y2="319.36"/><linearGradient id="q" x1="1319.71" x2="1319.71" xlink:href="#n" y1="199.25" y2="319.36"/><linearGradient id="r" x1="1417.17" x2="1417.17" xlink:href="#n" y1="199.25" y2="319.36"/><linearGradient id="s" gradientTransform="matrix(1 0 0 -1 -190.92 387.77)" gradientUnits="userSpaceOnUse" x1="1519.32" x2="1519.32" y1="71.88" y2="188.31"><stop offset="0" stop-color="#665a4c"/><stop offset=".09" stop-color="#52483d"/><stop offset=".8" stop-color="#63564a"/><stop offset="1" stop-color="#927e6c"/></linearGradient><linearGradient id="t" gradientTransform="matrix(1 0 0 -1 -190.92 387.77)" gradientUnits="userSpaceOnUse" x1="1478.22" x2="1478.22" y1="82.67" y2="143.3"><stop offset="0" stop-color="#63564a"/><stop offset=".43" stop-color="#53483d"/><stop offset="1" stop-color="#927e6c"/></linearGradient><linearGradient id="u" x1="1562.32" x2="1562.32" xlink:href="#t" y1="75.69" y2="143.3"/><linearGradient id="v" x1="1560.17" x2="1560.17" xlink:href="#t" y1="152.69" y2="182.58"/><linearGradient id="w" x1="1135.08" x2="1200.35" xlink:href="#c" y1="346.25" y2="346.25"/><linearGradient id="x" gradientTransform="matrix(1 0 0 -1 0 434)" gradientUnits="userSpaceOnUse" x1="1135.07" x2="1200.35" y1="377.78" y2="377.78"><stop offset="0" stop-color="#927e6c"/><stop offset=".71" stop-color="#4a4137"/><stop offset="1" stop-color="#927e6c"/></linearGradient><linearGradient id="y" x1="1206.58" x2="1271.85" xlink:href="#c" y1="346.25" y2="346.25"/><linearGradient id="z" x1="1206.58" x2="1271.85" xlink:href="#x" y1="377.78" y2="377.78"/><linearGradient id="A" x1="1323.19" x2="1388.45" xlink:href="#x" y1="377.78" y2="377.78"/><linearGradient id="B" x1="1323.18" x2="1388.46" xlink:href="#c" y1="346.25" y2="346.25"/><linearGradient id="C" gradientTransform="matrix(1 0 0 -1 -190.92 387.77)" x1="1242.67" x2="1291.41" xlink:href="#a" y1="310.52" y2="310.52"/><linearGradient id="D" x1="874.16" x2="874.16" xlink:href="#h" y1="129.74" y2="260.79"/><linearGradient id="E" x1="490.54" x2="527.96" xlink:href="#c" y1="321.94" y2="321.94"/><linearGradient id="F" x1="489.08" x2="529.42" xlink:href="#c" y1="330.44" y2="330.44"/><linearGradient id="G" x1="626.02" x2="666.35" xlink:href="#c" y1="330.44" y2="330.44"/><linearGradient id="H" gradientTransform="matrix(1 0 0 -1 -78.95 375.43)" gradientUnits="userSpaceOnUse" x1="586.92" x2="586.92" y1="80.26" y2="260.79"><stop offset=".01" stop-color="#5c5045"/><stop offset=".95" stop-color="#4a4137"/><stop offset=".98" stop-color="#3a322b"/></linearGradient><linearGradient id="I" x1="1454" x2="1503.78" xlink:href="#c" y1="325.53" y2="325.53"/><linearGradient id="J" x1="1454" x2="1503.78" xlink:href="#c" y1="359.74" y2="359.74"/><linearGradient id="K" gradientTransform="matrix(1 0 0 -1 0 434)" gradientUnits="userSpaceOnUse" x1="1167.71" x2="1167.71" y1="373.14" y2="382.42"><stop offset=".32" stop-color="#927e6c" stop-opacity="0"/><stop offset="1" stop-color="#d2c8bd"/></linearGradient><linearGradient id="L" x1="1239.22" x2="1239.22" xlink:href="#K" y1="373.14" y2="382.42"/><linearGradient id="M" x1="1355.82" x2="1355.82" xlink:href="#K" y1="373.14" y2="382.42"/><linearGradient id="N" gradientTransform="matrix(1 0 0 -1 -190.92 387.77)" gradientUnits="userSpaceOnUse" x1="765.37" x2="765.37" y1="359.14" y2="375.26"><stop offset="0" stop-color="#4a4137"/><stop offset="1" stop-color="#927e6c"/></linearGradient><linearGradient id="O" gradientTransform="matrix(1 0 0 -1 -269.86 329.2)" gradientUnits="userSpaceOnUse" x1="1285.27" x2="1350.79" y1="314.74" y2="314.74"><stop offset="0" stop-color="#b09882"/><stop offset=".08" stop-color="#a38f7a"/><stop offset=".29" stop-color="#a38d79"/><stop offset=".71" stop-color="#827261"/><stop offset="1" stop-color="#b59c86"/></linearGradient><linearGradient id="P" x1="1402" x2="1467.52" xlink:href="#O" y1="314.74" y2="314.74"/><linearGradient id="Q" x1="1213.89" x2="1279.41" xlink:href="#O" y1="314.74" y2="314.74"/><path d="m1539 136.73v80.94a9.28 9.28 0 0 1 -9.28 9.29h-.18v-99.51h.18a9.27 9.27 0 0 1 9.28 9.28z" fill="url(#a)" transform="translate(-190.92 -46.23)"/><path d="m177.91 73.56h264.25v64.83h-264.25z" fill="url(#b)"/><path d="m436.55 58.09h37.43v15.47h-37.43z" fill="url(#c)"/><path d="m442.14 67.8h38.45v51.64h-38.45z" fill="url(#d)"/><path d="m1566.13 241.27h-170.91a32.22 32.22 0 0 0 -20.22 0h-154a32.22 32.22 0 0 0 -20.22 0h-241.84v4.42h-173.55l42.51 46.21h-8.17v18.63h-7.3v2.65h-5.25v1.75h-24v-6.58h-2.07v19h2.07v-6.55h24v1.78h5.25v2.37h7.3v15.48h663.12v-45.26h21.87v-45.06h61.41zm-380.2 50.63h-76.73v-41.79h78.06a32.07 32.07 0 0 0 -1.26 41.79zm174.17 0h-19.8v-31h-34.25v31h-70.11a32.11 32.11 0 0 0 -1.29-41.79h126.75a32.1 32.1 0 0 0 -1.3 41.79zm63.2 0h-13.18a32.1 32.1 0 0 0 -1.29-41.79h14.47z" fill="url(#e)" transform="translate(-190.92 -46.23)"/><path d="m1421.11 262.14v6.55h-7.61v-1.74h-15.56v-2.33h-6v-4.25h-28.65v19.85h28.65v-1.28h6v-2.65h15.56v-1.75h7.61v6.56h2.05v-6.56-5.85-6.55z" fill="url(#f)"/><path d="m587.56 262.14v6.55h-14.28v-1.74h-15.55v-2.33h-6.42v-4.27-11.42h-466.62v11.42h-44.54v3.94h-8.26v2.66h-15.56v1.74h-14.27v-6.55h-2.06v6.55 5.85 6.56h2.06v-6.56h14.27v1.75h15.56v2.33h8.26v19.93h370.95v29.67h79.95v-29.67h60.26v-19.61h6.42v-2.65h15.55v-1.75h14.28v6.56h2.06v-6.56-5.85-6.55z" fill="url(#g)"/><path d="m812.14 112.46v133.25h146.91v-133.25zm66.61 48.1a9.46 9.46 0 0 1 -9.46 9.46h-30.64a9.47 9.47 0 0 1 -9.46-9.46v-33.91a9.47 9.47 0 0 1 9.46-9.46h30.64a9.46 9.46 0 0 1 9.46 9.46zm63.82 0a9.47 9.47 0 0 1 -9.46 9.46h-30.65a9.47 9.47 0 0 1 -9.46-9.46v-33.91a9.47 9.47 0 0 1 9.46-9.46h30.65a9.47 9.47 0 0 1 9.46 9.46z" fill="url(#h)" transform="translate(-190.92 -46.23)"/><path d="m554.43 70.99h32.94v128.47h-32.94z" fill="#3a322b"/><path d="m1339.49 44.04h30.57v34.44h-30.57z" fill="url(#i)"/><path d="m912.48 68.41h427.01v135.45h-427.01z" fill="url(#j)"/><path d="m767.99 58.09h150.29v145.78h-150.29z" fill="url(#k)"/><path d="m587.38 18.74h185.13v49.67h-185.13z" fill="url(#l)"/><path d="m475.43 18.74h84.21v49.67h-84.21z" fill="url(#m)"/><path d="m767.99 188.51h607.22v6.53h-607.22z" fill="#927e6c"/><path d="m916.08 117h2.55v74.77h-2.55z" fill="#927e6c"/><path d="m1069.05 117h2.55v74.77h-2.55z" fill="#927e6c"/><path d="m1010.38 68.41h5.44v120.1h-5.44z" fill="url(#n)"/><path d="m926.96 68.41h5.44v120.1h-5.44z" fill="url(#o)"/><path d="m1100.7 68.41h5.44v120.1h-5.44z" fill="url(#p)"/><path d="m1126.07 68.41h5.44v120.1h-5.44z" fill="url(#q)"/><path d="m1223.53 68.41h5.44v120.1h-5.44z" fill="url(#r)"/><path d="m1219.23 117h2.55v74.77h-2.55z" fill="#927e6c"/><path d="m1371.41 117h2.55v74.77h-2.55z" fill="#927e6c"/><circle cx="908.73" cy="294.11" fill="#53493e" r="45.18"/><circle cx="805.31" cy="294.11" fill="#53493e" r="45.18"/><circle cx="1009.43" cy="294.11" fill="#53493e" r="45.18"/><circle cx="1112.85" cy="294.11" fill="#53493e" r="45.18"/><circle cx="1217.91" cy="294.11" fill="#53493e" r="45.18"/><path d="m1289.21 199.46h78.38v116.43h-78.38z" fill="url(#s)"/><path d="m1285.4 244.46h3.81v60.63h-3.81z" fill="url(#t)"/><path d="m1367.59 244.46h7.62v67.61h-7.62z" fill="url(#u)"/><path d="m1367.59 205.19h3.32v29.88h-3.32z" fill="url(#v)"/><path d="m944.16 14.62h65.28v53.79h-65.28z" fill="url(#w)"/><path d="m1144.35 51.58h46.72a9.29 9.29 0 0 1 9.28 9.28h-65.28a9.28 9.28 0 0 1 9.28-9.28z" fill="url(#x)" transform="translate(-190.92 -46.23)"/><path d="m1015.66 14.62h65.28v53.79h-65.28z" fill="url(#y)"/><path d="m1215.86 51.58h46.71a9.28 9.28 0 0 1 9.28 9.28h-65.27a9.28 9.28 0 0 1 9.28-9.28z" fill="url(#z)" transform="translate(-190.92 -46.23)"/><path d="m1332.46 51.58h46.71a9.29 9.29 0 0 1 9.28 9.28h-65.26a9.28 9.28 0 0 1 9.28-9.28z" fill="url(#A)" transform="translate(-190.92 -46.23)"/><path d="m1132.26 14.62h65.28v53.79h-65.28z" fill="url(#B)"/><ellipse cx="1076.12" cy="77.25" fill="url(#C)" rx="24.37" ry="12.12"/><ellipse cx="1076.12" cy="70.21" fill="#99897b" rx="24.37" ry="12.12"/><path d="m621.23 199.46h146.92v6.54h-146.92z" fill="#927e6c"/><path d="m778.29 114.64v131.05h33.85v-131zm29.09 46.74a4.22 4.22 0 0 1 -4.2 4.2h-16.82a4.22 4.22 0 0 1 -4.2-4.2v-35.17a4.21 4.21 0 0 1 4.2-4.2h16.82a4.21 4.21 0 0 1 4.2 4.2z" fill="url(#D)" transform="translate(-190.92 -46.23)"/><path d="m299.62 58.09h37.43v15.47h-37.43z" fill="url(#E)"/><path d="m298.17 56.01h40.33v2.63h-40.33z" fill="url(#F)"/><path d="m435.1 56.01h40.33v2.63h-40.33z" fill="url(#G)"/><path d="m671.51 114.64v49.68h-265.86a40.55 40.55 0 0 0 -40.57 40.55h-94.49v90.29h474.76v-180.52z" fill="url(#H)" transform="translate(-190.92 -46.23)"/><path d="m1312.86 68.41h-49.77l7.78-12.36h33.02z" fill="url(#I)"/><path d="m1312.86 0h-49.77l7.78 56.05h33.02z" fill="url(#J)"/><g transform="translate(-190.92 -46.23)"><path d="m1144.35 51.58h46.72a9.29 9.29 0 0 1 9.28 9.28h-65.28a9.28 9.28 0 0 1 9.28-9.28z" fill="url(#x)"/><path d="m1215.86 51.58h46.71a9.28 9.28 0 0 1 9.28 9.28h-65.27a9.28 9.28 0 0 1 9.28-9.28z" fill="url(#z)"/><path d="m1332.46 51.58h46.71a9.29 9.29 0 0 1 9.28 9.28h-65.26a9.28 9.28 0 0 1 9.28-9.28z" fill="url(#A)"/><path d="m1144.35 51.58h46.72a9.29 9.29 0 0 1 9.28 9.28h-65.28a9.28 9.28 0 0 1 9.28-9.28z" fill="url(#K)"/><path d="m1215.86 51.58h46.71a9.28 9.28 0 0 1 9.28 9.28h-65.27a9.28 9.28 0 0 1 9.28-9.28z" fill="url(#L)"/><path d="m1332.46 51.58h46.71a9.29 9.29 0 0 1 9.28 9.28h-65.26a9.28 9.28 0 0 1 9.28-9.28z" fill="url(#M)"/><path d="m1037.1 332.15a41.69 41.69 0 1 0 -32.68 49.07 41.68 41.68 0 0 0 32.68-49.07zm-42.1 41.91 1.73-19.5a15.63 15.63 0 0 0 2.36-.26 15 15 0 0 0 2.08-.6l9.1 17.34a33.75 33.75 0 0 1 -15.24 3zm10.47-52.83a21.28 21.28 0 0 1 6.72 5.15l-5.68 4.1a13.87 13.87 0 0 0 -3.48-2.66zm9 8.34a21.08 21.08 0 0 1 2.72 7.88l-6.95.38v-.28a13.76 13.76 0 0 0 -1.4-3.88zm-15.15-3.15a13.73 13.73 0 0 0 -3.94-.31l-3.85-19.22a33.66 33.66 0 0 1 14.57 1.11zm-11.62-18.76 3.84 19.22a14.52 14.52 0 0 0 -3.38 1.71l-13.66-14.11a33.56 33.56 0 0 1 13.18-6.78zm-16 9.53 13.59 14.06a14.47 14.47 0 0 0 -2.16 3.6l-19.13-4.42a33.86 33.86 0 0 1 7.68-13.2zm-8.61 17 19.05 4.48a14.38 14.38 0 0 0 .18 4.44v.18l-18.45 6.54c-.28-.95-.52-1.9-.72-2.88a33.6 33.6 0 0 1 -.1-12.72zm20.66 12.89a14.31 14.31 0 0 0 2.22 3l-12 15.53a33.6 33.6 0 0 1 -8.68-12zm5.29 5.51a14.15 14.15 0 0 0 3.79 1.58l-1.73 19.56a33.79 33.79 0 0 1 -14.1-5.65zm24.69 16.65-9.11-17.35a14.42 14.42 0 0 0 2.89-2.79l17 9.7a33.69 33.69 0 0 1 -10.81 10.44zm12.76-13.89-17-9.69a14.1 14.1 0 0 0 1-3.9l19.58-1.06a33.54 33.54 0 0 1 -3.51 14.65z" fill="#63564a"/></g><circle cx="509.92" cy="308.74" fill="#53493e" r="31.79"/><path d="m1140.52 332.15a41.69 41.69 0 1 0 -32.68 49.07 41.69 41.69 0 0 0 32.68-49.07zm-42.13 41.91 1.69-19.5a15.62 15.62 0 0 0 2.37-.26 15 15 0 0 0 2.08-.6l9.1 17.34a33.74 33.74 0 0 1 -15.23 3zm10.47-52.83a21.24 21.24 0 0 1 6.71 5.15l-5.68 4.1a13.87 13.87 0 0 0 -3.48-2.66zm9 8.34a21.08 21.08 0 0 1 2.72 7.88l-6.94.38a.56.56 0 0 0 -.05-.28 14.06 14.06 0 0 0 -1.39-3.88zm-15.15-3.15a13.73 13.73 0 0 0 -3.94-.31l-3.85-19.22a33.71 33.71 0 0 1 14.6 1.15zm-11.63-18.76 3.86 19.22a14.39 14.39 0 0 0 -3.39 1.71l-13.64-14.11a33.58 33.58 0 0 1 13.17-6.78zm-16 9.53 13.61 14.06a14.21 14.21 0 0 0 -2.17 3.6l-19.11-4.42a34 34 0 0 1 7.67-13.2zm-8.6 17 19 4.48a14.38 14.38 0 0 0 .18 4.44v.18l-18.46 6.54c-.27-.95-.52-1.9-.71-2.88a33.6 33.6 0 0 1 -.06-12.72zm20.66 12.89a14.31 14.31 0 0 0 2.22 3l-12 15.5a33.7 33.7 0 0 1 -8.67-12zm5.3 5.51a14.09 14.09 0 0 0 3.78 1.58l-1.73 19.56a33.79 33.79 0 0 1 -14.06-5.64zm24.68 16.65-9.1-17.35a14.64 14.64 0 0 0 2.88-2.79l17 9.7a33.93 33.93 0 0 1 -10.82 10.44zm12.76-13.89-17-9.69a14.12 14.12 0 0 0 1-3.9l19.58-1.06a33.56 33.56 0 0 1 -3.53 14.65z" fill="#63564a" transform="translate(-190.92 -46.23)"/><path d="m1240.84 332.15a41.69 41.69 0 1 0 -32.68 49.07 41.69 41.69 0 0 0 32.68-49.07zm-42.13 41.91 1.72-19.5a15.62 15.62 0 0 0 2.37-.26 15 15 0 0 0 2.08-.6l9.12 17.3a33.71 33.71 0 0 1 -15.23 3zm10.47-52.83a21.24 21.24 0 0 1 6.71 5.15l-5.68 4.1a13.87 13.87 0 0 0 -3.48-2.66zm9 8.34a21.08 21.08 0 0 1 2.72 7.88l-7 .38a.68.68 0 0 0 0-.28 14.06 14.06 0 0 0 -1.39-3.88zm-15.18-3.15a13.73 13.73 0 0 0 -3.94-.31l-3.85-19.22a33.72 33.72 0 0 1 14.6 1.15zm-11.63-18.76 3.86 19.22a14.39 14.39 0 0 0 -3.39 1.71l-13.64-14.11a33.58 33.58 0 0 1 13.17-6.78zm-16 9.53 13.6 14.06a14.21 14.21 0 0 0 -2.17 3.6l-19.11-4.42a33.86 33.86 0 0 1 7.68-13.2zm-8.61 17 19 4.48a14.38 14.38 0 0 0 .18 4.44v.18l-18.46 6.54c-.26-.95-.52-1.9-.71-2.88a33.6 33.6 0 0 1 -.06-12.72zm20.66 12.89a14.31 14.31 0 0 0 2.22 3l-12 15.5a33.7 33.7 0 0 1 -8.67-12zm5.3 5.51a14.09 14.09 0 0 0 3.78 1.58l-1.73 19.56a33.79 33.79 0 0 1 -14.06-5.64zm24.68 16.65-9.1-17.35a14.37 14.37 0 0 0 2.88-2.79l17 9.7a33.82 33.82 0 0 1 -10.82 10.44zm12.76-13.89-17-9.69a13.78 13.78 0 0 0 1-3.9l19.58-1.06a33.56 33.56 0 0 1 -3.56 14.64z" fill="#63564a" transform="translate(-190.92 -46.23)"/><path d="m1343.83 332.15a41.7 41.7 0 1 0 -32.69 49.07 41.7 41.7 0 0 0 32.69-49.07zm-42.14 41.91 1.73-19.5a16.31 16.31 0 0 0 2.32-.26 15.12 15.12 0 0 0 2.09-.6l9.09 17.34a33.71 33.71 0 0 1 -15.23 3zm10.47-52.83a21.24 21.24 0 0 1 6.71 5.15l-5.67 4.1a14.05 14.05 0 0 0 -3.48-2.66zm9 8.34a21.09 21.09 0 0 1 2.73 7.88l-7 .38a.56.56 0 0 0 0-.28 14.06 14.06 0 0 0 -1.39-3.88zm-15.16-3.15a13.76 13.76 0 0 0 -3.94-.31l-3.86-19.22a33.71 33.71 0 0 1 14.6 1.15zm-11.63-18.76 3.85 19.22a14.39 14.39 0 0 0 -3.39 1.71l-13.64-14.11a33.62 33.62 0 0 1 13.18-6.78zm-16 9.53 13.63 14.06a14.81 14.81 0 0 0 -2.17 3.6l-19.1-4.42a33.74 33.74 0 0 1 7.68-13.2zm-8.61 17 19 4.48a13.79 13.79 0 0 0 .18 4.44.3.3 0 0 0 0 .18l-18.46 6.54c-.28-.95-.52-1.9-.72-2.88a33.6 33.6 0 0 1 -.09-12.72zm20.65 12.89a14.67 14.67 0 0 0 2.22 3l-12 15.53a33.51 33.51 0 0 1 -8.68-12zm5.3 5.51a14.15 14.15 0 0 0 3.79 1.58l-1.74 19.56a33.79 33.79 0 0 1 -14.06-5.64zm24.68 16.65-9.1-17.35a14.11 14.11 0 0 0 2.88-2.79l17 9.7a33.72 33.72 0 0 1 -10.82 10.44zm12.77-13.89-17-9.69a13.78 13.78 0 0 0 1-3.9l19.58-1.06a33.68 33.68 0 0 1 -3.51 14.65z" fill="#63564a" transform="translate(-190.92 -46.23)"/><path d="m1449.7 332.15a41.69 41.69 0 1 0 -32.7 49.08 41.69 41.69 0 0 0 32.7-49.08zm-42.11 41.91 1.73-19.5a16.61 16.61 0 0 0 2.33-.26 15.39 15.39 0 0 0 2.08-.6l9.1 17.34a33.75 33.75 0 0 1 -15.24 3zm10.47-52.83a21.24 21.24 0 0 1 6.71 5.15l-5.67 4.1a14.05 14.05 0 0 0 -3.48-2.66zm9 8.34a21.25 21.25 0 0 1 2.72 7.88l-7 .38a.56.56 0 0 0 0-.28 14.37 14.37 0 0 0 -1.38-3.88zm-15.15-3.15a13.73 13.73 0 0 0 -3.94-.31l-3.86-19.22a33.71 33.71 0 0 1 14.6 1.15zm-11.63-18.76 3.86 19.22a14.27 14.27 0 0 0 -3.4 1.71l-13.64-14.11a33.71 33.71 0 0 1 13.15-6.78zm-16 9.53 13.59 14.06a14.81 14.81 0 0 0 -2.17 3.6l-19.13-4.42a33.74 33.74 0 0 1 7.68-13.2zm-8.61 17 19 4.48a14.38 14.38 0 0 0 .18 4.44.3.3 0 0 0 0 .18l-18.46 6.54c-.27-.95-.52-1.9-.71-2.88a33.6 33.6 0 0 1 -.13-12.72zm20.66 12.89a14.26 14.26 0 0 0 2.21 3l-12 15.5a33.64 33.64 0 0 1 -8.68-12zm5.29 5.51a14.15 14.15 0 0 0 3.79 1.58l-1.74 19.56a33.69 33.69 0 0 1 -14.05-5.64zm24.68 16.65-9.1-17.35a14.11 14.11 0 0 0 2.88-2.79l17 9.7a33.72 33.72 0 0 1 -10.85 10.44zm12.77-13.89-17-9.69a14.12 14.12 0 0 0 1-3.9l19.57-1.06a33.58 33.58 0 0 1 -3.55 14.65z" fill="#63564a" transform="translate(-190.92 -46.23)"/><path d="m700.84 327.83a27.14 27.14 0 1 0 27.16 27.17 27.14 27.14 0 0 0 -27.16-27.17zm0 49a21.91 21.91 0 1 1 21.9-21.9 21.9 21.9 0 0 1 -21.9 21.9z" fill="#63564a" transform="translate(-190.92 -46.23)"/><rect fill="#63564a" height="23.65" rx="4.34" width="18.14" x="500.85" y="296.91"/><circle cx="509.92" cy="308.74" fill="#53493e" r="7.1"/><circle cx="585.33" cy="354.97" fill="#53493e" r="31.79" transform="matrix(.16 -.99 .99 .16 -49.73 829.66)"/><path d="m585.33 327.83a27.14 27.14 0 1 0 27.14 27.17 27.15 27.15 0 0 0 -27.14-27.17zm0 49a21.91 21.91 0 1 1 21.9-21.9 21.91 21.91 0 0 1 -21.9 21.9z" fill="#63564a" transform="translate(-190.92 -46.23)"/><rect fill="#63564a" height="23.65" rx="4.34" width="18.14" x="385.35" y="296.91"/><circle cx="394.42" cy="308.74" fill="#53493e" r="7.1"/><path d="m133.17 274.33h79.94v53.89h-79.94z" fill="#53493e"/><circle cx="231.99" cy="308.74" fill="#53493e" r="31.79"/><path d="m422.9 327.83a27.14 27.14 0 1 0 27.1 27.17 27.15 27.15 0 0 0 -27.1-27.17zm0 49a21.91 21.91 0 1 1 21.9-21.83 21.9 21.9 0 0 1 -21.9 21.87z" fill="#63564a" transform="translate(-190.92 -46.23)"/><rect fill="#63564a" height="23.65" rx="4.34" width="18.14" x="222.92" y="296.91"/><circle cx="231.99" cy="308.74" fill="#53493e" r="7.1"/><circle cx="116.48" cy="308.74" fill="#53493e" r="31.79"/><path d="m307.39 327.83a27.14 27.14 0 1 0 27.14 27.17 27.14 27.14 0 0 0 -27.14-27.17zm0 49a21.91 21.91 0 1 1 21.91-21.83 21.91 21.91 0 0 1 -21.91 21.87z" fill="#63564a" transform="translate(-190.92 -46.23)"/><rect fill="#63564a" height="23.65" rx="4.34" width="18.14" x="107.41" y="296.91"/><circle cx="116.48" cy="308.74" fill="#53493e" r="7.1"/><path d="m554.43 12.51h40.04v16.12h-40.04z" fill="url(#N)"/><text fill="#927e6c" font-family="Verdana" font-size="36.22" letter-spacing=".2em" transform="matrix(.79 0 0 1 649.67 177.69)">312</text><path d="m1581.41 283.28h-5a10.3 10.3 0 0 0 -2.67 20.26v3.31h2.76v-3h4.88z" fill="#3a322b" transform="translate(-190.92 -46.23)"/><path d="m1015.41 13.34h65.52v2.24h-65.52z" fill="url(#O)"/><path d="m1132.14 13.34h65.52v2.24h-65.52z" fill="url(#P)"/><path d="m944.03 13.34h65.52v2.24h-65.52z" fill="url(#Q)"/><g fill="#927e6c"><path d="m767.99 120.51h607.22v3.26h-607.22z"/><path d="m767.99 150.86h607.22v3.26h-607.22z"/><path d="m779.62 286.86h420.07v7.59h-420.07z"/><path d="m1145.89 268.16h139.51v6.62h-139.51z"/><path d="m1211.27 296.8h74.13v4.23h-74.13z"/><path d="m1210 241.84h6.43v60.23h-6.43z"/><path d="m1211.27 248.3h74.13v2.11h-74.13z"/><path d="m1125.13 238.52h90.51v4.37h-90.51z"/><circle cx="780.63" cy="290.65" r="7.89"/><circle cx="885.05" cy="290.65" r="7.89"/><circle cx="989.47" cy="290.65" r="7.89"/><circle cx="1093.89" cy="290.65" r="7.89"/><circle cx="1015.2" cy="306.43" r="7.89"/><circle cx="1144.59" cy="271.95" r="7.89"/><circle cx="1198.32" cy="290.65" r="7.89"/><path d="m1204.79 334.12h129.39v5.57h-129.39z" transform="matrix(.96840931 -.24936603 .24936603 .96840931 -234.83 280.97)"/><path d="m1198.32 264.06h31.87v15.78h-31.87z"/><path d="m1204.55 276.51h17.98v16.21h-17.98z"/><path d="m1128.75 216.89h10.09v24.95h-10.09z"/><path d="m1330.16 282.94h6.51v33.18h-6.51z" transform="matrix(.94 -.35 .35 .94 -211.62 437.87)"/><path d="m1320.82 236.94h6.51v29.63h-6.51z" transform="matrix(.93716026 -.3488992 .3488992 .93716026 -195.54 431.61)"/><path d="m1208.38 292.73h10.61v12.38h-10.61z"/></g></svg>