<svg height="346.48" viewBox="0 0 1181.49 346.48" width="1181.49" xmlns="http://www.w3.org/2000/svg" xmlns:xlink="http://www.w3.org/1999/xlink"><linearGradient id="a" gradientTransform="matrix(1 0 0 -1 -55.42 355.17)" gradientUnits="userSpaceOnUse" x1="265.93" x2="265.93" y1="45.18" y2="64.99"><stop offset="0" stop-color="#594e42"/><stop offset=".33" stop-color="#53493e"/><stop offset="1" stop-color="#6e5f52"/></linearGradient><linearGradient id="b" x1="1031.56" x2="1031.56" xlink:href="#a" y1="45.18" y2="64.99"/><linearGradient id="c" gradientTransform="matrix(1 0 0 -1 -328.42 -195.9)" gradientUnits="userSpaceOnUse" x1="919.72" x2="919.72" y1="-259.41" y2="-225.8"><stop offset="0" stop-color="#66594c"/><stop offset=".33" stop-color="#63564a"/><stop offset="1" stop-color="#d2c8bd"/></linearGradient><linearGradient id="d" gradientTransform="matrix(1 0 0 -1 -328.42 -195.9)" gradientUnits="userSpaceOnUse" x1="919.68" x2="919.68" y1="-259.26" y2="-267.97"><stop offset=".13" stop-color="#53493e"/><stop offset="1" stop-color="#53493e" stop-opacity="0"/></linearGradient><linearGradient id="e" gradientTransform="matrix(1 0 0 -1 -55.42 355.17)" gradientUnits="userSpaceOnUse" x1="181.91" x2="181.91" y1="246.49" y2="249.66"><stop offset="0" stop-color="#63564a"/><stop offset="1" stop-color="#a3978c"/></linearGradient><linearGradient id="f" gradientTransform="matrix(1 0 0 .75 -328.42 -410.98)" x1="454.91" x2="454.91" xlink:href="#d" y1="692.87" y2="696.05"/><linearGradient id="g" x1="278.89" x2="278.89" xlink:href="#e" y1="246.49" y2="249.66"/><linearGradient id="h" gradientTransform="matrix(1 0 0 .75 -328.42 -410.98)" x1="551.89" x2="551.89" xlink:href="#d" y1="692.87" y2="696.05"/><linearGradient id="i" x1="390.32" x2="390.32" xlink:href="#e" y1="246.49" y2="249.66"/><linearGradient id="j" gradientTransform="matrix(1 0 0 .75 -328.42 -410.98)" x1="663.32" x2="663.32" xlink:href="#d" y1="692.87" y2="696.05"/><linearGradient id="k" x1="502" x2="502" xlink:href="#e" y1="246.49" y2="249.66"/><linearGradient id="l" gradientTransform="matrix(1 0 0 .75 -328.42 -410.98)" x1="775" x2="775" xlink:href="#d" y1="692.87" y2="696.05"/><linearGradient id="m" x1="1104.47" x2="1104.47" xlink:href="#e" y1="246.49" y2="249.66"/><linearGradient id="n" gradientTransform="matrix(1 0 0 .75 -328.42 -410.98)" x1="1377.47" x2="1377.47" xlink:href="#d" y1="692.87" y2="696.05"/><linearGradient id="o" x1="1007.78" x2="1007.78" xlink:href="#e" y1="246.49" y2="249.66"/><linearGradient id="p" gradientTransform="matrix(1 0 0 .75 -328.42 -410.98)" x1="1280.78" x2="1280.78" xlink:href="#d" y1="692.87" y2="696.05"/><linearGradient id="q" x1="896.82" x2="896.82" xlink:href="#e" y1="246.49" y2="249.66"/><linearGradient id="r" gradientTransform="matrix(1 0 0 .75 -328.42 -410.98)" x1="1169.82" x2="1169.82" xlink:href="#d" y1="692.87" y2="696.05"/><linearGradient id="s" x1="785.94" x2="785.94" xlink:href="#e" y1="246.49" y2="249.66"/><linearGradient id="t" gradientTransform="matrix(1 0 0 .75 -328.42 -410.98)" x1="1058.94" x2="1058.94" xlink:href="#d" y1="692.87" y2="696.05"/><linearGradient id="u" x1="645.81" x2="645.81" xlink:href="#e" y1="254.28" y2="257.45"/><linearGradient id="v" gradientTransform="matrix(1 0 0 .75 -328.42 -410.98)" x1="918.81" x2="918.81" xlink:href="#d" y1="682.5" y2="685.67"/><path d="m132.44 287.03h152.97v44.38h-152.97z" fill="#53493e"/><circle cx="132.44" cy="311.6" fill="#53493e" r="34.87"/><circle cx="290.95" cy="311.6" fill="#53493e" r="34.87"/><path d="m42.17 266.74h1096.37v31.7h-1096.37z" fill="#53493e"/><path d="m347.23 287.03h118.89v24.57h-118.89z" fill="#53493e"/><path d="m484.34 276.73h183.09v38.84h-183.09z" fill="#53493e"/><path d="m682.49 276.73h141.87v34.87h-141.87z" fill="#53493e"/><path d="m50.01 276.73h45.18v45.18h-45.18z" fill="#53493e"/><circle cx="899.65" cy="311.6" fill="#53493e" r="34.87"/><circle cx="1058.17" cy="311.6" fill="#53493e" r="34.87"/><path d="m899.65 287.03h152.97v44.38h-152.97z" fill="#53493e"/><path d="m192.77 368.32h-9.51a4.4 4.4 0 0 1 -4.36-4.32v-15.1a4.4 4.4 0 0 1 4.36-4.36h9.51a4.4 4.4 0 0 1 4.36 4.36v15.1a4.34 4.34 0 0 1 -4.33 4.36z" fill="#63564a" transform="translate(-55.42 -44.83)"/><circle cx="132.6" cy="311.6" fill="#53493e" r="7.13"/><path d="m352.08 368.32h-9.51a4.4 4.4 0 0 1 -4.36-4.36v-15.06a4.4 4.4 0 0 1 4.36-4.36h9.51a4.4 4.4 0 0 1 4.36 4.36v15.1a4.34 4.34 0 0 1 -4.33 4.36z" fill="#63564a" transform="translate(-55.42 -44.83)"/><circle cx="291.91" cy="311.6" fill="#53493e" r="7.13"/><path d="m960.78 368.32h-9.51a4.4 4.4 0 0 1 -4.36-4.36v-15.06a4.4 4.4 0 0 1 4.36-4.36h9.51a4.4 4.4 0 0 1 4.36 4.36v15.1a4.34 4.34 0 0 1 -4.33 4.36z" fill="#63564a" transform="translate(-55.42 -44.83)"/><circle cx="900.61" cy="311.6" fill="#53493e" r="7.13"/><path d="m1120.09 368.32h-9.51a4.4 4.4 0 0 1 -4.36-4.36v-15.06a4.4 4.4 0 0 1 4.36-4.36h9.51a4.4 4.4 0 0 1 4.36 4.36v15.1a4.34 4.34 0 0 1 -4.33 4.36z" fill="#63564a" transform="translate(-55.42 -44.83)"/><circle cx="1059.91" cy="311.6" fill="#53493e" r="7.13"/><path d="m178.41 290.2h64.2v19.81h-64.2z" fill="url(#a)"/><path d="m944.04 290.2h64.2v19.81h-64.2z" fill="url(#b)"/><path d="m486.09 292.58h210.27v2.77h-210.27z" fill="#927e6c"/><path d="m750.94 323h210.26v2.69h-210.26z" fill="#927e6c" transform="matrix(.99053344 -.13727167 .13727167 .99053344 -91.84 75.76)"/><path d="m435.82 219.16h2.69v210.26h-2.69z" fill="#927e6c" transform="matrix(.13364026 -.99102991 .99102991 .13364026 1.94 669.37)"/><path d="m32.1 63.84h1118.33v183.88h-1118.33z" fill="#927e6c"/><path d="m32.1 247.72h1118.33v17.28h-1118.33z" fill="#63564a"/><path d="m32.1 265h1118.33v3.33h-1118.33z" fill="#927e6c"/><path d="m27.11 30.4h1128.39v33.61h-1128.39z" fill="url(#c)"/><g fill="#66594c"><path d="m149.08 63.53h1.59v183.88h-1.59z"/><path d="m103.11 61.94h1.59v183.88h-1.59z"/><path d="m530.31 63.53h1.59v183.88h-1.59z"/><path d="m474.44 63.53h1.59v183.88h-1.59z"/><path d="m418.56 63.53h1.59v183.88h-1.59z"/><path d="m362.68 63.53h1.59v183.88h-1.59z"/><path d="m306.81 63.53h1.59v183.88h-1.59z"/><path d="m250.93 63.53h1.59v183.88h-1.59z"/><path d="m195.05 63.53h1.59v183.88h-1.59z"/><path d="m1025.52 63.53h1.59v183.88h-1.59z"/><path d="m1071.17 61.94h1.59v183.88h-1.59z"/><path d="m647.06 63.53h1.59v183.88h-1.59z"/><path d="m702.54 63.53h1.59v183.88h-1.59z"/><path d="m758.02 63.53h1.59v183.88h-1.59z"/><path d="m813.5 63.53h1.59v183.88h-1.59z"/><path d="m868.98 63.53h1.59v183.88h-1.59z"/><path d="m924.38 63.53h1.59v183.88h-1.59z"/><path d="m979.86 63.53h1.59v183.88h-1.59z"/></g><path d="m32.1 63.84h1118.33v8.72h-1118.33z" fill="url(#d)"/><path d="m99.94 105.53h53.1v3.17h-53.1z" fill="url(#e)"/><path d="m104.7 108.7h44.38v69.75h-44.38z" fill="#b3a698"/><path d="m198.88 157.33h-33.21a3.17 3.17 0 0 0 -3.17 3.17v55.8a3.17 3.17 0 0 0 3.17 3.17h33.21a3.17 3.17 0 0 0 3.17-3.17v-55.8a3.17 3.17 0 0 0 -3.17-3.17z" fill="#53493e" transform="translate(-55.42 -44.83)"/><path d="m198.88 219.31h-33.21a3.17 3.17 0 0 1 -3.17-3.17v-29.32h39.55v29.32a3.17 3.17 0 0 1 -3.17 3.17z" fill="#d2c8bd" transform="translate(-55.42 -44.83)"/><path d="m99.94 108.7h53.1v2.38h-53.1z" fill="url(#f)"/><path d="m190.85 105.53h65.23v3.17h-65.23z" fill="url(#g)"/><path d="m196.72 108.7h54.53v69.75h-54.53z" fill="#b3a698"/><path d="m300.48 157.33h-42.24a3.17 3.17 0 0 0 -3.17 3.17v55.8a3.17 3.17 0 0 0 3.17 3.17h42.24a3.16 3.16 0 0 0 3.17-3.17v-55.8a3.16 3.16 0 0 0 -3.17-3.17z" fill="#53493e" transform="translate(-55.42 -44.83)"/><path d="m300.48 219.31h-42.24a3.17 3.17 0 0 1 -3.17-3.17v-29.32h48.58v29.32a3.16 3.16 0 0 1 -3.17 3.17z" fill="#d2c8bd" transform="translate(-55.42 -44.83)"/><path d="m190.85 108.7h65.23v2.38h-65.23z" fill="url(#h)"/><path d="m302.29 105.53h65.23v3.17h-65.23z" fill="url(#i)"/><path d="m308.15 108.7h54.53v69.75h-54.53z" fill="#b3a698"/><path d="m411.92 157.33h-42.24a3.17 3.17 0 0 0 -3.17 3.17v55.8a3.17 3.17 0 0 0 3.17 3.17h42.24a3.17 3.17 0 0 0 3.17-3.17v-55.8a3.17 3.17 0 0 0 -3.17-3.17z" fill="#53493e" transform="translate(-55.42 -44.83)"/><path d="m411.92 219.31h-42.24a3.17 3.17 0 0 1 -3.17-3.17v-29.32h48.58v29.32a3.17 3.17 0 0 1 -3.17 3.17z" fill="#d2c8bd" transform="translate(-55.42 -44.83)"/><path d="m302.29 108.7h65.23v2.38h-65.23z" fill="url(#j)"/><path d="m413.96 105.53h65.23v3.17h-65.23z" fill="url(#k)"/><path d="m419.83 108.7h54.53v69.75h-54.53z" fill="#b3a698"/><path d="m523.67 157.33h-42.24a3.17 3.17 0 0 0 -3.17 3.17v55.8a3.17 3.17 0 0 0 3.17 3.17h42.24a3.17 3.17 0 0 0 3.17-3.17v-55.8a3.17 3.17 0 0 0 -3.17-3.17z" fill="#53493e" transform="translate(-55.42 -44.83)"/><path d="m523.67 219.31h-42.24a3.17 3.17 0 0 1 -3.17-3.17v-29.32h48.58v29.32a3.17 3.17 0 0 1 -3.17 3.17z" fill="#d2c8bd" transform="translate(-55.42 -44.83)"/><path d="m413.96 108.7h65.23v2.38h-65.23z" fill="url(#l)"/><path d="m1022.5 105.53h53.1v3.17h-53.1z" fill="url(#m)"/><path d="m1027.26 108.7h44.38v69.75h-44.38z" fill="#b3a698"/><path d="m1121.44 157.33h-33.21a3.17 3.17 0 0 0 -3.17 3.17v55.8a3.17 3.17 0 0 0 3.17 3.17h33.21a3.17 3.17 0 0 0 3.17-3.17v-55.8a3.17 3.17 0 0 0 -3.17-3.17z" fill="#53493e" transform="translate(-55.42 -44.83)"/><path d="m1022.5 108.7h53.1v2.38h-53.1z" fill="url(#n)"/><path d="m1121.44 219.31h-33.21a3.17 3.17 0 0 1 -3.17-3.17v-29.32h39.55v29.32a3.17 3.17 0 0 1 -3.17 3.17z" fill="#d2c8bd" transform="translate(-55.42 -44.83)"/><path d="m920.26 105.53h64.2v3.17h-64.2z" fill="url(#o)"/><path d="m925.97 108.7h53.66v69.75h-53.66z" fill="#b3a698"/><path d="m1028.94 157.33h-41.45a3.17 3.17 0 0 0 -3.17 3.17v55.8a3.17 3.17 0 0 0 3.17 3.17h41.45a3.17 3.17 0 0 0 3.17-3.17v-55.8a3.17 3.17 0 0 0 -3.17-3.17z" fill="#53493e" transform="translate(-55.42 -44.83)"/><path d="m920.26 108.7h64.2v2.38h-64.2z" fill="url(#p)"/><path d="m1028.94 219.31h-41.45a3.17 3.17 0 0 1 -3.17-3.17v-29.32h47.79v29.32a3.17 3.17 0 0 1 -3.17 3.17z" fill="#d2c8bd" transform="translate(-55.42 -44.83)"/><path d="m809.3 105.53h64.2v3.17h-64.2z" fill="url(#q)"/><path d="m815.01 108.7h53.66v69.75h-53.66z" fill="#b3a698"/><path d="m918 157.33h-41.47a3.17 3.17 0 0 0 -3.17 3.17v55.8a3.17 3.17 0 0 0 3.17 3.17h41.47a3.17 3.17 0 0 0 3.17-3.17v-55.8a3.17 3.17 0 0 0 -3.17-3.17z" fill="#53493e" transform="translate(-55.42 -44.83)"/><path d="m918 219.31h-41.47a3.17 3.17 0 0 1 -3.17-3.17v-29.32h47.79v29.32a3.17 3.17 0 0 1 -3.15 3.17z" fill="#d2c8bd" transform="translate(-55.42 -44.83)"/><path d="m809.3 108.7h64.2v2.38h-64.2z" fill="url(#r)"/><path d="m698.42 105.53h64.2v3.17h-64.2z" fill="url(#s)"/><path d="m704.13 108.7h53.66v69.75h-53.66z" fill="#b3a698"/><path d="m807.1 157.33h-41.45a3.17 3.17 0 0 0 -3.17 3.17v55.8a3.17 3.17 0 0 0 3.17 3.17h41.45a3.17 3.17 0 0 0 3.17-3.17v-55.8a3.17 3.17 0 0 0 -3.17-3.17z" fill="#53493e" transform="translate(-55.42 -44.83)"/><path d="m807.1 219.31h-41.45a3.17 3.17 0 0 1 -3.17-3.17v-29.32h47.79v29.32a3.17 3.17 0 0 1 -3.17 3.17z" fill="#d2c8bd" transform="translate(-55.42 -44.83)"/><path d="m698.42 108.7h64.2v2.38h-64.2z" fill="url(#t)"/><text fill="#d2c8bd" font-family="Verdana" font-size="23.54" letter-spacing=".13em" transform="translate(332.2 223.56)">САНИТАРНЫЙ</text><text fill="#d2c8bd" font-family="Verdana" font-size="23.54" letter-spacing=".13em" transform="translate(636.45 223.56)">САНИТАРНЫЙ</text><circle cx="648.29" cy="259.04" fill="#d2c8bd" r="23.94" transform="matrix(.43003845 -.90281058 .90281058 .43003845 80.22 688.1)"/><path d="m609.25 210.47h-12.84v-12.84h-7.29v12.84h-12.84v7.37h12.84v12.84h7.29v-12.84h12.84z" fill="#817060"/><path d="m603.8 145.29v101.61h84v-101.61zm83.38 100.71h-82.66v-99h82.66z" fill="#63564a" transform="translate(-55.42 -44.83)"/><path d="m542.12 97.69h96.54v3.17h-96.54z" fill="url(#u)"/><path d="m542.12 100.86h96.54v2.38h-96.54z" fill="url(#v)"/><path d="m590.39 100.86h.87v100.26h-.87z" fill="#63564a"/><path d="m547.43 111.64h2.38v9.19h-2.38z" fill="#63564a"/><path d="m630.97 111.64h2.38v9.19h-2.38z" fill="#63564a"/><path d="m547.43 145.87h2.38v9.19h-2.38z" fill="#63564a"/><path d="m630.97 145.87h2.38v9.19h-2.38z" fill="#63564a"/><path d="m547.43 183.44h2.38v9.19h-2.38z" fill="#63564a"/><path d="m630.97 183.44h2.38v9.19h-2.38z" fill="#63564a"/><g fill="#53493e"><path d="m1132.59 272.61h16.8v14.42h-16.8z"/><path d="m1145.51 274.99h19.58v9.35h-19.58z"/><path d="m1160.81 276.73h20.69v5.87h-20.69z"/><path d="m1179.43 270.15h2.06v19.02h-2.06z"/><path d="m32.1 272.29h16.8v14.42h-16.8z"/><path d="m16.49 274.99h19.58v9.35h-19.58z"/><path d="m0 276.73h20.69v5.87h-20.69z"/><path d="m0 270.15h2.06v19.02h-2.06z"/><path d="m1174.42 56.83v-2h-2v-5h-2v5h-175.17v-5h-2v5h-175.16v-5h-2v5h-175.17v-5h-2v5h-175.17v-5h-2v5h-175.16v-5h-2v5h-175.17v-5h-2v5h-2v2h2v4h-2v2h2v6h-2v4h1069v-4h-2v-6h2v-2h-2v-4zm-181.17 0v4h-175.16v-4zm-529.5 6h175.17v6h-175.17zm-2 6h-175.16v-6h175.16zm179.17-6h175.17v6h-175.17zm177.17 0h175.16v6h-175.16zm-2-6v4h-175.17v-4zm-177.17 0v4h-175.17v-4zm-177.17 0v4h-175.16v-4zm-352.33 0h175.17v4h-175.17zm0 6h175.17v6h-175.17zm1061 6h-175.17v-6h175.17zm0-8h-175.17v-4h175.17z" transform="translate(-55.42 -44.83)"/><path d="m131.42 58.83v-2l1-3a4.94 4.94 0 0 0 -1-3l-3-3 1 4 .76 3.29-.76 2.71-.88-.47-3.12-5.53h-2l5 7 1.91 2 .09 5v3l2-1v-5l1.94-1.74 1.06-2.26.28-1.77-4.28 3.77z" transform="translate(-55.42 -44.83)"/><path d="m144.42 56.83c1 1 4 10 4 10l1 3 2-.82-1-3.18v-3l2-5v-2l-3 4z" transform="translate(-55.42 -44.83)"/><path d="m159.42 61.83-3-11c0 1 1 6 1 6v9l2 4h1v-6l1-2s0-4 1-5 3-8 3-8l-5 11z" transform="translate(-55.42 -44.83)"/><path d="m180.42 57.83v-2l1-2 1-4-2 1-2 3-1 1-2-7c0 1-1 6-1 6l3.14 3-.14 4-1 4s-2 2-2 3a3.49 3.49 0 0 0 1 2 1 1 0 0 0 1-1 10.07 10.07 0 0 1 1-3l1-3s.68-2 .34-2a20.63 20.63 0 0 1 2.66-1l2-2-3 1z" transform="translate(-55.42 -44.83)"/><path d="m202.42 49.83-3 3-3 1a22.69 22.69 0 0 0 1-4c0-1-3-1-3-1v7l-3.82-1c.69.36-.11 3 .82 3s4 2 4 2l1 9 1 1-.17-7.11 1.17-2.89v-4l4-1z" transform="translate(-55.42 -44.83)"/><path d="m147 17 1.53 1.02 1.47-1.02-1-4z"/><path d="m213.42 59.83-1-3s-1-3 0-3 1-2 1-2a1.39 1.39 0 0 1 0-2c1-1-1-3-1-3-1 2-2 9-2 9l2 4-1 3.15v1.85l1 2-.69 2.17 3.69-.18-1-3-1-2 2-2z" transform="translate(-55.42 -44.83)"/><path d="m236.42 54.83c-1 1-2.17 1-2.58 2 0 0-.42 1-.42-1s1-2 1-3a10.07 10.07 0 0 1 1-3l1-3c-1 0-3 5-3 5l-1 5-1 3-.55-.37-2.45-1.63 1 1s4 2 3 3a3.1 3.1 0 0 0 -1 2l1 2a1 1 0 0 0 -1 1 3.49 3.49 0 0 0 1 2l2-3-1-3 .42-1.86.58-1.14 1.83-3s1.17-1 2.17-2-1-1-2 0z" transform="translate(-55.42 -44.83)"/><path d="m236.42 66.83c0 1 .41 2.33 1.2 2.16s.8-1.16.8-1.16l-1-3c0 1-1 1-1 2z" transform="translate(-55.42 -44.83)"/><path d="m196 14v-3h-1l-1 3v1l2.03 1.06z"/><g transform="translate(-55.42 -44.83)"><path d="m251.17 66.48-.75-2.65-.22.07-.78-2.07.54 2v.16l-2.58.86c0 1-1 3 0 3h3l.42-.75.47 1.77 1.11 1-1.25-3.34z"/><path d="m256.42 64.83c-1 0-2-2-2-2v1l-2 2s-1 1 0 1h3c1 0 2-2 1-2z"/><path d="m273.42 53.83v3l3 1v-7c-1 1-3 2-3 3z"/><path d="m273.42 61.83v-4h-1v4l2 4 1 3v1a1 1 0 0 0 1-1c0-1 0-3-1-4s-2-2-2-3z"/><path d="m295.33 63 .09-4.18s-2-2-2-3a10.07 10.07 0 0 0 -1-3v-2l-2-2c0 2-1 6 0 6s2 3 2 3a3.49 3.49 0 0 1 1 2v3a2 2 0 0 1 2 2 20.34 20.34 0 0 0 1 5 2.19 2.19 0 0 0 1-3c-1-1.99-2.09-3.82-2.09-3.82z"/><path d="m290.16 60.91a12.1 12.1 0 0 1 -1.61-.32l-.13 2.24 2 2h3a4.94 4.94 0 0 0 -1-3 3.17 3.17 0 0 0 -2.26-.92z"/><path d="m307.42 55.83h-1s-3-1-3-2-2-1-2-2a43.79 43.79 0 0 1 .68-4.37c-.9 2.64-3.33 5.37-1.68 5.37 2 0 2 3 3 4s2 4 2 4v4s-2 1-2 2 2 1 2 1l2 1v-7l-1-4h3l4-5-4 1s-1 2-2 2z"/><path d="m302.1 47.46a5.17 5.17 0 0 0 .32-1.63s-.14.7-.32 1.63z"/><path d="m328.42 63.83-.92-2.77c.16.08.18 0-.08-.23-1-1-1-6-1-7s-3-3-3-3v3c0 1 2 4 2 5 0 .69 1.46 1.88 2 2.19v2.81s-1 1-1 0-2.49-2.76-2.49-2.76l-.51 2.76 2 1 2 2v2l2 1v-4c0-2-1-2-1-2z"/><path d="m320.54 68.83 2.88-1v-1a3.49 3.49 0 0 0 -2-1c-1 0-1 2-.88 3z"/><path d="m344.42 53.83c0 1-4 4-4 5s-1-2-1-3-1-8-1-8h-1l.73 6.78s-.73 4.22.27 5.22-1 2-1 2v4s3 2 3 2.84v-1.84l-1-3v-2a3.49 3.49 0 0 1 1-2l3-2 3-5s-2 0-2 1z"/><path d="m353.42 65.83c-1 0-1-2-1-2l1-3a1 1 0 0 1 -1-1c0-1-1-1 0-2s-.88-.84-.88-.84c-.12.84-2.12 3.84-1.12 4.84s2 2 1 3-1 3 0 3 1-.13 2 .93 1-2.93 0-2.93z"/><path d="m355.42 61.83v3l-1 2 .28 1.79 1.72 1.21v-3a10.07 10.07 0 0 1 1-3s-1.7.09-.85-.95a2.59 2.59 0 0 1 1.85-1.05l.88-1.11-.88-1.89c0 1-3 3-3 3z"/><path d="m371.42 55.83a10.07 10.07 0 0 1 -1 3s-.13.4-.32 1a3.28 3.28 0 0 1 -1.68-1 3.1 3.1 0 0 0 -2-1s-1 0 0 1 1 2 2 2a2.84 2.84 0 0 0 1.54-.62 25.58 25.58 0 0 1 -1 2.67 7.27 7.27 0 0 1 -2.5 1.95v5a4.94 4.94 0 0 1 1-3 3.1 3.1 0 0 0 1-2s2-2 2-3v-2l2-1v-5c0-2-2-5-2-5-.04 2 .96 6 .96 7z"/><path d="m378.42 60.83v-3l-1 4 2 2-1 2 1 2 2-4-2-2z"/><path d="m390.42 51.83v-3s0-2-1-2h-1v1a22.69 22.69 0 0 0 1 4z"/><path d="m393.42 47.83v-3c-.17.33-.33.69-.5 1.06-.81 1.85-1.5 3.94-1.5 3.94l.85 1.71c-1 .7-1.85 1.29-1.85 1.29l-1 3v7h-3l1 2 1 1s1-1 1 1-1 4 0 2a13.38 13.38 0 0 0 1-5v-9l1-2a3.49 3.49 0 0 1 2-1c1 0 1-2 1-2a19.38 19.38 0 0 1 -1.88 1.51c.19-.74.88-3.51.88-3.51z"/><path d="m402.42 55.83a14.39 14.39 0 0 0 -2 3v3c0 1-1 2 0 2a1.1 1.1 0 0 1 .48.11l-1.48 1.89v1c-1-1-3-2-3-1v2l2.46 1.23 1.54-1.23 1-2v-1l2-2a22.69 22.69 0 0 1 -1-4c0-1 1-4 0-3z"/><path d="m400.42 54.83 1-1c1-1 0 0-1-2s0-2-1-2 0 2 1 4z"/><path d="m429.42 58.83v-2l1-3a4.94 4.94 0 0 0 -1-3l-3-3 1 4 .76 3.29-.76 2.71-.88-.47-3.12-5.53h-2l5 7 1.91 2 .09 5v3l2-1v-5l1.94-1.74 1.06-2.26.28-1.77-4.28 3.77z"/><path d="m442.42 56.83c1 1 4 10 4 10l1 3 2-.82-1-3.18v-3l2-5v-2l-3 4z"/><path d="m457.42 61.83-3-11c0 1 1 6 1 6v9l2 4h1v-6l1-2s0-4 1-5 3-8 3-8l-5 11z"/><path d="m478.42 57.83v-2l1-2 1-4-2 1-2 3-1 1-2-7c0 1-1 6-1 6l3.14 3-.14 4-1 4s-2 2-2 3a3.49 3.49 0 0 0 1 2 1 1 0 0 0 1-1 10.07 10.07 0 0 1 1-3l1-3s.68-2 .34-2a20.63 20.63 0 0 1 2.66-1l2-2-3 1z"/><path d="m500.42 49.83-3 3-3 1a22.69 22.69 0 0 0 1-4c0-1-3-1-3-1v7l-3.82-1c.69.36-.11 3 .82 3s4 2 4 2l1 9 1 1-.17-7.11 1.17-2.89v-4l4-1z"/></g><path d="m445 17 1.53 1.02 1.47-1.02-1-4z"/><path d="m511.42 59.83-1-3s-1-3 0-3 1-2 1-2a1.39 1.39 0 0 1 0-2c1-1-1-3-1-3-1 2-2 9-2 9l2 4-1 3.15v1.85l1 2-.69 2.17 3.69-.18-1-3-1-2 2-2z" transform="translate(-55.42 -44.83)"/><path d="m534.42 54.83c-1 1-2.17 1-2.58 2 0 0-.42 1-.42-1s1-2 1-3a10.07 10.07 0 0 1 1-3l1-3c-1 0-3 5-3 5l-1 5-1 3-.55-.37-2.45-1.63 1 1s4 2 3 3a3.1 3.1 0 0 0 -1 2l1 2a1 1 0 0 0 -1 1 3.49 3.49 0 0 0 1 2l2-3-1-3 .42-1.86.58-1.14 1.83-3s1.17-1 2.17-2-1-1-2 0z" transform="translate(-55.42 -44.83)"/><path d="m534.42 66.83c0 1 .41 2.33 1.2 2.16s.8-1.16.8-1.16l-1-3c0 1-1 1-1 2z" transform="translate(-55.42 -44.83)"/><path d="m494 14v-3h-1l-1 3v1l2.03 1.06z"/><path d="m549.17 66.48-.75-2.65-.22.07-.78-2.07.54 2v.16l-2.58.86c0 1-1 3 0 3h3l.42-.75.47 1.77 1.11 1-1.25-3.34z" transform="translate(-55.42 -44.83)"/><path d="m554.42 64.83c-1 0-2-2-2-2v1l-2 2s-1 1 0 1h3c1 0 2-2 1-2z" transform="translate(-55.42 -44.83)"/><path d="m571.42 53.83v3l3 1v-7c-1 1-3 2-3 3z" transform="translate(-55.42 -44.83)"/><path d="m571.42 61.83v-4h-1v4l2 4 1 3v1a1 1 0 0 0 1-1c0-1 0-3-1-4s-2-2-2-3z" transform="translate(-55.42 -44.83)"/><path d="m593.33 63 .09-4.18s-2-2-2-3a10.07 10.07 0 0 0 -1-3v-2l-2-2c0 2-1 6 0 6s2 3 2 3a3.49 3.49 0 0 1 1 2v3a2 2 0 0 1 2 2 20.34 20.34 0 0 0 1 5 2.19 2.19 0 0 0 1-3c-1-1.99-2.09-3.82-2.09-3.82z" transform="translate(-55.42 -44.83)"/><path d="m588.16 60.91a12.1 12.1 0 0 1 -1.61-.32l-.13 2.24 2 2h3a4.94 4.94 0 0 0 -1-3 3.17 3.17 0 0 0 -2.26-.92z" transform="translate(-55.42 -44.83)"/><path d="m605.42 55.83h-1s-3-1-3-2-2-1-2-2a43.79 43.79 0 0 1 .68-4.37c-.9 2.64-3.33 5.37-1.68 5.37 2 0 2 3 3 4s2 4 2 4v4s-2 1-2 2 2 1 2 1l2 1v-7l-1-4h3l4-5-4 1s-1 2-2 2z" transform="translate(-55.42 -44.83)"/><path d="m600.1 47.46a5.17 5.17 0 0 0 .32-1.63s-.14.7-.32 1.63z" transform="translate(-55.42 -44.83)"/><path d="m626.42 63.83-.92-2.77c.16.08.18 0-.08-.23-1-1-1-6-1-7s-3-3-3-3v3c0 1 2 4 2 5 0 .69 1.46 1.88 2 2.19v2.81s-1 1-1 0-2.49-2.76-2.49-2.76l-.51 2.76 2 1 2 2v2l2 1v-4c0-2-1-2-1-2z" transform="translate(-55.42 -44.83)"/><path d="m618.54 68.83 2.88-1v-1a3.49 3.49 0 0 0 -2-1c-1 0-1 2-.88 3z" transform="translate(-55.42 -44.83)"/><path d="m642.42 53.83c0 1-4 4-4 5s-1-2-1-3-1-8-1-8h-1l.73 6.78s-.73 4.22.27 5.22-1 2-1 2v4s3 2 3 2.84v-1.84l-1-3v-2a3.49 3.49 0 0 1 1-2l3-2 3-5s-2 0-2 1z" transform="translate(-55.42 -44.83)"/><path d="m651.42 65.83c-1 0-1-2-1-2l1-3a1 1 0 0 1 -1-1c0-1-1-1 0-2s-.88-.84-.88-.84c-.12.84-2.12 3.84-1.12 4.84s2 2 1 3-1 3 0 3 1-.13 2 .93 1-2.93 0-2.93z" transform="translate(-55.42 -44.83)"/><path d="m653.42 61.83v3l-1 2 .28 1.79 1.72 1.21v-3a10.07 10.07 0 0 1 1-3s-1.7.09-.85-.95a2.59 2.59 0 0 1 1.85-1.05l.88-1.11-.88-1.89c0 1-3 3-3 3z" transform="translate(-55.42 -44.83)"/><path d="m669.42 55.83a10.07 10.07 0 0 1 -1 3s-.13.4-.32 1a3.28 3.28 0 0 1 -1.68-1 3.1 3.1 0 0 0 -2-1s-1 0 0 1 1 2 2 2a2.84 2.84 0 0 0 1.54-.62 25.58 25.58 0 0 1 -1 2.67 7.27 7.27 0 0 1 -2.5 1.95v5a4.94 4.94 0 0 1 1-3 3.1 3.1 0 0 0 1-2s2-2 2-3v-2l2-1v-5c0-2-2-5-2-5-.04 2 .96 6 .96 7z" transform="translate(-55.42 -44.83)"/><path d="m676.42 60.83v-3l-1 4 2 2-1 2 1 2 2-4-2-2z" transform="translate(-55.42 -44.83)"/><path d="m688.42 51.83v-3s0-2-1-2h-1v1a22.69 22.69 0 0 0 1 4z" transform="translate(-55.42 -44.83)"/><path d="m691.42 47.83v-3c-.17.33-.33.69-.5 1.06-.81 1.85-1.5 3.94-1.5 3.94l.85 1.71c-1 .7-1.85 1.29-1.85 1.29l-1 3v7h-3l1 2 1 1s1-1 1 1-1 4 0 2a13.38 13.38 0 0 0 1-5v-9l1-2a3.49 3.49 0 0 1 2-1c1 0 1-2 1-2a19.38 19.38 0 0 1 -1.88 1.51c.19-.74.88-3.51.88-3.51z" transform="translate(-55.42 -44.83)"/><path d="m700.42 55.83a14.39 14.39 0 0 0 -2 3v3c0 1-1 2 0 2a1.1 1.1 0 0 1 .48.11l-1.48 1.89v1c-1-1-3-2-3-1v2l2.46 1.23 1.54-1.23 1-2v-1l2-2a22.69 22.69 0 0 1 -1-4c0-1 1-4 0-3z" transform="translate(-55.42 -44.83)"/><path d="m698.42 54.83 1-1c1-1 0 0-1-2s0-2-1-2 0 2 1 4z" transform="translate(-55.42 -44.83)"/><path d="m728.42 58.83v-2l1-3a4.94 4.94 0 0 0 -1-3l-3-3 1 4 .76 3.29-.76 2.71-.88-.47-3.12-5.53h-2l5 7 1.91 2 .09 5v3l2-1v-5l1.94-1.74 1.06-2.26.28-1.77-4.28 3.77z" transform="translate(-55.42 -44.83)"/><path d="m741.42 56.83c1 1 4 10 4 10l1 3 2-.82-1-3.18v-3l2-5v-2l-3 4z" transform="translate(-55.42 -44.83)"/><path d="m756.42 61.83-3-11c0 1 1 6 1 6v9l2 4h1v-6l1-2s0-4 1-5 3-8 3-8l-5 11z" transform="translate(-55.42 -44.83)"/><path d="m777.42 57.83v-2l1-2 1-4-2 1-2 3-1 1-2-7c0 1-1 6-1 6l3.14 3-.14 4-1 4s-2 2-2 3a3.49 3.49 0 0 0 1 2 1 1 0 0 0 1-1 10.07 10.07 0 0 1 1-3l1-3s.68-2 .34-2a20.63 20.63 0 0 1 2.66-1l2-2-3 1z" transform="translate(-55.42 -44.83)"/><path d="m799.42 49.83-3 3-3 1a22.69 22.69 0 0 0 1-4c0-1-3-1-3-1v7l-3.82-1c.69.36-.11 3 .82 3s4 2 4 2l1 9 1 1-.17-7.11 1.17-2.89v-4l4-1z" transform="translate(-55.42 -44.83)"/><path d="m744 17 1.53 1.02 1.47-1.02-1-4z"/><path d="m810.42 59.83-1-3s-1-3 0-3 1-2 1-2a1.39 1.39 0 0 1 0-2c1-1-1-3-1-3-1 2-2 9-2 9l2 4-1 3.15v1.85l1 2-.69 2.17 3.69-.18-1-3-1-2 2-2z" transform="translate(-55.42 -44.83)"/><path d="m833.42 54.83c-1 1-2.17 1-2.58 2 0 0-.42 1-.42-1s1-2 1-3a10.07 10.07 0 0 1 1-3l1-3c-1 0-3 5-3 5l-1 5-1 3-.55-.37-2.45-1.63 1 1s4 2 3 3a3.1 3.1 0 0 0 -1 2l1 2a1 1 0 0 0 -1 1 3.49 3.49 0 0 0 1 2l2-3-1-3 .42-1.86.58-1.14 1.83-3s1.17-1 2.17-2-1-1-2 0z" transform="translate(-55.42 -44.83)"/><path d="m833.42 66.83c0 1 .41 2.33 1.2 2.16s.8-1.16.8-1.16l-1-3c0 1-1 1-1 2z" transform="translate(-55.42 -44.83)"/><path d="m793 14v-3h-1l-1 3v1l2.03 1.06z"/><path d="m848.17 66.48-.75-2.65-.22.07-.78-2.07.54 2v.16l-2.58.86c0 1-1 3 0 3h3l.42-.75.47 1.77 1.11 1-1.25-3.34z" transform="translate(-55.42 -44.83)"/><path d="m853.42 64.83c-1 0-2-2-2-2v1l-2 2s-1 1 0 1h3c1 0 2-2 1-2z" transform="translate(-55.42 -44.83)"/><path d="m870.42 53.83v3l3 1v-7c-1 1-3 2-3 3z" transform="translate(-55.42 -44.83)"/><path d="m870.42 61.83v-4h-1v4l2 4 1 3v1a1 1 0 0 0 1-1c0-1 0-3-1-4s-2-2-2-3z" transform="translate(-55.42 -44.83)"/><path d="m892.33 63 .09-4.18s-2-2-2-3a10.07 10.07 0 0 0 -1-3v-2l-2-2c0 2-1 6 0 6s2 3 2 3a3.49 3.49 0 0 1 1 2v3a2 2 0 0 1 2 2 20.34 20.34 0 0 0 1 5 2.19 2.19 0 0 0 1-3c-1-1.99-2.09-3.82-2.09-3.82z" transform="translate(-55.42 -44.83)"/><path d="m887.16 60.91a12.1 12.1 0 0 1 -1.61-.32l-.13 2.24 2 2h3a4.94 4.94 0 0 0 -1-3 3.17 3.17 0 0 0 -2.26-.92z" transform="translate(-55.42 -44.83)"/><path d="m904.42 55.83h-1s-3-1-3-2-2-1-2-2a43.79 43.79 0 0 1 .68-4.37c-.9 2.64-3.33 5.37-1.68 5.37 2 0 2 3 3 4s2 4 2 4v4s-2 1-2 2 2 1 2 1l2 1v-7l-1-4h3l4-5-4 1s-1 2-2 2z" transform="translate(-55.42 -44.83)"/><path d="m899.1 47.46a5.17 5.17 0 0 0 .32-1.63s-.14.7-.32 1.63z" transform="translate(-55.42 -44.83)"/><path d="m925.42 63.83-.92-2.77c.16.08.18 0-.08-.23-1-1-1-6-1-7s-3-3-3-3v3c0 1 2 4 2 5 0 .69 1.46 1.88 2 2.19v2.81s-1 1-1 0-2.49-2.76-2.49-2.76l-.51 2.76 2 1 2 2v2l2 1v-4c0-2-1-2-1-2z" transform="translate(-55.42 -44.83)"/><path d="m917.54 68.83 2.88-1v-1a3.49 3.49 0 0 0 -2-1c-1 0-1 2-.88 3z" transform="translate(-55.42 -44.83)"/><path d="m941.42 53.83c0 1-4 4-4 5s-1-2-1-3-1-8-1-8h-1l.73 6.78s-.73 4.22.27 5.22-1 2-1 2v4s3 2 3 2.84v-1.84l-1-3v-2a3.49 3.49 0 0 1 1-2l3-2 3-5s-2 0-2 1z" transform="translate(-55.42 -44.83)"/><path d="m950.42 65.83c-1 0-1-2-1-2l1-3a1 1 0 0 1 -1-1c0-1-1-1 0-2s-.88-.84-.88-.84c-.12.84-2.12 3.84-1.12 4.84s2 2 1 3-1 3 0 3 1-.13 2 .93 1-2.93 0-2.93z" transform="translate(-55.42 -44.83)"/><path d="m952.42 61.83v3l-1 2 .28 1.79 1.72 1.21v-3a10.07 10.07 0 0 1 1-3s-1.7.09-.85-.95a2.59 2.59 0 0 1 1.85-1.05l.88-1.11-.88-1.89c0 1-3 3-3 3z" transform="translate(-55.42 -44.83)"/><path d="m968.42 55.83a10.07 10.07 0 0 1 -1 3s-.13.4-.32 1a3.28 3.28 0 0 1 -1.68-1 3.1 3.1 0 0 0 -2-1s-1 0 0 1 1 2 2 2a2.84 2.84 0 0 0 1.54-.62 25.58 25.58 0 0 1 -1 2.67 7.27 7.27 0 0 1 -2.5 1.95v5a4.94 4.94 0 0 1 1-3 3.1 3.1 0 0 0 1-2s2-2 2-3v-2l2-1v-5c0-2-2-5-2-5-.04 2 .96 6 .96 7z" transform="translate(-55.42 -44.83)"/><path d="m975.42 60.83v-3l-1 4 2 2-1 2 1 2 2-4-2-2z" transform="translate(-55.42 -44.83)"/><path d="m987.42 51.83v-3s0-2-1-2h-1v1a22.69 22.69 0 0 0 1 4z" transform="translate(-55.42 -44.83)"/><path d="m990.42 47.83v-3c-.17.33-.33.69-.5 1.06-.81 1.85-1.5 3.94-1.5 3.94l.85 1.71c-1 .7-1.85 1.29-1.85 1.29l-1 3v7h-3l1 2 1 1s1-1 1 1-1 4 0 2a13.38 13.38 0 0 0 1-5v-9l1-2a3.49 3.49 0 0 1 2-1c1 0 1-2 1-2a19.38 19.38 0 0 1 -1.88 1.51c.19-.74.88-3.51.88-3.51z" transform="translate(-55.42 -44.83)"/><path d="m999.42 55.83a14.39 14.39 0 0 0 -2 3v3c0 1-1 2 0 2a1.1 1.1 0 0 1 .48.11l-1.48 1.89v1c-1-1-3-2-3-1v2l2.46 1.23 1.54-1.23 1-2v-1l2-2a22.69 22.69 0 0 1 -1-4c0-1 1-4 0-3z" transform="translate(-55.42 -44.83)"/><path d="m997.42 54.83 1-1c1-1 0 0-1-2s0-2-1-2 0 2 1 4z" transform="translate(-55.42 -44.83)"/><path d="m1013.42 58.83v-2l1-3a4.94 4.94 0 0 0 -1-3l-3-3 1 4 .76 3.29-.76 2.71-.88-.47-3.12-5.53h-2l5 7 1.91 2 .09 5v3l2-1v-5l1.94-1.74 1.06-2.26.28-1.77-4.28 3.77z" transform="translate(-55.42 -44.83)"/><path d="m1026.42 56.83c1 1 4 10 4 10l1 3 2-.82-1-3.18v-3l2-5v-2l-3 4z" transform="translate(-55.42 -44.83)"/><path d="m1041.42 61.83-3-11c0 1 1 6 1 6v9l2 4h1v-6l1-2s0-4 1-5 3-8 3-8l-5 11z" transform="translate(-55.42 -44.83)"/><path d="m1062.42 57.83v-2l1-2 1-4-2 1-2 3-1 1-2-7c0 1-1 6-1 6l3.14 3-.14 4-1 4s-2 2-2 3a3.49 3.49 0 0 0 1 2 1 1 0 0 0 1-1 10.07 10.07 0 0 1 1-3l1-3s.68-2 .34-2a20.63 20.63 0 0 1 2.66-1l2-2-3 1z" transform="translate(-55.42 -44.83)"/><path d="m1084.42 49.83-3 3-3 1a22.69 22.69 0 0 0 1-4c0-1-3-1-3-1v7l-3.82-1c.69.36-.11 3 .82 3s4 2 4 2l1 9 1 1-.17-7.11 1.17-2.89v-4l4-1z" transform="translate(-55.42 -44.83)"/><path d="m1029 17 1.53 1.02 1.47-1.02-1-4z"/><path d="m1095.42 59.83-1-3s-1-3 0-3 1-2 1-2a1.39 1.39 0 0 1 0-2c1-1-1-3-1-3-1 2-2 9-2 9l2 4-1 3.15v1.85l1 2-.69 2.18 3.69-.18-1-3-1-2 2-2z" transform="translate(-55.42 -44.83)"/><path d="m1118.42 54.83c-1 1-2.17 1-2.58 2 0 0-.42 1-.42-1s1-2 1-3a10.07 10.07 0 0 1 1-3l1-3c-1 0-3 5-3 5l-1 5-1 3-.55-.37-2.45-1.63 1 1s4 2 3 3a3.1 3.1 0 0 0 -1 2l1 2a1 1 0 0 0 -1 1 3.49 3.49 0 0 0 1 2l2-3-1-3 .42-1.86.58-1.14 1.83-3s1.17-1 2.17-2-1-1-2 0z" transform="translate(-55.42 -44.83)"/><path d="m1118.42 66.83c0 1 .41 2.33 1.2 2.16s.8-1.16.8-1.16l-1-3c0 1-1 1-1 2z" transform="translate(-55.42 -44.83)"/><path d="m1078 14v-3h-1l-1 3v1l2.03 1.06z"/><path d="m1133.17 66.48-.75-2.65-.22.07-.78-2.07.54 2v.16l-2.58.86c0 1-1 3 0 3h3l.42-.75.47 1.77 1.11 1-1.25-3.34z" transform="translate(-55.42 -44.83)"/><path d="m1138.42 64.83c-1 0-2-2-2-2v1l-2 2s-1 1 0 1h3c1 0 2-2 1-2z" transform="translate(-55.42 -44.83)"/><path d="m1155.42 53.83v3l3 1v-7c-1 1-3 2-3 3z" transform="translate(-55.42 -44.83)"/><path d="m1155.42 61.83v-4h-1v4l2 4 1 3v1a1 1 0 0 0 1-1c0-1 0-3-1-4s-2-2-2-3z" transform="translate(-55.42 -44.83)"/></g></svg>