<svg height="184.9" viewBox="0 0 48 184.9" width="48" xmlns="http://www.w3.org/2000/svg"><path d="m183.14 582c-.24.65-.53 1.18-.64 1.18s-.33-.26-.51-.57a29.89 29.89 0 0 0 -4.54-5.42l-.71-.59h-4.23v-.75c0-1 .34-2 1.58-4.62 1.15-2.45 1.36-3.07 1.36-4.13 0-.66-.06-.8-.77-1.54l-.77-.81.47-.69a3.36 3.36 0 0 0 .47-.81c0-.08-.54-1.27-1.23-2.65a15.34 15.34 0 0 1 -1.62-4.6c-.26-1.15-.49-2.25-.53-2.46s.06-.47.65-.91c1-.75 1.09-.92.71-1.69a8.94 8.94 0 0 0 -1-1.54l-.69-.91.09-1.59a4.4 4.4 0 0 1 .33-1.86c.18-.21.2-.48.12-1.36-.06-.61-.16-4.67-.24-9-.13-8.68-.16-9-1.07-10.83a11 11 0 0 0 -8.76-5.84 7.73 7.73 0 0 0 -1.36 0 4.7 4.7 0 0 0 -2.57 1.65c-1.69 1.74-3.28 4.29-6.05 9.84-2.56 5.12-5 9.09-6.52 10.8-.68.76-.84.85-1.3.82-.3 0-.57 0-.63.16a8.43 8.43 0 0 0 -.23 3.24l.09 1.26-1.42 1.42a8.44 8.44 0 0 0 -2 2.72 10.5 10.5 0 0 0 -1.21 4.76c-.15 2.83.54 6 2.75 12.43a84 84 0 0 0 3.84 9.8 11.15 11.15 0 0 0 3.81 4.8 3.9 3.9 0 0 1 1.05 1 38.85 38.85 0 0 1 -2 4.94c-.77 1.56-1.62 13.53-2.47 14.52l-2.75 11.68-7 41a6.22 6.22 0 0 0 1.19 1.41 10.3 10.3 0 0 1 1.29 1.35c.22.3 8.43-4.1 5.93 11.44-.09 5.71-.08 6.56.15 7.68l.26 1.26-.4.69a3.63 3.63 0 0 0 -.37.83 7.23 7.23 0 0 0 .37 1.11c.38.92.38 1 .15 1.54s-.22.77-.06 2.12a14 14 0 0 1 .09 2.42 25.2 25.2 0 0 1 -2 6.17c-1.33 3.14-2.36 4.93-3.42 6a8.57 8.57 0 0 0 -1.92 3.25c0 .09.26.3.57.45 1.11.53 6 .21 8.76-.59l1.18-.33.12-.95a22.49 22.49 0 0 1 1.41-4.6c.24-.49.51-.56.51-.17a30 30 0 0 0 .43 4 4.94 4.94 0 0 0 1.1.2l1 .09.1-1.24c.06-.69.28-2.45.49-3.9a43.92 43.92 0 0 0 .6-7.44 6 6 0 0 0 -.78-1.59c-1.53-2.27-1.56-2.52-.75-6.2.29-1.36.64-3.3.75-4.31a12 12 0 0 1 .6-2.84c.87-18.39 6.38-12.25 6.75-10.66a4.14 4.14 0 0 1 .13 2.45 10.16 10.16 0 0 0 .08 4.28c.24 1.54.27 2.26.18 6.5l-.11 4.76-.51 1.06c-.29.58-.88 1.66-1.32 2.42l-.8 1.35v1.75a33.32 33.32 0 0 0 .63 5.52c.36 2.07.68 4 .73 4.36l.09.59.94-.11a3.5 3.5 0 0 0 1-.21 22.87 22.87 0 0 0 .29-2.44 14.62 14.62 0 0 1 .3-2.48c.39-.41 1 .9 1.27 2.88.38 2.45 1 3.64 2 4.08a23.9 23.9 0 0 0 6.16.48c2.16 0 2.23-.06 2.61-.42a1.4 1.4 0 0 0 .41-1c0-.65-.3-1.08-1.41-1.83a10.78 10.78 0 0 1 -3.31-3.87c-2.21-5.37-2.33-8.34-.6-16.49.68-3.25.89-4.76 1.89-13.84.38-3.41.78-6.45.9-6.77.4-1 7.24 1.16 7-1.94a86.21 86.21 0 0 1 .47-10.49c.33-3.5 1.39-12.37 1.57-21.77.16-8.62-2.26-23.3-2.26-24a3.47 3.47 0 0 0 -.22-1.59 3.62 3.62 0 0 1 -.32-1.24l-.09-.89 1-1.21a16.13 16.13 0 0 0 2.39-4.06 17.85 17.85 0 0 1 1.54-2.82c.11 0 .26.25.37.56a21.87 21.87 0 0 0 .92 2.05" fill="#423a32" transform="translate(-135.5 -517.92)"/></svg>