<svg height="223.02" viewBox="0 0 1776.19 223.02" width="1776.19" xmlns="http://www.w3.org/2000/svg"><g fill="#423a32" transform="translate(-124.79 -358.61)"><path d="m1411.29 468-.7-8.46 10.57-14.16-12.46-6.14-11.32 20v4.88l-4.56 4.4-.48-2.83 2.21-6.13v-13.09l-3.46-5.51-4.88-10.54-2.68-13.37-3.46-9.75-5.19-5.82-4.25-2.83-8.49-4.25-2.83-3.3-.63-3.78 1.73-6.45h.79l.94-4.4h1.89l.31-2.84-4.56-4.24-4.88-2.84-9-1.1-10.7-1.25-1.42 2.67.48 2.2 1.25 1.1-.47 3 .16 2.68-5.82 1.93 2.2 1.37 3.78.16v2.69l1.41.79-1.57 2.2-1.42 2.05.48 1.41 1.88.47v2.21l1.26.62-.78.95 1.57 1.57v2.36l2.52.47s3-.31 3.46-.31a12 12 0 0 1 1.73.31l.47 2.05-.16 2-2.36.16-3.77 4.25-11.33 13.68-2.2 1.26-.63-1.26a45.72 45.72 0 0 0 .78-5.5c-.15-.47 1.89-1.57 1.89-1.57l2.83-4.41-2-2.83-1.26 1.41-2-2.67-1.26-4.09-2.05 1.1-2 3.93-1.73 3.78-.16 4.56-5.82 10.23 1.57 9.12 5.66 6.29 8 2.84 2.63-.43s7.08-6.76 7.55-6.6 2.36 3.46 2.36 3.46l-3 2.83.32 3.15-3.78.62-1.89 6.3 1.42 11 2.52 2-2 11.8 2.83 2.76 1.26 26.5 1.58 12.27 5.5 8.81-.63 37.44-2.67 4.56-8.34 1.58-4.25.78v4.74l2.68 1.58 19.5.78v2l5.92.78 14.53-2.51.95-4.72-.63-6 .63-7.86 2.2-3.15 2-23.28-.32-8.34.32-5 2.2-2 .63-17h1.89l13 5.66 1.58-4.87-11-5.67 4-4.72 3.68-3.61-1.89-5.2 2.52-1.41-.63-3.46 1.1-2.68 3.15-4.09 7.24-2.51.78-4.25 1.17-1 .23 12.5.28 9.39 1.14 8.82 1.28 6-.28 11.95-.57 4-1.06 3.87-3.27 6.54-3.7 4-5.26 2.56-5.41.28-4.13-1.28-3.55-2.42-3.42-1-1.88-5.26v5.24l1.88 1.73 10.67 4h6s5.26-2.42 5.69-2.42 4-4.41 4-4.41l4.84-10.81.43-8.11.42-9.39-.85-3.13s.28-6.12.43-6.55.4-20.57.4-20.57z"/><path d="m1896.05 529.8 3.77-2.61.87-26.68-2.61-4.06v-15.66l2.32-4.93.58-35.67-8.7-25.82-3.48-5.51-8.41-4.64-4.64-4.64 2-4.64.29-5.8 3.77-1.45v-2.9s-.58-13.34-13-14.21-13.65 17.42-12.81 17.42h3.19l.87 8.7h-1.74l-4.06 6.67-3.75 2.59-2.25-47.33-.48 49.22-5.71 3.93-1.15 2.66v-.05l-3.48-5.51-8.41-4.64-4.64-4.64 2-4.64.29-5.8 3.77-1.45v-2.9s-.58-13.34-13-14.21-13.63 17.4-12.76 17.4h3.19l.87 8.7h-1.75l-4.06 6.67-3.75 2.59-2.19-47.35-.48 49.22-5.71 3.93-1.15 2.66v-.05l-3.48-5.51-8.41-4.64-4.64-4.64 2-4.64.29-5.8 3.77-1.45v-2.9s-.58-13.34-13.05-14.21-13.63 17.4-12.76 17.4h3.19l.87 8.7h-1.74l-4.06 6.67-3.75 2.59-2.25-47.33-.48 49.22-5.7 3.93-1.15 2.66v-.05l-3.48-5.51-8.41-4.64-4.64-4.64 2-4.64.29-5.8 3.77-1.45v-2.9s-.58-13.34-13-14.21-13.7 17.42-12.84 17.42h3.19l.87 8.7h-1.74l-4.06 6.67-3.75 2.59-2.25-47.33-.48 49.22-5.7 3.93-1.15 2.66v-.05l-3.48-5.51-8.41-4.64-4.64-4.64 2-4.64.29-5.8 3.77-1.45v-2.9s-.58-13.34-13-14.21-13.66 17.4-12.79 17.4h3.19l.87 8.7h-1.73l-4.06 6.67-3.75 2.59-2.25-47.33-.48 49.22-5.7 3.93-1.15 2.66v-.05l-3.48-5.51-8.41-4.64-4.64-4.64 2-4.64.29-5.8 3.77-1.45v-2.9s-.58-13.34-13.05-14.21-13.63 17.4-12.76 17.4h3.19l.87 8.7h-1.74l-4.06 6.67-3.75 2.59-2.25-47.33-.48 49.22-5.7 3.93-8.41 19.42-8.7 18.85 7.25 36.25 3.48-.58 3.48 5.8 4.06 2.9-2.32 28.13 4.35 2.61-1.45 12.18 2.32 31.33-4.64 7 .87 3.19h14.5l.29-23.21 1.16-11.6 2.9-4.64.87-3.48 14.79-.29 1.16 23.21-.58 18.56h15.85l.4 1.45h14.5l.29-23.21 1.17-11.65 2.9-4.64.87-3.48 14.79-.29 1.16 23.21-.58 18.56h15.86l.4 1.45h14.5l.29-23.21 1.16-11.6 2.9-4.64.87-3.48 14.79-.29 1.16 23.21-.58 18.56h15.85l.4 1.45h14.5l.29-23.21 1.16-11.6 2.9-4.64.87-3.48 14.79-.29 1.16 23.21-.58 18.56h15.85l.39 1.45h14.51l.29-23.21 1.13-11.6 2.9-4.64.87-3.48 14.79-.29 1.16 23.21-.58 18.56h15.86l.39 1.45h14.5l.29-23.21 1.17-11.6 2.9-4.64.87-3.48 14.79-.29 1.16 23.21-.58 18.56h19.14l4.06-1.16-.29-3.48-9.28-2.9-1.45-10.44.87-20.31zm-263.05 29.59.87-20.31 5.51-9.28-.9 7.56 2.32 31.33-1.74 2.61-4.65-1.45zm51.34 0 .87-20.31 5.51-9.28-.9 7.56 2.32 31.33-1.75 2.61-4.64-1.45zm51.34 0 .87-20.31 5.51-9.28-.9 7.56 2.32 31.33-1.75 2.61-4.64-1.45zm51.34 0 .87-20.31 5.51-9.28-.91 7.56 2.32 31.33-1.74 2.61-4.64-1.45zm51.34 0 .87-20.31 5.51-9.28-.9 7.56 2.32 31.33-1.74 2.61-4.64-1.45z"/><path d="m179.18 375.17a24.16 24.16 0 0 0 -4.77 1.62c-2 1-2.35 1.64-3.39 6.42-.29 1.29-.6 3-.69 3.71a21.33 21.33 0 0 1 -.53 2.62 4.85 4.85 0 0 0 .26 3.79c.56 1.36.74.86-1.6 4.47a19.66 19.66 0 0 1 -4.09 4.73 16.85 16.85 0 0 0 -3.39 3.76c-.43.69-1.06 1.65-1.4 2.11a45.07 45.07 0 0 0 -4.25 6.92 17.14 17.14 0 0 0 -2.14 5.87 15.5 15.5 0 0 1 -.51 2.32 2.12 2.12 0 0 1 -1.38 1.7c-1 .57-1 .64-2.15 2.77a20.31 20.31 0 0 1 -1.71 2.87 41.91 41.91 0 0 0 -5.44 10.29c-.54 1.68-3.64 10.06-7.27 19.43a31.25 31.25 0 0 0 -1.92 6c-.27 1.66-.27 1.68.13 2.24l.37.51-.37 1.3a11.11 11.11 0 0 1 -1.53 3.06c-.63 1-1.57 2.5-2.1 3.35s-1.36 2.14-1.87 2.8a28.73 28.73 0 0 0 -1.81 2.69c-.86 1.42-.89 1.52-.69 2.06a1.63 1.63 0 0 0 .31.58c.06 0 .82-.74 1.72-1.61a21.7 21.7 0 0 1 1.71-1.61 5.3 5.3 0 0 1 -.47 1.39 37 37 0 0 0 -1.7 4.47c-.2.75-.18.86.06 1.11a1.8 1.8 0 0 1 .29 1.12c0 .71.07.8.48.91s.56 0 2.82-3.09l2.35-3.22.09 3.76c.08 3.46.1 3.77.41 4s1.13.32 1.13.12a85.64 85.64 0 0 1 1.37-8.56c.22-.49.43-1.06.53-1.29.16-.4.18-.4.64.43a8.09 8.09 0 0 0 2.63 2.64 2.32 2.32 0 0 0 .72.27 8.06 8.06 0 0 0 -.27-1.4 44.76 44.76 0 0 1 -1-7.83v-1.62l4.52-7.82c4.46-7.82 4.52-7.9 5.44-10.75l1-2.89v4.06a41.75 41.75 0 0 1 -1.13 12.35c-.43 2.13-.91 5.36-1.13 7.16a17.78 17.78 0 0 0 -.07 5.4l.26 2.15 1.13 1.12a5.51 5.51 0 0 1 1.13 1.37c0 .14.2 1.66.44 3.36.7 4.89.66 5.42-1.21 16.44-2.26 13.05-3.86 24.32-5.92 40.41-1 7.52-1 8.37-1 11.67 0 3.48 0 3.58-.58 5.59l-.58 2.11v9.12l.8.27c1.13.33 5.59 1.55 6.63 1.81a12.58 12.58 0 0 1 2.33.93 18 18 0 0 0 6.77 2c4.07.69 5.57.73 8.2.23 1.76-.32 2-.4 2.52-1l.61-.62-.41-1.59a8.53 8.53 0 0 0 -.55-1.71 35.18 35.18 0 0 0 -3.67-2.76 30.53 30.53 0 0 1 -3.07-2.48 13.17 13.17 0 0 0 -1.88-1.62.74.74 0 0 1 -.42-.55 12.19 12.19 0 0 0 -.4-1.63c-.43-1.65-.27-2.41 1.13-5.59a15 15 0 0 0 1.65-5.72 40 40 0 0 1 2-8.37c.48-1.54 1.42-5.26 2.11-8.29 2-8.61 2.86-12.36 3-12.21a41.92 41.92 0 0 1 1.79 6.11c.44 2.14 2.44 9.36 2.64 9.49.37.27 1.07 2.51 2.83 9.21 1.4 5.27 1.93 7.55 2.71 11.84.35 1.85.65 3.35.67 3.42s1.5-.35 3.32-.8 3.38-.85 3.51-.85c.43 0 1 1.71 1.92 6 1 4.74 1.44 6.18 2 6.63.74.66 2.58.25 6.13-1.39 1.08-.49 3.13-1.28 4.52-1.75 3.39-1.12 7.8-2.9 9.73-3.8 1.64-.78 3.64-2.43 7.3-6l1.67-1.61-.64-.66c-2.08-2.12-2.62-2.15-5.65-.34l-1.28.79-1.75-.17a77.94 77.94 0 0 1 -8.63-1.22 3.32 3.32 0 0 1 -2.49-1.86c-.13-.23-.71-2-1.27-4-1.63-5.47-4.68-16.12-5.37-18.57l-.61-2.24v-4.47a41.11 41.11 0 0 0 -.26-6.07c-.36-2.11-2.58-11.8-3-13.1-1.49-4.47-1.49-4.47-1.85-7.54-.18-1.7-.43-4.29-.53-5.72a14.49 14.49 0 0 0 -1-5.4 19.45 19.45 0 0 1 -.75-2.35 7.5 7.5 0 0 1 -.33-3.05c0-.8 0-2.87-.15-4.59a30.45 30.45 0 0 1 -.18-3.2s.66 1.21 1.41 2.76a20.49 20.49 0 0 0 1.5 2.81c.09 0 1.35-.27 2.83-.63 2-.46 2.79-.58 3-.46a5.08 5.08 0 0 1 .72 1.26 29 29 0 0 0 1.57 3c.61 1.12 1.36 2.51 1.67 3.17l.56 1.23h2.15c3.93 0 5.52-.51 6.58-2.06a7.62 7.62 0 0 0 .92-2c.18-.73.37-1.11.51-1.11a3.05 3.05 0 0 0 1.82-.6 1 1 0 0 0 .25-1.43.81.81 0 0 0 -.12-.14 13.63 13.63 0 0 0 -2.26-1.05 8.49 8.49 0 0 1 -2.64-1.4c-.41-.38-1.84-1.49-3.2-2.49-2.26-1.63-2.46-1.88-2.63-2.51a15.39 15.39 0 0 0 -2.14-4c-4-5.68-4.1-5.88-5.65-9.34-1.69-3.77-2-4.75-2.17-7.1-.1-1.12-.2-2.24-.26-2.54s-.17-1.66-.26-3.05-.3-3.44-.45-4.56a134.17 134.17 0 0 1 -.09-17.25c.41-2.6.23-4.77-.89-10a43.32 43.32 0 0 0 -1.64-6.26c-.36-.93-.79-2.12-.93-2.64a41.43 41.43 0 0 1 -.94-6.27c0-1 .3-1.25 2-1.85a3.64 3.64 0 0 0 2-1.21c1.29-1.39 1.61-2.24 2.26-6 .1-.58.47-1.92.78-3a19.85 19.85 0 0 0 .84-3.74 6.46 6.46 0 0 1 .61-2.7c1-1.85 1-1.83.25-4.53a34.68 34.68 0 0 0 -1.13-3.3 6.88 6.88 0 0 0 -5.24-3.53 22.4 22.4 0 0 0 -5.82-.15z"/></g></svg>