<svg height="599" viewBox="0 0 505 599" width="505" xmlns="http://www.w3.org/2000/svg"><path d="m148.49 6.957c2.141 2.443.591-.1 1 4.017l-2.009-2.009q.508-1.003 1.009-2.008zm-3.012 4.017h3.012l-3.012 10.043 6.025-2.008v4.017c-6.041 2.444-6.131 8.41-5.021 15.064h5.018c2.675-2.18 2.807-2.017 4.017-6.026l-8.034-2.009c7.341.241 10.306.657 11.047-4.017l1 2.009c2.064 1.361 1.616 1.125 3.013 3.013l-13.043 11.047c1.469 4.275 8.1 13.186 11.046 16.069h1c2.035-18.278 6.586-24.741 1-34.145l6.026-1c4.605 11.083 29.065-.948 29.123-1-1.453-3.111-1.215-.858-1-5.021 5.932 1.313 2.684 1.5 9.038 0l-5.021 6.026h6.026q-2.008 3.012-4.017 6.026l6.025-3.013-5.021 6.026h4.017c1.844-2.586 5.25-3.258 3.013-1 2.292 4.836 2.808 1.167 0 6.026 3.144-.591 9.089-3.287 6.025-2.009h3.013l-2.009 1c-1.523 1.814-3.789 4.682-3.012 7.03l2.008-2.022c6.9-4.926 8.447-10.718 8.034-18.077l5.022 3.013q-2.008 4.519-4.017 9.039l8.034 4.017q.5-2.511 1-5.021c1.619 1.679 3.837 1.875 6.026 3.013l-5.018 4.016 6.026 6.026v-2.006c1.776-3.144.077-6.982 0-11.047 3.563-1.913 3.907-2.6 5.021-7.03q.5 1.506 1 3.013h4.017l-8.025 6.026c.407 4.047.329 3.928 2.009 6.026 4.839-2.958 7.644-5.425 15.064-6.026v1h-2.009l-13.064 8.038v1c3.82.4 1.249-1.129 4.017 1-.34 4.2.428 4.515-2.009 9.039l5.022-4.017c-.781-4.445-2.021-1.837 0-5.021 2.447 1.758 1.578-2.65 3.013 0l12.057 3.021-4.017 2.009v2.009h3.012q1.507-2.008 3.013-4.017c1.265 3.036-.018 1.2 2.009 3.013q.5-1.506 1-3.013l-2.009-1c-3.3-3.06-3.116.274-5.021-5.021 5.3 1.247 3.719 2.675 7.03 1 1.931-1.4.6-.1 2.009-2.009l-3.013 2.009q.5-5.523 1-11.047l7.03-2.009c-1.243 4.171-4.682 7.421-3.013 8.034 2.068 4.719 3.014 2.675 4.017 5.021h-5.021q.5 1.506 1 3.013c6.75-3.435 8.98-4.959 15.064-10.043q-2.511-5.523-5.021-11.047h1v2.009c5 3.824 3.779 5.193 7.03 11.047v-2.01c2.664-4.477 1.465-6.856 2.008-10.043 3.861.619 4.66-3.269 8.034-5.021q-4.015 9.038-8.034 18.077l6.026-3.013-1.995 3.01c-1.852 3-2.006-.652-4.017 4.017l4.017 1 2.009-2.008c3.641-1.89 4.994-3.544 7.03-7.03-4.14.085-1.23 2.058-4.017-1l4.017-1c3.526.357 9.917-6.843 15.064-11.047-2.131 6.219-9.682 12.853-15.064 16.068v7.03h1l13.055-9.038q-.5 1.506-1 3.013c-1.566 6.487-12.7 6.9-22.094 14.06q-.5 4.519-1 9.039h10.043c.563-3.445-.64-1.045 2.008-4.017l3.013 1v5.023l3.013-1q-.5-2.511-1-5.021c4.981 1.011 3.122-.5 8.034-4.017q-1 3.013-2.009 6.026h1c.852-4.326 1.075-4.945 4.017-7.03v1l-2.008 5.021h1c7.952-1.938 10.5 4.715 20.085-2.009l-3.012 6.026 9.038 1-1 2.008h-6.03q1.005 2.51 2.009 5.021l6.025-2.008c1.838-3.5.848-2.7 5.022-4.017l-1.005-15.06 2.009 1c.208 4.331.263 4.847 2.008 7.03v-2.004q1-4.519 2.009-9.038c-4.946-3.29-6.965-6.812-9.038-13.056l3.012 2.009c2.04 5.507 5.436 8.989 9.039 13.056v-2.01l9.038-11.047-16.068 32.137 9.038 1q-.5 1-1 2.008l-3.013 1c-2.486-1.27-5.569.19-4.017-2.009-2.024 1.524-2.677 2.9-4.017 5.021l2.009 3.013c5.784-3.177 10.172-.169 16.068-5.021l-3.013 1c2.6-3.225 3.335-2.692 9.038-3.013v1l-5.021 2.009c2.635 2 2.323.612 4.017 4.017-2.063 1.361-1.616 1.125-3.013 3.013-4.842-1.944-7.857-2.665-11.046 0l3.012-1-3.016 4.035 14.059-4.017c-.284 6.69 2.078 5.152-3.013 6.026v3.013c-3.235-2.741-4.914-3.692-11.046-4.017v1l5.021 1c-14.594 1.79-16.549 7.507-33.141 11.048-2.11 5.762-2.147 9.667-8.034 12.051l2.009 3.013h1c6.715-1.879 22.669-11.908 31.132-9.039-1.279-4.683-2.071-3.468-4.017-7.03 3.886.367 4.165-.868 6.026 1l5.021 1c-.927 4.867-1.955 1.465 1 5.021-8.757.379-18.882.971-26.111 5.022v1l2.009 3.013c1.637-4.388.042-2.954 5.021-4.017v1c-3.6 1.79-1.189-.533-3.013 3.013l16.069-1q.5-1 1-2.009l10.042 4.017 1-1c-4.16-3.913-3.632-3.668-8.034-3.013 4.436-10.276 11.784-17.14 16.084-26.095l10.042-2.009-2.007 2.009c-3.065 2.85-7.428 2.918-11.047 8.034h5.021c-4.248 3.77-3.664.834-1 6.026h2.009q-1.507 3.514-3.013 7.03c3.588-1.868 15.618-5.914 17.072-16.069-4.545-.863-2.988.117-5.021-3.013 3.32 1.379 4.309 1.823 8.034 1q.5-1.506 1-3.013c-2.417-1.8-1.687-.517 0-3.013 2.581 4.663.334 3.082 5.022 2.009q-1.512 2.009-3.012 4.018l2.008 3.013 3.013-2.009c-.458-6.74-2.087-5.107 1-10.043h1q.5 1 1 2.008c-3.411 7.569-9.655 12.857-13.055 18.078 10.877-.171 10.838-4.12 19.081-6.026v1h-1.997c-3.537 5.152-10.91 7.431-17.072 7.03l2.008 4.017-4.017-4.017-9.038 3.013c.344 2.219 1.155 1.394-1 2.009-5.562 3.215-6.477 6.836-6.025 16.068h1c1.972-2.075.376-1.04 4.017-2.009v3.013c-3.283 2.315-.88.1 0 4.017-4.843-.348-4.427-.6-8.034 1v9.038h1c4.958-3.5 7-2.195 11.047-3.013v-5.021c4.259 3.191 1.739 3.438 7.03 2.009q-1 3.515-2.009 7.03h1l4.017-4.018c4.076-1.713 4.042-2.414 6.025-6.025h-8.034c7.814-4.83 8.491-11.414 15.064-14.06-2.66 4.39-4.823 6.734-6.025 13.055 5-1.074 7.4-2.7 10.042-6.025-1.965-2.2-2.152-5.794-4.017-9.039 3.6 1.824 4.723 4.123 7.03 7.03l4.017-3.013-15.056 17.081c6.842-2.805 14.193.6 17.073 3.013q.5 2.511 1 5.021l10.043-6.025v1c-2.033 2.564-2.758 2.588-6.026 4.017l3.013 3.013c3.976.443 7.194 1.185 11.047 6.026-6.753-2.171-15.2-7.76-20.086-3.013 3.2 1.685 1.142-.5 2.009 3.013l-10.043-2.009c3.673 3.632 21.463 6.633 28.12 6.026-1.1 4.022-1.606 3.813-2.009 6.025l-17.072-1h-1c3.08 6.768 11.968 5.156 18.077 11.047l-6.025-2.008q1 1.506 2.008 3.013l-13.055-6.026c1.047 2.64 1.569 1.664 1 4.017l-6.026-5.021c1.047 2.64 1.57 1.664 1 4.017l-7.03-5.022c3.324 4.926 7.494 11.747 13.055 11.047q-.5 1.507-1 3.013h-5.021c-3.261-8.674-12.863-8.257-22.094-9.038 5.736 9.565 9.152 8.318 20.085 11.047v1h-11.043c.779.3 15.494 10.5 16.068 12.051-6.826-.128-2.545-.726-7.029 2.009l-7.03-9.039c-6.01.637-9.525-3.949-15.064-1l2.008 1c2.68 2.811 2.821 3.013 7.03 2.009-1.951 3.05-.329 1.049-3.013 2.009 3.246 7.823 10.622 16.32 19.081 19.081v1c-5.274.51-1.916-.275-6.025 2.009.67-10.772-27.248-30.85-30.128-29.124-1 .123-.264.371 0 1l-5.021 2.008 3.012 1c2.847-1.115 1.461-.869 4.017-1q-1 1.507-2.008 3.013l-6.026-1 3.013 3.013c7.716-.951 18.408 5.4 19.081 8.034l-5.021 1v1l8.034 2.008v1c-5.685-.211-6.743-1.089-10.043-3.013v3.039l-5.021-4.018 2.008 4.018c-3.494-2.363-6.083-3.419-11.046-5.022l2.008-2.008h3.013c-2.29-3.547-5.417-3.927-11.047-4.018v1l6.026 3.013v1c-6.792.086-7.013 3.432-11.047 0-3.383-1.484-2.657-1.992-7.03-3.013-1.983 1.819-.025.449-4.017 0v3.013l4.017 3.013c-4.521-.875-3.459-.927-6.026-3.013 1.645 5.4 4.409 5.967 7.03 10.043h-1l-10.043-11.047h-2.008c-2.3 6.071-4.081 14.725-8.035 17.072 1.56-6.063 2.913-8.471 1-13.055 4.269-.713 3.983.141 5.021-6.026-8.969.5-17.232 3.357-21.089 9.039l3.012-1-3.012 6.026c-3.77-3.037-2.47-2.658-8.035-2.009q-2.007 3.014-4.017 6.026c3.96 1.832 4.515 2.747 6.026 7.03l-6.026-6.026-2.008 1q-2.511 4.015-5.021 8.034c13.8.429 24.6 5.047 37.157 2.008q-1.506 2.008-3.013 4.018l-2.008 1c-10.308-1.866-23.514-7.76-33.141-4.017 5.738-.062 8.227.465 11.047 3.013h-12.05v1l3.013 8.034c7.038 7.319 22.574-.585 33.14 8.034l6.026 10.043h-2.008c-2.483-9.4-12.11-12.812-20.086-15.064v1c2.186 5.982 2.03 12.207 9.039 14.06-2.534 4.115-.974 2.109-2.009 6.026l2.009 2.008 15.064 1c2.6-11.814 26.133-14.667 34.145-28.12l-3.013-2.009 4.017-1q-.5 1-1 2.009c5.582-2.9 4.508-7.669 9.038-11.048l14.06-4.017c-2.928-1.615-4.121-1.137-3.013-4.017l3.013 3.013c2.653-3.179 2.247-.067 1-4.017h5.021v1l-3.013 4.017c8.112-3.714 12.829-6.582 17.073-11.047 1.929 6.221 5.421 4.673 10.043 5.022 1.107-4.087-.289-4.868 2.008-8.035 3.226.434 2.393 1.739 4.017-3.012l4.017 1v1c-3.623 1.811-3.562 2.054-5.021 6.026h1l2.009-5.022c2.246 1.627 3.1 3.208 5.021 5.022 7.343-1.791 8.219-2.315 13.055-6.026l-5.021 7.03c3.05 1.731 1.77 1.414 4.017 2.009l-7.03 6.025v1c2.034-.7 11.272-5.3 7.03-1h4.017l-4.017 2.009v2.008l7.03 1-3.013 1c-1.592 1.419-5.9 1.373-10.042 3.013-.3-3.03-3.057-5.079-9.039-7.03v1l4.022 3.062h-9.038q.5 3.012 1 6.026c6.194 1.337 7.476 6.444 12.051 8.034 4.913 1.707 11.322-.326 15.064 1v1l-15.061 9.04c-12.751-.414-9.478-6.509-23.1-7.03v3.013q.5 1 1 2.008c4.914.394 8.447-1.094 9.039 0 4.537 2.729 9.677 3.424 14.06 5.022-1.047 3.827-1.91 2.628 2.008 6.026 7.71-4.173 19.853-1.554 23.1 5.021l-3.013 1c-1.363-.861-7.567-4.328-5.021 0-4.843-1.746-5.679-4.738-10.043-4.017l-2.008 1c5.1.158 7.454.572 9.038 7.03h-1c-5.552-2.638-8.028-1.682-16.068-2.008 1.16 2.534 1.792.417 1 3.013-5.9-5.4-13.634-7.987-24.1-9.039v1c11.253 2.218 12.491 9.022 25.106 10.043q-.5 1-1 2.009c-13.841-1.964-23.186-10.161-41.175-7.03-11.237 1.956-56.322 20.24-57.243 27.115l-2.008 1v1c14.4-1.813 19.836-8.879 32.136-14.06q.5 1.506 1 3.013c-8.277.431-9.609 3.447-9.038 10.043-10.738.113-12.958 3.626-22.094 5.021l2.009 4.017c-5-.484-1.247-1.175-4.017 3.013v-2.009c-1.523-2.935-1.035-1.373-1.005-5.021-2.067 2.951-1.455 2.45-1 7.03l-4.017-1c-6.123.491-5.887-3.882-11.047-2.009 1.729 2.595 2.12 3.422 5.021 5.022 2.88.756 2.7-.016 6.026-1l-2.008 2.009c-1.972 2.074-.377 1.039-4.018 2.008l-6.025-6.025c-29.829 20.175-42.8 44.088-54.23 83.355-2.377 8.162-8.382 21.342-5.022 34.146l5.022 8.034c-7.774 15.128-.73 42.5 8.034 51.218-3.909 21.493-4.179 51.479-4.017 78.334q1 12.05 2.008 24.1l-2.008 5.021-28.12 5.022-7.029-8.035c11.551-49.036 9.326-98.794 4.017-142.608-4.087-33.724 3.117-59.4-21.09-74.316-6.575-4.051-14.823-1.236-24.1-3.013-16.5-3.16-51.667-3.535-62.265-14.06l-6.029-11.026c-2.3 2.792-8.77 5.355-11.047 5.021l-4.017-5.021-11.047 1q-.5 1-1 2.009c2.616.87 3.506-.4 2.008 2.008-4.784-.634-3.123 1.64-6.025 0l5.021-6.025c-7.123-.794-11.1.911-17.073 3.012 1.317-3.227.27-2.129 3.013-5.021l-11.051-3.013c7.561-.111 13.911-.889 13.056 2.009 5.35-1.275 6.664-1.51 8.034-7.03l-3.013-1c-9.591 1.268-18.1-9.509-29.124 0-2.116-4.86-5.2-4.53-6.025-8.034l4.017 2.009c1.057-7.386 2.241-4.146 6.026-7.03-2.628-2.773-3.36-3-9.038-5.022-2.623 1.236-6.222 2.236-10.043-1 17.2-.127 22.144-10.563 34.145-8.034l-3.012-5.022-32.137 6.026c3.956-3.546 7.251-1.044 7.03-7.03l5.02 4.008 19.081-6.02-6.025 2c1.758-2.132 3.724-2.5 6.026-4.017l-3.013-3.013 7.029-1-3.012 4.017c5.7-1.371 2.962-1.073 5.021-4.017l-2.009-1 5.022-1c-.388 3.152-1.509 1.071 1 3.013l4.017 1c-2.171-1.832-2.158.047-2.008-2.009 6.415-4.558 10.062-10.97 17.072-9.039.5-3.913 4.3-10.308 8.034-14.06q-.5-2.51-1-5.021c-7.35 1.144-15.38 3.312-23.1 0l-10.043 8.034v-1l5.022-7.03-6.026 4.017c-.277 3.221.594 4.509-3.013 7.03v-7.03l-8.034 7.03-2.008 3.013c3.439-10.256 6.515-8.761 7.03-18.077 1.61 2.242 1.7 3.352 4.017 5.021l-1-10.042h4.017v4.017l2.009-2.009c.207-1.161-.32-.381 2.008-2.008q.5 2.007 1 4.017c-2.874 2.149-4.332.235-2.009 3.013l3.013-1c.844-2.592 1.532-5.258 3.013-7.03 1.454 4.787-.708 2.509 4.017 4.017l3.012-1 1.005-2.008q-1.005-1-2.009-2.009c-.876.409-19.705 2.523-23.1 0l4.017-1c-6.5-1.181-7.749-.482-13.055 1 6.1-5.81 10.053-.387 18.076-5.021 3.842-2.219 4.837-8.776 8.035-11.047 3.133-2.227 11.3-1.232 16.068-4.018l-2.009-3.012-8.034 2.008 6.026-4.017c5.84 2.188 16.493-2.613 22.094-7.03-7.707-2.958-10.187-.394-15.064-7.03-14.594 4.757-45.071 18.048-48.205 34.146h-2.005v-3.013l3.013-9.039c2.362-.458 6.651-3.5 10.043-6.025v-1l-3.013-1c-8.548 3.124-13.8 7.215-21.089 5.021h2.009c8.659-6.774 20.346-4.5 29.124-4.017 1.855-3.274 3.957-4.147 7.03-6.025-2.666-4-4.137-8.772-7.03-11.048l-2.009 2.009c1.081 2.755 1.766 2.922-3.013 5.021l2.009-4.017c-5.579.086-6 .673-8.034-3.013 3.251 1.316 4.958 1.576 9.038-1l-3.013-1c-13.005-3-34.554 5.773-44.188 9.038l-2.009-3.012c4.573.914 8.872.634 11.047-4.018l-9.038 2.009v-1c6.808-5.929 11.967-1.889 24.1-2.009v-3.013l-3.013-4.017-7.03 1-3.013-5.022c17.77 6.351 27.823 9.717 46.2 4.017l-2.009-3.013 3.013 1c-3.669-3.491-6 .562-8.034-4.017l10.043-2.009c-3.074-3.6-4.6-4.913-8.035-3.013l1 3.013-2.009-1c-1.313-4.491.665-2.018-3.013-4.017l-17.073 1c-1.385-3.277-1.013-1.951-3.013-4.017 2.891-4.106 1.666-.235 0-6.026 4.05 2.913 4.128 3.854 10.043 3.013l-1 2.008-5.021 1v1h17.073c-5.512-4.615-23.675-12.054-33.141-8.034-8.958 5.447-5.729 14.3-9.038 21.09-5.429 2-6.567 5.811-11.047 1 6.267.96 5.479-2 9.038-6.026 1.685 3.205-.5 1.142 3.013 2.009-2.86-3.753-2.254-3.441-6.026-6.026 4.41-1.108 3.832-1.027 6.026-4.017l-6.026 2.009 2.009-3.013c3.648-1.893 8.823-7.3 13.055-12.052l-2.008-2.008c-3.174-.117-4.324.934-3.013-1v-4.018c4.114 4.542 8.21 11.942 11.047 2.009-5.915.791-2.517.724-8.034 0v-1c10.812-.268 8.833-2.749 17.073-6.026-.1 3.174-1.761 1.451 1 3.013v-5.022c6.748 2.379 8.478 1.282 9.038-1-6.8 1.858-13.814-1.4-17.072-4.017l-11.047 8.034c-12.608-7.1-18.174 2.7-23.1 4.017l3.013-5.021c-4.5.963-2.524 2.055-6.026 0 4.712-1.282 4.424-2.053 7.03-5.021 4.276 4.183 26.952 1.427 26.111-6.026 8.358.35 17.549 2.558 22.094 0l-2.008-2.009c-3.229-6.663-14.1-15.521-23.1-10.042l1-5.022c-5.478 3.726-10.756 7.53-17.072 11.047l1-3.013h-1.994c8.849-5.01 9.283-5.5 16.068-12.051 2.071 3.622 1.677 2.613 5.021 0l-23.1-2.009h2.009c1.965-1.624 4.516-.624 8.034-2.008-13.229-.438-13.843-4.958-24.1-4.017 2.778-5.376 2.063-2.348 0-8.034 7.2 2.34 7.942-1.484 10.043 3.012-2.22 2.571-1.2.582-1 4.017l4.017 2.009 1-6.026-6.026-6.056c4.189-.8.954.97 4.017-2.009 1.724 7.322 4.061 5.293 6.026 12.051-2.847-1.114-1.461-.868-4.017-1 3.106 2.2 3.989 1.748 7.03 1 .363 2.366 6.614 5.613 14.06 6.026.821-3.527-1.266-1.467 2.008-3.013.3 3.438-.722 2.157 2.009 5.022l-2.009-4.017 5.021 4.017v-1c-2.812-4.675-6.882-6.82-13.056-8.034-.916 3.667.038 2.054-2.008 4.017-.14-4.158-5.611-9.271-9.038-9.038 1.6-5.277 2.585-5.938 1-10.043l4.017 2.009c-.992 4.032-2.111 3.335 0 6.025 1.265 3.036-.019 1.2 2.008 3.013 5.332 1.428 6.171-4.059 8.034 3.013 10.487 2.183 8.821 12.985 17.073 19.081 1.972-2.074.376-1.039 4.017-2.008l-1-3.013c-4.424-3.179-10.7-11.5-12.051-15.064h2.012c6.608 6.944 10.973 13.443 19.081 19.081.135-4.259.763.606 3.013-3.013l2.008 4.017c-.859-4.59-1.388-3.862-3.012-7.03l5.021 2.009v-4.019c-.568-.7-13.525-13.1-13.055-15.064 7.3 4.2 8.615 5.25 12.051 8.034q.5-3.014 1-6.026l-6.026-5.024c-1.065 1-2.192.984-7.03-2.009-2.79 2.267-2.422 1.113-3.013 6.026l-2.009-2.009c-.54-2.185-1.317-1.1-2.008-5.021l4.017 1c-2.5-2.231-4.255-2.848-6.026-6.026 6.591.564 8.1-2.588 17.073 0v-5.014c-1.931-1.4-.6-.1-2.009-2.008l6.026 3.013c1.181-5.28 16.067-4.526 22.094-4.017-4.641-2.572-10.683-3.135-14.06-7.03l6.025 2.009q-.5-1.506-1-3.013c-5.9-1.272-4.976-1.959-9.038 1-.571-4.455 2.022-2.036-2.009-4.017-2.877-1.658-.282-1.478-4.017 0 2.182-3.34 2.525-2.967 8.034-3.013l-2.008-3.013-11.05-4.014 1-3.013c2.9 2.13 3.716 2.735 10.043 4.017q-.5-1.506-1-3.013c-3.851-1.825 1.026-1.656-3.013-3.013 4.395-4.173 10.288-4.8 13.055-5.021l-10.042-5.021c5.084.023 4.59.851 7.029-1-3.035-1.265-1.2.018-3.012-2.009l12.051 4.017-5.022-4.017v-1l6.026-2.009-2.009 3.013 4.018-1c.442-5-1.732-4.231 3.012-4.017-.861-3.567-1.442-4.527 1-7.03-.982 5.759 1.968 11.117 7.029 12.051l-2.008-4.017 5.021 2.009c-1.169 3.614-1.337 2.611 0 7.03l2.009-1c2.193-.938 1 .429 3.013-3.013l-6.026-9.038 3.013 2.009q-1.005-2.511-2.009-5.021c3.477-.654 1.638.9 4.017-3.013-5.669-1.115-13.414-10.295-16.068-15.064l2.009-1 2.008 2.009c.558 4.689 5.528 9.438 12.051 11.047-3.336-10.241.91-9.581-4.017-17.073 3.9-.481.96.815 4.017-1zm12.051 1h3.012q-2.007 2.51-4.017 5.021l-2.008-3.013 2.008 1zm52.221 0c1.868 2.584.083 1.591-2.008 3.013zm101.431 0c3.37 1.813 4.731 1.526 6.026 6.026h-3.013c-.18-3.118-2.194.666-3.013-6.021zm23.1 0h2.009c-1.4 1.931-.1.6-2.009 2.009v-2.004zm-27.115 2.009c1.546 2.848 2.262 3.138 0 6.026q-.5-1-1-2.009.495-2 .998-4.012zm-92.394 1q.5 1 1 2.009-.498-.992-1-2zm62.264 1h2.009c-1.4 1.931-.1.6-2.009 2.009v-1.992zm-125.536 1.017h2.009c-1.4 1.931-.1.6-2.009 2.009zm62.264 1c2.379 4.081.562 4.476 6.026 6.026q-.5 1.506-1 3.013c-4.173-1.9-3.554-1.49-10.043-1l2.009-3.013c2.964-.607 1.075 1.05 3.012-2.009l-3.012 1zm114.486 0 2.009 2.009-3.013 1q.505-1.498 1.007-3.009zm8.035 0q.5 1 1 2.009-.495-1-.997-2.009zm-204.87 1 7.03 1-2.009 2.009h-1zm28.119 0q.5 1 1 2.008-.494-.995-.997-1.999zm-39.166 1 9.038 10.043-8.034-5.021q-.499-2.498-1.001-5.009zm41.175 0q.5 1 1 2.009-.495-.992-.997-1.996zm26.111 0c1.93 1.4.6.1 2.008 2.009zm21.089 0q.5 1 1 2.009h-2.008zm24.1 0 1 2.009zm48.2 0c4.344 1.479 3.42.971 5.021 5.021zm20.085 0h2.009c-1.743.994-.211.929-1.999.013zm3.013 0 2.009 2.009c-1.921-1.386-.591-.089-1.999-1.996zm22.094 1q.5 1 1 2.009-.487-.987-.99-1.992zm7.03 0h2.008l-3.012 2.009q.511-.987 1.014-1.992zm-195.832 1 2.009 2.009c-1.921-1.377-.591-.081-1.999-1.987zm83.354 0 1 2.009h-2.009q.522-.983 1.022-1.987zm28.12 0q.5 1.506 1 3.013h-1v-2.991zm29.123 1 1 2.009zm10.043 0h2.008c-1.4 1.931-.1.6-2.008 2.009v-1.983zm10.043 0h2.008c-1.94 3.04-.205 1.625-4.017 3.013zm-104.444 2q-.5 1.506-1 3.013c1.383-2.12 1.836-.507 1.01-2.978zm5.021 0q-.5 1-1 2.009c1.807-1.309 1.531.21 1.007-1.974zm80.342 0q.5 1 1 2.009-.488-.97-.99-1.974zm-62.255 2.043q.5 2.51 1 5.021l-2.008-1q.506-2.012 1.008-4.021zm64.273 0h2.009c-1.4 1.931-.1.6-2.009 2.009zm-67.286 1h2.009c-1.4 1.931-.1.6-2.009 2.009v-2.005zm46.2 0h4.017v2.009c-3.67-.912-2.057.042-4.02-2.005zm-119.508 1q.5 1 1 2.008-.5-.995-1.003-1.999zm28.12 1q.5 3.515 1 7.03v-1.996l3.013-2.008-2.009-1c-1.397-1.935-.101-.606-2.007-2.013zm10.042 0 3.013 4.017 2.009-1v-1l-1-2.009h-4.017zm93.4 0c2.14 2.443.59-.1 1 4.017l-2.009-1c-1.775 2.106-1.161.923-5.021 2.008zm3.013 0h2.008c-1.4 1.931-.1.6-2.008 2.009v-1.996zm105.447 0c-.221 1.473.416 1.008-1 3.013q.492-1.494.994-3zm-206.878 1 3.013 5.021 3.012-1zm60.256 0h2.008c-1.4 1.931-.1.6-2.008 2.009v-1.992zm49.209 0h2.008c-1.4 1.931-.1.6-2.008 2.009v-1.992zm10.042 0c3.036 1.265 1.2-.018 3.013 2.009h-1zm-105.447 1 2.008 1zm42.179 1h3.012l-2.008 2.008q-.509-.978-1.01-1.982zm148.631 0v5.047h-2.009q.999-2.51 2.003-5.021zm-170.725 1c-1.246 1.782-1.579 1.655-3.013 3.013l2.009 2.009 2.008-2.009q-.509-1.476-1.01-2.983zm55.234 0 3.013 2.009c-3.586-.513-4.816 1.148-3.019-1.979zm-132.562 1q.5 1 1 2.009-.504-.97-1.006-1.975zm42.179 0 2.008 1zm13.055 0q-.5 2.511-1 5.021h2.008l3.013 1 3.013-5.021h-2.009zm38.162 1q.5 1.506 1 3.013c-4.784 1.236-3.184-.257-2.008 5.021-9.841.769-17.308 19.424-15.064 22.094l2.008-1v2.008l8.034-5.021c-2.365 4.4-4.48 5.988-8.034 9.039 2.476 4.368 5.327 3.573 4.017 3.013l8.035-4.017c.464 2.475.518 5.079 4.017 4.017l-1-4.017h7.03l-2.008-7.03h1l2.008 3.013v-9.004q1 2.008 2.009 4.017h1l2.009-2.009c.117-2.2 1.451-7.78 3.013-9.039l-4.017-4.017h-8.035c2.043-2.29 2.537-1.715 4.017-5.021-4.331-.208-4.847-.263-7.029-2.009l5.021-1zm50.213 0c1.808 2.051.015.71 3.013 2.009-1.814-2.013-.021-.671-3.019-1.97zm13.056 0q.5 1 1 2.009-.504-.966-1.006-1.97zm54.23 0 2.008 2.009c-1.936-1.36-.607-.064-2.014-1.97zm-158.68 18.116q-.5-5.021-1-10.043c-3.666-.916-2.053.038-4.017-2.009h3.013l-6.031-5.021c-5.678 3.252-8.776 10.637-11.047 20.086l1-2.009 7.029 2.009 2.009-4.017-3.013-2.009c5.623 2.231 5.619 5.379 10.043 8.034q.5-2.008 1-4.017c-4.978.351-2.6 2.826-5.021-2.009zm11.047-17.073q-.5 3.515-1 7.03c1.931-1.4.6-.1 2.008-2.009q2.008-2.51 4.017-5.021c-2.415 1.758-1.676 1.032-3.012 4.017h-1q-.51-2.008-1.013-4.017zm125.533 0 2.009 2.009-3.013 1q.502-1.502 1.004-3.009zm8.034 0h4.017v1zm-60.256 1 1 2.009zm82.35 0 5.021 1v1c-3.801-.911-3.384.122-5.021-1.996zm-149.635 1c.027.683-.469 3.7 1 2.009q.5 1 1 2.009zm38.162 0h2.008c-1.4 1.931-.1.6-2.008 2.009v-2zm-13.056 1q2.008 2.51 4.017 5.021h-2.008c-2.732 1.314-1.932.443-4.017-1 3.645-2.614 1.314.271 2.008-4.007zm67.286 0-4.017 9.039h2.008q1.009-4.507 2.009-9.025zm22.094 0h3.013v1l-4.017 1q.501-.986 1.004-1.986zm-144.614 1 5.021 1v1c-4.027-.555-3.001.072-5.021-1.986zm6.025 0 1.005 2.009zm92.395.014q.5 1 1 2.009-.5-1.002-1-2.009zm-142.606 1c2.051 1.808.71.015 2.009 3.013zm201.857 0 2.009 2.009-2.009 3.013-3.013-3.013zm28.12 0q1 4.017 2.008 8.034h-1v-2.001q-.508-3.013-1.01-6.026zm-217.926 1h2.009c-1.618 2.287-1.818 1.775-3.013 5.021l-2.008-2.009zm15.064 0h3.013l-2.008 2.009zm44.188 0q-.5 1.506-1 3.013l2.008-3.013h-1zm-12.051 1q-.5 1.506-1 3.013c2.092-2.279 1.154-.365.998-2.997zm109.465 0-1 3.013c2.051-1.808.71-.015 2.009-3.013h-1zm13.055 0-8.036 8.05c4.888-1.479 8.029-4.779 8.034-8.034zm15.064 0 2.008 2.008-1 1q-.508-1.486-1.01-2.992zm24.1 0q.5 1 1 2.008-.497-.988-1-1.992zm-158.673 1c1.606 2.71.341 1.383 3.012 3.013-1.378-1.885-.977-1.623-3.012-2.993zm13.055 0 2.009 1zm13.055 0a42.876 42.876 0 0 0 -7.029 5.021q.5-1.506 1-3.013l-4.017 1c.259 6.884-1 6.428-2.009 13.056 2.888-1.716 14.905-13.686 12.055-16.044zm120.512 0 3.013 2.009h-3.013v-1.989zm-187.8 1 2.008 3.013c-1.261-3.013.022-1.177-2.005-2.989zm23.1 0h2.008c-1.4 1.931-.1.6-2.008 2.009v-1.985zm-12.051 1q.5 1 1 2.009h-2.009zm174.742 0c-.426.932.805.679-1 2.009zm-211.9 1 3.013 2.009zm13.055 0h2.009l-2.009 3.013v-2.98zm99.422 0 3.013 1-5.021 6.026zm51.218 0-5.021 3.013 2.008 1 3.013 3.013 1-2.009q-.497-2.473-.999-4.984zm41.175 0q.5 1 1 2.009-.497-.972-.999-1.976zm9.038 0c3.157 1.278-.106 3.108-2.008 5.021zm-138.591 1q1 4.519 2.008 9.039h1c-.879-3.492-.795-6.704-3.004-9.002zm97.413 0-1 1c2.806 1.855.137.725 4.017 1v-1.963h-3.017zm-34.145 1-4.017 3.013v1h1c4.389-2.413 3.319-1.119 3.021-3.971zm-70.3 1-4.017 6.026h1q.5-1 1-2.009c2.062-2.053 2.91-1.333 2.023-3.971zm48.205 0q.5 1 1 2.009-.492-.959-.994-1.963zm-109.465 1c1.4 1.931.1.6 2.008 2.009zm17.072 0 2.009 2.009c-1.392-1.881-.096-.551-2.003-1.959zm47.2 0-1 3.013c2.376.279 1.253-.223 4.017 1-1.284-2.964-.628-2.201-3.01-3.963zm52.221 0 2.009 1zm-94.4 1-1 4.017h1v-2.958l4.017 2.008-3.005 2.009c2.611 1.932 5.223 3.093 7.03 6.026l-9.039-3.013q-.5 3.012-1 6.026h4.009l6.026 2.009 1-1c-.4-7.348-1.561-7.825-1-9.038-2.613-3.072-1.252-4.886-8.026-6.032zm181.771 0c.685 3.688 1.243 2.706-2.008 5.021zm-87.371 1 2.009 3.013c-1.258-2.977.025-1.143-1.997-2.954zm15.064 0-2.008 1v1c2.607-1.076 1.738-1.508 2.015-1.941zm39.167 0q-2.009 4.017-4.017 8.034h1l4.017-3.013c-.164-4.674 1.186-2.938-.993-4.962zm-170.725 1c2.276 1.221 1.974 1.3 4.017 1zm100.426 0 4.017 2.009q-.5 2.511-1 5.021l-2.009-1c-1.855-5.676-1.388-2.442-5.021-4.017zm48.2 0c-.455 2.4-.038 1.252-2.009 4.017l5.022-1c-1.595-2.651-.333-1.325-3.001-2.954zm80.341 0v5.021h-1q.509-2.447 1.012-4.958zm-167.712 1-3.013 5.021 8.034-3.013c-1.981-1.54-1.383-1.235-5.009-1.941zm-56.239 1 2.009 4.017zm88.375 0c3.911.968-.484 2.633-2.008 4.017v-2.941zm29.124 0q-.5 1-1 2.009.509-.933 1.012-1.937zm15.064 0q-.5 1-1 2.009l2.008-2.009h-1zm22.094 0c-2.638 1.634-.826 1.166-4.017 1 1.971 2.075.376 1.04 4.017 2.009v-2.937zm-158.672 1 2.009 3.013q.5-1.506 1-3.013h-3.013zm7.03 0q.5 2.008 1 4.017l7.03 6.026q.5-2.008 1-4.017zm31.132 0c.335 2.394-.176.823 1 4.017h-1c-4.1-1.145-1.262-1.534-5.021 0q.5 1 1 2.009c3.653 1.128 6.163 2.555 10.043 1-3.667-1.064-2.954-.817-5.022-3.013l1-1h1c7.034 5.345 6.046 5.794 9.038 10.043l3.013-9.039-2.009-2.009c-2.505 3.22-5.49-.614-13.032-1.932zm86.367 0-2.009 1v1c2.61-1.059 1.742-1.491 2.019-1.924zm18.076 0q-.5 1-1 2.009l2.009-2.009h-1zm65.278 0h2.022c-1.808 2.051-.015.71-3.013 2.009zm8.034 0c-.728 1.394.811 1.446-3.013 3.013zm3.012 0h3.013l-3.013 1zm-245.04 1h2.016c-1.4 1.931-.1.6-2.009 2.009v-1.929zm153.653 0-1 2.009 3.013-2.009h-2.008zm-149.636 1 2.009 2.009c-1.921-1.314-.591-.018-1.999-1.925zm172.734 0 2.008 1zm68.289 1 1 2.009zm-239.014 1 3.013 2.009h-3.003v-1.916zm12.051 0 2.008 1zm115.49 0 2.009 3.013 3.013-2.009v-1h-5.022zm92.392 0 2.009 1zm-203.865 1 2.009 1zm75.32 0q.5 3.013 1 6.026h1l3.013-1zm168.716 0 2.009 2.009-3.013 1q.511-1.409 1.014-2.909zm-180.767 1v3.013h2.008c-1.255-2.934.029-1.1-1.998-2.913zm67.285 0q-.5 1-1 2.009l3.013-2.009h-2.009zm3.013 0 2.009 1zm4.017 0c-3.7 2.96-7.635 2.4-10.043 7.03 1.777 1.373 1.224-.226 1 2.008 4.854.025 4.209-.951 6.025 1 8.108-1.471 6.847-4.075 8.034-10.043h-5.021zm-144.614 1-1 2.008c3.035-1.265 1.2.019 3.013-2.008h-2.009zm33.141 0h2.008c-1.742 1.087-.211 1.022-1.997.106zm45.192 0 3.012 3.013c-1.368-1.799-.967-1.538-3.002-2.907zm27.115 0h2.008c-1.939 3.04-.2 1.626-4.017 3.013l2.009-1v-1.907zm48.2 0-1.996 3.119v1l4.017-1v-1zm3.013 0 1 6.026 2.008-4.017zm57.243 0 1 1-4.018 4.017 6.026-3.013zm-233.993 1 7.03 2.008h-2.999c-.49 2.7.881.831-2.009 3.013zm28.119 0c3.154 2.312 4.1 2.124 7.03 0zm35.149 0a18.046 18.046 0 0 0 10.043 15.064c-1.328-3.791 1.319-6.394-3.013-9.039zm30.128 0-2.008 7.03 7.03-1q.5-1 1-2.008l-2.009-2.009c-1.953-1.969-.358-.934-3.999-1.903zm50.214 0q-1.508 2.008-3.013 4.017h4.017q-.5-1.506-1-3.013c1.006-.013.274-.261.01-.894zm71.3 0q1.005 3.515 2.009 7.03.5-2.51 1-5.021l-1.988-1.899h-1zm53.226 0h2.009c-1.737 1.091-.204 1.026-1.993.11zm-274.164 1h2.008c-1.4 1.931-.1.6-2.008 2.009v-1.895zm21.09 0-4.017 3.013c7.328-.2 10.258 1.3 14.059 0l-2.008-2.009zm10.042 0 2.009 1zm183.781 0c1.4 1.931.1.6 2.008 2.009zm12.051 0 2.008 2.009zm-180.768 1 2.009 1zm31.133 0 4.017 2.009c-1.956-1.956-.361-.921-4.001-1.89zm129.55 0c-4.236 3.127-4.9.633-8.035 5.021 2.626 3.767 6.057 5.234 10.043 2.009l-2.008-2.009h8.034v-1zm11.046 0c1.809 2.051.016.71 3.013 2.009zm-184.784 1 2.009 1zm57.243 0c-1.062 4.816.507 7.461 2.009 12.051h2.008v-5.902c-2.616-.87-3.507.4-2.008-2.009h3.012zm52.222 0-1 3.013 4.018-1zm106.452 0-1 2.009 2.009-2.009h-1zm32.136 0h3.013l-2.009 3.013-3.012-2.008zm-258.1 1c-2.582 3.237-1.739-.058-1 4.017 5.324.646 2.939 1.433 7.03 4.017h1v-3.89c-5.355-.772-4.029-.751-7.01-4.017zm25.107 0c2.531 1.634.167.99 3.013 0zm15.064 0 5.021 4.017-2.008-4.017zm47.2 0v2.008c1.004-1.625.937-.093.02-1.881zm69.294 0-2.99 3.14c3.947-1.6 3.049-.86 3.01-3.013zm8.035 0 2.008 3.013 2.009-1-1-2.008h-3.012zm41.174 0-2.008 3.013c3.172-1.655 1.502-.886 2.028-2.886zm14.06 0-6.026 3.013 8.035 1c1.4-1.931.1-.6 2.008-2.009v-1.877h-4.017zm90.384 0 1 2.008zm-293.245 1 3.013 1zm15.064 0-2.009 1c1.792 2.94 1.968 2.46 5.022 4.017-2.201-4.517.978-3.24-2.993-4.885zm58.247 0c-.815 5.319 2.578 12.277 7.03 12.051v-1c-2.581-3.837-2.807-8.351-7.01-10.919zm34.145 0c1.62 3.144.917 2.364 4.017 4.017a11.347 11.347 0 0 0 -3.997-3.885zm55.235 0h2.008c-1.523 1.934-1.8 1.777-4.017 3.013h-1v-1.877zm48.204 0-2.993 2.14 3.013 3.013h1q-.497-2.511-1-5.021zm-206.878 1-4.017 1v1c4.511.116 7.189 1.317 4.037-1.864zm17.072 0c.581 4.027-.046 3 2.009 5.021 3.552 3.588 3.667 4.186 7.03 1l-2.009-3.013zm24.1 0c-.279 3.68.569 4.085 2.008 8.034h1zm20.085 0-6.026 8.034c2.292 8.155 5.385 17.329 14.06 16.069l2.009 1c-1.548-3.127-3.554-2.934-3.013-4.017-2.075-1.972-1.04-.376-2.009-4.017 4.072-1.376 2.97-.989 5.022-4.017-4.634-2.362-2.985-10.064-10.015-12.916zm79.337 0c-2.987 4.359-3.772 3.222-2.009 8.034l-4.017-2.009c-4.3 3.806-.815 5.921-8.034 8.034q.5 1.506 1 3.013l6.051 5.158 3.013 1 1-1c.194-9.183 4.238-16.741 4.017-19.081-.487-3.129 1.135-.66-.998-3.013zm-185.789 1 6.026 1zm37.158 0-2.009 4.017h1.031c1.724-3.623 2.86-.177 1-3.877zm64.273 0-1 3.013c1.395-2.013 1.849-.402 1.023-2.873zm39.166 0-7.03 9.039 5.021 5.022h1.005a32.95 32.95 0 0 1 11.047-9.039l-2.009-2.008-2.008-3.013h-6.003zm-58.247 1v7.03l8.034 3.013c-3.493-3.9-4.06-6.499-8.011-9.899zm96.409 0 2.008 1zm52.222 0-7.03 5.021 2.008 2.009c2.9-3.959 2.209-3.4 6.026-2.009-1.4-1.931-.1-.6-2.009-2.009 1.92-2.402 1.77.22 1.028-2.868zm4.017 0-1 2.009 2.009-2.009h-1zm-215.917 1 2.009 3.013zm112.478 0q-1 2.008-2.009 4.017h1l3.013-2.009zm59.251 0a11.347 11.347 0 0 0 4.017 4.017q.5-1.506 1-3.013zm21.09 0c-2.134 4.239-6.216 8.248-6.026 13.056v5.021l5.021-4.017c1.563-4.505 2.281-4.045 6.026-6.026-2.4 5.192-11.474 11.92-10.043 14.06v3.013l13.056-17.073c-2.461-2.457-5.295-5.541-8.011-7.885zm13.055 0-1 2.008c1.512-1.528 1.611.308 1.025-1.859zm33.141 0 2.008 1zm18.077 0h2.008c-1.73 1.13-.201 1.065-1.985.149zm-236 1q-1.507 2.008-3.013 4.017l2.008 2.008 10.043 3.013 2.008-2.009c.509-3.389-1.058-1.3 2.009-4.017 1.679 2.5.469 1.614 3.013 0v-1h-2.009zm176.75 0 2.008 4.017 1-1zm2.008 0 2.009 1zm43.184 0c-1.753 2.829-2.18 2.579-3.013 7.03l3.013-1q1.506-2.51 3.013-5.021zm68.29 0h4.017v3.013h-5.022zm-141.6 1-1 2.009h3.013l-1-2.009h-1zm-163.7 1 3.012 1zm35.149 0c1.758 2.416 1.032 1.677 4.017 3.013zm60.256 0 5.021 4.017zm39.166 0q-.5 1-1 2.009c1.885-1.091.57-.735 1.025-1.848zm7.03 0-2.009 3.013c1.93-1.405 3.583-.402 2.034-2.852zm36.153 0v3.013c2.613-.427.549.98 3.013-1zm36.154 0c-3.6 2.4-3.9 1.989-6.026 6.026h3.013c2-1.916 6.713-2.539 9.038-4.017v-1zm9.038 0-2.008 6.026c4.887-.79 6.088-.064 7.029-1h2.009v-4.865h-7.001zm-215.917 1-1 1 3.013 3.013 2.009-1v-1zm119.508 0c-4.02 3.433-6.916 4.413-9.039 10.043h1c1.571-1.642 2.873-.565 6.025-2.008l3.013-2.009q-.472-2.847-.974-5.86zm133.567 0 2.008 1zm6.025 0 1 3.013h-1l-1-1q.523-.843 1.025-1.847zm37.158 0c1.634 2.531.99.167 0 3.013h-1q.524-1.341 1.025-2.847zm-155.661 1v3.013h2.009c-1.24-2.866.04-1.031-1.984-2.843zm16.069 0a46.136 46.136 0 0 0 -4.017 15.064l8.034-3.013c-1.466-4.109-1.333-2.686-4.017-5.021l6.025-1v-2.847l-3.013-3.013h-3.012zm-117.499 1 12.079 12.226c-1.551-3.9-6.778-12.239-10.043-11.047zm97.413 0-3.012 4.017c5.454-1.59 3.063.053 4.017-4.017h-1zm-146.622 1c2.782 3.453 4.2 2.207 8.034 3.013-2.49-2.513-2.646-2.563-8.009-2.834zm-8.034 1 2.008 2.009c-1.906-1.216-.576.081-1.986-1.826zm84.358 0 2.008 3.013zm28.119 0v2.009c3.009.152.693 1.922 3.013 0zm98.418 0 3.013 1zm48.205 0 2.008 1zm28.119 0q.5 1 1 2.009-.472-.822-.975-1.826zm6.026 0h2.008c-1.4 1.931-.1.6-2.008 2.009v-1.826zm21.089 0 3.013 1q-.5 1-1 2.009h-4.017zm-88.378 1v3.2c-7.6-.191-7.545-.547-12.051 3.013v1q2.51 5.021 5.021 10.043l7.03-6.026c1.695-4.577 2.345-6.229 5.021-9.038-2-1.021-1.813.086-1-2.009h-4.017zm-236 1c2.064 1.361 1.616 1.125 3.013 3.013-2.684-1.413-1.357-.15-2.987-2.822zm78.333 0 4.017 5.021 2.008-1v-1q-.5-1.506-1-3.013h-5.021zm12.051 0-3.013 9.039 4.017-3.013-2.008 5.021c3.579.543 4.81-1.118 3.012 2.008h4.017q-.5-2.51-1-5.021v-4.834zm106.452 0v3.2q.5-1.506 1-3.013h-1zm20.085 0c1.808 2.051.015.71 3.013 2.009zm28.119 0-2.008 1v1l4.017-2.009h-1.983zm-216.921 1q-.5 1.506-1 3.013l4.017 1v-1h-2.008c-.516-2.934 1.393-.713-.983-2.813zm80.342 0q.5 1 1 2.008-.473-.808-.974-1.808zm11.046 0v3.013l2.009-2.008zm7.03 0c-2.8 5-5.573 6.44-7.03 11.047l4.017-1-2.008 5.022c9.211-1.519 10.808.586 18.077 5.021q1-2.51 2.008-5.021c-2.651-8.002-8.703-10.617-15.035-14.869zm29.124 0-9.038 6.026c1.729 1.237 2.63 1.334 4.017 3.013l-6.026-1c3.462 6.12 2.664 3.178 3.013 9.038 4.512 1.222 3.237.063 5.021 4.018 4.031-2.922 6.013-3.9 10.043-3.013.06-10.439-3.906-14.989-7.004-17.882zm-94.4 1 3.013 1zm-28.119 1 2.008 2.009c-1.373-1.727-.077-.397-1.984-1.809zm161.686 0q-1.506 2.511-3.013 5.021c4.104-2.402 4.642-1.213 3.038-4.821zm56.239 0q-.5 1.506-1 3.013l3.012-3.013h-2.008zm6.026 0c-1.42 3.1-.719.018-1 4.017h1l2.008-1q.5-1.506 1-3.013h-3.012zm7.029 0v2.009c1.006-1.549.944-.017.025-1.809zm-226.959 1q-.5 1.506-1 3.013l3.012 1 5.022-3.013zm9.038 0c1.157 6.582 2.785 2.381 1 7.03l9.039 1v-1c-1.923-2.435-.645-1.623-4.017-3.013l1 2.009c-3.093-2.372-2.622-3.948-7.001-5.817zm7.03 0-1 2.009 7.03 1zm161.686 0-6.025 9.039c3.187 8.4 6.049 9.095 4.017 13.056l15.064-8.035-7.007-13.851h-6.026zm31.133 0c-3.038 4.059-6.068 3.451-8.034 9.039h3.012c2.826-2.303 5.168-6.317 5.043-8.83zm54.23 0h3.013l-2.009 2.009zm-187.8 1q.5 2.51 1 5.021l2.008-1v-1l-2.008-3.013h-1zm28.119 0c2.59 2.867 1.3 1.58 4.017 0zm22.094 0q.5 3.013 1 6.026l2.009-2.009q-1.479-1.795-2.985-3.804zm-100.427 1v5.021l2.009 2.008 2.008-2.008v-1.791zm5.022 0 4.017 1zm185.788 0-5.021 6.026c2.256-.974 7.131-3.659 5.045-5.809zm-210.895 1q.5 1.506 1 3.013l2.009-2.009c-2.544-.259-.308.896-2.985-.783zm227.97 0h4.017v1l-1 1c-2.848-1.383-1.251 1.134-2.995-1.779zm35.149 0h2.009c-1.687 4.138-1.48 2.105-2.009 6.026l-7.03-1 2.009-1c1.892-1.289 3.514-1.843 5.043-3.805zm8.034 0-2.008 1 1 2.009c1.9-1.378 1.643-.978 3.013-3.013h-1.983zm18.077 0 5.021 1zm-273.16 1c.261 3.959-1.189 3.3 4.017 5.021-1.384-2.385-1.596-3.121-3.995-4.795zm39.167 0 3.012 2.009zm71.3 0 2.009 2.009zm25.107 1-13.055 4.017-1 1 1 3.013h1c3.233-2.907 3.857-2.7 7.03-4.017l2.008 2.009c-3.89.756-4.018.619-6.025 3.012v5.022c1.216 2.1 2.96 5.538 4.017 2.008 5.031-2.88 9.2-6.447 8.034-10.042-.755 2.115-.56.711-2.009-1 1.915-2.533 1.943.021 1-3.013-1.366-1.701-.069-.372-1.976-1.779zm81.345 0 4.017 1v2.009h-1c-1.885-1.145-1.621-.744-2.993-2.779zm-124.528 1 3.012 2.009h-2.988v-1.775zm104.443 0q-.5 1-1 2.009c1.513-1.444 1.612.391 1.024-1.775zm-154.657 1-2.008 1 1 2.008h4.046l-2.008-3.013h-1zm184.785 0-4.017 13.056 3.013 3.013-2.009-3.013 4.017 1c.382 3.319-1.284 2.861 3.013 5.022q1-7.532 2.009-15.064l-3.013-4.017h-3.013zm44.188 0h4.017v2.008l-3.013 1-2.009-1zm-331.407 1c2.051 1.808.71.015 2.008 3.013h-1.984v-2.77zm16.068 0c-1.6 2.087-3.376 3.874-4.017 8.034 4.848-2.722 19.6-1.244 29.123-1l-2.008-2.009c-1.022-1.985-5.869-4.552-9.039-1h4.045l-5.022 4.017-3.013-1v-7.03h-10.045zm75.32 0c1.4 1.931.1.6 2.008 2.008zm-71.3 1h3.013v2.009c-3.57-.225-4.038 1.526-2.992-1.762zm29.123 0-2.008 1 2.008 4.017 4.018 2.009 3.012-5.021h1c-.008 4.628-.934 3.028 1 6.025q.5-3.514 1-7.03zm24.1 0c-2.928 1.99-4.119 1.791-6.026 5.021q-1.506 3.516-3.013 7.03l13.056 3.013c1.623-3.431 1.635-3.36 5.021-5.021l-3.013 6.026 2.009 1 10.043 2.008q-3.516-4.518-7.03-9.038c-5.056-2.926-7.01-8.204-11.023-9.792zm95.405 0v4.017l2.008-2.008zm3.013 0c1.4 1.931.1.6 2.008 2.009zm46.2 0h2.008c-1.732 1.228-.201 1.163-1.988.247zm-109.465 1c2.531 1.634.167.99 3.013 0zm-141.601 1 1 2.008zm126.537 0c3.2 4.054 6.153 5.5 13.055 6.025v-2.008zm22.094 0-3.013 2.008v2.009h3.013q.5-1.506 1-3.013-.479-.246-.98-.748zm21.089 0 1.005 2.008zm18.077 0q.5 1 1 2.008-.477-.748-.98-1.752zm61.26 0h2.009c-1.4 1.93-.1.6-2.009 2.008zm23.1 0-6.025 5.021c5.03-1.259 6.677-3.054 6.043-4.765zm-280.189 1 1 2.008zm5.021 0 1 2.008zm99.422 0c-1.894 2.547-2.676 2.53-4.017 6.026 4.378-1.226 4.869-2.365 4.035-5.766zm21.09 0c1.771 3.778 1.617 3.744 6.025 5.021zm75.319 0 1 2.008zm49.209 0c-1.883 2.126-.789.644-4.017 2.008.353 6.21 1.588 8.162 5.022 11.048l3.012-3.013c-.656-3.333-1.305-6.081-3.999-9.783zm129.55 0c1.152 2.659 1.379 2.351-1 6.026h-1q1.014-2.753 2.018-5.766zm-372.581 1 2.008 4.017h-1zm34.145 0 3.013 3.013c-1.347-1.8-1.107-1.352-2.995-2.749zm70.3 0q.5 1 1 2.009-.481-.741-.984-1.745zm58.247 0 1 2.009-4.018-1.005 1 2.009c6.426 1.179 9.357 2.465 13.055 6.026-1.552-4.6-2.828-6.1-7.03-8.035zm86.367 0c1.3 3.285 1.882 1.118 0 4.017zm74.315 0c1.931 1.4.6.1 2.009 2.009q-.987-.741-1.993-1.745zm37.158 0q.5 1 1 2.009h-2.008zm7.03 1c2.628 1.784 1.368.063 1 3.013h-1zm-337.416 1.273c2.55 2.884.887 2.858 7.03 4.017zm11.047 0-2.008 2.008 2.008 2.009 2.009-1v-1zm139.593 0-2.008 6.025h1l3.013-1q.5-2.511 1-5.021h-3.013zm93.4 0v3.013c-6.51.375-7.916-.208-11.047 5.021h4.017c4.861-1.948 6.493-2.784 9.038-7.03zm23.1 0h5.021c-2.734 2.196-1.796 1.827-5.027 0zm78.332 0 1 2.008zm-387.646 1c1.931 1.4.6.1 2.009 2.009zm19.081 0h2.009l-1 3.013zm197.84 0-4.017 3.013v4.017l3.013-2.009c.976-3.157 2.055-2.063.998-5.017zm136.58 0c-.221 1.473.416 1.008-1 3.013q.492-1.502.994-3.009zm11.047 0c2.853 2.136 3.085 3.974 4.017 8.034-3.126-1.828-3.449-5.079-2.008-3.013q-1.011-2.505-2.018-5.017zm11.047 0q.5 1 1 2.009h-2.008q.499-1.001 1.002-2.005zm-292.241 1c-8.491 4.8-13.754-.662-22.093 2.009h2.008c4.593 5.82 9 3.546 11.047 8.034 5.174-1.367 5.31-1.983 5.021-6.026l4.017 1.005c-1.437 3.883-2.628 1.694-1 4.017 1.4 1.931.1.6 2.009 2.008l-2.009-3.012 4.017 1 7.03-3.013-8.034-1c1.729-1.237 2.631-1.335 4.017-3.013l-7.03 2.008q.5-1 1-2.008l5.022-1v-1h-5.022zm10.043 0 7.03 8.035 2.008-1v-1l-1-2.009q-4.027-2.008-8.044-4.018zm104.443 0c1.265 3.036-.018 1.2 2.009 3.013zm11.047 0q-1.506 2.008-3.013 4.017l1-3.012-6.026 3.012 1 2.009c4.351.12 4.951 1.084 6.026 0 2.188-3.032 2.865-4.044 1.007-6.018zm19.081 0-8.034 2.009v5.021l10.043-4.017q-.5-1.506-1-3.013h-1zm18.077 0-7.03 7.03v1c5.416 1.629 6.857 2.409 11.047-1zm-101.431 1c3.181 2.178 3.134 1.964 6.026 0zm27.115 0-5.021 2.008v1c6.681.819 10.492 2.049 16.068 1.005q-.5-1.005-1-2.009zm-115.49 1-1 1 5.021 5.022q-.5-1-1-2.009c-.737-2.846.365-1.573-3.027-3.996zm80.341 0 6.026 5.021zm108.461 0 1.998 2.027c-1.926-1.4-.6-.1-2-2.01zm-90.378 1 2.009 1zm5.021 0-5.021 4.017 3.013 2.009 6.025-4.017v-.982zm160.683 0c1.93 1.4.6.1 2.008 2.009zm69.294 0c1.868 2.584.082 1.591-2.009 3.013zm-315.339 1h3.013q-1.005 1-2.009 2.009-.514-.982-1.016-1.982zm31.132 0v3.013q.5-1.506 1-3.013zm88.375 0-3.012 3.013q.5 6.025 1 12.052c3.967-.63 1.815 1.8 4.017 0l6.025-5.022-3.012-1 5.021-3.013c-2.915-3.117-5.162-4.629-10.051-6.003zm-173.749 1.027 1 2.008zm41.175 0q.5 3.012 1 6.025h7.03l-5.022-6.025h-3.012zm164.7 0-8.034 9.038 6.025 3.013 9.039-6.026q-1.005-2.008-2.009-4.017c-2.037-2.084-1.005-1.367-5.022-2.008zm40.17 0-3.013 2.008v1c3.935-1.626 3.66-.808 3.012-3.008zm104.444 0h2.008l-3.013 2.008zm-355.51 1 2.008 2.009c-1.928-1.392-.601-.095-2.009-2.002zm151.644 0 3.013 1zm143.61 0 3.013 1v1c-3.037-1.249-1.203.034-3.014-1.993zm-189.8 13.052c.069 10.465.761 16.9 8.034 22.094l2.009 3.013 20.085-8.035c-4.1-3.042-5.124-12.164-8.034-18.077-8.8-3.438-23.552-11.44-33.141-10.042v1q3.012 4.518 6.026 9.038c3.537-.9 8.151-.84 10.042 1h-5.021zm55.226-12.041 3.012 1zm39.166 0-2.009 4.017c4.22-1.543 2.459.186 4.017-4.017zm-191.814 1 4.017 3.012c-3.842-1.323-2.087.007-4.015-3.007zm14.06 0 1 2.008zm17.073 0h2.008c-1.4 1.93-.1.6-2.008 2.008zm40.17 0c1.4 1.93.1.6 2.009 2.008zm74.316 0-3.013 1q.5 1 1 2.008c.279 2.376-.223 1.253 1 4.017h4.017l2.009-2.008zm91.388 0 2.008 1zm124.528 0h2.013c-1.756.989-.224.921-2.012.005zm-242.027 1 4.017 5.021zm95.4 0c-1.657 5.864-5.831 8.894-11.047 11.047v1c8.1-2.16 20.129-4.376 25.107-10.043v-1c-7.536 1.94-7.178 2.601-14.054-.995zm37.158 0v2.008l-2.009-1-2.008 4.017 4.017 1 2.008-2.008h2.009l-1-3.013zm5.021 0q.5 1.506 1 3.013l5.022-1.005v-1zm-200.853 1 2.009 1zm11.047 0 2.009 1zm71.3 0-2.009 1q1.506 5.022 3.013 10.043l1-2.008 4.017-2.009zm19.081 0 2.008 3.013c-1.255-3.024.028-1.188-1.999-3zm76.324 0c1.261 1.563.428 1.239 2.008 0zm19.081 0 1 2.009zm37.158 0-8.034 1 3.012 4.017h9.045v1.005l-8.034 1 5.021 4.017h9.038v1l-7.03-1c1.081 6.013 4.48 3.335-1 6.026-1.053-6.034-10.243-12.515-17.072-16.069-7.713.5-21.361 7.188-24.1 12.052-2.449 2.709-2.892 4.653-3.012 10.043h1c8.846-4.6 20.817-6.188 34.145-10.043v2.008c-8.067 1.313-20.15 5.043-25.107 10.043l4.017 1-1 1c-2.633-.228-7.346-.289-10.043 2.008-.662 3.073.99 1.552-3.012 3.013-1.134-2.478.5-1.131-3.013-2.008-.627 4.618-3.016 3.556-7.03 7.029 4.73 1.279 7.413 3.747 10.043 7.03l-1 4.018h-2.008c-.991-5.218-.693-4.364-5.022-6.026.2 2.062 1.156 2.625-1 2.008 2.039 5.144 2.986 9.466 9.039 11.048l6.025-6.026-3.013-1h6.026l-4.017-10.043h3.013c.292 6.928 1.1 8.867 6.025 9.038q-.5 1-1 2.009c-6.784 1.321-9.3 4.632-14.06 8.034v1l5.022 1v1h-4.017c-3.765-3.515-6.43-5.093-8.035-11.047l-2.008 2.008c-1.782 1.247-1.655 1.579-3.013 3.013l2.009 3.013 13.055 9.039 2.009-1c1.66-5.918 3.5-8.1 8.034-11.047l-4.017-3.013c5.609-.891 5.075-1.527 10.042 0 .947-4.273 1.159-3.362 3.013-6.025-2.22-3.992-4.714-6.012-5.021-9.039h1c3.659 4.783 6.294 9.288 9.038 10.043 1.058-1.649 6.751 2.819 12.052 3.013l-4.017-1 3.012-3.013q-2.51-3.013-5.021-6.026c6.591 2.356 7.9 3.209 15.064 0 .35-14.479 6.08-21.577 5.021-31.133l3.013 2.009 3.013 4.017c-6.357.46-8.56 4.141-8.034 14.06l13.055-3.013c-.946-4.356.262-11.679 2.009-16.068-2.824-3.635-2.183-5.172-7.03-5.022-2.592-2.633-3.445-2.469-6.026 0h4.017v1c-3.666.916-2.053-.037-4.017 2.009l-3.012-1c.554-4.3 2.369-5.768-4.018-5.022zm22.093 0 1 5.021h1c-.563-4.014.064-2.99-1.991-5.008zm43.184 0h4.017v1zm-388.65 1 1 2.009zm37.158 0h2.009c-1.4 1.931-.1.6-2.009 2.009zm168.717 0c1.931 1.4.6.1 2.008 2.009zm161.686 0 2.009 2.009-6.026-1zm-171.729 1.005-3.013 4.017c-5.039-1.7-2.636-2.478-7.029-1.005-1.647 3.365-2.641 2.58-2.009 6.026v5.022c-3.027-1.237-1.838-1.309-5.021-1v-5.021l-2.009 1q-2.008 4.017-4.017 8.034l1 2.009c4.642-2.81 4.606-3.59 11.047-3.013l-4.017 3.013c-3.11-.038-2 .141-6.025 1v1l4.017 20.085h1q2.511-1.506 5.021-3.013c1.29 3.019.631 2.255 3.013 4.017-.366-4.035-.009-7.591-2.008-11.047l6.025 2.009c-3.567 6.994.026 11.365-9.038 14.06q1 7.029 2.008 14.06c2.643 1.242 3.2 6.6 2.009 11.047l3.013-2.009c1.21-15.89 11.526-26.526 5.021-44.188h5.021c.17 4.488-1.783 1.61 2.009 4.017-2.887-8.119-6.636-5.457-7.03-15.064-4.861.591-7.127 1.795-10.043-1h11.047q-2.51-3.013-5.021-6.026c5.04 2.105 3.341 2.985 7.03 2.008-1.252-3.982-.588-8.527-1.993-10.021zm89.38 0q.5 1 1 2.008-.491-.986-.992-1.991zm-204.87 1-1 2.008h3.012q-.5-1-1-2.008h-1zm5.021 0 1 2.008 1-2.008h-2.009zm12.051 0q-.5 1-1 2.008l3.013-2.008h-2.009zm21.09 0q-.5 2.008-1 4.017h3.012zm53.226 0q.5 1 1 2.008-.491-.983-.992-1.987zm188.8 0 1 3.013-2.009-1.005q.517-.983 1.018-1.987zm-138.588 1 2.009 1zm50.213 0q-1.506 2.511-3.013 5.022c2.774-2.285 3.037-2.374 3.022-4.997zm85.363 0q.5 1 1 2.009-.49-.98-.991-1.984zm-255.083 1c-1.778 3.015-1.76 3.349-5.022 5.022l2.009-4.017-13.056 5.021v2.009l20.086-3.013q.5-2.511 1-5.022h-5.021zm7.03 0v11.048l6.031 2.036c-2.517-5.227-.74-11.622-6.022-13.055zm153.652 0-2.009 5.022c2.222-2.071 1.89-1.388 3.013-5.022h-1zm16.068 0q-3.012 3.013-6.026 6.026c4.372-1.114 7.191-1.998 6.037-5.997zm-248.044 1.034 3.013 2.008zm155.661 0h2.008c-1.4 1.931-.1.6-2.008 2.008zm40.17 0-3.012 5.021h2.008c1.512-1.976 2.476-.728 5.021-3.013zm-148.631 1.004v3.013h-8.034v1c8.24-.848 14.826 1.478 20.086-4.017h-12.052zm87.371 0v4.017l2.009 1q-1.005-2.505-2.009-5.017zm50.213 0c-4.875 3.057-6.576 2.059-7.029 10.043q.5 1 1 2.008l3.013-2.008c.687-3.173 5.298-6.887 3.016-10.043zm155.661 0 2.009 2.009c-1.931-1.399-.599-.102-2.009-2.009zm-255.083 1 1 8.035 10.042 6.025c-.241-4.678-.7-3.59 1-7.03-4.882-4.072-6.592-5.823-12.042-7.026zm250.062 0h2.009l-2.009 3.013-2.009-2.008h2.009v-1zm-307.3 1c3.65.646 3.04.405 5.022 2.008h-6.031zm223.946 0c-5.1 3.719-9.3 3.5-11.047 11.047 1.339 3.158.689 2.133-2.008 6.025 5.9.6 4.018 1.485 8.034 0q2.506-8.526 5.021-17.063zm-81.345 1c.646 3.65.405 3.04 2.008 5.021h1.005c-1.064-3.653-.818-2.94-3.013-5.008zm49.209 0v3.013c-7.469-2.743-18.349 2.221-22.094 7.03h2.008c3.039 5.417 7.93 7.047 12.052 8.034l-1-4.017c-4.125-1.268-7.831-2.687-9.038-5.022 4.457.631 10.2.773 13.055-4.017-3.075-.023-1.405.966-4.017-1h9.039c1.361 2.064 1.124 1.616 3.012 3.013l-2.008-4.017 5.021-2.009v-1h-6.025zm39.166 0q.5 1 1 2.008-.497-.991-1-1.995zm-232.989 1c2.327 2.135 2.819 2.154 4.017 7.03h-1l-5.021-4.017zm46.2 0c-10.593 5.865-26.566.973-30.128 7.03l6.026 1-5.022 1 3.013 4.017c17.534 2.6 35.482 7.277 48.205 16.068 4.277-2.3 5.124-2.3 11.047-3.013l-1-3.012-10.042-9.039c-10.6.524-23.813 3.983-27.115-7.03 6.817 4.247 12.572 5.475 22.093 5.022-5.653-4.387-11.872-7.98-17.081-12.026zm29.124 0 2.008 2.009c-1.935-1.382-.605-.085-2.012-1.992zm138.588 0q-.5 1-1 2.009l2.008-2.009h-1zm-262.111 1 1 3.013h-4.019v-1h2.008zm282.2 0 1 2.009zm25.107 0h2.008q-.5 1.507-1 3.013-.515-1.485-1.016-2.992zm-245.04 1 3.012 1zm196.835 0-8.034 8.034h3.013l2.008-1q1.499-3.488 3.005-7.008zm-145.618 1 2.008 2.009-1 1q-.515-1.472-1.016-2.979zm104.443 0-13.055 16.069h1c6.164-2.527 3.181-1.54 10.043 1-2.016-4.108-2.907-5.052-3.013-9.039 3.428-1.776 6.268-7.351 5.017-8zm124.529 0q.5 2.008 1 4.017l-3.012-3.013h2.008v-1zm-173.742 1 1 2.009zm61.261 0h3.012v2.046l-3.012 1v-3.013zm116.494 0q.5 1 1 2.009-.501-.971-1.004-1.975zm35.149 0 2.009 2.009h-3.013q.499-.971 1-1.975zm5.022 0c1.968 2.627.592.044 0 4.017h-1q.494-1.971.996-3.983zm-193.823 1c-.225 4.695-1.731 3.325 2.008 6.025q-.5-1-1-2.008c3.6-1.79 1.189.533 3.013-3.013zm68.294 0-1.005 3.012 2.009-2.008zm-232.989 1v2.008c.973-1.709.908-.178-.008-1.962zm137.585 0 1 2.008zm-89.38 1c4.993 2.11 7.247 4.573 8.034 11.047h-1v-1.961zm6.026 1q.5 1.005 1 2.009-.51-.953-1.01-1.958zm-36.154 1c1.4 1.93.1.6 2.008 2.008zm14.06 0-2.009 5.021 3.013 1 9.039 2.009zm292.241 0v2.008c.972-1.696.907-.162-.009-1.952zm-171.729 1 2.008 4.017h-3.013zm16.068 0c-1.277 3.294-.921 1.2-1 5.021h2.008q-.515-2.449-1.017-4.961zm149.635 0 2.009 1zm20.085 0-10.042 5.021v1c8.091 1.23 12.612.6 22.094 0l-1 2.008-13.055 1v1c7.443.271 9.762.384 15.064-1 1.281-2.884-.625-1.809 2.008-4.018l-2.008-2.008c-1.277.303-9.646-.79-13.07-2.943zm-324.377 1 9.038 11.047c3.146-2.6 4.8-4.987 2.008-8.034-2.867-1.647-6.204-1.359-11.055-2.949zm196.836 0 1 2.009q.5-1 1-2.009h-2.008zm-177.755 1 1 2.008zm153.653 0c1.545 4.17 2.728 4.236 5.021 5.021v-1zm44.187 0-2.008 3.012 3.012 1q-.51-1.934-1.013-3.943zm31.132 0 1 2.008h-2.009q.498-.935 1-1.939zm76.324 0 1 2.008zm-368.564 1h2.009c-1.972 2.074-.376 1.039-4.017 2.008zm185.788 0h2.009q-.5 2.009-1 4.017h-2.009q.49-1.935.991-3.944zm58.248 0-4.017 6.026c3.561-2.68 4.087-1.2 5.021-6.026h-1zm51.217 0 1 2.008zm50.213 0c1.94 3.039.2 1.625 4.017 3.013-1.935-2.367-.654-1.55-4.026-2.94zm54.231 0 3.012 2.008h-3.021v-2.008zm-123.525 1-4.017 3.013 2.009 1 2.008-1q.5-1.506 1-3.013zm86.367 1q1.506 1.005 3.013 2.009-1.516-.922-3.022-1.928zm24.1 0q-.5 2.511-1 5.022h1v-2.009l2.009-1zm-228.972 1q1 3.012 2.009 6.025l2.008 1zm-139.593 1 2.008 2.009c-1.934-1.309-.607-.012-2.015-1.919zm43.184 0 8.034 6.026 2.008-4.017c-4.808.09-5.543-.078-10.052-1.919zm17.072 0c1.923 2.435.645 1.622 4.017 3.013zm25.107 0q.5 1 1 2.009-.505-.915-1.007-1.919zm149.635 0-2.008 1v1c2.47-1.291 2.443.208 2.001-1.91zm6.026 0 2.008 2.009zm27.115 0h4.017v5.021h-1c-1.152-3.563-1.15-2.658-3.024-4.931zm47.2 0c-2.164 2.294-1.52.716-4.017 2.009q1.005 3.012 2.009 6.025l6.025-5.021v-2.009zm8.034 0v4.017h2.001zm9.039 0c.5 3.787-.734 2.312 3.012 5.021v-2.008c2.051-1.808.71-.015 2.009-3.013zm-291.237 1-1 2.009c1.853-1.158.538-.803.993-1.915zm13.056 0c2.277 2.082 1.045 1.673 4.017 1zm151.643 0q-.5 1-1 2.009c2.057-.782 1.1.114.993-1.915zm133.567 0c.868 5.437.345 3.813 4.018 6.026l2.008-2.009h2.007l-1.005-2.008zm-212.9 1-9.039 5.021 5.022 6.026c8.923 4.478 13.189 9.842 26.11 12.051-3.106-9.725-6.532-16.989-13.055-23.1h-1v2.008c-2.305 6.276-.666 9.74-6.026 13.056a47.194 47.194 0 0 0 4.017-15.064h-6.025zm59.251 0c.2 8.695 4.741 22.182 9.039 30.128l5.021-6.026c-1.775-2.088-.491-.04 0-3.013l-7.03 2.009q.5-1.506 1-3.013c3.075-.024 1.406.966 4.017-1-2.8-3.691.113-2.266 1-10.043-10.077-.737-9.76-4.106-13.057-8.943zm6.026 0q-1 2.007-2.009 4.017l2.009 1 10.042 2.008v-1c-2.718-3.246-5.323-4.511-10.052-5.926zm9.038 0 2.009 2.008-1-2.008h-1zm35.149 0-6.025 3.012c1.933 1.523 1.777 1.8 3.013 4.017-3.5-1.273-3.555-1.667-6.026-2.008-4.328 11.443-13.662 16.788-9.038 29.124l-4.017-3.013-1 4.017h2.009c6.912 2.946 14.677-2.593 18.077-3.012l-6.026-10.043c4.376-2.176 10.645-17.64 9.023-21.995zm-159.678 1-4.017 2.008 1.005 2.009h8.034v-3.013h-2.009zm93.397 0c-.624 2.18.225 1.83-3.013 4.017zm39.166 0-4.017 2.008 6.026 2.009c2.181-3.748.815 1.391 5.021-2.009zm37.158 0q-.5 1.506-1 3.013c1.363-2.052 1.815-.439.99-2.91zm-205.874 1-4.017 3.013 1 2.008 12.051-1q-1-1.506-2.008-3.013zm87.371 0 2.008 2.009c-1.94-1.292-.611.005-2.018-1.902zm45.192 0 2.008 1zm68.29 0c-2.1 3.395-1.546-.306-3.013 3.013-4.582 7.638-8.655 18.456-2.009 26.111l2.009-1c2.771-8.793 5.909-21.048 3.003-28.017zm66.281 0c1.4 1.931.1.6 2.009 2.009zm-250.062 1 3.013 3.013c-6.954-1.241-14.118 3.122-22.094 3.013v4.017c9.283 6.319 21.551 31.428 28.12 33.141l23.1-9.038q-.5-1.005-1-2.009l-9.039 2.009v-4.017l26.111 4.017c-.647-4.3.513-8.591-3.013-12.051h-13.07c-.718-4.825-5.11-7.619-10.043-11.048l-4.017 2.009c-8.191 3.547-5.1 7.267-8.034 12.051l-3.013-1c1.676-3.463 1.788-4.574 1.005-9.038 4.009.892 1.58 2.241 5.021-1h-12.052l15.064-2.008 2.008-4.017q-1.506-2.511-3.013-5.022a76.785 76.785 0 0 0 -15.064-2.911zm196.836 0c3.942 1.34 3.243.375 5.021 4.017zm69.294 0v3.013h1.998c-1.264-2.924.019-1.09-2.008-2.902zm4.017 0c.337 1.981 1.307.484 0 2.009v1l4.017-2.008zm21.09 0q-.5 1.005-1 2.009l4.017-2.009h-3.026zm11.047 0c-2.833 2.556-1.235 1.352-3.013 4.017l6.026 2.009q-1.517-2.901-3.023-5.915zm22.094 0c3.843 1.327 2.088 0 4.017 3.013-3.854-1.215-2.099.113-4.027-2.902zm-283.2 1h2.009l-3.013 2.008q.49-.887.991-1.892zm219.934 0-2.009 1c1.809 2.051.016.71 3.013 2.008v-2.892h-1zm-56.239 1h3.013v1l-3.013 1v-2.008zm33.141 0q.5 1 1 2.008-.512-.883-1.013-1.888zm13.055 0q-.5 1.506-1 3.013c3.763-1.083 1.2-1.746 5.021 0zm79.337 0q.5 1 1 2.008-.51-.883-1.013-1.888zm-89.379 1h4.001v1q-1 1.005-2.009 2.009zm37.157 0 1 3.013-2.009 1c-2.348-2.138-.029-2.091-3.013-1-2.252 1.413-2.52 1.979-4.017 4.017h6.026l4.017-5.021zm-318.351 1 7.03 3.013c-2.203-2.776-2.091-2.5-7.043-2.885zm46.2 0h1.995c-1.4 1.931-.1.6-2.009 2.009v-2.009zm21.09 0c-2.642 3.436-1.266 1.379-8.035 1v3.146c6.362.515 17.282 11.2 36.154 14.06v2.008h-5.021q.5 1 1 2.009l3.013-1c-1.754 2.829-2.18 2.58-3.013 7.03 12.259-1.3 23.1 1.371 32.136 5.022l1-3.013q.5-1.506 1-3.013c-14.829-11.061-40.429-19.82-58.251-27.121zm131.558 0c-4.331.209-4.847.264-7.03 2.009 1.931 1.4.6.1 2.009 2.009-3.117-1.153-2.985-1.413-6.026-1q1.005 4.52 2.009 9.039l9.038-5.022v-7.03zm65.277 0 1 2.009zm3.013 0 2.008 2.009c-1.951-1.27-.618.026-2.025-1.881zm62.264 0q-.5 1.005-1 2.009l17.073 8.034c-2.755-4.265-10.462-8.612-16.09-9.915zm-319.355 1-2.008 1v2.146h4.017v-3.013h-2.026zm4.017 0-1 3.013h5.021c-2.469-1.963-.406-.57-3.013-1zm80.341 0-4.017 2.008q.5 1.507 1 3.013l4.017 4.017h10.03v-1l-2.009-3.013zm69.294 0q-5.021 17.572-10.043 35.15l6.026-1c1.972-2.074.376-1.039 4.017-2.008-.444-7.43 1.776-7.283 4.017-14.06h1q-1 4.017-2.008 8.034c3.909.507 1.926.244 6.025 2.009q-4.531-13.931-9.051-27.992zm64.273 0q.5 1.506 1 3.013l3.013-1zm51.217 0h2.009c-1.4 1.931-.1.6-2.009 2.008zm-38.162 1q.5 1.506 1 3.013h-1zm-278.181 1c1.931 1.4.6.1 2.008 2.009zm69.294 0 1 2.009zm56.239 0-3.013 2.009 1 2.008 5.021 2.009q-1.518-2.871-3.025-5.88zm174.742 0 1 2.009zm77.328 0 3.013 1zm-97.411 1h2.008c-1.771 1.127-.24 1.062-2.027.146zm52.221 0-10.064 5.167 1 2.009h5.021l5.022-7.03h-1zm27.115 0c-3.061 2.287-4.173 2.29-6.025 6.025l12.051 2.009-3.013-1q1-1 2.009-2.009c4.947 2.69 5.082 2.7 11.047 1l-1-2.008c-9.648-.459-4.705-2.277-15.088-3.871zm22.094 0 5.022 3.012c-2.095-2.075-1.407-1.743-5.041-2.866zm29.124 0 2.008 2.008c-1.949-1.252-.62.044-2.027-1.862zm-383.629 1-4.017 3.013c1.872-.327 6.813-1.659 3.998-2.867zm50.213 0 6.026 2.008v1c-5.677-.301-7.46.171-6.045-2.862zm100.427 0-1 2.008h2.009q-.526-.853-1.028-1.862zm161.686 1v2.009c-2.7.489-.831-.882-3.013 2.008v1l7.03-1zm-270.147 1h3.013l-2.008 2.009zm194.827 0v5.022l2.009-1v-1zm82.35 0q-.5 2.511-1 5.022l6.025-4.017v-1h-5.021zm62.264 0 4.017 2.009v1h-1l-3.013-1v-2.009zm-195.831 1 3.013 2.008c-2.93-.37-4.937.96-3.032-1.845zm114.486 0h2.009l-3.013 2.008zm59.252 0 2.008 1zm-340.446 1 2.009 1zm129.55 0q-.5 1.506-1 3.013c2.075-2.128 1.14-.214.981-2.846zm158.674 0q-.5 1-1 2.009l2.008-2.009h-1zm-313.33 1h2.009c-2.3 1.532-1.22 1.834-4.017 1zm29.124 0-5.021 3.013 5.021 4.017c.972-2.627-.4-1.216 4.017-2.008l-1 2.008-8.034 1c4.445 3.38 2.213 5.716 6.026 9.038l3.013 2.009 4.017-3.013c.844 4.285 6.489 6.077 11.047 9.038 1.658-3.624.275-2.359 4.017-4.017q-1 3.013-2.008 6.026l7.03 2.008c-5.421-11-9.369-20.123-19.081-24.1.9-3.408.852-1.332 1-4.017zm22.094 0h4.017v1zm173.738 0q.5 1 1 2.009-.518-.834-1.02-1.838zm167.712 0 11.047 5.022v1h-4.017q-3.541-2.837-7.05-5.851zm13.055 0q.5 1 1 2.009-.517-.834-1.02-1.838zm-324.377 1q.5 1 1 2.008-.517-.827-1.02-1.832zm273.16 0-6.026 2.008v1l10.043-1zm-77.329 1 2.009 1zm53.226 0 2.009 1zm-308.309 1v3.013c-3.527-1.1-.534-2-4.017 0v1h4.017l2.009-1v-1zm12.051 0h2.008l-3.013 2.009zm173.737 0c-2.39 2.091.161.878-3.013 1l1 7.03h1q.488-3.827.994-7.846zm102.435 0-3.013 2.009 2.009 2.008c1.808 2.051.015.71 3.013 2.009 1.872-3.5 4.074-1.23 8.034-6.026h-10.062zm62.264 0 1 2.009zm-377.6 1c1.868 2.585.083 1.592-2.008 3.013zm273.16 0 2.009 1zm55.235 0c1.695 2.491.6 1.175 3.012 0h-3.031zm-342.454 1 1 2.008zm237.006 0c2.074 1.972 1.039.376 2.008 4.017h-1q-.528-1.815-1.03-3.824zm64.273 0 2.008 2.008c-1.42-1.738-.124-.408-2.03-1.815zm5.021 0q-.5 1-1 2.008l2.008-2.008h-1zm43.183 0q-.5 1-1 2.008l15.064 3.013c-3.274-3.619-6.969-4.744-14.086-4.828zm-51.217 1c1.4 1.931.1.6 2.008 2.009zm92.392 0q.5 1 1 2.009h-2.023q.5-.808 1-1.812zm21.09 0 3.012 2.009c-2.932-.337-4.939.993-3.034-1.812zm-396.685 1c2.051 1.808.71.015 2.008 3.013-3.09-1.72-2.556.533-2.029-2.812zm42.179 0h2.008l-3.013 2.009zm329.4 0q.5 1.506 1 3.013h-1zm-353.5 1q.5 2.007 1 4.017l10.043 4.017c-.095-3.175-1.761-1.451 1-3.013-1.923-2.435-.645-1.623-4.017-3.013v3.013zm55.235 0h6.025l-4.017 4.017c4.525-.791 4.972-.3 7.03 4.017-4.991-2.8-5.05-2.824-10.042 0l-1-3.013q.976-2.305 1.98-4.815zm69.294 0 6.026 4.017v-3.013zm-61.26 1q.5 1 1 2.008-.522-.793-1.024-1.798zm142.605 0 1 2.008zm52.222 0 3.013 1zm44.188 0-2.009 1q.5 1 1 2.009c1.357-1.941 1.81-.328.985-2.799zm6.025 0-3.013 3.013q1.005 1.506 2.009 3.013c12.025-2.1 15.011 6.248 26.111-1v-1c-7.623-2.135-13.8-3.896-25.131-3.816zm61.26 0c1.931 1.4.6.1 2.009 2.008l-2.009-1v-1zm8.034 0h1.99c-1.4 1.931-.1.6-2.009 2.008v-2.008zm4.017 0q3.516 2.51 7.03 5.021l-7.03-1q-.5-1.005-1-2.009.473-.797.973-1.802zm-155.66 1-1 6.026-9.038 5.021c1.023 3.885 1.551.473 0 4.017l23.1-6.025-1-2.009zm42.179 0v2.009c.954-1.539.892-.007-.024-1.795zm-105.448 2.009 4.017 3.013h-4.017zm87.373 0q-1 3.012-2.009 6.025h5.022c.366-4.124-1.46-1.747 1-4.017zm33.141 1c2.22 2.157 1.947 1.987 5.021 1zm13.055 0 2.009 1zm62.264 0c-.508 1.388.459 1.022-2.008 3.013zm-223.95 1c-1.2 4.807-2.333 7.867 0 11.047l2.008 4.017 2.009-1v-1zm47.2 0 2.009 1zm7.03 0 2.008 4.017zm-164.699 1 3.988 2.237v1c-3.841-1.324-2.086 0-4.014-3.01zm371.577 0h2.009c-1.4 1.93-.1.6-2.009 2.008v-1.781zm-236 1h3.013l-2.008 2.008zm150.64 0-2.009 1s4.15-.188 1.98-.769zm22.094 0-2.009 2.008q3.012 1.507 6.026 3.013 1-1.506 2.008-3.013c-2.491-.104-2.581-.423-6.048-1.777zm20.085 0 2.008 2.008c-1.958-1.171-.629.129-2.036-1.777zm3.013 1 6.025 2.009v1zm-97.414 1c2.531 1.634.167.99 3.013 0zm-211.9 1h3.993v1zm238.011 0-4.017 3.012c1.862-.232 6.799-1.564 3.989-2.768zm16.068 0-5.021 3.012 10.042 2.009-2.008-3.013 4.017 2.009c-3.167-4.448-4.286-2.107-7.058-3.773zm-215.917 1-2.008 1 5.021 1zm16.069 0-7.03 3.013c6.171.264 8.663.75 12.051-1zm67.285 0c1.218 1.062 5.36 1.889 3.013 0h-3.036zm45.192 0-2.008 1v1c2.725-.443 1.924.175 1.98-1.752zm35.149 0c2.645 2.443 2 1.5 6.026 1v-1zm27.116 0-9.039 5.021v1l10.043-1c.933-2.592.557-2.4 2.008-5.021zm13.055 0 4.017 3.013c-1.968-2.792-.233-1.376-4.045-2.765zm55.234 0h4.018l-2.009 2.008zm-360.535 1-1 2.009 2.008-2.009h-1zm189.806 0c2.956 2.72 1.74 1.4 4.017 0zm176.75 0q.5 1 1 2.009-.52-.753-1.023-1.757zm5.021 0h2.989l-3.013 1v-1zm-115.49 1q-.5 1.005-1 2.009l6.025 1c-1.264-3.035.019-1.2-2.008-3.013-1.803 1.693-.165 1.162-3.038.26zm32.136 0h2.009l-3.013 2.009q.48-.748.981-1.753zm80.342 0 4.017 2.009v1h-1zm-271.152 1c-7.162 3.676-24.281 11.951-29.123 12.051l6.025 6.026c4.6-1.632 8.935-2.659 11.047-7.03 6.187 1.5 11.594 5.731 15.064 10.043 20.273-12.865 34.737-4.82 58.247 0q-.5-2.008-1-4.017c-16.023-16.944-32.175-14.47-60.283-16.812zm131.559 0-3.013 2.008c1.018 3.475.893.847-2.008 3.013q.5 1 1 2.009h1l3.013-2.009c2.087-2.032 1.37-1 2.008-5.021h-2.008zm-145.617 2 2.008 1zm69.294 0c1.931 1.4.6.1 2.008 2.009zm164.7 0c-2.2 1.045-5.352 1.651-7.03 3.013h9.039l-1-3.013h-1zm-326.385 1h3.013c-2.793 3.638-2.475 1.634-3.013 6.025h-2.034l-1-4.017zm24.1 0 3.013 1-2.008 1-1 2.009-2.008-2.009zm161.686 0-5.021 4.017c.888 6.062-1.46 11.76-2.009 12.051l1.005 5.021c4.712-2.818 0 .242 6.025 0v-3.012h-3.013l6.026-1q1-4.016 2.009-8.034l-6.026-3.013 5.021-1c-1.546-3.183-.563-2.969-4.04-4.756zm42.179 0-6.025 3.012q1.506 1.507 3.013 3.013l7.029-4.017c-2.468-1.963-.406-.569-3.012-1zm82.35 0c2.725 2.682 2.186 1.9 5.021 0h-5.044zm33.141 0 5.021 1zm7.029 0h3.013v1c-3.153-.263-.928 1.649-3.036-.726zm31.133 0h6.025v1q-.5 1-1 2.008zm-353.5 1h1.984l-4.017 4.017zm164.7 0-3.013 1c4.17 5.292-3.111 3.218 3.013 6.026q.5-1 1-2.009c-.145-3.708.884-1.794-1.025-4.739zm7.03 0c-3.877 7.2-7.227 8.754-8.034 14.06l10.042-4.017-2.008-3.013 9.038 2.008v-3.012zm49.209 0-7.03 5.021c2.063 1.362 1.616 1.125 3.013 3.013l-4.017 2.009 8.034 2.008-2.009-3.013c6.055.407 8.824-2.106 19.081-3.012l-7.03-1v-5.021h-10.067zm-76.324 1q.5 2.008 1 4.017h1c-.931-3.38.021-1.771-2.025-3.735zm88.375 0c1.626 2.115 7.5 3.829 10.043 2.009v-1zm-265.126 1v3.013l-2.008-2.008zm85.363 0-7.03 3.013 6.026 2.009q.476-2.225.979-4.736zm-90.384 1 5.021 6.025h-1l-4.017-1v-5.021zm334.42 0-2.009 1 3.013 4.017 3.013-3.013zm-105.448 1q-1.506 4.017-3.013 8.034l4.017-2.008 2.009-3.013zm123.525 0 6.025 2.009c-2.681-1.81-2.349-1.003-6.05-1.714zm32.136 0q.5 1 1 2.009h-2.008q.481-.71.983-1.714zm-373.586 1 1 2.009zm10.043 0c2.24 1.2 2.5 1.1 4.017 3.013-2.266-.902-2.522-.799-4.042-2.714zm10.043 0c3.05.884.265 1.442-1 3.013zm27.115 0 1 2.009zm13.056 0c2.175 2.786 2.485 3.242 6.025 2.009zm36.153 0h1.984c-1.4 1.931-.1.6-2.009 2.009v-2.009zm156.665 0h2.009v1l-2.009 2.008h-1q.473-1.202.974-2.709zm-15.064 1 2.009 1zm110.469 0q-.5 1-1 2.008c1.77-1.039 1.495.48.974-1.704zm-350.487 2 1 3.013h-1l-1-1zm48.2 0h2.009c-1.775 1.293-.243 1.228-2.031.312zm178.759 0v2.009c.959-1.441.894.091-.022-1.697zm79.337 0q.5 1.506 1 3.013h-1l-1-1q.475-.697.978-1.701zm61.26 0h4.017v1zm11.047 0 3.013 2.009v1h-1zm-310.318 1c-.22 3.345-.936 2.311 1.005 5.022 1.5-3.987.365-.369 3.012-3.013zm-8.034 1 3.013 1zm163.7 0-4.017 5.021 6.026-5.021zm39.167 0-7.03 4.017c2.911.533 4.917-.8 3.012 2.008l-22.093 12.052c10.14-.574 11.337 1.192 19.081 3.013v-3.013c-4.622-1.854-3.2-1.521-5.022-6.026 4.36 2.987 3.223 3.772 8.034 2.009 1.912-4.04 4.579-5.7 8.035-8.035-.577-3.5-.355-2.947 1-6.025h-5.044zm7.029 0q-.5 1.506-1 3.013c1.346-1.834 1.799-.221.973-2.692zm-196.835 1-3.013 5.021 1 2.009 7.03-1q-.5-1.507-1-3.013zm55.234 0-16.068 7.03 1 2.008c30.189 8.4 39.081 27.738 62.265 38.163v-3.013q-3.013-13.055-6.026-26.111c-5.252 2.955-6.485 2.949-7.03 0 3.494.057 4.082-.262 7.03-3.013-1.277-3.294-.92-1.2-1-5.021-14.7-3.043-28.351-12.236-41.175-6.026l3.013-4.017zm104.444 0-2.009 1v1c2.573-.81 1.705-1.242 1.982-1.675zm168.716 0q.5 1 1 2.009-.525-.68-1.027-1.684zm-342.454 1c2.531 1.634.167.99 3.013 0zm35.149 0-9.038 6.026 4.017 5.021h1c7.115-1.083 10.389-3.258 17.073-3.013l-5.022-6.025zm140.6 0c1.4 1.931.1.6 2.009 2.009zm-229.976 1 2.008 2.008h-3.042zm397.688 0h2.988v3.012zm-404.718 1h2.008l-1 3.013v-2.009zm65.277 0c2.4 3.119 3.108 2.757 4.017 8.034l4.017-1v-1l-3.013-2.008c-2.092-3.699-2.361-2.104-5.051-3.689zm142.606 0 2.008 1zm47.2 0-5.021 2.008 2.008 2.009 2.009-2.009c1.77-1.004 1.495.514.974-1.671zm39.166 0h2.009l-2.009 3.013v-2.676zm99.422 0h2.009c-1.4 1.931-.1.6-2.009 2.008v-1.671zm4.017 0h2.009c-1.4 1.931-.1.6-2.009 2.008v-1.671zm26.111 0c1.931 1.4.6.1 2.009 2.008zm-194.827 1-2.008 3.013 5.021-2.009zm36.154 0h1.98c-1.755 1.323-.223 1.258-2.01.342zm21.089 0q.5 1 1 2.009h-2.008zm4.017 0h3.013l-2.009 2.009q-.53-.663-1.03-1.667zm-230.98 1-1 2.009c1.765-.997 1.49.522.97-1.663zm132.562 0c1.4 1.931.1.6 2.009 2.009zm12.051 0-4.017 1 3.013 4.017c2.707-2.2 1.91-.716 3.013-5.022h-2.009zm16.069 0q-1.506 3.014-3.013 6.026l2.008-1c1.1-3.184 3.862-3.089.977-4.68zm24.102 1-9.038 3.012q-1.507 4.52-3.013 9.039h1l15.064-11.047v-1h-4.043zm-247.049 1 2.008 2.008c-1.96-1.043-.63.254-2.038-1.653zm-7.03 1h3.013l-2.009 2.009zm9.038 1 2.008 2.009c-1.959-1.035-.63.261-2.037-1.646zm64.273 0-7.03 4.018q.5 1 1 2.008c3.987 1.811 1.839 1.588 6.026 2.009l4.017-4.017c-1.664-2.205-1.263-2.072-4.042-3.655zm127.541 0-7.03 2.009v3.013q5.021 15.063 10.043 30.128l2.008-2.008-5.021-7.03 2.009-3.013 6.025 4.017c1.034-3.513 4.739-17.732 5.021-18.077l-9.038-9.039zm90.384 1 2.008 6.025-3.013 1-2.008-2.009c2.048-2.986 2.86.33 2.008-3.013zm77.328 1c2.064 1.361 1.616 1.125 3.013 3.013-2.739-1.235-1.413.031-3.042-2.641zm-135.576 1q-.5 2.008-1 4.017l5.022 5.022c-1.171-3.559.168-6.524-4.051-8.663zm147.627 0q.5 1 1 2.009-.526-.629-1.029-1.633zm44.188 0v3.013l2.008-1zm-130.554 1c2.05 1.808.709.015 2.008 3.012h-2.008zm13.055 1c1.931 1.4.6.1 2.008 2.008zm-305.3 1h2.009c-1.778 1.37-.247 1.305-2.034.389zm429.825 0h6.025c-.9 3.045-1.3.832 1 3.013l-5.021 1c-1.808-2.051-.015-.709-3.013-2.008zm-424.8 1h1.98l-5.021 3.013zm109.465 0c-16.224 8.679-30.376 11.9-36.154 31.133h-1v-4.017l4.017-8.034v-1h-4.017l-5.021 7.029c2.9 6.611 4.414 5.862 9.038 10.043l8.034-7.03c9.872-2.412 39.266 4.085 49.209 7.03l17.073-6.025c6.7-.476 6.919 4.84 12.051 2.008-5.984-10.121-14.894-8.07-25.107-14.06l-13.088-16.684h-15.064zm273.16 0q-1.507 2.008-3.013 4.018v5.419h1l10.043-2.009q-1-2.007-2.009-4.017h3.013zm10.042 0 2.009 1zm-382.624 1 1 2.008zm38.162 0c1.868 2.584.083 1.591-2.008 3.013zm352.5 0q-.5 1.506-1 3.013c2.051-1.809.71-.016 2.009-3.013h-1zm-393.671 1c-.426.932.805.679-1 2.009zm126.537 0c5.2 8.764 11.1 12.068 22.094 15.064-5.056-6.127-13.905-11.498-22.127-14.662zm89.38 0c-3.559 6.076-.287 11.272 1 18.077l3.013-2.008c2.06-5.9 4.562-6.128 1-10.043zm183.78 0 2.008 1zm-129.55 1c1.931 1.4.6.1 2.008 2.009zm97.413 0c-.631 4.037-1.581 5.383 2.009 7.03v-2.008l1-1c-1.355-3.442-.027-1.685-3.042-3.616zm-134.572 1 2.009 1zm7.03 0 4.017 1zm145.618 0q-.5.5-1 1l2.008 2.008h1q.5-1.506 1-3.012h-3.013zm-220.938 1q.5 1 1 2.008-.529-.588-1.032-1.593zm-169.72 1h2.008l-3.013 2.009zm242.027 0-6.025 1c1.226 4.045.641 12.788-3.013 19.082l-2.009-2.009q1-2.51 2.009-5.021c-7.579 6.066-30.583 43.252-21.09 55.235 1.648-9.2 8.459-10.068 15.064-14.06l-5.021-1 5.021-2.009c1.734-5.238 2.37-4.537 1-9.038 3.5 1.274 3.554 1.667 6.025 2.008q1-5.02 2.009-10.042c4.063.613 3.166-1.227 5.021 1l2.008 2.009c-5.119 1.943-6.754 5.395-9.038 10.042 6.187-4.666 7.76-3.044 16.068-1q.5-8.535 1-17.073c-6.517.98-5.584 1.522-10.043 4.017v-1l11.047-16.068-1-1-7.03-1c5.3-.6 7.135-.739 9.038-5.021-2.809-1.9-.022-1.71-2.008-5.022 5.108.359 2.243 3.3 5.021-1-4.979-1.673-7.947-1.725-14.086-2.611zm124.529 0-2.009 1c.407 4.048.329 3.929 2.009 6.026v-1.589c1.371-3.251 1.689-1.726-.032-5.018zm62.264 0 3.013 2.009h-3.045v-2.009zm-71.3 2.009-6.026 2.008c3.341 2.964 4.157 1.724 4.017 6.026l8.034-4.017v-4.017zm-116.495 1c3.036 1.265 1.2-.019 3.013 2.009h-1zm4.017 1c2.776 3.644 2.883 3.266 1 7.03l-2.008-2.008c1.832-1.759.735.242.974-4.594zm101.431 0q.5 1 1 2.009h-2.009zm41.174 0 4.017 1zm14.06 1q.5 1 1 2.008-.531-.571-1.034-1.58zm23.098 0 5.021 3.012c-3.176-.584-3.249-.4-5.055-2.584zm-359.526 1c2.66 1.414.873.527 0 3.013zm212.9 0 2.008 2.008c-1.961-.962-.631.334-2.038-1.572zm94.4 0a20.489 20.489 0 0 0 -4.017 4.017l6.026-4.017zm4.018 0 2.008 1zm-24.1 1c-3.17 4.863-7.15 5.579-9.038 12.051l13.055-4.017q-2.042-3.575-4.05-7.594zm30.128 0c-2.242 1.61-3.352 1.7-5.021 4.017 7.833-3.345 8.642 1.651 9.038 8.034 1.793-2.616 1.6-1.617 1-5.021 4.653-1.27 5.216-2.048 7.03-6.026h-2.008zm-324.377 1c1.314 2.732.443 1.932-1 4.018q.46-1.564.967-3.574zm371.577 0 5.022 1v1c-4.06-.128-3.039.499-5.055-1.556zm-96.409 1 1 2.008h-2.008q.473-.554.975-1.559zm73.311 0c1.931 1.4.6.1 2.009 2.008zm-158.673 1c1.931 1.4.6.1 2.008 2.009zm124.528 0c-2.818 4.313-4.862 3.262-10.042 4.017v2.009h2.008l8.034 1v-7.03zm26.111 0c.372 2.519.223 2.089 2.009 5.021-5.606-1.719-5.764-4.733-8.034 2.009l2.008-1c-1.388 1.685-2.3 1.76-4.017 3.012h7.03v-4.017c3.977 6.165 6.5 7.169 14.06 12.052l9.038-5.022v-4.017h-1c-6.179 2.39-13.936-4.003-21.127-7.585zm-18.073 1-5.022 2.009c.291 6.612.591 5.845 5.022 8.034l5.021-3.013c-1.552-3.288-1.666-4.576-5.057-6.573zm42.179 1 1 2.008zm-208.889 3.008q-.5 2.511-1 5.022l2.008-1q-.54-1.546-1.042-3.556zm15.064 3.009c2.133 2.353.443-.113 1 3.013l-3.013 1zm36.153 0c2.216 2.632 3.775 2.352 7.03 4.017-2.616.87-3.507-.4-2.008 2.009 6.893.049 5.673 3.391 12.051 5.021l-4.017 2.009c-.647.978.155 1.6-2.009 1-3.906 1.824-3.506-.8-7.03 3.013v1h12.051c-6.22.071-8.215 1.14-12.051 3.013l1 3.013 2.008 1c7.31-1.188 4.269-4.255 9.038-4.017l-2.008 3.013c5.736-1.7 5.346-3.781 10.043-3.013l-9.039-6.026 8.034 2.009c-1.1-4.964-3.661-12.967-7.03-16.069-6.182 2.788-8.382.468-16.097-.522zm-202.861 1-4.017 4.018 2.009 3.012c5.013-.285 4.594.177 4.017-3.012v2.008l-2.009-1c1.109-3.378 1.948-1.108-.034-4.552zm297.262 0c.435 4.01 7.782 8.968 9.038 10.043v-1.532q1.507-4.017 3.013-8.035h-12.085zm-320.36 1 1 2.008zm167.712 0v6.025h1q-.531-2.533-1.034-5.546zm31.132 0q.5 1 1 2.008-.531-.525-1.034-1.529zm67.285 1h3.013l-1.005 2.009h-4.017q.972-.522 1.976-1.526zm4.017 0 5.021 1q1 2.008 2.009 4.017zm65.277 0-3.046 6.511 5.022-4.017zm9.038 0c2.3 1.531 1.22 1.834 4.017 1zm-371.577 1c-.426.933.805.679-1 2.009zm28.119 0 1 2.009zm196.836 0 1 2.009zm118.5 0-22.094 4.017c-5.612 2.948-9.008 9.131-16.068 12.052q.5 1.506 1 3.013c17.1 1.17 31.048-1.515 45.192-4.017-2.616-1.793-1.617-1.6-5.021-1l-3.013-1v-1q1-1 2.009-2.009l10.042-2.008h-2.008c-2.992-2.552-4.9-.335-7.03-5.022l2.008 1zm55.234 0c2.064 1.362 1.617 1.125 3.013 3.013-2.74-1.119-1.413.146-3.046-2.526zm15.064 0c2.051 1.808.71.016 2.009 3.013zm-341.449 1q-4.52 4.015-9.039 8.034v1c3.374 4.755 16.436 6.82 20.086 1 1.737-2.759 2.007-3.734 2.008-6.025-5.128-1.298-6.048-2.998-13.085-3.517zm-51.218 1 1 2.008zm136.58 0c4.388 6.325 10.205 8.881 13.056 17.073h1v-3.013c-2.813-7.659-4.478-10.87-14.086-13.564zm207.883 0c2.353 2.133-.113.443 3.013 1v-1zm-324.377 1-1 2.009zm3.012 0 2.009 1zm209.892 0 1.98 2.511zm52.221 0 1.979 2.511h-4.02zm-81.345 1h2.008c-1.351 3.416-.609 2.079-3.012 4.018.869-2.907.822-.829.974-3.514zm-215.947 1.511 1 2.008zm141.6 0-1 1 5.021 4.017q-2.01-2.509-4.02-5.017zm218.93 0-8.034 4.017 3.013 3.013c2 2.66 1.132 1.971 5.021 3.013 1.7-1.456 8.4-2.646 13.055-3.013l-3.013 3.013 4.018-2.009v-3.013l3.012 2.009v4.017c4.062-.889 9.126 1.582 14.06 0-4.63-7.941-19.411-11.209-31.131-11.047zm-270.147 1c-4.954 2.049-9.26 2.706-13.055 5.021q-1.005 5.022-2.009 10.043c-3.663-1.93-.682-2.847-4.017-1 .775 7.039-3.727 1.925-6.026 10.043 3.667.916 2.054-.038 4.017 2.008-6.774 1.214-19.422 13.455-21.089 20.086 6.484 3.351 12.216 4.923 18.077 7.03 1.264-3.036-.019-1.2 2.008-3.013.568 5.775 3.664 5.974 5.021 5.021l3.013 2.009-3.013 3.013c-2.065-3.154-.479-2.078-5.021-3.013 1.529 5.026-1.44 7.838 0 13.056 1.822 6.6 18.877 30.17 25.107 32.137 23.3 7.357 69.174 1.253 89.379 19.081-4.2-17.848-16.083-24.131-24.1-38.163-18.729.29-47.632-3.476-65.277-8.034v-1q.5-1.506 1-3.013c5.966-.48 4.735-.2 7.03-4.017v-1l-5.021-1.005-3.013 4.017c.889-5.168 2.2-7.052 1-12.051l-8.034 1 1 2.009c2.613.427.549-.98 3.013 1q-.5 2.511-1 5.022c-4.294-.984-1.783-2.842-5.022 1 3.175-.095 1.451-1.761 3.013 1 1.931 1.4.6.1 2.009 2.009l-4.017-1-2.009 1c-.724-6.948.934-9.223 3.013-15.065-3.531-1.154-4.116-1.32-6.026-4.017 5.218 1.507 6.5 3.057 10.043-1-2.875-1.726-.935-1.607-3.013-4.017 1.823-.973 5.5.355 3.013-2.009v-5.021l2.008 1c.819 4.969-.671 2.991 3.013 5.022v-2.009c-2.488-1.475-.977-2.918-5.021-5.021h-10.036c-.125-5.432.658-5.008-3.012-7.03-1.55 1.625-2.009 1-2.009 1-3.516-1.63-2.214-1-4.017-4.017l2.008-2.009c4.156.927 7.977-.562 12.052 3.013-2.236.208-3.216-.769-2.009 1 2.8 4.279 17.774 13.923 23.1 15.065 1.81-6.092 3.991-8.19 10.043-10.043-3.457-2.867-3.064.016-2.009-4.017l6.026-5.022-4.017 7.03c6.93-.275 7.583-.123 13.055 1.005q1.506-3.516 3.013-7.03l-8.034-5.022-4.017 4.017c1.485-4.743 2.688-7.027 6.025-8.034.732 4.066 3.595 4.286 7.03 8.034 4.27-2.3 6.392-2.753 8.034-8.034-1.631-1.065-1.457-1.845 1-8.034-6.522-5.341-37.679-10.075-52.219-10.031zm36.153 0 11.047 5.021zm111.474 0-1.005 2.009h2.009zm-215.917 1 1 2.009zm17.073 0h2.008c-1.752.987-.223.923-2.007.006zm163.694 0h2.009q-1 2.511-2.009 5.022l-1-1q.5-2.007 1.001-4.016zm198.845 0 2.008 4.017-2.008-1v-3.013zm-220.938 1c-1.345 5.432-2.925 9.4 4.017 11.047q.5-1.507 1-3.013c-.972-4.286-1.924-5.934-5.016-8.023zm73.311 0 2.008 1zm32.136 1 1.005 2.008zm-233.993 1c-3.053 2.282-5.163 2.225-7.03 6.026h2.009l9.038 1zm184.784 0q-.5 7.029-1 14.06l6.026-5.021v-1c-.94-4.033-1.569-6.245-5.025-8.02zm129.55 0q1.005 1 2.009 2.009c-1.93-1.38-.6-.083-2.008-1.99zm-144.614 1 1 2.009zm121.516 0c1.7 2.491.6 1.175 3.013 0zm68.29 0h2.009c-1.4 1.931-.1.6-2.009 2.009zm-295.253 1c-.709.949.165 1.566-2.009 1zm166.708 0h5.021l-2.009 2.008zm-251.066 2c1.872 3.1-.6 2.271 3.012 2.009zm118.5 0c1.145 4.04 1.38 3.844 4.017 6.026zm86.366 0c2.71 1.607 1.384.341 3.013 3.013q-1.502-1.47-3.009-2.977zm-214.912 1h2.009c-1.748 1.022-.218.957-2.005.041zm251.066 0h6.025q-.5 1-1 2.008h-4.017zm132.563 0 2.008 1zm-197.84 1c2.628 1.783 1.368.063 1 3.013h-1zm14.059 0q1 1.506 2.009 3.013c-2.047-1.763-.706.029-2.005-2.968zm140.6 1 2.009 1zm58.248 0 12.051 5.021c-4.015.142-1.435 2.234-4.017 0-4.807-.749-6.189-1.054-8.033-4.972zm-80.338 1c-4.78 3.262-12.21 3.421-20.086 4.017l5.022 3.013c4.913-.82-.086.63 5.021 1 2.131-1.13 12.273-6.173 10.046-7.977zm10.042 0-6.025 3.013v1l17.072-2.008c-2.75-1.78-5.894-2.049-11.049-1.952zm-206.88 2.062c.551 5.407-1.814 8.222-4.017 13.056 7.739-4.508 17.543 1.752 24.1 7.03-3.229-10.313-12.789-16.979-20.083-20.086zm222.946 0 2.009 2.008c-1.398-1.93-.102-.601-2.009-2.008zm-293.245 2.008 1 2.009zm256.088 0h2.008c-1.808 2.051-.015.71-3.013 2.009zm91.388 0h3.012v1l-3.012 1zm-155.661 1-3.013 2.008q1 1.507 2.009 3.013l6.025-1-7.03 5.021v1l18.077-9.039zm-46.2 1c-8.459 9.173-19.464 13.955-26.111 25.107.747 5.314 5.634 19.419 2.008 16.069 1.623 3.43 1.636 3.36 5.022 5.021-3.21 3.529-3.737 3.556-3.013 9.039l2.008 1c3.976-2.262 4.847-2.754 6.026-8.034-.976-.237-1-.915 0-1.005 6.975-.067 15.605 5.736 15.064-9.038-2.071-2.222-1.388-1.89-5.021-3.013v-1.996c3.958.212 2.5 1.665 5.021-1 4.378-6.949 10.4-20.8 8.034-30.128zm70.3 0c-8.387 11.154-20.73 11.362-28.119 19.081v1c2.519-.346 54.34-6.811 63.268-15.065l-2.008-1c-7.579-4.193-22.2-4.141-33.139-4.007zm140.6 0h2.009c-1.4 1.931-.1.6-2.009 2.009zm-33.141 1h2.009c-1.754.994-.222.93-2.01.013zm-327.39 1q2.008 3.012 4.017 6.025c-3.411-2.474-3.979-2.474-4.018-6.007zm183.781 0 3.012 1zm7.029 0-3.012 1 3.012 4.017v2.009l2.009-2.009c1.931-1.4.6-.1 2.009-2.009-3.913-1.687-3.725 1.189-3.013-3.012h-1zm113.482 0c2.71 1.606 1.384.341 3.013 3.012-3.428-2.032-2.108-.693-3.014-2.994zm-354.505 1c-.221 1.473.415 1.008-1 3.013zm58.248 1h2.008l-2.008 3.013v-2.983zm174.741 0-2.008 3.013 3.013-3.013h-1zm-11.047 1c-6.744 7.579-10.558 19.454-11.046 33.142l2.008-1c4.463-9.64 12.7-19.218 12.051-31.132zm13.056 0c-1.43 5.135-1.467 3.861 1 8.035l3.013-1q.5-2.007 1-4.017c-3.28-1.131-2.722-1.361-5.014-2.988zm-55.235 2.009h2.006l-9.038 8.034c1.9-4.593 4.126-4.772 7.031-8.004zm-180.767 1 2.008 4.017-2.008-1v2.009h-1zm97.414 0q.5 1.005 1 2.009-.499-.971-1.001-1.975zm28.119 0-2.009 3.013c-6.061-.773-3.282-1.665-8.034 1l-2.008 5.022 2.008 5.021c10.489.184 10.542 2.451 18.077-1-1.483 3.381-2.822 3.079 0 6.026 7.467 3.911 14.123.075 13.055-8.035-7.233-3.353-13.881-8.137-21.09-11.013zm-37.16 2.043 4.017 1q-.5 1.506-1 3.013h-1l-2.009-1v-3.013zm291.237 0 1 2.008zm-312.326 1h2.008c-1.751.985-.219.92-2.007.004zm163.7 0-7.03 16.069c5.706-2.467 11.245-4.379 13.055-11.047zm-193.823 1-5.022 7.03c3.951-1.673 5.764-3.621 5.018-7.022zm163.7 1 4.017 2.008h-5.022zm4.017 0c1.93 1.4.6.1 2.008 2.008zm49.209 0q.5 1.506 1 3.013h-1zm-255.092 2.021 1 2.009zm11.047 1.005 3.013 1 1 4.017c-3.059-2.274-3.339-2.833-4.013-5.017zm301.279 0 7.03 4.017v1c-4.269-1.119-5.018-1.81-7.03-5.017zm-219.934 1c3.05.883.265 1.442-1 3.013q.497-1.503 1-3.009zm11.047 0-11.047 6.026 3.013 2.008c.4-2.018 7.733-2.582 8.034-8.03zm27.115 0c2.133 2.353.443-.113 1 3.013l-2.008-1v-1zm3.013 0 3.013 2.008zm127.541 0-2.008 1 3.012 1 2.009-2.008h-3.013zm48.205 0c1.931 1.4.6.1 2.008 2.008zm-310.318 1c1.314 2.732.444 1.932-1 4.017zm118.5 0h2.008c-1.749.989-.217.924-2.004.008zm193.822 1 1 2.009zm-221.942 1h2.009c-1.749.998-.217.933-2.006.017zm20.085 0a80.739 80.739 0 0 0 -12.051 8.034l-2.008 7.03h1l15.064-5.022-4.017-6.025 1-1 2.009 3.012zm20.086 0q.5 1 1 2.008-.494-.986-.996-1.991zm123.524 1-7.03 2.009-1 2.008 5.021 7.03h3.017c4.224-5.328 10.187-9.034 16.068-10.043zm-130.554 1c1.972 2.075.376 1.04 4.017 2.009zm159.678 0h2.008l-3.012 2.009q.505-.98 1.008-1.984zm-195.834 1 1 2.008h-2.009q.514-.973 1.015-1.978zm154.657 1c-11.25 12.832-23.329 19.045-25.107 42.18 11.317-9.2 23.137-21.147 34.145-31.133zm-250.062 1 5.021 1v1h-1zm10.043 0h3.013l-4.011 2.052zm20.085 0-5.021 1 2.008 4.017q1.507 2.009 3.013 4.018l9.039-4.018-3.013-3.012h-1c-.8 4.188.97.953-2.009 4.017l-2.008-1 3.012-5.021h-4.017zm250.059 0-3.004 3.052h3.013l2.008-3.013h-2.008zm-175.746 1-5.022 5.022 2.009-1c.765 1.2-.4 1.234 1 1 1.912-2.179 4.939-3.608 2.022-4.98zm23.1 0 2.008 1zm135.575 0 1 2.009zm-257.091 1h3.013l-4.015 2.052zm63.269 1 6.025 1c-4.85-.034-3.419 1.028-6.018-.948zm19.081 0-3.013 4.017v2.009l2.008 1 3.013-2.009c-3.718-2.976-.541-3.123-2.001-4.965zm46.196 2.008q.5 2.009 1 4.018c-4.093.911-4.8 3.379-1 7.03l4.017-2.009v1c-2.075 1.972-1.04.377-2.009 4.017h1c1.972-2.074.377-1.039 4.017-2.008v1l-3.012 2.009c3.81 5.413 7.549 9.141 16.068 10.043q2.511-6.026 5.021-12.052l-1-1-3.013 6.026c-2.443-1.035-3.42-1.178-5.021-3.013 3.934-.312 8.086-2.8 9.038-9.039zm21.089 0-1 1 4.017 2.008v-3.013h-3.013zm-26.111 1c-.22 3.344-.936 2.31 1 5.021q.5-1.506 1-3.013zm-61.26 1h2.009c-1.523 1.934-1.8 1.777-4.017 3.013 1.4-1.931.1-.6 2.008-2.009v-1zm203.866 0 3.013 2.009c-1.802-1.991-.009-.65-3.006-1.949zm5.021 0 2.009 1zm-239.015 1c-1.558 1.171-27.779 9.957-28.119 10.043 5.507 8.306 12.414 3.625 15.064 13.056 8.416-1.775 8.564-2.674 17.072 2.008l6.026-10.042c2.39 2.09-.16.877 3.013 1q1-4.017 2.008-8.034l-3.012-3.013c-8.688 1.837-12.31 4.975-18.077 9.038l-2.009-3.013c2.43.154 17.575-5.859 21.09-9.038zm55.235 0-4.017 7.03 2.008 2.009c5.212-1.713 6.635-.133 10.043-3.013zm108.46 0h3.013l-2.008 2.009zm-131.558 1 2.008 2.008c-1.923-1.329-.594-.033-2.001-1.939zm13.055 0-2.008 4.017h1c2.72-1.3.174-1.008 3.013 0zm107.46 1 7.03 3.013q-1 1.506-2.008 3.013zm-136.579 1c3.23 8.722.505 16.964-1 24.1l10.043 2.008c-4.494-9.813-6.058-16.226-4.017-26.111h-5.021zm63.268 0c-8.34 4.106-12.774 3.731-16.068 10.043 7.336-.084 19.106-.899 16.071-9.966zm180.768 0q.5 1.005 1 2.009-.495-.928-.997-1.932zm-222.947 2h2.009c-1.75 1.067-.219 1.002-2.009.086zm48.205 0c-3.369 13.992-17.678 10.084-29.124 12.051q-.5 2.009-1 4.017c9.139 1.581 43.014 13.743 48.2 2.009l-8.034-7.03-3.012 2.008c-.134 1.324-1.889 4.8-8.035 1 4.411-2.058 4.485-4.428 5.022-10.043zm-138.588 2c3.666.916 2.053-.038 4.017 2.009zm12.051 0 1 2.009zm-7.03 1c1.931 1.4.6.1 2.008 2.008zm93.4 0 2.009 3.012zm198.844 0c1.578 3.105 2.4 1.062 0 4.017zm-214.912 1 6.026 3.013v1c-5.096-.641-4.252.187-6.027-3.91zm127.541 0h2.009l-3.013 2.008q.502-.9 1.003-1.905zm-72.307 1h2.009c-1.4 1.931-.1.6-2.009 2.009zm74.316 0h3.013l-2.009 2.009q-.502-.898-1.005-1.902zm-101.431 1q-.5 1.005-1 2.009 1-1 2.009-2.009h-1zm97.414 0q.5 1.005 1 2.009-.503-.892-1.003-1.898zm-64.273 1v4.017h1l2.009-2.009zm31.132 1c-1.363 4.65-3.928 9.355-3.013 13.056a22.984 22.984 0 0 0 9.039 15.064q-3.015-13.939-6.027-28zm121.516 0q.5 1 1 2.009-.498-.885-1.001-1.889zm-289.229 2.129h2.009c-1.753.981-.221.915-2.009 0zm6.026 0h2.008c-1.4 1.93-.1.6-2.008 2.008zm29.125 3.015 2.009 2.009c-1.933-1.401-.603-.109-2.009-2.009zm132.563 0 1.005 3.013h-1.005zm50.213 0-12.051 6.026c1.131 4.161.206 5.318-1 9.039l2.009-1 5.021-7.03a48.017 48.017 0 0 1 -5.021 11.047c5.842.63 7.793 2.142 11.046 5.022-3.207 2.171-3.951 1.515-8.034 0h-1v1c3.218 6.361 3.337 16.583 2.009 25.107h1v-2.011c8.628-11.4 10.685-32.426 10.042-47.2h-4.017zm63.269 0c2.051 1.809.71.016 2.009 3.013q-1.007-1.513-2.011-3.013zm-261.109 1 1 3.013h4.017v-3.013h-5.018zm8.034 0-1 4.017h5.022l-2.015-4.017h-2.008zm62.264 0q.5 1 1 2.008-.5-1.001-1.001-2.008zm-87.371 2h5.021v2.009l-8.034 1c1.25-1.768 1.578-1.641 3.012-2.999zm55.235 0-1.005 3.013 3.013-1zm69.294 0h2.008c-1.753.991-.222.926-2.009.01zm-129.55 1 1 2.008zm19.081 1-1 2.008c1.859-1.232.544-.877.999-1.989zm56.238 0 1 2.008zm78.333 2.008q-.5 1-1 2.009l5.021 1v-2.008zm51.217 0c-.22 3.345-.936 2.311 1 5.022h1q.5-1.506 1-3.013zm-161.686 1c1.808 2.05.015.709 3.013 2.008zm-9.038 2.008h2.008c-1.753 1.005-.222.94-2.009.024zm65.277 0h3.013v1l-4.017 1q.5-.972 1.003-1.976zm102.435 0-1 4.017h1q.5-1.506 1-3.013-.499-.477-.999-.98zm-184.785 1 1 2.009zm85.363 0 2.008 2.009c-1.932-1.37-.602-.074-2.009-1.981zm-81.346 1v4.017h-1zm17.073 0h2.008c-1.4 1.931-.1.6-2.008 2.008zm164.7 1 2.008 2.009zm-149.635 1c-.39 4.024 1.5 7.147 6.025 6.026 5.68 1.517 7.522-.257 12.051-2.009q-.5-1-1-2.008zm-31.133 2.009h2.008c-1.4 1.931-.1.6-2.008 2.008zm179.764 0-2.009 3.013 3.013-1q-.504-.967-1.004-1.972zm-151.644 3.013 2.008 1zm23.1 1c-1.382 3.068-.84.35-1 5.021l6.025-3.012v-1zm126.537 0c-.2 15.222 3.622 23.888 7.03 34.146h1c.169-15.084 1.756-25.741-8.034-34.101zm-95.404 2q.5 1 1 2.008-.502-.946-1.005-1.954zm-76.324 1h3.013c-2.2 1.97-3.208 2.291-7.03 3.013v-1zm5.021 4.017 1 2.009h-2.009zm26.108 1c3.019 1.29 2.255.631 4.017 3.013zm-12.051 4.013h2.009c-1.752 1.047-.224.983-2.011.066zm21.09 1 2.008 3.012z" fill="#6e6050" fill-rule="evenodd"/></svg>