<svg enable-background="new 0 0 340 437" viewBox="0 0 340 437" xmlns="http://www.w3.org/2000/svg"><path clip-rule="evenodd" d="m252.6.1h2.1c-1.9 1-.3.9-2.1 0zm-2.1 2c2.2 2.5.6-.1 1 4.1h-1zm-1 5.2c1 3.1.7 2.8-1 5.2.3-1.7.6-3.5 1-5.2zm-2.1 5.2c1.4 2.8.5 2-1 4.1.3-1.3.7-2.7 1-4.1zm-5.2 7.3c.3 1 .7 2.1 1 3.1h-1zm4.2 4.1 1 2.1zm-6.2 2.1c.3 1 .7 2.1 1 3.1 2.9-2.1 1.3-1.5 4.1-2.1l-1 3.1-3.1 4.1c-1.2 1.8-2.7 2-5.2 1l4.1-3.1c-.6-3.1-2.5-1.3 0-3.1v-3zm-54.9 1c2 1.4.6.1 2.1 2.1zm14.5 0c2.2 4.1 4 13.1 2.1 17.6-.8-5.9-1.5-11.7-2.1-17.6zm-69.4 1 2.1 6.2h-2.1zm102.5 0c.7 1 1.4 2.1 2.1 3.1h-4.1zm-52.8 320.1c-1.2 29.8 0 59.8 6.2 89.1h-26.9c4.8-16.7-4.3-119.7-5.2-121.2h-1c-6.1 4.8-7.9 9.1-12.4 15.5l1-6.2-9.3-2.1c6.8.5 7.9 1.4 11.4-2.1 2-1.6 1.8-1.9 3.1-4.1-4.6-7.2-16.6-27.9-23.8-25.9-.3-2.4-.7-4.8-1-7.3l26.9 29c4.8-2.2 3.2-3.1 8.3-3.1-2-18.3-3.1-31.1-7.3-43.5l6.2 2.1v-6.2c-5.6-18.5-12.9-35.2-29-40.4-7.7-2.5-10.1-.4-16.6-5.2l12.4 3.1-2.1-3.1c-8.7-.8-14.4-5.6-18.6-8.3 3.7-9-13.3-20.6-19.7-26.9-10-10-27.7-42.3-36.2-59l3.1-1c1.9 10.7 9.9 27 18.6 31.1l-1-2.1c2.7-2.7 2.5-7.4 3.1-11.4h1c-2.8 25.1 11.7 22.7 22.8 35.2 6.8 7.7.4 16.3 11.4 20.7v4.1l-4.1-1c4.2 8.9 6.1 9.6 14.5 14.5l2.1-1v-1c-4.3-3-9.6-6.8-11.4-12.4 15.6 11.8 30.3 26.1 45.6 38.3-1.5-9-5-17.5-10.4-24.9h-6.2c1.6-.8 8.1-.6 5.2-3.1 0-9.5-28.8-50.8-17.6-49.7h1c-1.1-15.7 2.2-25.2 5.2-35.2h1c-.6 7.9-3 30.3-5.2 38.3 8.2.5 11.2 4.3 18.6 2.1 1.8-12.2 11.1-23.2 13.5-30l4.1 2.1c-2.4 3-2.7 2.6-3.1 8.3h1l17.6-7.3c-10.7-17.5-32.5-39.5-34.2-69.4l2.1 1c.3 1.7.7 3.5 1 5.2l5.2-3.1c-3 5.2-5 4.3-5.2 13.5 7.9 12.6 16.3 22.4 22.8 38.3l4.1-3.1c-1.1 8.1 4.1 11.9 8.3 17.6l5.2-4.1-2.1 3.1 6.2-1c6.2-23.4 16.9-46.3 14.5-80.8 9.5-.2 13.8-16.3 22.8-20.7-3.5 5.1-5.7 4.8-2.1 9.3-8.9 1.5-10.2 7.2-12.4 12.4-2.5-2.2.2-.9-3.1-1-2.8 12.6-5.3 28.5-3.1 40.4l2.1-1c3.2-13.9 12.1-20.8 15.5-37.3h1c-2.3 20.6-14.6 33.6-21.7 52.8l6.2-4.1c-12.2 16.2-20.3 38.4-11.4 66.3h1l1-1c2.1-11.4 20.7-42.5 20.7-42.5 5.8-17.4-.1-35 8.3-51.8.3 2.4.7 4.8 1 7.3l1-3.1c-.8 9.8-14.7 47.6-3.1 47.6l-1 2.1c-10 2-22.4 36.7-25.9 48.7l4.1 1c1.3-3.1 0-1.2 2.1-3.1.3 2.4-.2 1.3 1 4.1-6.8 1.2-12.8 32.1-8.3 41.4h1c16.4-4.7 55.7-23.2 66.3-37.3-.3-2.1-.7-4.1-1-6.2-3.8-1.5-2.7.3-5.2-3.1v-1l8.3 5.2c4.3-3.3 5-5.1 10.4-5.2-.3.7-.7 1.4-1 2.1l-7.3 6.2c.3-1 .7-2.1 1-3.1l-11.4 17.6h1c10-4.4 23.5-13.2 34.2-14.5-1.1 4-1.6.5 0 4.1-29.4.7-67.6 30.9-91.1 38.3l2.1 4.1c-4.9-1.3-4.4-1.5-9.3-1-4.5 6.4-16.7 28.4-10.4 37.3l40.4-6.2v-1c-3.4-3.5-4.8-7.7-5.2-14.5l3.1-1c-1.3 9.7 6.3 13.9 7.3 18.6l-49.7 10.4c-3.3 16.1-12.6 33.4-6.2 50.8 4.2-3.7 2.2-3.8 8.3-4.1v1c-5.8 8.6-7.7 17.3-5.2 26.9 12.4.9 18 1.2 28-2.1l-1.9 2.8c-9.6 2.1-15.7 2-26.9 1.1zm-48.7-312.8c.3.7.7 1.4 1 2.1-.3-.7-.7-1.4-1-2.1zm100.5 1h2.1l-3.1 2.1zm4.1 1.1 1 2.1zm3.1 0v8.3h-1zm-106.7 2 1 2.1zm77.7 0c.3.7.7 1.4 1 2.1-.3-.7-.6-1.4-1-2.1zm23.8 1.1 1 2.1zm-2 3.1c-.2 1.5.4 1-1 3.1zm-98.4 1c.3.7.7 1.4 1 2.1-.3-.7-.7-1.4-1-2.1zm69.4 0c.7 3.1 1.4 6.2 2.1 9.3h-1c-.4-3.1-.8-6.2-1.1-9.3zm26.9 2.1c0 2.4.2 2.7-2.1 5.2zm-96.3 1h2.1c-1.4 2-.1.6-2.1 2.1zm103.5 0c.3 1 .7 2.1 1 3.1h-1zm-101.5 2.1 2.1 4.1-2.1-1zm8.3 1 2.1 4.1c-2.1-2-1.1-.3-2.1-4.1zm82.9 1.1c.3.7.7 1.4 1 2.1-.3-.8-.7-1.5-1-2.1zm-1.1 2 1 2.1zm-88 1.1c2.1 1.9 2.3 3.9 3.1 7.3l-2.1-1zm14.5 6.2c2.7 4.7 3 5.2 0 8.3zm79.8 0c.3 1 .7 2.1 1 3.1h-1zm-91.2 1 1 2.1zm1.1 2.1c.3 1 .7 2.1 1 3.1h-1zm73.5 0c.3.7.7 1.4 1 2.1-.3-.7-.7-1.4-1-2.1zm15.5 0v6.2l-2.1 2.1c.7-2.8 1.4-5.6 2.1-8.3zm-95.3 1c2.7 1.2 1.2 2.4 0 5.2zm97.4 3.1 1 2.1zm-14.5 1.1c.3.7.7 1.4 1 2.1-.3-.8-.7-1.4-1-2.1zm-185.4 1 1 2.1zm194.7 2.1 1 3.1h-1zm-92.2 1 2.1 5.2h-2.1zm-38.3 1c2 1.4.6.1 2.1 2.1zm39.4 5.2c.3 1 .7 2.1 1 3.1h-1zm-34.2 2.1 1 2.1zm-67.3 2.1h2.1c-1.4 2-.1.6-2.1 2.1zm102.5 0 2.1 4.1h-1zm53.9 1c.3.7.7 1.4 1 2.1-.3-.7-.7-1.4-1-2.1zm-154.3 1 1 2.1zm1 2.1 1 3.1h-1zm99.4 0c2.8 7.8-2.2 18.1 1 22.8-6.1 2.2-5.2 7.7-8.3 12.4 2.5-11.7 4.9-23.5 7.3-35.2zm-127.4 1 1 2.1zm29 3.2 7.3 29h-2.1zm72.5 1 2.1 2.1c-2-1.5-.6-.1-2.1-2.1zm87 0 2.1 3.1zm2.1 3.1 1 2.1zm-166.8 2.1c2 1.4.6.1 2.1 2.1zm82.9 0 3.1 2.1zm98.4 0h2.1l-3.1 2.1zm-103.6 2c.3 1 .7 2.1 1 3.1l-2.1-1zm9.3 1.1 3.1 2.1zm91.2 0c1.9 2.7.1 1.6-2.1 3.1zm46.6 0h2.1l-3.1 2.1zm-77.7 3.1 1 3.1h-1zm36.3 1 1 2.1zm-2.1 3.1c.3.7.7 1.4 1 2.1-.3-.7-.7-1.4-1-2.1zm-72.5 1.1 16.6 4.1-20.7-3.1zm35.2 0 1 2.1zm-2.1 3.1c-1 2.1-2.1 4.1-3.1 6.2 1.1-2.1 2.1-4.2 3.1-6.2zm35.2 0h2.1c-1.3 2.1-3.1 3.9-5.2 5.2 1.1-1.8 2.1-3.5 3.1-5.2zm-63.1 4.1c.3 1 .7 2.1 1 3.1h-1zm4.1 0 1 2.1zm-31.1 2.1 1 2.1zm33.2 3.1 1 8.3h-1c-.7-2.4-1.4-4.8-2.1-7.3zm47.6 1c1.4 4.1.6 4.3-3.1 6.2zm-135.7 5.2 2.1 2.1c-2-1.5-.6-.1-2.1-2.1zm44.6 0 1 2.1zm44.5 2.1c.3.7.7 1.4 1 2.1-.3-.7-.6-1.4-1-2.1zm9.3 0h2.1c-1.7 3.5-1.7 3.5-5.2 5.2zm-95.2 2 1 2.1zm165.7 0c.3.7.7 1.4 1 2.1-.3-.7-.7-1.4-1-2.1zm-164.7 2.1 1 2.1zm-11.4 1.1 1 2.1zm130.5 0c-4.4 2.9-6.4 1.7-4.1 6.2 1 2.4 2.1 4.8 3.1 7.3l2.1-1v-2.1c1.6-3.6 1.3-8.1-1.1-10.4zm43.5 0c.3.7.7 1.4 1 2.1-.3-.8-.7-1.5-1-2.1zm-145 1 3.1 1-1 2.1zm-26.9 2.1 1 2.1zm94.2 0c-2.5 3.7-4.9 7.3-3.1 11.4l2.1-2.1 3.1-2.1c-.5-4.6 0-5.1-2.1-7.2zm-65.2 1 1 2.1zm40.4 0 1 3.1h-1zm47.6 0-18.6 6.2c1.4 10-1.4 14.6-3.1 24.9 4.9-1.7 13-3.5 18.6-1l-18.6 2.1 1 2.1c14.1 6 21.4 18.2 33.1 25.9h3.1v-2.1c9.9-16.8-6.2-51.1-15.5-58.1zm-67.3 1 1 2.1zm-47.7 1.1 1 2.1zm30.1 1 1 2.1zm133.6 0h2.1l-3.1 2.1c.3-.7.6-1.4 1-2.1zm-162.6 1 2.1 4.1c-2.2-2-1.1-.3-2.1-4.1zm30 1.1c2 1.4.6.1 2.1 2.1zm59 1c.3.7.7 1.4 1 2.1-.3-.7-.6-1.4-1-2.1zm69.4 0c.1 1.9 1.2 1.3-2.1 3.1zm-113.9 1c.3.7.7 1.4 1 2.1-.3-.7-.6-1.4-1-2.1zm-42.5 1.1 1 2.1zm32.2 0 1 2.1zm10.3 2.1h4.1c-.3.7-.7 1.4-1 2.1l-3.1 1zm45.6 0c-4.4 5.5-6.8 10.6-10.4 17.6l9.3 3.1c.6-7.4 4.5-8.5 5.2-18.6zm-53.9 1c6.4 3.5 14.1 1.3 18.6 6.2-6.5-.8-15.4.3-18.6-6.2zm186.4 9.3c1.9 2.7.1 1.6-2.1 3.1zm-160.5 2.1c-.3 2.8-.7 5.5-1 8.3 3.2 7.7 6.6 17.6 14.5 20.7.9-8.3 1.6-16.9-2.1-23.8zm-50.7 1c1.7 11.4 11.8 19.4 19.7 24.9-2.7-13-10.1-19.4-19.7-24.9zm208.1 0c-.2 1.5.4 1-1 3.1.4-1 .7-2 1-3.1zm-165.7 1.1c.3.7.7 1.4 1 2.1-.3-.8-.6-1.5-1-2.1zm188.5 0h4.1v1zm-15.5 3.1 2.1 2.1c-2-1.5-.7-.2-2.1-2.1zm-11.4 1 1 2.1zm23.8 0 1 2.1h-2.1c.4-.7.8-1.4 1.1-2.1zm-160.5 2.1v2.1c1-1.9.9-.3 0-2.1zm68.3 0 1 2.1zm67.4 0c.3.7.7 1.4 1 2.1-.3-.8-.7-1.4-1-2.1zm21.7 1c-.2 1.5.4 1-1 3.1.3-1 .7-2.1 1-3.1zm-155.3 1c-2.6 4.3-3.4 22.2 1 24.9 2.4-7.9 4.8-15.9 7.3-23.8zm11.4 3.1c-1.9 13.8-14.9 23.8-6.2 36.2 4.2-2.5 8.7-4.2 13.5-5.2v2.1c-6.7.6-8.5 1.3-12.4 6.2 8.5 6.9 7.5 24.7 12.4 35.2h5.2c-2.7 6.6-1.4 11.8 0 21.8h1l2.1-1c.3-1 .7-2.1 1-3.1-1.2-3.8-1.5-14.7-4.1-17.6 12.5-11.8 22.7-21.3 22.8-45.6-10.6-11.1-21-21.7-35.3-29zm107.7 2.1 2.1 2.1c-2.1-1.5-.7-.1-2.1-2.1zm-54.9 2.1h4.1v1zm89 1 8.3 1zm41.5 1.1 1 2.1zm-42.5 2h29v1h-2.1c-6 2.8-21.6 1.5-26.9-1zm-178.1 4.2c.3 1 .7 2.1 1 3.1h-1zm-28 4.1h4.1v1zm78.7 2.1c.3 1 .7 2.1 1 3.1h-1zm-51.8 2.1c2 1.4.6.1 2.1 2.1zm52.9 2 3.1 1v1c-3-.5-5.1.9-3.1-2zm-3.2 2.1 1 2.1h-2.1c.5-.7.8-1.4 1.1-2.1zm-42.4 2.1 2.1 2.1c-2-1.5-.7-.2-2.1-2.1zm40.4 0c-.2 1.5.4 1-1 3.1-.3-.7-.7-1.4-1-2.1zm-37.3 4.1 6.2 5.2-5.2-1c-.3-1.4-.7-2.8-1-4.2zm-36.3 1.1 7.3 1zm-8.2 3.1h2.1c-2.4 1.6-1.3 1.9-4.1 1zm6.2 3.1c6-.3 12.4-.4 15.5 2.1zm-4.2 1h4.2v1l-11.4 1zm20.7 0 3.1 2.1zm-37.2 3.1 9.3 1c-5.3.2-7.8.7-9.3-1zm170.8 9.3c1.7 2.1 1.3 1.4 2.1 5.2l-2.1-1zm-62.1 3.1c2.2 2.1 1.4 1 2.1 5.2h-1zm52.8 4.2c1.3 4 2.7 2.1-1 4.1.3-1.4.7-2.7 1-4.1zm6.2 1h3.1l-1 2.1h-5.2zm-33.1 2.1h4.1v1zm-11.4 4.1c4 1.4 2.2 0 4.1 3.1zm-14.5 4.2c-2.2 1.9-2.5 1.4-4.1 4.1-2.9 3.1-1.5 8.3-1 14.5l2.1-1c1.7-5.9 3.5-11.7 5.2-17.6zm57 13.4 3.1 2.1zm25.9 4.2h2.1l-3.1 2.1zm-7.3 1 1 2.1h-2.1c.4-.7.8-1.4 1.1-2.1zm-110.8 14.5c1 3.1.7 2.8-1 5.2.3-1.7.6-3.5 1-5.2zm-1 6.2c.3.7.7 1.4 1 2.1-.4-.7-.7-1.4-1-2.1zm-1.1 5.2 1 2.1zm-1 3.1c.3.7.7 1.4 1 2.1-.3-.7-.7-1.4-1-2.1zm-1.1 2.1c.3.7.7 1.4 1 2.1-.3-.7-.6-1.4-1-2.1zm51.8 15.5 1 2.1h-2.1zm-2 2.1c-.2 1.5.4 1-1 3.1zm-48.7 17.6c.3.7.7 1.4 1 2.1-.3-.7-.7-1.4-1-2.1zm-5.2 2.1h2.1c-1.8 1-.3.9-2.1 0zm3.1 0c2 1.4.6.1 2.1 2.1zm-3.1 3.1 1 2.1zm77.7 5.2h4.1v1l-7.3 1z" fill="#423a32" fill-rule="evenodd"/></svg>