<svg height="418.44" viewBox="0 0 393.88 418.44" width="393.88" xmlns="http://www.w3.org/2000/svg"><path d="m771.07 664.8.24.5zm-4.52.5h.45l-.24 1.24-.24.25-.47-.25v-.25zm-6.89.49.71.75c-.64-.4-.32-.08-.71-.75zm10.46 0 1.19 1c-1-.32-.75-.14-1.19-1zm-8.56.25c1 .26.67.09 1.19.75-.87-.26-.7-.2-1.19-.79zm6.42 1.5c.59 1 .5 1.23-1 1.49zm1.43 0h.71l-.48.5zm11.17.25 2.61.74.48 1a1.83 1.83 0 0 1 -.71.75c-1.82 1.17-2.83-.76-2.38-2.49zm170 159.47 2.85.25c.78 2-.15 2.52-.71 4.24l1.9-1.24v1l-1.9 1.5v.25l1.19-.25c-.16.25-.32.49-.48.75-1.16 2.61-2.93 1.35-5 1.49l-.24.75 1.19.5c-1.16 1.94-3.36 2.26-4.52 4.23v.27l4.52 3-.48.5c-.77 1.77-2.44 3-2.61 4.73l3.33 1.5v.25l-1.19.25 1.66 2 1 .25v-.25c-.23-.66-.47-1.33-.71-2 1.52.46 2.12 1.72 2.14 3.73-.79 1.06-1.05.6-.71 1.75.86.16.72.1 1.19.5l-.24 1.24h-.24l-2.38-1.49v.25l.72 1.24-1 .5c.09.17.16.34.24.5 2.38-.17 2.3-.73 3.09 1 .14.79.56.63 1.19 2-.24.58-.47 1.16-.71 1.75l2.85.74a41.38 41.38 0 0 1 -.71 4.24l.24.25c.92-.36.4-.65 1-.25a8.33 8.33 0 0 1 1.66 7 8.63 8.63 0 0 1 2.38 4.73h-1.19c0 1.1 0 1.23-.48 1.74-2 .59-3.6-1.44-5.46-2l-.48.5v3.24l-1.66-1.5-1 1.25h-.72l-3.09-3c-.91.33-.49 0-1 .75-.24 1.41-.47 2.82-.71 4.23l3.56 2.25c-.23.74-.47 1.49-.71 2.24l2.85-.5c-.46 2.09-3.14 4.1-5.46 4.24l-1.67-1.25c-.33 1-.1.45-.71.75l-.95-3h-.21l-.24.25c-.15.74-.31 1.49-.47 2.24-3.18-1.42-4.43-1.89-6.18-4.73l-.48.24c-.17 2.49-1.08 1.72-1.42 4l-1.43-1.25a11.06 11.06 0 0 1 -3.33 5 4.14 4.14 0 0 1 -3.56-1.75l-.72.5c-.39.83-.79 1.66-1.19 2.49-1.67-.1-1.68-.51-2.61-1.24-1.35.54-1.58 1.32-3.09 1.74l-2.64-2.34c-.09-2.42-.76-3.51.24-5.23a3.72 3.72 0 0 1 2.86-.25c1.16.68 1 1.78 1.42 3.24h1l2.14-1.75-.24-.74-4-1.75a2.86 2.86 0 0 0 .24-2.24l-3.57-2.49c.76-.79 1.67-1.09 1.19-2.49-.57-1.2-1.41-1.49-2.61-2l-.48.5c.79 2 .88 4.19-1.66 3.74a3.69 3.69 0 0 0 -2.38-2.74c-.08.66-.16 1.33-.23 2l-1-.25-1.19-3.49a12.62 12.62 0 0 1 -4.27 4.24c.09 2.57.87 4.76 0 6.73-.49.45-.17 0-.48.74a2.15 2.15 0 0 0 -1.66-1l-.24.74 1.43 2h.71v-1.21l1.43.5 1-1c.07-.83.16-1.66.23-2.49 2-.21 1.17-.69 2.14-1.74a2.45 2.45 0 0 1 1.67.5v.25l-.48 1.74 1.67.25.23-.25.24-2.74h1c1.41 1.33 2.52 2.43 2.38 4.73l-1.19.75.48.75 1.66 1v.24c-1.79.58-3.36 3.63-2.61 5.74.75 1.91 2.57 4 4.75 4.48l-.24-1c1.86 0 1.7-.66 3.8-.75l1.98 1.74c1.19-.84 1.17-1 2.38-.25.24 1 .48 2 .71 3l-2.85-1.24c.72 2.69 6.27 4.13 4.52 6.23l-1.9-.75c-.11 2.08-1.66 2.9-2.38 5.23 2 0 2.82 2.89 3.33 5-2.18-.66-6.58-2.31-7.85-2l-1.42.5v.75a3.57 3.57 0 0 1 1.66 2h.24c.09-1 .08-1 .47-1.49 3.6 1.37 4 1.11 3.09 5 .94.8 1.62 1.18 1.91 2.74a3.23 3.23 0 0 0 -1.43 2.49l2.38 3.49-2.38 5a4.24 4.24 0 0 1 -4.28-.75c-1.37 2.83-3.12-.45-4.28-1.5-3.67 1.84-2.18 2.84-5.94 2l-.24-1.5c-1.06.55-2 1.43-1.66 2.74.73 3.93 10.32 5 12.12 2l.48.25c.86 2.31 3.88 1.91 5.7 3.24a8.7 8.7 0 0 1 .24 4l-.48.75-1.9.25c-1.47-.44-1.54-1.23-2.85-1.75-.24.75-.48 1.5-.71 2.25l-1.67.25c-1.88-1.25-2.08-1.67-2.38-4h-.23l-2.14.5c-.58 2.1 1.48 2 1.9 4.48l-.95-.25c.16.34.32.67.47 1l2.62.75c-.14 1.77-.51 2.58-.24 4.23l.24.25c.42-.65.38-.4.24-1.24h4c-.45 2.87-5.79 7.18-9 6.72l-4.52-2-4 .5c-.42-.12-5.51-1.59-6.18-2-.91-.55-1.79-2.43-2.62-3.23l-.47.49 5.94 8.48c-.17 1.69-.66 2.19-2.14 2.49l-.71-.75c.48-4.85-.69-4.25-3.81-6-3.22.6-3.49 3.21-5 5.48.68.62 1.21.56 1.67 1.5-1 .05-1.15.06-1.67.5l.24 1-.71-.25-.72-1.24c-.16-.75-.31-1.5-.47-2.25l-1.67-.49v-.25l.48-1h.24c.44 1 0 .67 1 .5l-.48-2.24h-1l-2.61 2.49v1.74l.71 1 1.9-1.25.24.5c-.29 1.19-.51 1.71-1.43 2.24h-2.61l-.48.75.24.5 2.38 1.75-.24 2.24c-.16.08-.32.16-.47.25l-3.33-4.24-1.9.75v1c2 2.18 3.85 2.66 6.89 4h-.48l-1.42 1.25v.25c1.93.85 2.07 3 3.8 3-.4 1.24-.79 2.49-1.19 3.74h.24l1-.75c.86-2.93 2.77-4.29 4.76-6-.13-2-.63-3 0-4.49h.23l1.43.5c.07 1.26-.28 2.27.24 3.49l4-.25-.72 2-5 .5v.25l.72 1.74c-2.72 1.28-6.1 2.45-7.61 5 .31 1.17.31 1.16 1.43 1.49.15-.5.31-1 .47-1.49l.48.25v1.19l-1.19 1 1.42 2h-1l-1.9-1.24v1l-4-2v.24c.75 1.14 1.51 1.38 1.9 3-.16.17-.32.33-.47.5h-1l-1.43-2-2.09 1.5c-1.11-.73-.65-1.16-1.66 0l-1.67 1c1.69 1.49 3.29 1.68 4.28 4h-.47c-1.85 1-3.73-.39-5.23-1.24-.58 3.4-3 5.18.47 7.23h.24v-2.5l1 .75.24 1.25h.24c.07-.67.15-1.33.23-2l.48.25c.36 1.18.79 1.2 1.42 2-2.91 1.09-3.76 1.2-7.13.49.56.84.79.78.72 1.75l-2.38 1.24.48.75 1.18.75v.25h-2.37c-.87-.67-1.1-1.38-2.14-2a1.84 1.84 0 0 0 -.71.75l-.24.25.71 1.5h1.66c-.08 1-.15 2-.23 3h.23l1.91-2 1.66.25c.32.75.63 1.5.95 2.24h-.24l-2.61-1.24v.5q-.48 3.74-1 7.47l-.48-.25c.12-2.84-.57-5.12-2.61-5.73v1.5c.56 1.31.86 1.63.47 2.74h-.25l-4-1.5c.11 2.39.35 4-.47 5.49-2.2.55-2.87.29-4.28-1-.39 1.22-.43 1.36-1.9 1.49l-1.43-.74c.4 1 .44 1 0 2-4.53 1.39-9.69 2.83-13.55 1.49-1.12 1.69-5.14 4.09-8.08 2.75-1.08-.57-.89-.91-1.43-2-1.32 1.53-2.17 3.23-4.75 3.49l-4.52-3.24c-.83.34-.67 1-1.19 1.25-.79.36-2.19-.4-3.08 0l-1 2.74-1.42-.25c-1.52-.74-2-2.08-2.62-3.74.48-1.53 1.11-1.54 1-3.24l-5.94-1v.25c1.24 2 1.48 2.19 1.67 4.73-1.57-.23-1.21-.89-1.91 0-2-.68-2-2.38-4-3l-.24.25c.18 2.38 1 4.72-.23 6.48l-.72-.5c-.6-1.67-1.32-1.6-1.42-4-.69.15-.39.67-.72 0l-.47-1.49-.48.25c-.16.74-.31 1.49-.47 2.24l-.48-.75a2.52 2.52 0 0 1 .48-2.49l-.72-1.25c-.15.09-.31.17-.47.25-.32.92-.63 1.83-1 2.74a4 4 0 0 0 -1-2.49l-2.14 1.25c-.79-1-1.58-2-2.38-3h-.23l.47 1.49c-.71 2.53.35 4.84 1 6.73-2 .18-2.5 1.16-3.33 2.49l-.47-.25c0-2.35-1-4.29-2.85-4.73.22 1.1.28 1.09-.48 1.74-1.14-.54-1.64-.68-1.9-2.24l-.48.25a6 6 0 0 1 -1.9 2.74l-.71-.25-1-1.74-1.43.74a27 27 0 0 1 -1-3l-1.19 1c.16 11.58-.9 21.94-.71 34.14.08 4.78 1 13.06-1 16.2-3.47 5.57-16.29 4.82-23.06 2.74-3.26-1-5.21-5.1-4.28-9.72 2.94-14.48 2-32 3.57-47.59-4.07-3.16-5.59-5.6-6.66-12.21l-3.32-2 .71-3.24h-1l-4.75 1.75c.39 1.63 0 2.34-1.19 3 .38-1 .6-.94.47-2a11.09 11.09 0 0 0 -4.75-.5c.26-.7.2-.36.24-1l-2.14-.5-.72-3.24c-2 .35-4.58.21-5.94 1.25-1.71 1.3-1.94 3.64-4.28 4.48-.39-1.33-.79-2.65-1.19-4l-2.61 2.24-1.9-.75c-.55 2.16-2.87 2.59-5.23 2l-.48-1.74h-1l-3.33 2.74a12.66 12.66 0 0 1 3.09-4.48v-1h-.47c-1.92-.87-3 .9-5.23.25v-.25c.24-.75.47-1.5.71-2.25-1.6-.54-1.79-.6-2.37-2.24l-1.19.25c-.32.83-.64 1.66-1 2.49a3.67 3.67 0 0 0 -2.14.25v-2.24c-2.8 2.76-4.4 4.65-8.56 6.23-.16-.25-.32-.5-.47-.75.94-2.78 2.21-2.59 3.56-4.48l.48-2.49c1.31-.14 1.29-.23 1.9-1a30.77 30.77 0 0 0 -1.19-3.49c-2.23 1.23-2.88 3.42-4.75 5-1.45-.69-1.43-1-2.62-.25l.48-2.49-2.86.25v-1c1.15-2.63 1.76-7.25-1.9-8.72l-2.85-.49-2.14-4.74c-1.38-1.35-3.3-1.45-4.28-3.24l.71-1.74c-1.1-.67-.66-5.61-1.66-7.23a2.89 2.89 0 0 1 -2.14-1c-.08 1.89-.49 2.3-1.66 3h-.24l-.24-2.24h-2.38c.06-1.94-.15-2.41-1.66-2.74l.24-1h3.33v-1a7 7 0 0 1 -5-5.49l2.38-1.74-.71-1.25c2.16-1 3.21-3.59 3.33-6.72-1.41.37-2.19-.19-3.57-.5-.16.16-.32.33-.47.5v.24c.23.34.47.67.71 1 1.08 0 1.37 0 1.9.5l-.24 2.74-2.14-1.49v1.49c-1-.93-.66-1.17-1.9-.75l-.71 5.24h-.24l-.71-.25a2.18 2.18 0 0 0 .23-1.5c-1 .38-2 .82-2.61.25l.48-.5 1.18-1.49v-.25l-1.9.5c-.31-1.57-1-2.09-1.66-3.24v-.25c1.21.15 1.82.39 2.61-.25l-5.94-2.74-1 .75a5.51 5.51 0 0 0 .24 2.74l-.48.25a24.57 24.57 0 0 1 -5.46-3 13.23 13.23 0 0 1 1.18-6.23v-.25c-3.35.54-4.73-.76-6.89-2a2.37 2.37 0 0 0 -1.66 1.25l2.85 2.49a5 5 0 0 1 -2.14 2.24c-1.15-.38-1-.69-1.66-1.49-.87.59-2 1.38-3.33.75-1.7-.85-1.45-2.39-3.57-2.74l-1.19 1c-.38-1.38-1.06-1.65-2.61-1.74l-.48.25c-.16.66-.31 1.33-.47 2l-1.67-.25-1-.5a4.2 4.2 0 0 1 -.23-3c.84-1.52 2.52-1.38 3.32-3l.24-1.24-1-1.5a3.6 3.6 0 0 1 -2.61-.5c.2-1.11-2.25-4.19-3.33-5.73l-4.75-.5c-1.38 2.36-4.33 2.23-6 4.24l-.47-.25a12.84 12.84 0 0 1 -.48-5.23h-1.67l.71-.75c.82-3.05 2.56-4.4 3.33-7.23-1.22-.41-.74-.05-.48-1.24-2.57 1.62-3.33 1.19-6.65.75l-.71 1.49-.48-.25v-.5c-1.53-4.17 4.61-7.86 1.19-12.21.16-.16.32-.33.47-.5l.24-.24 4.76 1 2.14-1.49-.24-.5-4.07-.79c.1-1.59-.17-3.32 0-3.74.63-.91 1.27-1.82 1.9-2.74 2 .09 2.1.75 3.57 1.25.84-1.22 1.71-2.5 1.19-4.49h-.24l-2.83 1.72-.48-2v.5c-.16.33-.32.67-.47 1l-.72-.5c.14-4.32 2.3-9.17 1-13.21a6.49 6.49 0 0 1 3.08-3.69l1.19.24.48 1.25c-1.69-.21-3.06 1.19-3.09 3.49.08.16.16.33.23.5h1.19l.72-2.24c1.08.48.59.66 1.18.49l2.14-4a3.94 3.94 0 0 1 -2.37-2l2.37.5.24-.25c-.39-1.16-.79-2.32-1.19-3.49l2.38-.74c.19-1.37 0-2.69.48-3.74 2.31-.14 9.93.37 10.45-.75 0-.28.69-.64 1.43-1.49l-.24-.5c-1.29-.31-2.07-.62-2.61-1.75l-.71 1c-.08-1.06 0-1-.48-1.49 0 0-19.93 2.81-21.39 3.48l-3.81-2c-.55-2.33-1.11-4.65-1.66-7l1.19-.49-1.43-1.25c.2-2.94 1.93-5.36 1-7.73l-2.85-2.74c-.82-2 2.94-7.78 4-8.47 1.53-.82 2.74-2.7 5-2.49-.77-3.28 3.1-5.4 5.47-6.23l.71.25c-.46 1.68-1.28 2.42-.47 4.24 2.93.35 4.72 1.46 6.89 2l.48-.25c-.55-1.81-2-2.25-2.86-3.74l2.38-1.24a2.56 2.56 0 0 1 1.19 1.74c1.33-.71 2.47-.37 2.85-2.24-1.48-.68-1.52-1-2.37-2.25-2.7 1.7-3.85-1-7.14-1.49l.24 1.74c-3-.67-4.16.79-5.94 2l-2.14-.75c-.48 1.09-.87 1.25-1.9 1.74-2.69-.3-2.54-1.54-4-2.74a30.47 30.47 0 0 1 -3.33 0 25.93 25.93 0 0 1 -.95-3.49l2.14-2c1.74.44 2.06 1.65 2.85 3l.48-.25c0-2.66.75-2.17 1.19-4.48l-1.43-1c-.86.69-1.2 1.24-2.14 1.24l-.24-1.49-1.42.25c-.32-.91-.64-1.83-.95-2.74h-1.67v.25a3.72 3.72 0 0 1 -2.14 3.73c-1.43.83-3.76.6-5.47.75-1.3-2.35-2.76-4.18-2.85-7.72.51-1.11.58-1.42 1.9-1.75-.08-.33-.16-.66-.23-1-1.57.13-3.24.28-3.81-.75 1.1.15 1.4.34 2.14-.25-1.12-3-1.53-5.2-3.33-7.23 1.15-.53 2-.39 2.62-1.49 1-2.81-1.55-4.47-1.9-7h.23a3.39 3.39 0 0 0 .72.75c.28-1.12.06-1.31 1-1.25-1.33-1.4-4.12-1.09-5.71-.25.35-2.67.67-2.73-.47-4.48l.47-.5a15.73 15.73 0 0 1 6.18 4.24l.48-.25c.35-3.66 3.16-3.13 3.56-6.73a2.36 2.36 0 0 0 1.91.25v-.25a2.16 2.16 0 0 1 .23-2.74l-1.9-.25c.52-1.76.92-3.23 2.14-4.24 1 .57 1.16 1.49 1.67 2.5l2.61.49-.48-1.74c1.69.27 1.9 1 3.33 1.49l-1-2.24.24-.25 2.14.75.24-1.25 3.56.75.72-.5-.24-.5a3.41 3.41 0 0 1 -2.14-1.24l.24-.75c1.44.4 1.69.45 2.85-.25.68-2.36 5-5.41 7.37-4.73 1.06.45 1.18.68 1.42 2a4.93 4.93 0 0 0 1.67-.75c-1.12-1.42-3.27-2.15-2.85-3.73h.12l2.14.25c1.18 1.06 1.16 2.68 3.09 3 2.47-.64 4.22-.86 5.47-2.74-3.59.38-5.56-1.27-7.84-2.24l2.37-2.74-2.61-.5a6.91 6.91 0 0 1 -1.19 3h-2.85l.24.5.71.5-.48 1h-.23l-1-.25c-1.07-.51-1.27-1.08-1.91-2l.48-.74 2.14-.25v-3.49l2.38 1.24c.07-.41.15-.83.23-1.24-1.33-.12-1.81-.34-2.37-1.25l-.24-1.24c1.74-1.74 3.76-1.11 5.94-2.25v-.25l-.24-.74-1.66.24 1.9-1.74c-2-3.08-4.37-1.86-7.61-2.49 0-2.23 1-2.13 2.38-1.5a7.06 7.06 0 0 1 -1.66-4.23c1.5-1.59 2.69-.94 5-1.5v-1.24l-1.9-.5.47-1.25.48-.25c4.66.22 8.45 2.18 10.22 6.23a4.52 4.52 0 0 0 3.8-.5v-.24l-.65-1.75h.47c2.34-.88 3.35 1.62 5.71 2 .92-1.21 1.88-1.49 2.14-3.48l.71.24 1 1.75a9.49 9.49 0 0 1 3.57-1c1.56-2.26 3.35-5.8 3.33-8l1.18.5c.48-2.27 1.54-4.42 3.33-5.49-2.61-.55-4.54-1.37-6.65-1l-.72-2.24 1.19-.75c1.46.5 2.65 2 4.52 1.24.49-.33.38-.27.71-.74v-.25l-2.38-.25a3.08 3.08 0 0 0 -.47-2.24l-1 1.49-.71-.5v-.25l2.61-7c1.69-.91 2.49-1 3.8 0l1.19 1.74.48-.25.24-.75c-.26-.3-3.53-5.84-3.57-6 5.14 1 4.78-.28 7.84-3.48h.48c.69 1.73 1.15 2.51 3.56 2.49 1.22-.91 1.51-2.3 2.62-3.24l2.61 2 1.43-2c1.1.39 1 .49 1.19 1.74l-1.43.5.24.5h.48c2.07.77 3.41-1.15 5.46-.75-.91-2.57-4.3-1.93-5.46-3.74-.6-1.43.1-3.06.47-4.23h-5v-.25l.48-1.75c1.18-.35 1.56-.1 1.9-1.49l-.72-1.25c1.07.37 2.33 1.07 3.33.75a2.9 2.9 0 0 0 2.14-1.49v-.25c-.9-.48-.49-.11-.71-.75 2.24-.61 2.7-1.54 4.28-2v-1.5h3.32l.24.5a2.43 2.43 0 0 0 0 3l.72.25 1.18-.25.24-.25c-.33-1.22-.67-1.26-.47-2.49h.23l.95.5v1.74l6 1 .71-1c-1.71-.1-5.79-4.22-6.18-5.48l2.61.75a11.28 11.28 0 0 1 2.62-7.48c.79.67.67.76 1 .75l1.19-1c1.29.31 1.52.82 2.37 1.5l.72-2c2.15.71 4.55 2.15 6.89.75l3.57 2.25-.24-.75 2.14.5.24 1.74c2.66-.71 1.79-2.79 3.32-4.49l1.19 1-.71 1a4.73 4.73 0 0 1 4 1.74c-.35 1-.88 1.62-.71 2.49l1.66-.49c.24.6 4.84 5.62 5.71 6.72l1.9-1c-.55-1.88-.35-4.13-1.67-5.24-.64-.83-.09-.55-1.18-.49l1.42-1.5c-.46-2.42-.49-3.73 1-5.23v.5l.48 2c1.08-1.68 2.83-2.41 3.32-4.49-.88-.85-.55-.42 0-1.49 2.43-.72 4.57-.36 6.9-1.5l-1.19-.74c.59-1 .74-.62.24-1.75 2.49.9 2.46 1.44 5.47 1.5l-.72-2.5a13.33 13.33 0 0 0 5.47.25v.25l-.24 1a5.06 5.06 0 0 0 -2.85 1l.24 1.5h1.19c4-1.62 2.43-3.09 4.75-5h2.62c.13 1-.26 1 .23 1.75 1.2.57 1.9 1 2.86 1.49l-.72-2.74h.1c1 1.19 1.69 2.06 3.09 1.5.31-1 0-.52.71-1v.5l.48 3.24c1.37-.93 1.64-1.9 3.33-1.25l-.21-1.64 2.14 1a2.94 2.94 0 0 1 .71-2.25l3.57 1v1.25h.95l.23-2 4.28.25 1.19-3 2.14.5.48-.25v-1.24h-.24a1.82 1.82 0 0 1 -1.67-.25l.24-1.75.72-1c1.25.76 1.46 1.68 2.37 2.74h.24l.24-2.25.71.5.24.75.71-1.25.24.5.24 2h.24a9.29 9.29 0 0 0 5.7-3.24v.49l.48 2.5 1.19-.75c.2 1.3.24 1.27 1.18 1.74 2.86 1 2.94-.67 4.76-1.24s2.31.58 3.8.5l1.43.24v-1c2.25-.23 3.66 1.54 5 3l-1.67 1.51.23.5c.87.16.72.1 1.19.5l-2.61 5 .71.75 1-2.24h.24l1.19 1.24v1l-2.14 1c.08.5.15 1 .23 1.49.67 1.4.9 1.14 1.91.5.31-.5.63-1 1-1.49.64.39.32.08.71.74a3.51 3.51 0 0 1 -1.43 4.49l.48.25c2.43.78 3.67-1.13 5.47.75 2-1.86 3.51-2 6.65-3v-1a3.7 3.7 0 0 0 -1.66-2h-.24v2.52l-1.66.25c-3-2.13-2.26-4.93-6.66-6 .24-.5.48-1 .71-1.5h.24c1.7.26 1.63.88 2.62 1.75l1.66-.25c-.39-1.53-1.26-1.13-.24-2.25l1 .75.24 3.24 3.8-.25.24-.25-.71-1.74.23-.25c3.78.82 4.44 3.67 6.18 7 .77-.2.52-.72 1 0 .47 1.29-.15 1.9-.72 2.74l1.91.5v-1.5a5.05 5.05 0 0 0 2.85-1.49c-.43 1.56-1.27 1.81-1.43 3h1.19c1.56-.51 2.62-.79 3.09-2.5h5l-1.9 1.25a3.61 3.61 0 0 0 .71 2.49h.24a2.8 2.8 0 0 0 1.66-.75l.48 2v-.5c.24-.5.48-1 .71-1.5h.24v1.25l.71-.25c.32-.66.64-1.33.95-2l1.19 1c.46.76 0 .41 1 .75l.48-.25c.24-.5.48-1 .71-1.49l.48.25c.17 2 .21 2.9-1.19 2.74a1.93 1.93 0 0 0 1.66 1.49c.22-.87.69-1 1.43-1 .24 1.08.48 2.16.71 3.24-.8.48-.7.39-1 1.49h.02c.24-.33.48-.66.71-1l.24 2.25 2.85-.5c-.2-1.38-.57-1.6 0-2.49l.48.25c.74 3.2 2.34 3.9 4.51 5.48-.23 1.08-.47 2.16-.71 3.24l.95.75c1.51-.66 2.63-1.39 4-.75l.48 1.24-1.43 1.25.72 2.74.95-.5 1-.74a1.49 1.49 0 0 1 .24-1.75c1 .82 1.39 2.33 3.09 3l-.48-1.74.95-1.75h1c-.38 1.82-.72 2.4.48 3.49a9.6 9.6 0 0 1 4 1.25c0 .1 1.15 6.18 1.19 6.23l1.18 2c1.77-.64 1.52-2 3.33-1.25l.48-2.74c1.74 0 1.3-.2 2.38-1.24l3.09 1.24c.39-.9.06-.58 1-1l2.61 1.24.24-.75-.24-.49-2.14-1a3.23 3.23 0 0 1 2.38.25c.16 1.49.32 3 .47 4.48h-.23l-3.57-1.49-.47.25c-.28 1.92-.94 3.86-.48 5l2.85 1.5-.24.5a29.59 29.59 0 0 0 -4.75.24 4.59 4.59 0 0 0 .24 3.24l2.85.25.24 1.75a9.34 9.34 0 0 0 7.56-3.29l1 .75c1.45-4 3.82-6 6.65-8.23l-.24-2h.24l.95 3-1.9 1.25.24 1.24 4.28-.5c.1 1.46.07 1.16 1.42 1.75l.72-.25.23-1.5 1.19 1v2.74l2.38-1.74a5.08 5.08 0 0 0 .95 2.74c-2 .33-3.65 1.4-3.8 3.74h.24v-.5c.31-.34.63-.67 1-1a3.5 3.5 0 0 1 2.61 1l-.24 2 .24.25.48-.25c.24-1.93.8-2.94 2.13-3.74l.72.25c-.4 1.54-.46 1.81.24 3l.47.25 5.94-1c-.64.93-1 1.12-.71 2.5l-1.43-.25v1.24a13.83 13.83 0 0 0 2.38 4.24v.25h-2.14c2.2 1.43 4.31 2 6.18 3.49l-.23-1.25a4.74 4.74 0 0 1 1.9 2l-.24 1.5h-.24c-.23-1.39.07-1-1-1h-2.85c-.07 2.21-.67 2.13-1 4 1.29 2.22 2.75 4.83 5.23 5.73l-.24.5-4.28 1h.53c1.35 1 2.81 1.13 3.56 2.75.53 1.64.27 2.09 1 3.73l-1.56.22c.07.25.16.5.23.75l.72.5 1-.75-.24 1.75 1.9-.25c-.07 1.75.65.91 1.43 2.24-1.24.1-.95-.16-1.43.75 2.63 1.1 3.47 2.55 5.71 4.23h-.48a3 3 0 0 0 -.71 2.24 5.24 5.24 0 0 0 1.66 1.75c1.59-.72 2.44.39 3.33 1.74-.86.16-.72.1-1.19.5a26.38 26.38 0 0 0 1.19 6 12.63 12.63 0 0 1 -3.8-3v-.25c1.26-.29 1.35-.51 1.9-1.49l-.48-.5c-3.07 1.29-4.63 3.26-7.13 5a3.31 3.31 0 0 0 .95 2.49l4.28 1c.38-.49.31-.34.48-1.24l1 .74c1.74 5.43 3.64 5.14 9.27 6l.24.74c.37.93.19 1.22-.48 1.75.24.49.48 1 .71 1.49 1.73-.34 2.66-.87 3.57.5-.62 1.22-.26 1.45-1 2.49a17.63 17.63 0 0 0 6.42-.75v1c-.91 3.18-2.47 5.14-2.62 8.47 1.08 2.46 1.73 2.5 4.52 3.24-.08 2.33-.79 2.62-1.9 3.74.39 1.41.79 2.82 1.18 4.24 2.72.31 4.54 3.87 6.66 5 1.23.65 2.88.26 3.8.75 0 1.05-.46 1.45.24 1.74l2.62.5v1.25zm-166.67-159.26h.47c-.33.48 0 .15-.47.49zm-9.51.74.24.75h-.24zm1 .5h.71l.72 1-.95-.25zm13.31.25c.49.45.17 0 .48.75h-.48zm-14 .25a1.32 1.32 0 0 1 -.48 1.25zm-6.25 1.26v1h.47zm-5.23 2.24c1.27-.06 1.3-.09 1.9-.75l-.72-1h-.23l-.95.24v1.5zm-17.59-1.5c.64.4.32.09.71.75a1.72 1.72 0 0 1 -.71-.75zm9.5.5a4.84 4.84 0 0 1 1.67 1.75h-1.43c-.19-1-.31-.94-.24-1.75zm-23.29.25c.83.46.64.21.95 1.25-.87-.27-.7-.21-1.19-.75zm15 0v2h-.71v-1zm14.5.25.24.75.72-.75h-1zm12.37 0-.24 1.25h.24l.47-.25c-.22-.91 0-.51-.47-1zm5.46 0-.23 1 .71-.75zm3.33 0 .49 1.26h.23l.95-.5-.47-.75zm-24.01 1.25-.71 1v.25l1.21-.24c-.22-.91 0-.51-.48-1zm3.57 0c.43.51 0 .17.71.5-.43-.51 0-.18-.71-.5zm-29.24 1 .24 2c-1.13.76-2.59 1.53-3.33 2.74l.26 1.27 2.14-1.49v.25l-.48 1h2.14v2l.71-.5a11.94 11.94 0 0 0 0-5.73zm16.64 1.25a1.64 1.64 0 0 0 .71 2l.48-.5c-.29-1.16 0-1.12-1.19-1.49zm13.55.25v1.24l.71.25v-1zm-33 .5c.72.31.28 0 .71.5h-.24zm28 0 .47 1h.24v-.25zm-11.65.5a3.87 3.87 0 0 1 -1 2.24c1.41.1 1.29.16 1.9 1l.48-.24.47-3zm26.15.24-.24 1.25c.62-.49.62-.37 1-1.25zm-35.42.25.47.5zm14.26 0v.75l.71-.5zm52.53.25c.49.45.17 0 .48.75h-.24l-.47-.25c.08-.16.16-.33.23-.5zm-70.36.25 1 .75-.23.5h-1zm20.92.25-.45.27v.75l.71.25h.24c.08-.25.15-.5.23-.75zm-18.3.5c0 1.07.06 1.2.47 1.74l.24-1.24zm-25 .25h.71v.25l-.71.25zm10.22 0-2.85 2.24 2.38-.25 1.18-.75c-.19-1.23.16-.74-.71-1.24zm85.58.25c-.06.36.09.25-.24.75.08-.25.15-.5.24-.75zm-80.11.25.47.25zm-21.63.5c1.57.33 1.91 1 2.14 2.74h-1l-.48-.25c-.24-.83-.48-1.66-.71-2.49zm18.06 0 .48.49zm20.44 0-.23 1h.23zm-29 .24-.24 1.5c1.15.72 1.43.71 1.19 1.74h-.48l.24.5 3.09-.25-.24-.74zm9.5 0 .72 1c.86-.16.72-.1 1.18-.5l-.23-.5zm65.61 0h.48l-.48.5zm-50.63.25-.24.5.48-.5zm64.18 0-.95 1.25c.9-.44 1-.53.95-1.25zm5.7.5h.48l-.48 1c-.15-.17-.31-.33-.47-.5v-.25c.16-.08.32-.16.47-.25zm-108.07.27 1.19 2c-.95.36-1 .36-1.43 1.25l-1-.5v-2.24c.86-.16.72-.1 1.19-.5zm2.38 0h.95l-.48.5c-.16-.17-.32-.33-.47-.5zm103.16 0h1v.26c-.46.6-.15.4-1 .75l-.24-.75zm-79.87.25-.24.5.24.25.48-.5v-.24zm-44.69.25.71.5zm28.76.25.72.75-.72-.25zm33.52 0 .24 1.24h.95l.24-.74-.24-.5zm-9.75.5c.34.48 0 .15.48.5zm67.49.01c.48.52.24.34 1.19.5-.47-.4-.33-.33-1.19-.5zm-104.35.25.24.49zm101.74 0 .47.25zm-118.14.49h.47c-.41.25-.05.23-.47 0zm59.9 0-.48.25.48.75h1l.71-.75h-.47zm-14.5.25c-.21 1-.53.4.24 1.25.52-.51.44-.34.71-1.25zm7.61 0-1.43 1.5.24.5h1l1-.75v-.75zm76.54 0c.5.52.39.44.47 1.5l-1-.5.48-1zm-96.27.75-.24.5.24.25.47-.5v-.25zm84.14.25v.75h.72v-.25zm-107.44.25.95.5-.47.25-.72-.25zm40.65.25.47.25zm-39.46.25c.49.45.17 0 .48.75h-.48zm7.85 0 1 .5-.24.5zm14 .5c0 .83-.22.57.24 1.24l.47-.74zm88.43 0-1 .74.23.75h1.67c.08.5.16 1 .23 1.5h.24v-2l-.24-.74zm-6 .25.72.49c-.65-.14-1.13.19-.68-.5zm-112.67.25v.74l.24-.74zm141.91.49c.63.5.47.28.71 1.25h-.65zm-102.92.25v.75h.47c-.3-.75 0-.3-.48-.75zm-66.56.25.71.75c-.6-.41-.29-.1-.67-.76zm21.87 0c.15.33.31.67.47 1h.95v-1zm126.93 0c.46.76.05.41 1 .75v-.25zm-146.66.75c1.14 1.13 1.3 3 2.61 4a7.25 7.25 0 0 1 2.14-1.75v1a10.24 10.24 0 0 1 -1.9 2l-1.66-.5-.48 2.25-1.9.49c.39-1.17 1-1.39 1.66-2.24l-1.19.5a6.77 6.77 0 0 0 .24-3.24l-1.66-.5.24-.5 1.66-.25zm173.52 0h.72v.25l-.72.25zm-20.44.25.95.75-.95-.25zm-135.22.27v.75h.48c-.3-.75 0-.33-.48-.75zm10.94 0-.95.75 2.14-.25v-.5zm-15.45.5c.72.48.38 0 .71 1h-.24l-.42-.5v-.49zm53.48 0 .48.49c-.33-.47 0-.14-.48-.49zm-20.68.25h1l-.47 1.24-.48-.25v-1zm98.41.49-.24.5h.48zm-115 .25-.24.75h.72v-.75zm123.37.25c.08.95 0 1.08.95 1.75l.48-.5zm-121.23 1c.19 1.1.14.92.71 1.49l.48-.25v-1zm-26.15.75c.72.31.29 0 .72.49h-.24zm167.82 0c.49.33.39.27.72.74l-.24.5-.48-.25v-1zm3.57 0c.72.48.38 0 .71 1zm-2.14.25.24.49zm-159.26 1 .47.25zm3.09.25-.48 1h.95l.48-.25v-.25zm150 .25v1.25l.24.25.47-.25v-1.29zm-21.39 1.25c.15.33.31.66.47 1-.16-.33-.32-.66-.47-1zm-84.39.74a3.39 3.39 0 0 0 0 3.74l1.19.25.47-1.74-.23-.5-1.19.25c.27-1.31.67-1.25-.24-2zm85.81 0a2.09 2.09 0 0 0 -.71 1.5 2.14 2.14 0 0 0 1.66-1zm-84.15.5-.23.5.47-.5zm108.87 0c.49.45.17 0 .48.75h-.24l-.47-.25zm3.09.25c.49.45.17 0 .48.75h-.55zm-26.38.75.24 1.24h.23v-1.24zm-84.86.25v1l.47-1zm44.45.5v1l.47-1zm70.12 0 .71.25c-.07.16-.15.33-.23.49l-.72-.24zm-119.4.21c0 .83-.22.57.24 1.24h.24l.24-1.24zm-10.93.25.95.24zm120.52 0v.74l.47-.5zm-164 .25.71 1.24h.24v-1zm7.84.49c.46.76.05.41 1 .75l-.47-.75zm126.94 0-.24.5.48-.5zm36.37.75.23 1.25 1 .25.23-.75c-.15-.25-.31-.5-.47-.75zm-4.76.25.72.5c-.43-.51 0-.18-.72-.5zm1.67 0v2.24c1.79.19 1.57.66 2.37 1.75v-.5a1.83 1.83 0 0 0 -.47-2.24 2.24 2.24 0 0 0 -1.9-1.25zm-108.87.5v.75l.47-.5zm-54.2.5 1.19.49c-.47-.39-.33-.32-1.19-.49zm-12.84.25v.49c.24-.43.22 0 0-.49zm4.52.49v1h.24l.47-.5zm8.56.25.71 1.25h.24c-.33-1-.23-.74-1-1.25zm136.44 0-.24.75h.72zm-86.29.5.24.75.48-.25zm119.33 0h.7l-1 .5.24-.5zm-184.93 2.74 1.66.25v.5l-1.19.25.72 2.49a2.36 2.36 0 0 1 -1.67-1.25l-.47.25c-.69 3-3.56 3.07-6.42 2.5l-.24-.5v-.25c2-2.1 5.27-2.43 7.61-4.24zm19.73 0a3.1 3.1 0 0 0 -.24 2.49c1.16-.2 1.09-.27 1.66-1l-.23-1.25zm165 0c-.15.25-.31.5-.47.75l.95-.75zm-88.42.5v.75l.71.25v-1zm100.07.25.24.5h-.47c.07-.17.15-.33.23-.5zm-39.69 1.25v1l.47-.5-.47-.49zm-60.86.24c0 1.52-.14 1.58 1 2v-1c-.38-.64-.29-.6-1-1zm-90.09.25c.47.52.09.26 1 .5zm6.66 0-.24.75 2.38.5a3.35 3.35 0 0 0 -2.19-1.25zm9 0-.24 1c.35-.57.47-.3.22-1zm115.76 0v.75l.24-.75zm-42.55.25-.23.75c.3-.53.41-.13.25-.75zm63 1-.48.75v.25h.71l.24-.75zm-166.16.25h.48c-.34.48 0 .15-.48.5zm29.24.75a3.08 3.08 0 0 0 .71 2.74l.48-.75v-.75c-.39-.85-.39-.83-1.19-1.24zm165 0c0 .92 0 .83.72 1.49.52-.51.45-.34.71-1.24h-.49zm-181.13.49c.86.45.29-.13.72.75h-.24l-.48-.25zm11.89 0a4.73 4.73 0 0 0 .71 4h1.19l.48-.5v-1.24c-.73-1.23-.71-1.92-2.38-2.24zm195.15 0c1.29.25 1.17.22 1.43 1.5h-1.19l-.71-.5c.16-.33.32-.66.47-1zm-1.42 1.25.71.5h-.71zm-218 .25a3 3 0 0 0 -.71 2.49l2.38 1 .71-1c-.59-.91-1.23-.51-1.66-1l-.72-1.5zm173.77.5.47.25zm-7.14.25.24.75.48-.5zm22.11.5.48 1c-.22-.91 0-.51-.48-1zm50.16 0c.08.16.15.33.24.49h-.48zm-81.3.25-.24.49h.48zm66.32.24.24.5zm-139.29.25c-1 1.27-1.18 3.84-.72 6a1.89 1.89 0 0 0 1.67-.49c-.76-2 .37-2.42 0-5zm80.58 0 .24.5c.07-.16.16-.33.23-.5zm-157.13.25-.71 1.25c1.07-.35.86-.13 1.19-1.25zm153.56 0-.24.75h.72l-.24-.75zm5.47 2.49h1.43l1-1.24-.24-1.25h-1l-1.19 1.25zm-163.54-2.24c-.28 1.38-.56 1.74.24 2.49h.23l.24-.74a5.48 5.48 0 0 0 -.71-1.75zm29.47.25-.47 1.25c1.15 0 1.18-.38 1.43 1.24l.47-.25-.24-2zm-36.13.25-.71.5v.75l.95.25v-.5c.06-.73.23-.42-.28-1zm233.19.25c.44.64 0 .39-.47.75.15-.25.31-.5.47-.75zm-68.46.25-.23.25.23.5.48-.5zm2.86 0 1 .75v-.25zm57.28 0-.23.75c.49-.57.27-.1.23-.75zm10.46.25.24.5zm-240.79.25h.95l.23.5-.47.74-.71.25-1.19-.25v-.25l.23-.49zm247.92 0h.72c-.37 1 0 .61-1 1zm-222.73.25-.71 1.74.71-.25.72-1-.48-.5zm140 0 1.19 3.24c.73-.38.76-.28 1.19-1v-.75c-.49-1.18-.77-1.44-2.38-1.49zm79.87 0h.48c-.42.24-.06.22-.48 0zm-65.37.25a3.72 3.72 0 0 0 -.47 2.24l.95-.25c.23-.58.47-1.16.71-1.75zm-8.79.24-.48 1.75c.24.41.48.83.71 1.25l.48-.25c.1-1.48.19-2.22-.71-2.75zm6.89 0v.5c.23-.43.22 0 0-.5zm-146.66.25-.24.5.95-.5zm156.64 0 .48.75zm-93.18.25.24.75c.49-.45.17 0 .48-.75zm-5.46.25.71.75a1.83 1.83 0 0 0 -.71-.75zm-72.5.25-.24.5.47.25.48-.25zm230.57 0c.2.79.07.79-.24 1.5h-.96l-.71-.75v-.25l.24-.25zm-233.9.25v.5c.2-.44.18-.06-.03-.5zm209.89.25-.47.25v1l1.9.74v-.74l-.72-1zm-226.77.25 1.43.5v.25l-1 .74c-.66-.68-.61-.51-.48-1.49zm85.81 0v.75h.48c-.3-.76 0-.3-.48-.75zm148.57 0 .24.5zm18.78 0c.72.31.28 0 .71.5h-.29zm-236.52 1v1.24l.71-.5zm2.14 0-.48 3.23 1.67-.74 1.9 1.74c-.5 2.42.44 5.25 1.43 7.48a3.64 3.64 0 0 0 -3.09 2.74c1.88.12 1.95.71 2.85 1.74-.25 3.49-2.72 4.12-3.33 6.73-.48 2.05.81 2.13.48 3.74h.23l1.91-1.5.47.25v1l-1.9 2.24c3 2.48 7.05.88 9.27 4.24.93-.76 3-2.55 5-2.25-.61-3.57-1.9-8.38-1-11l-1.9-1.49-.48 1.24-.47-.25-1.19-1.74.48-1.25c3.74-.86 5.21 1.42 9 1.75-.45-1.54-1.32-1.48-2.38-2.25l.24-.74c.67-1 1-.83 2.14-.75-.52-1.61-.81-4.39-1.9-5.48-1 .63-.3.63-1.43 0a20.12 20.12 0 0 0 -5.47-7.48c-.11 1.24-.11 1.14-.71 1.75-1.51-.55-1.57-1.37-2.62-2.25l-.23 1.75v-.5c-.32-.5-.64-1-1-1.5v3c-2.38-2.53-5.12-1.37-7.61-3.49zm199.43 0 .24 1.24zm-127.63.24.47.25zm163.54 0 1.19.5v.25l-.72.25-.71-.5.24-.49zm-255.3.25.72.5zm3.81 0c.15.34.31.67.47 1-.22-.91 0-.51-.47-1zm221.06 0-.24.75.24.25.48-.75zm-189.21.25.24 1h.71c-.42-.78-.26-.59-.99-1zm81.77 0 .47 1.5.48-.25v-.25l-.24-.75zm115.52 0h.48l-.72.5zm-221.3.25-1 1.25.24.75c.42 1.15.69 1.21 1.66 1.74l1.19-.25.24-.75a2.5 2.5 0 0 0 -.24-2.49c-1.22.46-1.27.38-2.14-.25zm212.27.75-.24.5c.4-.31.08-.22.2-.5zm-218.69.25.24 1.74.71.25.24-.74-.24-.75-1-.5zm10 0c.52 1.2 1.17 1.52 2.61 1.74l.24-1a13.76 13.76 0 0 1 -2.85-.75zm127.64 0-.71 1.25c.6-.58.67-.6.66-1.25zm-48.25.5c.46.75.05.4 1 .75v-.75zm132.88 0v.75h.47zm-185.74.25c.12 1.59-.17 2.39.24 3.49h1.18l.95-1.25v-1zm76.78 0 .23 1.74.48-.25v-.25zm-115.29.5.48.74c-.26-.75.03-.3-.44-.74zm237.47 0c.48.44.17 0 .47.74h-.43zm-126.7.49-1.9 1.75.24.5h1.42c-1.06 1.46-2.15 2.3-2.37 4.73l1.42.75h.24c.46-2.77 1.87-4.81 1.43-7.73zm17.12 0v.75l.47-.5zm-84.87.25a20.64 20.64 0 0 0 -2.61 4.24l.24 1h.24l1.42-.25.24-3.74c.67.27.35.21.95.25-.07-1.06 0-1-.48-1.5zm112.44 0-.24 1h.71zm66.56 0c.51.74.15.67 1 .5zm28.52 0-.24.5c.53-.22.31.01.28-.5zm-158.31.25v.5c.23-.43.22-.05 0-.5zm15.45 0 .24.5c-.1-.23.19-.17-.24-.5zm138.34.5.48.25-.47-.25zm-240.32.25-.71 1 .48.49.47-.24zm11.89.25-.48 1.49c.8 1.31.91 2.08 2.62 2.5l-.24-.75zm-8.56.25-.47 2 1.19-.5v-.25zm4.52 0 .24.5c-.1-.24.19-.17-.24-.5zm158.55 0v1h.24zm-141.44.75.72.49h-.72zm92.47 0-.24.74.48.25h.47l.24-.5zm-110.29.24-.24 1.75h.24l.47-.75c.31-.68.11-.48-.24-1zm206.56 0-.23 2 .94-.25.24-.75zm37.8 0h.47l-.23 1.25h-.48zm3.8.25a1.86 1.86 0 0 1 0 1.75l-.48-.25v-.25zm-153.79.25.23.5c-.1-.23.19-.17-.23-.5zm-100.55.25.47 1 .48-.25v-.25zm97 0 1 2.49h.24c2.64-.27 1.21-2.63-1.19-2.49zm145.71 0-.23.25 1 1h.71c-.34-1.18-.18-1-1.43-1.25zm5 0h.47c-.33.48 0 .15-.47.5zm-215.86.25c.16 1 .32 2 .47 3l1.19 1 .48-.25v-.25c-.38-1.36-.91-2.88-2.14-3.5zm-33.76.25.72 1.25h.23c-.26-1.09-.09-.78-.91-1.25zm131.69 0c-.54 1.09-.59.83-.23 2l-1.19-.5-.48.25v1l1.19 1.25-2.38 2.49.48.75c2 .35 1.85 1.11 2.38 3 1.84-.1 3.48.54 3.56-2-.83-1.62-2.08-1.9-3.09-3.24l.24-.25a1.77 1.77 0 0 0 1.66-.24c0-2.29-.76-3.62-2.14-4.49zm108.87 0c-1 .87-3.32 1.65-4 2.74-3.21 4.85 1.06 4.52-5.23 8.47l.24 1.25 3.56 1.49 6.9-.74c1.35.23 2.27 1.08 3.8.74v-.24l-2.14-1.75c.35-2.27 1.41-1.77 1.67-4.23-.32-.75-.64-1.5-1-2.25a13.5 13.5 0 0 1 -4 2.25c-.28-1.23.35-1.24-1-1.75l1.19-3.74h.24v.5l.95 2.49 2.14-1.49c-1.1-1.78-.24-3-3.33-3.74zm-213 .25h.71l-.47.75h-.24zm98.41.25-1.19 1.49 2.61 3.74h.24l-.24-5.23zm-.24.5.48 1h-.24zm114.58 0c1 .38.58-.05.95 1h-.95zm14.26 0c.83.45.64.21 1 1.24l-.72.25-.47-.25zm-242.46.25v1.24c.86-.16.72-.1 1.19-.5l-.72-.49zm246.5 0c0 .36.1.25-.24.74zm-269.32.25.23.49zm3.09 0-.72.74c.9-.48.86-.17.72-.74zm226.29.25-.47 1 .47.25.48-.25v-.25c-.3-.75 0-.3-.48-.74zm-201.81.24c.49.45.17 0 .48.75zm-19 .25-.71.75.48.75c1.08 0 1.36-.05 1.9-.5a1.79 1.79 0 0 0 -.72-.75zm124.09 0 .23.75.48-.25zm-23.06.25.48.5.47-.5zm134.3 0c-.07.25-.16.5-.23.75.32-.53.43-.13.23-.75zm-3.09.25.48 1h.24v-.25zm-20.44.25v.75l.72-.5zm-107.2.25a6.46 6.46 0 0 0 -.24 4.24 1.65 1.65 0 0 0 1-.25v-.5l.24-3.24zm-82.73.25h1v.25l-.47.75-.48-.25v-.75zm-30.9.25.24 1.24c-.42-.64-.38-.4-.24-1.24zm21.16 0-1.19 2.49c1-.88 1-.8 2.38-1-.18-1.33 0-1.2-1.19-1.49zm7.37.25h.47l-.47 1h-.24zm60.85 0-.24 1.49.24.5.47-.25v-.5c.17-.91.3-.67-.47-1.24zm-73.45.25c-1.31 1.86-4.06 4-6.89 2.74 1 2 4.51 2.76 4.27 5 2.35-.56 2.87-1.06 5.23 0-.78-2.19-2.28-3.9-1.9-6.73h1c-.49-.74-.64-.77-1.66-1zm225.58 0-.48 2c1.13-.36 1-.19 1.19-1.5l-.71-.49zm22.11 0c-.06.83-.22.57.24 1.24l.47-.25v-1zm4 0 .24 1h-1.83l.24.5 3.33.25-.71-1.74zm-165.44.25-.48.74.71.5.72.25.47-.75-.24-.74zm8.55 0c0 1.13 0 1.43.48 2l.95-1-.24-.75zm-53.72.25-.24 1 .72-.75zm201.1 0c.16.24.32.49.47.74h.35v-.25l-.71-.49zm-12.6.24c-.16.34-.32.67-.47 1 .7-.54.63-.16.47-1zm2.62.25c.63.35.2.13 0 .75zm-131 .25-.24 1.25h.72l.47-.25.24-.75v-.25zm41.6 0 .47.25zm15.21 0c0 .77-.23.35.24 1h.24zm-169.24.25c1.24.11.94-.16 1.42.75l-.23.5h-.24c-.72-.46-.54-.21-.85-1.25zm242.93.25c.84.58.73.69.48 1.75h-.95l-.24-.5zm1.66 0c-.05.37.1.25-.23.75zm-221.3.25 1.43 1.25c-1.57 0-1.59-.05-1.43-1.25zm-6.06.75v1.74l.71 1.25h1.19v-.5l.24-.25-1.19-2zm66.32 0 .24.5c-.1-.24.19-.17-.24-.5zm3.8 0c-1.15 1.37-2 .66-3.09 1.24v.25c1.76 1.83 4.65 3.25 5 6.48h-.24l-.72-.5c-.38-.85-.38-.83-1.18-1.24v.25c.77 1.84 1.47 3.72 3.56 4.23l.48-1.24c-.65-.4-.33-.09-.72-.75l2.38-.75c-.77-1.55-3-4.36-1-5.73-.25-.91-.19-.73-.71-1.25l-2.38 1c0-1.37.22-1.74-1.43-2zm27.1 0c.1 1 .08 1 .48 1.49l.71-.74zm-89.37.75c.57.43.39.25.71 1h-.24zm24 0 .72 1.24c-.28-.91-.22-.73-.74-1.24zm208.47 0 .24 1 .71.25 1.43-.75-.24-.5h-2.16zm10.7.24c1.45.09 1.31.1 1.9 1-.24.5-.48 1-.71 1.5a3.31 3.31 0 0 1 -1.67-1.5zm-4 .25c.15.17.31.34.47.5-.33-.48 0-.15-.47-.5zm-232 .75a1.91 1.91 0 0 0 1.42 1v-.75h-.47zm54.67 0 .71.25v.75l-1-.5zm162.11 0c.63.5.47.28.72 1.25h-.24l-.48-.25zm21.63 0h.72l-.48 1h-.24zm-193.73.25a2.26 2.26 0 0 0 .48 2h.24c1.07-.21.71 0 1.19-.74l-.24-.5zm37.09.5-.72 1.49c1.72.07 1.76.47 2.86 1v-.25c-.32-.75-.64-1.49-1-2.24zm-21.87.25.47.75c-.39-.76-.05-.3-.53-.75zm-39.22.25c0 1.14-.11.88.47 1.74l.48-.25v-.25a12.72 12.72 0 0 0 -1-1.24zm218.21 0 1.43.25.23.74h-.23c-.82-.32-1-.25-1.43-1zm-255.06.5-.71.49.24.5h.23l1-.5zm4.28 0-.24 1.49.48.25.47-1-.23-.74zm15.21 0c.34.47 0 .14.48.49zm64.66.49a3.66 3.66 0 0 0 1.43 3h.23v-.25a4.86 4.86 0 0 0 -1.72-2.75zm99.12 0 .48.5zm-188.73.5.71.5c-.43-.51 0-.18-.71-.5zm33.99.25c.18 1.1.14.93.71 1.5h.24v-1zm3.8 0 .48.5c-.34-.48 0-.15-.48-.5zm53.48 0 .48 1 .47-1zm5.71 0c-.29 1.51-.21 2.38.71 3.24v-1.25c-.56-.92-.19-1.35-.77-1.99zm52.53 0-1.42.75.23.5h1.9l.24-.75zm7.85.25c.15.17.31.33.47.5-.33-.48 0-.15-.47-.5zm-116.48.25-.48.75c.72-.32.54-.16.95-.75zm222 0 .71.75-.48 1h-.23zm-269.32.25v.75h.47c-.3-.76 0-.3-.47-.75zm5 0v.75l.47.49.48-.49zm148.8 0-.24.25.24.5.48-.5zm-144.52.5.47 1h.24v-.25zm107.68 0-.24.25a6.13 6.13 0 0 0 2.85 2.49l-.24-1.25zm88.19 0-2.14 1.49c1.3-.19 2.22-.35 2.61-1.49zm-98.18.25-.23 1.49.47-.25zm100.32 0-.24 1.24c.52-.51.44-.34.71-1.24zm-211.56.49.71 1c-.31-.95 0-.52-.71-1zm232.47 0-.23.75c.32-.53.43-.13.23-.75zm-133.11.5.24 1.75.95.5.71-.5v-.75zm20.68 0a9.42 9.42 0 0 0 .71 4.49l1.9-.5v-1c-.8-1.3-1-2.47-2.61-3zm93.65 0c.43.51 0 .18.72.5zm42.56.25a2.15 2.15 0 0 0 1.66 1v-.25l-.71-.5-1-.25zm6.89 0c.16.25.32.5.47.75-.15-.25-.31-.5-.47-.75zm-160 .25-.47 1 .47.5h.18v-.5c.31-.68.11-.48-.24-1zm72.26 0c.09.17.16.33.24.5l.24-.5zm45.41 0-.49.21v.5l.95-.25-.24-.5zm20.17.71.48.25zm25 0-.71 1c.16.58.31 1.16.47 1.74h1.19l.48-.25a3.56 3.56 0 0 0 -.72-2.49zm-291.42.25c.42.51 0 .17.71.5-.47-.47-.05-.14-.75-.46zm81.77 0v1.49l.47-.25.24-.74zm67.27.5c.42.89-.13.29.71.74zm150.94 0h.71v.25l-.71.25zm-61.8.25c.45.75 0 .4 1 .74v-.24l-1-.49zm8.32 0-.24.49 2.14 1.25a3.2 3.2 0 0 0 -1.9-1.74zm-247.46.25c-.34.77-.28.21-.23 1.24l1.42.25v-.5l.24-.75-.24-.24zm253.16 0 .71 1 .48-.25-.48-.75zm-141 .24.24.5c-.1-.23.19-.17-.24-.5zm74.16 0c-.15.42-.31.83-.47 1.25.55-.57.7-.45.47-1.25zm-13.07.25-.24.25.48.5h.23v-.75zm-70.12.5-.48.25c.43.51 0 .18.72.5v-.75zm-68.46 1-.72 1.49.48.5h.71l.24-.25c-.09-1.23 0-1.19-.71-1.74zm152.61.25-1.19 1 .47.5c.73-.55.95-.58.71-1.49zm-178.76.25h.48c-.33.48 0 .15-.48.49zm2.62 0-.48.25.95.49v-.74zm102.45 0 1.66 4.73c1.18-.31 1.32-.64 1.9-1.49l-.47-1c-1.63-.54-1.72-1.47-3.09-2.24zm65.37 0c.09.94-.27.31.23 1zm119.32 0c.86.44.28-.14.72.74h-.72zm-54.9.25c-.09.33-.16.66-.24 1h.24l.71-.75v-.24zm28 0c-.07.33-.16.66-.23 1l.71-.5-.48-.49zm-123.13.24c.37.7.35.59.95 1l.48-.25-.48-.75zm-106.45.27v.74l.71-.74zm258.62 0h.72v1.24h-.24l-.48-.25v-1zm-124.08.24.71 2 .48-.25v-.25l-.24-1.25zm12.36 0-.24.5c.49-.22.27 0 .24-.5zm95.56 0-.24 1.76.71-.5v-.25c-.15-.31-.31-.64-.47-.98zm-282.16.25-1.18 1v.25a4.17 4.17 0 0 0 3.8 1.26 5.29 5.29 0 0 0 -1.43-2.49zm107 0a3.38 3.38 0 0 0 .95 2.49l.48-.24v-1zm170.44 0c.07.25.15.5.23.75l.48-.5-.72-.25zm25.19 0 .24.5zm-266.23.25-.47.25.23.75h.46c1 .47 1 .46 1.66-.25l-.71-.5zm135.73 0 .24 2.24h.48v-1.24zm-84.15.25.48.25zm-83.19.25v.5c.23-.44.21-.06 0-.5zm35.18 0-.48.25.24.75.71.25c.53-.52.45-.35.72-1.25zm59.9 0c-.37.67-.45.55-1 1v.25c1.06.27 1.18.55 1.9 0a2.55 2.55 0 0 0 -.95-1.25zm93.18.25-.24 1.5.71-.5v-.25c-.15-.25-.31-.5-.47-.75zm1.42 0 .48.75.48-.25-.24-.5zm74.17 0c-.72.72-1.08.79-1.43 2h1l1.11-1.49-.71-.5zm-120.75.25-.24.75.71-.75zm49.2 0a7 7 0 0 0 -2.38 3.24c.26.91.2.73.72 1.24 1.33-.3 2.47.34 3.8.75a13.59 13.59 0 0 1 0-3.49l-1.19-.74c.82-.27.6.14.48-.75zm92.23 0-.95.5 1.43 1c.82-.5.86-.39 1.18-1.49zm-75.83.25-1 1.24.24.5h.24l1-.5c.49-.49.24-.09.47-1zm-123.87.28 1.19 1.74c-.55 1.07-1 .92-1.43 2.24l.24.25.71-.25 1.43-1.49-.48-2.24zm156.64 0c-.07.25-.15.5-.23.75.64-.4.33-.09.71-.75zm-249.59.25c0 1.36 0 1.77.72 2.74l1.19-.75c-1.2-.73-1.14-.87-1.91-1.99zm91.28 0 .48 2.24h.24c-.05-1.34-.12-1.59-.72-2.24zm16.64 0-.23.74c.49-.57.27-.09.23-.74zm111.25 0-.48.74c.91-.33.5 0 1-.74zm-221.07.25-.47 1.24.71.5.71-.5v-1.25h-1zm297.13 0-.47.49.47.5.48-.25.24-.74zm-182.79.49-.24.25.48.5.47-.25-.24-.5zm61.09 0c.4.62.14.3.71 0zm-150 .25-.48.5.48.5.95-1zm137.87 0 .23.5c-.1-.23.19-.17-.23-.5zm11.17 0-.48 1c.61-.41.58-.31 1-1zm-166.16.25v.75l.95.5.24-.75-.48-.5zm54.67 0-.47 1.75h.24l1.19-.5v-.75zm134.55 0c.15.17.31.33.47.5-.33-.48 0-.15-.47-.5zm5.46 0c.72.32.29 0 .72.5h-.24zm-93.14.24-.23.5 1 .5-.48 2h.24l2.61-1a3.18 3.18 0 0 0 -3.14-2zm-97.69.25c.39.82.48.8 1.18 1.25h.24l-.24-1.25zm101.26 0c0 1.57 0 1.62 1.19 2v-1zm131.93 0 .23.75.48-.25zm27.81 0-.24.25.24.5.47-.5zm2.37 0c0 .83-.22.57.24 1.25l.72-.75zm-188.5.25.48.5-.24-.5zm131.45 0-.71 1.25 1-.25c.07-.86.29-.37-.24-1zm-192.33.5.24.5c-.1-.23.19-.17-.24-.5zm26.15 0c.32.67.55.73.71 0zm116.47 0v.75l.48-.5zm22.82 0v3.49h.26c.91-.33.5 0 .95-.75v-1.74zm87.24.25-.24.5.24.25.48-.5v-.25zm-59 .25.71.25zm-224.63.25.24.49zm102 0c-.15 1.3-.48 1.2.72 1.74l.24-.75-.24-.74zm51.82 0-.17 1.25.47-.25zm38.27 0-.71 1 .24.5h.24l.47-.25zm-31.85.49v1.25h.48zm-74.16.25c.38.78.21.59.95 1-.39-.64-.29-.6-.95-1zm-33.76.25-.23.25c.07.17.15.33.23.5l.48-.25v-.24zm53 0 .48 1 .23-1zm140 .25-.71 1.25c.08.25.15.5.24.74l1.18-1v-.25a3.13 3.13 0 0 0 -.71-.75zm-39.93.25-.72 2a2.15 2.15 0 0 0 1.67-1c-.42-.76-.14-.59-1-1zm67.27 0-.48.75 1.19-.75zm-146.43.25c.07.85-.17.54.48 1.25zm29.48 0-.48.75v.25c1.07-.31.77 0 1.19-1zm119.09 0c-1.06 1.49-3.68 3.44-2.62 6.23.32.51.27.4.72.75l1-.25c-.4-.42-.8-.83-1.19-1.25a2.35 2.35 0 0 0 .47-2.24l3.57 1v-.5c.49-1.38-.35-2.77-1-3.74zm36.84 0h.48c-.43.89.12.29-.72.75zm-121.94.25-.72 2c1.22.45.78.88 1.43 1.75.22-1.57.43-3-.71-3.74zm34.23 0 .47.25zm-36.85.25c-.08.16-.16.33-.23.5l.47.49.71-.49v-.25zm-38 .25-.24.5.48-.5zm-62.28.25.24.74.47-.49zm183.51 0c-1.2 1.13-2 1.6-2.14 4l.24.5h1l2.85-3.24v-1h-.47zm41.6 0c.89.43 1.25.48 1.66 1.49h-.71l-.71-.25zm-300.46.25v.74c.16-.16.32-.33.47-.5zm86.29 0-.24.24.71.5.95.25-.24-1zm14.5 0-.72 1.49.48.5.95-.75c-.24-1-.09-.75-.71-1.24zm194 0c-.08.24-.15.49-.24.74l.48-.74zm-145.74.26c-.5.64-.49.38-.71 1.5l.71-.25.48-1.25zm67.75 0c.08.42.15.84.23 1.25l1.67-.25-.24-.75c-.16-.08-.32-.16-.47-.25zm-142.39.5-1.43 1 .48.75 1 .75c-1.08.42-1.05.29-1.19 1.74.87 1.42 5.21 4.25 6.89 5l.48-.49c-1.15-2.83-4.42-4.26-5.47-7.23l1.19.5-1-2zm67.75 0-.24.75 2.61 2.49 4.52-.5v-.24c-.4-.42-.79-.84-1.19-1.25-1.59.25-4.26-.67-5.66-1.26zm20.2 0-.24.5.48.5.71-.25zm50.63 0-.23.5.23.25.48-.5v-.25zm-185.88.25-.95.5.47.75h.24l1.19-.75v-.25l-1-.25zm123.6 0c-.31.42-.63.83-1 1.25v3.24l.72 1 .77-.24.48-5.23h-1zm33 .25v.75l.48-.5zm-171.62.25-.47.25c.59 1.39 1 1.92 1.66 3.24 2.21 0 3.35-.49 4.28-1.74v-.25c-3.11-.04-2.85-1.08-5.43-1.51zm11.65 0 .24 1.5c.23.25.47.49.71.74l1-1a1.83 1.83 0 0 0 -.71-.75l-1.19-.5zm68.22.25-.24.5 1-.5zm85.1 0c.25.91.19.73.71 1.25zm-170.2.25-.47.25c.36 1-.05.61.95 1 .07-.42.15-.84.23-1.25zm210.13 0v.75h.48c-.3-.76 0-.3-.48-.75zm23.77 0c-.08.33-.15.66-.24 1l1-.25v-.25l-.72-.5zm57.29 0 .24.5h-.48zm-305.85.25c.32.67.55.73.72 0zm80.59 0-.24.5c.16-.17.31-.34.47-.5zm22.34 0c.12 1.36-.1 1.09 1 1.49a2 2 0 0 0 -1-1.49zm119.07 0-.71.5c.16.25.31.5.47.74h.71l.48-1zm-41.83.25v.75h.71v-.25zm-120.28.25c-.55.5-.8.52-1.19 1.24-.4.53-.37.5-.48 1.5l.95.5c.61-.41.58-.31 1-1a2 2 0 0 0 -.23-2.24zm84.38 0c.59.39.73.49 1.43.25zm44.22 0-1.19 1v.75l.47.25h.23l1.43-1.74-1-.25zm49.2 0c.33.48 0 .15.48.5zm-45.64.25.24.74.47-.49zm113.39.25h.47c-.41.24 0 .22-.47 0zm-284.06.24.71.5v.26h-.24l-.47-.25zm65.13.25v1.25c1 .49 1 .69 1.66 1.49l.72-.49.23-1.5-.71-.75zm40.41 0-.24.75c.5-.57.28-.09.24-.75zm93.18 0c.32.52.27.4.71.75-.38-.67-.08-.34-.71-.75zm1.67.5c.15.17.31.33.47.5l-.48-.5zm10 0-.24.5.24.25c.16-.17.32-.33.47-.5v-.24zm68.7 0v1.75h.23l.72-.75a2.79 2.79 0 0 0 -1-1zm-238.47.24-1.66 1.77c1.26-.06 1.15.06 1.67-.74s.43-.41-.01-1.03zm16.16 0 .71 1.25h.24v-1l-1-.25zm1.9 0 .71.75c-.38-.67-.08-.34-.71-.75zm-69.17.25c-.14 1-.32.65.47 1.25l1 .24v-.49l.24-.75-.24-.25zm66.56 1 .71 1.74.71-.5v-.72l-1.42-.49zm224.86 0c-.07.16-.15.33-.23.49l.47-.49zm-230.31.52-.71 1.75h.23l2.62-1.5v-.25zm18.3 0c-.29.73-.49 1-.23 1.75l1-.75v-.25c-.43-.89.12-.29-.72-.75zm-40.88.25v.75h.47zm253.63 0c.15.91.1.76.47 1.25v-.75zm-240.32.26.47.49zm160.92 0c-.07.33-.15.66-.23 1l-.95-.25c.3 1.81 1.23 2.52 2.85 2.24v-1l-1.67-2zm65.85 0c.47.39.33.32 1.19.49-.47-.4-.33-.32-1.19-.49zm-131.5.21c.54.38.29.46 1 .25zm-146.39.28.24.75h1.15v-.25l-.24-.5zm26.39 0-.24 1.25c.83.18.8.24 1.43-.25a1.85 1.85 0 0 0 -1.19-1zm9.74 0v.5c.24-.43.22-.05 0-.5zm8.56.5-.24 1.5.48.49h.24v-1.49zm174.48 0c-.61.8-.41 0-.24 1h.24c.86-.16.72-.1 1.19-.5l-.48-.25zm73.45 0 .47.75h.24v-.25zm-269.56.25-.48 1.25h.24l.48-.25.24-.5zm118.85 0 .48.5-.24-.5zm-80.34.5-.48.5.95.5.24-.75zm6.89 0a15.64 15.64 0 0 0 1.67 2.74h1.18c1.07-2.71-.92-2.57-2.85-2.74zm-2.14.25-.24.75c.73-.49.25-.09.48-.75zm-36.6.5-.24 1.49.47-.25.48-.75zm27.57 0c.43.51 0 .17.71.49-.43-.5 0-.17-.71-.49zm-37.32.25-.24.49zm8.08 0-.24 1c.58-.47.39-.16.72-1zm9 0c-.08.16-.15.33-.23.49.15.17.31.34.47.5l.48-1zm-24.72.24c.26 1.49.69 1.6 1.67 2.25-.32-.75-.64-1.5-.95-2.25zm61.33.25 1 .5zm-7.13.25-.48.75.48.5c.83-.46.64-.21 1-1.25zm-32.33.25-.24 1h.72c.16-.33.31-.67.47-1zm5.71 0-.24.5c.86-.16.72-.1 1.19-.5zm6.65 0-.23 1.5.47.25.24-.5c-.16-.91-.1-.76-.48-1.25zm244.6 0 .71.25zm-232.47.5v.75l.71-.5zm-47.55.25-.23.5c.64.32.45.11 1-.25v-.24zm10.94 0-2.85.25 1.19 1.25c.85-.14.79 0 1.66.24v-1.73zm19.25.25c.32.41.64.83.95 1.25v-1.25zm-32.56.25c.14 1.75 0 .73-.48 2.49h.72c.15-.25.31-.5.47-.75v-1.23c-.43-.51 0-.18-.71-.5zm65.37 0c.08.16.15.33.23.5-.1-.23.19-.17-.23-.5zm221.78 0c.15.25.31.5.47.74h.24v-.23l-.71-.5zm-231.29.25-.24.49v.26h1l.24-.5zm-8.32.75c-.24.24-.48.49-.71.74.07.25.15.5.23.75l.48.25.71-1.25zm6.89 0-.71 1v.5a4.78 4.78 0 0 0 3.8 1.49v-.24a6.79 6.79 0 0 0 -3.09-2.74zm11.65 0q-1.43 1.23-2.85 2.49c.08.16.16.33.23.49l1.19 1c0-2.69.91-2.49 2.14-3.74zm2.38 0c.08.24.15.49.23.74l.95-.5zm-19.5.49c-.15.67-.31 1.33-.47 2l.47.25.72-.25.24-.75-1-1.25zm-55.34.22-.48.25v1l.24.25.48-.25c0-1 .21-.52-.24-1.25zm10.93 0c.5.7.36.58 1.43.75v-.25l-.24-.5zm126 0c0 1-.15.68.24 1.5h1v-1h-.48zm-146.19.25.71.5c-.16.17-.32.33-.47.5zm95.79 0c-.08.25-.15.5-.23.75l.47.25.48-.5zm-56.81.5v.5c.23-.44.22-.06 0-.5zm-25.19 1v1l.47-.5-.47-.49zm44.21 0c-.24.25-.48.49-.71.74v.25l2.14 1.25c.08-.25.15-.5.23-.75l-.71-1.24zm90.33.25-.24.74c.32-.53.43-.13.24-.74zm79.15.24c.33.48 0 .15.48.5zm-180.42.25a3.84 3.84 0 0 0 .72 2.74h.24c.23-.66.47-1.32.71-2l-.71-.5-1-.25zm-14.5.25-.23.5.23.25.48-.5v-.25zm16.88 0 .48.5c-.33-.48 0-.15-.48-.5zm-5.47.25.48.25zm110.06.5v.75l.71-.5v-.25zm152.37.25-.48.25 1.19.25zm-310.44.25-.72 1.5c-.86-.65-1.32-1.16-2.37-1 .08.25.16.49.23.75a17.13 17.13 0 0 1 3.81 3.23l2.37-1.24v-.25a6.11 6.11 0 0 0 -1.66-2.24zm227 .25v.74l.95-.49v-.25zm80.82.5-1 1.24a3.89 3.89 0 0 0 .47 2h.24l1.9-.75c.49-.51.32-.25.47-1.25l-.71-1.24zm-238.42 2-.48-1.75h-.71l-.48.51.24 1.24zm58.71-1.75.48.51c-.33-.48 0-.16-.48-.51zm2.38 0c.23.42.47.84.71 1.25h.24c-.31-1-.13-.78-1-1.25zm-107.45.26c0 .76-.22.34.24 1v.5l.95-.5-.24-1zm190.88 0-.24.49.24.25.48-.49v-.25zm-85.57.49v.75l.71-.75zm-102.22.25.48 1h.48c.07-.17.15-.33.23-.5-.47-.4-.33-.32-1.18-.5zm2.62 0c.16.25.32.5.47.75-.29-.75 0-.3-.47-.75zm124.56 0c.16 1.16.31 2.33.47 3.49h.24c.24-.91.48-1.83.71-2.74zm-93.66.25c.44.77-.14.56.71.5zm251.49.25v.5c.24-.44.22-.06 0-.5zm-320.42.5-.48.75v.25c1-.39.58 0 1-1zm83 .5v1c.15-.33.31-.66.47-1zm-49.21.25a5 5 0 0 0 2.38 5l-1.43-4.73zm36.13 0 .48.74c-.3-.75 0-.29-.48-.74zm9.75 0v1.49l-1.67-.75.48 1.25a6 6 0 0 0 3.33-.25v-.75l-.48-.49zm73.45 0c-.79 2.81.33 6.05 1.19 8.22-.83.45-.64.21-.95 1.25l.95.74a6.21 6.21 0 0 0 3.56-3.49 3.54 3.54 0 0 0 -.24-2.74c-.66-.17-1.57-.07-1.18-.74l1.66-.75a14.53 14.53 0 0 0 -5-2.49zm-16.17.25a3.72 3.72 0 0 0 -1.18 2.24c1.48.84 2.28.3 2.37-1.75l-.47-.49zm-75.59.74v1.25l.72-.75-.71-.5zm159.5 0 .24.75.48-.25-.71-.5zm-210.84.5-2.44 1.24v.25l.72 1.74-1 .75h1.28c1.47-.47 4.42-1 5-2.49zm5.7 0-1.18 2.25.71 1c1.33-.83 4.13-.5 5.7.25a7.24 7.24 0 0 0 -5.23-3.49zm-11.41.25c.47.92.26.77 1.43 1l-.24-1zm72.27.25-.24.5c.43-.33.36 0 .24-.5zm188.5 0 .47.25zm44.92 0c.32.58.64 1.16 1 1.75l.48-.5-.71-1-.72-.25zm-324.23.25c.43.51 0 .17.72.5zm283.82.25.48.5c-.33-.48 0-.15-.47-.5zm-107.68.25c.4.62.15.29.72 0zm106.26 0v1.49h.24c.07-.25.15-.49.23-.75zm-236.28.25 1 .75zm4.99.25.48.24zm1 0v1.24h.48v-1.24zm268.13.5.48.74zm-33.51.49-.72 1c.32.33.64.66.95 1h.24l.48-2zm-280.49.25c.61.86.38.8 1.18.25zm88.42 0 .48 1.25h.95c-.55-.9-.68-.83-1.53-1.26zm227.49 0 .71 1 .47-.25v-.25a2.17 2.17 0 0 0 -1.28-.51zm-242 .25v1h1v-.5zm10.46.25c.9 1.45 2.12 1.84 4.52 1.74v-.49zm68.93 0-.47.25.24.5h1.19v-.75h-1zm176.86 0h.41c-.43.51 0 .18-.71.5zm-284.77.25-.24.25.71.5.95.25-.24-1zm33.27 0c-.07.17-.15.33-.23.5.86-.23.48 0 1-.5h-.86zm242.46 0v1.25h.72l.23-.5zm-314.24.25c.15.9.09.75.47 1.24l.24-.49c-.42-.9.13-.3-.71-.75zm188 0-.47 1.49.23.25c1.18-.2.71.17 1.19-.74-.31-.34-.63-.67-1-1zm-40.88.5-1.19 1.49c1.3-.2 1.54-.25 1.9-1.49zm129.07 0-1.19 1.74v.25h1l1.43-1.25-1.19-.74zm-235.33.25.48 1 .71-.5-.24-.49zm-55.86.25c.49.44.17 0 .48.74h-.48zm26.39 0-.48.24.71 1h.24l.95-.5-.24-.5zm303.78 0 .24 1.24c.87-.16.72-.1 1.19-.5l-.24-.5-1.18-.24zm-28.76.24v.75h.72v-.25zm19 0c.38.68.08.35.71.75zm-46.12.25c-.23.34-.47.67-.71 1l.48.5c.66-.58 1-.74.23-1.5zm50.63 0c-.77 3.24 1.74 4.24 2.14 7.23a4.33 4.33 0 0 0 2.86-1.25c-1.69-.33-1.06-.72-.72-2.24h-1.71v-1c.9-.53 1.87-1 1.19-2.5a4 4 0 0 1 -2.62 1l-1.18-1.25zm-276.45.25.72.25zm250.78.5c-.07.17-.16.33-.23.5.39-.32.08-.23.18-.51zm-15.92.25c.18 1.1.14.93.71 1.5zm-47.54.25-.48 1.25.72-.25c-.09-.34-.16-.67-.24-1zm25.19 0c-.08.17-.15.33-.24.5l.48-.5zm-155.69.25v.75h.4l-.47-.75zm131.45.25v1.24h1c-.31-1-.13-.78-1-1.24zm94.37 0-1.19 1.49.71 1c1.58-.32 1.4-.73 1.19-2.24zm5.46 0c-.08.16-.15.33-.23.5.15-.17.31-.34.47-.5zm-14 1v1l1-.75-1-.24zm-292.14.49-.48.25.24.75h.72c.07-.33.15-.67.23-1zm70.36 0-.95 1.5.48.5c1.48-.72.47-.86 1.9-.75l-.72-1.25zm182.56 0v.5c.23-.43.22 0 0-.5zm-177.09.75c.51.74.15.67 1 .5zm-51.11.25c.43.87.2.67 1.19 1l-.24-.75zm40.65 0-.72 1 .24 1 .71-.49.24-.5-.47-1zm64.89 0c.44.77-.14.56.71.5zm125.51.25-2.61 1c.07.16.15.33.23.49 1.8.26 2.08.08 3.09-1l-.71-.5zm-188.74.25-1 .75v.74l1.43.5v-.5c.29-1 .28-1-.48-1.49zm102.45 0c-.08.16-.16.33-.23.5h.47zm-211.56.5.48 1h-1v-.74h.48v-.25zm294 0 .23.5.24-.5zm17.11 0-.24.5.48-.5zm-290 .5.48.24zm24 0-.24.74c.33-.53.43-.13.24-.74zm-5.71.24.48.25zm232.48 0v.75h.46c-.29-.76 0-.31-.47-.76zm-204.66.25.47.25c-.17-.09-.35-.17-.48-.26zm244.83 0c.67.46 0 .18.95.25zm-210.13.25a3 3 0 0 0 3.33 2.5v-2.25zm260 0 .24.5zm-256 .25.48.75zm-38 .5-1.19 1h.71c.49-.52.69-.35.48-1zm-24.72.25-.24.25.24.5c.16-.17.32-.33.47-.5zm26.15 0c.42.51 0 .17.71.5-.43-.51 0-.18-.71-.5zm27.33 0c-.14 1-.17.82.48 1.5h.23l.24-1zm73.45 0v1.25l.48-.25v-.25zm5 .25v.75l.72-.5v-.25zm191.12.25 1.19.75v1.49c-.25 1.28-.28 1.39-1.43 1.74l-.24-.74c.65-1.28 0-2.11.48-3zm-58.95.25-.24.5c.35-.42.38 0 .24-.5zm1.9 0v.75l1.19-.25c-.47-.4-.33-.33-1.19-.5zm50.39.25h.48l-.48.5zm-346.1.25c-.7 1.11-1.93 3.08-3.32 3.48l-1.9-1.49-.48.75a1.59 1.59 0 0 0 -.24 1.74l.48.75c2.51-.55 3.93.82 6.18 2.49l-1.43-5 2.14-1.75-.71-1zm242.94 0c.39.89.07.58.95 1zm25.91.25c.24.24.48.49.71.74l1.43-.25v-.25l-.48-.24zm-266.47.24v.5c.22-.44.21-.06-.01-.51zm24 .25-.48.75h1.19l.24-.5v-.25zm131 0v1.25l.71.25zm118.37 0v1.5h.72l.23-.5c-.08-.25-.15-.5-.23-.75zm14.5 0-.24 1.5h.24l.24-.5.24-.25c-.3-.75 0-.3-.48-.75zm61.09 0h.51c-.42.25-.05.23-.48 0zm-341.34.25v.75h.71v-.25zm264.57 0c-.6 1-1.42.93-2.38 1.5v.25l1.9.49a4.89 4.89 0 0 0 1.19-2.24zm-241.51.25-.24.5.95.25v-.75zm51.1 0c.72 1.16 1.43 2.33 2.14 3.49h.24v-1c-.24-.58-.48-1.16-.71-1.74-.51-.64-.61-.62-1.67-.75zm162.35 0v1.25l.48-.25v-.25c-.3-.76 0-.3-.48-.75zm24.73 0 .47.75h.24v-.25zm-277.64.25.47.25zm165.68 0a2.77 2.77 0 0 0 -.72 2.49h1.19l.72-.25.23-.5c-.44-1.01-.5-1.27-1.44-1.75zm108.39 0-.24 1.74.24.5h.18l1.9-1.24v-.25zm83.43 0 .48.5-.24.25c-.1-.26-.17-.51-.26-.76zm3.57 0 1 .5c-.16.33-.31.66-.47 1h-.35l-.24-.25v-1.25zm-91 .5.24.75.47-.5zm-115.29.25c-.2 1.12-.25 1.57.95 2l.24-.5zm201.58.25c.49.5.32.25.47 1.24h-.24c-.07-.41-.15-.83-.23-1.24zm-342.11.24c.16.74.32 1.49.47 2.24h.24l.95-.25.72-.5v-.75l-.72-.74zm286.91 0-1.19 1.49.24.5 2.85 1.5 1-.25a4 4 0 0 0 -.71-2.75l-2.14-.49zm-169.72.25c.24.24.47.49.71.74h.71v-.25c-.08-.16-.15-.33-.23-.49zm152.13 0-.24.24.48.5.71-.5zm3.56 0 .24 1.49h.24l.24-.5zm-212.27.24c.43.51 0 .18.72.5-.43-.5 0-.17-.72-.5zm75.12 0v.75l.71-.5zm122.18 0-2.38 1.5v1l1 .74 1.19.25.24-.74zm-3.57.25c-.07.17-.16.34-.23.5l.95-.5zm7.61 0-.24.25.24.5.48-.5zm5 .25-.71.5v.75l.24.25 1.18-.25.24-1.25zm-217.26.25-.24 1 .48-1zm54.43 0-2.12 1.25a3.31 3.31 0 0 0 .72 2.24c1.68.56 4 2.59 5.7 1.25-1.3-1.51-1.64-3.37-3.09-4.74zm156.18 0v.75l.71-.5zm60.14 0-.24.25.24.5c.15-.17.31-.33.47-.5zm-56.34.5c-1.85 1-3.55 1.14-4.76 2.74l.24 4.74 1.19-1c.32-2.63 3.42-4.08 4.76-6l-.24-.5zm-128.1.25c.23.58.47 1.16.71 1.74l.47-.24v-1zm123.13.25-.24.25.24.5.47-.25v-.25zm13.07 0-.24.5 1-.5zm-141.2.25-.47 1.49h.24a2.82 2.82 0 0 0 .95-1zm7.85 0-.24.5.24.25.47-.5v-.25zm1.66.25.48.75c-.3-.76 0-.3-.48-.75zm-28.05.25c.32.66.55.72.72 0zm35.42 0 .48.74zm-147.42 1.24-.23.25c.08.17.16.33.23.5l.48-.5zm55.87 0c.66.46 0 .18.95.25zm-52.06.25-.27 1.25-2.14-.25-.24.5c.62 1.62 1.9 2.44 1.67 4.23l4-3.74c-1-.73-1.39-.69-1.9-2zm256.24 0 .48.5-.24.25zm1.67 0 .24.5zm-213 .25-3.09 2 .24.5 2.38-.25.95-.5c0-1.09 0-1.22-.48-1.74zm229.39 0-.48 2.24h.24l.48-.25-.24-2zm-281.92.25c.32.41.64.83 1 1.25l.48-.25v-.25l-.24-.75zm2.38 0v1h1v-.75zm193.49.25c.3.75 0 .3.48.75l-.24-.75zm151.42 0c.46.75 0 .4.95.75zm-250.07.25-.47 1 1-.74zm-99.6.25c.12.94-.17.57.72 1.24zm56.82.25c-.48.49-1 1-1.43 1.49 1.32-.13 1.29-.22 1.9-1zm291.42 0-.24 1h.24l.71-.74v-.25zm-268.6.25-.24.74c.49-.33.38-.28.71-.74zm133.35 0-.48.74.72.25h.23l-.47-1zm-76.07.24c.33.48 0 .15.48.5zm-36.6.5.95.5zm-38.51.25c.4.62.14.29.71 0zm40.65.5-1 .75c.47 1.11.81 1.07 1 2.74l1-.75c-.23-1.11-.07-2.19-1-2.74zm-50.87.25 1.42 1.25.72-.25.23-.5-.23-.5zm217.73 0v.75h.48c-.3-.76 0-.3-.48-.75zm-210.84.25c.16.42.32.83.47 1.25l1.67-.25v-.25zm168.29 0-.71.5.24.75c.16.08.32.16.47.25l.48-.25c-.15-.91-.1-.76-.48-1.25zm-222.73.5-.47.25.24.5a1.84 1.84 0 0 0 .71-.75zm102.22 0-.71 2a2.38 2.38 0 0 0 1.66-1.24l-.48-.75zm-92.94.25-.72 1.49.24.5h.24l3.09-1.24-.72-.25zm36.13.25c.47.4.33.32 1.19.5-.48-.41-.33-.33-1.19-.5zm216.78 0c-.08.16-.15.33-.23.5l.47.24.48-.49zm38.51 0c.62.49 1 .71 1.67.5zm-248.16.25v.74l.47-.49zm88.66 0c.05 1.07.06 1.2.48 1.74l.47-.25v-1l-1-.49zm-92.94.25-.71 1a3.29 3.29 0 0 0 2.37.75v-.25c-.49-.93-.54-1.15-1.66-1.49zm45.64.24v.75l.95-.25zm142.15 0c.4.62.14.3.71 0zm10.69 0-.47.75v.25c.86-.26.7-.2 1.18-.75zm19 0-.48 1.25c.88-.45.82-.19 1.19-1.25zm23.53 10a31.19 31.19 0 0 1 5.23.25l-.24-2.24c-1.8.31-2.94-.45-4.28-1.25v-.5c1.32-1.34 1.71-2 .72-4h-.95c-.15 1.3-.11 1.58-1.19 2l-.48-3.74h-.95c-1.79 1.49-3.83 2.46-2.85 5.48a4.89 4.89 0 0 0 -2.85 1c0 3.56 4.21 3.68 6.18 2.24v-1.49l1.66.25zm-297.84-9c.54.52.25.41 1 .25zm143.81 0c-.32 1-.63 2-1 3h1l1.66-1.25v-.74l-1.66-1zm-128.36.25v1h.24c.15-.17.31-.33.47-.5l-.24-.5zm64.42 0-1.61 1.25.48.74a3 3 0 0 0 2.85-1.24c-1.39.27-.39 0-1.66-.75zm151.18 0c.15.33.31.67.47 1l.48-.5zm-141.68.25-.23.5c.64.32.45.11 1-.25v-.25zm72.27 0 .47.25zm55.62 0v.5c.23-.44.22-.06 0-.5zm-69.89.25-.71 1.24h1l.71-.25.24-.49c-.47-.4-.33-.33-1.19-.5zm10.94 0v.75h.47c-.15-.25-.31-.5-.47-.75zm-8.08.75 1 .49zm125.27 0c.43.5 0 .17.71.49-.43-.5 0-.17-.71-.49zm-101.74.24-.48.25.24.5h1l.24-.5zm42.31 0-.47.25v.5h.47l1.43.25v-.25l-.48-.75zm64.9 0c.39 1.33.79 2.66 1.18 4l-1.42 1.5c.16.41.32.83.47 1.24l.72-.25 5.22-3.48c-.84-1-1.53-.86-1.42-2.25l-4.75-.75zm-281.68.25-.95.75 1.9-.25v-.25zm260.52 0a2.1 2.1 0 0 0 -.24 2c1.42-.06 1.71-.25 2.38-1l-.24-1zm29 0v1l.48-1zm-140.72.25-1 .5.24.5h.23l1-.5c-.16-.16-.31-.33-.47-.5zm-139.3.25v.75l.24-.75zm70.6.25a9.65 9.65 0 0 0 7.37 3.49l.48-.75.23-1.49c-2.91 1.79-4.44-1-8.08-1.25zm196.58 0c-1.32.86-2.41 1.22-3.32 2.49h1.19l2.61-2-.48-.5zm-254.1.5c.33.48 0 .15.47.5zm106.25 0c.31 1 .13.78 1 1.25-.31-1.05-.13-.79-1-1.25zm228.68 0c-.09.17-.16.33-.24.5.42-.33.36 0 .23-.5zm-223.45.25.48.5zm156.41 0-.24.5c.49-.22.27 0 .24-.5zm70.12 0c.72.48.39 0 .72 1l-.72-.5zm-347 .25c-.08.16-.15.33-.23.5l.23.25.48-.5v-.25zm110.77 0c-1.1 3.5-.55 4.2 2.14 6.23h.24c0-1.39.48-4.61-.47-5.23zm-57.76.25.72.25zm82.25 0-.24.75v.24h1v-1zm-136.92.75-1.9-.5c.07 1.72.57 2.1 1.9 1.74zm249.83-.5v.74l.71-.74zm-75.59.25-.48.25v.24c.65-.17.46 0 .48-.49zm-96.75.49-.24.5.72-.5zm56.34 0 .24 1.5.47-.25v-.25c-.3-.75-.15-.56-.71-1zm216.07 0h.48c-.44.25-.07.23-.5 0zm-175.19.5v1l.48-1zm73 .25-.24.5.48-.5zm-188.74.25v.75l.71-.5v-.25zm157.6 0-.24.5c.43-.33.36 0 .24-.5zm-149.53.25c.25 1.08.09.7.72 1.25v-1.25zm137.87 0-.24.75c.33-.54.44-.14.24-.75zm63 0-2.13 1 .71 1h2.37v-.74a2.51 2.51 0 0 0 -.95-1.25zm8.56 0-.24.25.48.5 1-.5v-.25zm-160.45.25c.33.48 0 .15.48.5zm49.44.25-.47.25c.46.75.05.4 1 .74-.22-.9 0-.5-.48-1zm-175 .25.72.5c-.43-.51 0-.18-.72-.5zm82 0c.12 1.23.11 1.14.71 1.74l.48-.25-.24-1.24zm32.33 0v.74h.47c-.3-.75 0-.29-.47-.74zm3.33 0a3.12 3.12 0 0 0 .95 2.49l.71-.5c-.16-1.53-.33-1.7-1.66-2zm93.18 0c-.32.66-.64 1.33-.95 2h.23a3.18 3.18 0 0 0 1.43-1.49l-.71-.5zm-74.64.25-.24.49.24.25.47-.25-.24-.49zm120.51.25.72.24zm25.68.49c-.4.42-.8.83-1.19 1.25v.25l1.42-.25c.18-.86.29-.64-.23-1.25zm-198.25.25-.48 1.5h.24l.24-.5.48-1zm-87 .25a2.67 2.67 0 0 0 -.24 1.5 1.63 1.63 0 0 0 .95-.25c-.2-1.13 0-.74-.71-1.25zm73.45 0c.46.61.15.41 1 .75v-.25zm149.52.25v.5c.23-.43.21 0 0-.5zm-132.64.25a23 23 0 0 1 -2.62 3.74l.24.5c1.32 0 3.27-.11 4-.75-.44-1.07-.71-2.86-1.66-3.49zm38.27 0c.4.62.14.29.71 0zm7.84 0-.24.5h.48zm155 0v.5c.23-.43.21 0 0-.5zm-31.14.25c.45.6.15.4 1 .75v-.25zm-145 .25-.24.5.24.25.47-.25-.24-.5zm4.51 0 1 .5zm137.87 0-.71.75v1h.47l.72.25c.23-.66.47-1.33.71-2zm34 .25v.75l.72.25c-.32-1 0-.52-.72-1zm-211.79.5c-.08 1.24.25 1.28.95 2.24l.47-.25v-1.24l-.71-.5zm147.85 0-.71 1a2.13 2.13 0 0 0 1.19-.49l-.48-.5zm-198.72.5a6.07 6.07 0 0 0 -.48 3.23 1.92 1.92 0 0 0 1.43-1c-1.3-.75-.4-.81-.48-2.24zm92.47 0-.24 1.49c-.92-.36-.4-.65-.95-.25v4.49l4.28 1 1.19-3.24c.63.46.42.5 1.42.75l.48-.5v-1c-2.94-3.32-3.94-1.37-6.18-2.74zm-43 .49c.38.68.08.35.72.75zm137.4.25c.15.17.31.34.47.5l-.24-.5zm146.19 0c.64.4.32.09.71.75a1.8 1.8 0 0 1 -.72-.75zm-253.19.21-.24.5.48-.5zm-83.67.25c-.32.42-.64.83-.95 1.25a2.23 2.23 0 0 0 1.42 2l.48-.25c-.31-1.41.14-1.13.95-2.49l-.24-.5zm291.19 0-.24.5v.25h.71c-.16-.25-.32-.5-.47-.75zm46.59 0c.72.48.38.05.71 1l-.72-1zm-252.68.25-.48.25.24.5c.32-.54.43-.14.23-.75zm-76.79.25.48.75.48-.25-.24-.5zm78.21.25v1.24c1.2.14 1.61.36 2.38-.24l-.48-.75-.47-.25zm21.16 0a3.61 3.61 0 0 0 .71 2.49h1.19c.87-.26.7-.2 1.19-.75v-.25c-2.13 0-2-.54-3.09-1.49zm-2.14.25.47.25zm-86.05.25c.39.9.06.58 1 1-.38-.78-.22-.58-1-1zm166.15 0c-.08.58-.16 1.16-.23 1.74.07.17.15.33.23.5l.72-.5c.08-.58.15-1.16.23-1.74zm-174 .25-1.19 1 .24.5 1.43.25c.39-1 .41-.76 0-1.74zm117 0-1.19 1.49h.48l.24.25 2.14-.75-.72-1zm-57 .25-1.42 1.74c.33 1.12.12.9 1.19 1.25.61-1.78 1.92-.95 3.56-1.5l-.71-1-2.61-.49zm-54.19.24c0 1 .29 1.33 1.19 2h.23v-1.24l-.47-.75zm-10.22.25-.48.25.24.75h.24c1.18-.26.79.09 1.18-1zm59.9 0-.24 1.75c1.39-.45 1.18-.65.71-1.75zm13.78 0 .24 2.25 1.67-.75v-.25l-.48-1c-.73 0-.47 0-1.42-.25zm16.64 0h.67v.25l-.72.25v-.5zm101 .25-2.62 2c.45 1.89-.53 2.77-.95 4.48l1.19.5.24-1.5c2.41 1.06 3.51.21 5-1.49l-2.85-4zm48 0c.07.5.15 1 .23 1.5l.44-.24v-.75l-.71-.5zm1.42.25.71.75c-.37-.67-.08-.34-.71-.75zm-154 .25.24.5c-.1-.23.19-.17-.24-.5zm37.08 0-.71.25c.08.17.16.33.23.5h1.43l.48-.5v-.25zm-26.15.25v.75h.48c-.3-.76 0-.3-.48-.75zm-44.69.25c.1 1 .08 1 .48 1.5h.24c-.24-.5-.48-1-.71-1.5zm-73.45.5.24.5c-.18-.19.11-.13-.32-.46zm21.16 0c-2.34 1.41-.67.21-2.14 2h-1.19l.72 1.25h1.18a3.67 3.67 0 0 0 2.14-2l.24-1.24zm76.54 0 .71 1.24c-.33-.86-.27-.69-.79-1.2zm16.64 0-.95 1.49.24 1.25c.16.08.32.16.47.25h1c-.08-.42-.16-.83-.23-1.25l2.13-.25-1.18-1.49zm-97.22.5-.24.74h1.19v-.74zm102.45 0-.48 1.24 1.43-.25v-1zm10.22 0c.11.66-.14.37.48 1-.3-.88-.07-.48-.56-.96zm10.94 0c.25.91.19.73.71 1.24h.24v-.25l-.95-1zm214.17 0-.24.74c.64-.39.33-.08.71-.74zm4.51 0c.5.49.25.09.48 1l-1-.25c.13-.21.29-.49.44-.71zm2.38 0 .24.5zm-257.2.25-.23.25.71.49v-.25zm20.45 0c.27 1.27.49 1.63 1.66 2-.28-1.35-.57-1.54-1.66-2zm17.35 0-.24.74c.49-.45.17 0 .48-.74zm116.24 0-.24.49v.25h.71l-.24-.74zm-189.45.25c.05 1.11.11 1.65 1.19.74l-.48-.74zm17.35 0-1.9 1.24v.25c1.17-.13 1.94.32 2.61 0 1-.38.58.05.95-1zm213.93 0v1c.87-.16.72-.1 1.19-.5-.55-.36-.41-.29-1.27-.46zm55.63 0-.24 2 1.43-.5v-.74zm-333.5.24c.42.51 0 .18.71.5-.43-.51 0-.17-.71-.5zm73 0 .48 1.25.47-.25v-.25c-.08-.16-.16-.33-.23-.5zm124.56 0 .24.5v.25c-1.07-.1-1-.37-1.67.25-.08.5-.16 1-.23 1.5 1.32-.4 1.74-1.18 2.37-2.25zm51.82 1.75 1.66-.5.24-1h-1.66zm-197.06-1.5c.55.38.29.46.95.25zm-10.69.25c.45.76 0 .41 1 .75l-.48-.75h-.47zm1.42 0 .48.75h.24v-.25zm7.13.25c.33.48 0 .15.48.5zm-48.73.25.24.5c-.1-.23.19-.17-.24-.5zm3.81 0-.48 1.25.71.49.72-.49.24-.5-.48-.75zm254.58.25.24 1.25c.16-.17.31-.34.47-.5zm-15.21.25-.24.5c.16-.17.31-.34.47-.5zm-198.25.25-.48 1.74a6.44 6.44 0 0 0 4.28.75c-.37-1.92-1.56-2.55-3.8-2.49zm237 0 .48.25zm-220.59.25v.74l1 .5v-1.24zm189 0a2.29 2.29 0 0 0 -.72 1.24h1l.47-.5c-.24-.24-.47-.49-.71-.74zm-254.11.25c.33.48 0 .15.48.49zm196.34 0v.74h.48c-.3-.75 0-.29-.48-.74zm-146.9.25c.51.58.11 0 .24.74-.16-.08-.32-.16-.47-.25.07-.16.15-.33.23-.49zm65.61.24.48.25zm143.1 0-1 1h1l.95-.5-.24-.5zm27.1 0 .71.75v-.75zm-280.73.5c.08.42.16.84.23 1.25.46 1 .53 1 1.67 1.25.13-1.35 2.12.47 2.85-1.5zm87.47 0v1l.48-1zm194.92 0 .24 1.5.47-.25v-1zm-268.98.28a4.59 4.59 0 0 0 .71 3.74h.71l1-1.49a7 7 0 0 1 -1.19-2.25h-1.18zm25.19 0 .72 1 .47-.25v-.25zm142.39 0 .24 2.25.44-.25v-1l-.71-1zm94.84 0v1h.48zm-114.81.25.48 1.25c.15-.09.31-.17.47-.25v-.5zm117.9.25-1.19 2 1.19 1.74 1.9-.25a1.79 1.79 0 0 0 .72-.75 4.41 4.41 0 0 0 -1.19-2.74zm-196.58.25-.48.25v.5h1.67v-.25c-.47-.4-.33-.32-1.19-.5zm11.17 5c2.64.1 2.89 1.43 4.52 2.5.47-.34.95-.67 1.43-1-.27-.71-.21-.36-.24-1a10.71 10.71 0 0 0 5.7-2.24v-.75c-1.88-1.54-3.09-2.8-5.47-2l.24 2.49c-1.07-.77-3-1.93-5-1-1.13.58-1.25 1.18-1.19 3zm100.79-5c.15.91.09.75.47 1.25h.24c-.24-1-.09-.75-.71-1.25zm-96.75.25v1h.72c-.32-1 0-.52-.72-1zm20.92 0 .24 1.25h1v-.75l-1.19-.5zm73 0c.33.48 0 .15.47.5-.16-.17-.32-.33-.47-.5zm-148.57.5-1.43 1 2.38-.25v-.25l-.24-.5zm188.26 0c-.08.16-.16.33-.23.5.64.32.45.11 1-.25v-.25zm31.14 0c-1.05.91-2.18.85-2.85 2.24l-.24 1h.71c1.81-.63 3.7-1 4.28-3h-.53l-1.43-.25zm-177.56.25-.72.75.48.49h.47l.24-.25-.47-1zm101.26 0-.48.25.48.5.71-.5v-.25zm46.59.25-.48 1.49 1 .25.72-.25-.48-1.49zm-47.78.25-.24 1 .48.25.47-.25v-.25c-.23-.25-.47-.5-.71-.74zm49.92 0c.24.24.47.49.71.74-.38-.67-.08-.34-.71-.74zm-181.37.49.71 1h.24v-.25l-1-.75zm12.12 0 1 .5zm-4.81.26-.48 2 1.43-.5v-1l-1-.5zm140.72.25.24 1.5 1.66 2v-1.25l-1.9-2.24zm22.34 0 .24.75h.24c-.3-.75 0-.3-.48-.75zm15.93.5c-.08 1.28.49 1.68 1.19 2.74.16-.16.32-.33.47-.5-.43-1.16-.42-1.81-1.66-2.24zm24.48 0-1 1.25 1.19 3.24a2.28 2.28 0 0 0 -2.61.74c.08.17.15.34.23.5a7.73 7.73 0 0 1 4.76 2.74l1.66-.25c.11-1.49-.18-3.53.48-4.73l1.19.5c-.32.9-.59.49 0 1.24a2.14 2.14 0 0 0 2.14-.25l-1.19-3c-2.21-.79-4.52-1.84-6.66-.74 0-.9.53-.93-.24-1.25zm35.9 0c.15.91.09.76.47 1.25h.24c-.25-.91-.19-.74-.71-1.25zm-284.3.25.48.5zm89.93 0c-.07.42-.15.83-.23 1.25l.95-.75-.24-.5zm-105.06.25c.43.51 0 .17.71.5-.43-.51 0-.18-.71-.5zm61.56 0-.23 1.49.71.25 2.14-.25.24-.49-.48-.75zm59.19 0c0 1 .14 1.41 1.43 1.74l.24-.25v-.74l-.48-.5zm103.17 0-.24.5v.25h.95l.24-.5zm-173.29.25.48 1.24.47-.25v-.24l-.24-.5zm134.3 0c-.07.17-.16.33-.23.5s.16.16.23.25l.48-.5v-.25zm96.51 0-1.42 1.74a3.51 3.51 0 0 0 .23 3.74h1c1-.69 1.73-.93 2.38-2a2.33 2.33 0 0 1 -.24-2.74l-.71-.75zm3.33 0c-.16.41-.32.83-.47 1.24.15.09.31.17.47.25h.48c.07-.33.15-.66.23-1l-.71-.5zm-283.34.25.71 1 .24-.74zm276.68 0 .48.25zm-132.2.25-1.66 1.49.23 3.49 1-.75c.4-1.24.8-2.49 1.19-3.74l-.71-.49zm-148.57.25-.47.24.24 1.25 1.42.75.95-.5zm50.87 0v.75h.72v-.25l-.72-.49zm209 0 .95 1h.24l.47-.5-.24-.49zm8.79 0c.25.56.32.92-.71 1.49-.72.25-.64.17-1.19-.25zm-272.41.49h.47c-.33.48 0 .15-.48.5zm145.71 0c.1 1 .08 1 .48 1.5h.24v-.75l-.72-.74zm89.38 0-.71.75h.71l.48-.75zm58.95.75-.71 1.5 1.9-.5v-.49l-.24-.5zm-12.6.25c-.56.84-.48.14-.23 1l.71-.75zm-132.21.26-1 1.5a2.94 2.94 0 0 0 .48 3.73l1.42-1.24c-1.59-.87-.78-2.65-.24-4zm-40.65 2.24c0-1.13 0-1.43-.47-2h-.24l-.24 3h.48l1.66.75.48-.25v-1l-.48-.5zm97.7-2-.24 1.25c.53-.52.45-.35.72-1.25zm-153.08.25c.38.64.29.6.95 1l1 .24v-.73h-.48l-1.42-.5zm202 .25-.24 1c.24-.24.48-.49.71-.74l-.47-.25zm9.74 0c-.08.16-.16.33-.23.5l1.18-.25zm7.13 0h1.19c-.08.16-.16.33-.23.5l-.48.25zm-128.07.26-.24.25 1 1h.48c.16-.25.31-.5.47-.74l-.24-.51zm49 0v1.49h.24v-.49c.09-.72.26-.41-.24-1zm39.69 0c-.19.94.93 2 0 3.24l-2.14-1.75c-.6.41-.57.31-.95 1-.62 1.22-.42 2.93-.23 4.48 4.73-.53 8.07 2.86 11.41 4.74l1-.5c-.33-.77-.37-.63-.24-1.5l1.66-.49c0 1-.28.54.48 1.24a6.43 6.43 0 0 0 4-4.73h2.38c-.4-.67-.8-1.33-1.19-2l-1.67.25c.07-1.09.39-.88-.23-1.49-1.78-.77-3.32.44-5 .75-.53-.91-.85-1.82-1.91-2.25l.24 3.74h-.24a7.79 7.79 0 0 1 -3.09-1.49c-.31-1-.63-2-1-3l-1.19.25c-.07.49-.16 1-.23 1.49a2.65 2.65 0 0 0 -1.91-2zm27.58.5-1.9.24a4.07 4.07 0 0 0 -.24 2.5l.47.24 1.67-1.74zm-70.84.24c.46.76.05.41 1 .75zm59.43 0-.24.5.24.25c.16-.08.32-.16.47-.25zm80.34 0 .24.75.48-.5zm-48 .5-.72 2.5 1.19-.26v-.48c0-1 .46-1.07-.47-1.75zm49 0 .72.5c-.43-.51 0-.18-.72-.5zm-277.87.25c-1 .79-1.73 1.62-2.86 1.5l.72 1 3.56.5v-.74c-.47-.28.24-.91 0-2zm2.14 0c.15.17.31.33.47.5-.24-.18-.4-.34-.55-.51zm187.78 0 .48.25zm-51.1.25c.11.89-.36.34.47 1l1.67.5-.82-1.24zm149.27 0h1.67v1h-.72c-.6-.41-.57-.31-1-1zm-351.17.26-.23.25.23.5.48-.5zm164.73 0c-.53.91-.58 1.1-1.66 1.49 0 1.83-.32 3.08 0 3.74 1.48-.67 2.73-1.61 2.14-3.74h1.9c-.38-1.36-.74-1.48-2.38-1.49zm64.18 0v2.49h.24l1.19-.74.24-1.25-.48-.5zm54.92 0c.07.17.15.33.23.5-.08-.17-.16-.33-.23-.5zm16.87 0c-.79.56-1.13.64-1.66 1.49.39.34.79.67 1.19 1 .59.14.77-.27 1 1l-1.19.25c.77.94 1.49 1 2.85.75l.48-1.75a8.77 8.77 0 0 0 -1.9-2.74zm38 0c.46.76 0 .4 1 .75v-.25zm-283.34.25c.37 1 0 .61 1 1-.39-1.07.02-.63-.97-1.02zm57.76 0v.75l.48.49.47-.49c-.15-.25-.31-.5-.47-.75zm41.6 0 .71.5zm-127.89.25.48 2h-.24l-1.9-.74-.47.49v.25c.83 1 .77 1.6 1.42 2.74a6.74 6.74 0 0 0 3.8.5l.24-.25-1.42-4zm208.24.25a6 6 0 0 0 -1.43 2.74h.71c.87-.67 1.63-1.79.75-2.76zm107 0a3.61 3.61 0 0 0 .95 3l1.43-.5.24-1a5.74 5.74 0 0 0 -2.62-1.49zm-86.52.25c.08.16.16.33.23.49-.07-.16-.15-.33-.23-.49zm31.37.25v.75l.72.25c-.32-1 0-.52-.72-1zm17.12 0c.11 1.91.59 2.14 1.9 2.74l1.19-.75c-.24-.67-.48-1.33-.71-2zm-246.74.24a11.4 11.4 0 0 1 .24 3.49l1.9-.74c.15 1.4.12 1.15.95 1.74l1.43-.75-.24 1 2.14-1c-1.45-1.82-4.5-2.54-6.43-3.76zm151.66 0-1.91 1.75v.25h.24a3.7 3.7 0 0 0 2.14-1.74zm104.11 0 .48.26zm-294.52.26c.43.5 0 .17.72.49l-.71-.49zm37.09.24-.72 1c.7-.4 1-.28.72-1zm105.3 0c.44.87.2.67 1.19 1l-.48-1zm39.7 0a2.39 2.39 0 0 0 1.42 2.25l.48-.5-.24-1zm54 0 .23.5zm15.45 0-.48 1h.24l.71-.75c-.16-.08-.32-.16-.47-.25zm-271 .25-.71 1v.25h1.43l1.66-1v-.25zm291.67 0-.24.5c.49-.22.26 0 .24-.5zm-147.38.25v3.24l2.14 3.74a5.05 5.05 0 0 0 3.09-1l-.24-2.24c-2.05-.49-1.83-2.55-3.56-3.49zm168.3 0-.48.75c.91-.33.49 0 .95-.75zm-62.52.25.24.5zm66.8.25c-1.6.78-4.5 0-4.05 2.74l2.86 1-1.71 3.27.95 1.24a10.76 10.76 0 0 1 4-3.48c-.35-1.58-1.11-1.94-1.9-3 .24-.49.48-1 .71-1.49l-.95-.25zm-247.74.23c.15.17.31.33.47.5-.32-.48-.01-.15-.47-.5zm130 .25-.24.5c.43-.34.36 0 .24-.5zm74.64 0c-1.72 1.39-6.38 4.65-6.18 7l2.62 1.74-.24.5c-1.24.43-1.22.51-1.19 2.24.72 1.72 1.43 1.7 1.19 3.24l7.61-1.25c1.9-1.08 6.2-6.21 6.65-8.72a11.48 11.48 0 0 0 -3.09-.74l.24 1.24c-1.85-.61-2.15-2.24-3.57-3.24v1c-.79-.91-1.58-1.83-2.38-2.74l-1.66-.25zm-253.39.25-.48.5 2.62 1.24v.25l-1.19.75.24 1 .71.25 1.9-1.75-.24-1zm214.41 0-1.43 1 4 2.25c.66-.56.58-.28.72-1.5l-1.12-1.47h-.48l-1.66-.25zm-178 .25-.48.5.48.49h.23l.48-1zm-43.27.25 1 1 .48-.5-.24-.49zm254.83 0-4.52 3-.24-.25v-1l1.19-1v-.25l-.24-.24h-.95a8 8 0 0 0 -1.9 2.74c-3-.63-5.7 2.31-6.66 4.73l.72 1.5h.23l4-1.25a3.4 3.4 0 0 0 -.24-2.49 6.81 6.81 0 0 1 5.46-.25c1.37-.89 4.47-3.23 3.09-5.23zm14.49.25a1.83 1.83 0 0 0 .24 1l.48-.25v-.22l-.72-.49zm25.91 0-.71.74.24.5a2.64 2.64 0 0 1 1.9 1.5l.71-.25.48-1.25-.24-.71-.71-.25-1.67-.24zm-269.08.24a1.75 1.75 0 0 0 -.24 1.75l-1.9-.75a2.27 2.27 0 0 0 2.14 1.5c.21-.9.56-.74 1.19-1.75zm236 0 .24.5zm-35.65.5c.42.78-.08.72.71.5zm90.33.25c-.19 1.58.64 2.27 1.66 3.24l1.66-.25.24-.49-.24-1c-1.77-.32-1.86-1-3.33-1.5zm-310.69.5-.23.25c.15.17.31.33.47.5h.23v-.71zm7.13 0c-.71.48-1.4.48-1.9 1.25v1.79l-.95-.25.72.75c.57-.09 2.21 1.09 4 1.25.16-.17.31-.34.47-.5l-.24-2.74h2.24l-.23-.5a35.75 35.75 0 0 1 -4.08-1.01zm-29.23.25v.79l.47.5.71-.25.24-.5-.24-.5zm44.45.25-.48.75v.25h1l.48-.5zm308.78 0-.24.5h.71c-.16-.17-.32-.33-.47-.5zm-289.26.54a5.69 5.69 0 0 0 0 3.49l.47.25.72-.5.47-1.75zm259.1 0-.71.75.47.25.48-1zm-177.81.25-.23.25.95.74 1-.74v-.25zm85.1 0c.15.9.1.75.48 1.24l.24-1.24zm-19.73.25.48 1zm24.72 0c.25 1.23.17.93 1 1.49l.48-.5-.24-1zm-195.39.5a3.35 3.35 0 0 0 -.71.74l-.24.75.95.75a6.37 6.37 0 0 0 3.8-1l-.71-.5zm284.06 0 .71 1c-.32-.85-.14-.52-.71-1zm-301.17.24-.48 1.25c1.77 1.31.66 2.1 2.14 3.49h.48a3.5 3.5 0 0 0 .71-2.24h1.19l-1-1.25-3.09-1.25zm-4 .25.95 1.25 1.19-.25-.47-.75zm303.32 0c.15.25.31.5.47.75l.48-.5-1-.25zm-112.18.21-.24 1h.95zm115.76 0c.07 1.78.27 1.68 1.43 2.24l.47-1c-1-.52-.73-.88-1.9-1.25zm21.4 0v1h.23l.48-1zm-329.53.3c-.32.42-.64.83-.95 1.25h2.14v-.75l-.48-.5zm73.21.25c.49.55.33.47 1.19.75v-.25zm143.1 0 .95.75v-.25zm19 0-.47.25c.43.51 0 .18.71.5zm-102.68.25c.32 1 .23.74.95 1.25h.23v-.25c-.47-.77-.23-.65-1.18-1zm-84.39.25.48.5c-.33-.48 0-.15-.48-.5zm234.85.25c.33.48 0 .15.48.5zm-287.86.25v.74l.72-.74zm194.92.25.24 3.23.71.26 1.19.24c.16-.24.32-.5.47-.74a3.72 3.72 0 0 0 -2.61-3zm-179.2.2-.47 1.24.71.25 1.42.25c-.24-1.1-.15-1-.95-1.5zm13.79 0-.24.74.24.25 2.37-.25v-.25c-1.48.12-1.38.14-2.37-.49zm22.58 0a2.28 2.28 0 0 0 -.71 1.24h.47l1.67.25c-.24-1-.1-.75-.72-1.25zm4.28 0c.4.79-.12.28.71.49zm220.83 0-.24.49.47-.49zm44.92.24-.71.25c.05 1 .12.83-.71 1.5.08.17.16.33.23.5 1.19 0 1 .22 1.67-.25l1.9-1.5v-.25l-.24-.25zm-46.59.25v.75l-3.09.5c-.52 1.29-.64 1.58-1.19 2.74h2.14c1.91-.46 2.23-1.76 2.86-3.49zm-280.73.25.48.5zm284.3 0-.24.5v.25h.71zm39.22 0-.24 1 .95-.75v-.25zm-297.37.25h-1.23a2.66 2.66 0 0 0 1.19 2l.48-.5a2.54 2.54 0 0 1 -.46-1.5zm281.44.25c-.07.17-.16.33-.23.5l.47-.5zm-307.35.5-.71.5.24.5h1.15l.48-.25v-.25l-1.19-.5zm282.87 0c-1 .86-1.82 1-1.43 2.74 1.64-.13 1.84-.41 2.86 0-.34-.48 0-.15-.48-.5.49-.84.61-.72.48-1.74zm25.43 0c-.07.17-.15.33-.23.5l.71.25v-.75zm-300.22.25 1.43 1.49h.71l-.47-1zm49.92.25-.71.25v.25h2.39c-.07-.17-.15-.34-.23-.5zm-42.79.5c-.79 1.18-.93 2-2.37 2v1l.71 1 1.9-1 .48-2.49zm6.18 0-2.37 1.74v.75h.95v-1.5c1.47.42 2.19 1.49 2.37 3.24-1.07.35-.85.13-1.19 1.25a4 4 0 0 0 4-.5l.71-3.49-1.43.25-.24-1.49c-.67.46-1.35-.09-2.85-.25zm264.33.74-.24 1h.2l.48-1zm4.28 0-.71.25c.08.17.16.33.23.5l1.67.25v-.75h-.51l-.71-.25zm-281.92.25c-.16.25-.32.5-.47.75h.47a7.73 7.73 0 0 0 5.47 3.24l-.24-.5c-2.08-1.09-2.32-3.14-5.23-3.49zm15.21 0 .24.75h-.24zm237.47.5.72.75h.71v-.25l-.24-.5zm-261.95.25-.24 1.5.24.24 1.43-.24v-.25l-.24-.5-.71.75c-.1-1-.08-1-.48-1.5zm208.47 0v.75c.16-.17.32-.33.47-.5zm58 .25h.71v.25c-.45.67-.39.63-1.19 1zm9.27 0v.75l.71-.5zm5.94.25c-4.58 1.9-8.18 1.78-10.46 6 2 .1 2.36 1.17 3.57 1.25.11-1.11.11-1.22.71-1.75l5-1.24c.9-.78.87-2.2 1.9-3v1.5a9 9 0 0 1 3.33.5c.32-.42.64-.83.95-1.25l-.24-1.24-.95-.25c-1 .7-1.12 1.42-1.66-.25l-.47-.25zm-68.22.25c-.83.74-1 .43-1.19 2a10.31 10.31 0 0 1 1.67 1.75c.15-.09.31-.17.47-.25 0-1.93.23-2.3.24-3.24zm10.7 0c.42.78-.08.72.71.5zm-7.85.25v.74l.48-.49zm12.6 0c-1.48 1.48-2.13 1.3-3.57 1.24v1.75h.48c1.62.66 4.11.5 5.47 1.24v1.75l1.19-.75v1.74l-1.19 1.25c2-.24 4.68-2.35 5.7-3.74l-.24-1a2.73 2.73 0 0 0 -.23-.25c-1.52.87-2.33.05-4 .5-.33-2.12-2.1-2.92-3.57-3.74zm8.79 0v.74l.48-.49-.47-.25zm-218.45.25.24 1.49h.24l.48-.25v-1l-.48-.25zm198.49 0-2.14 2v1.24a4.51 4.51 0 0 0 2.85-3.23zm-19.26.25.48.74c-.3-.75 0-.29-.47-.74zm88.91 0-.24.24.47.5h1v-.25c-.48-.39-.33-.32-1.19-.49zm-64.42.24-.71 1c.07.17.15.33.23.5h.24l.95-.25c-.2-1.13 0-.74-.71-1.25zm12.36 0 .24.75.47-.5zm-38.75.5.48.25zm-176.14.75-.47 1.25.71.24v-.49c.31-.68.11-.48-.24-1zm-8.55.5-.48.5.48.49 1-1zm82.48.5-.24 1.74.48.25.24-.25c.07-.58.15-1.16.23-1.74zm-78.21.25c-.15.41-.31.83-.47 1.24l1.19-1v-.24zm8.56.5c.33.47 0 .14.48.49zm211.32.25c.46.34.14 0 .48.49zm-243.88.24-.72.5.72 1 1.42.25v-.75l-.24-.75zm275.73.25.48 1 .71-.5-.24-.5zm-166.63.25-.71 1c.24.5.47 1 .71 1.49a3.41 3.41 0 0 0 1.9-.49l.24-.75-1-1.25zm-78.92.25-.23.5a6.4 6.4 0 0 0 1.18 1.25c.53-.52.45-.35.72-1.25l-1.66-.5zm-25.67.5-.71 1 .95 1.49-.24-1.49 1 .25v-.75zm269.8 0-.72 1 .48.49.71-.24.24-1.25zm-258.39.25.48 1 .71-.75v-.25zm87.24 0-.24.5c.65.32.46.11.95-.25v-.25zm-101.5.25-.24.5h.48zm295.23 0c-.16.25-.32.5-.47.75l.71 1.49.47-.25v-1.49zm-191.11.75v1h.71l-.24-.75-.47-.24zm-78 .24-1.67 1.5 2.62-1zm22.34 0-.24.5c.09-.16.16-.33.24-.5zm50.87 0 1.19 1zm217 0-.48 1h.48a5 5 0 0 0 3.8-.25l-.48-.75a22.74 22.74 0 0 1 -3.32 0zm-23.06 1 .24.5.23-.5zm-61.81.25-1 1v.25h.24l1.19-.75zm-133.58.25-.24.5 1 .25v-.75zm196.1.25-.71.25.24.5h1l.24-.5-.72-.25zm-60.85.75-.24.25.48.49.47-.24zm-2.38.25-1 1h1.43l-.48-1zm95.32.25.71.24zm-229.86.24a1.86 1.86 0 0 0 .24 1h.95c-.39-1.09 0-.73-1.19-1zm145.72.25-.72.75c1 0 1.15-.07 1.67-.5l-1-.25zm43 0 .24 1.75.71.25v-.25zm2.38.25-.24.5c.16.17.32.33.47.5h.51l.24-1zm-60.86.25c.42.6.25.42.95.75zm5.47 0-3.33 1.75c2-.64 2.92.18 4.52-.75l.24-.5v-.25l-.24-.25zm50.63.25c.24.66.48 1.33.71 2l.72.25h.24v-1c-.64-.68-.6-.91-1.67-1.25zm-4.75.25-.48 1.25 1.43-.5-1-.75zm42.79 0 .71 1.25.24-.5-.48-.75zm41.83 0h.71c-.15.33-.31.66-.47 1h-.24zm-340.63.25c.46.38.42.44.71 1-.57-.44-.39-.26-.71-1zm120.28 0v1c.16-.34.32-.67.47-1zm73.69 0-.24.75.48-.5zm23.77 0a8.76 8.76 0 0 1 -3.09 3.49c1.3 2.23 4.64 3.28 6.89 3.49l.48-.5-1-.25c.35-2.62 1.47-2.75 1.9-5l-.48-.49a13.21 13.21 0 0 0 -4.75-.75zm117.19 0-.48.5.24.5h.71l.24-1zm-339.68.25 1.18.25v.5h-1.66v-.5zm126.45.5c.41.61.15.29.72 0zm136 0-1 2h.56a3.06 3.06 0 0 0 3.09-1v-.25l-2.62-.74zm-219.88.49.72 1c-.32-1 0-.52-.71-1zm176.86 0-2.85 1.75v.75l.47.24 3.33-2.74zm37.55.25v.5c.24-.43.22 0 0-.5zm-47.3.75-1.66 1c1.49 0 1.66-.15 1.66-1zm-123.61.25v1l.48-.5c-.16-.17-.32-.33-.47-.5zm175 .25-.24.5.24.25.47-.25zm-58 .25v1l-1.67-.24v.75l.48.74h1.19l1-1v-.26c-.43-.53-.32-.6-1-1zm-190.41.25a6.13 6.13 0 0 0 -1.18 1.25 3.43 3.43 0 0 0 2.13-1.25zm208 0 .23.5c-.08-.17-.15-.34-.23-.5zm-218.65.74a2 2 0 0 0 .23 1.75l1.43.5v-1c-.63-.68-.6-.9-1.66-1.24zm6.89 0-.48.75v.25l.95-.49zm80.11.26.23 1.74a2.92 2.92 0 0 0 2.62-1v-.25zm22.34.25-1.66 2.24a3.74 3.74 0 0 0 3.8 1l-.24-1.74-1.24-1.5zm-118.38.24 2.38 1v.75l-.24.25h-1.19c-.05-1.45.43-1.12-1-1.5v-.5zm271.23.25-.72.25.24.75.71.25 1.19.25.71-1c-.07-.17-.15-.33-.23-.5zm49.68.25c.23.42.47.83.71 1.25l1.19.25c.16-.25.32-.5.47-.75-.15-.25-.31-.5-.47-.75zm-206.33.25-.24.5 1-.5zm204 0v1.5h.24v-.5c.31-.68.1-.48-.24-1zm-3.8.25-1.19.75 1.19 1.49h.23c.87-.26.7-.2 1.19-.74l-.24-.75c-.53-.47-.33-.45-1.18-.75zm-36.14.75-.23.5c.44-.31.13-.23.24-.5zm-41.36.25c-.16.25-.31.5-.47.74v.25l1.19-.49-.71-.5zm-21.39.25-1.9 1.49.24 1.25h.24l4-1v-.75l-.48-.5-2.14-.49zm60.62 0-.72.74v1l1 1.49h.95c-.12-1.76-.57-2.1.24-2.74l-.24-.49zm51.82 0-.48 1.49c.95 1.88 3.9 2.37 4.52 4l-1 5.48h.67l1.19-.5v-1.49c1.4.69 2.89.65 3.8-.5l-.24-.75c-1.42-.33-2.39 0-3.56-.5l1-3.24c-1.7-.49-5.25-2.86-5-4zm-187.79.25c-.5 1.72-.73.43-1.19 2a4.35 4.35 0 0 0 1.66 1.74h.24c.06-1.44 0-3-.71-3.73zm140.72.24-.24 1.5.72.25a3.11 3.11 0 0 0 2.61-.25l-.48-.75zm-274.31.25v1c.16-.17.32-.33.47-.5zm262.19 0 .24.5c-.94.74-2.2.65-2.86 1.75-.08.24-.15.5-.24.74a11.92 11.92 0 0 0 6.19 1.25c.15-.17.31-.33.47-.5-.16-.25-.32-.5-.47-.75l-1.43.25a4.45 4.45 0 0 0 -.71-3l-1.19-.25zm-133.83.25v2.25l.71-.5.24-.5c-.39-1.11-.11-.8-1.05-1.25zm191.36 0c-.6.74-1 .76-1.91 1.25l.72.5 2.14.25v-.25l-.48-1.75zm-285.25.75-.24.5c.49-.22.26 0 .24-.5zm177.8 0-.24 1.25.95-1zm-118.61.25.47.25zm122.18 0v.75l.47-.25-.48-.5zm-88.43.25-1 1h1l.48-.5zm102.45 0-.24.5c.65.32.46.11 1-.25v-.25zm26.62.25c.56.81.25.68 1.19.5v-.25zm-145.23.25c1.08 1.54 1.93 3.24 3.56 4.23l.48-.25-.24-1.74c-1.64.17-2.13-1.51-3.81-2.24zm13.31.25c0 .76-.23.35.24 1h.23l.24-.74v-.25zm142.38 0-.47.25c.16.33.32.66.47 1l.72.25c.89-.47 1.06-.39 1.42-1.49zm-38.74.25-.24.74c.49-.57.27-.09.23-.74zm-183.75.49-.24.5c.65.33.46.11 1-.25zm94.37 0 .48 1.25h.23v-.25zm118.62 0-.24.5.71-.5zm-220.6.25c-.31.42-.63.83-.95 1.25l1.67-1.25zm5.94 0c-.07.17-.15.34-.23.5.16-.16.31-.33.47-.5zm86.29 0c-.16.42-.32.83-.47 1.25.31-.42.63-.83 1-1.25zm207 0c0 .83-.22.58.24 1.25l.24-.5c-.3-.75 0-.3-.48-.75zm-135.49.25.24 1.5 1 .25.24-.5zm-74.4.25c-.24.75-.48 1.5-.71 2.24.79.94 1 1.55 2.37 1.25a6.5 6.5 0 0 0 -1-3.49zm85.1 0-3.33 2a6.08 6.08 0 0 1 3.57 1 6.18 6.18 0 0 1 -.48-1.49l2.14-1v-.25l-1.9-.25zm17.35 0c.33.48 0 .15.48.5zm-231.05.25-.24.5.48-.5zm279.78 0c-.24.33-.48.66-.71 1 .15.33.31.66.47 1 1-.05 1.15-.06 1.67-.49l-1.43-1.5zm23.77 0 .48.25zm-4.52.25v1.49c1.89.1 2.94-.07 3.81-1h-.48c-1.36-.57-2-.12-3.32-.5zm-27.09.25c.42.94.38.93 1.42 1.24l-.24-1-1.18-.25zm10 0 1.43 1.74.47-.25v-.25zm8.79 0 .48.25-.47-.25zm19.26 0 .71.5zm30.19 0c.16.16.32.33.47.5-.15-.17-.31-.34-.47-.5zm-230.81.25c.08 2 0 1.8-.95 3l1.66 1.24 1.43-.74c.07-.25.15-.5.23-.75a2.63 2.63 0 0 0 -2.37-2.74zm-72.5.25-.48.5c1 0 .93.21 1.66-.5zm179.94 0-.72.74v.25l1.67-.25zm1.42 0c.43.51 0 .17.72.5zm52.3 0c.49.55.33.47 1.19.74v-.24zm18.07.25c-.72.74-1.43 1.49-2.14 2.24.07.17.16.33.23.5a4.28 4.28 0 0 0 2.62-2.49v-.25zm-220.12.25-.71 1 1.19-.25v-.74zm265.76 0-.95.74v.75l.23.25 1.67-.25-.48-1.49zm-125 .49c0 1.45-.11 1.33.95 1.75v-.75zm98.41 0a1.94 1.94 0 0 0 1.43 1l.24-.5-.24-.5zm8.8 0c.45.61.15.41.95.75zm25.19 0c.46.61.16.41 1 .75v-.25zm-22.34.5c.24.42.48.83.71 1.25l.48-.25v-.25l-.24-.75zm-117.79.25-.48 4.24h1.67a5.88 5.88 0 0 0 2.37-1.75l-.24-2h-.71a2.33 2.33 0 0 1 -2.14.5c-.16-.33-.32-.67-.47-1zm104.82 0 .48.75.24-.25zm-144 .25-.24.5.24.25c.15-.17.31-.33.47-.5v-.25zm-36.85.25.48 1h.23l.24-.5v-.25zm147.85 0c.31 1 .13.78 1 1.25-.3-1.05-.13-.79-1-1.25zm-170.67.25-1 .5v1.24l.48 1.25a5.58 5.58 0 0 0 3.32-1.5l-.71-1-2.14-.5zm182.08 0 .24.75h.24c-.3-.76 0-.3-.48-.75zm-5.23.5c.15 1.27.37 1.91-.23 2.74l-1-.5-.24 3.49-1.43-.5.48 1c1.79.32 3 .57 3.56 2.24l1.43-.25.24-.75c.28-1-.18-1.38-.48-2.49h.48c1.84-.62 2.72 1.28 3.8 2.24.86-.16.72-.1 1.19-.49l-3.33-3.74a2.09 2.09 0 0 0 1.43-1.25l-.24-.5a35.71 35.71 0 0 1 -5.71-1.24zm-179.7.25.24.5c-.11-.24.19-.17-.24-.5zm212.27 0v1.24l.71-.25.24-.49-1-.5zm-240.8.25c-.15.33-.31.66-.47 1h.24c.57-.47.38-.16.71-1zm54.44 0v.74h.47zm1.43 0c-.69 1.27-1.62 1.39-2.38 2.49.41 1.46.5 2.49 1.9 3 .22-3 .68-3.3 2.14-5.23zm161.87 0a2.58 2.58 0 0 0 -.47 1.49c.52 1.25.77 2.06 2.14 2.49-.22-2.33 1-2.49.71-3.73zm29.72.25-.24.74 1.19.25-.48-1zm15.69.49c-.09.25-.16.5-.24.75.48-.45.16 0 .47-.75zm-334.92.25-.48.75c.95-.35.43-.1.72-.75zm299.74.25h.72v.25l-.72.25zm-121.23.25c-.54.5-.79.52-1.18 1.25l-.24.74.71.25 4.76.25v-.74c-1.54-.66-2-1.53-4-1.75zm128.84 0v.75h.48c-.31-.75 0-.3-.48-.75zm-202.76.5-.48 1.49.95-1c-.16-.17-.31-.34-.47-.5zm-2.85.25-.48 1.74h.24l1.66-1v-.25l-1.43-.5zm5.22.25c-.51.46 0 .19-1.18.25v.25l1.18.25.48-.75zm196.59 0a3.91 3.91 0 0 1 1.42 1.49h-.47l-1.19.25-.24-.25a2.41 2.41 0 0 1 .48-1.49zm-309 .25-.24 1 1.19-.49-.24-.5zm324 0 .48 1.49c.16-.16.31-.33.47-.5l-.95-1zm-190.16.25-.24 1.49.71-.5v-.25zm2.38 0-.48 1.74.48-.25zm213.69.25.48.49c-.71 1.17-1.43 2.33-2.14 3.49l-1.19-.5.24-.74c.6-1.36 1.61-1.84 2.61-2.74zm-286.67.49c.29 1.12.32.88.95 1.5l.71-.25.24-.5c-.16-.08-.32-.16-.47-.25zm121.47.75c.16.33.31.67.47 1h1v-.75h-.47zm-183.75.25.24.5c-.1-.23.19-.17-.24-.5zm257.67 0c-.07.17-.16.33-.23.5.42-.33.36 0 .23-.5zm-121.46.25c.58.39.72.5 1.42.25zm12.12 0v1.5h.16l.23-.5c-.16-.34-.31-.67-.47-1zm38.27.25.71.75v-.75zm111.72.5 1.43.25v.25c-1-.1-.93-.09-1.43-.5zm-112.43.25.47.5zm107.68 0c.07.85-.17.53.47 1.24l.48-.74-1-.5zm-110.08.25c0 1.51-.14 1.57.95 2v-1.25l-.95-.74zm-40.65.25c.31.74.15.55.71 1-.31-.95 0-.52-.71-1zm177.33.24.24 1.75 1 .25v-.75c-.42-.75-.42-.83-1.19-1.25zm-189.45.25c.42.9-.13.3.71.75zm158.58.5-.48.25a4.88 4.88 0 0 0 .24 2.74l.71-.25.48-.5-.24-1.49c-.38-.67-.08-.34-.71-.75zm3.8.25.48.75.47-.5zm-245.31.5-.48 1.74 1.67 1.5-2.14 1.74.71.75a5.1 5.1 0 0 1 4-1c.64 1.69 1 2.81 2.86 3.24.15-.25.31-.5.47-.75.7-1.09.48-3.27.24-4.73l-1.43.75a4.82 4.82 0 0 0 -1.9-3.24c-2.13 1.05-1.5.31-4 0zm94.61 0 .71 1h.24c-.37-1 0-.61-.95-1zm175.66 0c.24.33.48.66.71 1h.24v-.25l-1-.75zm-196.82.25-.71.75.71.24c.58-.47.38-.16.71-1zm15.69 0c.54.38.29.45.95.25zm2.38 0c.08.25.16.5.23.75h.24c-.3-.76 0-.3-.47-.75zm-76.78.5-.48.25.48.49h.71v-.25zm4.75 0-.24 1 .48-1zm55.39.25.47 1.49h.95c-.37-1.12-.54-1-1.42-1.49zm181.84 0c-.8.61-1.2.72-1.66 1.74a1.87 1.87 0 0 0 .47 2l1.67-.25 1.66-2.49-.71-.5-1.43-.49zm15.69 0-.71 1 1.42-.75v-.24zm-185.71.24c-.09 1.15.32.73 0 1.75l-2.14.75.48.74 1.19.75 1.66-.5c-.45-.63-.41 0-.24-.74a4.09 4.09 0 0 0 .48-2l-.72-.5zm165.44.5v1h.48c-.22-.91 0-.51-.48-1zm-276.45 1 .24.5c-.1-.23.19-.17-.24-.5zm20.68 1c-.16.41-.31.83-.47 1.24h.24c.52-.51.44-.34.71-1.24zm16.4 0c-.07.41-.15.83-.23 1.24h.23l.72-.74zm-24 .25-.24 1h.71l1.19-.74zm279.06 0c.4.61.15.29.72 0zm-291.19.25c-.08.16-.16.33-.23.49.49-.21.26 0 .23-.49zm20.45.49-.48 1.5c.87-.27.7-.2 1.19-.75-.42-.89.12-.29-.71-.75zm183 .25-.95 1.5 1.43-1.25zm74.4 0c.44.77-.14.57.71.5-.08-.16-.15-.33-.23-.5zm-278.83.5.24.5c-.1-.23.19-.17-.24-.5zm224.63 0 .72 1zm-226.53.75-.24 1 .48.25 1.19.26.23-.51-.71-1zm111 0c.16.33.32.66.47 1l.24-.24v-.3l-.71-.5zm-98.41.25-.71 1c1-.38.58.05.95-1zm10.7.25c.08.16.15.33.23.49-.1-.22.19-.16-.23-.49zm189 .25c.65.67.76.51 1.43 0zm-4.51.49v.75c.15.09.31.17.47.25l1.19-.5-.24-.5zm62.51.26-.23 1.24h.23l.48-.5zm-237.23.74c.43.51 0 .18.72.5zm188 0c-.08 1.14.1 1.08.71 2h.24l1.19-.5v-1.28h-.48l-1.66-.25zm-17.12.22a2.18 2.18 0 0 0 1.67 1v-.25l-.72-.5-1-.25zm39 .75-.24.5c.42-.34.36 0 .24-.5zm-264.56.25c-.37 2.13-1.53 2.42-2.61 3.73.53 1 .65 1.21 1.9 1.5.35-1.69 1.71-2.2 2.85-3v-1.23zm248.17 0c0 .77-.15.29.23 1l.48-.49-.72-.5zm18.54.25c0 1-.22.51.23 1.24l.72-.25c.08-.16.16-.33.23-.49-.47-.4-.33-.33-1.19-.5zm-256 .25-.48 1 1 1h.95v-.25l-.71-.75c-.37-1.09.09-.5-.77-.97zm234.85 0-.24.49.24.25.48-.49v-.25zm16.16 0c.33.48 0 .14.48.49zm-11.88.49v.75h.47c-.15-.25-.31-.5-.47-.75zm-167.35.75c-.33.77-.17 0-.23 1 .35-.54.42-.27.22-.97zm170.91 0-.71 1h1.19l.68-.74v-.25zm5.95 0-1.43 2c.24.5.48 1 .71 1.5h.24l3.8-.75c-.33-1.55-1-1.86-1.9-2.74zm37.55 0c-.15.25-.31.5-.47.75h.95l-.24-.75zm7.61.5-.24.25.24.5.48-.5zm-54.91.5v1.26l.71.24 1-1c-.07-.17-.15-.33-.23-.5zm26.62 0 .72 1h.24v-.24l-1-.75zm26.34.26-.24.5v.24c.87-.26.7-.2 1.19-.74zm-157.84.25c0 1.13 0 1.43.48 2v-1.25zm121 1.24a6.93 6.93 0 0 0 -1 3.49l.72.5 1.18.25c.09-.08.16-.17.24-.25a8.73 8.73 0 0 0 -1.11-3.97zm-53.72.25-.23.25c.07.17.15.33.23.5l.48-.25v-.24zm24 .25.95 1.25.72-.5-.24-.5zm14 .25c.15.25.31.5.47.75l.48-.25-.24-.5zm63.23.5c.51.74.15.67 1 .5zm-169.18.26c.4.62.14.29.71 0zm-148.57.25c.46.34.15 0 .48.5zm147.14 0-.24.5.48-.5zm129.08.25-.48 1 1.19 2 4.75 2.24v-2.24c-.23-.42-.47-.83-.71-1.25a3 3 0 0 0 -2.14.75l-1.42-2.49zm-268.37.25c.08.16.16.33.23.49-.1-.23.2-.16-.23-.49zm257.43 0-.24.74c.5-.57.28-.09.24-.74zm-165.2 1-2.14 1.75v.75a5.35 5.35 0 0 1 1.19 2.24c2.88-.47 3-2.15 2.37-4.24zm-102 .5-.24.75.72-.75zm7.13.25-.47 1.5.71.49 1-1v-.75l-1.19-.25zm97.22.25-.47.25v.5h1l.24-.5v-.25zm196.59 0-.24.5.71.25.48-.25-.24-.5zm-90.33.75c.16.33.32.66.47 1l.24-.75v-.24zm68.22.75-.24.49c.72-.31.29 0 .72-.49zm-68 .74.72.75c-.38-.67-.08-.34-.71-.75zm91.28 0c.21 1.13 0 .74.72 1.25l.71.25.71-.75-.23-.5zm-214.41.25-.23 1.25.71-.25c-.16-.33-.32-.67-.47-1zm109.11 0-.24.25.48.5h.24v-.75zm41.36.25-.24.5c.45-.31.13-.22.24-.5zm-242.93.25c-.14.59.18.5-.72 1zm59.66 0v1h.24zm49.92.25c.4.62.14.29.71 0zm-5.47.75c.43.51 0 .17.72.49-.43-.51 0-.17-.72-.49zm106.73.25-.24.49.48.5.71-.5c-.08-.16-.15-.33-.24-.49zm7.61 0-.24.49c.43-.33.36 0 .24-.49zm25.91.24c.16.17.31.34.47.5zm-150.91.77v.75c.15-.25.31-.5.47-.75zm117.66.5-1.66 1.25.47.5c.64 1.07 1.27 2.15 1.9 3.23h1l1-.74c-.5-.74-2.33-4.08-2.61-4.24zm101.74.25c.08.42.15.83.23 1.25l.48-.25v-.5zm1.42 0 .72 1h.23c-.36-1.05 0-.61-1-1zm-15.45.25-.24.5.48-.5zm-75.83.5.24.5 1.19-.25v-.25zm-24.48.25v.5c.23-.44.22-.06 0-.5zm-79.16 1.25-.71.25v.75l.48.25.71-.75c-.16-.17-.32-.33-.47-.5zm86.06 0-.72 1c-.24.66-.47 1.33-.71 2a5.35 5.35 0 0 0 2.61-1c-.16-.59-.31-1.17-.47-1.75zm-132.88.75-.24.5c.49-.22.26 0 .24-.5zm152.13.5c.33.48 0 .15.47.5-.15-.17-.31-.34-.47-.5zm-15 1c-.09.42-.17.84-.24 1.25a1.33 1.33 0 0 0 1.66-.25l-.24-.5-1.19-.5zm119.56 0 .48 1c-.22-.91 0-.51-.48-1zm-284.3.75-1 .75c-.07.58-.15 1.16-.23 1.74h.47a3.79 3.79 0 0 0 3.81-1.24c-.39-.64-.3-.61-.95-1zm194.92 0v.75h.48zm-27.33.75.47.25zm-147.14 1.5c.15.9.09.75.47 1.24h.24c-.24-1-.09-.75-.71-1.24zm2.61 0-.24 1.24.48-.25.24-.75zm241.51.24c.46.76 0 .41 1 .75v-.75zm-67.51.5c.4.62.14.29.71 0zm-59.42.5-.24 1.75h.24l.47-.25c-.1-1-.08-1-.47-1.5zm-141.91.5c.15.33.31.66.47 1-.16-.34-.32-.67-.47-1zm163.77.5-.47.25 2.14 1 .24-.49-.48-.5-1.43-.25zm-181.13.25v.74h.24l.71-.49v-.25zm51.11 0-.24.5.71.24v-.74zm126 0 .24 1.24a3.65 3.65 0 0 0 3.09.5v-.25l-.71-.75zm-119.31.26c-1 1.11-1.51 1.2-.24 2.24a3.22 3.22 0 0 0 1.42-1.25c-.51-.92-.09-.71-1.18-.99zm137.39 0-.48.74.48.75.71.25h.24v-1.74zm-131.93.25a2.8 2.8 0 0 0 1.43 1.74l.47-.25v-.75l-.47-.5zm123.61 0a2 2 0 0 0 .24 1.24l2.14.75v-.25a3.76 3.76 0 0 0 -2.38-1.79zm76.54 0-.71.74h.71l.48-.74zm-281.44.24h.5c-.44.2-.08.18-.5-.05zm25 0c.15.25.31.5.47.75h.24v-.25zm152.84 0-1.66.5v.25l.71.25 1.66-.25v-.75zm106.25 0c.54.52.25.42 1 .25l-.94-.25zm-257.43.25-.48 1h.24l1.19-1zm41.36 0a4.46 4.46 0 0 0 .24 3.49v-.5a1.53 1.53 0 0 0 .47-1.74c-.25-.91-.19-.73-.71-1.25zm47.07 0c.08.17.15.34.23.5-.1-.23.19-.17-.23-.5zm167.82.75 2.85 1.25-.48-1zm-88.43.25.48.5c-.34-.48 0-.15-.48-.5zm20.44 0v1l.48-.5zm82 0-1.19.75v.25l.72.25 1.18-.75zm-93.18.25c0 1.36.1 1.16-.24 2l2.85-.25.48-.24v-.25l-3.09-1.25zm-182.56.25c-.08.33-.16.66-.23 1 .15-.34.31-.67.47-1zm10.46 0-.24.5c.45-.31.13-.23.24-.5zm184.46 0-.24 1.49.72-.49v-.25c-.3-.76 0-.3-.48-.75zm-190.16.25-.72.5v.5c.87-.27.7-.21 1.19-.75zm149.28 0c-.34.77-.17 0-.24 1h.24c.15-.34.31-.67.47-1zm34.94.25c.16.08.32.16.47.25-.15-.09-.31-.17-.47-.25zm-14.5.25c.47.93-.1.4 1 .74v-.24zm-192.54.25v1.24l.47-.25v-.25c-.3-.75 0-.3-.47-.74zm323.28 0c1.06.34.93.39 1.42 1.24v.25c-1.13-.3-1.5-.66-1.42-1.49zm-292.9.2.47.49c-.33-.48 0-.15-.48-.49zm185.17 0c0 .92-.15 1 1.19 1.24v-.75l-.24-.49zm-157.6.49-.48.25v.25c.62-.28.41-.39.48-.5zm-35.42.25c-1.21 1-3.32 1.4-4.51 2.24a10.45 10.45 0 0 0 -.48 5h.24c1.86-.73 2.13-2 4.51-2.24.88.67.94 1.16 1.91.49l.95-.49c-.7-1.22-1.34-4.34-2.62-5zm54.91 0-.24.75a1.74 1.74 0 0 0 .72-.75zm118.14 0 .24 1h.24c.16-.33.31-.66.47-1zm-92.94.5-.24.5.48-.5zm-89.62.5a2.26 2.26 0 0 0 .24 1.74h.71l.24-.5-.24-1-1-.25zm2.14 0c0 .76-.22.35.24 1h.24l-.24-1zm194.45.5-.72.5.24.49h1l-.48-1zm-13.55.25-.48.25.48.74h1.66l.24-.5-.24-.49zm-159 .49c-.23.34-.47.67-.71 1 .73-.37.76-.28 1.19-1zm-35.65.25 1.42.25v1.25c-1.12-.33-1.11-.33-1.43-1.5zm290.47 0 .48.75.47-.25c-.07-.16-.16-.33-.23-.5zm20 0-.48 1.5h1l.71-.75-.24-.5-.95-.25zm-189.21.25-.24.5c.87-.23.49 0 1-.5zm175.42.25c-.07.25-.16.5-.23.75.32-.53.42-.13.23-.75zm-247.21.25-.24.25.48.5.47-.25zm-53.72.5c.64.55.45.18.71 1.25l-.71.74-1.19-.25-.24-1.24 1.42-.5zm286 0-.24.5c.65.32.46.11.95-.25v-.25zm-246.78.25-.24.5c.42-.34.36 0 .24-.5zm204.19 0a2.93 2.93 0 0 0 1.9 1.49l-.24-.74-.95-.75zm-198.48.25-.95 1.49c.87-.29 1.77-.93.94-1.49zm98.64 0-.71.75a9.06 9.06 0 0 0 1.9 5.73h-1.66c.16.25.32.5.47.75l1.43.24a4.51 4.51 0 0 0 1.9-4c-.68-1.81-1-3.31-3.33-3.49zm152.85 0c-.24.33-.48.66-.71 1l.23 3c1.06-.34 1-.62 1.67-1.24l.71.5a5.22 5.22 0 0 0 2.14 3v.25l-2.38.75.95 1.24c1-.67 2.7-1.37 3.33-2.49.39-.91 1.12-3.41.95-4-.31-1.12-.54-1.08-1.19-1.74-1.77.28-2.1 1.25-3.09.75l-2.62-1zm-229.62.25c-.61 1.5-.62 2.68-1.43 3.73l.24 1.25.47.25.95-.5c.52-1.59 1.08-2.69.72-4.73zm157.83 0-.24.5.72.25h.24v-.25zm39.22 0 .72.25zm23.77.75c.33.47 0 .14.48.49zm-62.27.49c.07.25.15.5.23.75l.72-.75zm21.15 0c.33 1 .34 1.47 1.19 2v-.75c-.4-.42-.8-.83-1.19-1.25zm-171.87.5v1h.48zm237.47 0 .24 2 .48.25.71-.25v-.24zm-310.2.5c1 .38.58 0 1 1h-.48l-1 .25v-.25zm48.49 0-.48.75c1.05-.19.89-.15 1.43-.75zm4 0-.48.75 1.19-.5v-.25zm6.42.25v.75l.71-.75zm224.87 0c.08.16.15.33.23.5l.24-.5zm-209.66.5c-1.47.64-2.74.34-3.33 2h.53c1.88.87 3.42-.73 4.28-1.74v-.25zm148.33 0-1.9.5-.24.74.71 2-.71-.25c.16.66.32 1.33.47 2-1.14 0-1.84-.06-2.37.5-1.18 2.74.92 4.85 2.14 6h1.9a4.5 4.5 0 0 1 .47-4.24c1.62-.08 3 .09 4-1.24-.08-.33-.15-.67-.23-1-1.39.14-1.16.35-2.14.75-.27-1.11-1-4.94-1.67-5.48l-.47-.25zm32.56 0c-.07.25-.16.5-.23.74.15.09.31.17.47.25l.48-.49-.71-.5zm-217.69.25a5 5 0 0 1 .23 3.74 5.47 5.47 0 0 0 3.09-3.49zm31.14 0c.15.25.31.49.47.74l.71-.49zm-22.82.25c-2.8 1.94-4.47 4.47-6.42 7.22v.25c1.32-.35 2.18-1.26 3.56-.75l1.19 1-.71 2 .24.25 1.18-.25c2.32-1.15 2-3.63 1.43-6l2.14-2v-.75c-.4-.24-.79-.49-1.19-.75l-1.42-.24zm11.88.24-.24.75 1-.5zm8.56 0-.24.75c.33-.53.43-.13.24-.75zm25.2 0c.07.5.15 1 .23 1.5h.24c-.07-1.06 0-1-.47-1.5zm127.64.25c-.15.42-.31.84-.47 1.25l1.19.25c.07-.25.15-.5.23-.75l-1-.75zm-64.65 4.24h1.42l.95-1.24c-.31-.84-.63-1.67-.95-2.5l-1.19-.25-.95.75a5 5 0 0 1 .68 3.24zm-60.14-3.49-.95.75c.08.25.16.5.23.75l1.67-1v-.25l-1-.25zm-73.45.75-.24.75c.48-.45.17 0 .47-.75zm231.76 0-.72.5c.37 1.15.29.93 1.43 1.24v-1a1.71 1.71 0 0 0 -.71-.75zm41.12 0-.24.5.72.75h.23c-.23-1-.09-.75-.71-1.25zm-76.54.25-.48.25.24 1h1.19l.48-.75v-.25l-.24-.25zm27.1.5-.24.5 1.19.25.71-.5zm-14.74.75c-.31 1-.44 1.24.24 2.24l.47-.25v-2zm-132.16.49-.24.75c.33-.53.43-.13.24-.75zm112 0c.06 1.32-.06 1.2.71 1.75l1 .25v-.25a3.17 3.17 0 0 0 -1.66-1.75zm44 .75.48.25zm-6.65.5c.07.25.16.5.23.75l.48-.25zm20.68.25-.24 1.24-1.43-.74a3.28 3.28 0 0 1 -1.9 2.49c.12 2 .78 2.3 1.19 4l-.24.25h-1.9l1-1.74-1-.75c-1.26 1-1.43 3.11-.95 5.24l.48.25 2.13-1.5c-.07.5-.15 1-.23 1.5l1.18-1c.62-2.07 1.39-4.71 1-7.23 1.18-.14.92 0 1.42-.75 0-.93.52-.65-.47-1.24zm-53 .25-.71 1c-.56 1.08.61 2 1.66 2.25v-.5a2.12 2.12 0 0 0 -1-2.74zm37.79.25c-.08.16-.15.33-.24.49.43-.33.37 0 .24-.49zm-23.05.25a1.92 1.92 0 0 0 .23 1.24l.48-.25v-.25c-.38-.67-.08-.34-.71-.74zm91 0c.72.5.61.24.95 1.24h-1.19l-.48-.5.24-.5zm-71.31.24-.48.25v.75l1.19-.5-.24-.5zm-22.83 1-.23.25 1.42 1.25.48-.25v-.25l-.24-.75-1.42-.25zm23.78 0-.24.5c.44-.31.13-.22.24-.5zm10 0c.58.67.32.38.95.5zm-192.07.5.24.5c-.1-.23.19-.17-.24-.5zm163.07 0c.58.66.32.38.95.5zm22.11 0-.24.5c.16-.17.32-.33.47-.5zm17.35 0-.24.5.71.25.24-.75zm-54.2.25c.46.6.15.4.95.75a2 2 0 0 0 -.95-.75zm91.28 0-.24.5.72.25v-.75zm1.43 0c.4.62.14.29.71 0zm-213.7.25-.48 1.24.48.5.48-.25c-.08-1 0-1-.48-1.49zm137.63.25.71.75h.72v-.25l-.24-.5zm16.64 0c-.47.5-1 1-1.43 1.49v.25l1.43.25v2.49h1.19c1.3-.3 1.41-.69 2.14-1.49a3.19 3.19 0 0 0 -3.33-3zm5 0v2.74l.24.25.48-1c-.43-.69-.23-.76.23-1.74zm60.14 0c-.16.5-.32 1-.47 1.49h.23l.72-.5c.08-.24.15-.49.24-.74zm-57.76.25-1 1 .24.5h.23l1.19-1-.71-.5zm15.45.25a8.88 8.88 0 0 0 -.24 10.21c-3.16.11-4.19 2.7-5.46 4.74.07.16.15.33.23.49 1.36-.34 1.53-.94 2.62-1.49l-.48 1.49c.8 1.08 1.59 2.16 2.38 3.25l.24 4.73h.24l.95-.5c.39-1.41.79-2.82 1.18-4.23-.74 0-.86.45-1.18-.5s-.8-1.83-1.19-2.75c.85-.41.56-.06.95-1-.77-.91-2.57-1.86-.95-1.75l.24-1.74.71.25 4 4.48-1 1.75a11.45 11.45 0 0 1 2.37 2.74v.25a3 3 0 0 0 -2.61 1c1.42-.23 2.61-.74 3.57 0a5.46 5.46 0 0 0 -1 3h1c.31-.42.63-.83.95-1.25l-.24-2.74c.7-1.37 2.2-1.64 3.56-2.24v-.75c-.71-.31-.43-.32-1.18-.25l-.48-5.23h-.24l-1.66 1.24c-.24-1.08-.48-2.16-.71-3.24h-.72c-.48.84-.61.72-.47 1.75l-.71 1.24h-.48v-1.24l-2.38-.25c-.15-1.22-.46-.65-1.18-1.75a2.28 2.28 0 0 1 -.24-2h.24l1.66 1.5.71-.25a11.92 11.92 0 0 0 -2.14-3.74h-.23l-.72 1.25-.71-.5c.19-2 1.32-4.2.71-6zm48.26.25-2.15 1.24v.5a14.33 14.33 0 0 1 4.52.5l-.24-.75zm-262.67.24-.71 1.25.71.25 1-.75zm119.8 0 .24.5.24-.5zm81.77 0c.46.76 0 .41.95.75v-.25l-.94-.5zm53.25 0v.5c.23-.43.22 0 0-.5zm-86.53.25-1.42.5a2.66 2.66 0 0 0 1 3l.71-.5.24-2.49s.14-.21-.47-.5zm6.42 0c-.16.33-.31.67-.47 1l1-.75c-.16-.08-.32-.16-.47-.25zm-163.3.25-.48.75.24 1.25a6.43 6.43 0 0 0 -3.8 1l-.48 2.5 3.09-2.25.48.5c-.36 1.26-.76.9-.24 2l2.85.75 1.19-1-.71-.5-1.66-.25c.07-.25.15-.5.23-.75 1.21-1.11 1.67-1.93 3.81-1.5.08.42.16.83.23 1.25l.72-.25 1.9-2.24v-.25l-2.62 1 .48-2zm106.49.25.48.25zm42.55.25.24 1 .48.25c.15-.17.31-.34.47-.5l-.71-.5zm-181.61.5h.48c-.41.24-.05.23-.47 0zm140.49 0c.4.62.14.29.71 0zm83.43 0-.24.5v.25h.72zm-212.03.5v.74l.71.25v-1zm30.43.25v.49c.23-.43.21-.05 0-.49zm1.66.25.95 1.24c-.31-1-.13-.78-.95-1.24zm9.51 0 .47.24zm-18.31.74c-.07.17-.15.34-.23.5.64.33.45.11.95-.25l-.71-.25zm12.84.25-.24.25.48.5c.16-.17.32-.33.47-.5zm163.54 0c.12 1.36-.1 1.09 1 1.5-.24-1.11-.15-1-1-1.5zm5.71 0v1h.24zm19.25 0v.5c.24-.43.22-.05 0-.5zm1.19 0c-.32 1.65.2 3.06 2.14 3.24l-.24-.5c-1.08-.69-.94-2-1.9-2.74zm-42.31.25-.24.75 1 .75v-.75a1.77 1.77 0 0 0 -.71-.75zm19.73 0-.24.5c.16-.17.32-.33.47-.5zm7.37 0-2.14.75.23.5c1.34.13 2 .34 2.86-.25h.47l-.24-1zm66.55 0 1.43.25v.25h-1.43zm-192.3.5a1.42 1.42 0 0 0 1.66.25zm3.09.25-.24.5.48-.5zm131.21 0v.75l.24-.75zm11.41 0c-.16.58-.32 1.16-.47 1.74l2.61 2.5 1.9-.5a2 2 0 0 0 -.23-1.75h-2.62l-.24-2zm31.62 0-.24.5.48-.5zm-251 .25-.24.75c.63-.44.33 0 .24-.75zm175.9.5v1h.24zm18.78.5-.24 1.24h.24zm1.66 0c-.15.33-.31.66-.47 1l.24 1.5c.16.08.32.16.47.25h.48l.24-.25c.08-.75.15-1.5.23-2.24zm-17.59.25.24 1.49c1.05-.19.89-.15 1.43-.75l-.71-.5-.95-.24zm77 0 .24.49zm-187.07.49-1 .75v.25a4.35 4.35 0 0 0 2.61.25v-1h-.48l-1.19-.25zm5.47 0-.48.75.48.5c.66-.39.55-.37.95-1zm155.69 0 .48 1zm8.09 0c.18 1.1.14.93.71 1.5h.17c-.23-1.11-.15-1-.94-1.5zm-171.63.25v.5c.23-.43.22-.05 0-.5zm115.53 0 1 .5zm45.16.5c.46 2.75 3 2.71 2.38 5.73l.95-.25.71-.5c0-2.4-.74-3.14-1.66-4.48zm-55.38.25c-.89.89-1.72.76-2.38 2l.47.75 1.91.5c.31-.42.63-.83.95-1.25 0-1.51.14-1.57-.95-2zm9.5 0 .48.75c-.3-.76 0-.3-.48-.75zm20.68 0c.26.91.2.73.72 1.25h.23v-1l-1-.25zm31.38.25c.31 1 .13.78 1 1.24-.32-1-.23-.73-1-1.24zm-222.73.25-.48.25c.68.29.24.18.72-.25zm184 .25c.45.77-.14.56.72.5l-.24-.5zm4.28 0 .72.5zm-195.39.25-.24.25.24.49.47-.49zm1.66 0v.74c.49-.33.39-.28.72-.74zm65.61 0-1.9 1h2.38c-1.26.26-6.24.63-6.42.75l.47.75c2.67.9 7.45 3.83 9.51 0v-2.25zm160.93 0 .95.49zm-24.25.49c-.63.84-1.27 1.67-1.9 2.5l.71.5h1.19l.95-.5a3.56 3.56 0 0 0 -.95-2.5zm-3.09.25v1.25h.24c.16-.17.32-.33.47-.5zm-194.2.25.47.25zm248.16 0 .24.5zm-26.62.25c.23.42.47.83.71 1.25v-1.25zm-175.43 1-.48.75c1-.06 1.15-.07 1.67-.5v-.25zm61.09 0c-.51.44-.58.33-1 1l-.24.74.24.25 1.9-1.49v-.25zm64.42 0 .24 1.74h.23c0-1.09 0-1.23-.47-1.74zm18.3.25-.47.25c.07.41.16.83.23 1.24l.48-.25.24-1.24zm23.06.5a2.22 2.22 0 0 0 1.43 1.49v-.25a2.06 2.06 0 0 0 -1.43-1.24zm-159.74.74c-.47.34-.95.67-1.43 1 .3 2.11 3.7 3.78 5.23 2.74l2.14-.75c-.67-2-3.55-2.81-5.94-3zm123.84 0v.75l2.38 2.24c-.24-1.12-.14-2.14-1-2.74zm10 .25-.48.25.48.75c.16-.17.32-.33.47-.5l-.23-.5zm-189.45.25c.31 1.13.54 1.08 1.19 1.75l2.14-.5-.48-.75zm218.45.25c.27 1.72 1 2.18 2.61 2.49v-.5c.95-1.2-1.38-2-2.61-2zm-223.44.25-.48 1.74 1.19-.24zm53 0v.5c.24-.44.22-.06 0-.5zm199.68 0-.72.75v.25h.48c.89 0 .62.54 1.19-.5zm-34.71.25.24.5zm2.62 0c.07 1.66.2 1.62 1.19 2.24 1-.38.58 0 .95-1l-2.14-1.25zm-36.85.25-.47.25c.43.51 0 .17.71.5v-.75zm51.11 0v.5c.09-.44.08-.08-.14-.5zm-22.82.25v1l.48-.49-.24-.5zm-160.21.5c0 .83-.22.57.24 1.24l.71-.25c-.51-1.04-.1-.61-1.09-.99zm-53.72.74-.48.75 1.19 1 .24-1.5zm43.73 1-.47.75h1v-.75zm8.8 0v.75l.47-.25c-.15-.17-.31-.33-.47-.5zm135.49 0 .24.75h1v-.25c-.47-.4-.33-.32-1.19-.5zm35.42.25-.24.5c.44-.31.13-.22.24-.5zm3.33.25.47.75.24-.75zm-115.29.5v1.49h.24l.71-.49v-.75zm75.83 0a1.9 1.9 0 0 0 .47 2.74c1.37-.27 1.18-.4 1.67-1.5-1.57-.13-1.43-.33-2.14-1.24zm40.88.25-1 1.24 1.43-.74-.48-.5zm-223.91.5.47.25zm113.86.25v.74l1-.5zm-110.54.24-.23.5h.47zm221.78 0v1h-.24zm-201.33.25v.75h.71v-.25zm212.5 0 4.52.25c-.71 1.5-1.42 3-2.14 4.49l-2.85-1c.32-1.71.14-1.51-.24-3.24zm-236 .25c-.39.34-.79.67-1.19 1h.72l1.9-1zm237.23.75c0 .76-.23.35.24 1h.06l-.48-1zm-34.94 1c-.16.25-.32.49-.48.75l.24.49 1.43-.25v-.24zm1.9 0 .24.75.47-.26zm-12.12.25c.43.5 0 .17.71.5zm-7.13.5-.24.49.24.25.47-.5v-.24zm3.09.74-.48.75h.48l.95.25c-.37-1 0-.61-.95-1zm22.34 0c-1.2 1.15-2 2.09-1.66 4.24l1-.25c.51-1.62 1.09-1.55 2.14-2.49l-.24-1-1.19-.5zm-25 .5v.75h.48zm17.59.75-.71 1c.25 1.25-.08.84.95 1.25.42-.84.68-.61 1.19-1.25l.24-.74-.24-.25zm3.57.5v1.74l.47.25c.4-.42.8-.83 1.19-1.25-.08-.25-.16-.49-.23-.74zm-102.21 3c1.17-.13 1.08-.12 1.66-.75l-.48-.75-1.18.25zm132.87-1.5h.72l1.42 1.5v2h-.24c-1.37-.8-1.56-1.91-2.04-3.51zm-31.38 1.5.72.24zm-137.53.2-.24 1.75.48-.25v-.5c.09-.72.27-.41-.24-1zm140 0-.71 1-.72 2.24c1 0 1.89 1 3.33 1l1-2.24-2.85-2zm-2.85 1-.48 1.5 1.43-.75-.24-.5zm-58.24.5c.16.17.32.33.47.5-.33-.48 0-.15-.47-.5zm88 0 2.14.5.24 1.24c-1.13-.55-.43-.72-1.43 0-1-.58-1.1-.58-1-1.74zm-13.31.5c.86.69.66 1 .47 2.24-1-.36-.63-.33-1.19-1v-.24zm10.46 0h.47c-.33.48 0 .15-.47.5zm6.89 0h1.66l1 1.24v.25l-1.67.25-1.19-1 .24-.75zm-87.24.5.48.5zm-114.57.25c-.24 1-.48 2-.71 3l1.66-1.25v-1l-.95-.74zm29.24 0v1.49l.47.25c.83-.46.64-.21 1-1.25l-1.19.5v-1zm125.27 0c.06 1.49.24 1.94 1.19 2.49.47.4.33.32 1.18.5-.1-1.2.19-1.63-.23-2.25a2.7 2.7 0 0 0 -2.14-.74zm-138.4.25-.23 1.49h.71l.24-.75c-.38-.67-.08-.34-.72-.74zm108.16.49v.75c.16-.16.32-.33.47-.5zm73.21.25h.48c-.33.48 0 .15-.48.5zm-80.1.5a3.55 3.55 0 0 0 .47 2.49l1.19-2-.24-.25-1.42-.25zm78.44 0 1.66 1.25v.25h-.23a3.16 3.16 0 0 1 -1.43-1.5zm-25.91.25c-.75.62-.83.36-1.19 1.5a5.83 5.83 0 0 1 3.09-.5v-.25zm15 .25v2a2.73 2.73 0 0 1 -.23.25l-.48-.25v-1.24l.71-.75zm-149.8.26c.81.35.57.45 1.19 0zm169.48 0 .48.75c-.49-.45-.17 0-.48-.75zm-45.64.75.24 1.49.95-.25c-.08-.41-.15-.83-.23-1.24zm-46.11.25-.24 1 .48-1zm-77.73.25-.24.74c.72-.48.25-.08.48-.74zm128.6.74c-.24.5-.48 1-.71 1.5.45-.35.14 0 .47-.5s.44-.3.24-1zm12.12.5-.24.75h.72v-.75zm-168.72.27-.24 1.25.48.25h.24v-1.5zm171.39 0c-.4.33-.8.66-1.19 1l.24.5c2.3.46 2.31 1.12 3.56 2h.24v-1a7.19 7.19 0 0 0 -2.85-2.49zm7.84.25c-.24.33-.48.66-.71 1 .08.16.16.33.23.49l1.67-.24v-.75l-.48-.5zm-184 .25c0 1.37-.07 1.44.71 2l.95.25.24-.25v-1zm27.57 0c-.16.25-.32.5-.47.75h.95c.07-.17.15-.34.23-.5zm140.49 0a2.08 2.08 0 0 0 1.18 1.49l.53-.75-.71-.5zm-83.68.25-.71 1v.25h1.19l.47-.25v-1zm-86.28 1-.24 1h.24c.15-.33.31-.66.47-1zm84.38.75.48.5c.15-.17.31-.33.47-.5zm-69.88.5c.45.75 0 .4.95.75v-.25zm-24.49 1.24.24.5.24-.5zm153.56 0 .48.74h.23v-.24zm45.88.25a13.69 13.69 0 0 1 2.37 2.49l-2.85-.25v-.25l.48-2zm-183.51.25c.43.5 0 .17.71.49-.43-.51 0-.17-.71-.49zm136.44 0 .24.74c.16-.08.32-.16.47-.25zm-6.65.24v.75h.47c-.3-.75 0-.3-.48-.75zm49.2 0 .47.5-.23.25zm-6.65 1.5c-.09.33-.16.66-.24 1l.71-.5zm-5.24.5c0 .83-.22.57.24 1.24l.24-.5c-.3-.75 0-.29-.48-.74zm6 1-.48.25 1.19 1.25h.24c-.24-1.24-.17-.93-.95-1.5zm-147.67.26-.47.25v.5h.95v-.75zm154 .5 1.67.25.24.25-.24.5h-.24zm-205.1.5v.75c.15-.17.31-.33.47-.5zm52.29.5c-1.76 1.22-2.33 3.35-.24 4.73l.48-.25c-.08-1.58-1.11-1.86-1-3l1.19-1.24-.48-.25zm129.08 0-.48 1.25 1.19-.5zm-177.33.25-.24.5zm186.36 0-.48.25v.25c.62-.29.41-.39.48-.5zm-12.13 1 .24 1.24c.53-.51.45-.34.72-1.24zm2.38 2.25 1.19-.25c.78-.41.76-.51 1.19-1.25v-.25l-2.14.25zm13.75 1h.71l-1.42.75.23-.5zm-3.81.75c.59.39.73.5 1.43.25zm-66.55 1.5-.24 1.49h.24l.47-.25.24-.74zm-67.27.25-.72 1v.25l.72.75 1.42-.25v-1l-1.42-.74zm71.07 0 .48.74h.95l-.24-.49zm-123.33.5-.71.75h.71l.48-.75zm-4.51.25c.57.66.35.5.23 1.5l-1.42.25c.31-1.13.54-1.08 1.19-1.75zm94.6 0 .48.25zm-91.75.5c.32.67.55.73.71 0zm38.51 0 .47.25zm86.28.25c.41 1 .57 1 1.43 1.5-.31-1.18-.31-1.17-1.43-1.5zm64.9 0h.71l-.48.75h-.23zm-182.56.5h.95l-.48.5c-.15-.17-.31-.34-.47-.5zm45.64 0-.24.75c.33-.54.43-.14.24-.75zm44.21 0-.24.25.72.5.71.25.24-.5-.24-.5zm23.3.25v1.49l1.18-.25 1-.49c-.15-.25-.31-.5-.47-.75zm-118.62.25-.24.5.48-.5zm38.51 0c-.15 1-.17.81.47 1.49h.24v-1.49zm-7.61 1-.47 1.25 1.9-.5-.48-.75zm19.73 0-.24.5 1-.5zm44.93.25.47.5c-.33-.48 0-.15-.47-.5zm92.47.25c.89.44.88.4 1.18 1.5h-.23l-1.19-1zm-141.91.25-.24 2 .47 1h.48v-2.49l-.48-.5zm-8.32.5c.45.75 0 .4 1 .75zm-20.92.25-.48 1h.24l.71-.75zm40.88 1.74h-1.87l.24 1.25a6.41 6.41 0 0 0 4-.75l.24-1.49-2.62-.25v1.24zm-38.03 0c.38.68.08.35.71.75a1.77 1.77 0 0 0 -.71-.75zm-10 2 1.18.25a6.4 6.4 0 0 1 -2.85 2.74h-.71c.36-2 1-2.12 2.38-3zm121.7 0-.47.74 1.18-.24v-.25a2.73 2.73 0 0 0 -.23-.25zm-84.15.25 1.67.25-.48.74-2.37.75.71-1.49zm39.94 0c-.18 1-.61.79.71 1.24l.24-.75zm-73.21.25c.8.38 0 .79-.48 1.24l-.48-.25.48-.75zm7.13 1.49c.15.25.31.5.47.75zm-2.14.75h.47c-.16.33-.31.66-.47 1l-.24-.5zm-10.22.25h.71c-.46.75 0 .4-1 .75v-.25l.24-.5zm15.68 1.49v2h-2.57v-.25a4.39 4.39 0 0 0 0-2.49l2.62.74zm32.81 0-.48 1c.62-.56.54-.33.48-1zm-38.75.5h.72l-.72 2-.47-.25zm2.38 2.49h1l-1.43 1.5v-.75l.48-.75zm.47 1.5h.72l1.9 2.49-.71.5h-1.39a3.77 3.77 0 0 1 -.47-3zm92.24 2.74-1.43.75v1l1.19 1.75c1.29-.31 1.52-.82 2.37-1.5v-1l-.71-.5zm-18.07.75v.75h1.19c-.16-.26-.32-.5-.48-.75zm59 .25v.5c.23-.44.22-.06 0-.5zm9.51.24.71.5zm-68 1c.34.48 0 .15.48.5-.16-.17-.32-.33-.47-.5zm65.14.5-.48.25v2l2.38.5-.72-2.24-1.18-.5zm-66.32 1-.72.74.48.75 1.66-.25v-.5l-.24-.49zm31.14.25c.45.75 0 .4.95.74v-.25zm-1.43 1v1.25c.16-.17.32-.33.47-.5-.08-.25-.15-.5-.23-.75zm1.9.25v1l.48.25v-.75zm28.76 1.25.24.74.48-.49zm-35.18.25 1 .75h-1.19l.24-.75zm27.1 0 .24.49.24-.49z" fill="#5b4d42" fill-rule="evenodd" transform="translate(-567.12 -663.55)"/></svg>