<svg height="245.68" viewBox="0 0 218.74 245.68" width="218.74" xmlns="http://www.w3.org/2000/svg"><path d="m991.12 756.31a2.82 2.82 0 0 1 2.07.37c.2.87.6.54.86 1.11 1.13 2.43.18 5.67-.24 7.86l-.62.12a2.6 2.6 0 0 0 -2.44-1.23c-.06 2.67.78 4.35-.12 6.39l.49.62.36-.25c.27-.69 1.12-.68.86-1.23l.12-.49 1.1-.61.25.49.12-.12a9.22 9.22 0 0 1 .24-3c1 .09.83.45 1.59.73.48-2.48 3.25-3.58 5.63-2.94.35.76.82.87 1.22 1.47.57 1 0 1.74-.24 2.58a4.34 4.34 0 0 1 2.45 1.47c-1.47.25-1.51 1.69-2.45 2.46l-.49-.12v-2c-1.85-.54-2.58-2.43-4.77-2.21a2.74 2.74 0 0 0 -.12 1.6c.61.07.47 0 .73.37v2a6.31 6.31 0 0 0 -2.2.62l-.12-.13c0-.64.14-.74-.13-1.1a3.78 3.78 0 0 1 -1.34.61v.13l.12.49a3.84 3.84 0 0 1 2.45 2.33l-.74.86.74.74c-.21.69-.41 1.39-.61 2.09h-.13c-.44-.8-.4-1.78-1.1-2.34-1.54.21-1.71 1.06-3.54 1.11v.49l1 .61a1 1 0 0 0 1.1-.24l.62.49-.74.49c.12.21.25.41.37.61-.44.57-1 .83-1.22 1.6a2.76 2.76 0 0 1 1.83.25v.61l-1 .37.12.25c2.06 0 2.08.79 3.43 1.35a2 2 0 0 1 -.24 1c-1.53-.24-2.85-1.06-4.78-.49a4.33 4.33 0 0 0 .49 1.72l-.61.37c-.7-.6-.94-2-1.1-3.07-1.1.25-1 1.08-.61 2l-.37.49h-.61c-.25-.56-.3-.8-1-1-.4 1.07-1.07 1.25-1.22 2.46.32.36.53.33.73.86h-.31c-.88-.27-1.11-.29-1.46-1.11l-.49.37c-1 2.28-6.08 2.36-7.71 4.42.61 2 .12 1.12.12 2.83 1 .63 1.4 1.36 2.69 1.72l-.36.73c-1-.06-1.14-.43-1.72-.86-.68.62-2 .46-2.69 1.23l.13.25 1.46.24-.12.25h-2.08l-.49-1c-1.18.64-3.09 1.06-3.91-.25a3.92 3.92 0 0 1 1.1-1.84c.37.33.1.27.61.24a6.31 6.31 0 0 1 1.59-2.45 1.83 1.83 0 0 0 -.61-1.11l-1.23.49-.12-.24c.32-1.09.82-1.48.86-2.95-1 .16-2 .08-2.81.24l-.74 1.11-.37-.12a4.52 4.52 0 0 1 1-2c.82-.21 1.86 0 2.45-.24.25-.83.87-1 1.35-1.6a3 3 0 0 1 -.25-.25h-.61v-.12l1.34-.74-.61-.86c1.16.15 2.07.94 2.94 0v-.12c-1.69 0-2.32-.65-3.67-1l-.12.12c.58 1-.74 3-1.59 3.81l-.49-.37-.25-.74-.61.5-.61.73-.49-.37c-.57.34-.23.48-.61 1-.75 1-2.83.23-2.08 2a3.54 3.54 0 0 0 .73 1.11v.37h-.49l-.36-.49-.49.12c-.22.65-1 2.41-1.59 2.7l.49.74-.37.24a1 1 0 0 1 -1 .13l-.12-1.36c-.86.52-2.38.47-3.31.62v.5c2.42 1.83.87 2.47 2.33 3.93a9 9 0 0 1 2.08-1.35c1 1 1.9 2.4 3.3 2.95.53-.49.63-1.3 1-2a7.57 7.57 0 0 1 3.79-.12l.12.25-.24.36c-.7.14-1.72.17-2.08.5a3.6 3.6 0 0 1 .49 2.7l.73.37-.12.49-.85.12c.54 2.53-1.11 1.82-2.94 2.58 0 .68 0 .75-.49 1-.29-.81-.83-.92-2-.86l-.24.74c.55.65.6.38.12 1.11l-.61.36-.86-.12v-1.1l-.85.24a6.66 6.66 0 0 1 -1.59 3l-.49-.25c.05-.5 0-.46-.25-.86-.64.15-.84.47-1.47.25-.33-.26-.37-.64-.61-1l-.24.12c-.17.63-.19.71-.86.86l.37-.74a2.83 2.83 0 0 0 -1.71-.61 2.07 2.07 0 0 0 -.37-1.6l.12-.24a37.89 37.89 0 0 0 4.65-2.71l-.74-1.1a6.65 6.65 0 0 1 1.23-1.84l-.12-.37c-1.54-.37-1.46-1-2.33-2a7 7 0 0 1 -1.22 1.48h-.37c.21-.89.62-1.26.49-2.22h-.49c-.2.5-.41 1-.61 1.48l-.24-.12.36-2.46-.12-.12-1 .12c-.43.22-.33.1-.49.61.43.23.33.11.49.62l-.49.37-.86-.62-.24.12v1.85l-1.1.12c.12-.57.24-1.15.37-1.72l-.13-.12-.36.24c-.08.13-.17.25-.25.37l-.24-.06c.07-2.71 0-2.43 1.59-4.42-.08-.13-.16-.25-.25-.37-1.59-.65-2.15-2.08-3.42-2.95h-1.23v-.49l1.23-.74c0-1-.1-2.64-.86-3v.25c-.84 1.74-.62 4-1.47 5.28-.56.1-1.65.19-2 .62a6.8 6.8 0 0 0 .12 1.72l.61.36-.24.86-.49.25-1.1-.37v.12c.2.33.4.66.61 1a2.17 2.17 0 0 1 -1.23.73c-.16-.32-.32-.65-.49-1l-.36.12c0 .08-.08.17-.13.25.23 1 1.1 1 1 1.84-.38 1.42-1.78 2.87-2.32 4.42-.08 1-.16 2-.25 3.07-.44 1.27-.89 2.54-1.34 3.81a77 77 0 0 1 -8.93 15.73l-3.43 4.17c-2.12 3.39-2.74 7.74-5.14 10.81-3.06 3.94-6.94 7.14-10.76 10.32-2 1.64-4.26 2.29-5.63 4.55s-1.43 4.8-2.08 7.61c-1.69 7.34-2.16 16.14-3.55 24l-.24 7.12-1.35 5.65c-1.11 6.75.83 14.85 1.72 20.15l.24 6.63c1.13 7 .29 8.59 3.67 13.39h-13.8c.28-2.58.57-5.16.85-7.74q-.6-11.36-1.22-22.72c-.77-4.21-2.2-7.66-3.3-11.43-1.8-6.11-2.54-12.27-3.92-18.55-.2-3.48-.41-7-.61-10.44-.53-2.28-2-5-2.57-7l.12-3.56c-.72-4.67-1.24-8.22-3.18-11.43l-.73.25c-.2.74-.47 1.26-1.22 1.47-.33-1.1-.66-2.21-1-3.31l-2.08.24-.13-.24c.25-.7.49-1.4.74-2.09h-.12l-.37.37-1.59 1.84-.25-.12a1.79 1.79 0 0 0 -.24-1h-.37a4 4 0 0 1 -1.71 1v-.62a6.16 6.16 0 0 1 1.34-2.95c-.69-1-.58-1.64-.85-2.94-1-.17-1-.84-1.59-1.36-.57.09-5.43 3.85-6 4.43-1.35-.1-1.58-1.18-2.81-.74-.6.32-.83.94-1.35 1.35v.12c1.13.87.87 1.12.25 2.34l.12.12 1-.12c-.35 1-1 .51-1.71 1.1a4.27 4.27 0 0 0 .12 2.46l1.34.12v.13c-.71 1.09-.86.68-1.59 1.22l-.61 1.36c.93 0 1.16.13 1.35.86h-.25c-.72.31-1.85-.2-2.57.12-.34.15-.29.55-.85.74l-.12-.13c.08-1.61 1-2 1.59-3.19l-.13-.25h-.48a1.22 1.22 0 0 1 -.85.62c-.1-.55-.08-.46-.37-.74-.43.22-.46.71-.86.86-1 .4-1.86-.3-2.44.49-.67-.28-.55-.89-.74-1.59l-.24.12-1.5 4.04h-.49c-.3-1.4-1-1.56-1.84-2.33.31-.83.82-.86 1-2l-.36-.49-.25.12a2.5 2.5 0 0 1 -.49 1.85h-.57v-.74l-1.83.49a2.1 2.1 0 0 1 -.61 1.72h-.13v-.74l-1.46.13v-.37c.36-.92 0-1.62.36-2.58a3.68 3.68 0 0 0 1.72-.25v-.49l-1.23-1.47-.24.12c-1.27 2.63-2 1.91-1.23 5.28-.82-.24-.84-.71-1.34-1.23h-.12a7.32 7.32 0 0 0 -.37 3.44h-.25c-1.53.55-3-1.12-5.5.13a3 3 0 0 0 -3.18-.86c-.3.73-.37 2.93-1 3.44a6.21 6.21 0 0 1 -4 1c.32-1.2 1.05-1.3 1.1-2.95h-.12v.24l-.61.74v-.61c.28-.45.57-.9.86-1.35.46.14.19.24.61 0a16.54 16.54 0 0 0 -1.84-3.07l-1.1.49c-.42-.35-.67-.8-1.22-1a21.45 21.45 0 0 1 -3.43.86c-.2.58-.41 1.15-.61 1.72l-.24-.12a2.78 2.78 0 0 0 -1.35-2c.81-1.29 2.2-1.63 2.57-3.44-1.49.18-2.15 1-3.06 1.72v-.4l.49-1c-.49-.77-1-2.68-1.47-3.07-.85-.24-1 .49-1.71.37-.54-.1-.45-.07-.73-.37.34-.82-.09-1 .12-2 .32-1.41 1.82-2.3 2.2-3.57.51.15.43.21.73.49l.25-.12.24-1.72h-1.27l-.73-1.35a9.39 9.39 0 0 1 -2.94 0v-.49a1.39 1.39 0 0 0 1.1-1l-.24-.62a33.91 33.91 0 0 1 -4.28 0v-1.23l-1.11.5-.36-.5 3.54-4.79v-.12c-.6-.22-.79-.74-1.1-1.23l-.24.12.12 2a11.9 11.9 0 0 1 -2.2 2l-.49-.13c-.08-.32-.16-.65-.25-1 .21-.61.41-1.23.62-1.84a1.85 1.85 0 0 0 -1.59.61v-1.35l-.86-.25a4.71 4.71 0 0 1 .73-1.72l-.24-.12-1.22.62a1.92 1.92 0 0 0 -1.59-.86l-.25.36c-.14.4-.1 1.08-.37 1.36-1.17.36-2.57-1.23-3.3-1.85a2.09 2.09 0 0 1 .37-1.35l-1.35.12-.12 1c-1.08.13-1.34.67-1.71 1.47-1.3-.25-1.82-2-3.8-2.7.1-.88.17-1.83-.49-1.72l-.24-.12a3.82 3.82 0 0 1 1.1-2.46h-.24l-2.21-.61c-.21-.9-.58-1.09-1-1.72.52-2.2 2.79-2 3.67-3.57s.09-3.33.74-4.3c.06-.38-.14-.08.12-.36l1.84-.5c-.21-.5-.23-.48 0-1 .82-.2.56-.72.73-1.47.73 0 .89 0 1.22-.37l-.36-1.11.12-.12 1.86-.24c.7.36.72.69 1.84.74-.18-.78-.13-.53.12-1.23-.41-.53-1.23-1-1.1-1.72.3-.57.8-.68 1.22-1.1-.4-.32-.69-.41-1-.86l.25-.37.37-.12 1.1.49c.05-.6-.42-1.07-.25-1.72.33-.61 1-.78 1.59-1.11a3.28 3.28 0 0 1 .37-1.84 2.21 2.21 0 0 1 -.86-1.72 6.42 6.42 0 0 0 1.11-1.1 1.4 1.4 0 0 1 1.1.49c-.14.62-.31.57-.37.86h.24l1.47-.13 2 1v-1.11c1.55.07 3.28-.5 4.53.12.21.8.7 2.06 1.46 2.34v-.62l-.61-1.1c.46-.2.7-.1 1-.49.58-1.47.22-2.89 1.71-3.44v-.13l-2.08.62c-.45-.23-.54-.19-.73-.74a2.09 2.09 0 0 0 -1.1.86l-.37-.24-.12-.74 1.59-.86.37-1.72c-1.87-.56-2.4-2-4.29-2.58l-.24 2.09-.12.12a4.21 4.21 0 0 0 -2.08-.74 7.59 7.59 0 0 1 -1.72 1.72 1.15 1.15 0 0 1 -1.22-.12c.41-.6.83-.83 1-1.72l-1-.74 1-1.59v-1.48c.62-1.1 2.24-1.45 2.94-2.58v-.12a5.42 5.42 0 0 1 -1.47-1.23 18 18 0 0 1 1.71-3.32l-.12-.36h-1.22v-.13c.28-.57.57-1.14.85-1.72a2.39 2.39 0 0 1 1.22.86l-.36 1.11 1.71.12-.12-.74a1.64 1.64 0 0 1 1.22 1.48l3.46-1.64c-.14-1-.83-1.32-1-2.09l.25-1.72c-.34-1.22-1.48-1.61-2.33-2.33.53-.7.14-1.41.49-2.46l1-.12v-.12l-.61-.74c.37-.54 1.2-.63 2.08-.86.08-.66.08-.84.73-1 1.1.31 1.73.4 2.2 1.35l.25-.12c.42-1.81 1.14-1.35 2.57-2.09 3-1.56 4.87-1.49 8.44-2.09 1.85-.31 5.22.63 7.09-.37l-.24-.74 1.34-.86v-.36l-1.1-1.48-.49.37-.12-.49c.54-1.43 1.56-2.64 1.22-4.55l-.36-.12-.61-.12a2.08 2.08 0 0 1 -1.59 1.47l-.13-.12c.21-.61.41-1.23.62-1.84h-.25c-1.5-.71-5.05.79-6.48.37-1.59-.84-.32-2.12-.74-3.44l-1.34-1.85c.93-1.07 1.66-.88 2.32-1.1v-.5c.59.26.58.2 1.1-.12a4.52 4.52 0 0 1 .74-1.1l2-.37a2.5 2.5 0 0 1 -.49-2.34l.25-.12c1.22 0 1.4.43 2.2.37l.25-1.23a3.09 3.09 0 0 0 2.81-1.35l-1 .12v-.37c.52-.66 1.06-.89 1.22-2a2.14 2.14 0 0 1 -1-1l.12-.62c.44-.63 1.55-1.61 2.69-1.1 1.25.68 1.07 2.31 2.69 2.82-.57-1.83 1-2.54 1.22-4.05.14-.81-.4-.86-.49-1.35l.37-1.85c2.27-.34 2.53-2.94 4-4.05 1-.28 2.48-.18 3.42-.74-.71-.89-1.54-1.45-1.22-3.07.48-.47 1.07-.37 1.35-1.1-.61-.36-.37-.8-.62-1.48l-.24.13a1.71 1.71 0 0 1 -.37.85l-1-.61v-.61a25.6 25.6 0 0 1 2.21-2.21.85.85 0 0 1 .85-.13c1.11.2 1 .82 2.2 1 .87-.45 2.39-1.45 2.7-2.46-.53 0-.5.09-.49-.74l.73-1.23-.73-.37v-1.22l1.83.73c.11-.6 0-.49.49-.73 1.56-.44 3.72 1.17 4.65 2a7.21 7.21 0 0 1 3.55-1.35c1.47.73 2.69 2.19 3.67 3a14.12 14.12 0 0 0 2.93-3.32l-.12-.37c-.92.07-1.14.11-1.71-.24-.35.58-.38 1.47-1 1.84l-.37.25a4.75 4.75 0 0 1 -1.22-1.23l.49-1.6-.37-.37-1.1-.12v-.86l.49-1.23 2.69-.37a2.09 2.09 0 0 1 .74-1.23c1 .55 3.78 2.19 4.77.5a25.08 25.08 0 0 1 1.71-4.18c1.27-.14 1.87-1.09 3.42-.74 2 .45 3.39 1.77 5.51 2.34l.74-1.11c1.19.54 1.53 1.46 2.45 2.21a21 21 0 0 1 3.42-2.82l2.94.86c.25.25.2.21.24.73-.21.36-.36.46-.24.86l1.47 1.85c.2.73.4 1.47.61 2.21l1.34-.13c0-.55-.16-.86.49-1.1l.25.37c-.15-.8-.57-2.24.12-2.71.67-.23 1.22 0 1.59-.61l.24-1.84-.24.12-.86 1.72c-.59-.18-.37 0-.49-.61.58-1.31 1.71-3 3.06-3.57.5-.19 1.11-.11 1.47-.36l-.61-.86c.16-.5.32-1 .49-1.48 2-1.13 6.18-.84 7.22 1.48v1.71a2.25 2.25 0 0 1 1.59-.73 13.85 13.85 0 0 1 2.08 1.59l1-.12c1-1.37.29-3.12.74-4.91l.24-.12a5.16 5.16 0 0 1 2.57 1 8.31 8.31 0 0 0 .74-1.72c.49.26 2.56.77 2.93 1.23s.2 1.2.61 1.59h1.72l1.71 1.11c1.77-.58 1.25-.68 2.08-2.21.46-.85 1.43-.33 1.71-1.72 1.39.15 1.19.8 2.08 1.23.23-.38-.07-.28.37-.25.08 1.8-.93 2-.61 3.81 3.05.69 7.67-.16 7.09 4.42a4.76 4.76 0 0 0 -1.59 1.11v.61a1.57 1.57 0 0 0 1 1.11h.12c-.15-.8-.32-.63-.12-1.23l.37-.12a2.28 2.28 0 0 0 1.71.24c.81-.57 1-1.46 1.71-2.09a12.88 12.88 0 0 1 3.67 1.72h.37l.37-1.1c3.37-.08 3.21 1.8 3.91 4.3h.12l.37-1.11a12.89 12.89 0 0 1 4.53-.12l.73 1.11a4.86 4.86 0 0 0 -.61 2.45l-1.71.62c-.33 2.15-1.08 2.15-2.45 3.19l.12.12h1.47l-.37.62c1.51-.24 1.42-.95 2.33-1.48h1.87c.77-.24.93-.86 2.08-1l.74.61c-.33 1.11-.65 2.22-1 3.32 1.19.05 4.78 0 5.38.86s.27 1.85.74 2.09c.19-.33 0-.17.36-.37v.25c.08.53.17 1.06.25 1.59l.49-.37v.37l-.37.62h.37l.24-.13a21 21 0 0 1 1.1-2.08c1.92.15 2.28-1.55 3.67-1.23l.61.12c.44 1.06 1 2.15.37 3.32a4.55 4.55 0 0 0 -2.57.24c0 1.82-.56 2.18-1.59 2.58a1.07 1.07 0 0 1 -.12 1.35 2.59 2.59 0 0 0 -1.71.62 7.87 7.87 0 0 0 -.49 1.72h.12c.59-.09.69-.42.86-.12l1.83 1.22a2.57 2.57 0 0 0 -.85 1.85c.3.71.55 1.15 1.22.86.59-1.26 1.74-1.1 2.93-1.72.17-.62.33-1.23.49-1.85a3.24 3.24 0 0 1 2 .62l.12.74a2.27 2.27 0 0 1 2.57 1.59 3.87 3.87 0 0 0 -1.34.74c.38.6 1.09.59 1.46 1.1.17.58.33 1.15.49 1.72.37.37.77.16 1.11.62 1.26-.6 1.11.6 2 1.35l1.72.49a24.69 24.69 0 0 0 1.22 3.93l.37-.24c0 1.16-.51 1.5-.13 2 .48 1.92 2.44 2.72 2.08 4.92l-1.34.61.12 2.83c3-.07 4.83 1.64 6.61 2.94l.12 1.36c.36-.28.15-.3.61-.25.06.49.06 1.02.18 1.55zm-87.23-59.94.37.49h.12c-.19-.52.02-.3-.49-.49zm4.52 1.47c.23.5.16.56.74.74-.15-.58-.15-.58-.74-.74zm3.19 1.48-.25.12v.49l.12.12.25-.12.12-.61zm3.54.86c-.5.7-1 .7-1.71 1.22a1.84 1.84 0 0 0 1.59.86l.25-.24c.2-.66.43-1.38-.13-1.84zm-39.14 1.59v.49h.61l-.25-.49zm12.11.86-.13.25v.12c.45-.13.36-.1.62-.37zm26.91.49-.24.25.24.25.37-.25zm17.49.13c-.64.28-1.17.24-1.58.73l.12.37.24.12a2.27 2.27 0 0 0 1.35-1.22zm8.81.61-.24.12v.25h.49v-.37zm-7.21 2.33-.25.37.12.25c.71 0 .66.06.86-.49h-.25zm-19.33.25-.37.61.12.62.86.24.49-.49a1.71 1.71 0 0 0 -1.1-1zm35.72.12-.12.25h.73c-.24-.2-.17-.16-.61-.25zm2.32.74-.12.61.24-.12c0-.12.09-.24.13-.37zm-86 .25v.45h.24c-.11-.45 0-.25-.24-.49zm76.34 2.21c.16.81.36.72 1.1.61-.12-.16-.24-.33-.37-.49zm-88.33 1.72c0 .44 0 .35.25.73l.24-.12v-.61zm61 .61c0 .53 0 .59.24.86h.12v-.49a.85.85 0 0 0 -.36-.37zm.73 0c0 .38-.12.17.12.49zm41.35.62-.12.24v.12h.21l.49-.36zm-43.31.12-.24.37.73.61h1v-.24l-1.47-.74zm33.16.24-.49.5a5.35 5.35 0 0 1 1.83.86l1-.37.12-.25c-.16-.2-.32-.41-.49-.61-.7.43-1.14.24-2-.13zm-4.28.37a4.81 4.81 0 0 0 -1.47 1.72h.12a3.23 3.23 0 0 0 1.59-1.72zm1.46 0c-.29.31-.33.24-.49.74l.25.12h.73l.12-.24c-.22-.42-.15-.41-.61-.62zm11.5 0-.12.62h.49c.08-.13.16-.25.25-.37-.25-.2-.18-.16-.62-.25zm-16.27.62v1.1l.25.13.73-.5v-.12l-.12-.37zm-25 .61.24.49h.59l.12-.24-.24-.25zm36.94 3.81-.37.61c0 .13.09.25.13.37h.12l.49-.74zm10.64 1.1a1.62 1.62 0 0 0 .25 1.48l.12.24.25-.12a3.34 3.34 0 0 0 -.13-1.6zm-73.4 1.6.12.37h.62v-.25zm52.61.12v.5h.85v-.13l-.24-.37zm-10.28 3.32-.49.49.86 1.11.24-.12-.12-1.36zm-5.68 3.07a1.62 1.62 0 0 0 -.73-1.47h-.13l-.48 1 .24.37zm-73.32-.98c-.26.31-.25.19-.37.74l.61.49.37-.12v-.62l-.12-.37zm45.26.37-.61 1a1.27 1.27 0 0 0 .61-1zm-16.39.12-.24.25c.13 1 .67 1.17 1.22 1.72l.24-.13.13-.37-.86-1.35zm26.91 0-.36.12v.37h.85v-.12l-.12-.25zm2.33.49-.12.86h.85c0-.08.08-.16.13-.24-.27-.46-.21-.5-.86-.62zm14.43.62-.36.12.12.24c.61.06.56.06.86.37v.13c-.57.11-.51 0-.74.49h.49l1.1-.49v-.17l-.12-.61zm-68.26 1.84-.37.37a1.79 1.79 0 0 0 .37 1.23h.37l.12-.37v-1.23zm-10.28.25.37.61.61.12v-.13c-.2-.31-.15-.3-.49-.49zm107.54.85c-.52.83-1.46 1-2.08 1.72v.13l2.69-1.6v-.25zm-106.07.13-.12.37a2.15 2.15 0 0 1 1.71 2c.47-.16.26 0 .49-.37.23-.64-.27-1.36-.61-1.84zm104.11.12c-.29.31-.33.23-.49.74l.61-.13zm13.82.37c.09.2.17.41.25.61.58.16.59.41 1-.12-.54 0-.58-.28-1.23-.49zm-3.42.24-.24.13v.49l.36.49.37-.25v-.49zm-43.67.25a2 2 0 0 0 -.13.25c.34.16.24 0 .49-.13zm-84.17.12c.05.64-.08.49.37.74l.24-.12v-.1l-.12-.49zm16.64.49-.25.86.25.13h.12zm116.58.25c.08.33.17.66.25 1l.36.13v-.13zm-47.46.12.24.62.25.12.24-.12v-.13c-.2-.33 0-.16-.37-.36zm32.17.49.12.37 1-.12-1.1-.25zm10.4 0c-.08.25-.16.5-.25.74l.25-.12.12-.62zm-121.85 1.11v.74c.08.12.17.24.25.37h.61l.49-.37zm77 .49-.24.12.36.74c.43-.25.45-.19.62-.74h-.25zm6.61 1.48-.25.36v.13h.74l.24-.25-.12-.24zm-81.85.24.25.49.24-.12zm48.94 0-.25.62.25.12.61-.37-.24-.37zm87.59.12c0 .29.09.58.13.86h.12l.49-.24zm-135.67.62.37.61c-.23-.5-.15-.37-.47-.61zm1 .37-.25.12.25.49.24-.12zm30.58.37v.37l.49-.37zm-1.1.12-.12.24.49.13.12-.37zm64.11.37-.37 1.1h.49l.24-.12c0-.68 0-.71-.36-1zm-65.45.12a3.3 3.3 0 0 0 -.62 1.84h.13v-.24l.73-1c-.08-.44 0-.37-.24-.61zm-43.31.24.12.62zm104.84.25-1.22 2.46.37.61a6.2 6.2 0 0 0 2.08-1.6 7.5 7.5 0 0 0 -1.23-1.47zm-86.61.86-.37.37.49.74 1.59-.25-.37-.49zm26.55 0-.37.49.12.12.61-.61zm-24.23.37c.18.49.22.48.61.74h.13v-.13a1.05 1.05 0 0 0 -.74-.61zm131.27.24-.24.37v.13c.51-.19.3 0 .49-.5zm-50.16.86c0 .41-.11.29.13.62 0-.21-.09-.41-.13-.62zm-79.64.5c-.8.66-1.52-.06-2.57.12-1.34.23-2.72 1.61-3.55 2.46l.25.73c.51-.19.3 0 .49-.49.63.21.83.68 1.22 1.11l.37-.13c.3-1 .52-.86 1.22-1.35a4.13 4.13 0 0 1 -.61-1.1l.12-.12h2.69l.61-.87c-.27-.37-.11-.14-.36-.36zm39.15.12c.06.46-.09.28.37.61l.24-.12v-.12l-.12-.25zm34.5 0-.61.24v.13a1.51 1.51 0 0 0 1.1-.25zm-59 .49v.74l.25-.13.12-.61zm66.06.25v.36l.49-.24v-.12zm-106.92.49-.25.12.13.37h.36c0-.08.09-.17.13-.25zm52.85.37a.87.87 0 0 0 .24 1l.37-.25v-.37zm-37.56.86a5.23 5.23 0 0 1 -.49 1.59c.64.66 1.85 1.71 2.82 1.6-.23-1.09.54-1.21.49-2.33a15.5 15.5 0 0 0 -2.91-.86zm90.65 0-.36.73a2 2 0 0 0 1.22-.73zm25.08 0v.36c.45-.07.37 0 .62-.24v-.12zm-118.42.24.12.62c.26.53.51.66 1.23.73a1.92 1.92 0 0 0 -1.44-1.35zm-3.67 1-.37 1.36.25.36a5.86 5.86 0 0 0 2.44.13l.13-.62a4.1 4.1 0 0 1 -2.33-.61c0-.58.15-.37-.12-.62zm55.18.62-.37.37.37.24.61.13c-.13-.6-.07-.56-.62-.74zm-2.7.49-.24.86 1-.49-.25-.37zm-47.83.12c-.5.27-.81.25-1.1.74s0 .72.24 1.11l1.23.36a.77.77 0 0 1 1.1-.36 4.61 4.61 0 0 1 1.71 2.33l-.49.61a1.35 1.35 0 0 0 -.86.37l.13.37c1.43.44 3.21.52 3.54-1.11-1.36-1.68-2.56-4.37-5.5-4.42zm99.83.12-1.47.37v.13l.12.24h.74a2.16 2.16 0 0 0 1.1-.61zm34.62.25c-.75.43-1.48.53-2 1.23h.25a8.48 8.48 0 0 1 1.83 1c0-1.49.46-1.17 1-2l-.12-.25zm-63.13.12-.24.37.24.37.49.25c-.16.53-.32 1.06-.49 1.59l-1.34.25c.36.74.73 1.47 1.1 2.21l1.59-.12c.5-1.55 1.33-1.54 2.2-2.58l-.12-.37-.61.37v-.74l.49-.37v-.12c-1.78 0-2.24-.52-3.31-1.11zm-22.75.49c-.6 1-.29 2.26-.86 3.2l1.84-.74c-.49-.8.21-1.49-.13-2.46zm48.08.5-1.11.61v.12a2.2 2.2 0 0 0 1.6-.24v-.37zm30.58 0c.2.44 0 .28.49.49-.19-.52 0-.3-.49-.49zm5.38.61c-.28.31-.33.23-.49.74h.25l1.22.24v-.36c-.2-.32-.15-.3-.49-.5zm-35.23.25c-.22.85-.1 1 .73.86v-.37zm28.63 0a1.62 1.62 0 0 0 .24 1.35c1-.08 2.22-.1 2.57-.49v-.37a5.81 5.81 0 0 0 -2.81-.49zm-36.34.37-.36.73.48.25c0-.21.09-.41.13-.62zm4.77.24v1.44l.62-.25c-.05-.25-.09-.49-.13-.74-.19-.38-.11-.29-.49-.49zm44.41 0 .37.49v-.49zm-43.06.12c-.15.55-.32.67 0 1.11l.37-.25c0-.65 0-.59-.37-.86zm-3.79.37-.61.37v.49a1.13 1.13 0 0 0 1-.61l-.24-.25zm31.19.37-.24.37v.12c.51-.19.3 0 .49-.49zm-46.73.49a3.1 3.1 0 0 1 .12 1.72h.49l.86-.86v-.49zm2.57 0v.37l.37.12c-.17-.47 0-.25-.37-.49zm48.08 0-2.54 1.09.25.24c1.16.29 3.13.53 3.79-.37-.25-.28-.49-.57-.74-.86l-.24-.12zm-36.34.25c-.69.37-1.13.49-1.46 1.23 0 .2-.09.41-.13.61h.13l.36-.37a2.76 2.76 0 0 0 1.35-1l-.25-.49zm2 .12-.49.61a1 1 0 0 0 .74-.49zm4.16 0c-3.83 1.55-6.92 1.55-8.44 5l-1.47-.13c-.42 1.1-1.38 1.2-2.08 2 .58.78.56 1 .37 2.09l1.34.12.13.12a10.32 10.32 0 0 1 -.62 2.46l1.11 1.23c-.33.75-.28.64 0 1.47l-2.45.12-.12.25.36 2.83c.81-.32.92 0 1.72.24l2.2-1.35c-.67-.11-1-.16-1.35-.61a1.89 1.89 0 0 1 .86-.86 1.41 1.41 0 0 0 1.71 0l.12-.74-.46-.52-.86.49-.24-.86 1.46-1.23h.37c.07.69.07 1 .74 1.11l.24-.13c.08-.45.16-.9.25-1.35-.55-.27-.44 0-.37-.49a2 2 0 0 0 1.47-.74l-.86-.61.12-.25 1.84-.36.24-1.72.61.61h.13a2.64 2.64 0 0 0 1.95-1.47c-.73.12-.95 0-1.34-.5l.12-.49a1.6 1.6 0 0 0 1.1-.49c-.36-1.31.55-2.16 1.1-2.95-.28-.88 0-1.35-.12-2.21h-.25zm-99 .25a1.44 1.44 0 0 0 .49.49h.12c-.2-.54 0-.36-.61-.49zm100.44 0v.61l.24-.12v-.12zm-67.26 3.47h.85l-.24-.37c-.45-.13-.36-.1-.62-.37l.49-1c-1.18-.21-1.76-2.32-3.18-1.35l1 1v.09a1.67 1.67 0 0 0 -1.1.49 6.27 6.27 0 0 0 1.35 3.32l.73-.12.49-.25zm92-3.2-.24.12v.37h.37l.85-.49zm7.47 0 .12 1.11.24-.12v-.79zm-107.29.62.24.49h.33l.12-.25-.12-.24zm57.62 0c.07.78.24.87-.49 1.1a4 4 0 0 0 3.67 3.32 8 8 0 0 0 2.32-1.72c-.35-.38-.46-.33-.61-1-2-.06-2.21-.54-3.79-.13a2.92 2.92 0 0 0 -1.1-1.59zm-62.4.12-.73.12a1.89 1.89 0 0 0 -1 1.11l.12.49a4.74 4.74 0 0 0 2.45-.37l.12-.61-.85.73a3.83 3.83 0 0 1 -.13-1.47zm-17 .24c-.15.54-.17.42 0 .86h.12l.49-.12c-.16-.59-.16-.52-.62-.79zm4.53.13v.73l.24.37c.58-.17.31.09.49-.49zm68.38 0 .12.37.86.12v-.12l-.37-.25zm4 0c0 .43 0 .23.24.61h.2l.24-.49zm51.38.24a1.59 1.59 0 0 0 -.24 2.21l.36.13.62-.13.12-.24c-.16-.59-.38-1.65-.86-2zm-120.75.13.25.49.24-.49zm59.58.12.12.37c.56 0 .71 0 1-.25v-.12zm-61 .12a5.36 5.36 0 0 1 -1.84 2.33l.37.5.49.24.61-.12a6.73 6.73 0 0 0 1.35-2.33c-.38-.1-.37-.41-1-.62zm115.73 0-1.5 1.06v.12l1-.62c.46.52.1.45.73.13v-.13c-.08-.44-.05-.37-.24-.61zm-123.69.25-.12.24.49.25c-.18-.52-.01-.26-.38-.54zm23.74 0-.12.12.36.49h.13l.24-.49zm-1.1.12-.13 1.23c.47-.16.26 0 .49-.37v-.86zm-17.13.25-.25.24.13.25h.12c.44-.2.29 0 .49-.49zm16.15.12-.12.86h.24c.04-.6.18-.58-.13-.91zm-18.11.12c-.33 1-1.05.93-.37 1.6l.25 1.1-.37.5h-1.34c.05.75.21 1.18.73 1.47h1.1a9.88 9.88 0 0 0 .49-4.18c-.21-.43-.12-.34-.5-.54zm74.14.25-.12.73.24.13.12-.25c-.08-.44-.05-.37-.24-.61zm-59.21.12.73 1.47c.63-.18.73-.45 1.1-.86l-.12-.49zm7.46 0-.49.37 1.1.86-1-.12.25.36h.12l1.47-.24v-.37c-.45-.58-.41-.83-1.47-.86zm44.16.25-.24.36v.13c.51-.19.3 0 .49-.5h-.25zm56.65 0c-.26.31-.26.18-.37.73h.49c.46-.23.54-.19.73-.73zm-2.7.49-.61.37v.36l.25.13.85-.62v-.12zm-113.86.19-.37.49.25.25.61-.37zm115.36.37v1l.74.25a2 2 0 0 0 .24-1h-.24zm-130.16.25a1.11 1.11 0 0 0 -.13 1h.13l.49-.25v-.49zm25.07 0 1 .49-.24-.49zm99.71.12c-.08.12-.16.25-.25.37s.09.16.13.24l1.34-.24v-.12zm-45.88.25c-.55.5-1.43.8-1.95 1.35v.73l.24.5.61.12c0-1.41.55-1.52 1.47-2v-.73zm79.89 0-.25.24.25.25.37-.25zm-128 .24c-1.12.43-2.16.37-2.93 1.11l.49.73 1.34-.61v1.23c.75.2.63.07 1.35-.12 0 1.25.37 1.86 1.35 2.08l-.37-.49-.37-.86c.89.42 1.65 1.09 2.94.74v-.12l-.13-.49a4.84 4.84 0 0 0 -2.2-.74l-.37-1.11.62-.73-.13-.25c-.97-.07-.51-.28-1.58-.37zm89.43 0-.61.74 1.35-.25-.16-.4zm-107.29.25v.49h.37c-.16-.47 0-.26-.37-.49zm93.59.12c-.88 1-3.15.66-4.28 1.35l.24 1.23-.24.25-.86-.37c.43 1.42 1.6.92 2.7 1.35a3.1 3.1 0 0 0 1 2.21c-.37.24-.19 0-.36.49h.73l1.84-1 .48.24-.61.74c.64.11.63.12.86.61v1.72l.73-.12c.26-.16.2-.14.37-.37-.44-.72-.24-3 .12-4.3a.9.9 0 0 1 .49.13c.2 3.43.42 5.9 3.55 6.38.73-1 .63-2 1.22-2.94l.86-.13v-.24l-.12-.25c-1.74 0-4.73-2.63-4.16-4l-.28-.26-.36.62-1-.49c-.22.46-.2.45-.74.61l-.24-1-1.1.37-.12-.25v-.74l-1.34-.12v-.12l.12-.25c.34-.56 1-.44 1.59-.73l-.49-.62zm-71.08.12-.12.25.49.12.25-.25zm50.16.12v.5h.12c.09-.17.17-.33.25-.5zm-66.43.13c.06.49-.12.26.25.61h.12c-.13-.45-.1-.36-.37-.61zm103.87 0c-.21.24-.41.49-.61.73l.36.74.37-.24.12-.25c0-.56 0-.72-.24-1zm-122 .49-.49.74.12.24h.13l.61-.86v-.12zm78.41.37-.24.12.24.49.25-.12c-.08-.16-.16-.33-.25-.49zm44.54 0c-.11.49-.28.19.12.61l.24-.24zm-104.6.37c.4.2.25.25.61 0zm130.16 0c.09.2.17.41.25.61l.24.12 1-.12v-.12l-.12-.25zm-35 .24c-.09.37-.17.74-.25 1.11h.12l.38-.23.37-.73v-.13zm-105 .13a1.1 1.1 0 0 0 -.37.61c.54-.14.47-.13.74-.49v-.12zm-4 .61c-.34.38-.68.52-1 1l.25.49c.79-.17.94.18 1.47 0l-.74-1.47zm12.48.74-.12.37.61.12.12-.25c-.21-.19-.14-.16-.58-.24zm-17.37.24-.73.74v.12l.73.86-.24.37c-.63.05-.75 0-1 .49a1.94 1.94 0 0 1 2 .74 4.79 4.79 0 0 1 .13-2.58l1.34 1.1a2.72 2.72 0 0 0 -2.2-1.84zm2.94 0v.49l.49-.24zm60.68 0v.49l.49-.24zm52.36.12c-.09.21-.17.41-.25.62h.12l.25-.12.12-.37-.24-.12zm-47.1.37-.25.37.25.25.36-.25zm-52.61.13a1.57 1.57 0 0 0 1.22 1.59v-.37a5.43 5.43 0 0 0 -1.22-1.22zm103 0c-.12.28-.24.57-.37.86h.13a1.63 1.63 0 0 0 .73-.74v-.12zm-57.38.24v.37l.49-.25zm-9.91.37-.24.86.37-.12.24-.74zm63.5 0a2 2 0 0 0 -.25 1h.12v-.24l.37-.74zm-1.72.25c-.08.53 0 .52.37.86l.25-.13v-.12c-.26-.32-.22-.4-.62-.61zm-134.57.12-.49.61h1.47l-.12-.61zm149.5.12-1.35 1.11c.43 1.66 2.85 1.64 4.29 1.1l.24-.49-.12-.25-2.08-.24c0-.69-.27-.92-1-1.23zm-10.52.12c.25.27.17.23.61.37v-.12l-.61-.24zm-21.66.37c-.13.46-.21.15 0 .62l.37-.25zm67.29.12.37.62h.12v-.12c-.2-.32-.15-.3-.49-.49zm-134.94 6c.53 0 .59 0 .86-.25a1.44 1.44 0 0 0 -.49-.49c-.53.32-.68.66-1.35.86l-.37-.25c-.13-1-2.17-2.2-2.81-3.19-.18-.73 1.8-1.06 2.45-1.6v-.12l-.12-.12c-1.23.12-1.88.6-3.19.37-.38-.31-.42-.31-.49-1l-.73.13a26.67 26.67 0 0 0 -.48 3.49l-2.2-.61v.12l.24.25c.91 1.46 2.95 1.42 4.29 2.46l-.25.49-1 .37h.25a1.45 1.45 0 0 0 1.34.24v.68l-.12.24h-.12l-1-.49c-.31.73-.83.65-1.22 1.23-.32.9 1.22 3.9 2 4.3a3.15 3.15 0 0 0 2.33.12l.12-.24-.37-.74.86-1.6-.37-.24-1.71-.12v-.37l.12-.37a3.11 3.11 0 0 0 1.59-1.48l.74.13-.49 1.23.49-.37a5.43 5.43 0 0 0 .12-2.09c.53.28.45.33 1 .12v-.24zm2.33-5.78.12.37.85.12-.24-.37zm119.64 0-.37.25.49.24.13-.24zm-5.14.74-.49.37c.09.24.17.49.25.73l1-.12v-.11a1.2 1.2 0 0 0 -.74-.86zm-151.21.37v.73l.37-.36a.88.88 0 0 0 -.33-.34zm61.17 0-.49.37.13 1.22.73.37.61-.12.74-1-.13-.62zm-15.66.37-.36.36.24.5h.61l.13-.25v-.12zm21.41 0-.37.36.37.13.49-.25-.12-.24zm56 .12c0 .42-.09.26.25.61v-.37zm15.74.01-.24.12v.25c.55 0 .7 0 1-.25zm-111.57.37-.12.73h.12l.25-.12c-.07-.49 0-.37-.25-.61zm8.32.37-.12.24.49.12v-.36zm-33.28.24-.73.49c.18.64.32.92 1 1.11a1.7 1.7 0 0 1 .37-1.35l-.25-.25zm-7.46.37-.61.74.37.73c.65.14 1.18.14 1.34.86l.49-.36v-.13c-.28-.61-.57-1.22-.85-1.84zm112.31.12v1.11l.24.12.49-.24v-.46l-.12-.24zm21.77 0v1.6l.25.37h.49v-1.72zm9.06 0v.62l.24.12h.12l.25-.12c-.18-.53-.12-.42-.61-.62zm1.34.25-1.1 1.35a2.41 2.41 0 0 0 1.61-1.07l-.49-.24zm-35 .12c.16.58.16.58.74.74v-.37c-.28-.3-.2-.27-.74-.37zm-23.61.37-.36.49c.19.43.12.27.49.49l.36-.12v-.74zm45.27 0c-.63.37-4 3.18-4.9 2.33-.47-.45-.44-1.16-1-1.59.09.6.24.77-.25 1.1-1 .49-2.07 1-1.59 2a4.15 4.15 0 0 1 2 1.35l.12.37a3.2 3.2 0 0 0 -.86.86l.25.24c1-.53 1.21-1.33 2-2.08v.21l.24.49.25-.24c.65-.3 5.8-3.6 6-4.06-.7-.15-.78-.34-1-1zm-23 .12-.61.74h.85zm34.13 0c0 .6-.25.44.49.62l.12-.37-.12-.25zm-139.1.25a2.2 2.2 0 0 0 .74 1.23l.24-.13c-.06-.82-.16-.96-.98-1.08zm151.58 0-.37.37.12.24h.13l.24-.12c.04-.4.12-.16-.12-.47zm-113.53.42v.61h.12zm16.64.24c0 .75.09.78.49 1.11l.36-.12c-.16-.33-.32-.66-.49-1zm24.59.25c-.21.5-.23.48 0 1l.24.12.86-.12.12-.24-.12-.5-.37.25c-.16.25-.14.2-.37.37-.03-.7.03-.64-.36-.91zm31.93 0-.12.49h.48c-.16-.47 0-.26-.36-.49zm-51.75.37a3.53 3.53 0 0 0 1.1 1.59l.24-.12v-.49a3.56 3.56 0 0 0 -1.34-1zm-54.69.24c.28.19.15.23.49.13zm125.52 0-1.1.74a.94.94 0 0 0 .37.37l1 .24.12-1.35zm-34 .25-.12.49.49-.37zm-112.06.24c0 .41-.11.29.12.62l.25-.37zm105.82.13-.36.49.12.49h.12l.74-.12.24-.86zm-42.45.24-.12.62.86.73a2.26 2.26 0 0 0 -.13-1.35zm9.05 0v.37l.37.12c-.16-.47 0-.25-.37-.49zm72.06.12c-1.69.15-3.4 1.77-4.28 2.83v.09h.49c1.09-1.09 2.58-1.19 3.67-2.09l.12-.85zm-70.71.13-.49.49c.08.45.05.37.25.61l.73-.73v-.37zm9.42 0c0 .52 0 .57.73.73v-.49l-.12-.24zm13 0-.12.37.24.12h.25l.12-.25zm-50.6.09.25.37h.49l-.12-.25zm21.05 0-.25.61h.2l.37-.61zm15.65.25-.36 1 .12.25 1.34.61.25-.25zm-17 .24-.25.37v.12l.55-.28zm1.71 0 .25.49.24-.49zm4.28 0-.61.86.12.25h.13c.43-.23.4-.3.61-.74zm-65.81.37.12.86.12-.24.12-.13-.24-.49zm97 .25-.61.49-.12.61.24.13c.69-.25.77-.64.73-1.23zm-2.69.24c-.08.13-.17.25-.25.37l.25.37h.12l.12-.37zm-87.72.13.37.36h.61l-.12-.24zm168.34 0-.25.12v.24l.74-.37h-.49zm-102.64.12-.12.24.36.25.37.24-.12-.61zm-1 .12c-.44.47-.72 1.07-1.47 1.23.2.71.49.84 1.35.86-.1-.81.59-1.75.12-2.09zm28.14.12c0 .17-.09.33-.13.49h.49c-.16-.46 0-.25-.36-.49zm27.28.13a1.52 1.52 0 0 0 .73 1zm28.38.12a1.11 1.11 0 0 0 .49 1h.12l-.12-.74-.49-.24zm-145.95.25c-.43.73-.6 1.14-1.59 1.35l-.24-1-.74.25.12.37 1.23.86a2.26 2.26 0 0 0 1.83-1.23c-.16-.44-.03-.41-.55-.6zm3.92 0-.37.36c.41.49.55.46.24 1.11a3 3 0 0 0 -2.44 1.35c1.17.1 1.4.76 2.57.49l.85-2.33c-.3-.44-.35-.72-.85-1zm55 .12v.61l.12.12.25-.12v-.12c-.16-.55.08-.25-.37-.49zm26.91 0c-.35 1.41.7 4.87-.12 5.53h-.73c.06-.7.17-1-.12-1.36l-.61.86-.86-.49-.12.13c.07.65.12.79-.12 1.22h-.86c-.2.69-.38 1.37-1.1 1.6-.14-.63-.18-1.06-.85-1.23a2 2 0 0 0 -1.11 1.23l.86.49c-.26.49-.43.43-1 .62v.49l.86 1-.12.25-1.47-.13a3 3 0 0 0 -2 2.83l.25.12h.12a27.86 27.86 0 0 0 1.83-2.21h.61a2.94 2.94 0 0 1 1.51 1.29c-.15 1-.52 1.14-1 1.72 1.41.14 1.39-.14 2.57-.49v.12l-.36 1.11.36.24.25-.12c.53-1.72 2.3-3.21 3.55-4.3l-2.33.25-.12-.12v-.37c.16-.17.33-.33.49-.49.77.06.75.17 1.22 0l-.49-.5 1.59-1.47-1.83-1c-.19.34-.18.28-.49.49l-.61-.25.24-1.1c1.37.06 2.15.73 3.3 1l1.72-2.46a3.3 3.3 0 0 0 2-.37l-.62-.61c-.28-1.21-.42-2.21-1.47-2.7l-.36.24c-.1.63-.1.58-.49.86-.45-.13-.36-.1-.61-.37v-1.1c-.81-.06-.75-.21-1.23-.49zm64.47 0v.49h.37v-.12a.88.88 0 0 0 -.37-.37zm-103.86.12.25.61h.48c-.16-.47 0-.25-.36-.49zm38.17 0 .12.61h.49l.12-.24-.12-.25zm-7.63.12v.49h.37zm4.28 0-2.28 1.48.12.49a5.58 5.58 0 0 0 2.94-1.35l-.12-.62zm-51.13.25-1.1 1.47-.37-.24c.11-.5.21-.36-.25-.62v.74c.57 1.42.54 3.7 1.23 4.91l2.44.62c0 .73.13 1 .62 1.23.27.22.42.23 1 .24v-.24c.67-1.43-2.11-7-2.93-8.11zm38 0-.24.12.24.49.49-.49zm5.26 6.14c.18 1.5 1.19 1.87.62 3.07h.36c.53-.24 1.41-.53 1.59-.86l-.61-.24.49-.62c1.13-.44 1.57-1.82 2.45-2.58l-.12-.24-.86-.25c-.09-2-1.81-2.68-1.35-4.3-.32.33-.65.66-1 1 .28.9.24.72 0 1.6l1.35.62-.24.36-1.11.25-.36-.74h-.37c-.72.54-1.2.54-1.22 1.84.49.33 1 .59 1.22 1.23h-.12zm53-6c.16.44.11.39.49.62zm-36.46.25v.49c.51-.19.3 0 .49-.49zm-106.07.24c.25.26.13.17.61.25-.19-.22-.12-.13-.56-.27zm4.9 0-.74.86.13.25.85.24v-.23a.8.8 0 0 0 -.19-1.14zm135.79 0a11.63 11.63 0 0 0 -.86.86c0 .21.09.41.13.62l1 .24-.86 1h.49c.63-.23 1-.3 1.22-1-.6-.41-.25-1-.12-1.72zm-128.16.12-.24 1.59a2.2 2.2 0 0 0 1.46-.37v-.49a1.28 1.28 0 0 0 -.49-.49zm154.76.12c-.08.24-.17.49-.25.74l.13.12.61-.49v-.13zm-167.48.61v.62l.37.12v-.47zm93.71.25c-.23.71 0 .9.37 1.35l.73.25v-.37a2.59 2.59 0 0 0 -1.1-1.23zm32.17 0c-.07.43 0 .36.13.74l.73.12-.49-.74zm-39 .24-1.47 1.23.12 1.48.25.12.49-.12c.3-.71 1-1.71.61-2.71zm41.84 0c-.08.33-.17.66-.25 1l.37.37.24-.13c0-.72 0-.94-.36-1.23zm-76 .13-.13.12.74.61h.36l-.24-.61zm57.49 0c.09.16.17.32.25.49l.49-.12c-.08-.13-.16-.25-.25-.37zm33.77.12c.24.33.14.24.61.37v-.12zm-.74.12v.62l.25-.13v-.08l-.25-.37zm-148.5.41-.12.12.24.25.61-.12v-.12l-.16-.13zm57.74.12.37 1.36h.24v-.86l-.36-.5zm61.66 0c-.12.61-.18.53 0 1h.17l.61-.62-.12-.37zm-101.54.25c.26.34.18.28.73.37v-.12l-.12-.25zm85.88.12-1 .49.12.25h.49c.32-.33.46-.28.37-.74zm39.27.13-.12.24c.33.16.23.06.49-.12v-.12zm-82.33.12c-.54.31-1 .39-1.35.86v.4l1.35-1 .85.37v-.37l-.24-.37zm-40.25.12-.49.25v.61l.24.25a1.58 1.58 0 0 0 1.1-.37v-.12c-.24-.43-.4-.42-.85-.62zm107.9.12c0 .41-.11.29.12.62.08-.13.17-.25.25-.37zm-73.4.13.24.86a1.46 1.46 0 0 0 1.35-.13c-.08-.12-.17-.24-.25-.37zm131.51.36-1 1c.15.37 0 .14.25.37.71.27 1.2-.2 1.71-.5v-.36l-1-.49zm-40.37.13c-.48.23-.78.25-1.1.61.62 1.94 2.52.51 3.67-.12 0-.08-.08-.17-.13-.25zm-85.52.24v.49h.13l.24-.49zm119.41 0c0 .29-.09.58-.13.86l.25.25h.12c.06-.62.18-.74-.24-1.11zm-107.39.07a2.05 2.05 0 0 0 1.1 2.09v-.37c-.22-.79-.29-1.46-1.1-1.71zm78.42.5a.9.9 0 0 0 .12.49h.46l.49-.49zm-129.92.24a21 21 0 0 1 -.61 2.22l1-.5c.11-.77.31-1.43-.42-1.72zm91.26.74-.24.74.24.12h.13l.11-.25c0-.57.2-.27-.25-.62zm-65.32.25v.61a.79.79 0 0 0 .48-.12v-.13zm46.48.12-.24.12c.07.49 0 .37.24.62l1 .12v-.12a1.56 1.56 0 0 0 -1-.74zm-19.82.61c-.16.72-.23 1 .49 1.23v-.6l-.49-.62zm60.56 0-.61.37.12.25 1.1-.25-.12-.24zm-81.72.13.37.61.24-.12v-.12l-.12-.25zm130.9 0a1.85 1.85 0 0 0 -.61 1.1 10.55 10.55 0 0 1 2.32.37v-.12c-.07-.57-.12-.83-.49-1.11zm-3.42.24a2.5 2.5 0 0 1 -1.47 1.11l.12.24h.24a3 3 0 0 0 2.21 0l.36-.49-.12-.37zm-86.37.49c.27.26.12.21.49.13zm-42.46.37a2.32 2.32 0 0 0 .13 1.48l.24.12.49-.25.12-.73c-.36-.38-.3-.48-1-.62zm-30.82.37-.49.74v.12l1.1.12v-.86zm29.48.12-.12 1.23c.44.33.48.49 1.1.37l-.37-1.35zm126.74 0c.25.26.12.17.61.25-.24-.2-.17-.16-.61-.25zm-159.28.13-.25.61a1.44 1.44 0 0 0 .49-.49zm90.89.12-.73.49.49.12 1-.37-.12-.24zm-110.71.24-.25.25.25.25.37-.37h-.26zm42.69.37c.05.5 0 .48.25.74h.12v-.49zm69.86 0c.06.44-.19.17.24.5l.37.12.12-.37-.17-.2zm-87.35.25c-.52.48-1.12.53-2.2.49.18.46.2.62.61.86a3.78 3.78 0 0 0 2.57 0 1.74 1.74 0 0 0 -.37-1.23zm151.58.37-1.1.74 1.22-.13c.09-.42.15-.31-.12-.61zm-61.78.12-.25.25.25.24.49-.37zm30.21 0c0 .25.09.49.13.74-.05-.25-.09-.49-.13-.74zm-27 .12c.22.43.1.33.61.49l.12-.24v-.12l-.12-.13zm46.24 0-.49.86.25.13.36-.25zm-144.72.37a18 18 0 0 1 -2.33 1.35 3.91 3.91 0 0 0 2.08 1.6 3.68 3.68 0 0 0 1.35-1 3.14 3.14 0 0 0 -.49-2h-.61zm92.6 0a1 1 0 0 0 .13.86 4 4 0 0 1 1.46.37l.13-.12v-1.11h-.13l-.61.62zm7.47 3.2c.18-1.39 1.19-1.91 2-2.71-.89-.74-2.52-.16-3.42.5l-1.22-.86c-1 .45-1.25.93-1.59 2.08-1 0-1.72.1-2.08.74a7.47 7.47 0 0 1 -.74 1.72l.86.86-1.1.37v1.6l-2.21.61a32.78 32.78 0 0 0 -3.67 2.21 8 8 0 0 0 .37 3.93c.75-.25.73-.55 1.47-.24.34 1.73 1.67 1.37 2.69 2.33l-.49.86c1.14.47 1.83 2.32 2.2 3.56 1.21-.27 2.45-.6 3.8.25v-.25c.22-.67-.23-1.09-.37-1.84a13.91 13.91 0 0 1 2.94.74l-1.11 1.23 2.94.36v-.12l-1.59-2 1-.5c.12-.94.24-1.88.37-2.82l2.08-.86.12.61.85-.86.62-.24v-.12c-.64-.07-.69-.11-1-.5.25-.76.62-1 .24-1.84-.58 0-.81 0-1.1-.24.35-.92.66-1.27.37-2.34l-.86-.24.49-1.6-1.83-1.35.12-.74c.25-.58.5-.74 1.22-.86-.27-.77-.6-.59-1.22-.74l-.12-.73zm-65.58-3.07-.24.36a2.62 2.62 0 0 0 2 1.36l.12-.13v-.37c-.73-.53-.99-1.01-1.94-1.22zm-6.36.36-.12.37a3.16 3.16 0 0 0 1.1 1.11l.25-.12v-.5c-.41-.43-.51-.68-1.23-.86zm-33.27.25v.74l.24.24c.34-.19.29-.18.49-.49zm53.58 0v.49l.49-.24zm54.2 0v.37l.49-.25v-.12zm35.72 0-.37.49h-1.71l.24 1.11.25-.13c.08-.44 0-.37.24-.61l.86.25.12.24-.86 1.48h.13l.36-.25a7.57 7.57 0 0 0 1.59-2.21l-.12-.37zm8.44 0-.24.49.36.49.61-.12c-.06-.61 0-.48-.36-.74zm-139 .37c-.07.43 0 .36.13.74h.12l.49-.13v-.12l-.37-.49zm82 .12-.24.49.24.25.37-.37zm55.91 0-.49.37a1.44 1.44 0 0 0 .49.49l.61-.49v-.12zm-18.11.37-.12.86.73 1.23c.89-.07 1.69-.37 1.84-1.23l-.74-.86-.48.49zm-47.22.86-.12.24v.12c.44-.13.36-.1.61-.37zm1.47 0c-.68 1.05-1.84 1.08-2.45 2.21l.86.86c-.61.42-1.47.32-2 .86a5.57 5.57 0 0 0 2 2.21c1.15-.89 1.52-2.27 2.69-3.32-.3-.28-.27-.19-.37-.73l.61-.37c.74.24 1.24.16 1.59-.37l-.12-.25-2.32-.12c-.1-.52-.11-.73-.49-1zm62.27 0v.49c.51-.19.3 0 .49-.49zm-12.6.86c-.13.37-.25.74-.37 1.1h-.12l-.12-.12c0-.59.11-.42-.13-.74l-2.64 1.26v.49c1.25 1.46 3.09 1.92 4.29 3.08l.24-.25c0-.89 1.05-1.3.86-2.46l-2.21.37-.24-.24a8.17 8.17 0 0 0 .73-2.46zm10.15.12c.19.57.26.69.86.86v-.12l-.37-.74zm-146 .12 1 .5c-.31-.39-.3-.43-1-.5zm93.22 0c-.59.35-1 .41-1.34 1a1.68 1.68 0 0 0 1 .86l.36-.25c-.14-.65.3-1.36 0-1.6zm59.83 0a2 2 0 0 1 -.13.25h.62zm-77.69.37a1.36 1.36 0 0 0 -.12 1l.25.13.48-.25-.12-.86zm14.68.12-.61.13v.49a1.51 1.51 0 0 1 .74 1c-1.24.49-.94 1.36-2.21 1.72v.43c.44.14.54-.19.61.62-.43.62-1.34 2.09-.73 2.94 1.72-1.2 3.2-4.48 2.81-7.24zm-41.47.13-.12.24.24.25.49-.37v-.12zm62.27 0-.37.49c-.57.92 1.33 1.5 2 .61l-.49-1-.24-.12zm26.92 0a1.27 1.27 0 0 0 .48 1h.13v-.12l-.61-.86zm-15.54.49c.13.45.1.36.36.61 0-.08.09-.16.13-.24zm37.19.24-.61.37a1 1 0 0 0 1.46.37c.05-.08.09-.16.13-.24s-.17-.25-.25-.37zm-117.45.13.25.73v.25h.5l.12-.37-.49-.61zm-1.1.24.25.86.73.12-.37-.36c-.19-.41-.24-.39-.61-.62zm99.46.12c.08.45 0 .38.25.62h.14v-.62zm-126.37.13-.12.86.24.24h.12c.07-.61.18-.74-.24-1.1zm56.15 0-.12.12.24.25h.37l.12-.25zm51.75 0-.49.37v.49a1.29 1.29 0 0 0 1-.62l-.49-.24zm-28.38.37-1.84.61-.61 1.47.74.74a3.57 3.57 0 0 0 2.32-1.6l-.24-1.22zm48.2 0a7.42 7.42 0 0 1 -.49 2.45h.12a1.38 1.38 0 0 0 .37-2.45zm-2.81.12c-.25.56-.53 1.19-.13 1.72l.25-.12zm-42.94.49c-.44.41-.69.51-.86 1.23h.49l.61-1.23zm-53.1.12-.49.37v.12h1v-.36zm13.95 0-.37.37.12.25h.12l.25-.13c0-.41.15-.18-.12-.48zm55.66 0c-.51.48-.73.47-1.59.37a3.11 3.11 0 0 1 -.24 1.72l.24.12a3.77 3.77 0 0 0 2.2-.12c.08-.33.17-.65.25-1zm-2.45.12-.24.62h.12l.61-.62zm10.28.25a1.45 1.45 0 0 0 1 .61l-.37-.61zm-37.8.25-.25.12v.45l.25.37h.25v-.62zm39.27 0-.12.61.12.12h.61l.49-.61v-.12zm-6.73.24-1.22 1.84c.26.41.13.37.73.5l.86-1.11c-.08-.48-.13-1-.37-1.22zm29.48.12.25.74c.44-.13.36-.1.61-.37l-.12-.37zm-149.49.5v1.35c.16.33.32.66.49 1l.24-.12v-.61a3 3 0 0 0 -.75-1.62zm85.76.25-.13.49.25.12.24-.12v-.13c-.21-.33-.06-.17-.4-.36zm2.81 0-.25.73h.13l.36-.24v-.13c-.17-.37-.01-.14-.26-.36zm37.31 0-.16.46h.12l.37-.37zm-79.88.12-.62.74v.12h1.11l.12-.25-.25-.61zm117.32.24-.49.86.12.13c.7-.13.61-.2.86-.74zm-38.78.62a2.46 2.46 0 0 0 -.74 1.47l.13.12.73-.61.24-.61c-.21-.44.07-.15-.36-.37zm-39.4.61.13.86h.24v-.12zm6.37.37a1 1 0 0 0 -.13.86h.34l.12-.49zm-83.44.12c.1.55.08.46.37.74zm105.7.25c-.13.52-.17.21.12.74h.13l1.71-.5-.12-.24zm-29.36.25-.37.49a1.31 1.31 0 0 0 .62-.49zm76 0-.24.12.12.61.24.12h.13l.24-.12c-.13-.54-.12-.47-.49-.73zm-33.4.24c-.91.85-2.76 4.12-2.32 5.65.16.47 0 .26.37.49l.49.13c.67-.67 2.55-5.39 1.46-6.27zm-36.21.49c.08.21.16.41.25.62h.49c-.13-.45-.1-.36-.37-.62zm29.61 0 .12.74c.23.46.41.51.86.74a1.75 1.75 0 0 0 -1-1.48zm-130.9.12v.62l.61.12v-.12l-.12-.49zm31 0a2.12 2.12 0 0 0 -.61.62l.24.49.37-.12.73-.74-.12-.24h-.61zm65.69 0a1.33 1.33 0 0 0 -.12 1h.86v-.49a.88.88 0 0 0 -.37-.37zm37.07.13-.86 1.47c.42.5.76 1.36 1.23 1.84l.37-.24.85-2.83a2.42 2.42 0 0 1 -1.59-.24zm-110.22.61c.25.27.16.23.61.37v-.08zm77.44 0a12 12 0 0 0 -1 2.21l-.37-.37c-.11 1 .08 1.55.73 1.11a2.76 2.76 0 0 0 1.1-2.95h-.48zm-84.78.12-.13.74h.49v-.49zm82.08 0-.36.62a3.83 3.83 0 0 1 -1.84.12c-.23.86-.67.61-1 1.35.67 0 .43-.21.74.25.6 1.21-.29 1.38.12 2.7.15.49.56.42.73 1.11-.62.11-.63.1-.85.61l-2.08-1c.32.49.65 1 1 1.47.21.72 0 1.48.24 2h.12l.49-.12c.65-.38.61-1.09 1.23-1.48l1.1-.37c-.34-.51-.38-.43-.37-1.1a8.06 8.06 0 0 0 1.34-6zm31.69.62a4.27 4.27 0 0 0 -1.35.86l.13.24.61-.12a1.56 1.56 0 0 0 .85-.86zm-125.52.25-.86.49v.36l1.35.5c.26-.49.4-.89-.12-1.23zm153.9.36v.37c.45-.08.37 0 .61-.24v-.13zm-54.68.49-.13 1.23.37-.12.37-.86-.25-.24h-.36zm30.09 1.48-.73.86h.73c.31-.23.32-.37.49-.74zm-34.25.49c-.23.28-.23.17-.37.61h.49l.37-.49zm32.54.86c-.31 1.34-.59 1-1 2.21l.37.25c-.67.12-.64.2-1 .61l-.49-.37a1.64 1.64 0 0 0 -.86-1.1v.24c-1.09 2.18 2.06 3.48 2.33 5.78h-.19l-1.34-1.35-.37-.13-.24.13v.49c.72.84.83 1.83 1.46 2.7v.37c-2 .25-3.94 1.44-3.3 3.81a3.53 3.53 0 0 0 1.71.73c2.79-1.44 6.1-8.73 5-13.14-.93-.33-1.25-.25-1.59-1.23zm-122.09.25-.25.86.37-.13zm91.5 0a2.65 2.65 0 0 0 .62 2.08l.85-.12.37-.24v-.13a2.33 2.33 0 0 1 -1.35-.61 1.24 1.24 0 0 0 .13-1zm2.57.12c-.15.56-.28.69 0 1.1l.37-1.1zm-107.29.12a1 1 0 0 0 .13.86h.36l.13-.12v-.61h-.25zm11.38.12c-.4.38-.66.48-.86 1.11h.37c.59-.27.85-.34 1-1.11zm97.09.01c-.13.52-.18.21.12.74l.86.25c-.17-.67-.36-.79-1-1zm19.69 1.11a5.36 5.36 0 0 1 -3.18 1.23l.12.24 2 .86c.39-.67 1.28-1.59 1.1-2.33zm-21 .24.25.5h.36c0-.09.09-.17.13-.25s-.09-.16-.13-.25zm1.47 0v.5c.66-.11.42.09.61-.5zm-19.45.13-.12.37h.24l.73.12.13-.25v-.12l-.13-.12zm-29.73.24-.25.12.13.37c.72.17 1 .31 1.22 1 .55-.26.79-.34 1-1zm-48.45.12-.12.5h.12l.37-.25zm88.94.86-.24.25.24.25.37-.25zm-46.73.62.12.74zm-28.75.12-.49 1a.94.94 0 0 0 .37-.37c.18-.3.2-.3.12-.62zm56.89 0-.25.37h.37v-.37zm14.92.5c-.24 1.15.56 1.69.74 2.7l-.37 2h.12l.25-.12c.45-1.64 1.9-2.3 2.69-3.68-.71 0-2.69.12-2.69.12h-.25c-.26-.19-.2-.75-.49-1zm-8 .36-.12.25c.33.16.23.05.49-.12zm-88.33.37v1.11a.94.94 0 0 0 .37.37l.25-.13-.13-.86zm59.34.74a1 1 0 0 0 .12.86l.37.12h.36c-.16-.67-.27-.82-.89-.99zm-2.57.12-.86.62c.2.31.15.29.49.49l1.22.37-.73-.86h.61l-.12-.5zm-64.23.62a1.28 1.28 0 0 0 .49 1.1l.25-.12-.13-1zm83.19.12a1.25 1.25 0 0 0 -.12.74l.24.24c.71-.09.71-.09.86-.74a2 2 0 0 0 -1-.24zm25 9.83c0 .87-.14 1-.61 1.35l-.49-.62a2.77 2.77 0 0 0 0-1.84l-.25-.12-.49.37a7.71 7.71 0 0 1 -1.22 2.33v-.25c-.21-.57-.41-1.14-.61-1.71h-.13l-1.83 1-.37-.12v-.49a7.45 7.45 0 0 1 2.45-1.72c-.05-.49 0-.48-.25-.73l-1 .73-.24-.12.24-1.47c-4.63 1-1.93 9.13-.24 11.3-.68.41-.41 1.24.12 1.72l.49-.49c.08.41.16.81.25 1.22 2.9-.65 4-3.87 6.36-5.15 1.16-.65 3.53 0 4.65-.37v-.49l-.49-.74a5.18 5.18 0 0 1 -2.69-1.11 1.58 1.58 0 0 1 -.62 1.11h-.49l-.36-.37c-.46-1.69.43-2.36 1.1-3.56l-.74-.25c.09-1.94 1.14-2.53 1.1-4.42 1.08.37.7-.33 1.47-.61.18-.07.88.32 1.35.24l.12-.49-1-.49v-.12h.22c.89-.31 1.21.3 2-.13a5.3 5.3 0 0 0 -.49-2.45l-.24-.13a1.86 1.86 0 0 0 -1 .25 2.08 2.08 0 0 1 -.37 1.47 2.85 2.85 0 0 0 -2.32-.36 2.4 2.4 0 0 1 -1 1.59l-.25-.12-.12-1.11c-1 0-1.4-.4-1.83-.36-.34.26-.29.18-.37.73l-1-.61a10.77 10.77 0 0 0 -1.71 2.46l.49.86 1.59-.13c-.19 1.71 1.38 2.55 1.59 4.43h-.25l-.6.12zm-15.3-8.48v1l.37-.12.12-.37zm47 .61v.5h.13l.24-.5zm-9.66.5-.24.27c.33.16.23.06.48-.12l-.36-.12zm5.75.24v.74l.36.12.25-.12v-.37zm-129.19.74v.37l.49.24v-.37zm-2.94.12-.12.25h.61zm-2.81 1a2.76 2.76 0 0 0 -.61.62l-.12.49 1.46 1.47.62-.12a.93.93 0 0 0 .49-1.35l-.86-1.11zm30.71.74-.25.12v.31h.49l.37-.24-.12-.25zm72.42.37-.12.61.24.13.12-.25zm-106.53.06-.25.13v.36h.12c.34-.38.35 0 .13-.49zm108.63.25a2.26 2.26 0 0 0 1.1 1.35v-.12a2.25 2.25 0 0 0 -1.1-1.23zm6 1.6c-.14.46-.17.21 0 .73l.24-.12v-.12zm-112.92.24c-.08.25-.16.49-.25.74l.49-.12c-.07-.45-.05-.38-.24-.62zm13.95.25c0 .08-.09.16-.13.24.34.16.24.06.49-.12v-.12zm-8.57.61a2.4 2.4 0 0 1 -1.47.62l.25.36 1.71.25v-1.08l-.49-.12zm10.77.25-.13.12a9 9 0 0 0 1.72 1.72l.24-.12v-.49c-.16-.33-.32-.66-.49-1l-1.34-.24zm79.52.24-.25.13v.43l.37.13.61-.37v-.12l-.73-.13zm-24.72.25-.36.12.24.49a1.44 1.44 0 0 0 .49-.49zm1.11.12c-.43.41-.64.53-.49 1.23l1.46-.25c-.19-.49-.6-.69-1-1zm65.45 0-1 .25v.49l.12.37a2.73 2.73 0 0 0 2.45.61l-1-1.72zm-111.45.37c-.47.24-1.36.25-1.72.61l-.12.37.37.12h1.1l.61-.61c-.11-.45 0-.25-.24-.49zm72.42.37-1.35 1.35v.12l.74 1.35h.24c.16-.86.69-2 .37-2.82zm-65.57.24v.74h1.22l.12-.49-.24-.25zm-14.8.74a1.65 1.65 0 0 0 .61 1.6l.37-.25c.38-.93 1.12-1 1.83-1.59v-.13l-.12-.24a9.3 9.3 0 0 1 -2.69.64zm5.62 0-.24.12v.37h.15c.33-.38.35 0 .12-.49zm91.14.12-.24.62.49.37c.44-.23.4-.3.61-.74l-.12-.25zm21.17.37c.09.55.07.46.37.74h.12a1 1 0 0 0 -.49-.74zm-113.65.12-1.23.5v.36l.37.13a1.3 1.3 0 0 0 1.22-.13c0-.24.09-.49.13-.73zm48.2 1-.61.61.12.25.37-.13.36-.49zm-52.73.37c0 .4-.11.28.12.61l.25-.25a.86.86 0 0 0 -.37-.36zm98.48 0-.36.49v.12c.54-.15 1-.32.36-.61zm-101.78 1.22-.61.25.24.12a1.46 1.46 0 0 0 1 .25c-.08-.21-.16-.41-.25-.62zm7.46 0c.1.65.08.65.61.86l.12-.24-.36-.62zm15.54.13.36 1h.37l.37-.61c-.08-.13-.16-.25-.25-.37zm-.61.61-.74.74.12.24.62-.12c.47-.23.48-.27.61-.86zm-10 .12c0 .59-.25.35.37.62l.12-.37v-.12zm27.77.13a.92.92 0 0 0 .13.49h.36l.13-.25c-.25-.19-.17-.16-.62-.24zm-14.68.24c-.49.8-1.26.81-1.83 1.48v.56c.55-.07.56.11 1.22.24.41-.25.36-.31.86-.24a3.84 3.84 0 0 1 .37-1.84l-.62-.13zm30.83.25-1.1.24v.5a2.48 2.48 0 0 1 1.84 1l1.22-1.11-.24-.49-1.72-.12zm-49.3.12c-.12.17-.24.33-.37.49l.74 1 .37-.25v-.49l-.49-.74zm-5.87.25-1.06 1.42a2.81 2.81 0 0 0 1.35-.74c-.1-.61.08-.36-.37-.61zm97 0c-1.9.9-6.59 4.51-7.34 6.26-1 2.38-.17 10.72.49 13.15l1.59 4c.21 2 .41 4 .61 6l.49-.37c.65-1.75 2-4.69 3.43-5.77h.12a2.72 2.72 0 0 0 2.33 1.23 1.94 1.94 0 0 0 .61-1.6c1.77-.33 2.77-1.61 4-2.46l4.29-2.45c3.55-2.63 8.51-10.48 9.54-15.48l-3.06-1c-1.53-.49-4.68 1.24-4.89 1.36-.17.36-.33.73-.49 1.1l-7-2.09c.27.65.76.58 1.23 1-.17.24-.33.49-.49.73l-2.94 1v-.36c.41-1-.14-1.23-.61-2l.12-.61 1.84-.86c-.08-.13-.16-.25-.25-.37h-.12a3.53 3.53 0 0 0 -1.71.74l-.25-.13-.12-1.1zm-99.46.49-.24.12.24.49.25-.12zm82.82 0-.36.37c.26.37.2.35.73.49.08-.25.16-.49.25-.74zm24.23.12c-.08.21-.17.41-.25.62h.12l.37-.37zm2 .25c-.07.49-.16.32.25.61h.61v-.05l-.12-.49zm4.29 0 .24.73.25-.24zm-106.93.24v1.11h.37l.25-.86-.25-.25zm3.31.13c-.08.16-.17.32-.25.49l.12.61.13.12.24-.12c0-.58 0-.84-.24-1.1zm6.24.12-.49.37c.35.45.57.52.73 1.23l1-.37v-.25c-.66-.27-.66-.66-1.22-1zm65.57.74-.25.12c.34 2-.35 1.71-1.83 2.45a2.92 2.92 0 0 0 .73 1.36c-1.37 1.86.11 1.43-.24 3.07-.17.33-.33.65-.49 1h.24c.58.23.91.1 1.23.61-.09.78-.17 1.56-.25 2.34.33 1.13 6.27 8 7.22 8.72l.24-.25-1.95-14.74-.74-.61c-.52-1.24 1-2.53-.49-3.93l-.24.12a9.33 9.33 0 0 1 -1.35 2.09l-.24-.12a3.41 3.41 0 0 0 -.62-2.21zm-29 3.07h-.73c.2-.58.41-1.15.61-1.72l-1.22-1.11a1.81 1.81 0 0 1 0 1.48l-.74.36.37 1.72-.49.62-3.3-.13a8.9 8.9 0 0 0 -2.2 3.08l.24 1 .25-.12a1.52 1.52 0 0 1 1.83-1.35v.12c-.41.82-.81 1.64-1.22 2.45h.12c1.54-.84 1.45-2.52 2-2.82 1.17-.69 2.74 0 3.67-.61.23-.91.84-1 1.47-1.48a1.63 1.63 0 0 1 -.74-1.47zm-47.71-2.58-.85 1.23v.36h.12l1.1-.86v-.49zm53 0c-.17.53-.33 1.06-.49 1.59l1.71-.86c-.16-.47 0-.25-.37-.49zm-4.29.37-.49.86c.17.2.33.41.49.61h.13v-.25a1.17 1.17 0 0 0 -.13-1.22zm-10 1.59c0 .29 0 .16.12.49h.13c.44-.07.37 0 .61-.24l-.12-.25zm-39.76 1.48c.1.54.08.45.37.73h.12l.12-.37-.24-.36zm52.12 2.82a4.11 4.11 0 0 0 -.25 1.84l1.1-1-.12-.86zm-7.46.13.12 1.1c.7-.21.63-.41.49-1.1zm10.27.36a3.31 3.31 0 0 1 -2.2 1.23c.67.87 1.46 1.25 1.59 2.7 1-.22 1-.76 1.47-1.47-.16-.8-.22-2.09-.86-2.46zm-17.49.25-.13.49h.13l.36-.37v-.12zm-1.59.24v.74h.12c.34-.19.29-.18.49-.49-.24-.2-.17-.16-.61-.25zm-2.94.5-.12.24.49.12v-.36zm11.26 1.22.73-.12v-.12l-.12-.49-.49-.13-.12.13zm3.05-.36a2.79 2.79 0 0 0 -1.22.86c.08.2.16.41.25.61h.38l1.59-1.35v-.12h-1.11zm-5.87.24-.61.62.12.61h.61l.16-.23c0-.67 0-.71-.37-1zm-5 .12c0 .17-.08.33-.13.5h.13l.36-.25zm5.87.86c-.69 1.16-.49 3.57-.25 4.8l.74-.13c.12-.24.24-.49.37-.73-.17-.7-.33-1.4-.49-2.09a2.65 2.65 0 0 0 1.22-1.72h-.12c-.74.38-.56.12-1.47-.13zm-9.18.13c-.26.51-.42.73.25 1l.12-.25.12-.36-.49-.37zm4.9 0c-.17.28-.33.57-.49.86l.36-.13c.12-.41.21-.38.13-.73zm-6.73.24-.12 1h.12l.12-.25.37-.61-.49-.13zm3.18.13-.49.49h1l.12-.49zm12.48.12c-.08.53-.17 1.06-.25 1.6h.01l.24-.13c.12-.32.25-.65.37-1a2.28 2.28 0 0 0 -.49-.49zm24.1.61-.74.49a3.93 3.93 0 0 0 1.11 2.95l.24-.24a6.14 6.14 0 0 0 -.12-3.07zm-6.36.62c-.13.16-.25.32-.37.49l-.12.37.24.12.61-.74zm10.52.12c-.66 1.68-.34 11.67.24 14.13.93 3.9.67 7.36 1.47 11 1 4.82 2.23 9.08 3.3 14.13q.32 3.26.61 6.51l1.47 4.05c.34.93 1.16 3.54 2.33 2.21q.48-4.6 1-9.21c1.44-8.13 2.3-23.18-.74-30.59-.82-2-2.54-2.77-3.55-4.42-1.2-2-4.13-7.09-6.11-7.86zm-13 .12c-.08.21-.16.41-.25.62h.13c.27-.26.23-.17.36-.62zm-34.13.25c-.29.69-.57 1.39-.86 2.09h.12l.74-.25a3.78 3.78 0 0 0 -.49 2.09l.36.12a3.52 3.52 0 0 0 2-.37l.12-.24-.12-1.11-.24-.12c-.63.25-.6.47-1.23.49v-.49a2.12 2.12 0 0 0 .62-.61l-1-1.6zm9.66 0-.12.24c.33.17.23.06.49-.12zm1.71.24v.5c.5-.05.48 0 .74-.25l-.25-.12zm-5.87.86-.12.74h.25l.36-.49c-.24-.2-.17-.16-.61-.25zm-7.83.25-.24.37.61.74h.37l.12-.13c0-.65 0-.59-.37-.86zm12 .12c-.52.53-1.39.19-1.83.62.2.53.4 1.06.61 1.59a4.38 4.38 0 0 0 3.18-.24l.12-.37c-.52-.39-.19-.76-.37-1.35-1 .46-.8.09-1.71-.25zm-7 .37.24.62.62.12v-.12c-.2-.32-.16-.3-.49-.5zm1.34.12-.12.62.12.12.37-.24v-.13c-.22-.44.07-.14-.37-.37zm28.88.5c-.09.16-.17.32-.25.49l.25.24.36-.37zm-34.38.73-.25.62h.13c.27-.26.23-.17.36-.62zm15.17.62a7 7 0 0 1 -2.45.61l-.12 1.35c-.61.07-.47 0-.73.37v.61l.24.13.37-.25c.72-1.47 2.52-1.23 3.55-2.33-.05-.17-.09-.33-.13-.49zm1.71 0-.12 1.59h.37c.51-.17.71-.17 1-.61v-.74zm-25.44.36c-.05.25-.09.5-.13.74h.13l.36-.24v-.13c-.19-.33 0-.17-.36-.37zm8.31.37v.37l.37.12c-.16-.47 0-.25-.37-.49zm10.77 0v.37h.12l.37-.24v-.13zm-28 .62-.49.24c.05.17.09.33.13.49l1-.12v-.09c-.24-.33-.2-.31-.62-.49zm31.32.86-.24.61.49-.12c-.11-.45 0-.25-.25-.49zm3.43 0c-.41.35-1 .39-1.35.86v.61h.49l.74-.24c.15-.54.37-1 .12-1.23zm-16.39.73-.62.25-.12.25c.2.31.15.29.49.49l1.35.24v-.3l-.37-.74-.73-.13zm10.41 2.93.12.86c.3 0 .25 0 .61-.24v-.13l-.24-.49zm55.29 5.53a1.62 1.62 0 0 1 -.24 1.11l.61-.62v-.24z" fill="#5b4d42" fill-rule="evenodd" transform="translate(-786.07 -693.79)"/></svg>