<svg width="26" height="26" viewBox="0 0 26 26" fill="none" xmlns="http://www.w3.org/2000/svg">
<path d="M25.7758 17.5681L25.7758 7.9855C25.7758 3.5759 22.1688 -1.57667e-07 17.7209 -3.52092e-07L8.05494 -7.74603e-07C3.607 -9.69028e-07 1.75104e-06 3.5759 1.55829e-06 7.98549L1.13942e-06 17.5681C9.46674e-07 21.9777 3.607 25.5536 8.05493 25.5536L17.7209 25.5536C22.1688 25.5536 25.7758 21.9777 25.7758 17.5681ZM8.05493 23.1579C4.94573 23.1579 2.41648 20.6505 2.41648 17.5681L2.41648 7.98549C2.41648 4.90309 4.94573 2.39565 8.05494 2.39565L17.7209 2.39565C20.8301 2.39565 23.3593 4.90309 23.3593 7.9855L23.3593 17.5681C23.3593 20.6505 20.8301 23.1579 17.7209 23.1579L8.05493 23.1579Z" fill="#808084"/>
<path d="M19.3319 12.7771C19.3319 9.24908 16.4467 6.38867 12.888 6.38867C9.32932 6.38867 6.44405 9.24908 6.44405 12.7771C6.44405 16.3051 9.32932 19.1655 12.888 19.1655C16.4467 19.1655 19.3319 16.3051 19.3319 12.7771ZM8.86053 12.7771C8.86053 10.5763 10.6681 8.78432 12.888 8.78432C15.1095 8.78432 16.9155 10.5763 16.9155 12.7771C16.9155 14.9779 15.1095 16.7698 12.888 16.7698C10.6681 16.7698 8.86053 14.9779 8.86053 12.7771Z" fill="#808084"/>
<circle cx="19.4733" cy="6.2629" r="1.5505" fill="#808084"/>
</svg>
