<svg height="649.42" viewBox="0 0 1978.2 649.42" width="1978.2" xmlns="http://www.w3.org/2000/svg"><g transform="translate(8.48 -194.69)"><path d="m1949.43 756.84v-196.46l3.55-9-1.52-7.43-.51-7.43 8.62-4.25-9.63-6.37-.51-27.61 20.28-13.81-13.18-12.74h-5.53l-5.58-3.72.51-12.74-1.52-11.68-6.09-3.72.51-4.25 1.52-6.9-3-6.9s-2-10.09 1-14.34-2-4.25-2-4.25v-8l-3-4.25v-6.9l-3-4.78-2 8.49v9l-3.55 8-2.54 6.91-2.53 7.43 1.52 8s-1.52 8.49-1.52 10.08 1.52 12.75 1.52 12.75l-6.59 8.49-6.59-2.65-1-23.36 3-12.75-4.56-6.37s-6.59-9.56-5.58-10.62 3.55-6.9 3.55-6.9l-4.06-5.84-3-6.37v-25.52l1.67-2-31.72-25.19s-47.47-29.7-53.37-31.89c-2.83-1.05-10.72-21.66-18.15-43.62l-10.25 1.82-21.3.53-20.3-3.73-22.31-9.56-27.89 3.19v9l-2 4.78 2 9v5.84l2 13.27-4 6.48 5.07 5.85a39 39 0 0 0 4.06 3.71l-4.56 6.9 3 10.62-3.55 6.38 11.18 9.54-2.54 5.31 2 33.45-7.61 11.69-6.59 3.71s2 48.32 2 49.92-7.61 6.37-7.61 6.37l-1 13.27h-398.02v-13.8h-612v13.8h-398.12l-1-13.27s-7.61-4.78-7.61-6.37 2-49.92 2-49.92l-6.59-3.71-7.61-11.69 2-33.45-2.49-5.31 11.16-9.55-3.55-6.45 3-10.62-4.56-6.9a39 39 0 0 0 4.06-3.71l5.07-5.85-4.06-6.37 2-13.27v-5.84l2-9-2-4.78v-9l-27.89-3.19-22.24 9.53-20.29 3.71-21.3-.53s-38.54-6.9-40.06-6.9-16.73-4.28-16.73-4.28l-10.15 7.44-15.67 1.63-20.28-4.25-7.61 10.62 2 11.15-2 14.34-15.72 8.49 1 4.78 6.61 5.31v15.4l3 5.31v27.08l4.06 4.78v25.49l-3 6.37-4 5.84s2.53 5.84 3.55 6.9-5.58 10.62-5.58 10.62l-4.56 6.37 3 12.75-1 23.36-6.59 2.65-6.59-8.49s1.52-11.15 1.52-12.75-1.52-10.08-1.52-10.08l1.52-8-2.54-7.43-2.53-6.91-3.55-8v-9l-2-8.49-3 4.78v6.94l-3 4.25v8s-5.08 0-2 4.25 1 14.34 1 14.34l-3 6.9 1.52 6.9.51 4.25-6.09 3.72-1.52 11.68.25 12.71-5.58 3.72h-5.58l-13.18 12.73 20.28 13.81-.51 27.61-9.63 6.37 8.62 4.25-.51 7.43-1.52 7.43 3.55 9v196.49l-8.11 3.72-3 17 8.12 6.37v60.2h1943.66v-60.2l8.11-6.37-3-17zm-1824.54-377.24h-21.81v-37.52l3.55-6.09 5.58-5.07 7.1 1 6.59 6.08zm46.65-2h-23.33v-35.5a9.64 9.64 0 0 1 2-5.07l5.58-5.07 8.11-.51 4.57 4.05 3 6.6zm46.66 1-25.87-2v-34.52l3.55-7.61 5.58-4.56 7.1-.51 4.56 3.55s4.57 7.61 5.08 9.13 0 36.51 0 36.51zm1550.7-2-25.87 2s-.5-35 0-36.51 5.08-9.13 5.08-9.13l4.56-3.55 7.1.51 5.58 4.56 3.55 7.61zm44.12 1h-23.33v-35.5l3-6.6 4.57-4.05 8.11.51 5.63 5.04a9.64 9.64 0 0 1 2 5.07zm45.13 2h-21.81l-1-41.58 6.59-6.08 7.1-1 5.58 5.07 3.55 6.09z" fill="#998471"/><path d="m1286.63 399.89s.23-10.09.53-17.3v-8c-2.06-2.27-9.65-6.61-9.65-6.61l-10.65-12.68 1.52-11.66-1-9.64-7.1-2-4-2 2-3.55 7.1-5.07-2.8-7.53s-5.32-4.14-6.84-5.15 1.52-11.16 1.52-11.16l5.07-3 4.06-3 4.51-6.18-7-2.95-4 .51s-2-7.1-2-9.13-5.07-3.55-5.07-3.55l-4.57-2.54v-6.59l-2-9.13a43 43 0 0 0 -6.09 6.59c-2.54 3.55 1.52 4.06 2 5.58s-6.59 5.07-8.12 6.09-10.14 2.53-10.14 2.53l3.55 8.12 2.54 9.12 3 4.57-2.54 14.71-8.11 6.59-3.55 7.6 5.07 5.58-6.59 3.55 2 5.58 1 32.46h-479.28l1-32.65 2-5.58-6.59-3.55 5.07-5.58-3.55-7.6-8.12-6.59-38 34.48 1.52 11.66-10.65 12.68s-7.59 4.34-9.65 6.61v8c.3 7.21.52 17.3.52 17.3v58.82h-.52v385.47h613.09v-385.41h-.53v-58.82z" fill="#8c7867"/><path d="m1156.81 310.18a104.4 104.4 0 0 0 -6.4-31.64c-1.45 3.93-2.73 7.39-3.69 10a97.55 97.55 0 0 1 3.71 19.12h-6.89v-12.97l-1.93 1.9v11h-6.4v-7.92h-1.93v7.92h-7v-7.92h-6.28v7.92h-8.82v-23.29l-1.94-1.76v25.09h-7.59v-56.88l-1.94-2.44v59.32h-7.6v-58.63l-1.93 3.69v54.94h-8.44v-40.56l-6.24 9.38v31.18h-9.09v-17.52l-1.93 1.18v16.34h-8.23v-11.35l-1.93-.93v12.28h-8.23v-39.37l-1.94-5.14v44.51h-8.51v-64.63l-6.24-13v77.65h-11.4v-49.48l-1.94-2.8v52.26h-8.22v-47.5l-1.94 2.79v44.71h-8.2v-33.39l-1.94 2.53v30.86h-11.22v-41.82l-6.54 5.89v35.93h-11.21v-14.28h-1.93v14.28h-8.23v-35.34l-1.93-1.88v37.22h-8.23v-77.88l-1.93-.34v78.22h-11.4v-95.37l-6.24 12.34v83h-8.52v-41.09h-1.93v41.14h-8.23v-89.23l-1.93 2.16v87h-8.23v-72.46l-1.94-3v75.48h-9.12v-87.5l-6.24-6.92v94.42h-8.43v-106.13l1.1-1.11-2.17-5.67a298.07 298.07 0 0 0 -34.87 39.54h-.13v.17c-15.75 21.72-29.62 48.4-30.54 75.78h-3v64.21h357.38v-64.21zm-337.81-2.55h-6.88a106 106 0 0 1 6.88-28.57zm8.33 0h-6.33v-33.37c1.92-4.51 4.07-8.95 6.39-13.28zm8.95 0h-7v-50.17c2.22-3.95 4.58-7.81 7-11.55zm15.07 0h-8.83v-70.83c2.92-4.07 5.89-8 8.83-11.63zm9.53 0h-7.6v-84.85c2.59-3.17 5.14-6.15 7.6-8.95zm9.53 0h-7.59v-96c2.68-3 5.23-5.73 7.59-8.18z" fill="#a18a76"/><path d="m40.2 446.54s1.52-10.65 1.52-12.17-1.52-9.63-1.52-9.63l1.52-7.61-2.54-7.13-2.53-6.59-3.55-7.61v-8.62l-2-8.11-3 4.56v6.59l-3 4.06v7.61s-5.08 0-2 4.05 1 13.7 1 13.7l-3 6.59 1.52 6.59.51 4.06-6.09 3.55-1.52 11.15.51 12.17-5.58 3.55h-5.75l-13.18 12.2 20.28 13.19-.51 26.37-9.63 6.08 8.62 4.06-.51 7.1-1.52 7.1 3.55 8.6v187.65l-6.44 2.82h46.4v-289.73l-5 1.92z" fill="#a18a76"/><path d="m1949.94 519.06-.51-26.37 20.28-13.19-13.18-12.17h-5.53l-5.58-3.55.51-12.17-1.52-11.15-6.09-3.55.51-4.06 1.52-6.59-3-6.59s-2-9.64 1-13.7-2-4.05-2-4.05v-7.61l-3-4.06v-6.59l-3-4.56-2 8.11v8.62l-3.55 7.61-2.8 6.56-2.53 7.1 1.52 7.61s-1.52 8.11-1.52 9.63 1.52 12.17 1.52 12.17l-6.59 8.12-5-1.92v289.76h46.4l-6.44-2.82v-187.65l3.55-8.62-1.52-7.1-.51-7.1 8.62-4.06z" fill="#a18a76"/></g><path d="m1917.95 222.4v2.17l.41-1.63z" fill="#a18a76"/><path d="m60.24 224.57v-2.17l-.4.54z" fill="#a18a76"/><path d="m864.75 547.62h65.52a0 0 0 0 1 0 0v145.06a32.76 32.76 0 0 1 -32.76 32.76 32.76 32.76 0 0 1 -32.76-32.76v-145.06a0 0 0 0 1 0 0z" fill="#756555" transform="matrix(-1 0 0 -1 1803.5 1078.36)"/><path d="m946.34 547.62h65.52a0 0 0 0 1 0 0v145.06a32.76 32.76 0 0 1 -32.76 32.76 32.76 32.76 0 0 1 -32.76-32.76v-145.06a0 0 0 0 1 0 0z" fill="#756555" transform="matrix(-1 0 0 -1 1966.67 1078.36)"/><path d="m1033 547.62h65.52a0 0 0 0 1 0 0v145.06a32.76 32.76 0 0 1 -32.76 32.76 32.76 32.76 0 0 1 -32.76-32.76v-145.06a0 0 0 0 1 0 0z" fill="#756555" transform="matrix(-1 0 0 -1 2139.94 1078.36)"/><path d="m1114.22 547.62h65.52a0 0 0 0 1 0 0v145.06a32.76 32.76 0 0 1 -32.74 32.76 32.76 32.76 0 0 1 -32.76-32.76v-145.06a0 0 0 0 1 0 0z" fill="#756555" transform="matrix(-1 0 0 -1 2302.43 1078.36)"/><path d="m791.58 547.62h65.52a0 0 0 0 1 0 0v145.06a32.76 32.76 0 0 1 -32.76 32.76 32.76 32.76 0 0 1 -32.76-32.76v-145.06a0 0 0 0 1 0 0z" fill="#756555" transform="matrix(-1 0 0 -1 1657.15 1078.36)"/><path d="m1297.06 264.02h395.68v299.93h-395.68z" fill="#a18a76"/><path d="m285.46 264.02h395.68v299.93h-395.68z" fill="#a18a76"/><path d="m301.87 532.37v16.14h-289.7v100.91h289.7 687v-117.05z" fill="#8c7867"/><path d="m1676.33 532.37v16.14h289.7v100.91h-289.7-687v-117.05z" fill="#8c7867"/><g transform="translate(8.48 -194.69)"><g fill="#8c7867"><path d="m1284.18 508.61.11-32.77h57.47v-14.38l-4.28-4 5.5-2.87 6.73-14.38 7.34.58 4.28 9.2 7.34 4.6 1.22 4.59c-4.28 2.3-7.34 4-7.34 4v12.65h65.45v-14.37l-2.45-5.17c4.28-1.72 9.17-16.1 9.17-16.1l8-1.15.61 9.2 6.73 6.33-2.45 6.32v12.11l67.87-.57v-9.2l-5.5-5.75 5.5-2.3 5.51-6.32 2.44-5.75h5.5l3.06 7.47 6.12 6.38-6.73 7.42 1.22 7.47-.67 4h69.77v-11.22l-4.9-7.71c3.06 0 1.84-.63 2.45-2.35s2.45-8.05 2.45-8.05v-13.8l7.33-4 4.28 10.92 3.06 10.92 7.34 6.38-4.28 2.53v16.39h304.46l-4.24 9.61v29.7h-635.36v-6.54z"/><path d="m677.05 508.61-.11-32.77h-57.47v-14.38l4.28-4-5.51-2.87-6.72-14.38-7.34.58-4.28 9.21-7.34 4.6-1.22 4.59c4.28 2.3 7.34 4 7.34 4v12.65h-65.43v-14.38l2.45-5.17c-4.28-1.72-9.17-16.1-9.17-16.1l-7.95-1.19-.61 9.2-6.73 6.33 2.45 6.32v12.15l-67.87-.57v-9.2l5.5-5.75-5.5-2.3-5.51-6.32-2.44-5.75h-5.51l-3.05 7.47-6.12 6.38 6.73 7.42-1.22 7.47.66 4h-69.76v-11.22l4.89-7.71c-3.05 0-1.83-.63-2.44-2.35s-2.45-8.05-2.45-8.05v-13.8l-7.33-4-4.27 10.9-3.06 10.92-7.34 6.38 4.28 2.53v16.39h-304.47l4.24 9.61v29.7h635.29v-6.54z"/><path d="m231.53 383.75c1.62 2 4.06 8.12 4.06 8.12v8.54l2.43 7.31-.81 9.75-2.84 9.34 3.25 6.5.38 7.69 4.07 1.62v4.47c-2.44 2-2.44 11.78-2.44 11.78h21.53l-.41 6.91-3.65 5.28-3.23 4.94-4.47.41-4.06 2.46-3.25 6.07c-1.63 2.84-2.85 11.78-2.85 11.78l2.85 3.65-2.85 5.28v215.3l7.11 5.28v26.77h-34.35v-23.16l6.5-6.5v-216.1l-1.63-4.06c-3.25-3.25-1.62-4.47-1.62-4.47s2.84.81 2.84-.41v-14.62l-6.09-2.44s.81-.75 0-2.41-4.06-3.28-5.28-3.68-4.88-2-4.88-2v-4.88l-3.25-2.43a7 7 0 0 1 -2-6.91h21.53v-11.81s-2-.41-3.25-.81-3.66-2.85-3.66-2.85l7.21-4.46v-8.13a47.93 47.93 0 0 0 0-6.9c-.3-2.85-2.14-6.1 0-7.72s2.54-7.72 2.54-7.72l-2.54-7.31 5.79-4.06s3.66-6.1 2.44-7.72a35.08 35.08 0 0 1 -2.84-5.69l.4-4.15z"/><path d="m91.14 383.75c1.63 2 4.06 8.12 4.06 8.12v8.54l2.44 7.31-.81 9.75-2.83 9.34 3.25 6.5.41 7.72 4.06 1.62v4.47c-2.44 2-2.44 11.78-2.44 11.78h21.53l-.4 6.91-3.66 5.28-3.27 4.91-4.47.41-4.01 2.42-3.25 6.07c-1.62 2.84-2.84 11.78-2.84 11.78l2.84 3.65-2.84 5.28v215.3l7.11 5.28v26.81h-34.38v-23.16l6.5-6.5v-216.1l-1.62-4.06c-3.25-3.25-1.63-4.47-1.63-4.47s2.85.81 2.85-.41v-14.62l-6.1-2.44s.82-.75 0-2.41-4.06-3.28-5.28-3.68-4.87-2-4.87-2v-4.88l-3.25-2.43a7 7 0 0 1 -2-6.91h21.5v-11.81s-2-.41-3.25-.81-3.66-2.85-3.66-2.85l7.17-4.46v-8.13a47.93 47.93 0 0 0 0-6.9c-.3-2.85-2.14-6.1 0-7.72s2.54-7.72 2.54-7.72l-2.54-7.31 5.79-4.06s3.65-6.1 2.44-7.72a35.4 35.4 0 0 1 -2.85-5.69l.41-4.15z"/><path d="m458.62 704c-11.27-6.74-28.36-16.63-28.36-16.63s5.39-31.45 8.08-43.76 2.68-35 2.68-35 5.22-11.23 11.07-24.13l-.92-44.48s4.16-4.43 2.13-4.94l-2-.51c2.17-7.15 2.2-8.68 2.2-8.68l.07-3.57 1.57-2.56-.42-4.59h-29.66l-2.15 6.13 2 3.57-.11 6.13c4 3.06 3.41 9 3.41 9l-2.84 159.49-2.88 3.06-.07 4.09-.08 4.59s-2.26-3.06-2.82 0-.28 15.83-.28 15.83h43.4l.27-14.8-3.5-4.6zm-7.62-168.54-.12.39c.03-.12.12-.26.12-.39zm-.49 1.62c-.05.17-.1.31-.13.42zm-.16.53v.08z"/><path d="m371.56 707.66-1.41-6.66-3.53-2.55-3.28-158.45s4.16-4.43 2.13-4.94l-2-.51c2.18-7.15 2.2-8.68 2.2-8.68l.07-3.57 1.57-2.56-.42-4.59h-29.66l-2.15 6.13 2 3.57-.08 6.15c4 3.06 3.41 9 3.41 9l-.06 3.35 12.89 12s-1.09 26.27-3.78 49.07-7.16 45.34-7.16 45.34l-4.73 49.74-2.88 3.06-.07 4.09-.08 4.59s-2.26-3.06-2.82 0-.28 15.83-.28 15.83h43.4l.27-14.8zm-8.4-172.2-.12.39zm-.49 1.62c-.05.17-.1.31-.13.42zm-.16.53v.08z"/><path d="m543.26 701-3.53-2.55-.07-3.39-13.37-22.06v-41.9s5.33-18.07 11.28-36.6l-1.13-54.5s4.17-4.43 2.13-4.94l-2-.51c2.17-7.15 2.2-8.68 2.2-8.68l.06-3.57 1.58-2.56-.43-4.59h-29.64l-2.16 6.13 2 3.57-.11 6.13c4 3.06 3.41 9 3.41 9l-2.84 159.49-2.87 3.06-.07 4.09-.09 4.59s-2.25-3.06-2.81 0-.29 15.83-.29 15.83h43.39l.26-14.8-3.49-4.6zm-7-165.56-.12.39a3.43 3.43 0 0 1 .13-.37zm-.5 1.62-.12.42zm-.16.53v.08z"/><path d="m618 709.85-9-20.66 12.75-23.38-2.58-125.81s4.16-4.43 2.13-4.94l-2-.51c2.17-7.15 2.2-8.68 2.2-8.68l.07-3.57 1.57-2.56-.42-4.59h-29.66l-2.15 6.13 2 3.57-.11 6.13c4 3.06 3.41 9 3.41 9l-2.84 159.49-2.88 3.06-.07 4.09-.08 4.59s-2.26-3.06-2.82 0-.28 15.83-.28 15.83h43.4l.24-13.36zm1-174.39-.12.39zm-.49 1.62c0 .17-.1.31-.13.42zm-.16.53v.08z"/><path d="m1729.7 383.75c-1.62 2-4.06 8.12-4.06 8.12v8.54l-2.44 7.31.82 9.75 2.84 9.34-3.25 6.5-.41 7.72-4.06 1.62v4.47c2.44 2 2.44 11.78 2.44 11.78h-21.53l.41 6.91 3.65 5.28 3.25 4.87 4.47.41 4.06 2.46 3.25 6.07c1.63 2.84 2.85 11.78 2.85 11.78l-2.85 3.65 2.85 5.28v215.3l-7.11 5.28v26.81h34.32v-23.16l-6.5-6.5v-216.1l1.63-4.06c3.25-3.25 1.62-4.47 1.62-4.47s-2.84.81-2.84-.41v-14.62l6.09-2.44s-.81-.75 0-2.41 4.06-3.28 5.28-3.68 4.88-2 4.88-2v-4.88l3.25-2.43a7 7 0 0 0 2-6.91h-21.53v-11.81s2-.41 3.25-.81 3.65-2.85 3.65-2.85l-7.2-4.46v-8.13a47.93 47.93 0 0 1 0-6.9c.3-2.85 2.14-6.1 0-7.72s-2.54-7.72-2.54-7.72l2.54-7.31-5.79-4.06s-3.66-6.1-2.44-7.72a35.08 35.08 0 0 0 2.84-5.69l-.4-4.15z"/><path d="m1870.09 383.75c-1.63 2-4.06 8.12-4.06 8.12v8.54l-2.44 7.31.81 9.75 2.84 9.34-3.24 6.5-.41 7.72-4.06 1.62v4.47c2.43 2 2.43 11.78 2.43 11.78h-21.53l.41 6.91 3.66 5.28 3.25 4.87 4.47.41 4.06 2.46 3.25 6.07c1.62 2.84 2.84 11.78 2.84 11.78l-2.84 3.65 2.84 5.28v215.3l-7.11 5.28v26.81h34.33v-23.16l-6.5-6.5v-216.1l1.62-4.06c3.25-3.25 1.63-4.47 1.63-4.47s-2.85.81-2.85-.41v-14.62l6.1-2.44s-.82-.75 0-2.41 4.06-3.28 5.28-3.68 4.87-2 4.87-2v-4.88l3.25-2.43a7 7 0 0 0 2-6.91h-21.53v-11.81s2-.41 3.25-.81 3.66-2.85 3.66-2.85l-7.21-4.46v-8.13a47.93 47.93 0 0 1 0-6.9c.3-2.85 2.14-6.1 0-7.72s-2.54-7.72-2.54-7.72l2.54-7.31-5.79-4.06s-3.66-6.1-2.44-7.72a35.4 35.4 0 0 0 2.85-5.69l-.41-4.15z"/><path d="m1370.91 711.23-.08-4.59-.07-4.09-2.88-3.06-.31-17.72-10.07 4.47-10.2-45.24 12.75-40.16 5.85-12.66-.9-48.18s-.62-6 3.41-9l-.11-6.13 2-3.57-2.15-6.13h-29.62l-.43 4.59 1.58 2.56.07 3.57s0 1.53 2.19 8.68l-2 .51c-2 .51 2.13 4.94 2.13 4.94l-3.28 158.47-3.53 2.55-1.41 6.64-3.5 4.6.27 14.8h43.38s.29-12.76-.28-15.83-2.81-.02-2.81-.02zm-28.67-175.77.12.39zm.49 1.62c.06.18.1.32.13.42zm.16.53v.08z"/><path d="m1456.45 711.23c-.56-3.06-2.82 0-2.82 0l-.08-4.59-.07-4.09-2.87-3.06-2.85-159.49s-.61-6 3.42-9l-.11-6.13 2-3.57-2.16-6.13h-29.61l-.43 4.59 1.58 2.56.06 3.57s0 1.53 2.2 8.68l-2 .51c-2 .51 2.13 4.94 2.13 4.94l-.64 30.55 6.65 8s-2.55 26.54-1.27 30.16 0 22.12 1.27 27.85 5.09 14 4.14 24.85-2.86 29.33-2.86 29.33l-11.48 22.94s-4.21 1.21-7.47 2.17l.2 11.24h43.41s.21-12.81-.34-15.88zm-31.45-175.77.12.39zm.5 1.62.12.42zm.16.53v.08z"/><path d="m1538.91 711.23-.08-4.59-.07-4.09-2.88-3.06-2-111.07-6.21 1.32v-17c0-1 2.6-5.57 5.74-10.73l-.39-22s-.62-6 3.41-9l-.11-6.13 2-3.57-2.15-6.13h-29.62l-.43 4.59 1.58 2.56.07 3.57s0 1.53 2.19 8.68l-2 .51c-2 .51 2.13 4.94 2.13 4.94l-1.91 92.23 9.34 23.42-3.82 17.85s-2.71 4.14-6.58 10.1l-.31 14.87-3.53 2.55-1.41 6.64-3.5 4.6.27 14.8h43.36s.29-12.76-.28-15.83-2.81-.03-2.81-.03zm-28.67-175.77.12.39zm.49 1.62c.06.18.1.32.13.42zm.16.53v.08z"/><path d="m1626.74 711.23-.08-4.59-.07-4.09-2.88-3.06-.14-8.16c-5.48-7.67-5.36-19.75-7.28-35.68s-3.18-40.8-3.18-40.8 5.19-9.39 8.8-16.35l-1-58.5s-.62-6 3.41-9l-.11-6.13 2-3.57-2.15-6.13h-29.62l-.43 4.59 1.58 2.56.07 3.57s0 1.53 2.19 8.68l-2 .51c-2 .51 2.13 4.94 2.13 4.94l-3.28 158.47-3.53 2.55-1.41 6.64-3.5 4.6.27 14.8h43.4s.29-12.76-.28-15.83-2.91-.02-2.91-.02zm-28.67-175.77.12.39zm.49 1.62c.06.18.1.32.13.42-.03-.11-.08-.25-.13-.42zm.16.53v.08z"/></g><path d="m1633.59 695.09v-72.35s-.67-18.33 19.67-18.33 20.34 19.34 20.34 19.34v71.34z" fill="#756555"/><path d="m1544.43 695.09v-72.35s-.66-18.33 19.67-18.33 20.34 19.34 20.34 19.34v71.34z" fill="#756555"/><path d="m1374.82 695.09v-72.35s-.67-18.33 19.67-18.33 20.34 19.34 20.34 19.34v71.34l-7.3 2.94-6.57 2.49-17.58-5.43z" fill="#756555"/><path d="m1293.24 695.09v-72.35s-.67-18.33 19.67-18.33 20.33 19.34 20.33 19.34v71.34z" fill="#756555"/><path d="m1457.53 695.09v-33.37l-3.53-20.22 3.52-6.17v-12.59s-.67-18.33 19.67-18.33 20.33 19.34 20.33 19.34v49l1.57 9.6-1.57 12.78z" fill="#756555"/><path d="m327.64 695.09v-72.35s.67-18.33-19.67-18.33-20.34 19.34-20.34 19.34v71.34z" fill="#756555"/><path d="m416.8 695.09v-72.35s.66-18.33-19.67-18.33-20.34 19.34-20.34 19.34v71.34z" fill="#756555"/><path d="m586.41 695.09v-72.35s.67-18.33-19.67-18.33-20.34 19.34-20.34 19.34v71.34z" fill="#756555"/><path d="m668 695.09v-72.35s.67-18.33-19.67-18.33-20.33 19.34-20.33 19.34v71.34z" fill="#756555"/><path d="m503.7 695.09v-72.35s.67-18.33-19.67-18.33-20.34 19.34-20.34 19.34v71.34h11.72l15.59 6.66 7.07-6.66z" fill="#756555"/></g><path d="m121.93 439.99 7.35.4v109.33h15.24v-92.39h46.39v92.39h16.14l1.21-109.73h5.24l-46.39-25.82z" fill="#8c7867"/><path d="m1811.08 414.17-46.39 25.82h5.24l1.21 109.73h16.14v-92.39h46.39v92.39h15.25v-109.33l7.34-.4z" fill="#8c7867"/><path d="m1776.32 649.75h51.24v94.66h-51.24z" fill="#756555" transform="matrix(-1 0 0 -1 3612.36 1199.46)"/><path d="m142.15 455.05h51.24v94.66h-51.24z" fill="#756555"/><path d="m1796.19 540.93-1.29-5.93h16l-1.29 5.93c47.21 4.59 40.38 57.78 40.38 57.78h-96.27s-4.92-53.19 42.47-57.78zm-35.77 54h83.4s2.41-44.13-35.5-48l-.22 1h-10.36l-.22-1c-38.05 3.88-37.1 48.07-37.1 48.07z" fill="#8c7867" transform="translate(8.48 -194.69)"/><path d="m165 540.93 1.29-5.93h-16l1.29 5.93c-47.22 4.59-40.38 57.78-40.38 57.78h96.27s4.96-53.19-42.47-57.78zm35.77 54h-83.4s-2.42-44.13 35.5-48l.22 1h10.36l.22-1c38.09 3.88 37.14 48.07 37.14 48.07z" fill="#8c7867" transform="translate(8.48 -194.69)"/><path d="m1203.46 727.06s.28-13.83-.29-17.15-2.82 0-2.82 0l-.08-5-.07-4.42-2.88-3.33-2.84-172.88s-.61-6.45 3.42-9.77l-.11-6.65 2-3.87-2.15-6.64h5.24v-10.73l6.23-2.9-6.23-3.64v-13.82h6.23v-8.72l4.22-4.37v-11.63s6.41 3.63 6.15 0l-238.87-106.17-238.83 106.17c-.26 3.63 6.15 0 6.15 0v11.63l4.22 4.37v8.72h6.23v13.82l-6.23 3.64 6.23 2.9v10.74h5.24l-2.16 6.64 2 3.87-.11 6.65c4 3.32 3.42 9.77 3.42 9.77l-1 62.35 6.18 17.77s-2 10.05 0 16.7c.87 2.86-2.75 13.85-7.16 25.44l-.84 50.62-2.95 3.33-.07 4.42-.08 5s-2.26-3.33-2.82 0-.29 17.15-.29 17.15h-39.44v117.05h524.63v-117.06zm-31.29-205.93-.31-1.11zm-383.11 0 .3-1.11zm53.81 3.16-2.87 172.88-2.87 3.33-.08 4.42-.08 5s-2.25-3.33-2.82 0-.28 17.15-.28 17.15h-32.69l.26-16-3.44-5.07-1.41-7.2-3.59-2.73-3.29-171.78s4.17-4.79 2.14-5.35l-2-.55c2.15-7.75 2.15-9.39 2.15-9.39l.06-3.87 1.58-2.77-.43-5h46.51l-2.13 6.64 2 3.87-.11 6.65c4.01 3.32 3.39 9.77 3.39 9.77zm166.79 171.78-3.53 2.76-1.41 7.2-3.49 5 .26 16h-41.76l.27-16-3.49-5-1.41-7.2-3.53-2.76-1-51.3-11.93-14-16 56.65-.16 9.73-2.87 3.33-.07 4.42-.09 5s-2.25-3.33-2.82 0-.28 17.15-.28 17.15h-39l.27-16-3.5-5-1.41-7.2-3.53-2.76-3.28-171.78s4.16-4.79 2.13-5.35l-2-.55c2.17-7.75 2.19-9.41 2.19-9.41l.07-3.87 1.58-2.77-.43-5h52.81l-2.25 6.64 2 3.87-.11 6.65c4 3.32 3.41 9.77 3.41 9.77l-.15 9.23 22.46-12.39.31-1.11-.31 1.11 3.34-1.22c.06-.48-.07-.84-.54-1l-2-.55c2.17-7.75 2.2-9.41 2.2-9.41l.06-3.87 1.58-2.77-.43-5h57.65l-.43 5 1.58 2.77.06 3.87s0 1.66 2.2 9.41l-2 .55c-2 .56 2.13 5.35 2.13 5.35zm3.65-176.07.31 1.11zm78.79 176.05-3.53 2.76-1.42 7.2-3.49 5 .27 16h-39s.28-13.83-.29-17.15-2.81 0-2.81 0l-.09-5-.07-4.42-2.87-3.33-16.22-35 5-49.91 9.51-15.83-1.18-72.09s-.62-6.45 3.41-9.77l-.11-6.65 2-3.87-2.15-6.64h52.81l-.43 5 1.58 2.77.06 3.87s0 1.66 2.2 9.41l-2 .55c-2 .56 2.13 5.35 2.13 5.35zm78.43-17.78h-2l-.34 17.78-3.53 2.76-1.41 7.2-3.49 5 .26 16h-32.72s.28-13.83-.28-17.15-2.82 0-2.82 0l-.08-5-.08-4.42-2.87-3.33-2.84-172.88s-.62-6.45 3.41-9.77l-.11-6.65 2-3.87-2.15-6.64h46.52l-.43 5 1.57 2.77.07 3.87s0 1.66 2.2 9.41l-2 .55c-2 .56 2.13 5.35 2.13 5.35l-1 50.91 7.66 45.91z" fill="#96816e" transform="translate(8.48 -194.69)"/></svg>