<svg height="200.48" viewBox="0 0 2203.07 200.48" width="2203.07" xmlns="http://www.w3.org/2000/svg"><path d="m2099 843.63-62.23-9.72s-160-1.78-170.7-14.8c0 0-8.89.58-15.7-5.05s-22.81 5.05-22.81 5.05l-25.43 16.58-22.13-.69v-1.88s0-12.63-3.16-17.37-13.68-11.05-21-10-12.1 5.27-13.68 6.32-4.74 7.1-4.74 7.1l-17.89-7.1-2.63-10 2.63-10 2.64-12.62-7.94-6.85 16.77-38.98-4.21-6.12 25.26-80.13-3.68-3.73-31.05 83.86h-6.84l-8.16 20.85-4.47-2.63-3.68 6.31 2.1 14.74-.52 6.84-8.42 11.44 8.42 7-20 1.58s.53 5.79-4.74 2.63l-7.36 1.58s2.63 12.1 1.58 17.37l-7.37 3.94h-7.33l-3.72 6.58-1.58 4.74-103.16-11.33-147.26 9.47-25.86.66-.92-7 8.17-3.56-2.37-5.93h-12.07l-17-17.19-30.23-18.37-9.48-3-7.05-29.58-26.08-12.45h-55.13l-29-26.68-4.15 3.56 1.18 5.33 19 22.53-17.78 5.33-5.93 29c-1.78 0-27.26 4.74-27.26 4.74l13.63 10.67-7.1 7.12v8.7l7.1 3.15c-4.15 5.34-7.1 25.49-7.1 25.49l1.56 2.73h-85.31l-61.9-7.11-63-7.69-11.89-24.46-36.67 34s-158.08 3.55-163.42 3.55-97.79-13-97.79-13h-12.96l-29.71-17.2v17.2l-31.87 7.69-49.92-19.56-97.35 26.67-28.34-.26v-4.53l-22.38-6.19-.81-8 16.1.81.8-7.25-12.07-13.68-12.87-16.14h-56.34l8.85-8 12.07-12.87-4-13.68 70.66-24.94v-6l-75.7 21.78-26.2-2.91-43.66 1.45v-11.68h-11.64v10.19h-23.29l-19.33 17.56-6.83 26.1 20.38 10.19-40.75 17.47v26.74c-18-3.55-61.66-11.83-68.68-10.42-8.89 1.77-1.78-12.45-6.69-19.56s-32.43-5.34-32.43-5.34-8.91 19.56-18.57 24.9-79.24 3.55-79.24 3.55l-62.23 20.39h267.8v.49h227v-.49h1246.74l2 .49h140.5v-.49z" fill="#66584a" transform="translate(104.06 -643.64)"/></svg>