<svg height="217.49" viewBox="0 0 2980.32 217.49" width="2980.32" xmlns="http://www.w3.org/2000/svg"><path d="m0 217.49 6.94-30.06 67.11-9.26 30.08-39.33 4.62-50.91h50.91l30.08-20.83 18.51-11.57 18.51 39.34v62.48l32.4 4.62 30.08-39.33h94.87l32.39 30.08h97.19l2.31-94.87 104.13-57.85h101.81l57.85 48.59v113.38l101.81 23.14h115.7v-159.66h97.18v161.98h1439.26v-120.33h97.18l27.77 39.34-9.26 4.63v30.08h118.54v-69.42l-9.78-20.82v-20.83h20.82l20.83-27.39 18.51 29.71h13.88v25.45l-9.1 12.06 2.81 27.27h121.99l2.31 41.66 30.08 41.65v37z" fill="#96816e"/></svg>