<svg height="263.83" viewBox="0 0 1925.65 263.83" width="1925.65" xmlns="http://www.w3.org/2000/svg"><g fill="#423a32"><g transform="translate(69.14 -466.39)"><path d="m1855.52 639.15-8-16-2-2-8-12h-2l2-6a7 7 0 0 0 0-5l-2-6h-9l-7 5v4l1 1-1 2v1l2 1v2l-2 4v2h-2l-1-8-1-2h-7l-3 1-3-2-2-3-1-2 1-3 2-1v-3l-1-1v-4l1-2-2-3-4-1h-6l-2 2v3l1 4v7h-2v3l-12 6v2h-2s-12-4-12-3-2-2-2-2l-1-3h2l2-4v-4l-3-4-2-1h-4l-4 1a5 5 0 0 0 -1-3l-3 6v2h-2.52l-3.62 2.59-.9-3.59s1-3 2-3-2-4-2-4l-3-3-2-1-12 1-3 2v.21l-1.48-2.21-4-1h-6l-2 2v3l1 4v7h-2v3l-12 6v2h-2s-12-4-12-3-2-2-2-2l-1-3h2l2-4v-4l-3-4-2-1h-4l-4 1a4.88 4.88 0 0 0 -1-3l-3 6v3l1 3 1 4 3 2-1 3h-2v-3l-4-4-4-3-1-4s1-3 2-3-2-4-2-4l-3-3-2-1-6.93.58-2.37-1-5 2-4 3-1 5 3 1v3h1l.49 2.48c-.66.86-1.6 1.89-2.19 1.89a7.49 7.49 0 0 0 -2 .63h-.29l-3-2h-3l-2 2-1 2v4.78l-.7.59-4.64 7.63h-.66l-2-2-2-2v-2l3-1v-5l-1-3-4-3-4-1-3 2s-2 2-2 3a42.13 42.13 0 0 0 1 5l-1 3-2-2-3-4-1-4-3-3h-3l-2 2h-2l1-6-5-4-2-2c-2-1-2 1-2 1h-3l-2-1h-1l-1 3s1 3 0 3-1 1-1 2v6l2 2v3l-1 3-2-2-3-3-2-3h-1v-3l2-2v-4l-1-3-3-3-3-1h-9l-1 2v2l2 2v2l-1 4 1 1v2l1 3 2 1v4a4.82 4.82 0 0 1 -4 0l-1-2v-11l-3-2h-5l-1 2a10 10 0 0 0 -1 3 23 23 0 0 1 -1 4v4l-1-1a3.48 3.48 0 0 1 -1-2 10 10 0 0 0 -1-3v-3l-4-1-3-1h-3l-3-2-4 2-4-2-5-1h-5l-4 2a3.09 3.09 0 0 1 -2-1l-3-3 2-4-4 4h-2l1-3-2 1-1 2s-4 2-5 2-3 4-3 4v10l-2-4-2-2 1-7-2-4h-6l-3-4-3-3-3 1-2 1-2 2-1 6 2 5 2 1v3l-2 4-1 2h-2l-2-4-3-2-3 1-1 2-1 2 1 4 2 4-2 2c-1 0-4-6-4-6l-6-6-7-3 1-2 1-3-1-5-4-3-3-1-4 2-4-3-4-1-9 6v2l3 2 1 3 1 3c1 1-1 3-1 3l-3 3h-3v2l-1 5-1 4-2 3-3-7 1-4-1-3-3-4-4-2h-4l-3 3-2-3 2-5-2-4-4-2-3-1-5 1-2 3h2l-1 4 1 5 1 3 1 1-3 3 1 3 4 3s2 2 1 3-1 4-1 4l-2 1.32-9.39-15.42-7-6s-4-2-5-2-3-3-3-3l-1-3 2-5v-4l-3-2-12-1-2 1-3 3s-3 4-2 4 2 3 2 3l-1 4-4 3-4 4v3h-2l-1-3 3-2 1-4 1-3v-3l-3-6a5 5 0 0 0 -1 3l-4-1h-4l-2 1-3 4v4l2 4h2l-1 3s-2 3-2 2-12 3-12 3h-2v-2l-12-6v-3h-2v-7l1-4v-3l-2-2h-6l-4 1-2 3 1 2v4l-1 1v3l2 1 1 3-1 2-2 3-3 2-3-1h-7l-1 2-1 8h-2v-2l-2-4v-2l2-1v-1l-1-2 1-1v-4l-7-5h-9l-2 6c-.06.18-.12.36-.17.54h-2.15l-2-2-1-3-1-4s2-2 1-3a40.1 40.1 0 0 1 -3-4l-5-2-5 2-4 3-1 5 3 1v3h1l1 5h-5l-3-2h-3l-2 2-1 2v7l-1 2-2 4h-3l-2-2-2-2v-2l3-1v-5l-1-3-4-3-4-1-3 2s-2 2-2 3a42.94 42.94 0 0 0 1 5l-1 3-2-2-3-4-1-4-3-3h-3l-2 2h-2l1-6-5-4-2-2c-2-1-2 1-2 1h-3l-2-1h-1l-1 3s1 3 0 3-1 1-1 2v6l2 2v3l-1 3-2-2-3-3-2-3h-1v-3l2-2v-4l-1-3-3-3-3-1h-9l-1 2v2l2 2v2l-1 4 1 1v2l1 3 2 1v4a4.89 4.89 0 0 1 -4 0l-1-2v-11l-3-2h-5l-1 2a9.91 9.91 0 0 0 -1 3 23 23 0 0 1 -1 4v4l-1-1a3.51 3.51 0 0 1 -1-2 9.91 9.91 0 0 0 -1-3v-3l-4-1-3-1h-3l-3-2-4 2-4-2-5-1h-5l-4 2a3.13 3.13 0 0 1 -2-1l-3-3 2-4-4 4h-2l1-3-2 1-1 2s-4 2-5 2-3 4-3 4v10l-2-4-2-2 1-7-2-4h-6l-3-4-3-3-3 1-2 1-2 2-1 6 2 5 2 1v3l-2 4-1 2h-2l-2-4-3-2-3 1-1 2-1 2 1 4 2 4-2 2c-1 0-4-6-4-6l-6-6-7-3 1-2 1-3-1-5-4-3-3-1-4 2-4-3-4-1-9 6v2l3 2 1 3 1 3c1 1-1 3-1 3l-3 3h-3v2l-1 5-1 4-2 3-3-7 1-4-1-3-3-4-4-2h-4l-3 3-2-3 2-5-2-4-4-2-3-1-5 1-2 3h2l-1 4 1 5 1 3 1 1-3 3 1 3 4 3s2 2 1 3-1 4-1 4l-2 1.32-9.39-15.42-7-6s-4-2-5-2-3-3-3-3l-1-3 2-5v-4l-3-2-12-1-2 1-3 3s-3 4-2 4 2 3 2 3l-1 4-4 3-4 4v3h-2l-1-3 3-2 1-4 1-3v-3l-3-6a5 5 0 0 0 -1 3l-4-1h-4l-2 1-3 4v4l2 4h2l-1 3s-2 3-2 2-12 3-12 3h-2v-2l-12-6v-3h-2v-7l1-4v-3l-2-2h-6l-4 1-2 3 1 2v4l-1 1v3l2 1 1 3-1 2-2 3-3 2-3-1h-7l-1 2-1 8h-2v-2l-2-4v-2l2-1v-1l-1-2 1-1v-4l-7-5h-9l-2 6a6.77 6.77 0 0 0 -.34 1.19l-1.45-1.09h-4l-2-2-1-3-1-4s2-2 1-3a40.1 40.1 0 0 1 -3-4l-5-2-5 2-4 3-1 5 3 1v3h1l1 5h-5l-3-2h-3l-2 2-1 2v7l-1 2-2 4h-3l-2-2-2-2v-2l3-1v-5l-1-3-4-3-4-1-3 2s-2 2-2 3a42.94 42.94 0 0 0 1 5l-1 3-2-2-3-4-1-4-3-3h-3l-2 2h-2l1-6-5-4-2-2c-2-1-2 1-2 1h-3l-2-1h-1l-1 3s1 3 0 3-1 1-1 2v6l2 2v3l-1 3-2-2-3-3-2-3h-1v-3l2-2v-4l-1-3-3-3-3-1h-9l-1 2v2l2 2v2l-1 4 1 1v2l1 3 2 1v4a4.89 4.89 0 0 1 -4 0l-1-2v-11l-3-2h-5l-1 2a9.91 9.91 0 0 0 -1 3 23 23 0 0 1 -1 4v4l-1-1a3.45 3.45 0 0 1 -1-2 9.91 9.91 0 0 0 -1-3v-3l-4-1-3-1h-3l-3-2-4 2-4-2-5-1h-5l-4 2a3.13 3.13 0 0 1 -2-1l-3-3 2-4-4 4h-2l1-3-2 1-1 2s-4 2-5 2-3 4-3 4v10l-2-4-2-2 1-7-2-4h-6l-3-4-3-3-3 1-2 1-2 2-1 6 2 5 2 1v3l-2 4-1 2h-2l-2-4-3-2-3 1-1 2-1 2 1 4 2 4-2 2c-1 0-4-6-4-6l-6-6-7-3 1-2 1-3-1-5-4-3-3-1-4 2-4-3-4-1-9 6v2l3 2 1 3 1 3c1 1-1 3-1 3l-3 3h-3v2l-1 5-1 4-2 3-3-7 1-4-1-3-3-4-4-2h-4l-3 3-2-3 2-5-2-4-4-2-3-1-5 1-2 3h2l-1 4 1 5 1 3 1 1-3 3 1 3 4 3s2 2 1 3-1 4-1 4l-2 1.32-9.39-15.42-7-6s-4-2-5-2-3-3-3-3l-1-3 2-5v-4l-3-2-12-1-2 1-3 3s-3 4-2 4 2 3 2 3l-1 4-4 3-4 4v3h-2l-1-3 3-2 1-4 1-3v-3l-3-6a5 5 0 0 0 -1 3l-4-1h-4l-2 1-3 4v4l2 4h2l-1 3s-2 3-2 2-12 3-12 3h-2v-2l-12-6v-3h-2v-7l1-4v-3l-2-2h-6l-4 1-2 3 1 2v4l-1 1v3l2 1 1 3-1 2-2 3-1.59 1.06-1.7-3.4-4-3h-4l-2-2-1-3-1-4s2-2 1-3a40.49 40.49 0 0 1 -3-4l-5-2-5 2-4 3-1 5 3 1v1.34h-3.71l-1.69 5.06-.6-.4h-3l-2 2-1 2v7l-1 2-2 4h-3l-2-2-2-2v-2l3-1v-5l-1-3-4-3-4-1-3 2s-2 2-2 3a42.13 42.13 0 0 0 1 5l-1 3-2-2-3-4-1-4-3-3h-3l-2 2h-2l1-6-5-4-2-2c-2-1-2 1-2 1h-3l-2-1h-1l-1 3s1 3 0 3-1 1-1 2v6l2 2v3l-1 3-2-2-3-3-2-3h-1v-3l2-2v-4l-1-3-3-3-3-1h-9l-1 2v2l2 2v2l-1 4 1 1v2l1 3 2 1v4a4.82 4.82 0 0 1 -4 0l-1-2v-11l-3-2h-5l-1 2a10 10 0 0 0 -1 3 23 23 0 0 1 -1 4v4l-1-1a3.48 3.48 0 0 1 -1-2 10 10 0 0 0 -1-3v-3l-4-1-3-1h-3l-3-2-4 2-4-2-5-1h-5l-4 2a3.09 3.09 0 0 1 -2-1l-3-3 2-4-4 4h-2l1-3-2 1-1 2s-4 2-5 2-3 4-3 4v10l-2-4-2-2 1-7-2-4h-6l-3-4-3-3-3 1-2 1-2 2-1 6 2 5 2 1v3l-2 4-1 2h-2l-2-4-3-2-3 1-1 2-1 2 1 4 2 4-2 2c-1 0-4-6-4-6l-6-6-7-3 1-2 1-3-1-5-4-3-3-1-4 2-4-3-4-1-9 6v2l3 2 1 3 1 3c1 1-1 3-1 3l-3 3h-3v2l-1 5-1 4-2 3-3-7 1-4-1-3-3-4-4-2h-4l-3 3-2-3 2-5-2-4-4-2-3-1-5 1-2 3h2l-1 4 1 5 1 3 1 1-3 3 1 3 4 3s2 2 1 3-1 4-1 4l-2 1.32-9.39-15.42-7-6s-4-2-5-2-3-3-3-3l-1-3 2-5v-4l-3-2-12-1-2 1-3 3s-3 4-2 4 2 3 2 3l-1 4-4 3-4 4v3h-2l-1-3 3-2 1-4 1-3v-3l-3-6a5 5 0 0 0 -1 3l-4-1h-4l-2 1-3 4v4l2 4h2l-1 3s-2 3-2 2-12 3-12 3h-2v-2l-12-6v-3h-2v-7l1-4v-3l-2-2h-6l-4 1-2 3 1 2v4l-1 1v3l2 1 1 3-1 2-2 3-3 2-3-1h-7l-1 2-1 8h-2v-2l-2-4v-2l2-1v-1l-1-2 1-1v-4l-7-5h-9l-2 6a7 7 0 0 0 0 5l2 6h-2l-8 12-2 2-8 16-1 4 1 23 5 9s0 11 1 12 13 2 13 2l-2 4-2 14-2 6v5l27 1 3-2v-1h-4l-7-5 1-11 3-8v-9l3 1 3 15v3l3 1-1 10 4 1 9 1v3l5 3h3l3-4v-5h5v6l5 1h6l1-10 4-1 1 3-1 4.37v2.63h11c-1 0-2-7-2-7l1-5-1-6v-12c0 1 3 7 3 7s2 11 2 12v11h10l-1-6-1-8 4-7v-3h3l2 8 1 9v2l-6 5h39.46v.1c-2 1-6 0-6 0s0 4 1 4 17 3 17 3l-1-7h3l1-10h11l-4-16h3l6 23h2l-4 5h3l10-2-1-4h2l-2-9v-10l2-2v-3l-2-2 1-12-3-2s-3-23-2-22 8 4 8 4l-3 8v6l1 4v7l2 6 5 8h-4l-1 2 8 5v2l9 1s-2 9-2 10 1 3 1 4a42.13 42.13 0 0 1 -1 5l-1 2-5 1v3l12-1 7-1s-1-10 0-9 8-2 8-2l-1-8 1-2-4-5 2-2h9v6l-7 4 1 2 18-3-2-5 2-6 4-19 3-10 5 11 5 21 1 12-5 3 1 2 5 1 10 1v-4l2-3-1-6 1-8 9-5v8c0 1 2 3 2 3l-1 2-3 3v3l4 1-2 2h-8l-1 1 2 3s6 2 7 2 11 2 11 2l-1-4 2-2 5-20s2 1 2 2a42.13 42.13 0 0 1 -1 5l6-1v-4l2-1s3 6 3 7a23 23 0 0 0 1 4l-3 17h19l1-8-1-5-2-7s-1-6-1-7 2-5 2-5l3 1 3-4s-1-1 0-1 5-2 5 0 3 6 3 6-2 2-1 3 4 11 4 11l-2 6 2 2-2 2-4 1v2l10 1 6-4v-3l1-3v-3l-1-2 3-1h5c-1 0-1-4-1-4h3s0 7 1 8 4 9 4 9l-5 4-1 3 18-1-1-9-2-15v-4l1-11 4-2v-9l3 1 1 7 2 1v7c0 1-1 11-1 11l1 3-3 2 4 2h6l-1-5 5-1h5l2-3-2-3 1-3 2 1v-9.03c2.37.26 4.29.42 4.29.42l-2 4-2 14-2 6v5l20.64.76c.07 1.06.07 1.9.07 1.9l-4 5h9l4-2v-4l3-1v-5.24l2.29.58 9 1v3l5 3h3l3-4v-5h5v6l5 1h6l1-10 4-1 1 3-1 4.37v2.63h11c-1 0-2-7-2-7l1-5-1-6v-12c0 1 3 7 3 7s2 11 2 12v11h10l-1-6-1-8 4-7v-3h3l2 8 1 9v2l-6 5h39.34v.1c-2 1-6 0-6 0s0 4 1 4 17 3 17 3l-1-7h3l1-10h11l-4-16h3l6 23h2l-4 5h3l10-2-1-4h2l-2-9v-10l2-2v-3l-2-2 1-12-3-2s-3-23-2-22 8 4 8 4l-3 8v6l1 4v7l2 6 5 8h-4l-1 2 8 5v2l9 1s-2 9-2 10 1 3 1 4a45.13 45.13 0 0 1 -1 5l-1 2-5 1v3l12-1 7-1s-1-10 0-9 8-2 8-2l-1-8 1-2-4-5 2-2h9v6l-7 4 1 2 18-3-2-5 2-6 4-19 3-10 5 11 5 21 1 12-5 3 1 2 5 1 10 1v-4l2-3-1-6 1-8 9-5v8c0 1 2 3 2 3l-1 2-3 3v3l4 1-2 2h-8l-1 1 2 3s6 2 7 2 11 2 11 2l-1-4 2-2 5-20s2 1 2 2a45.13 45.13 0 0 1 -1 5l6-1v-4l2-1s3 6 3 7a22.09 22.09 0 0 0 1 4l-3 17h19l1-8-1-5-2-7s-1-6-1-7 2-5 2-5l3 1 3-4s-1-1 0-1 5-2 5 0 3 6 3 6-2 2-1 3 4 11 4 11l-2 6 2 2-2 2-4 1v2l10 1 6-4v-3l1-3v-3l-1-2 3-1h5c-1 0-1-4-1-4h3s0 7 1 8 4 9 4 9l-5 4-1 3 18-1-1-9-2-15v-4l1-11 4-2v-9l3 1 1 7 2 1v7c0 1-1 11-1 11l1 3-3 2 4 2h6l-1-5 5-1h5l2-3-2-3 1-3 2 1v-18h3l-1-8h3s0 8 1 9 1 19 1 19l5-1 1-3 1-12-1-5 3 1a44.23 44.23 0 0 1 1 5v15s1 10 2 10-2 4-1 5 1 6 1 6l-4 5h9l4-2v-4l3-1v-1l23.79.89 3-2v-1h-4l-7-5 1-11 3-8v-9l3 1 3 15v3l3 1-1 10 4 1 9 1v3l5 3h3l3-4v-5h5v6l5 1h6l1-10 4-1 1 3-1 4.37v2.63h11c-1 0-2-7-2-7l1-5-1-6v-12c0 1 3 7 3 7s2 11 2 12v11h10l-1-6-1-8 4-7v-3h3l2 8 1 9v2l-6 5h39.37v.1c-2 1-6 0-6 0s0 4 1 4 17 3 17 3l-1-7h3l1-10h11l-4-16h3l6 23h2l-4 5h3l10-2-1-4h2l-2-9v-10l2-2v-3l-2-2 1-12-3-2s-3-23-2-22 8 4 8 4l-3 8v6l1 4v7l2 6 5 8h-4l-1 2 8 5v2l9 1s-2 9-2 10 1 3 1 4a45.13 45.13 0 0 1 -1 5l-1 2-5 1v3l12-1 7-1s-1-10 0-9 8-2 8-2l-1-8 1-2-4-5 2-2h9v6l-7 4 1 2 18-3-2-5 2-6 4-19 3-10 5 11 5 21 1 12-5 3 1 2 5 1 10 1v-4l2-3-1-6 1-8 9-5v8c0 1 2 3 2 3l-1 2-3 3v3l4 1-2 2h-8l-1 1 2 3s6 2 7 2 11 2 11 2l-1-4 2-2 5-20s2 1 2 2a45.13 45.13 0 0 1 -1 5l6-1v-4l2-1s3 6 3 7a22.09 22.09 0 0 0 1 4l-3 17h19l1-8-1-5-2-7s-1-6-1-7 2-5 2-5l3 1 3-4s-1-1 0-1 5-2 5 0 3 6 3 6-2 2-1 3 4 11 4 11l-2 6 2 2-2 2-4 1v2l10 1 6-4v-3l1-3v-3l-1-2 3-1h5c-1 0-1-4-1-4h3s0 7 1 8 4 9 4 9l-5 4-1 3 18-1-1-9-2-15v-4l1-11 4-2v-9l3 1 1 7 2 1v7c0 1-1 11-1 11l1 3-3 2 4 2h6l-1-5 5-1h5l2-3-2-3 1-3 2 1v-18h3l-1-8h3s0 8 1 9 1 19 1 19l5-1 1-3 1-12-1-5 3 1c.23.87.42 1.75.6 2.63a19.66 19.66 0 0 0 .4 3v14.32s1 10 2 10-2 4-1 5 1 6 1 6l-4 5h9l4-2v-4l3-1v-1.29l20.32.75 3-2v-1h-4l-7-5 1-11 3-8v-9l3 1 3 15v3l3 1-1 10 4 1 9 1v3l5 3h3l3-4v-5h5v6l5 1h6l1-10 4-1 1 3-1 4.37v2.63h11c-1 0-2-7-2-7l1-5-1-6v-12c0 1 3 7 3 7s2 11 2 12v11h10l-1-6-1-8 4-7v-3h3l2 8 1 9v2l-6 5h39.34v.1c-2 1-6 0-6 0s0 4 1 4 17 3 17 3l-1-7h3l1-10h11l-4-16h3l6 23h2l-4 5h3l10-2-1-4h2l-2-9v-10l2-2v-3l-2-2 1-12-3-2s-3-23-2-22 8 4 8 4l-3 8v6l1 4v7l2 6 5 8h-4l-1 2 8 5v2l9 1s-2 9-2 10 1 3 1 4a44.23 44.23 0 0 1 -1 5l-1 2-5 1v3l12-1 7-1s-1-10 0-9 8-2 8-2l-1-8 1-2-4-5 2-2h9v6l-7 4 1 2 18-3-2-5 2-6 4-19 3-10 5 11 5 21 1 12-5 3 1 2 5 1 10 1v-4l2-3-1-6 1-8 9-5v8c0 1 2 3 2 3l-1 2-3 3v3l4 1-2 2h-8l-1 1 2 3s6 2 7 2 11 2 11 2l-1-4 2-2 5-20s2 1 2 2a44.23 44.23 0 0 1 -1 5l6-1v-4l2-1s3 6 3 7a22.09 22.09 0 0 0 1 4l-3 17h19l1-8-1-5-2-7s-1-6-1-7 2-5 2-5l3 1 3-4s-1-1 0-1 5-2 5 0 3 6 3 6-2 2-1 3 4 11 4 11l-2 6 2 2-2 2-4 1v2l10 1 6-4v-3l1-3v-3l-1-2 3-1h5c-1 0-1-4-1-4h3s0 7 1 8 4 9 4 9l-5 4-1 3 18-1-1-9-2-15v-4l1-11 4-2v-9l3 1 1 7 2 1v7c0 1-1 11-1 11l1 3-3 2 4 2h6l-1-5 2-.4-.7 2.77-1 9h31.57c.13 1.38.13 2.63.13 2.63l-4 5h9l4-2v-4l3-1v-.63h1.3l-1.3-1.09v-12.22l-1-6 1.85-4.63h.45v3l4 7-1 8-1 6h10v-11c0-1 2-12 2-12s3-6 3-7v12l-1 6 1 5s-1 7-2 7h11v-2.63l-1-4.37 1-3 4 1 1 10h6l5-1h5.75l2.25 3h3l5-3h15.5l1.5 1 27-1h7.48v-2.63l-1-4.37 1-3 4 1 1 10h6l5-1v-6h5v5l3 4h3l5-3v-3l9-1 4-1-1-10 3-1v-3l3-15 3-1v9l3 8 1 11-7 5h-4v1l3 2 27-1v-5l-2-6-2-14-2-4s12-1 13-2 1-12 1-12l5-9 1-23zm-1898.66 74.53-5-4 1-5 5-9s0 17-1 18zm102 0-1-3v-6h2l1 7zm23-4-5-10v-16l2 9 4 1zm9.37-9.9-.37.85v-2l.8-.39zm1-3.41-.35-.69v-3.52l1.37.62zm270.31 17.75-5-4 1-5 3.25-5.85 1.74-.34c-.07 4.87-.26 14.44-1.01 15.19zm8.19-2.16-1.19-.84.49-5.36c.35 2.14.79 4 1.22 4s-.04 1.05-.54 2.24zm93.81 2.16-1-3v-6h2l1 7zm23-4-5-10v-16l2 9 4 1zm9.37-9.9-.37.85v-2l.8-.4zm1-3.42-.34-.68v-3.53l1.37.63zm290.53 5.4-.5-3 1.44-3.6zm2.28-11.05c.16-.71.3-1.45.4-2.09l.61.06zm7 23-5-4 1-5 5-9s-.04 16.97-1.04 17.97zm102 0-1-3v-6h2l1 7zm23-4-5-10v-16l2 9 4 1zm9.37-9.9-.37.85v-2l.8-.4zm1-3.42-.35-.68v-3.53l1.37.63zm296.34 16.88-5-4 1-5 5-9s-.06 16.97-1.06 17.97zm102 0-1-3v-6h2l1 7zm23-4-5-10v-16l2 9 4 1zm9.37-9.9-.37.85v-2l.8-.39zm1-3.41-.34-.69v-3.52l1.37.62zm278.2 15.75.39-2.68c.1.2.2.31.31.31.54 0-.1 1.19-.63 2.43zm-16-12-5 10-.27-4.41 2-3-2-3 1-3 2 1v-4.55l.3-.08 2-9zm129.69 4.76-1.58-11a52 52 0 0 0 2.24-5.14h.13v11.43zm-21 9.29-1.26-1.05v-2l1-9 1.71-6.84 1.81 4.84 1 11zm-18.69-119.05 2-1v-3l-1-1v-4l.48-.95v1.95l2 5-1 3s-2 3-3 3a2.29 2.29 0 0 0 -.44.07v-.07zm10.58 118.11.42-.11-.68-6.87.16-1.13h2v6l-1 3zm102.9.89c-1-1-1-18-1-18l5 9 1 5z"/><path d="m1089.49 466.39v.61c-13.35 2.16-60.46 9.58-84.19 10.83-27.82 1.47-92.18.69-92.18.69l-3.59.37 16.74 161.39 3.59-.37-12-115.29c14.45-.3 71.13-1.49 89.6-2.12 20.19-.7 76.1-5.37 81.57-5.82l-.94 111.95h3.6l1.37-162.25z"/><path d="m645.57 508.64v.61c-7.45-.16-33.73-.94-47-3.83-15.53-3.38-51.43-15.37-51.43-15.37l-2-.25 9.33 164.3 2 .25-6.64-117.35c8.06 2.22 39.69 10.91 50 13.49 11.26 2.82 42.46 7.9 45.51 8.39l-.53 111.79 2 .66.77-162z"/><path d="m1252.78 498.07c-8.82-1.31-13.06-6.86-18-11.1-4-3.47-14.73-5.41-18.55-6l.3-3.21-2.56-.24-14.79 161.58 2.55.24 10.62-115.91c2.41.3 7.15 1 13 2.08 8.49 1.63 15 10.12 22.21 11.1s18.28-3.59 18.28-3.59l3.92-35.59a50.13 50.13 0 0 1 -16.98.64z"/><path d="m1479.36 526.66c-5.21-.68-8.31-5.9-11.63-9.77-2.71-3.16-9.09-4.33-11.35-4.66l-.22-3.21-1.49-.06 11.14 161.43 1.49.05-8-115.8c1.42.14 4.21.46 7.68 1.16 5 1 9.82 9 14 9.47s10-4.85 10-4.85l-2.08-35.6a17.09 17.09 0 0 1 -9.54 1.84z"/><path d="m480 490.48a64.48 64.48 0 0 1 -18.81 4.92c-10.25 1-16.62-3.33-23.34-6.19-5.49-2.34-18.07-1.51-22.51-1.12l-.61-3.19-2.93.42 30.7 160.07 2.93-.42-22-114.82c2.79-.32 8.28-.88 15.12-1.27 10-.57 19.76 6 28.09 5.12s19.36-8.1 19.36-8.1z"/><path d="m794.73 498.35a31.6 31.6 0 0 1 -12.8 3c-6.7-.07-10.12-5-14-8.47-3.15-2.86-11.33-3.3-14.23-3.36l.1-3.21-1.94.12-5.17 161.21 1.94-.12 3.71-115.64c1.83 0 5.44 0 9.87.26 6.47.44 11.72 7.91 17.18 7.89s13.71-6.03 13.71-6.03z"/></g><path d="m1414.18 63.35-6.35-23.08-2.06-1.5.27-2.88-2.26-.2-10.91 119.23 2.25.2 7.2-78.66 2.33 4.25 7.62 9.53 3.18 7.83z"/><path d="m1741.53 65.65-10.77-23.08-3.49-1.51.45-2.87-3.82-.2-18.52 119.23 3.82.2 12.22-78.66 3.95 4.25 12.93 9.53 5.39 7.83z"/><path d="m400.48 62.58-8.41-22.42-2.19-1.31.01-2.88h-2.26l-.1 119.72 2.26.01.06-78.99 2.71 4.02 8.45 8.8 3.87 7.51z"/><path d="m187.5 61.83-12.39-20.48-2.39-.89-.52-2.83-2.23.41 21.95 117.7 2.22-.41-14.48-77.65 3.4 3.45 9.93 7.1 5.19 6.67z"/><path d="m1131.57 131.31 2.01-6.39.66-9.22-.37-7.95.15-.97-1.11-4.24-.67-8.77-1.79-2.6-.67-2.08-.15-1.86-.96-2.38.45-.45.96.75.82 1.41.67.97.74-1.49-.07-1.64-1.12-1.26-.3-1.49.53-.44 1.18 1.56-.44-2.23.67-.52 1.86 3.05 1.56 2.97.29 4.46-.59 2.16 2.38 8.77.37 4.98 2.08 10.55 2.31 1.79-.6 8.1.67 6.17z"/><path d="m1167.21 148.52-2.62-6.16-1.56-9.11-.4-7.95-.25-.95.7-4.33-.18-8.79 1.52-2.77.46-2.13-.03-1.87.73-2.46-.48-.4-.9.84-.67 1.48-.57 1.03-.89-1.41-.08-1.63.98-1.37.16-1.51-.57-.39-1.03 1.67.23-2.27-.72-.45-1.55 3.21-1.27 3.12.14 4.46.8 2.09-1.51 8.96.11 4.99-1.05 10.71-2.11 2 1.37 8.01-.06 6.2z"/><path d="m1590.04 140.62 3.25-5.86 2.5-8.9 1.23-7.87.34-.91-.24-4.38 1.1-8.73-1.23-2.9-.24-2.18.23-1.85-.47-2.52.52-.35.8.92.52 1.55.46 1.08 1.03-1.31.25-1.61-.84-1.47.01-1.51.6-.34.85 1.77.01-2.27.76-.38 1.21 3.36.94 3.23-.61 4.43-1.01 1.99.57 9.07-.63 4.95-.08 10.76 1.91 2.21-2.21 7.82-.58 6.18z"/><path d="m741.13 143.31-4.53-5.08-4.13-8.28-2.53-7.55-.52-.83-.36-4.42-2.51-8.44.97-3.18-.04-2.23-.53-1.79.17-2.62-.65-.23-.77 1.11-.37 1.66-.36 1.19-1.36-1.06-.52-1.55.74-1.66-.23-1.51-.73-.19-.71 1.96-.34-2.26-.92-.19-.88 3.63-.6 3.43 1.33 4.28 1.44 1.74.66 9.18 1.44 4.79 1.64 10.7-1.84 2.65 3.64 7.28 1.55 6.02z"/><path d="m431.24 146.95-2.78-6.1-1.79-9.07-.61-7.93-.26-.94.58-4.35-.41-8.78 1.45-2.81.41-2.14-.08-1.87.67-2.48-.5-.38-.87.85-.64 1.5-.54 1.05-.92-1.39-.13-1.63.95-1.39.11-1.51-.57-.38-.99 1.69.17-2.26-.72-.44-1.47 3.25-1.19 3.15.25 4.46.86 2.07-1.29 8.99.25 4.99-.78 10.73-2.06 2.06 1.58 7.96.09 6.21z"/><path d="m824.31 153.01-2.07-7.47-1.59-5.89-.88-4.03-2.77-4.8-2.52-2.39-1.64-4.41-1.01-4.29-.88-2.4-.89-.25-1.51-2.14-.76-2.02-.63-.5-1.51-.76-.38-.63.76-.76h1.26l.5-1 .89-.38 1.64.38.5-.64.88.13 1.52.88.37-.75 1.26.25.38 1.01.63 1.51.51 2.14-.25 1.14 4.15 6.55 6.31 6.81 5.17 5.42 5.42 5.93z"/><path d="m272.2 141.63-.15-7.75-.06-6.1.15-4.13-1.5-5.33-1.84-2.95-.49-4.68.09-4.41-.25-2.53-.8-.47-.93-2.45-.23-2.14-.48-.65-1.28-1.11-.21-.7.92-.55 1.23.32.73-.86.95-.14 1.5.77.64-.48.82.34 1.25 1.23.55-.64 1.16.56.12 1.07.23 1.63-.04 2.2-.53 1.03 2.39 7.39 4.41 8.16 3.66 6.54 3.77 7.09z"/><path d="m1379.29 144.45.03-5.22.06-4.61.18-3.43-1.05-4.76-1.44-2.78-.43-4.87.05-5.07-.26-3.12-.71-.52-.9-3.13-.29-2.94-.48-.87-1.26-1.45-.24-1.01.86-.95 1.2.31.69-1.41.94-.37 1.49.99.65-.85.81.42 1.21 1.72.59-1.06 1.14.7.05 1.61.13 2.35-.17 3.1-.55 1.45 1.75 8.9 3.1 8.36 2.28 5.89 2.08 5.73z"/></g><g fill="#a08c79" transform="translate(69.14 -466.39)"><path d="m567.27 508.43v25l-2.73-.65v-22.23l-3.9-.92v22.21l-2.73-.65v-25z"/><path d="m577.65 510.68a5.41 5.41 0 0 1 1.76.72 4.45 4.45 0 0 1 1.17 1.11 4.38 4.38 0 0 1 .65 1.38 5.67 5.67 0 0 1 .22 1.54v17.71a4.74 4.74 0 0 1 -.22 1.45 2.47 2.47 0 0 1 -.65 1.06 2.21 2.21 0 0 1 -1.17.55 4.21 4.21 0 0 1 -1.76-.11l-2.09-.49a5.59 5.59 0 0 1 -1.75-.73 4 4 0 0 1 -1.17-1.1 4.39 4.39 0 0 1 -.66-1.38 5.74 5.74 0 0 1 -.21-1.55v-17.71a4.64 4.64 0 0 1 .21-1.44 2.43 2.43 0 0 1 .66-1.07 2.21 2.21 0 0 1 1.17-.55 4.33 4.33 0 0 1 1.75.11zm0 22.64a.81.81 0 0 0 .82-.13 1 1 0 0 0 .25-.7v-17.71a1.49 1.49 0 0 0 -.25-.81 1.27 1.27 0 0 0 -.82-.52l-2.09-.5c-.4-.09-.68-.05-.83.13a1.05 1.05 0 0 0 -.23.7v17.71a1.55 1.55 0 0 0 .23.81 1.2 1.2 0 0 0 .83.52z"/><path d="m591.48 522.1a5.45 5.45 0 0 1 1.75.72 4.19 4.19 0 0 1 1.82 2.48 5.43 5.43 0 0 1 .22 1.55v9.36a4.23 4.23 0 0 1 -.3 1.71 2.33 2.33 0 0 1 -.82 1 2.47 2.47 0 0 1 -1.2.38 4.68 4.68 0 0 1 -1.47-.13l-5.36-1.27v-25l8.44 2v2.77l-5.71-1.35v5.14zm1.06 4.1a1.55 1.55 0 0 0 -.23-.81 1.26 1.26 0 0 0 -.83-.52l-2.63-.62v11.52l2.63.62a1.06 1.06 0 0 0 .76-.06c.2-.1.3-.36.3-.77z"/><path d="m607.92 518.08v2.77l-5.46-1.29v5.14l4.11 1v2.81l-4.11-1v11.49l5.46 1.29v2.77l-8.19-1.94v-25z"/><path d="m624 544.12v6.09l-1.87-.45-.54-3.44-8.47-2-.24 3.25-2.2-.52v-6.05l1.59.38a1.48 1.48 0 0 0 .78-1.47l.82-20.37 8.26 2v22.22zm-4.6-1.09v-19.44l-2.91-.69-.74 17.71a2.18 2.18 0 0 1 -.57 1.42z"/><path d="m635.7 549.66-.53-4.91-4.85-1.15-.57 4.65-2.75-.65 2.8-24.32 5.81 1.38 2.84 25.66zm-5.1-8.52 4.29 1-1.7-15.31-.92-.22z"/><path d="m929.25 502.74 2.77-.08v7.06a5 5 0 0 1 -.22 1.5 3.45 3.45 0 0 1 -.66 1.24 3.23 3.23 0 0 1 -1.19.86 4.69 4.69 0 0 1 -1.78.36l-2.09.07a4.55 4.55 0 0 1 -1.78-.26 2.89 2.89 0 0 1 -1.19-.79 3.36 3.36 0 0 1 -.67-1.2 5.16 5.16 0 0 1 -.21-1.49v-17.71a5.23 5.23 0 0 1 .21-1.5 3.67 3.67 0 0 1 .67-1.25 3.35 3.35 0 0 1 1.19-.86 4.65 4.65 0 0 1 1.78-.36l2.09-.06a4.59 4.59 0 0 1 1.78.25 3 3 0 0 1 1.19.79 3.16 3.16 0 0 1 .66 1.21 4.78 4.78 0 0 1 .2 1.48v4.83l-2.77.08v-4.82a1.21 1.21 0 0 0 -.25-.75 1 1 0 0 0 -.83-.3l-2.09.06a1 1 0 0 0 -.83.35 1.23 1.23 0 0 0 -.25.77v17.71a1.15 1.15 0 0 0 .25.75 1 1 0 0 0 .83.3l2.09-.07a1 1 0 0 0 .83-.35 1.26 1.26 0 0 0 .25-.76z"/><path d="m946.56 487.93v25l-2.77.09v-22.24l-3.17.1-.82 18.78a4.68 4.68 0 0 1 -.74 2.61 2.94 2.94 0 0 1 -2.4.94h-1.51v-2.78h1.15a.9.9 0 0 0 .56-.14.94.94 0 0 0 .16-.57l.94-21.55z"/><path d="m959.88 512.51-.54-4.77-4.93.15-.57 4.8-2.78.09 2.85-25.07 5.9-.18 2.88 24.89zm-5.18-7.15 4.36-.13-1.73-14.86h-.94z"/><path d="m972.27 487.15a4.59 4.59 0 0 1 1.78.25 3 3 0 0 1 1.19.8 3.12 3.12 0 0 1 .66 1.2 4.79 4.79 0 0 1 .22 1.49v1.76a4.5 4.5 0 0 1 -.6 2.56 3.12 3.12 0 0 1 -1.56 1.21 3.08 3.08 0 0 1 1.56 1.16 4.32 4.32 0 0 1 .6 2.52v8.07a4.62 4.62 0 0 1 -.31 1.79 3.14 3.14 0 0 1 -.83 1.21 3.28 3.28 0 0 1 -1.22.7 5.24 5.24 0 0 1 -1.49.27l-5.37.16v-25zm1.08 3.82a1.2 1.2 0 0 0 -.24-.75 1 1 0 0 0 -.84-.3l-2.6.08v5.19l1.88-.06a1.78 1.78 0 0 0 1.27-.56 2 2 0 0 0 .53-1.48zm0 8.86a1.93 1.93 0 0 0 -.53-1.45 1.71 1.71 0 0 0 -1.27-.48l-1.88.06v11.48l2.6-.08a1.27 1.27 0 0 0 .77-.25 1.07 1.07 0 0 0 .31-.86z"/><path d="m988.57 511.64-.54-4.77-4.93.15-.57 4.81-2.78.08 2.85-25.07 5.9-.18 2.88 24.9zm-5.18-7.15 4.36-.13-1.75-14.85h-.94z"/><path d="m1009.23 485.89v2.77l-5.58.72v22.21l-2.77.36v-24.95z"/><path d="m1021.61 484.28v2.78l-5.54.71v5.15l4.17-.54v2.81l-4.17.54v11.48l5.54-.72v2.78l-8.31 1.07v-25z"/><path d="m1035.26 495.73a5.06 5.06 0 0 1 -.31 1.82 3.58 3.58 0 0 1 -.85 1.3 4.18 4.18 0 0 1 -1.24.82 5.07 5.07 0 0 1 -1.49.41l-2.56.33v7.92l-2.77.36v-25l5.33-.69a4.47 4.47 0 0 1 1.78.07 2.82 2.82 0 0 1 1.2.68 2.56 2.56 0 0 1 .69 1.13 4.92 4.92 0 0 1 .22 1.47zm-2.81-9a1.08 1.08 0 0 0 -.24-.72.86.86 0 0 0 -.84-.22l-2.56.33v11.52l2.56-.33a1.39 1.39 0 0 0 .77-.33 1.13 1.13 0 0 0 .31-.89z"/><path d="m1045.62 481a4.52 4.52 0 0 1 1.79.07 2.67 2.67 0 0 1 1.18.67 2.83 2.83 0 0 1 .67 1.14 4.93 4.93 0 0 1 .21 1.47v17.65a5.42 5.42 0 0 1 -.21 1.52 3.78 3.78 0 0 1 -.67 1.31 3.73 3.73 0 0 1 -1.18 1 5.31 5.31 0 0 1 -1.79.53l-2.12.28a4.44 4.44 0 0 1 -1.78-.08 2.56 2.56 0 0 1 -1.19-.67 3 3 0 0 1 -.67-1.14 4.93 4.93 0 0 1 -.21-1.47v-17.7a5.47 5.47 0 0 1 .21-1.52 4.06 4.06 0 0 1 .67-1.31 3.64 3.64 0 0 1 1.19-1 5 5 0 0 1 1.78-.54zm0 22.64a1.12 1.12 0 0 0 .83-.43 1.33 1.33 0 0 0 .25-.79v-17.75a1 1 0 0 0 -.25-.72.87.87 0 0 0 -.83-.22l-2.12.27a1.15 1.15 0 0 0 -.85.44 1.42 1.42 0 0 0 -.23.78v17.72a1.15 1.15 0 0 0 .23.72.88.88 0 0 0 .85.22z"/><path d="m1063.62 478.84v25l-2.77.36v-11.97l-1.58.21-2.74 12.3-2.84.37 2.77-12.49a3 3 0 0 1 -1.73-1 3.55 3.55 0 0 1 -.68-2.4v-5.33a5.52 5.52 0 0 1 .21-1.52 4.06 4.06 0 0 1 .67-1.31 3.64 3.64 0 0 1 1.19-1 5 5 0 0 1 1.78-.54zm-2.77 3.13-2.95.38a1.15 1.15 0 0 0 -.85.44 1.42 1.42 0 0 0 -.23.78v5.33a.88.88 0 0 0 .32.79 1.09 1.09 0 0 0 .76.15l2.95-.38z"/><path d="m1085.51 476v25l-2.77.36v-10.8l.36-11.75-1 .13-2.7 16.8-4.61.6-2.7-16.1-1 .13.36 11.65v10.8l-2.78.36v-25l5.65-.74 2.53 16.17.5-.07 2.52-16.81z"/></g></svg>