<svg height="263.84" viewBox="0 0 1925.69 263.84" width="1925.69" xmlns="http://www.w3.org/2000/svg"><path d="m1924.66 172.76-8-16-2-2-8-12h-2l2-6a7 7 0 0 0 0-5l-2-6h-9l-7 5v4l1 1-1 2v1l2 1v2l-2 4v2h-2l-1-8-1-2h-7l-3 1-3-2-2-3-1-2 1-3 2-1v-3l-1-1v-4l1-2-2-3-4-1h-6l-2 2v3l1 4v7h-2v3l-12 6v2h-2s-12-4-12-3-2-2-2-2l-1-3h2l2-4v-4l-3-4-2-1h-4l-4 1a5 5 0 0 0 -1-3l-3 6v2h-2.52l-3.62 2.59-.9-3.59s1-3 2-3-2-4-2-4l-3-3-2-1-12 1-3 2v.24l-1.48-2.21-4-1h-6l-2 2v3l1 4v7h-2v3l-12 6v2h-2s-12-4-12-3-2-2-2-2l-1-3h2l2-4v-4l-3-4-2-1h-4l-4 1a4.86 4.86 0 0 0 -1-3l-3 6v3l1 3 1 4 3 2-1 3h-2v-3l-4-4-4-3-1-4s1-3 2-3-2-4-2-4l-3-3-2-1-6.93.58-2.37-1-5 2-4 3-1 5 3 1v3h1l.49 2.48c-.66.86-1.6 1.89-2.19 1.89a7.76 7.76 0 0 0 -2 .63h-.29l-3-2h-3l-2 2-1 2v4.78l-.7.59-4.64 7.63h-.66l-2-2-2-2v-2l3-1v-5l-1-3-4-3-4-1-3 2s-2 2-2 3a42.13 42.13 0 0 0 1 5l-1 3-2-2-3-4-1-4-3-3h-3l-2 2h-2l1-6-5-4-2-2c-2-1-2 1-2 1h-3l-2-1h-1l-1 3s1 3 0 3-1 1-1 2v6l2 2v3l-1 3-2-2-3-3-2-3h-1v-3l2-2v-4l-1-3-3-3-3-1h-9l-1 2v2l2 2v2l-1 4 1 1v2l1 3 2 1v4a4.82 4.82 0 0 1 -4 0l-1-2v-11l-3-2h-5l-1 2a9.91 9.91 0 0 0 -1 3 23 23 0 0 1 -1 4v4l-1-1a3.48 3.48 0 0 1 -1-2 9.91 9.91 0 0 0 -1-3v-3l-4-1-3-1h-3l-3-2-4 2-4-2-5-1h-5l-4 2a3.09 3.09 0 0 1 -2-1l-3-3 2-4-4 4h-2l1-3-2 1-1 2s-4 2-5 2-3 4-3 4v10l-2-4-2-2 1-7-2-4h-6l-3-4-3-3-3 1-2 1-2 2-1 6 2 5 2 1v3l-2 4-1 2h-2l-2-4-3-2-3 1-1 2-1 2 1 4 2 4-2 2c-1 0-4-6-4-6l-6-6-7-3 1-2 1-3-1-5-4-3-3-1-4 2-4-3-4-1-9 6v2l3 2 1 3 1 3c1 1-1 3-1 3l-3 3h-3v2l-1 5-1 4-2 3-3-7 1-4-1-3-3-4-4-2h-4l-3 3-2-3 2-5-2-4-4-2-3-1-5 1-2 3h2l-1 4 1 5 1 3 1 1-3 3 1 3 4 3s2 2 1 3-1 4-1 4l-2 1.32-9.39-15.42-7-6s-4-2-5-2-3-3-3-3l-1-3 2-5v-4l-3-2-12-1-2 1-3 3s-3 4-2 4 2 3 2 3l-1 4-4 3-4 4v3h-2l-1-3 3-2 1-4 1-3v-3l-3-6a5 5 0 0 0 -1 3l-4-1h-4l-2 1-3 4v4l2 4h2l-1 3s-2 3-2 2-12 3-12 3h-2v-2l-12-6v-3h-2v-7l1-4v-3l-2-2h-6l-4 1-2 3 1 2v4l-1 1v3l2 1 1 3-1 2-2 3-3 2-3-1h-7l-1 2-1 8h-2v-2l-2-4v-2l2-1v-1l-1-2 1-1v-4l-7-5h-9l-2 6c-.06.18-.12.36-.17.54h-2.15l-2-2-1-3-1-4s2-2 1-3a41.7 41.7 0 0 1 -3-4l-5-2-5 2-4 3-1 5 3 1v3h1l1 5h-5l-3-2h-3l-2 2-1 2v7l-1 2-2 4h-3l-2-2-2-2v-2l3-1v-5l-1-3-4-3-4-1-3 2s-2 2-2 3a42.53 42.53 0 0 0 1 5l-1 3-2-2-3-4-1-4-3-3h-3l-2 2h-2l1-6-5-4-2-2c-2-1-2 1-2 1h-3l-2-1h-1l-1 3s1 3 0 3-1 1-1 2v6l2 2v3l-1 3-2-2-3-3-2-3h-1v-3l2-2v-4l-1-3-3-3-3-1h-9l-1 2v2l2 2v2l-1 4 1 1v2l1 3 2 1v4a4.89 4.89 0 0 1 -4 0l-1-2v-11l-3-2h-5l-1 2a9.91 9.91 0 0 0 -1 3 23 23 0 0 1 -1 4v4l-1-1a3.54 3.54 0 0 1 -1-2 9.91 9.91 0 0 0 -1-3v-3l-4-1-3-1h-3l-3-2-4 2-4-2-5-1h-5l-4 2a3.13 3.13 0 0 1 -2-1l-3-3 2-4-4 4h-2l1-3-2 1-1 2s-4 2-5 2-3 4-3 4v10l-2-4-2-2 1-7-2-4h-6l-3-4-3-3-3 1-2 1-2 2-1 6 2 5 2 1v3l-2 4-1 2h-2l-2-4-3-2-3 1-1 2-1 2 1 4 2 4-2 2c-1 0-4-6-4-6l-6-6-7-3 1-2 1-3-1-5-4-3-3-1-4 2-4-3-4-1-9 6v2l3 2 1 3 1 3c1 1-1 3-1 3l-3 3h-3v2l-1 5-1 4-2 3-3-7 1-4-1-3-3-4-4-2h-4l-3 3-2-3 2-5-2-4-4-2-3-1-5 1-2 3h2l-1 4 1 5 1 3 1 1-3 3 1 3 4 3s2 2 1 3-1 4-1 4l-2 1.32-9.39-15.42-7-6s-4-2-5-2-3-3-3-3l-1-3 2-5v-4l-3-2-12-1-2 1-3 3s-3 4-2 4 2 3 2 3l-1 4-4 3-4 4v3h-2l-1-3 3-2 1-4 1-3v-3l-3-6a5 5 0 0 0 -1 3l-4-1h-4l-2 1-3 4v4l2 4h2l-1 3s-2 3-2 2-12 3-12 3h-2v-2l-12-6v-3h-2v-7l1-4v-3l-2-2h-6l-4 1-2 3 1 2v4l-1 1v3l2 1 1 3-1 2-2 3-3 2-3-1h-7l-1 2-1 8h-2v-2l-2-4v-2l2-1v-1l-1-2 1-1v-4l-7-5h-9l-2 6a7 7 0 0 0 -.34 1.19l-1.41-1.12h-4l-2-2-1-3-1-4s2-2 1-3a41.7 41.7 0 0 1 -3-4l-5-2-5 2-4 3-1 5 3 1v3h1l1 5h-5l-3-2h-3l-2 2-1 2v7l-1 2-2 4h-3l-2-2-2-2v-2l3-1v-5l-1-3-4-3-4-1-3 2s-2 2-2 3a42.53 42.53 0 0 0 1 5l-1 3-2-2-3-4-1-4-3-3h-3l-2 2h-2l1-6-5-4-2-2c-2-1-2 1-2 1h-3l-2-1h-1l-1 3s1 3 0 3-1 1-1 2v6l2 2v3l-1 3-2-2-3-3-2-3h-1v-3l2-2v-4l-1-3-3-3-3-1h-9l-1 2v2l2 2v2l-1 4 1 1v2l1 3 2 1v4a4.89 4.89 0 0 1 -4 0l-1-2v-11l-3-2h-5l-1 2a9.91 9.91 0 0 0 -1 3 23 23 0 0 1 -1 4v4l-1-1a3.42 3.42 0 0 1 -1-2 9.91 9.91 0 0 0 -1-3v-3l-4-1-3-1h-3l-3-2-4 2-4-2-5-1h-5l-4 2a3.13 3.13 0 0 1 -2-1l-3-3 2-4-4 4h-2l1-3-2 1-1 2s-4 2-5 2-3 4-3 4v10l-2-4-2-2 1-7-2-4h-6l-3-4-3-3-3 1-2 1-2 2-1 6 2 5 2 1v3l-2 4-1 2h-2l-2-4-3-2-3 1-1 2-1 2 1 4 2 4-2 2c-1 0-4-6-4-6l-6-6-7-3 1-2 1-3-1-5-4-3-3-1-4 2-4-3-4-1-9 6v2l3 2 1 3 1 3c1 1-1 3-1 3l-3 3h-3v2l-1 5-1 4-2 3-3-7 1-4-1-3-3-4-4-2h-4l-3 3-2-3 2-5-2-4-4-2-3-1-5 1-2 3h2l-1 4 1 5 1 3 1 1-3 3 1 3 4 3s2 2 1 3-1 4-1 4l-2 1.32-9.39-15.42-7-6s-4-2-5-2-3-3-3-3l-1-3 2-5v-4l-3-2-12-1-2 1-3 3s-3 4-2 4 2 3 2 3l-1 4-4 3-4 4v3h-2l-1-3 3-2 1-4 1-3v-3l-3-6a5 5 0 0 0 -1 3l-4-1h-4l-2 1-3 4v4l2 4h2l-1 3s-2 3-2 2-12 3-12 3h-2v-2l-12-6v-3h-2v-7l1-4v-3l-2-2h-6l-4 1-2 3 1 2v4l-1 1v3l2 1 1 3-1 2-2 3-1.61 1.06-1.7-3.4-4-3h-4l-2-2-1-3-1-4s2-2 1-3a41.7 41.7 0 0 1 -3-4l-5-2-5 2-4 3-1 5 3 1v1.34h-3.71l-1.69 5.06-.6-.4h-3l-2 2-1 2v7l-1 2-2 4h-3l-2-2-2-2v-2l3-1v-5l-1-3-4-3-4-1-3 2s-2 2-2 3a42.13 42.13 0 0 0 1 5l-1 3-2-2-3-4-1-4-3-3h-3l-2 2h-2l1-6-5-4-2-2c-2-1-2 1-2 1h-3l-2-1h-1l-1 3s1 3 0 3-1 1-1 2v6l2 2v3l-1 3-2-2-3-3-2-3h-1v-3l2-2v-4l-1-3-3-3-3-1h-9l-1 2v2l2 2v2l-1 4 1 1v2l1 3 2 1v4a4.82 4.82 0 0 1 -4 0l-1-2v-11l-3-2h-5l-1 2a9.91 9.91 0 0 0 -1 3 23 23 0 0 1 -1 4v4l-1-1a3.48 3.48 0 0 1 -1-2 9.91 9.91 0 0 0 -1-3v-3l-4-1-3-1h-3l-3-2-4 2-4-2-5-1h-5l-4 2a3.09 3.09 0 0 1 -2-1l-3-3 2-4-4 4h-2l1-3-2 1-1 2s-4 2-5 2-3 4-3 4v10l-2-4-2-2 1-7-2-4h-6l-3-4-3-3-3 1-2 1-2 2-1 6 2 5 2 1v3l-2 4-1 2h-2l-2-4-3-2-3 1-1 2-1 2 1 4 2 4-2 2c-1 0-4-6-4-6l-6-6-7-3 1-2 1-3-1-5-4-3-3-1-4 2-4-3-4-1-9 6v2l3 2 1 3 1 3c1 1-1 3-1 3l-3 3h-3v2l-1 5-1 4-2 3-3-7 1-4-1-3-3-4-4-2h-4l-3 3-2-3 2-5-2-4-4-2-3-1-5 1-2 3h2l-1 4 1 5 1 3 1 1-3 3 1 3 4 3s2 2 1 3-1 4-1 4l-2 1.32-9.39-15.42-7-6s-4-2-5-2-3-3-3-3l-1-3 2-5v-4l-3-2-12-1-2 1-3 3s-3 4-2 4 2 3 2 3l-1 4-4 3-4 4v3h-2l-1-3 3-2 1-4 1-3v-3l-3-6a5 5 0 0 0 -1 3l-4-1h-4l-2 1-3 4v4l2 4h2l-1 3s-2 3-2 2-12 3-12 3h-2v-2l-12-6v-3h-2v-7l1-4v-3l-2-2h-6l-4 1-2 3 1 2v4l-1 1v3l2 1 1 3-1 2-2 3-3 2-3-1h-7l-1 2-1 8h-2v-2l-2-4v-2l2-1v-1l-1-2 1-1v-4l-7-5h-9l-2 6a7 7 0 0 0 0 5l2 6h-2l-8 12-2 2-8 16-1 4 1 23 5 9s0 11 1 12 13 2 13 2l-2 4-2 14-2 6v5l27 1 3-2v-1h-4l-7-5 1-11 3-8v-9l3 1 3 15v3l3 1-1 10 4 1 9 1v3l5 3h3l3-4v-5h5v6l5 1h6l1-10 4-1 1 3-1 4.37v2.63h11c-1 0-2-7-2-7l1-5-1-6v-12c0 1 3 7 3 7s2 11 2 12v11h10l-1-6-1-8 4-7v-3h3l2 8 1 9v2l-6 5h39.46v.1c-2 1-6 0-6 0s0 4 1 4 17 3 17 3l-1-7h3l1-10h11l-4-16h3l6 23h2l-4 5h3l10-2-1-4h2l-2-9v-10l2-2v-3l-2-2 1-12-3-2s-3-23-2-22 8 4 8 4l-3 8v6l1 4v7l2 6 5 8h-4l-1 2 8 5v2l9 1s-2 9-2 10 1 3 1 4a42.13 42.13 0 0 1 -1 5l-1 2-5 1v3l12-1 7-1s-1-10 0-9 8-2 8-2l-1-8 1-2-4-5 2-2h9v6l-7 4 1 2 18-3-2-5 2-6 4-19 3-10 5 11 5 21 1 12-5 3 1 2 5 1 10 1v-4l2-3-1-6 1-8 9-5v8c0 1 2 3 2 3l-1 2-3 3v3l4 1-2 2h-8l-1 1 2 3s6 2 7 2 11 2 11 2l-1-4 2-2 5-20s2 1 2 2a42.13 42.13 0 0 1 -1 5l6-1v-4l2-1s3 6 3 7a23 23 0 0 0 1 4l-3 17h19l1-8-1-5-2-7s-1-6-1-7 2-5 2-5l3 1 3-4s-1-1 0-1 5-2 5 0 3 6 3 6-2 2-1 3 4 11 4 11l-2 6 2 2-2 2-4 1v2l10 1 6-4v-3l1-3v-3l-1-2 3-1h5c-1 0-1-4-1-4h3s0 7 1 8 4 9 4 9l-5 4-1 3 18-1-1-9-2-15v-4l1-11 4-2v-9l3 1 1 7 2 1v7c0 1-1 11-1 11l1 3-3 2 4 2h6l-1-5 5-1h5l2-3-2-3 1-3 2 1v-9c2.37.26 4.29.42 4.29.42l-2 4-2 14-2 6v5l20.64.76c.07 1.06.07 1.9.07 1.9l-4 5h9l4-2v-4l3-1v-5.24l2.29.58 9 1v3l5 3h3l3-4v-5h5v6l5 1h6l1-10 4-1 1 3-1 4.37v2.63h11c-1 0-2-7-2-7l1-5-1-6v-12c0 1 3 7 3 7s2 11 2 12v11h10l-1-6-1-8 4-7v-3h3l2 8 1 9v2l-6 5h39.34v.1c-2 1-6 0-6 0s0 4 1 4 17 3 17 3l-1-7h3l1-10h11l-4-16h3l6 23h2l-4 5h3l10-2-1-4h2l-2-9v-10l2-2v-3l-2-2 1-12-3-2s-3-23-2-22 8 4 8 4l-3 8v6l1 4v7l2 6 5 8h-4l-1 2 8 5v2l9 1s-2 9-2 10 1 3 1 4a45.13 45.13 0 0 1 -1 5l-1 2-5 1v3l12-1 7-1s-1-10 0-9 8-2 8-2l-1-8 1-2-4-5 2-2h9v6l-7 4 1 2 18-3-2-5 2-6 4-19 3-10 5 11 5 21 1 12-5 3 1 2 5 1 10 1v-4l2-3-1-6 1-8 9-5v8c0 1 2 3 2 3l-1 2-3 3v3l4 1-2 2h-8l-1 1 2 3s6 2 7 2 11 2 11 2l-1-4 2-2 5-20s2 1 2 2a45.13 45.13 0 0 1 -1 5l6-1v-4l2-1s3 6 3 7a22.09 22.09 0 0 0 1 4l-3 17h19l1-8-1-5-2-7s-1-6-1-7 2-5 2-5l3 1 3-4s-1-1 0-1 5-2 5 0 3 6 3 6-2 2-1 3 4 11 4 11l-2 6 2 2-2 2-4 1v2l10 1 6-4v-3l1-3v-3l-1-2 3-1h5c-1 0-1-4-1-4h3s0 7 1 8 4 9 4 9l-5 4-1 3 18-1-1-9-2-15v-4l1-11 4-2v-9l3 1 1 7 2 1v7c0 1-1 11-1 11l1 3-3 2 4 2h6l-1-5 5-1h5l2-3-2-3 1-3 2 1v-18h3l-1-8h3s0 8 1 9 1 19 1 19l5-1 1-3 1-12-1-5 3 1a45.13 45.13 0 0 1 1 5v15s1 10 2 10-2 4-1 5 1 6 1 6l-4 5h9l4-2v-4l3-1v-1l23.79.89 3-2v-1h-4l-7-5 1-11 3-8v-9l3 1 3 15v3l3 1-1 10 4 1 9 1v3l5 3h3l3-4v-5h5v6l5 1h6l1-10 4-1 1 3-1 4.37v2.63h11c-1 0-2-7-2-7l1-5-1-6v-12c0 1 3 7 3 7s2 11 2 12v11h10l-1-6-1-8 4-7v-3h3l2 8 1 9v2l-6 5h39.37v.1c-2 1-6 0-6 0s0 4 1 4 17 3 17 3l-1-7h3l1-10h11l-4-16h3l6 23h2l-4 5h3l10-2-1-4h2l-2-9v-10l2-2v-3l-2-2 1-12-3-2s-3-23-2-22 8 4 8 4l-3 8v6l1 4v7l2 6 5 8h-4l-1 2 8 5v2l9 1s-2 9-2 10 1 3 1 4a45.13 45.13 0 0 1 -1 5l-1 2-5 1v3l12-1 7-1s-1-10 0-9 8-2 8-2l-1-8 1-2-4-5 2-2h9v6l-7 4 1 2 18-3-2-5 2-6 4-19 3-10 5 11 5 21 1 12-5 3 1 2 5 1 10 1v-4l2-3-1-6 1-8 9-5v8c0 1 2 3 2 3l-1 2-3 3v3l4 1-2 2h-8l-1 1 2 3s6 2 7 2 11 2 11 2l-1-4 2-2 5-20s2 1 2 2a45.13 45.13 0 0 1 -1 5l6-1v-4l2-1s3 6 3 7a22.09 22.09 0 0 0 1 4l-3 17h19l1-8-1-5-2-7s-1-6-1-7 2-5 2-5l3 1 3-4s-1-1 0-1 5-2 5 0 3 6 3 6-2 2-1 3 4 11 4 11l-2 6 2 2-2 2-4 1v2l10 1 6-4v-3l1-3v-3l-1-2 3-1h5c-1 0-1-4-1-4h3s0 7 1 8 4 9 4 9l-5 4-1 3 18-1-1-9-2-15v-4l1-11 4-2v-9l3 1 1 7 2 1v7c0 1-1 11-1 11l1 3-3 2 4 2h6l-1-5 5-1h5l2-3-2-3 1-3 2 1v-18h3l-1-8h3s0 8 1 9 1 19 1 19l5-1 1-3 1-12-1-5 3 1c.23.87.42 1.75.6 2.63a20.21 20.21 0 0 0 .4 3v14.32s1 10 2 10-2 4-1 5 1 6 1 6l-4 5h9l4-2v-4l3-1v-1.29l20.32.75 3-2v-1h-4l-7-5 1-11 3-8v-9l3 1 3 15v3l3 1-1 10 4 1 9 1v3l5 3h3l3-4v-5h5v6l5 1h6l1-10 4-1 1 3-1 4.37v2.63h11c-1 0-2-7-2-7l1-5-1-6v-12c0 1 3 7 3 7s2 11 2 12v11h10l-1-6-1-8 4-7v-3h3l2 8 1 9v2l-6 5h39.34v.1c-2 1-6 0-6 0s0 4 1 4 17 3 17 3l-1-7h3l1-10h11l-4-16h3l6 23h2l-4 5h3l10-2-1-4h2l-2-9v-10l2-2v-3l-2-2 1-12-3-2s-3-23-2-22 8 4 8 4l-3 8v6l1 4v7l2 6 5 8h-4l-1 2 8 5v2l9 1s-2 9-2 10 1 3 1 4a45.13 45.13 0 0 1 -1 5l-1 2-5 1v3l12-1 7-1s-1-10 0-9 8-2 8-2l-1-8 1-2-4-5 2-2h9v6l-7 4 1 2 18-3-2-5 2-6 4-19 3-10 5 11 5 21 1 12-5 3 1 2 5 1 10 1v-4l2-3-1-6 1-8 9-5v8c0 1 2 3 2 3l-1 2-3 3v3l4 1-2 2h-8l-1 1 2 3s6 2 7 2 11 2 11 2l-1-4 2-2 5-20s2 1 2 2a45.13 45.13 0 0 1 -1 5l6-1v-4l2-1s3 6 3 7a22.09 22.09 0 0 0 1 4l-3 17h19l1-8-1-5-2-7s-1-6-1-7 2-5 2-5l3 1 3-4s-1-1 0-1 5-2 5 0 3 6 3 6-2 2-1 3 4 11 4 11l-2 6 2 2-2 2-4 1v2l10 1 6-4v-3l1-3v-3l-1-2 3-1h5c-1 0-1-4-1-4h3s0 7 1 8 4 9 4 9l-5 4-1 3 18-1-1-9-2-15v-4l1-11 4-2v-9l3 1 1 7 2 1v7c0 1-1 11-1 11l1 3-3 2 4 2h6l-1-5 2-.4-.7 2.77-1 9h31.57c.13 1.38.13 2.63.13 2.63l-4 5h9l4-2v-4l3-1v-.63h1.3l-1.3-1.09v-12.25l-1-6 1.85-4.63h.45v3l4 7-1 8-1 6h10v-11c0-1 2-12 2-12s3-6 3-7v12l-1 6 1 5s-1 7-2 7h11v-2.63l-1-4.37 1-3 4 1 1 10h6l5-1h5.75l2.25 3h3l5-3h15.5l1.5 1 27-1h7.48v-2.63l-1-4.37 1-3 4 1 1 10h6l5-1v-6h5v5l3 4h3l5-3v-3l9-1 4-1-1-10 3-1v-3l3-15 3-1v9l3 8 1 11-7 5h-4v1l3 2 27-1v-5l-2-6-2-14-2-4s12-1 13-2 1-12 1-12l5-9 1-23zm-1898.66 74.53-5-4 1-5 5-9s0 17-1 18zm102 0-1-3v-6h2l1 7zm23-4-5-10v-16l2 9 4 1zm9.37-9.9-.37.85v-2l.8-.39zm1-3.41-.35-.69v-3.52l1.37.62zm270.31 17.75-5-4 1-5 3.25-5.85 1.74-.34c-.07 4.87-.26 14.44-1 15.19zm8.19-2.16-1.19-.84.49-5.36c.35 2.14.79 4 1.22 4s0 1-.54 2.24zm93.81 2.16-1-3v-6h2l1 7zm23-4-5-10v-16l2 9 4 1zm9.37-9.9-.37.85v-2l.8-.4zm1-3.42-.34-.68v-3.53l1.37.63zm290.53 5.4-.5-3 1.44-3.6zm2.28-11.05c.16-.71.3-1.45.4-2.09l.61.06zm7 23-5-4 1-5 5-9s0 17-1 18zm102 0-1-3v-6h2l1 7zm23-4-5-10v-16l2 9 4 1zm9.37-9.9-.37.85v-2l.8-.4zm1-3.42-.35-.68v-3.53l1.37.63zm296.34 16.88-5-4 1-5 5-9s-.06 17-1.06 18zm102 0-1-3v-6h2l1 7zm23-4-5-10v-16l2 9 4 1zm9.37-9.9-.37.85v-2l.8-.39zm1-3.41-.34-.69v-3.52l1.37.62zm278.2 15.75.39-2.68c.1.2.2.31.31.31.54 0-.1 1.19-.63 2.43zm-16-12-5 10-.27-4.41 2-3-2-3 1-3 2 1v-4.55l.3-.08 2-9zm129.69 4.76-1.58-11a50.87 50.87 0 0 0 2.24-5.14h.13v11.43zm-21 9.29-1.26-1.05v-2l1-9 1.71-6.84 1.81 4.84 1 11zm-18.69-119 2-1v-3l-1-1v-4l.48-1v2l2 5-1 3s-2 3-3 3a2.13 2.13 0 0 0 -.44.07v-.07zm10.58 118.11.42-.11-.68-6.87.16-1.13h2v6l-1 3zm102.9.89c-1-1-1-18-1-18l5 9 1 5z" fill="#423a32" transform="translate(.11 .01)"/><path d="m1158.63 0v.61c-13.35 2.16-60.46 9.58-84.19 10.83-27.82 1.47-92.18.69-92.18.69l-3.59.37 16.74 161.39 3.59-.37-12-115.29c14.45-.3 71.13-1.49 89.6-2.12 20.19-.7 76.1-5.37 81.57-5.82l-.94 112h3.6l1.37-162.29z" fill="#423a32" transform="translate(.11 .01)"/><path d="m987 58.23c14.45-.3 71.13-1.49 89.6-2.12 20.19-.7 76.1-5.37 81.57-5.82l.46-49.68c-13.35 2.16-60.46 9.58-84.19 10.83-27.82 1.47-92.18.69-92.18.69z" fill="#a22400" transform="translate(.11 .01)"/><path d="m714.71 42.25v.61c-7.45-.16-33.73-.94-47-3.83-15.53-3.38-51.43-15.37-51.43-15.37l-2-.25 9.33 164.3 2 .25-6.61-117.35c8.06 2.22 39.69 10.91 50 13.49 11.26 2.82 42.46 7.9 45.51 8.39l-.51 111.79 2 .66.77-162z" fill="#423a32" transform="translate(.11 .01)"/><path d="m619 70.61c8.06 2.22 39.69 10.91 50 13.49 11.26 2.82 42.46 7.9 45.51 8.39l.23-49.63c-7.45-.16-33.73-.94-47-3.83-15.53-3.38-51.43-15.37-51.43-15.37z" fill="#a22400" transform="translate(.11 .01)"/><path d="m1131.68 131.32 2.01-6.39.66-9.22-.37-7.95.15-.97-1.11-4.24-.67-8.77-1.79-2.6-.67-2.08-.15-1.86-.96-2.38.45-.45.96.75.82 1.41.67.97.74-1.49-.07-1.64-1.12-1.26-.3-1.49.53-.44 1.18 1.56-.44-2.23.67-.52 1.86 3.05 1.56 2.97.29 4.46-.59 2.16 2.38 8.77.37 4.98 2.08 10.55 2.31 1.79-.6 8.1.67 6.17z" fill="#423a32"/><path d="m1167.32 148.53-2.62-6.16-1.56-9.11-.4-7.95-.25-.95.7-4.33-.18-8.79 1.52-2.77.46-2.13-.03-1.87.73-2.46-.48-.4-.9.84-.67 1.48-.57 1.03-.89-1.41-.08-1.63.98-1.37.16-1.51-.57-.39-1.03 1.67.23-2.27-.72-.45-1.55 3.21-1.27 3.12.14 4.46.8 2.09-1.51 8.96.11 4.99-1.05 10.71-2.11 2 1.37 8.01-.06 6.2z" fill="#423a32"/><path d="m1590.15 140.63 3.25-5.86 2.5-8.9 1.23-7.87.34-.91-.24-4.38 1.1-8.73-1.23-2.9-.24-2.18.23-1.85-.47-2.52.52-.35.8.92.52 1.55.46 1.08 1.03-1.31.25-1.61-.84-1.47.01-1.51.6-.34.85 1.77.01-2.27.76-.38 1.21 3.36.94 3.23-.61 4.43-1.01 1.99.57 9.07-.63 4.95-.08 10.76 1.91 2.21-2.21 7.82-.58 6.18z" fill="#423a32"/><path d="m741.24 143.32-4.53-5.08-4.13-8.28-2.53-7.55-.52-.83-.36-4.42-2.51-8.44.97-3.18-.04-2.23-.53-1.79.17-2.62-.65-.23-.77 1.11-.37 1.66-.36 1.19-1.36-1.06-.52-1.55.74-1.66-.23-1.51-.73-.19-.71 1.96-.34-2.26-.92-.19-.88 3.63-.6 3.43 1.33 4.28 1.44 1.74.66 9.18 1.44 4.79 1.64 10.7-1.84 2.65 3.64 7.28 1.55 6.02z" fill="#423a32"/><path d="m431.35 146.96-2.78-6.1-1.79-9.07-.61-7.93-.26-.94.58-4.35-.41-8.78 1.45-2.81.41-2.14-.08-1.87.67-2.48-.5-.38-.87.85-.64 1.5-.54 1.05-.92-1.39-.13-1.63.95-1.39.11-1.51-.57-.38-.99 1.69.17-2.26-.72-.44-1.47 3.25-1.19 3.15.25 4.46.86 2.07-1.29 8.99.25 4.99-.78 10.73-2.06 2.06 1.58 7.96.09 6.21z" fill="#423a32"/><path d="m824.42 153.02-2.07-7.47-1.59-5.89-.88-4.03-2.77-4.8-2.52-2.39-1.64-4.41-1.01-4.29-.88-2.4-.89-.25-1.51-2.14-.76-2.02-.63-.5-1.51-.76-.38-.63.76-.76h1.26l.5-1 .89-.38 1.64.38.5-.64.88.13 1.52.88.37-.75 1.26.25.38 1.01.63 1.51.51 2.14-.25 1.14 4.15 6.55 6.31 6.81 5.17 5.42 5.42 5.93z" fill="#423a32"/><path d="m272.31 141.64-.15-7.75-.06-6.1.15-4.13-1.5-5.33-1.84-2.95-.49-4.68.09-4.41-.25-2.53-.8-.47-.93-2.45-.23-2.14-.48-.65-1.28-1.11-.21-.7.92-.55 1.23.32.73-.86.95-.14 1.5.77.64-.48.82.34 1.25 1.23.55-.64 1.16.56.12 1.07.23 1.63-.04 2.2-.53 1.03 2.39 7.39 4.41 8.16 3.66 6.54 3.77 7.09z" fill="#423a32"/><path d="m1379.4 144.46.03-5.22.06-4.61.18-3.43-1.05-4.76-1.44-2.78-.43-4.87.05-5.07-.26-3.12-.71-.52-.9-3.13-.29-2.94-.48-.87-1.26-1.45-.24-1.01.86-.95 1.2.31.69-1.41.94-.37 1.49.99.65-.85.81.42 1.21 1.72.59-1.06 1.14.7.05 1.61.13 2.35-.17 3.1-.55 1.45 1.75 8.9 3.1 8.36 2.28 5.89 2.08 5.73z" fill="#423a32"/><g transform="translate(.11 .01)"><path d="m636.41 42v25l-2.73-.65v-22.19l-3.9-.92v22.21l-2.73-.65v-25z" fill="#f0d2b6"/><path d="m646.79 44.29a5.41 5.41 0 0 1 1.76.72 4.57 4.57 0 0 1 1.17 1.11 4.26 4.26 0 0 1 .65 1.38 5.73 5.73 0 0 1 .22 1.54v17.71a4.77 4.77 0 0 1 -.22 1.45 2.48 2.48 0 0 1 -.65 1.06 2.16 2.16 0 0 1 -1.17.55 4.18 4.18 0 0 1 -1.76-.11l-2.09-.49a5.6 5.6 0 0 1 -1.75-.73 4 4 0 0 1 -1.17-1.1 4.39 4.39 0 0 1 -.66-1.38 5.79 5.79 0 0 1 -.21-1.55v-17.71a4.41 4.41 0 0 1 .21-1.44 2.39 2.39 0 0 1 .66-1.07 2.16 2.16 0 0 1 1.17-.55 4.31 4.31 0 0 1 1.75.11zm0 22.64a.81.81 0 0 0 .82-.13 1 1 0 0 0 .25-.7v-17.71a1.46 1.46 0 0 0 -.25-.81 1.25 1.25 0 0 0 -.82-.52l-2.09-.5c-.4-.09-.68-.05-.83.13a1.05 1.05 0 0 0 -.23.7v17.71a1.53 1.53 0 0 0 .23.81 1.22 1.22 0 0 0 .83.52z" fill="#f0d2b6"/><path d="m660.62 55.71a5.58 5.58 0 0 1 1.75.72 4.19 4.19 0 0 1 1.82 2.48 5.43 5.43 0 0 1 .22 1.55v9.36a4.18 4.18 0 0 1 -.3 1.71 2.35 2.35 0 0 1 -.82 1 2.43 2.43 0 0 1 -1.2.38 4.86 4.86 0 0 1 -1.47-.13l-5.36-1.27v-25l8.44 2v2.77l-5.7-1.35v5.14zm1.06 4.1a1.53 1.53 0 0 0 -.23-.81 1.24 1.24 0 0 0 -.83-.52l-2.62-.62v11.52l2.63.62a1.11 1.11 0 0 0 .76-.06c.2-.1.3-.36.3-.77z" fill="#f0d2b6"/><path d="m677.06 51.69v2.77l-5.46-1.29v5.14l4.11 1v2.81l-4.11-1v11.49l5.46 1.29v2.77l-8.19-1.94v-25z" fill="#f0d2b6"/><path d="m693.14 77.73v6.09l-1.87-.45-.54-3.44-8.47-2-.26 3.25-2.2-.52v-6l1.59.38a1.47 1.47 0 0 0 .78-1.47l.83-20.42 8.26 2v22.22zm-4.6-1.09v-19.44l-2.91-.69-.74 17.71a2.14 2.14 0 0 1 -.57 1.42z" fill="#f0d2b6"/><path d="m704.84 83.27-.53-4.91-4.85-1.15-.57 4.65-2.75-.65 2.8-24.32 5.81 1.38 2.84 25.66zm-5.1-8.52 4.29 1-1.7-15.31-.92-.22z" fill="#f0d2b6"/><path d="m998.36 36.46h2.76v7.06a5.09 5.09 0 0 1 -.22 1.5 3.15 3.15 0 0 1 -.66 1.22 3.22 3.22 0 0 1 -1.18.85 4.87 4.87 0 0 1 -1.77.33h-2.09a4.31 4.31 0 0 1 -1.77-.29 2.81 2.81 0 0 1 -1.18-.81 3.27 3.27 0 0 1 -.67-1.21 5.36 5.36 0 0 1 -.21-1.49v-17.71a5.43 5.43 0 0 1 .21-1.5 3.74 3.74 0 0 1 .67-1.24 3.31 3.31 0 0 1 1.18-.84 4.67 4.67 0 0 1 1.77-.33h2.09a4.47 4.47 0 0 1 1.77.28 3 3 0 0 1 1.18.8 3.27 3.27 0 0 1 .66 1.23 4.94 4.94 0 0 1 .2 1.48v4.81h-2.76v-4.79a1.21 1.21 0 0 0 -.25-.75 1 1 0 0 0 -.82-.31h-2.09a1 1 0 0 0 -.82.34 1.18 1.18 0 0 0 -.25.76v17.73a1.16 1.16 0 0 0 .25.76 1 1 0 0 0 .82.31h2.09a1 1 0 0 0 .82-.34 1.22 1.22 0 0 0 .25-.76z" fill="#f0d2b6"/><path d="m1015.6 21.93v25h-2.76v-22.19l-3.15.05-.82 18.77a4.57 4.57 0 0 1 -.74 2.59 2.85 2.85 0 0 1 -2.39.9h-1.5v-2.8h1.14a.9.9 0 0 0 .56-.13 1 1 0 0 0 .16-.57l.9-21.55z" fill="#f0d2b6"/><path d="m1028.87 46.73-.54-4.78-4.91.07-.57 4.79h-2.77l2.84-25 5.88-.08 2.87 24.94zm-5.16-7.23 4.34-.06-1.72-14.89h-.94z" fill="#f0d2b6"/><path d="m1041.21 21.57a4.66 4.66 0 0 1 1.77.28 3.14 3.14 0 0 1 1.19.82 3.23 3.23 0 0 1 .65 1.21 4.76 4.76 0 0 1 .22 1.49v1.76a4.43 4.43 0 0 1 -.6 2.55 3 3 0 0 1 -1.55 1.19 3.13 3.13 0 0 1 1.55 1.18 4.34 4.34 0 0 1 .6 2.53v8.07a4.54 4.54 0 0 1 -.31 1.79 3.1 3.1 0 0 1 -.82 1.2 3.33 3.33 0 0 1 -1.22.68 5.33 5.33 0 0 1 -1.48.24l-5.35.07v-25zm1.07 3.84a1.13 1.13 0 0 0 -.24-.75 1 1 0 0 0 -.83-.32h-2.59v5.19h1.87a1.7 1.7 0 0 0 1.26-.54 2 2 0 0 0 .53-1.47zm0 8.86a1.94 1.94 0 0 0 -.53-1.46 1.73 1.73 0 0 0 -1.26-.5h-1.87v11.51h2.59a1.17 1.17 0 0 0 .76-.24 1 1 0 0 0 .31-.85z" fill="#f0d2b6"/><path d="m1057.44 46.33-.54-4.78-4.91.07-.56 4.8h-2.77l2.84-25 5.87-.08 2.87 24.94zm-5.16-7.24 4.34-.06-1.74-14.88h-.88z" fill="#f0d2b6"/><path d="m1078 20.91v2.77l-5.56.63v22.21l-2.76.32v-25z" fill="#f0d2b6"/><path d="m1090.35 19.5v2.78l-5.52.62v5.15l4.15-.47v2.81l-4.15.47v11.48l5.52-.63v2.78l-8.28.94v-25z" fill="#f0d2b6"/><path d="m1103.94 31.17a4.91 4.91 0 0 1 -.31 1.82 3.44 3.44 0 0 1 -.84 1.28 3.88 3.88 0 0 1 -1.24.8 4.77 4.77 0 0 1 -1.48.39l-2.55.29v7.92l-2.76.31v-24.98l5.31-.6a4.41 4.41 0 0 1 1.77.1 2.86 2.86 0 0 1 1.2.7 2.56 2.56 0 0 1 .68 1.14 4.94 4.94 0 0 1 .22 1.47zm-2.8-9a1.09 1.09 0 0 0 -.24-.73.85.85 0 0 0 -.83-.23l-2.55.29v11.5l2.55-.29a1.27 1.27 0 0 0 .76-.32 1.09 1.09 0 0 0 .31-.88z" fill="#f0d2b6"/><path d="m1114.26 16.61a4.65 4.65 0 0 1 1.78.1 2.71 2.71 0 0 1 1.18.69 2.77 2.77 0 0 1 .66 1.15 4.63 4.63 0 0 1 .21 1.47v17.65a4.86 4.86 0 0 1 -.21 1.52 3.72 3.72 0 0 1 -.66 1.3 3.6 3.6 0 0 1 -1.18 1 5.26 5.26 0 0 1 -1.78.5l-2.11.25a4.59 4.59 0 0 1 -1.77-.11 2.65 2.65 0 0 1 -1.19-.69 3.17 3.17 0 0 1 -.67-1.15 5.29 5.29 0 0 1 -.21-1.48v-17.72a5.5 5.5 0 0 1 .21-1.51 4 4 0 0 1 .67-1.3 3.42 3.42 0 0 1 1.19-1 4.75 4.75 0 0 1 1.77-.51zm0 22.64a1.11 1.11 0 0 0 .83-.41 1.4 1.4 0 0 0 .25-.79v-17.75a1.06 1.06 0 0 0 -.25-.72.89.89 0 0 0 -.83-.24l-2.11.24a1.13 1.13 0 0 0 -.85.42 1.42 1.42 0 0 0 -.23.78v17.72a1.23 1.23 0 0 0 .23.72.87.87 0 0 0 .85.24z" fill="#f0d2b6"/><path d="m1132.19 14.74v25l-2.76.32v-12l-1.58.18-2.72 12.26-2.83.32 2.76-12.44a3.07 3.07 0 0 1 -1.73-1 3.59 3.59 0 0 1 -.67-2.41v-5.33a5.16 5.16 0 0 1 .2-1.52 4.23 4.23 0 0 1 .67-1.3 3.54 3.54 0 0 1 1.19-1 4.94 4.94 0 0 1 1.77-.51zm-2.76 3.09-2.94.33a1.14 1.14 0 0 0 -.85.43 1.42 1.42 0 0 0 -.23.77v5.33a.94.94 0 0 0 .32.8 1.14 1.14 0 0 0 .76.16l2.94-.33z" fill="#f0d2b6"/><path d="m1154 12.26v25l-2.76.31v-10.8l.36-11.74-1 .11-2.7 16.76-4.59.52-2.69-16.14-1 .11.35 11.66v10.8l-2.76.32v-25l5.62-.65 2.52 16.21.5-.06 2.51-16.77z" fill="#f0d2b6"/></g><path d="m172.31 37.64-2.23.41 21.95 117.7 2.22-.41" fill="#423a32"/><path d="m179.77 77.69 3.4 3.45 9.93 7.1 5.19 6.67-10.68-33.07-12.39-20.48-2.39-.89" fill="#a22400"/><path d="m389.54 36.47h-2.27l.59 119.73 2.26-.01" fill="#423a32"/><path d="m389.73 77.21 2.73 4 8.51 8.76 3.91 7.49-4.6-34.45-8.54-22.36-2.19-1.3" fill="#a22400"/><path d="m1406.17 36.53-2.26-.2-10.4 119.28 2.25.2" fill="#423a32"/><path d="m1402.62 77.11 2.35 4.24 7.67 9.5 3.21 7.82-1.43-34.72-6.45-23.06-2.06-1.49" fill="#a22400"/><path d="m1728.15 36.7-3.8-1.39-17.03 125.46 3.8 1.39" fill="#423a32"/><path d="m1722.35 79.39 3.98 5.86 12.96 14.39 5.45 10.24-2.55-38.83-10.97-28.63-3.49-2.71" fill="#a22400"/><path d="m483.87 18.51-2.93.42 30.7 160.07 2.93-.42" fill="#423a32" transform="translate(.11 .01)"/><path d="m492.57 63.76c2.79-.32 8.28-.88 15.12-1.27 10-.57 19.76 6 28.09 5.12s19.36-8.1 19.36-8.1l-6-35.42a64.59 64.59 0 0 1 -18.81 4.91c-10.25 1-16.62-3.33-23.34-6.19-5.49-2.34-18.07-1.51-22.51-1.12" fill="#a22400" transform="translate(.11 .01)"/><path d="m822.26 19.38-2 .11-5.21 161.28 2-.1" fill="#423a32" transform="translate(.11 .01)"/><path d="m820.8 65c1.88 0 5.58 0 10.14.34 6.67.5 12 8 17.66 8s14-6 14-6l1.68-35.6a32.46 32.46 0 0 1 -13.15 2.87c-6.9-.1-10.4-5-14.37-8.58-3.23-2.89-11.64-3.4-14.62-3.48" fill="#a22400" transform="translate(.11 .01)"/><path d="m1285.14 10.79-2.61-.25-13.92 161.77 2.62.24" fill="#423a32" transform="translate(.11 .01)"/><path d="m1281.23 56.52c2.47.31 7.32 1 13.28 2.14 8.71 1.67 15.42 10.2 22.78 11.2s18.63-3.53 18.63-3.53l3.76-35.62a52 52 0 0 1 -17.36.58c-9-1.31-13.4-6.92-18.44-11.18-4.12-3.49-15.11-5.49-19-6.1" fill="#a22400" transform="translate(.11 .01)"/><path d="m1524.88 41.27h-1.55l12.31 164.82h1.54" fill="#423a32" transform="translate(.11 .01)"/><path d="m1528.37 87.86a78.53 78.53 0 0 1 8 1.1c5.26 1 10.23 9.08 14.62 9.5s10.36-5.07 10.36-5.07l-2.35-36.34a17.78 17.78 0 0 1 -10 2c-5.41-.6-8.65-5.92-12.11-9.83-2.82-3.2-9.45-4.34-11.79-4.64" fill="#a22400" transform="translate(.11 .01)"/></svg>