<svg height="17.08" viewBox="0 0 29.94 17.08" width="29.94" xmlns="http://www.w3.org/2000/svg"><path d="m1330.7 894.46-.1-.19a15.3 15.3 0 0 0 -3-3.45c-.66-.64-1.08-1.06-1.26-1.28a1.2 1.2 0 0 1 -.22-1.26 11.69 11.69 0 0 1 1.4-2.05l1-1.32q2.7-3.58 2.34-4.58l-.1-.16a.92.92 0 0 0 -.48-.26 2.45 2.45 0 0 0 -1 0h-4.49a.66.66 0 0 0 -.31 0h-.2-.08-.06a.61.61 0 0 0 -.17.16.92.92 0 0 0 -.16.27 24.75 24.75 0 0 1 -1.67 3.51c-.38.64-.74 1.2-1.06 1.68a7.6 7.6 0 0 1 -.81 1 6.63 6.63 0 0 1 -.59.54c-.18.13-.31.19-.41.17l-.26-.06a1.07 1.07 0 0 1 -.35-.38 1.75 1.75 0 0 1 -.18-.61q0-.37-.06-.63c0-.18 0-.43 0-.75s0-.54 0-.66c0-.39 0-.82 0-1.28s0-.83 0-1.1 0-.56 0-.86a3.39 3.39 0 0 0 0-.71 2.91 2.91 0 0 0 -.16-.5.89.89 0 0 0 -.32-.37 1.72 1.72 0 0 0 -.53-.21 9.87 9.87 0 0 0 -2.1-.21 10.24 10.24 0 0 0 -3.73.38 2.14 2.14 0 0 0 -.59.47c-.19.22-.21.35-.08.37a1.91 1.91 0 0 1 1.33.67l.09.19a2.85 2.85 0 0 1 .22.71 7.72 7.72 0 0 1 .14 1.14 12.6 12.6 0 0 1 0 1.95q-.08.81-.15 1.26a2.18 2.18 0 0 1 -.21.74 1.89 1.89 0 0 1 -.19.34.3.3 0 0 1 -.07.08 1.25 1.25 0 0 1 -.42.08 1 1 0 0 1 -.53-.22 3.91 3.91 0 0 1 -.65-.6 8.49 8.49 0 0 1 -.76-1.07q-.42-.69-.87-1.62l-.25-.45c-.16-.3-.37-.72-.64-1.27s-.51-1.1-.72-1.62a1 1 0 0 0 -.37-.5h-.08a.79.79 0 0 0 -.25-.14 1.89 1.89 0 0 0 -.36-.1h-4.27a1.08 1.08 0 0 0 -.89.3l-.06.09a.52.52 0 0 0 0 .25 1.06 1.06 0 0 0 .1.42q.93 2.21 2 4.24c.73 1.37 1.37 2.46 1.91 3.29s1.09 1.62 1.65 2.36.94 1.21 1.12 1.42.32.36.43.46l.39.38a8.12 8.12 0 0 0 1.1.89 17 17 0 0 0 1.6 1 8.52 8.52 0 0 0 2 .83 7.24 7.24 0 0 0 2.28.26h1.79a1.23 1.23 0 0 0 .83-.35l.06-.07a1.41 1.41 0 0 0 .12-.29 1.88 1.88 0 0 0 .05-.43 5.64 5.64 0 0 1 .1-1.21 3.15 3.15 0 0 1 .27-.81 1.9 1.9 0 0 1 .6-.69h.12a1 1 0 0 1 .88.24 5.45 5.45 0 0 1 1 .91c.29.35.65.76 1.06 1.2a7.58 7.58 0 0 0 1.09 1l.32.19a3.52 3.52 0 0 0 .81.34 1.69 1.69 0 0 0 .87.08l4-.06a1.79 1.79 0 0 0 .92-.2.75.75 0 0 0 .39-.43 1.17 1.17 0 0 0 0-.53 2 2 0 0 0 -.11-.32z" fill="#776859" transform="translate(-1300.91 -879.03)"/></svg>