<svg height="27.76" viewBox="0 0 14.02 27.76" width="14.02" xmlns="http://www.w3.org/2000/svg"><path d="m1362.86 888.27h3v12.53a.45.45 0 0 0 .45.44h5.16a.45.45 0 0 0 .45-.44v-12.47h3.5a.44.44 0 0 0 .44-.4l.53-4.61a.41.41 0 0 0 -.11-.35.41.41 0 0 0 -.33-.15h-4v-2.89c0-.87.47-1.32 1.39-1.32h2.66a.45.45 0 0 0 .45-.44v-4.24a.45.45 0 0 0 -.45-.44h-3.8a7 7 0 0 0 -4.55 1.72 4.75 4.75 0 0 0 -1.58 4.24v3.38h-3.2a.45.45 0 0 0 -.45.45v4.55a.45.45 0 0 0 .44.44z" fill="#776859" transform="translate(-1362.41 -873.48)"/></svg>