<svg height="25.41" viewBox="0 0 25.3 25.41" width="25.3" xmlns="http://www.w3.org/2000/svg"><path d="m1482.14 878.73a12.59 12.59 0 0 0 -19.82 15.19l-1.79 6.53 6.68-1.75a12.61 12.61 0 0 0 6 1.53 12.59 12.59 0 0 0 8.91-21.5m-8.91 19.37a10.48 10.48 0 0 1 -5.33-1.45l-.38-.23-4 1 1.06-3.86-.25-.4a10.47 10.47 0 1 1 8.86 4.9m5.75-7.83c-.32-.16-1.86-.92-2.15-1s-.5-.15-.71.16a15.53 15.53 0 0 1 -1 1.23c-.18.21-.37.24-.68.08a8.48 8.48 0 0 1 -2.53-1.56 9.06 9.06 0 0 1 -1.75-2.18c-.18-.31 0-.48.14-.64s.31-.37.47-.55a2 2 0 0 0 .31-.53.56.56 0 0 0 0-.55c-.08-.15-.71-1.7-1-2.33s-.52-.53-.71-.54h-.6a1.12 1.12 0 0 0 -.84.39 3.51 3.51 0 0 0 -1.11 2.62 6.11 6.11 0 0 0 1.29 3.26 14 14 0 0 0 5.38 4.75 17.4 17.4 0 0 0 1.79.66 4.32 4.32 0 0 0 2 .13 3.25 3.25 0 0 0 2.13-1.5 2.63 2.63 0 0 0 .18-1.5c-.08-.13-.29-.21-.6-.36" fill="#776859" fill-rule="evenodd" transform="translate(-1460.53 -875.04)"/></svg>