<svg height="22.2" viewBox="0 0 24.82 22.2" width="24.82" xmlns="http://www.w3.org/2000/svg"><path d="m1531.85 898.81a1 1 0 0 1 -.55-.17l-5.41-3.67a1.44 1.44 0 0 0 -1.65 0l-2.53 1.82a1 1 0 0 1 -.91.13 1 1 0 0 1 -.61-.68l-1.5-5.65a1.43 1.43 0 0 0 -.87-1l-5.32-2a1 1 0 0 1 0-1.83l22.83-9.09a1.32 1.32 0 0 1 .33-.08h.12a1.06 1.06 0 0 1 .63.28v.06a1 1 0 0 1 .24.57v.16s0 .07 0 .11l-3.83 20.23a1 1 0 0 1 -.59.72 1 1 0 0 1 -.38.09zm-6.24-6.41 3.75 2.54a1.43 1.43 0 0 0 2.21-.91l1.75-9.17a1.43 1.43 0 0 0 -2.4-1.3l-6.31 6.07a1.43 1.43 0 0 0 .19 2.22l.78.53zm-4.63-.84.74 2.82 1.61-1.15-2.1-1.43a.82.82 0 0 1 -.23-.24zm-2-3.58a2.35 2.35 0 0 1 1.47 1.64l.34 1.27a1 1 0 0 1 .3-.61l5.05-4.86a1.44 1.44 0 0 0 -1.53-2.37l-5.61 2.25a1.44 1.44 0 0 0 0 2.7z" fill="#776859" transform="translate(-1511.87 -876.6)"/></svg>