<svg viewBox="0 0 102.58 63.49" xmlns="http://www.w3.org/2000/svg"><path d="m102.58 63.49h-102.58v-63.49h102.58z" fill="#ee3524"/><g fill="#fff"><path d="m1150.53 294.68v1.15h9.87a3.07 3.07 0 0 1 2.3.67 3.14 3.14 0 0 1 .66 2.31v9.92a3.13 3.13 0 0 1 -.66 2.31 3.07 3.07 0 0 1 -2.3.67h-4.76c-.83 0-1.9 0-2.31-.91a2.39 2.39 0 0 1 .66-2.4l6.41-8.59h-9.87l-3.94 5.29a4.5 4.5 0 0 0 -1.23 2.64 4.44 4.44 0 0 0 1.23 2.65l1 1.32a10.58 10.58 0 0 0 3.28 3.31c1.32.65 2.88.65 5 .65h4.28c2.46 0 6.16 0 8.63-2.47s2.46-6.12 2.46-7.45v-4c0-1.32 0-4.95-2.46-7.43s-6.17-2.48-8.63-2.48h-6.83a2.41 2.41 0 0 0 -2.8 2.81" transform="translate(-1084.22 -276)"/><path d="m54.48 23.81h9.86l-11.84 15.87h-9.86z"/><path d="m1100.23 302.61a2.39 2.39 0 0 1 2.8-2.8h16.52c2.13 0 3.7 0 5 .65a10.6 10.6 0 0 1 3.29 3.31l1 1.33a4.39 4.39 0 0 1 1.23 2.64 4.55 4.55 0 0 1 -1.23 2.65l-3.95 5.29h-9.89l6.41-8.6a2.39 2.39 0 0 0 .66-2.4c-.42-.91-1.48-.91-2.31-.91h-7.72v19.84h-7.89v-19.84h-4v-1.16" transform="translate(-1084.22 -276)"/></g></svg>