<?xml version="1.0" encoding="utf-8"?>
<!-- Generator: Adobe Illustrator 24.1.1, SVG Export Plug-In . SVG Version: 6.00 Build 0)  -->
<svg version="1.1" id="Episod_7" xmlns="http://www.w3.org/2000/svg" xmlns:xlink="http://www.w3.org/1999/xlink" x="0px" y="0px"
	 viewBox="0 0 3788.1 441.8" style="enable-background:new 0 0 3788.1 441.8;" xml:space="preserve">
<style type="text/css">
	.st0{fill:url(#SVGID_1_);}
	.st1{fill:url(#SVGID_2_);}
	.st2{fill:url(#SVGID_3_);}
	.st3{fill:url(#SVGID_4_);}
	.st4{fill:url(#SVGID_5_);}
	.st5{fill:url(#SVGID_6_);}
	.st6{fill:url(#SVGID_7_);}
	.st7{fill:url(#SVGID_8_);}
	.st8{fill:#3A322B;}
	.st9{fill:url(#SVGID_9_);}
	.st10{fill:#453C34;}
	.st11{fill:#332C25;}
	.st12{fill:url(#SVGID_10_);}
	.st13{fill:url(#SVGID_11_);}
	.st14{fill:url(#SVGID_12_);}
	.st15{fill:url(#SVGID_13_);}
	.st16{fill:#927E6C;}
	.st17{fill:url(#SVGID_14_);}
	.st18{fill:url(#SVGID_15_);}
	.st19{fill:url(#SVGID_16_);}
	.st20{fill:url(#SVGID_17_);}
	.st21{fill:url(#SVGID_18_);}
	.st22{fill:#53493E;}
	.st23{fill:url(#SVGID_19_);}
	.st24{fill:url(#SVGID_20_);}
	.st25{fill:url(#SVGID_21_);}
	.st26{fill:url(#SVGID_22_);}
	.st27{fill:url(#SVGID_23_);}
	.st28{fill:url(#SVGID_24_);}
	.st29{fill:url(#SVGID_25_);}
	.st30{fill:url(#SVGID_26_);}
	.st31{fill:url(#SVGID_27_);}
	.st32{fill:#63564A;}
	.st33{fill:url(#SVGID_28_);}
	.st34{fill:url(#SVGID_29_);}
	.st35{fill:url(#SVGID_30_);}
	.st36{fill:url(#SVGID_31_);}
	.st37{fill:url(#SVGID_32_);}
	.st38{fill:url(#SVGID_33_);}
	.st39{fill:url(#SVGID_34_);}
	.st40{fill:url(#SVGID_35_);}
	.st41{fill:url(#SVGID_36_);}
	.st42{fill:url(#SVGID_37_);}
	.st43{fill:#4F453B;}
	.st44{fill:url(#SVGID_38_);}
	.st45{fill:url(#SVGID_39_);}
	.st46{fill:url(#SVGID_40_);}
	.st47{fill:url(#SVGID_41_);}
	.st48{fill:url(#SVGID_42_);}
	.st49{fill:url(#SVGID_43_);}
	.st50{fill:url(#SVGID_44_);}
	.st51{fill:url(#SVGID_45_);}
	.st52{fill:url(#SVGID_46_);}
</style>
<g id="Loco">
	
		<linearGradient id="SVGID_1_" gradientUnits="userSpaceOnUse" x1="2404.1313" y1="1962.6899" x2="2404.1313" y2="1819.1799" gradientTransform="matrix(2.55 0 0 1 -5549.1899 -1735.12)">
		<stop  offset="0" style="stop-color:#3A322B"/>
		<stop  offset="5.000000e-02" style="stop-color:#706254"/>
		<stop  offset="0.5" style="stop-color:#5E5346"/>
		<stop  offset="1" style="stop-color:#A8917C"/>
	</linearGradient>
	<rect x="317.5" y="76" class="st0" width="527.7" height="179.6"/>
	
		<linearGradient id="SVGID_2_" gradientUnits="userSpaceOnUse" x1="2942.075" y1="1907.67" x2="2942.075" y2="1825.45" gradientTransform="matrix(-1 0 0 1 4358.1099 -1735.12)">
		<stop  offset="0" style="stop-color:#3A322B"/>
		<stop  offset="9.000000e-02" style="stop-color:#4A4137"/>
		<stop  offset="1" style="stop-color:#927E6C"/>
	</linearGradient>
	<rect x="1248.5" y="90.3" class="st1" width="335.1" height="82.2"/>
	
		<linearGradient id="SVGID_3_" gradientUnits="userSpaceOnUse" x1="3102.54" y1="1815.64" x2="3150.01" y2="1815.64" gradientTransform="matrix(-1 0 0 1 4358.1099 -1735.12)">
		<stop  offset="0" style="stop-color:#927E6C"/>
		<stop  offset="8.000000e-02" style="stop-color:#5D5146"/>
		<stop  offset="0.29" style="stop-color:#7C6B5C"/>
		<stop  offset="0.71" style="stop-color:#4A4137"/>
		<stop  offset="1" style="stop-color:#927E6C"/>
	</linearGradient>
	<rect x="1208.1" y="70.7" class="st2" width="47.5" height="19.6"/>
	
		<linearGradient id="SVGID_4_" gradientUnits="userSpaceOnUse" x1="3109.6401" y1="1850.895" x2="3158.3999" y2="1850.895" gradientTransform="matrix(-1 0 0 1 4358.1099 -1735.12)">
		<stop  offset="1.000000e-02" style="stop-color:#5C5045"/>
		<stop  offset="0.96" style="stop-color:#4A4137"/>
		<stop  offset="1" style="stop-color:#3A322B"/>
	</linearGradient>
	<rect x="1199.7" y="83" class="st3" width="48.8" height="65.5"/>
	
		<linearGradient id="SVGID_5_" gradientUnits="userSpaceOnUse" x1="3809.4351" y1="2105.1599" x2="3809.4351" y2="1977.4498" gradientTransform="matrix(-1 0 0 1 4358.1099 -1735.12)">
		<stop  offset="0" style="stop-color:#52483D"/>
		<stop  offset="1" style="stop-color:#3A322B"/>
	</linearGradient>
	<path class="st4" d="M65.1,244.4h216.8c8.3-2.8,17.3-2.8,25.6,0h195.3c8.3-2.8,17.3-2.8,25.6,0h306.8v5.6h220.1l-53.9,58.6h10.4
		v23.6h9.3v3.4h6.7v2.2h30.4v-8.3h2.6v24h-2.6v-8.3h-30.4v2.2h-6.7v3h-9.3V370h-841v-57.3H143v-57.1H36.7v-11.2L65.1,244.4z
		 M547.3,308.6h97.3v-53h-99C559.2,270.4,559.9,293,547.3,308.6L547.3,308.6z M326.4,308.6h25.1v-39.4h43.4v39.3h88.9
		c-12.6-15.7-11.9-38.2,1.7-53H324.8C338.3,270.4,339,293,326.4,308.6L326.4,308.6z M246.3,308.6H263c-12.6-15.7-11.9-38.2,1.6-53
		h-18.4L246.3,308.6L246.3,308.6z"/>
	
		<linearGradient id="SVGID_6_" gradientUnits="userSpaceOnUse" x1="4315.855" y1="2088.6699" x2="4315.855" y2="2062.3699" gradientTransform="matrix(-1 0 0 1 4358.1099 -1735.12)">
		<stop  offset="0" style="stop-color:#52483D"/>
		<stop  offset="1" style="stop-color:#3A322B"/>
	</linearGradient>
	<polygon class="st5" points="6.9,329.5 6.9,337.8 16.5,337.8 16.5,335.6 36.3,335.6 36.3,332.6 43.9,332.6 43.9,327.3 80.2,327.3 
		80.2,352.4 43.9,352.4 43.9,350.8 36.3,350.8 36.3,347.4 16.5,347.4 16.5,345.2 6.9,345.2 6.9,353.5 4.3,353.5 4.3,345.2 
		4.3,337.8 4.3,329.5 	"/>
	
		<linearGradient id="SVGID_7_" gradientUnits="userSpaceOnUse" x1="2922.79" y1="2148.4299" x2="2922.79" y2="2047.87" gradientTransform="matrix(-1 0 0 1 4358.1099 -1735.12)">
		<stop  offset="0" style="stop-color:#52483D"/>
		<stop  offset="1" style="stop-color:#3A322B"/>
	</linearGradient>
	<polygon class="st6" points="1064.1,329.5 1064.1,337.8 1082.1,337.8 1082.1,335.6 1101.9,335.6 1101.9,332.6 1110,332.6 
		1110,327.2 1110,312.8 1701.8,312.8 1701.8,327.2 1758.3,327.2 1758.3,332.2 1768.8,332.2 1768.8,335.6 1788.5,335.6 1788.5,337.8 
		1806.6,337.8 1806.6,329.5 1809.2,329.5 1809.2,337.8 1809.2,345.2 1809.2,353.5 1806.6,353.5 1806.6,345.2 1788.5,345.2 
		1788.5,347.4 1768.8,347.4 1768.8,350.4 1758.3,350.4 1758.3,375.7 1287.8,375.7 1287.8,413.3 1186.4,413.3 1186.4,375.7 
		1110,375.7 1110,350.8 1101.9,350.8 1101.9,347.4 1082.1,347.4 1082.1,345.2 1064.1,345.2 1064.1,353.5 1061.4,353.5 1061.4,345.2 
		1061.4,337.8 1061.4,329.5 	"/>
	
		<linearGradient id="SVGID_8_" gradientUnits="userSpaceOnUse" x1="3429.915" y1="1985.15" x2="3429.915" y2="1816.15" gradientTransform="matrix(-1 0 0 1 4358.1099 -1735.12)">
		<stop  offset="0" style="stop-color:#40372F"/>
		<stop  offset="1.000000e-02" style="stop-color:#736356"/>
		<stop  offset="0.95" style="stop-color:#827260"/>
		<stop  offset="0.98" style="stop-color:#4D4239"/>
	</linearGradient>
	<path class="st7" d="M1021.4,81v169H835V81L1021.4,81z M936.9,142c0,6.6,5.4,12,12,12h38.9c6.6,0,12-5.4,12-12v-43
		c0-6.6-5.4-12-12-12l0,0h-38.9c-6.6,0-12,5.4-12,12l0,0V142z M855.9,142c0,6.6,5.4,12,12,12h38.9c6.6,0,12-5.4,12-12v-43
		c0-6.6-5.4-12-12-12l0,0h-38.9c-6.6,0-12,5.4-12,12l0,0V142z"/>
	<rect x="1064.3" y="87.1" class="st8" width="41.8" height="162.9"/>
	
		<linearGradient id="SVGID_9_" gradientUnits="userSpaceOnUse" x1="55.41" y1="348.7" x2="55.41" y2="219.06" gradientTransform="matrix(1 0 0 -1 0 444)">
		<stop  offset="0" style="stop-color:#3A322B"/>
		<stop  offset="1" style="stop-color:#5C5045"/>
	</linearGradient>
	<ellipse class="st9" cx="55.4" cy="160.1" rx="55.4" ry="64.8"/>
	<rect x="101.5" y="130.9" class="st10" width="8.9" height="8.9"/>
	<rect x="101.5" y="188" class="st10" width="8.9" height="8.9"/>
	<path class="st11" d="M48.9,87.4v-7.7l-3.3-12.2L70.9,64l-2.1,7.8h4.9c0.8,4.6-3.1,8.5-3.1,8.5v7l-6.8,5.1l-2.4,1.8v5.4L69,106
		l4.8,4.6l19.2,6.2H108l12.8,4.6l-21.7,7.7H81.4l-3.9,10v11.7l-6.2,33.3l-7.7,15.5l-7.7,25.5l-1.6,4.7l17,3.1l0.8,3.9H43.5l3-34.1
		l-3.1-7l3.9-17.8l-0.8-10l-3-10.8v-20.2l-3.9-13.2V98.2L48.9,87.4z"/>
	
		<linearGradient id="SVGID_10_" gradientUnits="userSpaceOnUse" x1="4244.6548" y1="1817.85" x2="4244.6548" y2="1774.17" gradientTransform="matrix(-1 0 0 1 4358.1099 -1735.12)">
		<stop  offset="0" style="stop-color:#3A322B"/>
		<stop  offset="5.000000e-02" style="stop-color:#5C5045"/>
		<stop  offset="0.5" style="stop-color:#4A4137"/>
		<stop  offset="1" style="stop-color:#927E6C"/>
	</linearGradient>
	<rect x="94.1" y="39" class="st12" width="38.8" height="43.7"/>
	
		<linearGradient id="SVGID_11_" gradientUnits="userSpaceOnUse" x1="4144.1548" y1="1962.6899" x2="4144.1548" y2="1819.1799" gradientTransform="matrix(-1 0 0 1 4358.1099 -1735.12)">
		<stop  offset="0" style="stop-color:#3A322B"/>
		<stop  offset="5.000000e-02" style="stop-color:#5C5045"/>
		<stop  offset="0.5" style="stop-color:#4A4137"/>
		<stop  offset="1" style="stop-color:#927E6C"/>
	</linearGradient>
	<rect x="110.4" y="76" class="st13" width="207.1" height="179.6"/>
	
		<linearGradient id="SVGID_12_" gradientUnits="userSpaceOnUse" x1="3411.2251" y1="1818.92" x2="3411.2251" y2="1755.9301" gradientTransform="matrix(-1 0 0 1 4358.1099 -1735.12)">
		<stop  offset="0" style="stop-color:#3A322B"/>
		<stop  offset="9.000000e-02" style="stop-color:#4A4137"/>
		<stop  offset="1" style="stop-color:#927E6C"/>
	</linearGradient>
	<rect x="829.5" y="20.8" class="st14" width="234.8" height="63"/>
	
		<linearGradient id="SVGID_13_" gradientUnits="userSpaceOnUse" x1="3205.25" y1="1818.92" x2="3205.25" y2="1755.9301" gradientTransform="matrix(-1 0 0 1 4358.1099 -1735.12)">
		<stop  offset="0" style="stop-color:#3A322B"/>
		<stop  offset="9.000000e-02" style="stop-color:#4A4137"/>
		<stop  offset="1" style="stop-color:#927E6C"/>
	</linearGradient>
	<rect x="1099.5" y="20.8" class="st15" width="106.8" height="63"/>
	<rect x="30.4" y="236.1" class="st16" width="804.8" height="8.3"/>
	<rect x="644.2" y="145.4" class="st16" width="3.2" height="94.8"/>
	<rect x="450.1" y="145.4" class="st16" width="3.2" height="94.8"/>
	
		<linearGradient id="SVGID_14_" gradientUnits="userSpaceOnUse" x1="3833.75" y1="1970.36" x2="3833.75" y2="1811.09" gradientTransform="matrix(-1 0 0 1 4358.1099 -1735.12)">
		<stop  offset="0" style="stop-color:#3A322B"/>
		<stop  offset="6.000000e-02" style="stop-color:#78685A"/>
		<stop  offset="0.5" style="stop-color:#6E6051"/>
		<stop  offset="1" style="stop-color:#D2C8BD"/>
	</linearGradient>
	<rect x="520.9" y="76" class="st17" width="6.9" height="159.3"/>
	
		<linearGradient id="SVGID_15_" gradientUnits="userSpaceOnUse" x1="3727.95" y1="1970.36" x2="3727.95" y2="1811.09" gradientTransform="matrix(-1 0 0 1 4358.1099 -1735.12)">
		<stop  offset="0" style="stop-color:#3A322B"/>
		<stop  offset="6.000000e-02" style="stop-color:#78685A"/>
		<stop  offset="0.5" style="stop-color:#6E6051"/>
		<stop  offset="1" style="stop-color:#D2C8BD"/>
	</linearGradient>
	<rect x="626.7" y="76" class="st18" width="6.9" height="159.3"/>
	
		<linearGradient id="SVGID_16_" gradientUnits="userSpaceOnUse" x1="3580.8101" y1="1970.36" x2="3580.8101" y2="1811.09" gradientTransform="matrix(-1 0 0 1 4358.1099 -1735.12)">
		<stop  offset="0" style="stop-color:#3A322B"/>
		<stop  offset="6.000000e-02" style="stop-color:#78685A"/>
		<stop  offset="0.5" style="stop-color:#6E6051"/>
		<stop  offset="1" style="stop-color:#D2C8BD"/>
	</linearGradient>
	<rect x="773.8" y="76" class="st19" width="6.9" height="159.3"/>
	
		<linearGradient id="SVGID_17_" gradientUnits="userSpaceOnUse" x1="3926.21" y1="1970.36" x2="3926.21" y2="1811.09" gradientTransform="matrix(-1 0 0 1 4358.1099 -1735.12)">
		<stop  offset="0" style="stop-color:#3A322B"/>
		<stop  offset="6.000000e-02" style="stop-color:#78685A"/>
		<stop  offset="0.5" style="stop-color:#6E6051"/>
		<stop  offset="1" style="stop-color:#D2C8BD"/>
	</linearGradient>
	<rect x="428.5" y="76" class="st20" width="6.9" height="159.3"/>
	
		<linearGradient id="SVGID_18_" gradientUnits="userSpaceOnUse" x1="4104.0898" y1="1970.36" x2="4104.0898" y2="1811.09" gradientTransform="matrix(-1 0 0 1 4358.1099 -1735.12)">
		<stop  offset="0" style="stop-color:#3A322B"/>
		<stop  offset="6.000000e-02" style="stop-color:#78685A"/>
		<stop  offset="0.5" style="stop-color:#6E6051"/>
		<stop  offset="1" style="stop-color:#D2C8BD"/>
	</linearGradient>
	<rect x="250.6" y="76" class="st21" width="6.9" height="159.3"/>
	<rect x="259.7" y="145.4" class="st16" width="3.2" height="94.8"/>
	<rect x="66.7" y="145.4" class="st16" width="3.2" height="94.8"/>
	<circle class="st22" cx="656.7" cy="370" r="57.3"/>
	<circle class="st22" cx="787.9" cy="370" r="57.3"/>
	<circle class="st22" cx="529" cy="370" r="57.3"/>
	<circle class="st22" cx="397.9" cy="370" r="57.3"/>
	<circle class="st22" cx="264.6" cy="370" r="57.3"/>
	
		<linearGradient id="SVGID_19_" gradientUnits="userSpaceOnUse" x1="4233.6348" y1="2132.78" x2="4233.6348" y2="1985.12" gradientTransform="matrix(-1 0 0 1 4358.1099 -1735.12)">
		<stop  offset="0" style="stop-color:#665A4C"/>
		<stop  offset="9.000000e-02" style="stop-color:#52483D"/>
		<stop  offset="0.8" style="stop-color:#63564A"/>
		<stop  offset="1" style="stop-color:#927E6C"/>
	</linearGradient>
	<rect x="74.8" y="250" class="st23" width="99.4" height="147.7"/>
	
		<linearGradient id="SVGID_20_" gradientUnits="userSpaceOnUse" x1="4181.5151" y1="2119.0901" x2="4181.5151" y2="2042.1899" gradientTransform="matrix(-1 0 0 1 4358.1099 -1735.12)">
		<stop  offset="0" style="stop-color:#63564A"/>
		<stop  offset="0.43" style="stop-color:#53483D"/>
		<stop  offset="1" style="stop-color:#927E6C"/>
	</linearGradient>
	<rect x="174.2" y="307.1" class="st24" width="4.8" height="76.9"/>
	
		<linearGradient id="SVGID_21_" gradientUnits="userSpaceOnUse" x1="4288.1699" y1="2127.9399" x2="4288.1699" y2="2042.1899" gradientTransform="matrix(-1 0 0 1 4358.1099 -1735.12)">
		<stop  offset="0" style="stop-color:#63564A"/>
		<stop  offset="0.43" style="stop-color:#53483D"/>
		<stop  offset="1" style="stop-color:#927E6C"/>
	</linearGradient>
	<rect x="65.1" y="307.1" class="st25" width="9.7" height="85.8"/>
	
		<linearGradient id="SVGID_22_" gradientUnits="userSpaceOnUse" x1="4285.4448" y1="2030.2899" x2="4285.4448" y2="1992.39" gradientTransform="matrix(-1 0 0 1 4358.1099 -1735.12)">
		<stop  offset="0" style="stop-color:#63564A"/>
		<stop  offset="0.43" style="stop-color:#53483D"/>
		<stop  offset="1" style="stop-color:#927E6C"/>
	</linearGradient>
	<rect x="70.6" y="257.3" class="st26" width="4.2" height="37.9"/>
	<rect x="835" y="250" class="st16" width="186.3" height="8.3"/>
	
		<linearGradient id="SVGID_23_" gradientUnits="userSpaceOnUse" x1="3315.2949" y1="1985.12" x2="3315.2949" y2="1818.92" gradientTransform="matrix(-1 0 0 1 4358.1099 -1735.12)">
		<stop  offset="0" style="stop-color:#3A322B"/>
		<stop  offset="1.000000e-02" style="stop-color:#5C5045"/>
		<stop  offset="0.95" style="stop-color:#4A4137"/>
		<stop  offset="0.98" style="stop-color:#3A322B"/>
	</linearGradient>
	<path class="st27" d="M1064.3,83.8V250h-42.9V83.8H1064.3z M1027.4,143.1c0,2.9,2.4,5.3,5.3,5.3h21.3c2.9,0,5.3-2.4,5.3-5.3V98.5
		c0-2.9-2.4-5.3-5.3-5.3h-21.3c-2.9,0-5.3,2.4-5.3,5.3V143.1z"/>
	
		<linearGradient id="SVGID_24_" gradientUnits="userSpaceOnUse" x1="2928.8799" y1="1815.64" x2="2976.3501" y2="1815.64" gradientTransform="matrix(-1 0 0 1 4358.1099 -1735.12)">
		<stop  offset="0" style="stop-color:#927E6C"/>
		<stop  offset="8.000000e-02" style="stop-color:#5D5146"/>
		<stop  offset="0.29" style="stop-color:#7C6B5C"/>
		<stop  offset="0.71" style="stop-color:#4A4137"/>
		<stop  offset="1" style="stop-color:#927E6C"/>
	</linearGradient>
	<rect x="1381.8" y="70.7" class="st28" width="47.5" height="19.6"/>
	
		<linearGradient id="SVGID_25_" gradientUnits="userSpaceOnUse" x1="2927.04" y1="1804.865" x2="2978.1899" y2="1804.865" gradientTransform="matrix(-1 0 0 1 4358.1099 -1735.12)">
		<stop  offset="0" style="stop-color:#927E6C"/>
		<stop  offset="8.000000e-02" style="stop-color:#5D5146"/>
		<stop  offset="0.29" style="stop-color:#7C6B5C"/>
		<stop  offset="0.71" style="stop-color:#4A4137"/>
		<stop  offset="1" style="stop-color:#927E6C"/>
	</linearGradient>
	<rect x="1379.9" y="68.1" class="st29" width="51.2" height="3.3"/>
	
		<linearGradient id="SVGID_26_" gradientUnits="userSpaceOnUse" x1="3100.7" y1="1804.865" x2="3151.8501" y2="1804.865" gradientTransform="matrix(-1 0 0 1 4358.1099 -1735.12)">
		<stop  offset="0" style="stop-color:#927E6C"/>
		<stop  offset="8.000000e-02" style="stop-color:#5D5146"/>
		<stop  offset="0.29" style="stop-color:#7C6B5C"/>
		<stop  offset="0.71" style="stop-color:#4A4137"/>
		<stop  offset="1" style="stop-color:#927E6C"/>
	</linearGradient>
	<rect x="1206.3" y="68.1" class="st30" width="51.2" height="3.3"/>
	
		<linearGradient id="SVGID_27_" gradientUnits="userSpaceOnUse" x1="2950.9702" y1="2047.87" x2="2950.9702" y2="1818.92" gradientTransform="matrix(-1 0 0 1 4358.1099 -1735.12)">
		<stop  offset="0" style="stop-color:#40372F"/>
		<stop  offset="1.000000e-02" style="stop-color:#736356"/>
		<stop  offset="0.95" style="stop-color:#827260"/>
		<stop  offset="0.98" style="stop-color:#4D4239"/>
	</linearGradient>
	<path class="st31" d="M1199.7,83.8v63h337.2c28.4,0,51.4,23,51.4,51.5h119.9v114.5h-602.1V83.8H1199.7z"/>
	<path class="st32" d="M736,359.7c5.7-28.6,33.6-47.2,62.2-41.5c28.6,5.7,47.2,33.6,41.5,62.2c-5.7,28.6-33.6,47.2-62.2,41.5
		c0,0,0,0,0,0C748.9,416.1,730.3,388.3,736,359.7z M789.5,412.8l-2.2-24.7c-1,0-2-0.1-3-0.3c-0.9-0.2-1.8-0.4-2.6-0.8l-11.5,22
		C776.2,411.8,782.8,413.1,789.5,412.8z M776.2,345.8c-3.2,1.6-6.1,3.8-8.5,6.5l7.2,5.2c1.3-1.3,2.8-2.5,4.4-3.4L776.2,345.8z
		 M764.8,356.4c-1.8,3.1-3,6.5-3.5,10l8.8,0.5c0-0.1,0-0.2,0-0.3c0.3-1.7,0.9-3.4,1.8-4.9L764.8,356.4z M784,352.4
		c1.6-0.4,3.3-0.5,5-0.4l4.9-24.4c-6.2-0.9-12.5-0.4-18.5,1.5L784,352.4z M798.7,328.6l-4.9,24.4c1.5,0.5,3,1.3,4.3,2.2l17.3-17.8
		C810.6,333.2,804.9,330.2,798.7,328.6L798.7,328.6z M819.1,340.7l-17.2,17.8c1.1,1.4,2.1,2.9,2.8,4.6l24.2-5.7
		C826.9,351.2,823.5,345.5,819.1,340.7L819.1,340.7z M830,362.2l-24.2,5.7c0.2,1.9,0.1,3.8-0.2,5.6l-0.1,0.2l23.4,8.3
		c0.3-1.2,0.7-2.4,0.9-3.7C830.9,373.1,831,367.6,830,362.2L830,362.2z M803.8,378.6c-0.8,1.4-1.7,2.7-2.8,3.8l15.3,19.7
		c4.7-4.2,8.5-9.4,11-15.2L803.8,378.6z M797.1,385.6c-1.5,0.9-3.1,1.6-4.8,2l2.2,24.8c6.4-1,12.5-3.4,17.8-7.2L797.1,385.6z
		 M765.8,406.7l11.5-22c-1.4-1-2.6-2.2-3.7-3.5L752,393.4C755.6,398.8,760.2,403.3,765.8,406.7z M749.6,389.1l21.6-12.3
		c-0.6-1.6-1.1-3.3-1.2-5l-24.8-1.3C745.2,376.9,746.7,383.3,749.6,389.1z"/>
	<circle class="st22" cx="1162.5" cy="388.6" r="40.3"/>
	<path class="st32" d="M604.9,359.7c5.7-28.6,33.6-47.2,62.2-41.5c28.6,5.7,47.2,33.6,41.5,62.2c-5.7,28.6-33.6,47.2-62.2,41.5
		c0,0,0,0,0,0C617.7,416.1,599.1,388.3,604.9,359.7z M658.3,412.8l-2.2-24.7c-1,0-2-0.1-3-0.3c-0.9-0.2-1.8-0.4-2.6-0.8L639,409
		C645.1,411.7,651.7,413.1,658.3,412.8L658.3,412.8z M645,345.8c-3.2,1.6-6.1,3.8-8.5,6.5l7.2,5.2c1.3-1.3,2.8-2.5,4.4-3.4
		L645,345.8z M633.6,356.4c-1.8,3.1-3,6.5-3.5,10l8.8,0.5c0-0.1,0-0.2,0-0.3c0.3-1.7,0.9-3.4,1.8-4.9L633.6,356.4z M652.8,352.4
		c1.6-0.4,3.3-0.5,5-0.4l4.9-24.4c-6.2-0.9-12.5-0.4-18.5,1.5L652.8,352.4z M667.6,328.6l-4.9,24.4c1.5,0.5,3,1.3,4.3,2.2l17.3-17.9
		C679.4,333.2,673.7,330.2,667.6,328.6L667.6,328.6z M687.9,340.7l-17.2,17.8c1.1,1.4,2.1,2.9,2.8,4.6l24.2-5.7
		C695.7,351.2,692.4,345.5,687.9,340.7L687.9,340.7z M698.8,362.2l-24.2,5.7c0.2,1.9,0.1,3.8-0.2,5.6l-0.1,0.2l23.4,8.3
		c0.3-1.2,0.7-2.4,0.9-3.7C699.8,373.1,699.8,367.6,698.8,362.2L698.8,362.2z M672.6,378.6c-0.8,1.4-1.7,2.7-2.8,3.8l15.3,19.7
		c4.7-4.2,8.5-9.4,11-15.2L672.6,378.6z M665.9,385.6c-1.5,0.9-3.1,1.6-4.8,2l2.2,24.8c6.4-1,12.5-3.4,17.8-7.2L665.9,385.6z
		 M634.6,406.7l11.5-22c-1.4-1-2.6-2.2-3.7-3.5l-21.6,12.3C624.4,398.8,629.1,403.3,634.6,406.7L634.6,406.7z M618.4,389.1
		l21.6-12.3c-0.6-1.6-1.1-3.3-1.2-5l-24.8-1.3C614,376.9,615.5,383.3,618.4,389.1L618.4,389.1z"/>
	<path class="st32" d="M477.6,359.7c5.7-28.6,33.6-47.2,62.2-41.5c28.6,5.7,47.2,33.6,41.5,62.2c-5.7,28.6-33.6,47.2-62.2,41.5
		c0,0,0,0,0,0C490.5,416.1,471.9,388.3,477.6,359.7z M531.1,412.8l-2.2-24.7c-1,0-2-0.1-3-0.3c-0.9-0.2-1.8-0.4-2.6-0.8l-11.5,22
		C517.8,411.7,524.4,413.1,531.1,412.8L531.1,412.8z M517.8,345.8c-3.2,1.6-6.1,3.8-8.5,6.5l7.2,5.2c1.3-1.3,2.8-2.5,4.4-3.4
		L517.8,345.8z M506.4,356.4c-1.8,3.1-3,6.5-3.5,10l8.8,0.5c0-0.1,0-0.2,0-0.3c0.3-1.7,0.9-3.4,1.8-4.9L506.4,356.4z M525.6,352.4
		c1.6-0.4,3.3-0.5,5-0.4l4.9-24.3c-6.2-0.9-12.5-0.4-18.5,1.5L525.6,352.4z M540.3,328.6l-4.9,24.4c1.5,0.5,3,1.3,4.3,2.2l17.3-17.9
		C552.2,333.2,546.5,330.2,540.3,328.6L540.3,328.6z M560.7,340.7l-17.2,17.8c1.1,1.4,2.1,2.9,2.8,4.6l24.2-5.7
		C568.5,351.2,565.1,345.5,560.7,340.7L560.7,340.7z M571.6,362.3l-24.2,5.7c0.2,1.9,0.1,3.8-0.2,5.6l-0.1,0.2l23.4,8.3
		c0.3-1.2,0.7-2.4,0.9-3.7C572.5,373.1,572.6,367.6,571.6,362.3z M545.4,378.6c-0.8,1.4-1.7,2.7-2.8,3.8l15.3,19.7
		c4.7-4.2,8.5-9.4,11-15.2L545.4,378.6z M538.7,385.6c-1.5,0.9-3.1,1.6-4.8,2l2.2,24.8c6.4-1,12.5-3.4,17.8-7.2L538.7,385.6z
		 M507.4,406.7l11.5-22c-1.4-1-2.6-2.2-3.7-3.5l-21.6,12.3C497.2,398.9,501.9,403.4,507.4,406.7L507.4,406.7z M491.2,389.1
		l21.6-12.3c-0.6-1.6-1.1-3.3-1.2-5l-24.8-1.3C486.8,377,488.3,383.3,491.2,389.1L491.2,389.1z"/>
	<path class="st32" d="M347,359.7c5.7-28.6,33.6-47.2,62.2-41.5c28.6,5.7,47.2,33.6,41.5,62.2s-33.6,47.2-62.2,41.5c0,0,0,0,0,0
		C359.9,416.1,341.3,388.3,347,359.7z M400.5,412.8l-2.2-24.7c-1,0-2-0.1-3-0.3c-0.9-0.2-1.8-0.4-2.6-0.8l-11.5,22
		C387.2,411.8,393.8,413.1,400.5,412.8z M387.2,345.8c-3.2,1.6-6.1,3.8-8.5,6.5l7.2,5.2c1.3-1.3,2.8-2.5,4.4-3.4L387.2,345.8z
		 M375.8,356.4c-1.8,3.1-3,6.5-3.5,10l8.8,0.5c0-0.1,0-0.2,0-0.3c0.3-1.7,0.9-3.4,1.8-4.9L375.8,356.4z M395,352.4
		c1.6-0.4,3.3-0.5,5-0.4l4.9-24.4c-6.2-0.9-12.5-0.4-18.5,1.5L395,352.4z M409.7,328.6l-4.9,24.4c1.5,0.5,3,1.3,4.3,2.2l17.3-17.8
		C421.6,333.2,415.9,330.2,409.7,328.6L409.7,328.6z M430.1,340.7l-17.2,17.8c1.1,1.4,2.1,2.9,2.8,4.6l24.2-5.7
		C437.8,351.2,434.5,345.5,430.1,340.7L430.1,340.7z M441,362.2l-24.2,5.7c0.2,1.9,0.1,3.8-0.2,5.6l-0.1,0.2l23.4,8.3
		c0.4-1.2,0.7-2.4,0.9-3.7C441.9,373.1,442,367.6,441,362.2L441,362.2z M414.8,378.6c-0.8,1.4-1.7,2.7-2.8,3.8l15.3,19.7
		c4.7-4.2,8.5-9.4,11-15.2L414.8,378.6z M408.1,385.6c-1.5,0.9-3.1,1.6-4.8,2l2.2,24.8c6.4-1,12.5-3.4,17.8-7.2L408.1,385.6z
		 M376.8,406.7l11.5-22c-1.4-1-2.6-2.2-3.6-3.5L363,393.4C366.6,398.8,371.2,403.4,376.8,406.7L376.8,406.7z M360.6,389.1l21.6-12.3
		c-0.6-1.6-1.1-3.3-1.2-5l-24.8-1.3C356.2,376.9,357.7,383.3,360.6,389.1L360.6,389.1z"/>
	<path class="st32" d="M212.8,359.7c5.7-28.6,33.6-47.2,62.2-41.5s47.2,33.6,41.5,62.2c-5.7,28.6-33.6,47.2-62.2,41.5c0,0,0,0,0,0
		C225.6,416.1,207,388.3,212.8,359.7z M266.2,412.8l-2.2-24.7c-1,0-2-0.1-3-0.3c-0.9-0.2-1.8-0.4-2.6-0.8l-11.5,22
		C252.9,411.7,259.5,413.1,266.2,412.8L266.2,412.8z M252.9,345.8c-3.2,1.6-6.1,3.8-8.5,6.5l7.2,5.2c1.3-1.3,2.8-2.5,4.4-3.4
		L252.9,345.8z M241.5,356.4c-1.8,3.1-3,6.5-3.5,10l8.8,0.5c0-0.1,0-0.2,0-0.3c0.3-1.7,0.9-3.4,1.8-4.9L241.5,356.4z M260.7,352.4
		c1.6-0.4,3.3-0.5,5-0.4l4.9-24.4c-6.2-0.9-12.5-0.4-18.5,1.5L260.7,352.4z M275.5,328.7l-4.9,24.4c1.5,0.5,3,1.3,4.3,2.2l17.3-17.9
		C287.3,333.2,281.6,330.3,275.5,328.7z M295.8,340.7l-17.2,17.8c1.1,1.4,2.1,2.9,2.8,4.6l24.2-5.7
		C303.6,351.2,300.2,345.5,295.8,340.7L295.8,340.7z M306.7,362.3l-24.2,5.7c0.2,1.9,0.1,3.8-0.2,5.6l-0.1,0.2l23.4,8.3
		c0.4-1.2,0.7-2.4,0.9-3.7C307.7,373.1,307.7,367.6,306.7,362.3L306.7,362.3z M280.5,378.6c-0.8,1.4-1.7,2.7-2.8,3.8l15.3,19.7
		c4.7-4.2,8.5-9.4,11-15.2L280.5,378.6z M273.8,385.6c-1.5,0.9-3.1,1.6-4.8,2l2.2,24.8c6.4-1,12.5-3.4,17.8-7.2L273.8,385.6z
		 M242.5,406.7l11.5-22c-1.4-1-2.6-2.2-3.6-3.5l-21.6,12.3C232.3,398.8,237,403.4,242.5,406.7z M226.3,389.1l21.6-12.3
		c-0.6-1.6-1.1-3.3-1.2-5l-24.8-1.3C221.9,376.9,223.4,383.3,226.3,389.1z"/>
	<path class="st32" d="M1162.5,354.2c19,0,34.4,15.4,34.4,34.4c0,19-15.4,34.4-34.4,34.4c-19,0-34.4-15.4-34.4-34.4
		S1143.5,354.2,1162.5,354.2L1162.5,354.2z M1162.5,416.4c15.3,0,27.8-12.4,27.8-27.8c0-15.3-12.4-27.8-27.8-27.8
		c-15.3,0-27.8,12.4-27.8,27.8S1147.1,416.4,1162.5,416.4L1162.5,416.4z"/>
	<path class="st32" d="M1156.5,403.6h12c3,0,5.5-2.5,5.5-5.5l0,0v-19c0-3-2.5-5.5-5.5-5.5l0,0h-12c-3,0-5.5,2.5-5.5,5.5l0,0v19
		C1151,401.1,1153.4,403.6,1156.5,403.6L1156.5,403.6z"/>
	<circle class="st22" cx="1162.5" cy="388.6" r="9"/>
	<circle class="st22" cx="1309" cy="388.6" r="40.3"/>
	<path class="st32" d="M1309,354.2c19,0,34.4,15.4,34.4,34.4c0,19-15.4,34.4-34.4,34.4c-19,0-34.4-15.4-34.4-34.4
		S1290,354.2,1309,354.2L1309,354.2z M1309,416.4c15.3,0,27.8-12.4,27.8-27.8c0-15.3-12.4-27.8-27.8-27.8
		c-15.3,0-27.8,12.4-27.8,27.8S1293.7,416.4,1309,416.4L1309,416.4z"/>
	<path class="st32" d="M1303,403.6h12c3,0,5.5-2.5,5.5-5.5l0,0v-19c0-3-2.5-5.5-5.5-5.5l0,0h-12c-3,0-5.5,2.5-5.5,5.5l0,0v19
		C1297.5,401.1,1300,403.6,1303,403.6C1303,403.6,1303,403.6,1303,403.6z"/>
	<circle class="st22" cx="1309" cy="388.6" r="9"/>
	<rect x="1538.9" y="345" class="st22" width="101.4" height="68.3"/>
	<circle class="st22" cx="1515" cy="388.6" r="40.3"/>
	<path class="st32" d="M1515,354.2c19,0,34.4,15.4,34.4,34.4c0,19-15.4,34.4-34.4,34.4c-19,0-34.4-15.4-34.4-34.4
		S1496,354.2,1515,354.2L1515,354.2z M1515,416.4c15.3,0,27.8-12.4,27.8-27.8c0-15.3-12.4-27.8-27.8-27.8
		c-15.3,0-27.8,12.4-27.8,27.8S1499.7,416.4,1515,416.4L1515,416.4z"/>
	<path class="st32" d="M1509,403.6h12c3,0,5.5-2.5,5.5-5.5l0,0v-19c0-3-2.5-5.5-5.5-5.5l0,0h-12c-3,0-5.5,2.5-5.5,5.5l0,0v19
		C1503.5,401.1,1506,403.6,1509,403.6C1509,403.6,1509,403.6,1509,403.6z"/>
	<circle class="st22" cx="1515" cy="388.6" r="9"/>
	<circle class="st22" cx="1661.5" cy="388.6" r="40.3"/>
	<path class="st32" d="M1661.5,354.2c19,0,34.4,15.4,34.4,34.4c0,19-15.4,34.4-34.4,34.4c-19,0-34.4-15.4-34.4-34.4
		S1642.5,354.2,1661.5,354.2L1661.5,354.2z M1661.5,416.4c15.3,0,27.8-12.4,27.8-27.8c0-15.3-12.4-27.8-27.8-27.8
		c-15.3,0-27.8,12.4-27.8,27.8S1646.1,416.4,1661.5,416.4L1661.5,416.4z"/>
	<path class="st32" d="M1655.5,403.6h12c3,0,5.5-2.5,5.5-5.5l0,0v-19c0-3-2.5-5.5-5.5-5.5l0,0h-12c-3,0-5.5,2.5-5.5,5.5l0,0v19
		C1650,401.1,1652.4,403.6,1655.5,403.6L1655.5,403.6z"/>
	<circle class="st22" cx="1661.5" cy="388.6" r="9"/>
	
		<linearGradient id="SVGID_28_" gradientUnits="userSpaceOnUse" x1="3277.4399" y1="1768.47" x2="3277.4399" y2="1748.02" gradientTransform="matrix(-1 0 0 1 4358.1099 -1735.12)">
		<stop  offset="0" style="stop-color:#4A4137"/>
		<stop  offset="1" style="stop-color:#927E6C"/>
	</linearGradient>
	<rect x="1055.3" y="12.9" class="st33" width="50.8" height="20.4"/>
	<path class="st8" d="M45.7,297.7H52c7.2,0,13.1,5.8,13.1,13c0,5.9-4,11.1-9.7,12.7v4.2h-3.5v-3.7h-6.2L45.7,297.7L45.7,297.7z"/>
	
		<linearGradient id="SVGID_29_" gradientUnits="userSpaceOnUse" x1="3936.5901" y1="1787.645" x2="4067.8701" y2="1787.645" gradientTransform="matrix(-1 0 0 1 4358.1099 -1735.12)">
		<stop  offset="0" style="stop-color:#927E6C"/>
		<stop  offset="8.000000e-02" style="stop-color:#5D5146"/>
		<stop  offset="0.29" style="stop-color:#7C6B5C"/>
		<stop  offset="0.71" style="stop-color:#4A4137"/>
		<stop  offset="1" style="stop-color:#927E6C"/>
	</linearGradient>
	<rect x="290.2" y="29.1" class="st34" width="131.3" height="46.9"/>
	<path class="st11" d="M151.2,269.2v6.6l-3.1,8.1l9.6,7.1l5.1,3.5l3.6,7.1v26.9l-5.1,5.1l-0.5,3.6l2.5,3L171,359
		c-3,1.5-4.1,9.1-4.1,9.1l0.5,7.1l-2.5,16.3l2,4.6l-1,5.6c0,0,7.1,6.6,5.1,8.1s4.1,31.5,4.1,31.5h-13.4l-6.9-27.9l-4.1-3l-2.5-5.6
		l-2.5-8.1l-6.6-10.2l-3.1-5.6l-3.5,5.6l-3.6,8.6l-5.6,4.1v9.6l-4.1,9.1l-2,23.3h-15.8l4.1-33l1-12.2l0.5-6.1l-2-20.3l5.8-10.2
		l-4.3-1.5l9.6-20.3l3-3.5l-0.5-5.6h-3.5l-4.3,0.5l-3.3-6.1l-1-5.6l4.3-10.7l4.3-14.2l6.6-4.6l7.1-2c1.3-2.1,2.3-4.3,3-6.6l-3-2
		l-0.5-4.6l2.5-3.6l-1.5-6.1l2.5-3h20.8l1,5.1L151.2,269.2z"/>
	
		<linearGradient id="SVGID_30_" gradientUnits="userSpaceOnUse" x1="3936.6001" y1="1758.3149" x2="4067.8701" y2="1758.3149" gradientTransform="matrix(-1 0 0 1 4358.1099 -1735.12)">
		<stop  offset="0" style="stop-color:#927E6C"/>
		<stop  offset="0.71" style="stop-color:#4A4137"/>
		<stop  offset="1" style="stop-color:#927E6C"/>
	</linearGradient>
	<path class="st35" d="M308.9,17.3h93.9c10.3,0,18.7,5.3,18.7,11.8H290.2C290.3,22.6,298.6,17.3,308.9,17.3z"/>
	<polygon class="st11" points="438.3,153.4 435.4,150.2 456.7,129.3 457.6,128.1 458.2,126.7 458.6,125.5 458.7,124.1 459.2,122.4 
		460.5,121 462.4,119.4 464.1,118.3 465.4,117.6 466.6,117.5 468.4,119 464.9,123.4 465,124.4 465.4,125.6 467.3,126.9 470.2,123.7 
		472.1,120.9 473.4,121.3 473.8,122.8 473.6,124.6 473,126.6 472,128.8 470.8,130.3 469.1,131 467.4,131.3 464.7,131.8 462.9,132.6 
		460.8,134.5 	"/>
	<path class="st11" d="M428.4,88.3l-19.2-6l-3-4.2l-3.6-7.2l1.2-6l-12-3.6l-8.4,3.6l-4.2,3.6v6.3l4.2,8.1v5.4l-0.6,5.4l-7.2,6.6
		l-2.4,9l6,6.6l2.4,12l1.8,4.8l-2.4,11.4l0.6,14.4c0,0,3,3,3,5.4s1.2,12.6,1.2,12.6l0.6,22.8l5.4,8.4c0,0-1.2,9.7-0.6,9.7
		s1.2,19.1,1.2,19.1h13.8V212l4.2-7.2l-1.2-6c0,0-1.8-4.2-1.8-7.2s0.6-10.8,0.6-10.8l1.8-9l10.2,17.4c1.4,2.1,2.6,4.3,3.6,6.6
		c0.6,1.8,0,11.4,0,11.4l4.8,2.4l4.2,27h15.6l-6-27l6-6v-8.4l-6.6-19.2l-3.6-18.6l2.4-8.4l7.8-4.8l-3.6-16.2l-3.6-9L428.4,88.3z"/>
	
		<linearGradient id="SVGID_31_" gradientUnits="userSpaceOnUse" x1="4002.2351" y1="1764.2" x2="4002.2351" y2="1752.4299" gradientTransform="matrix(-1 0 0 1 4358.1099 -1735.12)">
		<stop  offset="0.32" style="stop-color:#927E6C;stop-opacity:0"/>
		<stop  offset="1" style="stop-color:#D2C8BD"/>
	</linearGradient>
	<path class="st36" d="M308.9,17.3h93.9c10.3,0,18.7,5.3,18.7,11.8H290.2C290.3,22.6,298.6,17.3,308.9,17.3z"/>
	
		<linearGradient id="SVGID_32_" gradientUnits="userSpaceOnUse" x1="3936.3401" y1="1764" x2="4068.1099" y2="1764" gradientTransform="matrix(-1 0 0 1 4358.1099 -1735.12)">
		<stop  offset="0" style="stop-color:#B09882"/>
		<stop  offset="8.000000e-02" style="stop-color:#A38F7A"/>
		<stop  offset="0.29" style="stop-color:#A38D79"/>
		<stop  offset="0.71" style="stop-color:#827261"/>
		<stop  offset="1" style="stop-color:#B59C86"/>
	</linearGradient>
	<polygon class="st37" points="421.8,30.3 421.8,27.5 290,27.5 290,30.3 	"/>
	<rect x="65.1" y="149.9" class="st16" width="770.1" height="4.1"/>
	<rect x="65.1" y="188.4" class="st16" width="770.1" height="4.1"/>
	<g id="Layer_5">
		<rect x="287.7" y="360.9" class="st16" width="532.8" height="9.6"/>
		<rect x="179" y="337.1" class="st16" width="176.9" height="8.4"/>
		<rect x="179" y="373.5" class="st16" width="94" height="5.4"/>
		<rect x="266.5" y="303.8" class="st16" width="8.1" height="76.4"/>
		<rect x="179" y="311.9" class="st16" width="94" height="2.7"/>
		<rect x="267.5" y="299.5" class="st16" width="114.8" height="5.5"/>
		<circle class="st16" cx="819.2" cy="365.7" r="10"/>
		<circle class="st16" cx="686.8" cy="365.7" r="10"/>
		<circle class="st16" cx="554.3" cy="365.7" r="10"/>
		<circle class="st16" cx="421.9" cy="365.7" r="10"/>
		<circle class="st16" cx="521.7" cy="385.7" r="10"/>
		<circle class="st16" cx="357.6" cy="341.9" r="10"/>
		<circle class="st16" cx="289.5" cy="365.7" r="10"/>
		
			<rect x="437.9" y="283.8" transform="matrix(0.2494 -0.9684 0.9684 0.2494 -22.9414 702.0497)" class="st16" width="7.1" height="164.1"/>
		<rect x="249" y="331.9" class="st16" width="40.4" height="20"/>
		<rect x="258.8" y="347.7" class="st16" width="22.8" height="20.6"/>
		<rect x="364.9" y="272.1" class="st16" width="12.8" height="31.6"/>
		
			<rect x="344.2" y="313.8" transform="matrix(0.3496 -0.9369 0.9369 0.3496 -60.3277 548.8995)" class="st16" width="42" height="8.2"/>
		
			<rect x="358.2" y="253.4" transform="matrix(0.3496 -0.9369 0.9369 0.3496 3.9387 520.6539)" class="st16" width="37.5" height="8.2"/>
		<rect x="263.2" y="368.3" class="st16" width="13.5" height="15.7"/>
	</g>
	
		<linearGradient id="SVGID_33_" gradientUnits="userSpaceOnUse" x1="4118.2202" y1="1811.095" x2="4189.9199" y2="1811.095" gradientTransform="matrix(-1 0 0 1 4358.1099 -1735.12)">
		<stop  offset="0" style="stop-color:#927E6C"/>
		<stop  offset="8.000000e-02" style="stop-color:#5D5146"/>
		<stop  offset="0.29" style="stop-color:#7C6B5C"/>
		<stop  offset="0.71" style="stop-color:#4A4137"/>
		<stop  offset="1" style="stop-color:#927E6C"/>
	</linearGradient>
	<polygon class="st38" points="168.2,83.8 239.9,83.8 235.1,68.1 172.4,68.1 	"/>
	
		<linearGradient id="SVGID_34_" gradientUnits="userSpaceOnUse" x1="4118.2202" y1="1770.9301" x2="4189.9199" y2="1770.9301" gradientTransform="matrix(-1 0 0 1 4358.1099 -1735.12)">
		<stop  offset="0" style="stop-color:#927E6C"/>
		<stop  offset="8.000000e-02" style="stop-color:#5D5146"/>
		<stop  offset="0.29" style="stop-color:#7C6B5C"/>
		<stop  offset="0.71" style="stop-color:#4A4137"/>
		<stop  offset="1" style="stop-color:#927E6C"/>
	</linearGradient>
	<polygon class="st39" points="168.2,3.5 239.9,3.5 235.1,68.1 172.4,68.1 	"/>
	
		<linearGradient id="SVGID_35_" gradientUnits="userSpaceOnUse" x1="4154.0698" y1="1803.26" x2="4154.0698" y2="1740.85" gradientTransform="matrix(-1 0 0 1 4358.1099 -1735.12)">
		<stop  offset="0.93" style="stop-color:#3B332C;stop-opacity:0"/>
		<stop  offset="1" style="stop-color:#3A322B"/>
	</linearGradient>
	<polygon class="st40" points="168.2,5.7 239.9,5.7 235.1,68.1 172.4,68.1 	"/>
	
		<linearGradient id="SVGID_36_" gradientUnits="userSpaceOnUse" x1="4114.48" y1="61.405" x2="4193.0898" y2="61.405" gradientTransform="matrix(-1 0 0 -1 4358.1001 64.88)">
		<stop  offset="0" style="stop-color:#927E6C"/>
		<stop  offset="8.000000e-02" style="stop-color:#5D5146"/>
		<stop  offset="0.29" style="stop-color:#7C6B5C"/>
		<stop  offset="0.71" style="stop-color:#4A4137"/>
		<stop  offset="1" style="stop-color:#927E6C"/>
	</linearGradient>
	<path class="st41" d="M240.1,7h-71.7c-1.9,0-3.5-1.6-3.5-3.5v0c0-1.9,1.6-3.5,3.5-3.5h71.7c1.9,0,3.5,1.6,3.5,3.5v0
		C243.6,5.4,242.1,7,240.1,7z"/>
	
		<linearGradient id="SVGID_37_" gradientUnits="userSpaceOnUse" x1="4153.7852" y1="57.92" x2="4153.7852" y2="64.88" gradientTransform="matrix(-1 0 0 -1 4358.1001 64.88)">
		<stop  offset="0" style="stop-color:#3A322B;stop-opacity:0.9"/>
		<stop  offset="0.21" style="stop-color:#3A322B"/>
		<stop  offset="0.69" style="stop-color:#3B332C;stop-opacity:0"/>
	</linearGradient>
	<path class="st42" d="M240.1,7h-71.7c-1.9,0-3.5-1.6-3.5-3.5v0c0-1.9,1.6-3.5,3.5-3.5h71.7c1.9,0,3.5,1.6,3.5,3.5v0
		C243.6,5.4,242.1,7,240.1,7z"/>
</g>
<g id="Coal">
	<polygon class="st43" points="2392.9,114.2 2322.2,85.5 2270.6,71.2 2173,93.2 2075.5,117.1 1996.1,100.8 1913.9,100.8 1873.7,118 
		1873.7,133.3 2392.9,133.3 	"/>
</g>
<g id="Layer_18">
	<polygon class="st43" points="3725.5,129.2 3494.7,66.1 3394.1,65.1 3328.9,91.7 3202.7,131.2 	"/>
</g>
<g id="Layer_19">
	<path class="st43" d="M2867.7,115.4c-5.9-1-96.7-30.6-96.7-30.6l-100.6-3.9l-108.6,37.8L2867.7,115.4z"/>
</g>
<g id="CargoCart">
	
		<linearGradient id="SVGID_38_" gradientUnits="userSpaceOnUse" x1="2137.99" y1="114.57" x2="2137.99" y2="322.26" gradientTransform="matrix(1 0 0 -1 0 444)">
		<stop  offset="0" style="stop-color:#806E5E"/>
		<stop  offset="0.98" style="stop-color:#806E5E"/>
		<stop  offset="1" style="stop-color:#53493E"/>
	</linearGradient>
	<polygon class="st44" points="2428.8,329.4 1847.2,329.4 1847.2,121.7 2428.8,121.7 	"/>
	
		<rect x="1948.7" y="81.9" transform="matrix(0.7251 -0.6886 0.6886 0.7251 381.6071 1406.2604)" class="st16" width="7.3" height="286.5"/>
	
		<linearGradient id="SVGID_39_" gradientUnits="userSpaceOnUse" x1="2140.02" y1="114.42" x2="2140.02" y2="321.57" gradientTransform="matrix(1 0 0 -1 0 444)">
		<stop  offset="0" style="stop-color:#927E6C"/>
		<stop  offset="0.99" style="stop-color:#917D6B"/>
		<stop  offset="1" style="stop-color:#53493E"/>
	</linearGradient>
	<rect x="2049.9" y="122.4" class="st45" width="180.3" height="207.1"/>
	<rect x="2421.5" y="122.4" class="st16" width="7.3" height="207.1"/>
	<rect x="1847.2" y="122.4" class="st16" width="7.3" height="207.1"/>
	
		<linearGradient id="SVGID_40_" gradientUnits="userSpaceOnUse" x1="2138.1851" y1="322.26" x2="2138.1851" y2="333.77" gradientTransform="matrix(1 0 0 -1 0 444)">
		<stop  offset="0" style="stop-color:#63564A"/>
		<stop  offset="1" style="stop-color:#C5BBB0"/>
	</linearGradient>
	<polygon class="st46" points="2432.2,110.2 1844.2,110.2 1844.2,121.7 2432.2,121.7 	"/>
	
		<rect x="2182.8" y="221.5" transform="matrix(0.6886 -0.7251 0.7251 0.6886 561.0818 1756.8137)" class="st16" width="286.5" height="7.3"/>
</g>
<g id="Bottom">
	<circle class="st22" cx="1976.6" cy="385.6" r="44"/>
	<circle class="st22" cx="2300.1" cy="385.6" r="44"/>
	<rect x="1849.3" y="329" class="st22" width="578.1" height="40"/>
	<rect x="1859.1" y="341.6" class="st22" width="57" height="57"/>
	<path class="st32" d="M1982.8,400.6h-12c-3,0-5.5-2.5-5.5-5.5l0,0v-19c0-3,2.5-5.5,5.5-5.5l0,0h12c3,0,5.5,2.5,5.5,5.5l0,0v19
		C1988.3,398.1,1985.9,400.6,1982.8,400.6L1982.8,400.6z"/>
	<circle class="st22" cx="1976.8" cy="385.6" r="9"/>
	<path class="st32" d="M2307.3,400.6h-12c-3,0-5.5-2.5-5.5-5.5l0,0v-19c0-3,2.5-5.5,5.5-5.5l0,0h12c3,0,5.5,2.5,5.5,5.5l0,0v19
		C2312.8,398.1,2310.3,400.6,2307.3,400.6L2307.3,400.6z"/>
	<circle class="st22" cx="2301.3" cy="385.6" r="9"/>
	<polygon class="st22" points="1835.4,332.3 1835.4,335.7 1823,335.7 1823,337.9 1811.8,337.9 1811.8,329.6 1809.2,329.6 
		1809.2,337.9 1809.2,337.9 1809.2,345.3 1809.2,345.3 1809.2,353.6 1811.8,353.6 1811.8,345.3 1823,345.3 1823,347.5 1835.4,347.5 
		1835.4,350.5 1856.6,350.5 1856.6,332.3 	"/>
	<polygon class="st22" points="2442.7,350.9 2442.7,347.5 2455,347.5 2455,345.3 2466.2,345.3 2466.2,353.6 2468.8,353.6 
		2468.8,345.3 2468.8,345.3 2468.8,337.9 2468.8,337.9 2468.8,329.6 2466.2,329.6 2466.2,337.9 2455,337.9 2455,335.7 2442.7,335.7 
		2442.7,332.7 2421.5,332.7 2421.5,350.9 	"/>
</g>
<g id="CargoCart-2">
	
		<linearGradient id="SVGID_41_" gradientUnits="userSpaceOnUse" x1="2797.6199" y1="114.57" x2="2797.6199" y2="322.26" gradientTransform="matrix(1 0 0 -1 0 444)">
		<stop  offset="0" style="stop-color:#806E5E"/>
		<stop  offset="0.98" style="stop-color:#806E5E"/>
		<stop  offset="1" style="stop-color:#53493E"/>
	</linearGradient>
	<polygon class="st47" points="3088.4,329.4 2506.8,329.4 2506.8,121.7 3088.4,121.7 	"/>
	
		<rect x="2608.3" y="81.9" transform="matrix(0.7251 -0.6886 0.6886 0.7251 562.9172 1860.4948)" class="st16" width="7.3" height="286.5"/>
	
		<linearGradient id="SVGID_42_" gradientUnits="userSpaceOnUse" x1="2799.6499" y1="114.42" x2="2799.6499" y2="321.57" gradientTransform="matrix(1 0 0 -1 0 444)">
		<stop  offset="0" style="stop-color:#927E6C"/>
		<stop  offset="0.99" style="stop-color:#917D6B"/>
		<stop  offset="1" style="stop-color:#53493E"/>
	</linearGradient>
	<rect x="2709.5" y="122.4" class="st48" width="180.3" height="207.1"/>
	<rect x="3081.1" y="122.4" class="st16" width="7.3" height="207.1"/>
	<rect x="2506.8" y="122.4" class="st16" width="7.3" height="207.1"/>
	
		<linearGradient id="SVGID_43_" gradientUnits="userSpaceOnUse" x1="2797.8149" y1="322.26" x2="2797.8149" y2="333.77" gradientTransform="matrix(1 0 0 -1 0 444)">
		<stop  offset="0" style="stop-color:#63564A"/>
		<stop  offset="1" style="stop-color:#C5BBB0"/>
	</linearGradient>
	<polygon class="st49" points="3091.8,110.2 2503.8,110.2 2503.8,121.7 3091.8,121.7 	"/>
	
		<rect x="2842.4" y="221.5" transform="matrix(0.6886 -0.7251 0.7251 0.6886 766.4767 2235.1204)" class="st16" width="286.5" height="7.3"/>
</g>
<g id="Bottom-2">
	<circle class="st22" cx="2636.2" cy="385.6" r="44"/>
	<circle class="st22" cx="2959.7" cy="385.6" r="44"/>
	<rect x="2508.9" y="329" class="st22" width="578.1" height="40"/>
	<rect x="2518.7" y="341.6" class="st22" width="57" height="57"/>
	<path class="st32" d="M2642.5,400.6h-12c-3,0-5.5-2.5-5.5-5.5l0,0v-19c0-3,2.5-5.5,5.5-5.5l0,0h12c3,0,5.5,2.5,5.5,5.5l0,0v19
		C2648,398.1,2645.5,400.6,2642.5,400.6L2642.5,400.6z"/>
	<circle class="st22" cx="2636.5" cy="385.6" r="9"/>
	<path class="st32" d="M2966.9,400.6h-12c-3,0-5.5-2.5-5.5-5.5l0,0v-19c0-3,2.5-5.5,5.5-5.5l0,0h12c3,0,5.5,2.5,5.5,5.5l0,0v19
		C2972.4,398.1,2970,400.6,2966.9,400.6L2966.9,400.6z"/>
	<circle class="st22" cx="2960.9" cy="385.6" r="9"/>
	<polygon class="st22" points="2495,332.3 2495,335.7 2482.6,335.7 2482.6,337.9 2471.4,337.9 2471.4,329.6 2468.8,329.6 
		2468.8,337.9 2468.8,337.9 2468.8,345.3 2468.8,345.3 2468.8,353.6 2471.4,353.6 2471.4,345.3 2482.6,345.3 2482.6,347.5 
		2495,347.5 2495,350.5 2516.2,350.5 2516.2,332.3 	"/>
	<polygon class="st22" points="3102.3,350.9 3102.3,347.5 3114.7,347.5 3114.7,345.3 3125.9,345.3 3125.9,353.6 3128.5,353.6 
		3128.5,345.3 3128.5,345.3 3128.5,337.9 3128.5,337.9 3128.5,329.6 3125.9,329.6 3125.9,337.9 3114.7,337.9 3114.7,335.7 
		3102.3,335.7 3102.3,332.7 3081.1,332.7 3081.1,350.9 	"/>
</g>
<g id="CargoCart-3">
	
		<linearGradient id="SVGID_44_" gradientUnits="userSpaceOnUse" x1="3457.25" y1="114.57" x2="3457.25" y2="322.26" gradientTransform="matrix(1 0 0 -1 0 444)">
		<stop  offset="0" style="stop-color:#806E5E"/>
		<stop  offset="0.98" style="stop-color:#806E5E"/>
		<stop  offset="1" style="stop-color:#53493E"/>
	</linearGradient>
	<polygon class="st50" points="3748.1,329.4 3166.4,329.4 3166.4,121.7 3748.1,121.7 	"/>
	
		<rect x="3268" y="81.9" transform="matrix(0.7251 -0.6886 0.6886 0.7251 744.2272 2314.729)" class="st16" width="7.3" height="286.5"/>
	
		<linearGradient id="SVGID_45_" gradientUnits="userSpaceOnUse" x1="3459.27" y1="114.42" x2="3459.27" y2="321.57" gradientTransform="matrix(1 0 0 -1 0 444)">
		<stop  offset="0" style="stop-color:#927E6C"/>
		<stop  offset="0.99" style="stop-color:#917D6B"/>
		<stop  offset="1" style="stop-color:#53493E"/>
	</linearGradient>
	<rect x="3369.1" y="122.4" class="st51" width="180.3" height="207.1"/>
	<rect x="3740.7" y="122.4" class="st16" width="7.3" height="207.1"/>
	<rect x="3166.4" y="122.4" class="st16" width="7.3" height="207.1"/>
	
		<linearGradient id="SVGID_46_" gradientUnits="userSpaceOnUse" x1="3457.4399" y1="322.26" x2="3457.4399" y2="333.77" gradientTransform="matrix(1 0 0 -1 0 444)">
		<stop  offset="0" style="stop-color:#63564A"/>
		<stop  offset="1" style="stop-color:#C5BBB0"/>
	</linearGradient>
	<polygon class="st52" points="3751.4,110.2 3163.4,110.2 3163.4,121.7 3751.4,121.7 	"/>
	
		<rect x="3502.1" y="221.5" transform="matrix(0.6886 -0.7251 0.7251 0.6886 971.8718 2713.4419)" class="st16" width="286.5" height="7.3"/>
</g>
<g id="Bottom-3">
	<circle class="st22" cx="3295.9" cy="385.6" r="44"/>
	<circle class="st22" cx="3619.3" cy="385.6" r="44"/>
	<rect x="3168.5" y="329" class="st22" width="578.1" height="40"/>
	<rect x="3178.3" y="341.6" class="st22" width="57" height="57"/>
	<path class="st32" d="M3302.1,400.6h-12c-3,0-5.5-2.5-5.5-5.5l0,0v-19c0-3,2.5-5.5,5.5-5.5l0,0h12c3,0,5.5,2.5,5.5,5.5l0,0v19
		C3307.6,398.1,3305.1,400.6,3302.1,400.6L3302.1,400.6z"/>
	<circle class="st22" cx="3296.1" cy="385.6" r="9"/>
	<path class="st32" d="M3626.5,400.6h-12c-3,0-5.5-2.5-5.5-5.5l0,0v-19c0-3,2.5-5.5,5.5-5.5l0,0h12c3,0,5.5,2.5,5.5,5.5l0,0v19
		C3632.1,398.1,3629.6,400.6,3626.5,400.6L3626.5,400.6z"/>
	<circle class="st22" cx="3620.6" cy="385.6" r="9"/>
	<polygon class="st22" points="3154.6,332.3 3154.6,335.7 3142.3,335.7 3142.3,337.9 3131.1,337.9 3131.1,329.6 3128.5,329.6 
		3128.5,337.9 3128.5,337.9 3128.5,345.3 3128.5,345.3 3128.5,353.6 3131.1,353.6 3131.1,345.3 3142.3,345.3 3142.3,347.5 
		3154.6,347.5 3154.6,350.5 3175.8,350.5 3175.8,332.3 	"/>
	<polygon class="st22" points="3761.9,350.9 3761.9,347.5 3774.3,347.5 3774.3,345.3 3785.5,345.3 3785.5,353.6 3788.1,353.6 
		3788.1,345.3 3788.1,345.3 3788.1,337.9 3788.1,337.9 3788.1,329.6 3785.5,329.6 3785.5,337.9 3774.3,337.9 3774.3,335.7 
		3761.9,335.7 3761.9,332.7 3740.7,332.7 3740.7,350.9 	"/>
</g>
<path class="st11" d="M725.1,438.9h-28.8l4.3-5.7l-1.4-3.8l-9.5-23.7l1-21.3l1.9-13.7l-6.2-11.3v-6.6l-3.8-2.4h-9.9l-7.1,3.8
	l-10.9,1.4l-6.6,0.5l-4.3-1.9v-3.8h11.8l4.7-4.3l4.7-4.3l5.7-5.2l-2.4-8.5l-0.5-8l1.4-7.1l-1-2.8l-3.7-2.4h-3.3l-1-3.3H657l-2.4-3.3
	l-0.5-3.8l1.9-4.3l-2.4-2.3v-4.3h21.8l2.8,5.2c-0.2,2.1,0.5,4.1,1.9,5.7l4.3-0.9l3.3,4.3l12.3,0.5l4.3,4.7l4.3,6.6l-0.5,3.3l3.3,1.9
	l5.2,7.1l0.5,6.2l1.4,4.3l4.3,7.6l2.3,13.3c0,0-4.7,20.8-4.3,22.2s-0.5,17-0.5,17s2.4,18.5,2.4,21.3s2.4,17,2.4,17V438.9z"/>
<polygon class="st11" points="127.9,316.6 131.3,320.9 102.5,345.4 101.3,346.9 100.4,348.6 99.7,350 99.6,351.9 98.7,354 97,355.6 
	94.4,357.4 92.2,358.8 90.4,359.5 88.9,359.5 86.8,357.5 91.6,352.1 91.5,350.9 91.1,349.4 88.8,347.5 85,351.4 82.2,354.7 
	80.7,354.1 80.3,352.1 80.7,349.9 81.6,347.4 83.1,344.7 84.7,342.9 86.9,342.2 89.1,341.9 92.6,341.5 94.9,340.7 97.8,338.5 "/>
<polygon class="st11" points="676.8,341.1 677.7,346 630.8,355 629.5,355.5 628.3,356.5 627.4,357.3 626.8,358.7 625.5,360 
	623.8,360.4 621.5,360.8 619.7,360.8 618.2,360.6 617.2,359.8 622.2,357.3 622.5,356.3 622.7,354.9 622.2,353.5 621.4,352.4 
	620.4,351.8 619.4,351.5 614.3,353.8 614.6,352.1 615.5,350.5 617,349 618.9,347.5 620.5,346.9 622.2,347.2 623.8,348.1 
	626.2,349.4 628,349.7 630.6,349.3 "/>
<polygon class="st11" points="63.2,137.3 66.7,139.6 89,106.4 89.8,105.5 91,105 91.9,104.5 93.2,104.5 94.6,103.9 95.5,102.8 
	96.5,101.1 97.1,99.7 97.4,98.5 97.2,97.4 93.6,100.4 92.7,100.4 91.5,100.1 90.6,99.3 90.1,98.3 89.9,97.3 90,96.4 93.5,93.2 
	92.1,92.9 90.5,93.1 88.9,93.7 87.1,94.7 86.1,95.7 85.8,97.2 85.9,98.7 86.1,101 85.8,102.5 84.7,104.4 "/>
</svg>
