<svg fill="none" height="37" viewBox="0 0 37 37" width="37" xmlns="http://www.w3.org/2000/svg" xmlns:xlink="http://www.w3.org/1999/xlink"><linearGradient id="a"><stop offset=".3" stop-color="#e3cfcc"/><stop offset="1" stop-color="#b07e6e"/></linearGradient><linearGradient id="b" gradientUnits="userSpaceOnUse" x1="29.86" x2="29.86" xlink:href="#a" y1="23.61" y2="30.4"/><linearGradient id="c" gradientUnits="userSpaceOnUse" x1="-6669.15" x2="-6669.15" xlink:href="#a" y1="39767.5" y2="39878"/><linearGradient id="d" gradientUnits="userSpaceOnUse" x1="-3119.05" x2="-3119.05" xlink:href="#a" y1="39767.5" y2="39878"/><linearGradient id="e" gradientUnits="userSpaceOnUse" x1="18.7" x2="18.7" y1="34.25" y2="-.679938"><stop offset=".43" stop-color="#806664"/><stop offset=".44" stop-color="#967d7b"/><stop offset=".45" stop-color="#b19a97"/><stop offset=".46" stop-color="#c4aeac"/><stop offset=".47" stop-color="#d0bbb8"/><stop offset=".48" stop-color="#d4bfbc"/><stop offset=".56" stop-color="#806664"/><stop offset=".82" stop-color="#e3cfcc"/><stop offset=".95" stop-color="#b18070"/><stop offset=".97" stop-color="#e3cfcc"/></linearGradient><linearGradient id="f" gradientUnits="userSpaceOnUse" x1="18.08" x2="18.08" y1="17.42" y2="2.07001"><stop offset=".82" stop-color="#d7bcb6"/><stop offset=".94" stop-color="#b48576"/><stop offset=".95" stop-color="#cfafa7"/><stop offset=".96" stop-color="#dec8c3"/><stop offset=".97" stop-color="#e2cdca"/><stop offset=".99" stop-color="#e3cfcc"/></linearGradient><radialGradient id="g" cx="0" cy="0" gradientTransform="matrix(6.76399687 -.2847999 .2847999 6.76399687 20.6784 23.7913)" gradientUnits="userSpaceOnUse" r="1"><stop offset="0" stop-color="#dabdb9"/><stop offset=".53" stop-color="#d8bbb7"/><stop offset=".72" stop-color="#d1b5b1"/><stop offset=".85" stop-color="#c6aba7"/><stop offset=".88" stop-color="#c2a8a4"/><stop offset=".89" stop-color="#b79d98"/><stop offset=".91" stop-color="#9e847d"/></radialGradient><path d="m33.67 23.65h-7.63v6.77h7.63z" fill="url(#b)"/><path d="m15.55 21.74h-11.35v10.49h11.35z" fill="url(#c)"/><path d="m36.15 21.74h-5.15v10.49h5.15z" fill="url(#d)"/><path clip-rule="evenodd" d="m15.55 19.27v-19.26993896h6.29v19.26993896c1.6402.6221 3.0591 1.7166 4.0773 3.1451s1.59 3.1268 1.643 4.8802c.053 1.7535-.4151 3.4832-1.3451 4.9706s-2.2802 2.6657-3.8798 3.3858-3.3768.9497-5.1069.6598-3.3354-1.0863-4.6129-2.2885-2.1699-2.7561-2.5642-4.4654c-.3944-1.7094-.27308-3.4973.3486-5.1376.4156-1.1906 1.0946-2.272 1.9863-3.1637s1.9731-1.5707 3.1637-1.9863z" fill="url(#e)" fill-rule="evenodd"/><path clip-rule="evenodd" d="m0 18.4h11.83l2.86-3.05h8.2l2.58 3.05h10.68v-16.02h-36.15z" fill="url(#f)" fill-rule="evenodd"/><path d="m18.6 34.23c3.739 0 6.77-3.031 6.77-6.77s-3.031-6.77-6.77-6.77-6.77 3.031-6.77 6.77 3.031 6.77 6.77 6.77z" fill="url(#g)"/></svg>