<svg fill="none" height="50" viewBox="0 0 211 50" width="211" xmlns="http://www.w3.org/2000/svg" xmlns:xlink="http://www.w3.org/1999/xlink"><linearGradient id="a" gradientUnits="userSpaceOnUse" x1="105.381" x2="105.886" y1="20.821" y2="44.8547"><stop offset="0"/><stop offset="1" stop-color="#b07e6e" stop-opacity="0"/></linearGradient><linearGradient id="b" gradientUnits="userSpaceOnUse" x1="105.448" x2="105.951" y1="19.8733" y2="43.927"><stop offset=".3" stop-color="#e3cfcc"/><stop offset=".94" stop-color="#b07e6e"/></linearGradient><linearGradient id="c"><stop offset="0" stop-color="#dabdb9"/><stop offset=".53" stop-color="#d8bbb7"/><stop offset=".72" stop-color="#d1b5b1"/><stop offset=".85" stop-color="#c6aba7"/><stop offset=".88" stop-color="#c2a8a4"/><stop offset=".89" stop-color="#b79d98"/><stop offset=".91" stop-color="#9e847d"/></linearGradient><radialGradient id="d" cx="0" cy="0" gradientTransform="matrix(7.25213028 .20117315 -.20117315 7.25213028 202.893 20.3131)" gradientUnits="userSpaceOnUse" r="1" xlink:href="#c"/><radialGradient id="e" cx="0" cy="0" gradientTransform="matrix(110.3654987 7.71750747 -7.71750747 110.3654987 -10543 8201.07)" gradientUnits="userSpaceOnUse" r="1" xlink:href="#c"/><linearGradient id="f" gradientUnits="userSpaceOnUse" x1="108.885" x2="108.9" y1="22.6198" y2="26.1294"><stop offset="0" stop-color="#591c16"/><stop offset=".06" stop-color="#5d1d17"/><stop offset=".13" stop-color="#6a211a"/><stop offset=".19" stop-color="#7e261e"/><stop offset=".24" stop-color="#922c23"/><stop offset=".47" stop-color="#bf3029"/><stop offset="1" stop-color="#571210"/></linearGradient><path clip-rule="evenodd" d="m12.7642 14.3947c2.2552.061 4.4731.5903 6.5128 1.5544s3.8566 2.3418 5.3353 4.0457l167.5397-.8852c.943-1.2665 2.153-2.3099 3.544-3.0564 1.392-.7464 2.93-1.1774 4.507-1.2625 2.561.0077 5.018 1.0157 6.846 2.8089 1.829 1.7932 2.884 4.2297 2.942 6.7901s-.887 5.042-2.633 6.9156c-1.746 1.8737-4.155 2.9911-6.713 3.1141-2.897.007-5.704-1.0055-7.93-2.8602l-167.7674-1.306c-1.4383 1.7563-3.2326 3.1877-5.2646 4.1998-2.0319 1.0122-4.2554 1.5822-6.5237 1.6722-1.4257.1695-2.8709.0565-4.2529-.3325-1.38204-.389-2.67394-1.0463-3.80192-1.9346-1.12798-.8882-2.06996-1.99-2.77216-3.2423s-1.15084-2.6306-1.32036-4.0563c-.169514-1.4257-.056595-2.8708.33238-4.2528.38898-1.382 1.04634-2.6739 1.9346-3.8019.88825-1.128 1.98999-2.07 3.24229-2.7722s2.63063-1.1508 4.05637-1.3203l.5243-.0437.6141-.0372z" fill="url(#a)" fill-rule="evenodd"/><path clip-rule="evenodd" d="m12.8311 13.4371c2.2571.0606 4.4766.5917 6.5166 1.5594 2.04.9678 3.8555 2.3508 5.3302 4.0606l167.5401-.8951c.946-1.2631 2.156-2.3035 3.547-3.048s2.928-1.1749 4.504-1.261c2.561.0077 5.017 1.0156 6.846 2.8088 1.828 1.7932 2.884 4.2298 2.942 6.7902.057 2.5604-.888 5.042-2.634 6.9157s-4.154 2.991-6.713 3.1139c-2.895-.0023-5.699-1.0136-7.929-2.8601l-167.7665-1.326c-1.4357 1.7593-3.2294 3.1927-5.2619 4.2051-2.0326 1.0125-4.2573 1.5807-6.5264 1.6669-1.439.1988-2.9033.1089-4.30714-.2647-1.40386-.3737-2.71918-1.0233-3.86903-1.9112-1.14984-.8878-2.11118-1.9959-2.82778-3.2596s-1.1741-2.6577-1.345743-4.1002c-.171645-1.4426-.054005-2.9049.346063-4.3014.40006-1.3966 1.07453-2.6993 1.98394-3.8322.90941-1.1328 2.03556-2.073 3.31256-2.7656s2.67921-1.1237 4.12473-1.2681l.525-.0535c.1996.014.4139-.0412.6148-.0472z" fill="url(#b)" fill-rule="evenodd"/><path d="m200.037 30.9285c3.994.2793 7.459-2.7323 7.738-6.7266s-2.732-7.4588-6.727-7.7381c-3.994-.2793-7.458 2.7323-7.738 6.7266-.279 3.9943 2.733 7.4588 6.727 7.7381z" fill="url(#d)"/><path d="m12.265 31.2811c3.9943.2793 7.4588-2.7323 7.7381-6.7267.2793-3.9943-2.7323-7.4587-6.7266-7.738-3.99434-.2793-7.45879 2.7323-7.7381 6.7266s2.7323 7.4587 6.7266 7.7381z" fill="url(#e)"/><path clip-rule="evenodd" d="m191.126 21.6042.119 5.1709-164.5249.0635-.1759-4.2226z" fill="url(#f)" fill-rule="evenodd"/></svg>