<svg fill="none" height="35" viewBox="0 0 40 35" width="40" xmlns="http://www.w3.org/2000/svg" xmlns:xlink="http://www.w3.org/1999/xlink"><linearGradient id="a" gradientUnits="userSpaceOnUse" x1="24.2914" x2="14.8257" y1="7.92148" y2="26.4989"><stop offset=".3" stop-color="#e3cfcc"/><stop offset="1" stop-color="#b07e6e"/></linearGradient><radialGradient id="b" cx="0" cy="0" gradientTransform="matrix(2.89646248 1.32543148 -1.32543148 2.89646248 36.1331 14.4797)" gradientUnits="userSpaceOnUse" r="1"><stop offset="0" stop-color="#dabdb9"/><stop offset=".53" stop-color="#d8bbb7"/><stop offset=".72" stop-color="#d1b5b1"/><stop offset=".85" stop-color="#c6aba7"/><stop offset=".88" stop-color="#c2a8a4"/><stop offset=".89" stop-color="#b79d98"/><stop offset=".91" stop-color="#9e847d"/></radialGradient><path clip-rule="evenodd" d="m2.29268 14.9503 25.77302.0793.0863-.1692c.4314-.8681 1.1101-1.589 1.9505-2.072.8405-.483 1.8052-.7064 2.7724-.642.9672.0643 1.8937.4136 2.6627 1.0037.7691.59 1.3464 1.3944 1.659 2.312s.3466 1.9072.0977 2.8441c-.2488.9369-.7694 1.779-1.4962 2.4205-.7267.6415-1.6272 1.0535-2.5877 1.1841s-1.9381-.026-2.8098-.4502c-.7441-.3705-1.3863-.9173-1.8708-1.5928l-26.41812.6581z" fill="url(#a)" fill-rule="evenodd"/><path d="m31.128 19.9009c1.5944.8123 3.5454.1784 4.3578-1.416.8124-1.5943.1784-3.5454-1.4159-4.3578-1.5944-.8123-3.5454-.1784-4.3578 1.416-.8124 1.5943-.1785 3.5454 1.4159 4.3578z" fill="url(#b)"/></svg>