<svg fill="none" height="34" viewBox="0 0 148 34" width="148" xmlns="http://www.w3.org/2000/svg" xmlns:xlink="http://www.w3.org/1999/xlink"><linearGradient id="a" gradientUnits="userSpaceOnUse" x1="73.9243" x2="75.4512" y1="16.8865" y2="-4.95018"><stop offset=".3" stop-color="#e3cfcc"/><stop offset="1" stop-color="#b07e6e"/></linearGradient><linearGradient id="b"><stop offset="0" stop-color="#dabdb9"/><stop offset=".53" stop-color="#d8bbb7"/><stop offset=".72" stop-color="#d1b5b1"/><stop offset=".85" stop-color="#c6aba7"/><stop offset=".88" stop-color="#c2a8a4"/><stop offset=".89" stop-color="#b79d98"/><stop offset=".91" stop-color="#9e847d"/></linearGradient><radialGradient id="c" cx="0" cy="0" gradientTransform="matrix(3.1368202 .21934784 -.21934784 3.1368202 -1139.57 573.666)" gradientUnits="userSpaceOnUse" r="1" xlink:href="#b"/><radialGradient id="d" cx="0" cy="0" gradientTransform="matrix(34.94686332 2.44372274 -2.44372274 34.94686332 -7096.17 27482.1)" gradientUnits="userSpaceOnUse" r="1" xlink:href="#b"/><path clip-rule="evenodd" d="m146.003 10.0979 1.76 2.2182-.44 6.2846-2.646 2.301-9.394.2955-1.732-1.1737-110.451.5968-3.8839 2.2144-15.98399.2156-2.457709-1.6956-.06916-8.6158 1.768819-2.0717 17.28094.4466 3.588 1.8748 109.759-.164 1.423-2.577z" fill="url(#a)" fill-rule="evenodd"/><path d="m140.414 12.1931c.621.0435 1.216.2703 1.708.6517.493.3814.861.9003 1.059 1.4912.198.5908.216 1.2269.052 1.828s-.502 1.1401-.972 1.5488c-.471.4088-1.052.6689-1.67.7475s-1.245-.0279-1.803-.3059c-.557-.2779-1.02-.715-1.329-1.2559s-.451-1.1613-.407-1.7828c.027-.4118.136-.8141.319-1.1838.184-.3697.439-.6993.75-.9701.312-.2707.674-.4772 1.065-.6076.392-.1303.805-.1819 1.217-.1518z" fill="url(#c)"/><path d="m9.78581 20.9323c2.31399.1618 4.32099-1.5829 4.48279-3.8968.1618-2.314-1.5829-4.3209-3.8968-4.4828-2.31398-.1618-4.32097 1.5829-4.48278 3.8968-.1618 2.314 1.58285 4.321 3.89679 4.4828z" fill="url(#d)"/></svg>