<svg fill="none" height="20" viewBox="0 0 23 20" width="23" xmlns="http://www.w3.org/2000/svg" xmlns:xlink="http://www.w3.org/1999/xlink"><linearGradient id="a" gradientUnits="userSpaceOnUse" x1="3.95197" x2="20.0045" y1="14.237" y2="6.40764"><stop offset="0" stop-color="#b07e6e"/><stop offset=".01" stop-color="#b98b7e"/><stop offset=".04" stop-color="#c59e94"/><stop offset=".07" stop-color="#cfaca5"/><stop offset=".11" stop-color="#d5b6b0"/><stop offset=".16" stop-color="#d9bbb7"/><stop offset=".3" stop-color="#dabdb9"/><stop offset="1" stop-color="#b07e6e"/></linearGradient><path clip-rule="evenodd" d="m19.7257 12.9077-15.17366.3468c-.46977.0127-.93318-.1106-1.3346-.355-.40142-.2443-.7238-.5993-.92828-1.0224l-.27617-.5663c-.18479-.3766-.26979-.7943-.24687-1.2132.02292-.4188.15307-.82478.37784-1.17895.22478-.35417.53667-.64466.90591-.84372s.78342-.29998 1.20284-.2931l15.46299.24643c.4543.00972.8972.14464 1.2799.38987.3826.24523.6903.59127.8889 1.00006.173.36883.2512.77491.2277 1.18161s-.1481.8012-.3624 1.1476c-.2144.3464-.5117.634-.8651.8366s-.7518.3138-1.159.3237z" fill="url(#a)" fill-rule="evenodd"/></svg>