<svg height="101.08" viewBox="0 0 101.08 101.08" width="101.08" xmlns="http://www.w3.org/2000/svg" xmlns:xlink="http://www.w3.org/1999/xlink"><radialGradient id="a" cx="-244.21" cy="-3934.47" gradientTransform="matrix(.95 0 0 -.95 -278.44 -3040.95)" gradientUnits="userSpaceOnUse" r="7.79"><stop offset="0" stop-color="#dbc9c9"/><stop offset=".64" stop-color="#dbc9c9"/><stop offset=".74" stop-color="#dbc9c9"/><stop offset=".82" stop-color="#d8c6c6"/><stop offset=".92" stop-color="#aaa094"/><stop offset="1" stop-color="#8c8672"/></radialGradient><path d="m50.54 0a50.54 50.54 0 1 1 -50.54 50.54 50.54 50.54 0 0 1 50.54-50.54zm0 97.55a46.92 46.92 0 1 0 -46.91-46.93 46.88 46.88 0 0 0 46.84 46.92h.07z" fill="#808080"/><path d="m58.92 8.18h-9a42 42 0 1 0 42 42c.02-23.18-9.83-41.98-33-42zm28.08 31.29-21.77 5.13a15.59 15.59 0 0 0 -2.48-4.1l15.55-16a38.21 38.21 0 0 1 8.69 15zm-32.83 26.87a16.61 16.61 0 0 0 4.29-1.72l13.54 17.38a38 38 0 0 1 -15.89 6.22zm1.52-30.68 4.4-22a37.75 37.75 0 0 1 15 7.72l-15.56 16.14a17.69 17.69 0 0 0 -3.84-1.86zm0-22.8-4.39 21.94a17.5 17.5 0 0 0 -4.39.38l-7.79-20.92a37.84 37.84 0 0 1 16.58-1.4zm-21.13 39.39a14.68 14.68 0 0 0 1 4.39l-19.09 10.91a37.84 37.84 0 0 1 -4-16.53zm.29-4.67a.43.43 0 0 0 -.1.29l-7.92-.44a23.88 23.88 0 0 1 3-8.91l6.52 4.68a18.27 18.27 0 0 0 -1.49 4.38zm-2.44-12.58a24 24 0 0 1 7.59-5.92l2.84 7.59a14.82 14.82 0 0 0 -3.91 3zm-13.76 36.37 18.92-10.75a14.41 14.41 0 0 0 3.24 3.14l-10.09 19.34a38 38 0 0 1 -12.06-11.73zm24.35 16.53a38.4 38.4 0 0 1 -8.28-2.71l10-19.32a21.52 21.52 0 0 0 2.38.67 14.08 14.08 0 0 0 2.67.29l2 21.82a38 38 0 0 1 -8.77-.75zm32.57-8.61-13.57-17.43a17.49 17.49 0 0 0 2.48-3.44l21 7.38a38.07 38.07 0 0 1 -9.9 13.49zm12.3-21.15c-.23 1.15-.52 2.28-.85 3.38l-20.9-7.39c.09-.09.09-.09.09-.19a17.11 17.11 0 0 0 .19-5l21.6-5.19a37.86 37.86 0 0 1 -.14 14.39z" fill="#911b1b"/><circle cx="50.54" cy="50.63" fill="url(#a)" r="7.44"/><path d="m59.7 4.48a47 47 0 1 1 -55.31 36.9v-.09a47 47 0 0 1 55.31-36.81zm-17.36 86.7a41.39 41.39 0 1 0 -32.42-48.75 41.33 41.33 0 0 0 32.26 48.74h.16z" fill="#e4cdcd"/></svg>