<svg fill="none" height="21" viewBox="0 0 103 21" width="103" xmlns="http://www.w3.org/2000/svg" xmlns:xlink="http://www.w3.org/1999/xlink"><linearGradient id="a" gradientUnits="userSpaceOnUse" x1="50.7232" x2="53.0252" y1="-1.4196" y2="56.1304"><stop offset=".3" stop-color="#e3cfcc"/><stop offset=".94" stop-color="#b07e6e"/></linearGradient><linearGradient id="b"><stop offset="0" stop-color="#dabdb9"/><stop offset=".53" stop-color="#d8bbb7"/><stop offset=".72" stop-color="#d1b5b1"/><stop offset=".85" stop-color="#c6aba7"/><stop offset=".88" stop-color="#c2a8a4"/><stop offset=".89" stop-color="#b79d98"/><stop offset=".91" stop-color="#9e847d"/></linearGradient><radialGradient id="c" cx="0" cy="0" gradientTransform="matrix(-4.17050488 .17559804 -.17559804 -4.17050488 92.165 13.4974)" gradientUnits="userSpaceOnUse" r="1" xlink:href="#b"/><radialGradient id="d" cx="0" cy="0" gradientTransform="matrix(-96.4048 0 0 -96.4048 6493.19 -8149.58)" gradientUnits="userSpaceOnUse" r="1" xlink:href="#b"/><path clip-rule="evenodd" d="m88.12 5.72 2.57-2.67 7.25-.19 2.48 1.33 1.62 2.1.19 7.06-1.72 2.57-2.19 1.63-7.72.19-2.2-1.72-3.43-1.05-59.98-1.15-6.11 6.2-13.63.48-4.769997-3.15-.480003-12.49 4.67001-4.29 14.01999-.57 5.72 6.29 60.66 1.15z" fill="url(#a)" fill-rule="evenodd"/><path d="m94.6 6.1c-2.3196 0-4.2 1.8804-4.2 4.2s1.8804 4.2 4.2 4.2 4.2-1.8804 4.2-4.2-1.8804-4.2-4.2-4.2z" fill="url(#c)"/><path d="m11.73 3.53c-3.73896 0-6.76999 3.03103-6.76999 6.77 0 3.739 3.03103 6.77 6.76999 6.77 3.739 0 6.77-3.031 6.77-6.77 0-3.73897-3.031-6.77-6.77-6.77z" fill="url(#d)"/></svg>