<svg width="125" height="67" viewBox="0 0 125 67" fill="none" xmlns="http://www.w3.org/2000/svg">
<path d="M62.499 60.3412C29.6812 60.3412 7.73425 49.5219 7.73425 33.5C7.73425 17.4781 29.6812 6.65878 62.499 6.65878C95.3169 6.65878 117.266 17.4781 117.266 33.5C117.266 49.5219 95.3169 60.3412 62.499 60.3412ZM62.499 6.03279C29.2652 6.03279 7.10731 17.062 7.10731 33.4981C7.10731 49.9361 29.2652 60.9634 62.499 60.9634C95.7349 60.9634 117.891 49.9361 117.891 33.4981C117.893 17.062 95.7349 6.03279 62.499 6.03279ZM62.499 63.8777C27.1734 63.8777 3.55269 51.6003 3.55269 33.4981C3.55269 15.1879 27.1715 3.12041 62.499 3.12041C98.0337 3.12041 121.445 15.1879 121.445 33.4981C121.445 51.6022 98.0337 63.8777 62.499 63.8777ZM62.499 0C24.8746 0 0 13.5237 0 33.5C0 53.2664 24.8746 67 62.499 67C100.334 67 125 53.2683 125 33.5C125 13.5237 100.334 0 62.499 0ZM89.4635 22.4707H95.7349V31.0018L101.797 22.4707H108.694L100.75 32.874L108.903 43.4853H101.377L95.7329 34.9543V43.4853H89.4616V22.4707H89.4635ZM64.5908 22.4707H70.8602L74.4149 34.9562L77.9676 22.4707H84.237L87.1628 43.4872H81.3113L79.8484 32.2499L76.5047 43.4872H72.3231L68.9775 32.2499L67.5146 43.4872H61.6631L64.5908 22.4707ZM59.3643 22.4707V43.4872H53.3038V27.4653H49.3313V33.4981C49.3313 36.2044 49.1223 39.5328 47.4504 41.405C45.7786 43.4853 42.6438 44.1094 39.0892 43.4853V38.2846C42.4329 38.9087 43.2708 37.6605 43.2708 33.4981V22.4707H59.3643ZM17.7673 22.4707H24.0368V30.1697H30.7261V22.4707H36.9975V43.4872H30.7261V35.1642H24.0368V43.4872H17.7673V22.4707Z" fill="white"/>
</svg>
