<svg width="149" height="66" viewBox="0 0 149 66" fill="none" xmlns="http://www.w3.org/2000/svg">
<path d="M74.4412 15.5908C74.7006 15.8668 74.8348 16.2062 74.8438 16.6089C74.8438 16.9618 74.7252 17.2853 74.4881 17.5794C74.3494 17.7514 74.175 17.8871 73.9647 17.9866C73.7589 18.0862 73.5442 18.136 73.3205 18.136H71.8307V19.9685H71.2872V15.0818H73.3205C73.486 15.0818 73.656 15.1112 73.8305 15.17C74.0721 15.2514 74.2756 15.3917 74.4412 15.5908ZM74.0587 17.2401C74.2108 17.0455 74.2846 16.8351 74.2801 16.6089C74.2712 16.3283 74.1772 16.0976 73.9983 15.9166C73.8104 15.713 73.5844 15.6112 73.3205 15.6112H71.8307V17.6066H73.3205C73.6202 17.6066 73.8663 17.4844 74.0587 17.2401Z" fill="white"/>
<path d="M78.0464 19.473C77.7378 19.8712 77.2993 20.0703 76.7312 20.0703C76.163 20.0703 75.7223 19.8712 75.4092 19.473C75.1363 19.1246 74.9998 18.6767 74.9998 18.1292C74.9998 17.5862 75.1363 17.1428 75.4092 16.7989C75.7268 16.4007 76.1675 16.2016 76.7312 16.2016C77.2993 16.2016 77.7378 16.4007 78.0464 16.7989C78.3238 17.1383 78.4625 17.5817 78.4625 18.1292C78.4625 18.6721 78.3238 19.1201 78.0464 19.473ZM77.617 19.1337C77.7959 18.8939 77.8854 18.559 77.8854 18.1292C77.8854 17.7039 77.7959 17.3713 77.617 17.1315C77.4156 16.86 77.1204 16.7242 76.7312 16.7242C76.3419 16.7242 76.0489 16.86 75.8521 17.1315C75.6686 17.3713 75.5769 17.7039 75.5769 18.1292C75.5769 18.559 75.6686 18.8939 75.8521 19.1337C76.0489 19.4097 76.3419 19.5477 76.7312 19.5477C77.1159 19.5477 77.4112 19.4097 77.617 19.1337Z" fill="white"/>
<path d="M81.9201 17.1179L81.4101 17.3419C81.3922 17.3012 81.352 17.2333 81.2893 17.1383C81.088 16.8623 80.7928 16.7242 80.4035 16.7242C80.0143 16.7242 79.7235 16.8623 79.5312 17.1383C79.3567 17.369 79.265 17.7016 79.256 18.136C79.265 18.5703 79.3567 18.9029 79.5312 19.1337C79.728 19.4052 80.0188 19.5409 80.4035 19.5409C80.7928 19.5409 81.088 19.4052 81.2893 19.1337C81.3341 19.0658 81.3721 19.0002 81.4034 18.9368L81.9201 19.1676C81.8396 19.3034 81.7747 19.4029 81.7255 19.4662C81.4079 19.8689 80.9672 20.0703 80.4035 20.0703C79.8399 20.0703 79.4014 19.8689 79.0883 19.4662C78.8243 19.1314 78.6879 18.688 78.6789 18.136C78.6879 17.5839 78.8243 17.1383 79.0883 16.7989C79.4059 16.4007 79.8443 16.2016 80.4035 16.2016C80.9628 16.2016 81.4034 16.4007 81.7255 16.7989C81.8105 16.9165 81.8754 17.0229 81.9201 17.1179Z" fill="white"/>
<path d="M85.3413 17.1179L84.8313 17.3419C84.8134 17.3012 84.7731 17.2333 84.7105 17.1383C84.5092 16.8623 84.2139 16.7242 83.8247 16.7242C83.4355 16.7242 83.1447 16.8623 82.9523 17.1383C82.7778 17.369 82.6861 17.7016 82.6772 18.136C82.6861 18.5703 82.7778 18.9029 82.9523 19.1337C83.1492 19.4052 83.44 19.5409 83.8247 19.5409C84.2139 19.5409 84.5092 19.4052 84.7105 19.1337C84.7552 19.0658 84.7933 19.0002 84.8246 18.9368L85.3413 19.1676C85.2608 19.3034 85.1959 19.4029 85.1467 19.4662C84.8291 19.8689 84.3884 20.0703 83.8247 20.0703C83.261 20.0703 82.8226 19.8689 82.5094 19.4662C82.2455 19.1314 82.109 18.688 82.1001 18.136C82.109 17.5839 82.2455 17.1383 82.5094 16.7989C82.8271 16.4007 83.2655 16.2016 83.8247 16.2016C84.3839 16.2016 84.8246 16.4007 85.1467 16.7989C85.2317 16.9165 85.2966 17.0229 85.3413 17.1179Z" fill="white"/>
<path d="M88.6954 16.3034V19.9685H88.1451V17.2061L86.2124 19.9685H85.7226V16.3034H86.2728V19.0387L88.2055 16.3034H88.6954Z" fill="white"/>
<path d="M91.2999 14.9935H91.7428C91.7428 15.2424 91.6556 15.4551 91.4811 15.6315C91.3111 15.808 91.1031 15.8962 90.857 15.8962C90.6065 15.8962 90.394 15.808 90.2195 15.6315C90.0495 15.4551 89.9645 15.2424 89.9645 14.9935H90.4074C90.4074 15.1202 90.4499 15.2266 90.5349 15.3125C90.6244 15.3985 90.7317 15.4415 90.857 15.4415C90.9823 15.4415 91.0874 15.3985 91.1724 15.3125C91.2574 15.2266 91.2999 15.1202 91.2999 14.9935ZM92.2864 16.3034V19.9685H91.7361V17.2061L89.8034 19.9685H89.3136V16.3034H89.8638V19.0387L91.7965 16.3034H92.2864Z" fill="white"/>
<path d="M95.9445 17.1179L95.4345 17.3419C95.4166 17.3012 95.3763 17.2333 95.3137 17.1383C95.1124 16.8623 94.8171 16.7242 94.4279 16.7242C94.0387 16.7242 93.7479 16.8623 93.5555 17.1383C93.381 17.369 93.2893 17.7016 93.2804 18.136C93.2893 18.5703 93.381 18.9029 93.5555 19.1337C93.7524 19.4052 94.0432 19.5409 94.4279 19.5409C94.8171 19.5409 95.1124 19.4052 95.3137 19.1337C95.3584 19.0658 95.3965 19.0002 95.4278 18.9368L95.9445 19.1676C95.864 19.3034 95.7991 19.4029 95.7499 19.4662C95.4323 19.8689 94.9916 20.0703 94.4279 20.0703C93.8642 20.0703 93.4258 19.8689 93.1126 19.4662C92.8487 19.1314 92.7122 18.688 92.7033 18.136C92.7122 17.5839 92.8487 17.1383 93.1126 16.7989C93.4303 16.4007 93.8687 16.2016 94.4279 16.2016C94.9871 16.2016 95.4278 16.4007 95.7499 16.7989C95.8349 16.9165 95.8998 17.0229 95.9445 17.1179Z" fill="white"/>
<path d="M99.2717 16.3034L98.1443 18.136L99.3321 19.9685L98.7147 19.9617L97.6813 18.3667H96.876V19.9685H96.3257V16.3034H96.876V17.9052H97.6746L98.6543 16.3034H99.2717Z" fill="white"/>
<path d="M102.455 16.3034V19.9685H101.905V17.2061L99.9725 19.9685H99.4827V16.3034H100.033V19.0387L101.966 16.3034H102.455Z" fill="white"/>
<path d="M103.463 18.2853C103.476 18.6382 103.564 18.921 103.725 19.1337C103.921 19.4097 104.215 19.5477 104.604 19.5477C104.984 19.5477 105.277 19.4097 105.483 19.1337C105.523 19.0749 105.561 19.0092 105.597 18.9368L106.134 19.1744C106.071 19.292 106.004 19.3938 105.932 19.4798C105.776 19.6744 105.579 19.8237 105.342 19.9278C105.109 20.0318 104.863 20.0793 104.604 20.0703C104.031 20.0567 103.59 19.8576 103.282 19.473C103.009 19.1246 102.872 18.6789 102.872 18.136C102.881 17.5839 103.018 17.1383 103.282 16.7989C103.604 16.4007 104.044 16.2016 104.604 16.2016C105.167 16.2016 105.606 16.4007 105.919 16.7989C106.192 17.1473 106.328 17.593 106.328 18.136C106.328 18.2038 106.326 18.2536 106.322 18.2853H103.463ZM104.604 16.7242C104.215 16.7242 103.921 16.8623 103.725 17.1383C103.59 17.3238 103.508 17.5523 103.476 17.8238H105.731C105.7 17.5523 105.617 17.3238 105.483 17.1383C105.277 16.8623 104.984 16.7242 104.604 16.7242Z" fill="white"/>
<path d="M74.4479 22.8191H74.9445L74.9512 26.4841H74.4009V24.0408L73.2735 26.0226H72.8977L71.777 24.0408V26.4841H71.2201V22.8191H71.7234L73.0856 25.2081L74.4479 22.8191Z" fill="white"/>
<path d="M76.4921 22.8191H78.3778V26.4841H77.8275V25.1335H76.633L75.9888 26.4841H75.3647L76.0626 25.0453C75.9239 24.991 75.8009 24.9095 75.6935 24.8009C75.4743 24.5792 75.3647 24.3032 75.3647 23.9729C75.3647 23.6426 75.4743 23.3711 75.6935 23.1584C75.9083 22.9322 76.1745 22.8191 76.4921 22.8191ZM77.8275 24.5973V23.3417H76.5122C76.3556 23.3462 76.217 23.4141 76.0962 23.5453C75.9843 23.6675 75.9284 23.81 75.9284 23.9729C75.9284 24.1358 75.9843 24.2783 76.0962 24.4005C76.2125 24.5317 76.3512 24.5973 76.5122 24.5973H77.8275Z" fill="white"/>
<path d="M82.0334 23.6335L81.5234 23.8575C81.5055 23.8168 81.4652 23.7489 81.4026 23.6539C81.2013 23.3779 80.906 23.2399 80.5168 23.2399C80.1276 23.2399 79.8368 23.3779 79.6444 23.6539C79.4699 23.8847 79.3782 24.2172 79.3693 24.6516C79.3782 25.086 79.4699 25.4185 79.6444 25.6493C79.8413 25.9208 80.132 26.0565 80.5168 26.0565C80.906 26.0565 81.2013 25.9208 81.4026 25.6493C81.4473 25.5814 81.4854 25.5158 81.5167 25.4525L82.0334 25.6832C81.9529 25.819 81.888 25.9185 81.8388 25.9819C81.5211 26.3846 81.0805 26.5859 80.5168 26.5859C79.9531 26.5859 79.5147 26.3846 79.2015 25.9819C78.9376 25.647 78.8011 25.2036 78.7922 24.6516C78.8011 24.0996 78.9376 23.6539 79.2015 23.3145C79.5191 22.9164 79.9576 22.7173 80.5168 22.7173C81.076 22.7173 81.5167 22.9164 81.8388 23.3145C81.9238 23.4322 81.9886 23.5385 82.0334 23.6335Z" fill="white"/>
<path d="M85.1593 25.9887C84.8506 26.3868 84.4122 26.5859 83.844 26.5859C83.2758 26.5859 82.8352 26.3868 82.522 25.9887C82.2491 25.6403 82.1127 25.1923 82.1127 24.6448C82.1127 24.1018 82.2491 23.6584 82.522 23.3145C82.8396 22.9164 83.2803 22.7173 83.844 22.7173C84.4122 22.7173 84.8506 22.9164 85.1593 23.3145C85.4366 23.6539 85.5753 24.0973 85.5753 24.6448C85.5753 25.1878 85.4366 25.6357 85.1593 25.9887ZM84.7298 25.6493C84.9087 25.4095 84.9982 25.0747 84.9982 24.6448C84.9982 24.2195 84.9087 23.8869 84.7298 23.6471C84.5285 23.3756 84.2332 23.2399 83.844 23.2399C83.4548 23.2399 83.1617 23.3756 82.9649 23.6471C82.7815 23.8869 82.6898 24.2195 82.6898 24.6448C82.6898 25.0747 82.7815 25.4095 82.9649 25.6493C83.1617 25.9253 83.4548 26.0633 83.844 26.0633C84.2287 26.0633 84.524 25.9253 84.7298 25.6493Z" fill="white"/>
<path d="M89.0598 22.8191V26.4841H88.5163V23.3688H86.5366V26.4841H85.9931V22.8191H89.0598Z" fill="white"/>
<path d="M92.6513 23.3077C92.9152 23.6471 93.0472 24.0928 93.0472 24.6448C93.0472 25.2059 92.9152 25.6561 92.6513 25.9954C92.3426 26.3891 91.9243 26.5859 91.3964 26.5859C90.9132 26.5859 90.524 26.423 90.2287 26.0973V28.113H89.6785V22.8191H90.1683V23.2806C90.3115 23.1041 90.4927 22.9661 90.7119 22.8666C90.9311 22.767 91.1615 22.7173 91.4031 22.7173C91.931 22.7173 92.347 22.9141 92.6513 23.3077ZM92.2084 25.6493C92.3828 25.4185 92.4701 25.0837 92.4701 24.6448C92.4701 24.2195 92.3828 23.8847 92.2084 23.6403C92.0115 23.3643 91.714 23.2263 91.3159 23.2263C90.9401 23.2263 90.6537 23.3553 90.4569 23.6132C90.2645 23.8575 90.1683 24.2014 90.1683 24.6448C90.1683 25.0928 90.2645 25.4389 90.4569 25.6832C90.6627 25.9457 90.9535 26.0769 91.3293 26.0769C91.714 26.0769 92.007 25.9344 92.2084 25.6493Z" fill="white"/>
<path d="M96.3098 25.9887C96.0011 26.3868 95.5627 26.5859 94.9945 26.5859C94.4264 26.5859 93.9857 26.3868 93.6725 25.9887C93.3996 25.6403 93.2632 25.1923 93.2632 24.6448C93.2632 24.1018 93.3996 23.6584 93.6725 23.3145C93.9902 22.9164 94.4308 22.7173 94.9945 22.7173C95.5627 22.7173 96.0011 22.9164 96.3098 23.3145C96.5872 23.6539 96.7259 24.0973 96.7259 24.6448C96.7259 25.1878 96.5872 25.6357 96.3098 25.9887ZM95.8803 25.6493C96.0593 25.4095 96.1488 25.0747 96.1488 24.6448C96.1488 24.2195 96.0593 23.8869 95.8803 23.6471C95.679 23.3756 95.3837 23.2399 94.9945 23.2399C94.6053 23.2399 94.3123 23.3756 94.1154 23.6471C93.932 23.8869 93.8403 24.2195 93.8403 24.6448C93.8403 25.0747 93.932 25.4095 94.1154 25.6493C94.3123 25.9253 94.6053 26.0633 94.9945 26.0633C95.3793 26.0633 95.6745 25.9253 95.8803 25.6493Z" fill="white"/>
<path d="M100.197 22.8191V25.9547H100.519V26.9796H100.002V26.4841H97.3315V26.9796H96.8081V25.9547C97.2107 25.9547 97.459 25.552 97.553 24.7466L97.7744 22.8191H100.197ZM99.6802 25.9547V23.3213H98.2307L98.0562 24.8077C97.9936 25.3552 97.8661 25.7375 97.6737 25.9547H99.6802Z" fill="white"/>
<path d="M103.66 22.8259H104.21L102.559 27.1764C102.421 27.552 102.255 27.8076 102.063 27.9434C101.915 28.0565 101.694 28.113 101.399 28.113L101.311 28.1062V27.5768L101.425 27.5904C101.591 27.5995 101.714 27.5723 101.794 27.509C101.862 27.4637 101.924 27.38 101.982 27.2579C102.045 27.1357 102.137 26.9117 102.258 26.5859L100.707 22.8191H101.271L102.513 25.8801L103.66 22.8259Z" fill="white"/>
<path d="M107.372 22.8191L106.245 24.6516L107.433 26.4841L106.815 26.4773L105.782 24.8824H104.977V26.4841H104.426V22.8191H104.977V24.4208H105.775L106.755 22.8191H107.372Z" fill="white"/>
<path d="M110.375 22.8191V23.3213H109.1V26.4841H108.556V23.3213H107.281V22.8191H110.375Z" fill="white"/>
<path d="M110.69 22.8191H111.247V24.1697H112.233C112.537 24.1697 112.804 24.2806 113.032 24.5023C113.247 24.7285 113.354 25.0045 113.354 25.3303C113.354 25.6561 113.247 25.9276 113.032 26.1448C112.808 26.371 112.542 26.4841 112.233 26.4841H110.697L110.69 22.8191ZM113.783 22.8191H114.327V26.4841H113.783V22.8191ZM111.247 24.7059V25.9615H112.213C112.374 25.9525 112.511 25.8846 112.622 25.7579C112.739 25.6403 112.797 25.4977 112.797 25.3303C112.797 25.1674 112.741 25.0249 112.629 24.9027C112.513 24.7715 112.374 24.7059 112.213 24.7059H111.247Z" fill="white"/>
<path d="M28.6041 36.1927H33.9073V42.5551L32.1408 47.0312H17.41V24.1715C17.41 19.3847 18.7611 14.6653 21.4483 10.7057C23.5104 7.66297 26.643 4.63147 31.3137 2.37095C42.6425 -3.11193 51.9353 1.89939 57.7102 7.43841C59.035 8.70715 60.315 10.4849 61.3779 12.6107C66.8196 23.4716 63.1369 36.6905 53.0918 43.5244C51.7033 44.4675 50.2699 45.4107 49.106 46.0918V33.8087C49.106 33.8087 55.2326 28.5279 53.2565 20.6198C51.2804 12.7117 40.6477 9.10012 34.6708 13.6586C27.6909 18.9805 28.6041 26.8549 28.6041 36.1927Z" fill="white"/>
<path d="M31.1156 29.3175V22.7942L32.8933 18.6437H46.535V42.9368C46.535 45.2722 46.0036 47.63 45.4048 49.8868C43.9676 55.2873 38.2415 63.5734 29.1358 65.1116C11.8862 68.0271 1.65021 57.4393 0.269195 47.0387C-1.11182 36.638 2.64199 26.155 15.6924 19.6317V32.087C15.6924 32.087 8.77235 35.6462 11.1451 45.1374C13.5179 54.6286 23.1439 55.6279 28.4172 53.2214C33.4846 50.9085 35.1127 47.2932 35.3073 45.3133C35.5056 43.3373 35.3073 29.4972 35.3073 29.4972L31.1156 29.3175Z" fill="white"/>
<path d="M71.6481 49.883H77.7785V37.8207H84.5001C84.5001 37.8207 89.6425 38.1725 89.6425 42.0498C89.6425 45.9271 85.2936 45.7288 83.7105 45.7288C82.1273 45.7288 79.3616 45.7288 79.3616 45.7288V47.9032H88.8528C88.8528 47.9032 94.7848 46.6719 94.9831 42.0498C95.1815 37.424 91.0272 36.043 84.3055 36.043C77.5838 36.043 71.6518 36.043 71.6518 36.043V49.883H71.6481Z" fill="white"/>
<path d="M96.7606 47.0349H102.098V38.6104H103.497L110.009 43.5656L116.342 38.6104H117.715V47.5102H123.131V36.043H116.709L109.946 41.2714L103.314 36.043H96.7606V47.0349Z" fill="white"/>
<path d="M125.332 47.5102H131.294V37.9704H142.944V47.5102H149V36.043H125.332V47.5102Z" fill="white"/>
</svg>
