<svg width="172" height="66" viewBox="0 0 172 66" fill="none" xmlns="http://www.w3.org/2000/svg">
<path fill-rule="evenodd" clip-rule="evenodd" d="M0 32.9484H3.92479V41.1417C3.92479 42.7747 4.09667 43.7487 4.44045 44.0065C4.78423 44.2644 5.9588 44.3789 7.93552 44.3789C9.91223 44.3789 11.0582 44.2357 11.4019 44.0065C11.7457 43.72 11.9462 42.7747 11.9462 41.1417V32.9484H15.8424V43.1757C15.8424 45.4962 15.2981 46.9859 14.2381 47.6162C13.1781 48.2464 11.0868 48.5329 7.90687 48.5329C4.72693 48.5329 2.63562 48.2178 1.57564 47.6162C0.515665 46.9859 0 45.5249 0 43.1471V32.9484Z" fill="white"/>
<path fill-rule="evenodd" clip-rule="evenodd" d="M27.6739 32.8051C31.4554 32.8051 33.7186 33.0915 34.4348 33.6072C35.151 34.1229 35.5235 35.8417 35.5235 38.6779H31.5987C31.5987 37.8185 31.4554 37.2742 31.1976 37.0736C30.9111 36.8731 30.2236 36.7871 29.1063 36.7871H27.6739C25.6685 36.7871 24.5226 36.9304 24.2075 37.2169C23.8923 37.5033 23.7491 38.6493 23.7491 40.6833C23.7491 42.6886 23.8923 43.8632 24.2075 44.1497C24.5226 44.4362 25.6685 44.5794 27.6739 44.5794H29.0203C30.1949 44.5794 30.9398 44.4935 31.1976 44.2929C31.4841 44.0924 31.6273 43.5767 31.6273 42.6886H35.5521C35.5521 45.5248 35.1797 47.2437 34.4635 47.788C33.7473 48.3037 31.4841 48.5901 27.7025 48.5901C23.921 48.5901 21.6864 48.2464 20.9416 47.5302C20.2254 46.814 19.853 44.5508 19.853 40.7119C19.853 36.8731 20.2254 34.6099 20.9416 33.8937C21.6291 33.1488 23.8923 32.8051 27.6739 32.8051Z" fill="white"/>
<path fill-rule="evenodd" clip-rule="evenodd" d="M39.9639 32.9484H43.8887V44.4362H52.4544V48.3897H39.9639V32.9484Z" fill="white"/>
<path fill-rule="evenodd" clip-rule="evenodd" d="M61.5647 41.1704V48.3897H59.989V32.9484H61.5647V39.4228H72.9093V32.9484H74.4849V48.3897H72.9093V41.1704H61.5647Z" fill="white"/>
<path fill-rule="evenodd" clip-rule="evenodd" d="M97.7185 32.9484H99.2941V46.413H109.063V48.3897H97.7185V32.9484Z" fill="white"/>
<path fill-rule="evenodd" clip-rule="evenodd" d="M112.902 32.9484H123.931C125.45 32.9484 126.567 33.464 127.283 34.4954C128 35.5267 128.372 37.5607 128.372 40.6547C128.372 43.72 128 45.754 127.283 46.814C126.567 47.8454 125.45 48.361 123.931 48.361H112.902V32.9484ZM114.478 46.6421H123.387C124.877 46.6421 125.822 46.2124 126.195 45.3243C126.596 44.4362 126.796 42.8892 126.796 40.6547C126.796 38.4488 126.596 36.9018 126.195 36.0137C125.794 35.1256 124.877 34.6672 123.387 34.6672H114.478V46.6421Z" fill="white"/>
<path d="M133.987 32.9484H132.411V48.3897H133.987V32.9484Z" fill="white"/>
<path fill-rule="evenodd" clip-rule="evenodd" d="M151.52 46.6708H151.921V32.9484H153.468V48.3897H150.717L139.745 34.6959H139.373V48.3897H137.797V32.9484H140.547L151.52 46.6708Z" fill="white"/>
<path fill-rule="evenodd" clip-rule="evenodd" d="M164.326 42.4024V40.6548H171.917V42.4024C171.917 44.3791 171.831 45.7255 171.631 46.4417C171.459 47.1293 170.857 47.6736 169.855 48.0174C168.852 48.3612 167.105 48.533 164.612 48.533C161.06 48.533 158.968 48.132 158.31 47.3298C157.651 46.5277 157.307 44.2931 157.307 40.6548C157.307 37.0452 157.651 34.8106 158.31 34.0085C158.997 33.2063 161.088 32.7766 164.612 32.7766C167.105 32.7766 168.852 32.9485 169.855 33.2636C170.857 33.5788 171.459 34.0371 171.631 34.6674C171.831 35.2976 171.917 36.4149 171.917 38.0192H170.342C170.342 36.4149 170.055 35.4409 169.511 35.0685C168.967 34.696 167.334 34.4955 164.612 34.4955C161.747 34.4955 160.057 34.7533 159.599 35.2976C159.112 35.8133 158.883 37.5895 158.883 40.5975C158.883 43.6056 159.112 45.3818 159.57 45.9261C160.057 46.4417 161.719 46.7282 164.612 46.7282C167.448 46.7282 169.139 46.5277 169.626 46.1266C170.113 45.6969 170.37 44.4364 170.37 42.3451H164.326" fill="white"/>
<path fill-rule="evenodd" clip-rule="evenodd" d="M2.8648 65.2059C4.23991 65.2059 4.87017 64.1173 4.87017 62.6849V59.6195H4.21126V62.6849C4.21126 63.6302 3.89613 64.6616 2.8648 64.6616C1.83347 64.6616 1.51834 63.6302 1.51834 62.6849V59.6195H0.859436V62.6849C0.859436 64.1173 1.48969 65.2059 2.8648 65.2059Z" fill="white"/>
<path fill-rule="evenodd" clip-rule="evenodd" d="M9.91218 59.6197V63.4299L6.41711 59.5051V65.0915H7.07602V61.1667L10.5711 65.2061V59.6197H9.91218Z" fill="white"/>
<path d="M12.9204 59.6195H12.2615V65.0913H12.9204V59.6195Z" fill="white"/>
<path fill-rule="evenodd" clip-rule="evenodd" d="M17.561 59.6195L16.1572 63.6016L14.7248 59.6195H14.0086L16.1572 65.2059L18.2772 59.6195H17.561Z" fill="white"/>
<path fill-rule="evenodd" clip-rule="evenodd" d="M19.3371 65.0913H22.3165V64.4897H19.996V62.5989H22.3165V61.9973H19.996V60.1925H22.3165V59.6195H19.3371V65.0913Z" fill="white"/>
<path fill-rule="evenodd" clip-rule="evenodd" d="M25.2677 62.7997C25.3823 62.7997 25.4682 62.7997 25.5542 62.7997L26.9579 65.0628H27.6455L26.1558 62.6851C26.9293 62.4845 27.3304 61.8829 27.3304 61.224C27.3304 59.9921 26.3563 59.5911 25.2104 59.5911H23.6348V65.0628H24.2937V62.7997H25.2677ZM26.7001 61.2527C26.7001 62.0262 26.1844 62.2553 25.4969 62.2553H24.351V60.1927H25.4969C26.1844 60.1927 26.7001 60.4505 26.7001 61.2527Z" fill="white"/>
<path fill-rule="evenodd" clip-rule="evenodd" d="M30.0804 65.2059C31.0258 65.2059 31.742 64.6616 31.742 63.6016C31.742 62.7994 31.0831 62.3411 30.3669 61.9687C29.9085 61.7108 29.4501 61.4816 29.4501 60.88C29.4501 60.2211 29.9944 60.0206 30.5388 60.0206C30.7679 60.0206 30.9971 60.0779 31.255 60.1638L31.1977 59.7341C30.8539 59.5909 30.5101 59.5336 30.2236 59.5336C29.3069 59.5336 28.6766 60.0206 28.6766 60.966C28.6766 61.9114 29.1637 62.2551 29.9371 62.6562C30.4242 62.8854 31.0258 63.2292 31.0258 63.7735C31.0258 64.4037 30.4242 64.6043 29.9371 64.6043C29.5361 64.6043 29.135 64.461 28.7053 64.2605L28.7912 64.9194C29.2496 65.0913 29.6793 65.2059 30.0804 65.2059Z" fill="white"/>
<path fill-rule="evenodd" clip-rule="evenodd" d="M36.2969 64.1461L36.6694 65.0915H37.3283L34.9218 59.4764L32.5154 65.0915H33.1743L33.5467 64.1461H36.2969ZM33.8045 63.6591L34.9505 60.9088L36.0964 63.6591H33.8045Z" fill="white"/>
<path fill-rule="evenodd" clip-rule="evenodd" d="M38.3597 65.0913H41.3678V64.4897H39.0186V59.6195H38.3597V65.0913Z" fill="white"/>
<path fill-rule="evenodd" clip-rule="evenodd" d="M48.8449 60.3932L48.9022 59.7629C48.4725 59.5624 48.0428 59.4764 47.613 59.4764C46.0374 59.4764 44.9774 60.7083 44.9774 62.3126C44.9774 63.9169 46.0374 65.1488 47.613 65.1488C48.0428 65.1488 48.4725 65.0628 48.8449 64.8909L48.9022 64.318C48.5584 64.4612 48.186 64.5472 47.8709 64.5472C46.5244 64.5472 45.6936 63.6304 45.6936 62.3126C45.6936 61.0521 46.4098 60.0781 47.7276 60.0781C48.1287 60.1067 48.5011 60.2213 48.8449 60.3932Z" fill="white"/>
<path fill-rule="evenodd" clip-rule="evenodd" d="M53.371 64.1461L53.7434 65.0915H54.4024L51.9959 59.4764L49.5895 65.0915H50.2484L50.6208 64.1461H53.371ZM50.8786 63.6591L52.0246 60.9088L53.1705 63.6591H50.8786Z" fill="white"/>
<path fill-rule="evenodd" clip-rule="evenodd" d="M57.0098 62.7997C57.1244 62.7997 57.1817 62.7997 57.3249 62.7997L58.7287 65.0628H59.4162L57.9265 62.6851C58.7 62.4845 59.1011 61.8829 59.1011 61.224C59.1011 59.9921 58.1271 59.5911 56.9812 59.5911H55.4055V65.0628H56.0644V62.7997H57.0098ZM58.4422 61.2527C58.4422 62.0262 57.9265 62.2553 57.239 62.2553H56.0931V60.1927H57.2103C57.9552 60.1927 58.4422 60.4505 58.4422 61.2527Z" fill="white"/>
<path fill-rule="evenodd" clip-rule="evenodd" d="M64.3437 62.914V64.3751C63.7994 64.6043 63.5702 64.6043 63.341 64.6043C62.0232 64.6043 61.1924 63.6589 61.1924 62.3697C61.1924 61.0233 62.0805 60.1352 63.3983 60.1352C63.7994 60.1352 64.2864 60.2498 64.6875 60.4217L64.7448 59.8201C64.2864 59.6195 63.7708 59.5336 63.3124 59.5336C61.6795 59.5336 60.5049 60.6795 60.5049 62.3984C60.5049 64.06 61.5935 65.2345 63.1978 65.2345C63.8281 65.2345 64.401 65.0626 65.0026 64.7475V62.3984H63.5702V62.9427H64.3437" fill="white"/>
<path fill-rule="evenodd" clip-rule="evenodd" d="M68.9273 65.2059C70.503 65.2059 71.5916 63.974 71.5916 62.3697C71.5916 60.7368 70.503 59.5336 68.9273 59.5336C67.3517 59.5336 66.2631 60.7654 66.2631 62.3697C66.2631 63.974 67.3517 65.2059 68.9273 65.2059ZM68.9273 60.1065C70.1878 60.1065 70.8754 61.1952 70.8754 62.3411C70.8754 63.487 70.1592 64.5756 68.9273 64.5756C67.6668 64.5756 66.9793 63.487 66.9793 62.3411C66.9506 61.1952 67.6668 60.1065 68.9273 60.1065Z" fill="white"/>
<path fill-rule="evenodd" clip-rule="evenodd" d="M78.123 65.0913H81.1311V64.4897H78.782V59.6195H78.123V65.0913Z" fill="white"/>
<path fill-rule="evenodd" clip-rule="evenodd" d="M84.8553 65.2059C86.431 65.2059 87.5196 63.974 87.5196 62.3697C87.5196 60.7368 86.4596 59.5336 84.8553 59.5336C83.2797 59.5336 82.191 60.7654 82.191 62.3697C82.2197 63.974 83.2797 65.2059 84.8553 65.2059ZM84.8553 60.1065C86.1158 60.1065 86.8034 61.1952 86.8034 62.3411C86.8034 63.487 86.0872 64.5756 84.8553 64.5756C83.5948 64.5756 82.9072 63.487 82.9072 62.3411C82.9072 61.1952 83.5948 60.1065 84.8553 60.1065Z" fill="white"/>
<path fill-rule="evenodd" clip-rule="evenodd" d="M92.6194 62.914V64.3751C92.075 64.6043 91.8459 64.6043 91.6167 64.6043C90.2989 64.6043 89.4681 63.6589 89.4681 62.3697C89.4681 61.0233 90.3562 60.1352 91.674 60.1352C92.075 60.1352 92.5334 60.2498 92.9631 60.4217L93.0204 59.8201C92.5621 59.6195 92.0464 59.5336 91.588 59.5336C89.9551 59.5336 88.7805 60.6795 88.7805 62.3984C88.7805 64.06 89.8691 65.2345 91.4734 65.2345C92.1037 65.2345 92.648 65.0626 93.2783 64.7475V62.3984H91.8172V62.9427H92.6194" fill="white"/>
<path d="M95.4267 59.6195H94.7678V65.0913H95.4267V59.6195Z" fill="white"/>
<path fill-rule="evenodd" clip-rule="evenodd" d="M98.2629 65.2059C99.2369 65.2059 99.9245 64.6616 99.9245 63.6016C99.9245 62.7994 99.2656 62.3411 98.5494 61.9687C98.091 61.7108 97.6326 61.4816 97.6326 60.88C97.6326 60.2211 98.1769 60.0206 98.7213 60.0206C98.9504 60.0206 99.1796 60.0779 99.4375 60.1638L99.3802 59.7341C99.0364 59.5909 98.7213 59.5336 98.4061 59.5336C97.4894 59.5336 96.8591 60.0206 96.8591 60.966C96.8591 61.9114 97.3462 62.2551 98.1197 62.6562C98.6067 62.8854 99.2083 63.2292 99.2083 63.7735C99.2083 64.4037 98.6067 64.6043 98.1197 64.6043C97.7186 64.6043 97.3175 64.461 96.8878 64.2605L96.9737 64.9194C97.4607 65.0913 97.8618 65.2059 98.2629 65.2059Z" fill="white"/>
<path fill-rule="evenodd" clip-rule="evenodd" d="M103.019 60.1925H104.508V59.6195H100.899V60.1925H102.36V65.0913H103.019V60.1925Z" fill="white"/>
<path d="M106.37 59.6195H105.711V65.0913H106.37V59.6195Z" fill="white"/>
<path fill-rule="evenodd" clip-rule="evenodd" d="M111.728 60.3932L111.785 59.7629C111.355 59.5624 110.897 59.4764 110.496 59.4764C108.92 59.4764 107.86 60.7083 107.86 62.3126C107.86 63.9169 108.92 65.1488 110.496 65.1488C110.925 65.1488 111.355 65.0628 111.728 64.8909L111.785 64.318C111.441 64.4612 111.069 64.5472 110.754 64.5472C109.407 64.5472 108.576 63.6304 108.576 62.3126C108.576 61.0521 109.293 60.0781 110.61 60.0781C111.011 60.1067 111.384 60.2213 111.728 60.3932Z" fill="white"/>
<path fill-rule="evenodd" clip-rule="evenodd" d="M114.306 65.2059C115.251 65.2059 115.967 64.6616 115.967 63.6016C115.967 62.7994 115.308 62.3411 114.592 61.9687C114.134 61.7108 113.675 61.4816 113.675 60.88C113.675 60.2211 114.22 60.0206 114.764 60.0206C114.993 60.0206 115.222 60.0779 115.48 60.1638L115.423 59.7341C115.079 59.5909 114.764 59.5336 114.449 59.5336C113.532 59.5336 112.902 60.0206 112.902 60.966C112.902 61.9114 113.389 62.2551 114.162 62.6562C114.65 62.8854 115.251 63.2292 115.251 63.7735C115.251 64.4037 114.65 64.6043 114.162 64.6043C113.761 64.6043 113.36 64.461 112.931 64.2605L113.017 64.9194C113.475 65.0913 113.876 65.2059 114.306 65.2059Z" fill="white"/>
<path fill-rule="evenodd" clip-rule="evenodd" d="M123.473 65.0913H124.103V59.6195H123.473V61.9114H120.608V59.6195H119.949V65.0913H120.608V62.5416H123.473V65.0913Z" fill="white"/>
<path fill-rule="evenodd" clip-rule="evenodd" d="M128.229 65.2059C129.804 65.2059 130.893 63.974 130.893 62.3697C130.893 60.7368 129.804 59.5336 128.229 59.5336C126.653 59.5336 125.564 60.7654 125.564 62.3697C125.564 63.974 126.653 65.2059 128.229 65.2059ZM128.229 60.1065C129.489 60.1065 130.177 61.1952 130.177 62.3411C130.177 63.487 129.461 64.5756 128.229 64.5756C126.968 64.5756 126.281 63.487 126.281 62.3411C126.281 61.1952 126.968 60.1065 128.229 60.1065Z" fill="white"/>
<path fill-rule="evenodd" clip-rule="evenodd" d="M132.354 65.0913H135.333V64.4897H133.013V59.6195H132.354V65.0913Z" fill="white"/>
<path fill-rule="evenodd" clip-rule="evenodd" d="M137.912 65.0915C139.659 65.0915 140.891 64.2607 140.891 62.3413C140.891 60.4505 139.688 59.5911 137.912 59.5911H136.622V65.0628H137.912V65.0915ZM138.055 60.1927C139.344 60.1927 140.203 60.9948 140.203 62.3413C140.203 63.6877 139.373 64.4899 138.055 64.4899H137.281V60.1927H138.055Z" fill="white"/>
<path d="M143.04 59.6195H142.381V65.0913H143.04V59.6195Z" fill="white"/>
<path fill-rule="evenodd" clip-rule="evenodd" d="M148.254 59.6197V63.4299L144.73 59.5051V65.0915H145.389V61.1667L148.913 65.2061V59.6197H148.254Z" fill="white"/>
<path fill-rule="evenodd" clip-rule="evenodd" d="M154.212 62.914V64.3751C153.668 64.6043 153.439 64.6043 153.21 64.6043C151.892 64.6043 151.061 63.6589 151.061 62.3697C151.061 61.0233 151.949 60.1352 153.267 60.1352C153.668 60.1352 154.126 60.2498 154.556 60.4217L154.613 59.8201C154.155 59.6195 153.639 59.5336 153.181 59.5336C151.548 59.5336 150.374 60.6795 150.374 62.3984C150.374 64.06 151.462 65.2345 153.066 65.2345C153.697 65.2345 154.241 65.0626 154.871 64.7475V62.3984H153.41V62.9427H154.212" fill="white"/>
<path fill-rule="evenodd" clip-rule="evenodd" d="M162.635 63.5731C162.635 62.9429 162.32 62.3986 161.718 62.198C162.12 61.9689 162.406 61.5105 162.406 60.9948C162.406 60.2786 161.919 59.5911 160.659 59.5911H158.882V65.0628H161.117C161.919 65.0915 162.635 64.5185 162.635 63.5731ZM160.687 60.1927C161.203 60.1927 161.747 60.3073 161.747 61.0521C161.747 61.7683 161.231 61.9402 160.83 61.9402H159.513V60.1927H160.687ZM160.916 62.5418C161.69 62.5418 161.948 62.9142 161.948 63.5159C161.948 64.2321 161.432 64.4899 160.83 64.4899H159.541V62.5418H160.916Z" fill="white"/>
<path fill-rule="evenodd" clip-rule="evenodd" d="M164.354 65.2059C164.583 65.2059 164.755 65.0053 164.755 64.7762C164.755 64.5183 164.583 64.3464 164.354 64.3464C164.125 64.3464 163.925 64.547 163.925 64.7762C163.953 65.0053 164.125 65.2059 164.354 65.2059Z" fill="white"/>
<path fill-rule="evenodd" clip-rule="evenodd" d="M169.281 59.6195L167.849 63.6016L166.417 59.6195H165.7L167.849 65.2059L169.998 59.6195H169.281Z" fill="white"/>
<path fill-rule="evenodd" clip-rule="evenodd" d="M171.344 65.2059C171.573 65.2059 171.774 65.0053 171.774 64.7762C171.774 64.5183 171.573 64.3464 171.344 64.3464C171.115 64.3464 170.915 64.547 170.915 64.7762C170.915 65.0053 171.115 65.2059 171.344 65.2059Z" fill="white"/>
<path fill-rule="evenodd" clip-rule="evenodd" d="M74.6856 5.67537C74.6856 5.67537 72.1359 7.62343 68.5836 13.439C66.1485 17.4497 63.4842 23.7809 63.4842 23.7809H65.2604C70.7035 11.5196 78.0661 3.24028 86.1162 3.24028C94.1663 3.24028 101.5 11.5196 106.915 23.7809H108.691C108.691 23.7809 106.055 17.4211 103.591 13.439C100.068 7.62343 97.4895 5.67537 97.4895 5.67537C97.4895 5.67537 104.566 8.2537 110.152 13.9833C115.939 19.9135 118.403 23.7809 118.403 23.7809H121.296C121.296 23.7809 116.598 16.8768 113.017 13.0952C109.55 9.48556 105.568 6.764 105.568 6.764C105.568 6.764 110.209 7.73803 119.491 13.4104C128.83 19.14 132.068 23.8096 132.068 23.8096H136.078C136.078 23.8096 130.062 16.6476 120.15 10.3737C102.073 -1.11422 86.0875 0.0316988 86.0875 0.0316988C86.0875 0.0316988 70.0732 -1.08557 51.9963 10.3737C42.1127 16.6762 36.068 23.8096 36.068 23.8096H40.0787C40.0787 23.8096 43.316 19.14 52.6552 13.4104C61.9372 7.73803 66.5782 6.764 66.5782 6.764C66.5782 6.764 62.5961 9.48556 59.1297 13.0952C55.5487 16.8768 50.8504 23.7809 50.8504 23.7809H53.7439C53.7439 23.7809 56.2076 19.9135 61.9658 13.9833C67.6095 8.2537 74.6856 5.67537 74.6856 5.67537Z" fill="white"/>
<path d="M77.321 40.7407C77.321 35.8992 81.2458 31.9744 86.0874 31.9744C90.9289 31.9744 94.8537 35.8992 94.8537 40.7407C94.8537 45.5822 90.9289 49.4783 86.0874 49.4783C81.2458 49.507 77.321 45.5822 77.321 40.7407Z" fill="white"/>
</svg>
