<svg height="220.56" viewBox="0 0 3000.04 220.56" width="3000.04" xmlns="http://www.w3.org/2000/svg"><g fill="#423a32" transform="translate(621.35 -877.69)"><path d="m206.37 986.09-.71-8.46h.05l10.56-14.16-12.45-6.14-11.33 20v4.88l-4.56 4.4-.47-2.83 2.2-6.13v-13.11l-3.46-5.54-4.88-10.54-2.67-13.37-3.46-9.75-5.19-5.79-4.25-2.83-8.5-4.25-2.83-3.3-.63-3.78 1.73-6.45h.79l.94-4.4h1.89l.32-2.84-4.57-4.24-4.89-2.83-9-1.11-10.7-1.25-1.41 2.67.47 2.2 1.26 1.1-.47 3 .15 2.68-5.82 1.93 2.21 1.37 3.77.16v2.62l1.42.79-1.58 2.2-1.41 2.05.47 1.41 1.89.47v2.21l1.26.63-.79.94 1.57 1.57v2.36l2.52.47s3-.31 3.46-.31a12 12 0 0 1 1.73.31l.47 2.05-.15 2-2.36.16-3.78 4.25-11.28 13.77-2.2 1.25-.63-1.25a45.76 45.76 0 0 0 .79-5.51c-.16-.47 1.89-1.57 1.89-1.57l2.83-4.41-2-2.83-1.25 1.42-2-2.68-1.33-4.09-2 1.1-2.05 3.94-1.73 3.77-.22 4.53-5.82 10.23 1.58 9.12 5.66 6.29 8 2.84 2.68-.48s7.08-6.76 7.55-6.6 2.36 3.46 2.36 3.46l-3 2.83.31 3.15-3.77.63-1.89 6.29 1.42 11 2.51 2-2 11.8 2.83 2.76 1.26 26.5 1.57 12.27 5.51 8.81-.63 37.44-2.68 4.57-8.33 1.57-4.25.79v4.71l2.67 1.58 19.51.78v2l5.92.79 14.53-2.52.94-4.72-.63-6 .63-7.86 2.21-3.15 2-23.28-.31-8.34.31-5 2.2-2.05.63-17h1.89l13.06 5.66 1.57-4.87-11-5.67 4-4.71 3.69-3.62-1.89-5.19 2.52-1.42-.63-3.46 1.1-2.68 3.14-4.09 7.24-2.51.79-4.25 1.17-1 .22 12.5.29 9.39 1.14 8.82 1.28 6-.29 12-.57 4-1.1 3.89-3.28 6.54-3.7 4-5.26 2.56-5.41.28-4.12-1.28-3.56-2.42-3.41-1-1.88-5.26v5.24l1.88 1.73 10.67 4h6s5.27-2.42 5.69-2.42 4-4.41 4-4.41l4.83-10.81.43-8.11.43-9.39-.86-3.13s.29-6.12.43-6.55.39-20.48.39-20.48z"/><path d="m1000.37 886.18-8-4.53h-13.57l-9.39 4.53-2.09 4.17 4.18 3.83 2.08 1.74v8l4.52 9-.69 3.83-20.52 11.82 1.39 2.09-1.39 11.48s-2.79 11.13-3.13 12.17-2.44 10.69-2.44 10.69.35 6.77 0 8.17v14.6l3.13 1.74-.35 9.4 3.83 8.69 1 15 3.83 13.22 5.91 7-.34 10.09 1.39 31.65-2.09 3.83-12.87 5.22.35 3.82h30.26l.69-51.48 2.09-2.78 2.09 4.87 1.39 49.39h20.18v-4.52l-7.66-7.65 1.39-38.61 6.27-8s-2.09-42.44-2.44-43.48.7-9.74.7-9.74l16.69-12.17s-2.08-10.09-2.43-11.48-4.18-16-4.18-16l-3.13-17.4s-.35-4.87-1.74-4.52-19.48-9.39-19.48-9.39l-1.39-7 1.74-7.65.35-6.61z"/><path d="m1123 886.18-8-4.53h-13.57l-9.39 4.53-2.09 4.17 4.17 3.83 2.09 1.74v8l4.52 9-.69 3.83-20.52 11.82 1.39 2.09-1.39 11.48s-2.79 11.13-3.13 12.17-2.39 10.69-2.39 10.69.35 6.77 0 8.17v14.6l3.13 1.74-.35 9.4 3.83 8.69 1 15 3.83 13.22 5.91 7-.35 10.09 1.4 31.65-2.09 3.83-12.87 5.22.35 3.82h30.26l.69-51.48 2.09-2.78 2.09 4.87 1.39 49.39h20.17v-4.52l-7.65-7.65 1.39-38.61 6.26-8s-2.08-42.44-2.43-43.48.69-9.74.69-9.74l16.7-12.17s-2.09-10.09-2.43-11.48-4.18-16-4.18-16l-3.13-17.4s-.35-4.87-1.74-4.52-19.48-9.39-19.48-9.39l-1.39-7 1.74-7.65.35-6.61z"/><path d="m27.66 903.24 3.93-3.45a45.05 45.05 0 0 1 19.63-10.08l8.38-1.94-.34 7.32 5.82 19.63 8.49 3.49 13.43 12.48 7 14.47v9l2.49 12-5.49 14-1 14-3 6.49-7 18.46.5 16 2 34.93 1 17h-38.88l-1.49-4 15-7.49-.5-35.93-10-17.46-2.5-21.46 2.5-22.45 6-14.78-8-5.18-2.49-16 1-11 5.48-8-9-7-1-3.49-3.49-3.5z"/><path d="m252.73 883.73h8l6.31 5.36 2.2 6.62-2.2 1.9 2.52 4.41-2.21 1.9-1.26 5.67-1.89 1.58-5.68.63-1.26 1.89 2.52 2.21-.63 3.47s4.42 7.88 4.73 8.83-.63 3.15-.63 3.15l4.1 11 1.26 11.36 1.26 9.77-4.71 3.52.63 5.68-1.26 1.26v9.46l1.26 12 1.58 2.21-2.52 4.1.31 6.3-2.2 6.63-2.21 24.91-6 10.09-2.53 2.21.32 28.7 16.08 7.89-1.26 3.15h-32.16l-.63-8.83 1.89-22.39 1.26-16.4.32-13.88-9.78-23.65-1.57-8.83-6.63-.32 1.26-13.56 3.16-8.52 4.73-3.47 1.26-6.3-3.15-2.21-.32-9.46 3.79-29.33s4.73-10.44 5.67-10.44 6.63-5.68 6.63-5.68l1.26-14.51.89-4.06a7.66 7.66 0 0 1 7.49-6.02z"/><path d="m1058.78 1048.88 3.77-2.61.87-26.68-2.61-4.06v-15.66l2.32-4.93.58-35.67-8.7-25.81-3.48-5.51-8.41-4.65-4.64-4.64 2-4.64.29-5.8 3.77-1.45v-2.9s-.58-13.34-13-14.21-13.63 17.4-12.76 17.4h3.22l.87 8.7h-1.74l-4.06 6.67-3.75 2.59-2.32-47.33-.48 49.22-5.71 3.94-8.41 19.43-8.7 18.85 7.25 36.25 3.48-.58 3.48 5.8 4.06 2.9-2.32 28.13 4.35 2.61-1.45 12.18 2.32 31.33-4.64 7 .87 3.19h14.51l.29-23.2 1.16-11.61 2.9-4.64.87-3.48 14.79-.29 1.16 23.21-.58 18.56h19.14l4.06-1.16-.29-3.48-9.28-2.9-1.45-10.44.87-20.31z"/><path d="m2373.76 1048.88 3.77-2.61.87-26.68-2.61-4.06v-15.66l2.32-4.93.58-35.67-8.7-25.81-3.48-5.51-8.41-4.65-4.64-4.64 2-4.64.29-5.8 3.77-1.45v-2.9s-.58-13.34-13.05-14.21-13.63 17.4-12.76 17.4h3.19l.87 8.7h-1.74l-4.06 6.67-3.75 2.59-2.22-47.33-.48 49.22-5.7 3.94-1.15 2.65-3.48-5.51-8.41-4.65-4.64-4.64 2-4.64.29-5.8 3.77-1.45v-2.9s-.58-13.34-13.05-14.21-13.63 17.4-12.76 17.4h3.19l.87 8.7h-1.74l-4.06 6.67-3.75 2.59-2.25-47.33-.48 49.22-5.7 3.94-1.15 2.65-3.48-5.51-8.41-4.65-4.64-4.64 2-4.64.29-5.8 3.77-1.45v-2.9s-.58-13.34-13-14.21-13.63 17.4-12.76 17.4h3.19l.87 8.7h-1.74l-4.06 6.67-3.75 2.59-2.25-47.33-.48 49.22-5.7 3.94-1.17 2.57-3.48-5.51-8.41-4.65-4.64-4.64 2-4.64.29-5.8 3.77-1.45v-2.9s-.58-13.34-13.05-14.21-13.63 17.4-12.76 17.4h3.19l.87 8.7h-1.78l-4.06 6.67-3.75 2.59-2.19-47.37-.48 49.22-5.7 3.94-1.15 2.65-3.48-5.51-8.41-4.65-4.64-4.64 2-4.64.29-5.8 3.77-1.45v-2.9s-.58-13.34-13.05-14.21-13.63 17.4-12.76 17.4h3.19l.87 8.7h-1.74l-4.06 6.67-3.75 2.59-2.25-47.33-.48 49.22-5.7 3.94-1.15 2.65-3.48-5.51-8.41-4.65-4.64-4.64 2-4.64.29-5.8 3.77-1.45v-2.9s-.58-13.34-13-14.21-13.63 17.4-12.76 17.4h3.19l.87 8.7h-1.74l-4.06 6.67-3.75 2.59-2.25-47.33-.48 49.22-5.7 3.94-8.41 19.43-8.7 18.85 7.25 36.25 3.48-.58 3.48 5.8 4.06 2.9-2.32 28.13 4.35 2.61-1.45 12.18 2.32 31.33-4.64 7 .87 3.19h14.5l.29-23.2 1.16-11.61 2.9-4.64.87-3.48 14.79-.29 1.16 23.21-.58 18.56h15.85l.4 1.45h14.5l.29-23.2 1.16-11.61 2.9-4.64.87-3.48 14.79-.29 1.16 23.21-.58 18.56h15.85l.4 1.45h14.5l.29-23.2 1.16-11.61 2.9-4.64.87-3.48 14.79-.29 1.16 23.21-.58 18.56h15.77l.4 1.45h14.5l.29-23.2 1.16-11.61 2.9-4.64.87-3.48 14.79-.29 1.16 23.21-.58 18.56h15.85l.4 1.45h14.5l.29-23.2 1.16-11.61 2.9-4.64.87-3.48 14.79-.29 1.16 23.21-.58 18.56h15.85l.4 1.45h14.5l.29-23.2 1.16-11.61 2.9-4.64.87-3.48 14.79-.29 1.16 23.21-.58 18.56h19.14l4.06-1.16-.29-3.48-9.28-2.9-1.45-10.44.87-20.31zm-263.08 29.59.87-20.31 5.51-9.28-.9 7.56 2.32 31.33-1.74 2.61-4.65-1.45zm51.34 0 .87-20.31 5.51-9.28-.9 7.56 2.32 31.33-1.74 2.61-4.65-1.45zm51.34 0 .87-20.31 5.51-9.28-.9 7.56 2.32 31.33-1.74 2.61-4.65-1.45zm51.34 0 .87-20.31 5.51-9.28-.9 7.56 2.32 31.33-1.74 2.61-4.65-1.45zm51.34 0 .87-20.31 5.51-9.28-.9 7.56 2.32 31.33-1.74 2.61-4.65-1.45z"/><path d="m11.42 1048.88 3.77-2.61.87-26.68-2.61-4.06v-15.66l2.32-4.93.58-35.67-8.7-25.81-3.48-5.46-8.41-4.65-4.64-4.64 2-4.64.29-5.8 3.77-1.45v-2.9s-.58-13.34-13-14.21-13.63 17.4-12.76 17.4h3.19l.87 8.7h-1.74l-4.06 6.67-3.77 2.52-2.25-47.33-.48 49.22-5.7 3.94-1 2.38-3.38-5.21-8.41-4.65-4.64-4.64 2-4.64.29-5.8 3.77-1.45v-2.9s-.58-13.34-13-14.21-13.63 17.4-12.76 17.4h3.19l.87 8.7h-1.74l-4.06 6.67-3.76 2.52-2.26-47.33-.48 49.22-5.7 3.94-1 2.38-3.41-5.21-8.41-4.65-4.64-4.64 2-4.64.29-5.8 3.77-1.45v-2.9s-.58-13.34-13-14.21-13.63 17.4-12.76 17.4h3.19l.87 8.7h-1.74l-4.06 6.67-3.75 2.59-2.25-47.33-.48 49.22-5.7 3.94-1 2.38-3.33-5.28-8.42-4.65-4.64-4.64 2-4.64.29-5.8 3.77-1.45v-2.9s-.58-13.34-13-14.21-13.63 17.4-12.76 17.4h3.19l.87 8.7h-1.74l-4.06 6.67-3.74 2.59-2.26-47.33-.48 49.22-5.7 3.94-1 2.38-3.34-5.28-8.41-4.65-4.64-4.64 2-4.64.29-5.8 3.77-1.45v-2.9s-.58-13.34-13-14.21-13.63 17.4-12.76 17.4h3.19l.87 8.7h-1.74l-4.06 6.67-3.75 2.59-2.25-47.33-.48 49.22-5.7 3.94-1 2.38-3.33-5.28-8.42-4.65-4.64-4.64 2-4.64.29-5.8 3.77-1.45v-2.9s-.58-13.34-13.05-14.21-13.63 17.4-12.76 17.4h3.19l.87 8.7h-1.74l-4.06 6.67-3.74 2.59-2.26-47.33-.48 49.22-5.7 3.94-1 2.38-3.34-5.28-8.41-4.65-4.64-4.64 2-4.64.29-5.8 3.77-1.45v-2.9s-.58-13.34-13.05-14.21-13.63 17.4-12.76 17.4h3.19l.87 8.7h-1.74l-4.06 6.67-3.75 2.59-2.25-47.33-.48 49.22-5.7 3.94-1 2.38-3.33-5.28-8.42-4.65-4.64-4.64 2-4.64.29-5.8 3.77-1.45v-2.9s-.58-13.34-13.05-14.21-13.63 17.4-12.76 17.4h3.19l.87 8.7h-1.74l-4.06 6.67-3.74 2.59-2.26-47.33-.48 49.22-5.7 3.94-1 2.38-3.34-5.28-8.41-4.65-4.64-4.64 2-4.64.29-5.8 3.77-1.45v-2.9s-.58-13.34-13.05-14.21-13.63 17.4-12.76 17.4h3.19l.87 8.7h-1.74l-4.06 6.67-3.75 2.59-2.25-47.33-.48 49.22-5.7 3.94-1 2.38-3.33-5.28-8.42-4.65-4.64-4.64 2-4.64.29-5.8 3.77-1.45v-2.9s-.58-13.34-13.05-14.21-13.63 17.4-12.76 17.4h3.07l.87 8.7h-1.74l-4.06 6.67-3.74 2.59-2.26-47.33-.48 49.22-5.7 3.94-1 2.38-3.34-5.28-8.41-4.65-4.64-4.64 2-4.64.29-5.8 3.77-1.45v-2.9s-.58-13.34-13-14.21-13.63 17.4-12.76 17.4h3.19l.87 8.7h-1.74l-4.06 6.67-3.75 2.59-2.31-47.38-.48 49.22-5.7 3.94-1 2.38-3.33-5.28-8.49-4.65-4.64-4.64 2-4.64.29-5.8 3.77-1.45v-2.9s-.58-13.34-13-14.21-13.63 17.4-12.76 17.4h3.19l.87 8.7h-1.72l-4.06 6.67-3.74 2.57-2.26-47.33-.48 49.22-5.7 3.94-8.41 19.43-8.7 18.85 7.25 36.25 3.48-.58 3.48 5.8 4.06 2.9-2.32 28.13 4.35 2.61-1.45 12.18 2.32 31.33-4.64 7 .87 3.19h14.5l.29-23.2 1.16-11.61 2.9-4.64.87-3.48 14.79-.29 1.16 23.21-.58 18.56h15.58l.4 1.45h14.5l.29-23.2 1.16-11.61 2.9-4.64.87-3.48 14.79-.29 1.16 23.21-.58 18.56h15.58l.39 1.45h14.5l.29-23.2 1.16-11.61 2.9-4.64.87-3.48 14.79-.29 1.16 23.21-.58 18.56h15.58l.4 1.45h14.5l.29-23.2 1.16-11.61 2.9-4.64.87-3.48 14.79-.29 1.16 23.21-.58 18.56h15.58l.39 1.45h14.5l.29-23.2 1.16-11.61 2.9-4.64.87-3.48 14.79-.29 1.16 23.21-.58 18.56h15.6l.4 1.45h14.5l.29-23.2 1.16-11.61 2.9-4.64.87-3.48 14.79-.29 1.16 23.21-.58 18.56h15.58l.39 1.45h14.5l.29-23.2 1.16-11.61 2.9-4.64.87-3.48 14.79-.29 1.16 23.21-.58 18.56h15.58l.4 1.45h14.47l.29-23.2 1.16-11.61 2.9-4.64.87-3.48 14.79-.29 1.16 23.21-.58 18.56h15.58l.39 1.45h14.5l.29-23.2 1.16-11.61 2.9-4.64.87-3.48 14.79-.29 1.16 23.21-.58 18.56h15.58l.4 1.45h14.5l.29-23.2 1.16-11.61 2.9-4.64.87-3.48 14.79-.29 1.16 23.21-.58 18.56h15.58l.39 1.45h14.5l.29-23.2 1.16-11.61 2.9-4.64.87-3.48 14.79-.29 1.16 23.21-.58 18.56h15.58l.4 1.45h14.5l.29-23.2 1.16-11.61 2.9-4.64.87-3.48 14.79-.29 1.16 23.21-.58 18.56h19.15l4.06-1.16-.29-3.48-9.28-2.9-1.49-10.46.87-20.31zm-568.09 29.59.87-20.31 5.2-8.77-.83 7 2.32 31.33-1.7 2.54-4.41-1.38zm51.06 0 .87-20.31 5.21-8.77-.84 7 2.32 31.33-1.69 2.54-4.42-1.38zm51.07 0 .87-20.31 5.2-8.77-.83 7 2.32 31.33-1.7 2.54-4.41-1.38zm51.06 0 .87-20.31 5.21-8.77-.84 7 2.32 31.33-1.69 2.54-4.42-1.38zm51.07 0 .87-20.31 5.2-8.77-.83 7 2.32 31.33-1.7 2.54-4.41-1.38zm51.06 0 .87-20.31 5.21-8.77-.84 7 2.32 31.33-1.69 2.54-4.42-1.38zm51.07 0 .87-20.31 5.2-8.77-.83 7 2.32 31.33-1.7 2.54-4.41-1.38zm51.06 0 .87-20.31 5.21-8.77-.84 7 2.32 31.33-1.69 2.54-4.42-1.38zm51.06 0 .88-20.31 5.2-8.77-.83 7 2.32 31.33-1.7 2.54-4.41-1.38zm51.07 0 .87-20.31 5.21-8.77-.84 7 2.32 31.33-1.69 2.54-4.42-1.38zm51.06 0 .87-20.31 5.21-8.77-.83 7 2.32 31.33-1.7 2.54-4.42-1.38z"/><path d="m2037.79 1048.88 3.77-2.61.87-26.68-2.61-4.06v-15.66l2.32-4.93.58-35.67-8.7-25.81-3.48-5.51-8.41-4.65-4.64-4.64 2-4.64.29-5.8 3.77-1.45v-2.9s-.58-13.34-13-14.21-13.63 17.4-12.76 17.4h3.21l.87 8.7h-1.74l-4.06 6.67-3.75 2.59-2.32-47.33-.48 49.22-5.7 3.94-1 2.38-3.33-5.28-8.41-4.65-4.65-4.64 2-4.64.29-5.8 3.77-1.45v-2.9s-.58-13.34-13.06-14.21-13.63 17.4-12.76 17.4h3.19l.87 8.7h-1.73l-4.06 6.67-3.74 2.59-2.2-47.33-.48 49.22-5.7 3.94-1 2.38-3.34-5.28-8.48-4.65-4.64-4.64 2-4.64.29-5.8 3.77-1.45v-2.9s-.58-13.34-13-14.21-13.63 17.4-12.76 17.4h3.19l.87 8.7h-1.72l-4.06 6.67-3.75 2.59-2.25-47.33-.48 49.22-5.7 3.94-1 2.38-3.33-5.28-8.41-4.65-4.64-4.64 2-4.64.29-5.8 3.77-1.45v-2.9s-.58-13.34-13.06-14.21-13.63 17.4-12.76 17.4h3.19l.87 8.7h-1.74l-4.06 6.67-3.74 2.59-2.26-47.33-.48 49.22-5.7 3.94-1 2.38-3.34-5.28-8.41-4.65-4.64-4.64 2-4.64.29-5.8 3.77-1.45v-2.9s-.58-13.34-13-14.21-13.63 17.4-12.76 17.4h3.19l.87 8.7h-1.74l-4.06 6.67-3.87 2.57-2.25-47.33-.48 49.22-5.7 3.94-1 2.38-3.33-5.28-8.41-4.65-4.64-4.64 2-4.64.29-5.8 3.77-1.45v-2.9s-.58-13.34-13.06-14.21-13.63 17.4-12.76 17.4h3.19l.87 8.7h-1.74l-4.06 6.67-3.69 2.59-2.26-47.33-.48 49.22-5.7 3.94-1 2.38-3.34-5.28-8.41-4.65-4.64-4.64 2-4.64.29-5.8 3.77-1.45v-2.9s-.58-13.34-13-14.21-13.63 17.4-12.76 17.4h3.19l.87 8.7h-1.74l-4.06 6.67-3.75 2.59-2.25-47.33-.48 49.22-5.7 3.94-1 2.38-3.33-5.28-8.41-4.65-4.64-4.64 2-4.64.29-5.8 3.77-1.45v-2.9s-.58-13.34-13.06-14.21-13.63 17.4-12.76 17.4h3.19l.87 8.7h-1.74l-4.06 6.67-3.74 2.59-2.26-47.33-.48 49.22-5.7 3.94-1 2.38-3.49-5.21-8.41-4.65-4.64-4.64 2-4.64.29-5.8 3.77-1.45v-2.9s-.58-13.34-13-14.21-13.63 17.4-12.76 17.4h3.19l.87 8.7h-1.74l-4.06 6.67-3.75 2.59-2.25-47.33-.48 49.22-5.7 3.94-1 2.38-3.33-5.28-8.41-4.65-4.64-4.64 2-4.64.29-5.8 3.77-1.45v-2.9s-.58-13.34-13.06-14.21-13.63 17.4-12.76 17.4h3.19l.87 8.7h-1.74l-4.06 6.67-3.75 2.52-2.26-47.33-.48 49.22-5.7 3.94-1 2.38-3.34-5.28-8.41-4.65-4.64-4.64 2-4.64.29-5.8 3.77-1.45v-2.9s-.58-13.34-13-14.21-13.63 17.4-12.76 17.4h3.19l.87 8.7h-1.74l-4.06 6.67-3.75 2.59-2.25-47.33-.48 49.22-5.7 3.94-1 2.38-3.33-5.28-8.41-4.65-4.64-4.64 2-4.64.29-5.8 3.77-1.45v-2.9s-.58-13.34-13.06-14.21-13.63 17.4-12.76 17.4h3.19l.87 8.7h-1.74l-4.06 6.67-3.74 2.59-2.26-47.33-.48 49.22-5.7 3.94-8.41 19.43-8.7 18.85 7.25 36.25 3.48-.58 3.48 5.8 4.06 2.9-2.32 28.13 4.35 2.61-1.45 12.18 2.32 31.33-4.64 7 .87 3.19h14.5l.29-23.2 1.16-11.61 2.9-4.64.87-3.48 14.8-.29 1.16 23.21-.58 18.56h15.57l.4 1.45h14.45l.29-23.2 1.16-11.61 2.9-4.64.87-3.48 14.79-.29 1.16 23.21-.58 18.56h15.58l.39 1.45h14.5l.29-23.2 1.16-11.61 2.9-4.64.87-3.48 14.8-.29 1.16 23.21-.58 18.56h15.57l.4 1.45h14.5l.29-23.2 1.16-11.61 2.9-4.64.87-3.48 14.79-.29 1.16 23.21-.58 18.56h15.58l.39 1.45h14.5l.29-23.2 1.16-11.61 2.9-4.64.87-3.48 14.8-.29 1.16 23.21-.58 18.56h15.57l.4 1.45h14.5l.29-23.2 1.16-11.61 2.9-4.64.87-3.48 14.79-.29 1.16 23.21-.58 18.56h15.58l.39 1.45h14.5l.29-23.2 1.16-11.61 2.9-4.64.87-3.48 14.8-.29 1.16 23.21-.58 18.56h15.57l.4 1.45h14.5l.29-23.2 1.16-11.61 2.9-4.64.87-3.48 14.79-.29 1.16 23.21-.58 18.56h15.58l.39 1.45h14.5l.29-23.2 1.16-11.61 2.9-4.64.87-3.48 14.79-.29 1.17 23.21-.59 18.56h15.58l.4 1.45h14.5l.29-23.2 1.16-11.61 2.9-4.64.87-3.48 14.79-.29 1.16 23.21-.58 18.56h15.58l.39 1.45h14.5l.29-23.2 1.16-11.61 2.9-4.64.87-3.48 14.79-.29 1.16 23.21-.58 18.56h15.58l.4 1.45h14.5l.29-23.2 1.16-11.61 2.9-4.64.87-3.48 14.79-.29 1.16 23.21-.58 18.56h19.14l4.06-1.16-.29-3.48-9.28-2.9-1.45-10.44.87-20.31zm-568.09 29.59.87-20.31 5.2-8.77-.83 7 2.32 31.33-1.7 2.54-4.41-1.38zm51.06 0 .87-20.31 5.21-8.77-.84 7 2.32 31.33-1.69 2.54-4.42-1.38zm51.07 0 .87-20.31 5.2-8.77-.83 7 2.32 31.33-1.7 2.54-4.41-1.38zm51.06 0 .87-20.31 5.21-8.77-.84 7 2.32 31.33-1.69 2.54-4.42-1.38zm51.07 0 .87-20.31 5.2-8.77-.83 7 2.32 31.33-1.7 2.54-4.41-1.38zm51.06 0 .87-20.31 5.21-8.77-.84 7 2.32 31.33-1.69 2.54-4.42-1.38zm51.07 0 .87-20.31 5.2-8.77-.83 7 2.32 31.33-1.7 2.54-4.41-1.38zm51.06 0 .87-20.31 5.21-8.77-.84 7 2.32 31.33-1.69 2.54-4.42-1.38zm51.07 0 .87-20.31 5.2-8.77-.83 7 2.32 31.33-1.7 2.54-4.41-1.38zm51.06 0 .87-20.31 5.21-8.77-.84 7 2.32 31.33-1.69 2.54-4.42-1.38zm51.07 0 .87-20.31 5.2-8.77-.83 7 2.32 31.33-1.7 2.54-4.41-1.38z"/></g></svg>