<svg height="432.68" viewBox="0 0 5088.63 432.68" width="5088.63" xmlns="http://www.w3.org/2000/svg" xmlns:xlink="http://www.w3.org/1999/xlink"><linearGradient id="a" gradientUnits="userSpaceOnUse" x1="2344.72" x2="2344.72" y1="767.53" y2="963.85"><stop offset=".4" stop-color="#806e5e"/><stop offset="1" stop-color="#53493e"/></linearGradient><linearGradient id="b" x1="-293.85" x2="-293.85" xlink:href="#a" y1="782.17" y2="970.65"/><linearGradient id="c" gradientUnits="userSpaceOnUse" x1="2265.67" x2="2266" y1="200.17" y2="194.79"><stop offset="0" stop-color="#806e5e"/><stop offset="1" stop-color="#b09783"/></linearGradient><linearGradient id="d" gradientUnits="userSpaceOnUse" x1="2343.94" x2="2343.94" y1="233.18" y2="239.6"><stop offset="0" stop-color="#756557"/><stop offset="1" stop-color="#806e5e"/></linearGradient><linearGradient id="e" x1="-183.56" x2="-51.66" xlink:href="#c" y1="895.95" y2="895.95"/><linearGradient id="f" x1="-274.39" x2="-180.5" xlink:href="#c" y1="788.64" y2="788.64"/><linearGradient id="g" x1="2171.44" x2="2171.44" xlink:href="#c" y1="197.48" y2="192.05"/><linearGradient id="h" x1="137.69" x2="137.69" xlink:href="#d" y1="823.41" y2="905.04"/><linearGradient id="i" gradientUnits="userSpaceOnUse" x1="4099.37" x2="4099.37" y1="333.18" y2="125.48"><stop offset="0" stop-color="#806e5e"/><stop offset=".98" stop-color="#806e5e"/><stop offset="1" stop-color="#53493e"/></linearGradient><linearGradient id="j" gradientUnits="userSpaceOnUse" x1="4104.43" x2="4104.43" y1="333.33" y2="126.17"><stop offset="0" stop-color="#927e6c"/><stop offset=".99" stop-color="#917d6b"/><stop offset="1" stop-color="#53493e"/></linearGradient><linearGradient id="k" gradientUnits="userSpaceOnUse" x1="4099.56" x2="4099.56" y1="125.48" y2="113.98"><stop offset="0" stop-color="#63564a"/><stop offset="1" stop-color="#c5bbb0"/></linearGradient><linearGradient id="l" gradientTransform="translate(-78.94 -704.57)" gradientUnits="userSpaceOnUse" x1="-621.49" x2="-621.49" y1="1575.17" y2="1448.97"><stop offset="0" stop-color="#3a322b"/><stop offset=".05" stop-color="#5c5045"/><stop offset=".5" stop-color="#4a4137"/><stop offset="1" stop-color="#927e6c"/></linearGradient><linearGradient id="m" gradientTransform="translate(2404.2 -1287.4)" gradientUnits="userSpaceOnUse" x1="-2011" x2="-2011" y1="1462.91" y2="1380.69"><stop offset="0" stop-color="#3a322b"/><stop offset=".09" stop-color="#4a4137"/><stop offset="1" stop-color="#927e6c"/></linearGradient><linearGradient id="n" gradientTransform="translate(2404.2 -1287.4)" gradientUnits="userSpaceOnUse" x1="-1850.54" x2="-1803.07" y1="1370.88" y2="1370.88"><stop offset="0" stop-color="#927e6c"/><stop offset=".08" stop-color="#5d5146"/><stop offset=".29" stop-color="#7c6b5c"/><stop offset=".71" stop-color="#4a4137"/><stop offset="1" stop-color="#927e6c"/></linearGradient><linearGradient id="o" gradientUnits="userSpaceOnUse" x1="560.75" x2="609.51" y1="118.73" y2="118.73"><stop offset=".01" stop-color="#5c5045"/><stop offset=".96" stop-color="#4a4137"/><stop offset="1" stop-color="#3a322b"/></linearGradient><linearGradient id="p" gradientTransform="translate(-78.95 -704.57)" gradientUnits="userSpaceOnUse" x1="-1078.93" x2="-1078.93" y1="1719.08" y2="1591.26"><stop offset="0" stop-color="#52483d"/><stop offset="1" stop-color="#3a322b"/></linearGradient><linearGradient id="q" gradientTransform="translate(2404.2 -1287.4)" x1="-2030.3" x2="-2030.3" xlink:href="#p" y1="1703.67" y2="1603.11"/><linearGradient id="r" gradientTransform="translate(-78.95 -704.57)" gradientUnits="userSpaceOnUse" x1="-1444.22" x2="-1444.22" y1="1598.97" y2="1429.97"><stop offset="0" stop-color="#3a322b"/><stop offset=".01" stop-color="#5c5045"/><stop offset=".95" stop-color="#4a4137"/><stop offset=".98" stop-color="#3a322b"/></linearGradient><linearGradient id="s" gradientTransform="translate(2404.2 -1287.4)" x1="-686" x2="-686" xlink:href="#l" y1="1386.94" y2="1343.26"/><linearGradient id="t" gradientTransform="translate(2404.2 -1287.4)" x1="-976.17" x2="-976.17" xlink:href="#l" y1="1519.15" y2="1381.9"/><linearGradient id="u" gradientUnits="userSpaceOnUse" x1="1069.31" x2="1069.31" y1="258.55" y2="73.67"><stop offset="0" stop-color="#52483d"/><stop offset=".8" stop-color="#63564a"/><stop offset="1" stop-color="#927e6c"/></linearGradient><linearGradient id="v" x1="-1541.86" x2="-1541.86" xlink:href="#m" y1="1374.16" y2="1311.17"/><linearGradient id="w" x1="-1747.84" x2="-1747.84" xlink:href="#m" y1="1374.16" y2="1311.17"/><linearGradient id="x" gradientTransform="translate(2404.2 -1287.4)" gradientUnits="userSpaceOnUse" x1="-1119.34" x2="-1119.34" y1="1526.48" y2="1374.16"><stop offset="0" stop-color="#3a322b"/><stop offset=".06" stop-color="#78685a"/><stop offset=".5" stop-color="#6e6051"/><stop offset="1" stop-color="#d2c8bd"/></linearGradient><linearGradient id="y" x1="-1225.13" x2="-1225.13" xlink:href="#x" y1="1526.48" y2="1374.16"/><linearGradient id="z" x1="-1004.79" x2="-1004.79" xlink:href="#x" y1="1526.48" y2="1374.16"/><linearGradient id="A" x1="-972.61" x2="-972.61" xlink:href="#x" y1="1526.48" y2="1374.16"/><linearGradient id="B" x1="-849" x2="-849" xlink:href="#x" y1="1526.48" y2="1374.16"/><linearGradient id="C" gradientUnits="userSpaceOnUse" x1="1684.75" x2="1684.75" y1="400.62" y2="252.96"><stop offset="0" stop-color="#665a4c"/><stop offset=".09" stop-color="#52483d"/><stop offset=".8" stop-color="#63564a"/><stop offset="1" stop-color="#927e6c"/></linearGradient><linearGradient id="D" gradientTransform="translate(2404.2 -1287.4)" gradientUnits="userSpaceOnUse" x1="-771.57" x2="-771.57" y1="1674.34" y2="1597.44"><stop offset="0" stop-color="#63564a"/><stop offset=".43" stop-color="#53483d"/><stop offset="1" stop-color="#927e6c"/></linearGradient><linearGradient id="E" x1="-664.92" x2="-664.92" xlink:href="#D" y1="1683.19" y2="1597.44"/><linearGradient id="F" x1="-667.64" x2="-667.64" xlink:href="#D" y1="1585.53" y2="1547.63"/><linearGradient id="G" x1="-1206.77" x2="-1123.98" xlink:href="#n" y1="1340.05" y2="1340.05"/><linearGradient id="H" gradientTransform="translate(0 -646)" gradientUnits="userSpaceOnUse" x1="-1206.78" x2="-1123.99" y1="1300.06" y2="1300.06"><stop offset="0" stop-color="#927e6c"/><stop offset=".71" stop-color="#4a4137"/><stop offset="1" stop-color="#927e6c"/></linearGradient><linearGradient id="I" x1="-1116.09" x2="-1033.3" xlink:href="#n" y1="1340.05" y2="1340.05"/><linearGradient id="J" x1="-1116.09" x2="-1033.3" xlink:href="#H" y1="1300.06" y2="1300.06"/><linearGradient id="K" x1="-968.2" x2="-885.43" xlink:href="#H" y1="1300.06" y2="1300.06"/><linearGradient id="L" x1="-968.21" x2="-885.42" xlink:href="#n" y1="1340.05" y2="1340.05"/><linearGradient id="M" gradientTransform="translate(2404.2 -1287.4)" x1="-1070.32" x2="-1008.5" xlink:href="#l" y1="1385.37" y2="1385.37"/><linearGradient id="N" x1="-1558.85" x2="-1558.85" xlink:href="#r" y1="1598.97" y2="1432.73"/><linearGradient id="O" x1="-2024.21" x2="-1976.74" xlink:href="#n" y1="1370.88" y2="1370.88"/><linearGradient id="P" x1="-2026.05" x2="-1974.9" xlink:href="#n" y1="1360.1" y2="1360.1"/><linearGradient id="Q" x1="-1852.38" x2="-1801.23" xlink:href="#n" y1="1360.1" y2="1360.1"/><linearGradient id="R" gradientUnits="userSpaceOnUse" x1="-2002.09" x2="-2002.09" y1="957.11" y2="728.16"><stop offset=".01" stop-color="#5c5045"/><stop offset=".95" stop-color="#4a4137"/><stop offset=".98" stop-color="#3a322b"/></linearGradient><linearGradient id="S" x1="-802.29" x2="-739.16" xlink:href="#n" y1="1366.32" y2="1366.32"/><linearGradient id="T" x1="-802.29" x2="-739.16" xlink:href="#n" y1="1322.94" y2="1322.94"/><linearGradient id="U" gradientTransform="translate(0 -646)" gradientUnits="userSpaceOnUse" x1="-1165.38" x2="-1165.38" y1="1305.95" y2="1294.18"><stop offset=".32" stop-color="#927e6c" stop-opacity="0"/><stop offset="1" stop-color="#d2c8bd"/></linearGradient><linearGradient id="V" x1="-1074.69" x2="-1074.69" xlink:href="#U" y1="1305.95" y2="1294.18"/><linearGradient id="W" x1="-926.81" x2="-926.81" xlink:href="#U" y1="1305.95" y2="1294.18"/><linearGradient id="X" gradientUnits="userSpaceOnUse" x1="728.55" x2="728.55" y1="36.31" y2="15.86"><stop offset="0" stop-color="#4a4137"/><stop offset="1" stop-color="#927e6c"/></linearGradient><linearGradient id="Y" gradientTransform="translate(2325.26 -1345.97)" gradientUnits="userSpaceOnUse" x1="-1037.46" x2="-954.36" y1="1364.31" y2="1364.31"><stop offset="0" stop-color="#b09882"/><stop offset=".08" stop-color="#a38f7a"/><stop offset=".29" stop-color="#a38d79"/><stop offset=".71" stop-color="#827261"/><stop offset="1" stop-color="#b59c86"/></linearGradient><linearGradient id="Z" x1="-889.42" x2="-806.32" xlink:href="#Y" y1="1364.31" y2="1364.31"/><linearGradient id="aa" x1="-1127.99" x2="-1044.89" xlink:href="#Y" y1="1364.31" y2="1364.31"/><path d="m2504.58 767.53-22.14 14.47h-4.19l-105.34 57.63-16.25 8.51-85.27-33.32-.4 1.35-1.89-1.35-20.23-6.82-35.11 26.72 1.91 20.61-7.47 17.17 3.62.89v52.25l-10.65-.85h-11.45l-2-8v-47.7h-7.91v47.7l1.91 10.69 16.79 3.43 5.35 6.11h24l-1.11 1.15-.77 11.06-24.8-1.14v15.8h151.89v-5.11l-12.59-11.45v-4.58h17.37l28.81-11.84-32.82-53.43 84-51.14v-10.34l48.85-24.43v-4.57l23-10.69zm-274.11 120.18v-13.77l9.32-1a47.76 47.76 0 0 0 -9.32 14.77zm-12.89 4.29h11.42a47.69 47.69 0 0 0 3.46 35.24l-14.89-1.19zm116-39.38-14.89 5.72-9.54 2.67-9.63 3.46a47.82 47.82 0 0 0 -42-3.65l-23.91-.57-8-8 3.82-8.9 9.24 4.32 18.24.77 9.16-5.09-3.44-10.75s-2.67-5.15-2.29-6.68c.26-1 5.61-2.83 8.9-3.83l-.12.39 79.76 27.87h3.65l-11.66 6.1z" fill="url(#a)" transform="translate(2404.2 -641.4)"/><path d="m-275.49 877.79h-29v-5h24.59v-54.69l-261.85-5.45v60.11h8.93l1.38 11 24 2.31-.93 12 51.26 11.12a43.05 43.05 0 0 0 -4 20.55 43.29 43.29 0 0 0 41.46 40.87 43.12 43.12 0 0 0 44.65-43.08c26.27-5.06 33.59-6.24 53.19-9.82l197.92 3.88a39.7 39.7 0 0 0 -.86 8.21 39.41 39.41 0 0 0 42.25 39.31 39.53 39.53 0 0 0 36.5-36.11 39.36 39.36 0 0 0 -14.9-34.11s-11.41-4.52-9.69-29.44l.46-21.24h-9.7l-5.49-1.39v-9.23l-105.8-6v-33.26l10.62-3.23-2.77-4.62-5.13-1.38a202.6 202.6 0 0 0 -52.53-6.93h-21a12.51 12.51 0 0 0 -12.46 11.83zm-171.93 0h-58.07v-5h58.07zm67.69 0h-58.07v-5h58.07zm66.28 0h-58.07v-5h58.07zm114.61-46.21h-61.16v-32.34h61.18z" fill="url(#b)" transform="translate(2404.2 -641.4)"/><path d="m2318.88 196.19-105.8-6.01v6.01l105.8 4z" fill="url(#c)"/><path d="m2343.3 239.6 1.27-6.42" fill="url(#d)"/><path d="m-131.19 899.16-30.81 21.84-21.57-.33 18.26-7.31 30.53-23.36a93 93 0 0 1 58.47-19.11h.21a31.15 31.15 0 0 1 20.48 8.26l4 3.66-22.53-.77a93 93 0 0 0 -57.04 17.12z" fill="url(#e)" transform="translate(2404.2 -641.4)"/><path d="m-274.39 794a12.51 12.51 0 0 1 12.49-11.87h21a202.6 202.6 0 0 1 52.53 6.93l5.13 1.38 2.77 4.62-10.62-.09z" fill="url(#f)" transform="translate(2404.2 -641.4)"/><path d="m2129.8 190.18h83.27v6.56h-83.27z" fill="url(#g)"/><path d="m2129.64 277.57h101.23v2.03h-101.23z" fill="#8a7665"/><path d="m58.84 831.23 27.81 70.93-.22 2.84 22.62 68.85h545.17s-3.62-86.67-17.52-107.62c-117-25.25-216.19-76.39-245.41-91.75a59.16 59.16 0 0 0 -19.56-6.25c-22.84-3.08-76.32-8.38-106 4.47-14.24 6.17-33.84 34.1-53.25 35.83-47.07 4.21-153.28 5.49-147.67 5z" fill="#806e5e" transform="translate(2404.2 -641.4)"/><path d="m216.54 823.41c-2.43 1.14-157.7 7.82-157.7 7.82l27.59 73.77 130.11-71.58z" fill="url(#h)" transform="translate(2404.2 -641.4)"/><path d="m2508.62 249.35 42.73-18.86h456.26l15.65 14.08z" fill="#8c7867"/><path d="m84.32 955.9 4.28-50.48a16 16 0 0 1 15.82-14.67l508.73-4.75a33.82 33.82 0 0 1 32.77 24.35l12.55 43.14a16 16 0 0 1 -15.41 20.51l-542.79-.75a16 16 0 0 1 -15.95-17.35z" fill="#706053" transform="translate(2404.2 -641.4)"/><path d="m272.74 871.52c4 1.54 330.67.37 330.67.37l-331.83-20z" fill="#756557" transform="translate(2404.2 -641.4)"/><path d="m271.58 851.93c-1.57-.46-98.65 20.39-98.65 20.39l99.81-.8z" fill="#756557" transform="translate(2404.2 -641.4)"/><path d="m230 823.41 182.25 4.88-24.9-35.63a17.18 17.18 0 0 0 -14.09-7.34h-103.17a23.22 23.22 0 0 0 -18.6 9.32z" fill="#756557" transform="translate(2404.2 -641.4)"/><path d="m58.84 831.23 27.81 70.93-.22 2.84 22.62 68.85h545.17s-3.62-86.67-17.52-107.62c-117-25.25-216.19-76.39-245.41-91.75a59.16 59.16 0 0 0 -19.56-6.25c-22.84-3.08-76.32-8.38-106 4.47-14.24 6.17-33.84 34.1-53.25 35.83-47.07 4.21-153.28 5.49-147.67 5z" fill="#806e5e" transform="translate(2404.2 -641.4)"/><path d="m216.54 823.41c-2.43 1.14-157.7 7.82-157.7 7.82l27.59 73.77 130.11-71.58z" fill="url(#h)" transform="translate(2404.2 -641.4)"/><path d="m2508.62 249.35 42.73-18.86h456.26l15.65 14.08z" fill="#8c7867"/><path d="m84.32 955.9 4.28-50.48a16 16 0 0 1 15.82-14.67l508.73-4.75a33.82 33.82 0 0 1 32.77 24.35l12.55 43.14a16 16 0 0 1 -15.41 20.51l-542.79-.75a16 16 0 0 1 -15.95-17.35z" fill="#706053" transform="translate(2404.2 -641.4)"/><path d="m272.74 871.52c4 1.54 330.67.37 330.67.37l-331.83-20z" fill="#756557" transform="translate(2404.2 -641.4)"/><path d="m271.58 851.93c-1.57-.46-98.65 20.39-98.65 20.39l99.81-.8z" fill="#756557" transform="translate(2404.2 -641.4)"/><path d="m230 823.41 182.25 4.88-24.9-35.63a17.18 17.18 0 0 0 -14.09-7.34h-103.17a23.22 23.22 0 0 0 -18.6 9.32z" fill="#756557" transform="translate(2404.2 -641.4)"/><circle cx="2616.45" cy="388.68" fill="#53493e" r="44"/><circle cx="2939.9" cy="388.68" fill="#53493e" r="44"/><path d="m2489.1 332.1h578.15v40h-578.15z" fill="#53493e"/><path d="m2498.94 344.68h57v57h-57z" fill="#53493e"/><path d="m218.49 1045.08h-12a5.51 5.51 0 0 1 -5.51-5.51v-19a5.51 5.51 0 0 1 5.51-5.51h12a5.51 5.51 0 0 1 5.51 5.51v19a5.51 5.51 0 0 1 -5.51 5.51z" fill="#63564a" transform="translate(2404.2 -641.4)"/><circle cx="2616.7" cy="388.68" fill="#53493e" r="9"/><path d="m542.94 1045.08h-11.94a5.51 5.51 0 0 1 -5.51-5.51v-19a5.51 5.51 0 0 1 5.51-5.51h12a5.51 5.51 0 0 1 5.51 5.51v19a5.51 5.51 0 0 1 -5.57 5.51z" fill="#63564a" transform="translate(2404.2 -641.4)"/><circle cx="2941.15" cy="388.68" fill="#53493e" r="9"/><path d="m2475.21 335.39v3.37h-12.33v2.22h-11.2v-8.32h-2.61v8.32 7.42 8.31h2.61v-8.31h11.2v2.2h12.33v2.96h21.21v-18.17z" fill="#53493e"/><path d="m3082.55 353.98v-3.37h12.33v-2.22h11.2v8.32h2.61v-8.32-7.42-8.31h-2.61v8.31h-11.2v-2.2h-12.33v-2.96h-21.21v18.17z" fill="#53493e"/><path d="m3068.65 333.51h-581.6v-29.44h32.97l88.89-27.96h336.96l92.65 27.96h30.13z" fill="#806e5e"/><path d="m1364.89 982.24v-8.31h-2.61v8.31h-11.2v-2.24h-12.33v-3h-15.3v-3.7h-578.16v3.28h-13.88v3.42h-12.33v2.22h-11.2v-8.32h-2.61v8.32 7.42 8.36h2.61v-8.31h11.2v2.2h12.33v3h13.88v18.55h9.84v29.56h57v-29.58h19.76a44 44 0 1 0 81.51 0h241.94a44 44 0 1 0 81.51 0h86.6v-18.17h15.3v-3.37h12.33v-2.22h11.2v8.34h2.61v-8.32-7.42z" fill="#53493e" transform="translate(2404.2 -641.4)"/><path d="m878.89 1045h-12a5.51 5.51 0 0 1 -5.51-5.51v-19a5.51 5.51 0 0 1 5.51-5.51h12a5.51 5.51 0 0 1 5.51 5.51v19a5.51 5.51 0 0 1 -5.51 5.51z" fill="#63564a" transform="translate(2404.2 -641.4)"/><circle cx="3277.1" cy="388.56" fill="#53493e" r="9"/><path d="m1203.34 1045h-12a5.51 5.51 0 0 1 -5.51-5.51v-19a5.51 5.51 0 0 1 5.51-5.51h12a5.51 5.51 0 0 1 5.51 5.51v19a5.51 5.51 0 0 1 -5.51 5.51z" fill="#63564a" transform="translate(2404.2 -641.4)"/><circle cx="3601.54" cy="388.56" fill="#53493e" r="9"/><path d="m2025.06 982.24v-8.31h-2.61v8.31h-11.2v-2.24h-12.33v-3h-15.3v-3.7h-578.16v3.28h-13.89v3.42h-12.33v2.22h-11.19v-8.32h-2.61v8.32 7.42 8.36h2.61v-8.31h11.19v2.2h12.33v3h13.89v18.55h9.84v29.56h57v-29.58h19.76a44 44 0 1 0 81.51 0h241.94a44 44 0 1 0 81.51 0h86.6v-18.17h15.3v-3.37h12.33v-2.22h11.2v8.34h2.61v-8.32-7.42z" fill="#53493e" transform="translate(2404.2 -641.4)"/><path d="m1539.06 1045h-12a5.51 5.51 0 0 1 -5.51-5.51v-19a5.51 5.51 0 0 1 5.51-5.51h12a5.51 5.51 0 0 1 5.51 5.51v19a5.51 5.51 0 0 1 -5.51 5.51z" fill="#63564a" transform="translate(2404.2 -641.4)"/><circle cx="3937.26" cy="388.56" fill="#53493e" r="9"/><path d="m1863.5 1045h-12a5.51 5.51 0 0 1 -5.51-5.51v-19a5.51 5.51 0 0 1 5.51-5.51h12a5.51 5.51 0 0 1 5.51 5.51v19a5.51 5.51 0 0 1 -5.51 5.51z" fill="#63564a" transform="translate(2404.2 -641.4)"/><circle cx="4261.71" cy="388.56" fill="#53493e" r="9"/><path d="m2684.43 982.24v-8.31h-2.61v8.31h-11.19v-2.24h-12.33v-3h-15.3v-3.7h-578.16v3.28h-13.84v3.42h-12.33v2.22h-11.2v-8.32h-2.61v8.32 7.42 8.36h2.61v-8.31h11.2v2.2h12.33v3h13.89v18.55h9.84v29.56h57v-29.58h19.75a44 44 0 1 0 81.52 0h241.93a44 44 0 1 0 81.52 0h86.55v-18.17h15.31v-3.37h12.33v-2.22h11.19v8.34h2.61v-8.32-7.42z" fill="#53493e" transform="translate(2404.2 -641.4)"/><path d="m2198.43 1045h-12a5.51 5.51 0 0 1 -5.51-5.51v-19a5.51 5.51 0 0 1 5.51-5.51h12a5.51 5.51 0 0 1 5.51 5.51v19a5.51 5.51 0 0 1 -5.51 5.51z" fill="#63564a" transform="translate(2404.2 -641.4)"/><circle cx="4596.64" cy="388.56" fill="#53493e" r="9"/><path d="m2522.88 1045h-12a5.51 5.51 0 0 1 -5.51-5.51v-19a5.51 5.51 0 0 1 5.51-5.51h12a5.51 5.51 0 0 1 5.51 5.51v19a5.51 5.51 0 0 1 -5.51 5.51z" fill="#63564a" transform="translate(2404.2 -641.4)"/><circle cx="4921.09" cy="388.56" fill="#53493e" r="9"/><path d="m44.84 982.11v-8.31h-2.61v8.31h-11.23v-2.2h-12.3v-3h-15.3v-3.71h-578.15v3.29h-13.89v3.37h-12.36v2.22h-11.2v-8.28h-2.61v8.32 7.42 8.31h2.61v-8.31h11.2v2.2h12.33v3h13.89v18.54h9.84v29.58h57v-29.58h19.75a44 44 0 0 0 -3.24 16.58 44 44 0 0 0 44 44 44 44 0 0 0 44-44 44 44 0 0 0 -3.24-16.58h241.93a44 44 0 0 0 -3.24 16.58 44 44 0 0 0 44 44 44 44 0 0 0 44-44 44 44 0 0 0 -3.24-16.58h86.62v-18.16h15.3v-3.37h12.3v-2.22h11.2v8.32h2.61v-8.32-7.42z" fill="#53493e" transform="translate(2404.2 -641.4)"/><path d="m-441.16 1044.82h-12a5.51 5.51 0 0 1 -5.51-5.51v-19a5.51 5.51 0 0 1 5.51-5.51h12a5.51 5.51 0 0 1 5.51 5.51v19a5.51 5.51 0 0 1 -5.51 5.51z" fill="#63564a" transform="translate(2404.2 -641.4)"/><circle cx="1957.05" cy="388.42" fill="#53493e" r="9"/><path d="m-116.71 1044.82h-12a5.51 5.51 0 0 1 -5.51-5.51v-19a5.51 5.51 0 0 1 5.51-5.51h12a5.51 5.51 0 0 1 5.51 5.51v19a5.51 5.51 0 0 1 -5.51 5.51z" fill="#63564a" transform="translate(2404.2 -641.4)"/><circle cx="2281.5" cy="388.42" fill="#53493e" r="9"/><path d="m2410.03 333.39h-581.6v-40.66l100.1-31.2 378.46.59 103.04 30.61z" fill="#806e5e"/><path d="m3730.08 333.39h-581.6v-40.66l100.1-31.2 378.46.59 103.04 30.61z" fill="#806e5e"/><path d="m5049.62 333.39h-581.6v-40.66l100.1-31.2 378.46.59 103.04 30.61z" fill="#806e5e"/><path d="m4390.17 333.18h-581.6v-207.7h581.6z" fill="url(#i)"/><path d="m4011.24 126.17h186.38v207.15h-186.38z" fill="url(#j)"/><path d="m4382.86 126.17h7.3v207.15h-7.3z" fill="#927e6c"/><path d="m3808.57 126.17h7.3v207.15h-7.3z" fill="#927e6c"/><path d="m3943.57 126.17h7.3v207.15h-7.3z" fill="#927e6c"/><path d="m3873.81 126.17h7.3v207.15h-7.3z" fill="#927e6c"/><path d="m4320.93 126.17h7.3v207.15h-7.3z" fill="#927e6c"/><path d="m4251.17 126.17h7.3v207.15h-7.3z" fill="#927e6c"/><path d="m4393.55 113.98h-587.98v11.5h587.98z" fill="url(#k)"/><path d="m-694.45 756.17v102.66a11.77 11.77 0 0 1 -11.75 11.77h-.23v-126.2h.23a11.77 11.77 0 0 1 11.77 11.77z" fill="url(#l)" transform="translate(2404.2 -641.4)"/><path d="m225.63 93.29h335.13v82.22h-335.13z" fill="url(#m)"/><path d="m553.66 73.67h47.47v19.62h-47.47z" fill="url(#n)"/><path d="m560.75 85.99h48.76v65.49h-48.76z" fill="url(#o)"/><path d="m-660.09 888.76h-216.75a40.73 40.73 0 0 0 -25.64 0h-195.27a40.73 40.73 0 0 0 -25.64 0h-306.76v5.64h-220.11l53.91 58.6h-10.36v23.63h-9.29v3.37h-6.66v2.21h-30.34v-8.34h-2.62v24h2.62v-8.31h30.42v2.26h6.66v3h9.26v19.64h841v-57.4h27.66v-57.06h77.88zm-482.19 64.24h-97.31v-53h99a40.68 40.68 0 0 0 -1.64 53zm220.9 0h-25.11v-39.39h-43.44v39.39h-88.92a40.72 40.72 0 0 0 -1.64-53h160.76a40.71 40.71 0 0 0 -1.65 53zm80.15 0h-16.71a40.72 40.72 0 0 0 -1.64-53h18.38z" fill="url(#p)" transform="translate(2404.2 -641.4)"/><path d="m745.17 332.46v8.31h-18.1v-2.21h-19.73v-2.96h-8.14v-5.41-14.48h-591.79v14.48h-56.49v5h-10.48v3.37h-19.73v2.21h-18.1v-8.31h-2.61v8.31 7.42 8.31h2.61v-8.31h18.1v2.21h19.73v2.96h10.48v25.28h470.46v37.63h101.39v-37.63h76.43v-24.87h8.14v-3.37h19.73v-2.22h18.1v8.32h2.62v-8.32-7.41-8.31z" fill="url(#q)"/><path d="m-1616.34 725.4v169h186.34v-169zm84.49 61a12 12 0 0 1 -12 12h-38.86a12 12 0 0 1 -12-12v-43a12 12 0 0 1 12-12h38.86a12 12 0 0 1 12 12zm80.93 0a12 12 0 0 1 -12 12h-38.86a12 12 0 0 1 -12-12v-43a12 12 0 0 1 12-12h38.86a12 12 0 0 1 12 12z" fill="url(#r)" transform="translate(2404.2 -641.4)"/><path d="m703.16 90.03h41.78v162.93h-41.78z" fill="#3a322b"/><path d="m1698.81 55.86h38.77v43.68h-38.77z" fill="url(#s)"/><path d="m1157.25 86.76h541.56v171.79h-541.56z" fill="url(#t)"/><path d="m974 73.67h190.61v184.88h-190.61z" fill="url(#u)"/><path d="m744.94 23.77h234.79v62.99h-234.79z" fill="url(#v)"/><path d="m602.96 23.77h106.8v62.99h-106.8z" fill="url(#w)"/><path d="m974 239.08h770.11v8.28h-770.11z" fill="#927e6c"/><path d="m1161.82 148.39h3.24v94.83h-3.24z" fill="#927e6c"/><path d="m1355.83 148.39h3.24v94.83h-3.24z" fill="#927e6c"/><path d="m1281.41 86.76h6.9v152.32h-6.9z" fill="url(#x)"/><path d="m1175.62 86.76h6.9v152.32h-6.9z" fill="url(#y)"/><path d="m1395.96 86.76h6.9v152.32h-6.9z" fill="url(#z)"/><path d="m1428.14 86.76h6.9v152.32h-6.9z" fill="url(#A)"/><path d="m1551.75 86.76h6.9v152.32h-6.9z" fill="url(#B)"/><path d="m1546.29 148.39h3.24v94.83h-3.24z" fill="#927e6c"/><path d="m1739.29 148.39h3.24v94.83h-3.24z" fill="#927e6c"/><circle cx="1152.5" cy="373" fill="#53493e" r="57.3"/><circle cx="1021.33" cy="373" fill="#53493e" r="57.3"/><circle cx="1280.21" cy="373" fill="#53493e" r="57.3"/><circle cx="1411.37" cy="373" fill="#53493e" r="57.3"/><circle cx="1544.61" cy="373" fill="#53493e" r="57.3"/><path d="m1635.04 252.96h99.41v147.66h-99.41z" fill="url(#C)"/><path d="m1630.21 310.04h4.83v76.9h-4.83z" fill="url(#D)"/><path d="m1734.45 310.04h9.66v85.75h-9.66z" fill="url(#E)"/><path d="m1734.45 260.23h4.21v37.9h-4.21z" fill="url(#F)"/><path d="m1197.43 18.54h82.79v68.22h-82.79z" fill="url(#G)"/><path d="m-1195 648.18h59.25a11.77 11.77 0 0 1 11.75 11.82h-82.79a11.77 11.77 0 0 1 11.79-11.82z" fill="url(#H)" transform="translate(2404.2 -641.4)"/><path d="m1288.11 18.54h82.79v68.22h-82.79z" fill="url(#I)"/><path d="m-1104.32 648.18h59.25a11.77 11.77 0 0 1 11.77 11.82h-82.79a11.77 11.77 0 0 1 11.77-11.77z" fill="url(#J)" transform="translate(2404.2 -641.4)"/><path d="m-956.44 648.18h59.24a11.77 11.77 0 0 1 11.77 11.82h-82.77a11.77 11.77 0 0 1 11.77-11.77z" fill="url(#K)" transform="translate(2404.2 -641.4)"/><path d="m1435.99 18.54h82.79v68.22h-82.79z" fill="url(#L)"/><ellipse cx="1364.79" cy="97.97" fill="url(#M)" rx="30.91" ry="15.37"/><ellipse cx="1364.79" cy="89.04" fill="#99897b" rx="30.91" ry="15.37"/><path d="m787.87 252.96h186.33v8.3h-186.33z" fill="#927e6c"/><path d="m-1659.26 728.16v166.24h42.92v-166.24zm36.89 59.24a5.35 5.35 0 0 1 -5.33 5.33h-21.3a5.35 5.35 0 0 1 -5.33-5.33v-44.6a5.35 5.35 0 0 1 5.33-5.33h21.33a5.35 5.35 0 0 1 5.33 5.33z" fill="url(#N)" transform="translate(2404.2 -641.4)"/><path d="m379.99 73.67h47.47v19.62h-47.47z" fill="url(#O)"/><path d="m378.15 71.04h51.15v3.33h-51.15z" fill="url(#P)"/><path d="m551.82 71.04h51.15v3.33h-51.15z" fill="url(#Q)"/><path d="m-1794.69 728.16v63h-337.18a51.44 51.44 0 0 0 -51.45 51.43h-119.83v114.52h602.15v-229z" fill="url(#R)" transform="translate(2404.2 -641.4)"/><path d="m1665.04 86.76h-63.13l9.87-15.67h41.88z" fill="url(#S)"/><path d="m1665.04 0h-63.13l9.87 71.09h41.88z" fill="url(#T)"/><g transform="translate(2404.2 -641.4)"><path d="m-1195 648.18h59.25a11.77 11.77 0 0 1 11.75 11.82h-82.79a11.77 11.77 0 0 1 11.79-11.82z" fill="url(#H)"/><path d="m-1104.32 648.18h59.25a11.77 11.77 0 0 1 11.77 11.82h-82.79a11.77 11.77 0 0 1 11.77-11.77z" fill="url(#J)"/><path d="m-956.44 648.18h59.24a11.77 11.77 0 0 1 11.77 11.82h-82.77a11.77 11.77 0 0 1 11.77-11.77z" fill="url(#K)"/><path d="m-1195 648.18h59.25a11.77 11.77 0 0 1 11.75 11.82h-82.79a11.77 11.77 0 0 1 11.79-11.82z" fill="url(#U)"/><path d="m-1104.32 648.18h59.25a11.77 11.77 0 0 1 11.77 11.82h-82.79a11.77 11.77 0 0 1 11.77-11.77z" fill="url(#V)"/><path d="m-956.44 648.18h59.24a11.77 11.77 0 0 1 11.77 11.82h-82.77a11.77 11.77 0 0 1 11.77-11.77z" fill="url(#W)"/><path d="m-1331 1004a52.87 52.87 0 0 0 -62.24-41.44 52.87 52.87 0 0 0 -41.43 62.24 52.87 52.87 0 0 0 62.22 41.44 52.87 52.87 0 0 0 41.45-62.24zm-53.44 53.16 2.19-24.74a18.86 18.86 0 0 0 3-.33 16.86 16.86 0 0 0 2.63-.76l11.54 22a42.83 42.83 0 0 1 -19.32 3.82zm13.28-67a26.91 26.91 0 0 1 8.52 6.52l-7.2 5.2a17.92 17.92 0 0 0 -4.42-3.37zm11.43 10.57a26.61 26.61 0 0 1 3.46 10l-8.82.48v-.36a18 18 0 0 0 -1.77-4.92zm-19.21-4a17.86 17.86 0 0 0 -5-.39l-4.88-24.37a42.64 42.64 0 0 1 18.51 1.46zm-14.77-23.73 4.88 24.37a18.21 18.21 0 0 0 -4.29 2.17l-17.3-17.9a42.55 42.55 0 0 1 16.71-8.59zm-20.29 12 17.24 17.83a18.43 18.43 0 0 0 -2.74 4.57l-24.23-5.61a43.06 43.06 0 0 1 9.73-16.74zm-10.91 21.55 24.15 5.68a18 18 0 0 0 .23 5.63l.06.23-23.41 8.27c-.35-1.2-.66-2.41-.91-3.65a42.49 42.49 0 0 1 -.12-16.13zm26.2 16.34a18 18 0 0 0 2.81 3.85l-15.21 19.7a42.64 42.64 0 0 1 -11-15.2zm6.71 7a17.88 17.88 0 0 0 4.8 2l-2.19 24.8a42.66 42.66 0 0 1 -17.83-7.15zm31.31 21.11-11.55-22a17.8 17.8 0 0 0 3.66-3.54l21.6 12.3a42.71 42.71 0 0 1 -13.71 13.24zm16.18-17.64-21.6-12.29a18 18 0 0 0 1.22-5l24.84-1.34a42.67 42.67 0 0 1 -4.46 18.58z" fill="#63564a"/></g><circle cx="646.71" cy="391.56" fill="#53493e" r="40.32"/><path d="m-1199.86 1004a52.88 52.88 0 0 0 -62.24-41.46 52.9 52.9 0 0 0 -41.46 62.24 52.88 52.88 0 0 0 62.24 41.46 52.88 52.88 0 0 0 41.46-62.24zm-53.44 53.16 2.15-24.74a18.86 18.86 0 0 0 3-.33 17.31 17.31 0 0 0 2.64-.76l11.54 22a42.83 42.83 0 0 1 -19.32 3.82zm13.28-67a26.87 26.87 0 0 1 8.51 6.52l-7.2 5.2a17.51 17.51 0 0 0 -4.42-3.37zm11.43 10.57a26.59 26.59 0 0 1 3.45 10l-8.81.48a.74.74 0 0 0 -.06-.36 18 18 0 0 0 -1.76-4.92zm-19.21-4a17.86 17.86 0 0 0 -5-.39l-4.89-24.37a42.68 42.68 0 0 1 18.49 1.42zm-14.75-23.73 4.89 24.37a18.28 18.28 0 0 0 -4.3 2.17l-17.3-17.9a42.55 42.55 0 0 1 16.71-8.59zm-20.33 12 17.25 17.83a18.47 18.47 0 0 0 -2.75 4.57l-24.23-5.61a43.06 43.06 0 0 1 9.73-16.74zm-10.91 21.55 24.16 5.68a18 18 0 0 0 .23 5.63v.23l-23.41 8.27c-.35-1.2-.66-2.41-.91-3.65a42.69 42.69 0 0 1 -.07-16.13zm26.2 16.34a18 18 0 0 0 2.81 3.85l-15.22 19.66a42.64 42.64 0 0 1 -11-15.2zm6.72 7a17.74 17.74 0 0 0 4.8 2l-2.2 24.8a42.85 42.85 0 0 1 -17.83-7.15zm31.3 21.11-11.54-22a18 18 0 0 0 3.65-3.54l21.61 12.3a43 43 0 0 1 -13.72 13.24zm16.19-17.64-21.59-12.29a18 18 0 0 0 1.23-5l24.83-1.34a42.51 42.51 0 0 1 -4.47 18.58z" fill="#63564a" transform="translate(2404.2 -641.4)"/><path d="m-1072.63 1004a52.88 52.88 0 0 0 -62.24-41.46 52.9 52.9 0 0 0 -41.46 62.24 52.88 52.88 0 0 0 62.24 41.46 52.88 52.88 0 0 0 41.46-62.24zm-53.44 53.16 2.19-24.74a18.86 18.86 0 0 0 3-.33 17.31 17.31 0 0 0 2.64-.76l11.54 22a42.83 42.83 0 0 1 -19.32 3.82zm13.28-67a26.87 26.87 0 0 1 8.51 6.52l-7.2 5.2a17.46 17.46 0 0 0 -4.41-3.37zm11.43 10.57a26.59 26.59 0 0 1 3.45 10l-8.81.48a.74.74 0 0 0 -.06-.36 18 18 0 0 0 -1.76-4.92zm-19.21-4a17.86 17.86 0 0 0 -5-.39l-4.89-24.37a42.67 42.67 0 0 1 18.52 1.46zm-14.75-23.73 4.89 24.37a18.28 18.28 0 0 0 -4.3 2.17l-17.3-17.9a42.69 42.69 0 0 1 16.71-8.59zm-20.32 12 17.24 17.83a18.47 18.47 0 0 0 -2.75 4.57l-24.23-5.61a42.89 42.89 0 0 1 9.74-16.74zm-10.92 21.55 24.16 5.68a18 18 0 0 0 .23 5.63v.23l-23.41 8.27c-.34-1.2-.66-2.41-.9-3.65a42.69 42.69 0 0 1 -.08-16.13zm26.2 16.34a18 18 0 0 0 2.81 3.85l-15.25 19.62a42.64 42.64 0 0 1 -11-15.2zm6.72 7a17.74 17.74 0 0 0 4.8 2l-2.2 24.8a42.85 42.85 0 0 1 -17.83-7.15zm31.3 21.11-11.54-22a17.75 17.75 0 0 0 3.65-3.54l21.61 12.3a42.84 42.84 0 0 1 -13.72 13.24zm16.19-17.64-21.59-12.29a17.62 17.62 0 0 0 1.23-5l24.83-1.34a42.54 42.54 0 0 1 -4.47 18.67z" fill="#63564a" transform="translate(2404.2 -641.4)"/><path d="m-942 1004a52.88 52.88 0 0 0 -62.24-41.46 52.9 52.9 0 0 0 -41.46 62.24 52.88 52.88 0 0 0 62.24 41.46 52.88 52.88 0 0 0 41.46-62.24zm-53.44 53.16 2.19-24.74a18.86 18.86 0 0 0 3-.33 17.31 17.31 0 0 0 2.64-.76l11.54 22a42.83 42.83 0 0 1 -19.32 3.82zm13.28-67a26.87 26.87 0 0 1 8.51 6.52l-7.2 5.2a17.46 17.46 0 0 0 -4.41-3.37zm11.43 10.57a26.59 26.59 0 0 1 3.45 10l-8.81.48a.74.74 0 0 0 -.06-.36 18 18 0 0 0 -1.76-4.92zm-19.21-4a17.86 17.86 0 0 0 -5-.39l-4.91-24.34a42.67 42.67 0 0 1 18.52 1.46zm-14.77-23.73 4.89 24.37a18.28 18.28 0 0 0 -4.3 2.17l-17.3-17.9a42.55 42.55 0 0 1 16.71-8.59zm-20.29 12 17.24 17.83a18.47 18.47 0 0 0 -2.75 4.57l-24.23-5.61a42.89 42.89 0 0 1 9.74-16.74zm-10.92 21.55 24.16 5.68a18 18 0 0 0 .23 5.63.45.45 0 0 0 0 .23l-23.36 8.27c-.35-1.2-.66-2.41-.91-3.65a42.9 42.9 0 0 1 -.12-16.13zm26.2 16.34a18 18 0 0 0 2.81 3.85l-15.21 19.7a42.64 42.64 0 0 1 -11-15.2zm6.72 7a17.88 17.88 0 0 0 4.8 2l-2.2 24.8a42.85 42.85 0 0 1 -17.83-7.15zm31.3 21.11-11.54-22a18 18 0 0 0 3.65-3.54l21.61 12.3a42.84 42.84 0 0 1 -13.75 13.24zm16.19-17.64-21.61-12.29a17.62 17.62 0 0 0 1.23-5l24.83-1.34a42.66 42.66 0 0 1 -4.45 18.58z" fill="#63564a" transform="translate(2404.2 -641.4)"/><path d="m-807.75 1004a52.87 52.87 0 0 0 -62.25-41.43 52.87 52.87 0 0 0 -41.44 62.24 52.87 52.87 0 0 0 62.24 41.45 52.87 52.87 0 0 0 41.45-62.26zm-53.4 53.16 2.19-24.74a18.86 18.86 0 0 0 3-.33 17.31 17.31 0 0 0 2.64-.76l11.54 22a42.83 42.83 0 0 1 -19.32 3.82zm13.28-67a26.87 26.87 0 0 1 8.51 6.52l-7.2 5.2a17.46 17.46 0 0 0 -4.41-3.37zm11.43 10.57a26.59 26.59 0 0 1 3.45 10l-8.81.48a.74.74 0 0 0 -.06-.36 18 18 0 0 0 -1.76-4.92zm-19.21-4a17.86 17.86 0 0 0 -5-.39l-4.89-24.34a42.67 42.67 0 0 1 18.54 1.44zm-14.75-23.73 4.89 24.37a18.28 18.28 0 0 0 -4.3 2.17l-17.3-17.9a42.73 42.73 0 0 1 16.67-8.64zm-20.32 12 17.24 17.83a18.61 18.61 0 0 0 -2.72 4.53l-24.27-5.61a42.89 42.89 0 0 1 9.74-16.74zm-10.92 21.55 24.16 5.68a18 18 0 0 0 .23 5.63.45.45 0 0 0 0 .23l-23.36 8.27c-.34-1.2-.66-2.41-.9-3.65a42.69 42.69 0 0 1 -.17-16.13zm26.2 16.34a18 18 0 0 0 2.81 3.85l-15.25 19.62a42.64 42.64 0 0 1 -11-15.2zm6.72 7a17.74 17.74 0 0 0 4.8 2l-2.2 24.8a42.85 42.85 0 0 1 -17.83-7.15zm31.3 21.11-11.58-22a17.75 17.75 0 0 0 3.65-3.54l21.61 12.3a42.77 42.77 0 0 1 -13.72 13.24zm16.22-17.64-21.59-12.29a17.62 17.62 0 0 0 1.23-5l24.83-1.34a42.69 42.69 0 0 1 -4.51 18.58z" fill="#63564a" transform="translate(2404.2 -641.4)"/><path d="m-1757.49 998.54a34.42 34.42 0 0 0 -34.43 34.41 34.43 34.43 0 0 0 34.41 34.43 34.41 34.41 0 0 0 34.43-34.41 34.43 34.43 0 0 0 -34.41-34.43zm0 62.19a27.78 27.78 0 0 1 -27.78-27.78 27.78 27.78 0 0 1 27.78-27.78 27.78 27.78 0 0 1 27.78 27.78 27.78 27.78 0 0 1 -27.78 27.78z" fill="#63564a" transform="translate(2404.2 -641.4)"/><rect fill="#63564a" height="30" rx="5.51" width="23" x="635.21" y="376.56"/><circle cx="646.71" cy="391.56" fill="#53493e" r="9"/><circle cx="-1903.96" cy="1032.98" fill="#53493e" r="40.32" transform="matrix(.3163114 -.94865542 .94865542 .3163114 122.45 -1741.35)"/><path d="m-1904 998.54a34.42 34.42 0 0 0 -34.42 34.42 34.42 34.42 0 0 0 34.42 34.42 34.42 34.42 0 0 0 34.42-34.42 34.42 34.42 0 0 0 -34.42-34.42zm0 62.19a27.79 27.79 0 0 1 -27.77-27.79 27.78 27.78 0 0 1 27.79-27.77 27.78 27.78 0 0 1 27.78 27.83 27.78 27.78 0 0 1 -27.78 27.78z" fill="#63564a" transform="translate(2404.2 -641.4)"/><rect fill="#63564a" height="30" rx="5.51" width="23" x="488.72" y="376.56"/><circle cx="500.22" cy="391.56" fill="#53493e" r="9"/><path d="m168.89 347.92h101.39v68.34h-101.39z" fill="#53493e"/><circle cx="294.22" cy="391.56" fill="#53493e" r="40.32"/><path d="m-2110 998.54a34.42 34.42 0 0 0 -34.42 34.42 34.42 34.42 0 0 0 34.42 34.42 34.42 34.42 0 0 0 34.42-34.42 34.42 34.42 0 0 0 -34.42-34.42zm0 62.19a27.79 27.79 0 0 1 -27.77-27.79 27.78 27.78 0 0 1 27.79-27.77 27.78 27.78 0 0 1 27.78 27.83 27.78 27.78 0 0 1 -27.78 27.78z" fill="#63564a" transform="translate(2404.2 -641.4)"/><rect fill="#63564a" height="30" rx="5.51" width="23" x="282.72" y="376.56"/><circle cx="294.22" cy="391.56" fill="#53493e" r="9"/><circle cx="147.72" cy="391.56" fill="#53493e" r="40.32"/><path d="m-2256.48 998.54a34.42 34.42 0 0 0 -34.43 34.41 34.43 34.43 0 0 0 34.41 34.43 34.41 34.41 0 0 0 34.43-34.41 34.42 34.42 0 0 0 -34.41-34.43zm0 62.19a27.78 27.78 0 0 1 -27.78-27.78 27.78 27.78 0 0 1 27.78-27.78 27.78 27.78 0 0 1 27.78 27.83 27.78 27.78 0 0 1 -27.78 27.78z" fill="#63564a" transform="translate(2404.2 -641.4)"/><rect fill="#63564a" height="30" rx="5.51" width="23" x="136.22" y="376.56"/><circle cx="147.72" cy="391.56" fill="#53493e" r="9"/><path d="m703.16 15.86h50.78v20.45h-50.78z" fill="url(#X)"/><path d="m1287.8 16.92h83.1v2.84h-83.1z" fill="url(#Y)"/><path d="m1435.84 16.92h83.1v2.84h-83.1z" fill="url(#Z)"/><path d="m1197.27 16.92h83.1v2.84h-83.1z" fill="url(#aa)"/><g fill="#927e6c"><path d="m974 152.84h770.11v4.14h-770.11z"/><path d="m974 191.33h770.11v4.14h-770.11z"/><path d="m988.75 363.81h532.75v9.63h-532.75z"/><path d="m1453.28 340.09h176.93v8.4h-176.93z"/><path d="m1536.2 376.42h94.01v5.36h-94.01z"/><path d="m1534.58 306.71h8.15v76.39h-8.15z"/><path d="m1536.2 314.91h94.01v2.68h-94.01z"/><path d="m1426.95 302.5h114.79v5.54h-114.79z"/><circle cx="990.03" cy="368.62" r="10.01"/><circle cx="1122.47" cy="368.62" r="10.01"/><circle cx="1254.9" cy="368.62" r="10.01"/><circle cx="1387.33" cy="368.62" r="10.01"/><circle cx="1287.53" cy="388.63" r="10.01"/><circle cx="1451.63" cy="344.9" r="10.01"/><circle cx="1519.77" cy="368.62" r="10.01"/><path d="m-1118.35 1006.51h164.1v7.06h-164.1z" transform="matrix(.96840931 -.24936603 .24936603 .96840931 2119.59 -867.91)"/><path d="m1519.77 334.89h40.42v20.01h-40.42z"/><path d="m1527.67 350.69h22.8v20.56h-22.8z"/><path d="m1431.54 275.07h12.8v31.64h-12.8z"/><path d="m-959.34 941.66h8.26v42.08h-8.26z" transform="matrix(.93716026 -.3488992 .3488992 .93716026 2008.29 -914.18)"/><path d="m-971.19 883.32h8.26v37.57h-8.26z" transform="matrix(.93716026 -.3488992 .3488992 .93716026 2028.69 -922.12)"/><path d="m1532.53 371.25h13.46v15.7h-13.46z"/></g></svg>